<svg xmlns="http://www.w3.org/2000/svg" width="74.153" height="61.367" viewBox="0 0 74.153 61.367">
    <defs>
        <style>
            .cls-1,.cls-2{fill-rule:evenodd}.cls-2{fill:#ef3a2f}
        </style>
    </defs>
    <g id="cms" transform="translate(0 0)">
        <path id="Path_82576" d="M72.7 29.4h-4.777v-4.3a1.448 1.448 0 0 0-1.448-1.448h-3.294a26.857 26.857 0 0 0-2.562-6.178l2.331-2.331a1.448 1.448 0 0 0 0-2.049l-8.124-8.122a1.449 1.449 0 0 0-2.048 0L50.446 7.3a26.85 26.85 0 0 0-6.177-2.562v-3.29A1.448 1.448 0 0 0 42.821 0H31.332a1.448 1.448 0 0 0-1.448 1.448v3.294A26.844 26.844 0 0 0 23.706 7.3l-2.332-2.328a1.449 1.449 0 0 0-2.049 0L11.2 13.1a1.448 1.448 0 0 0 0 2.048l2.332 2.332a26.842 26.842 0 0 0-2.562 6.177H7.678A1.449 1.449 0 0 0 6.229 25.1v4.3H1.448a1.448 1.448 0 1 0 0 2.9h29.835a1.448 1.448 0 0 0 0-2.9h-6.245a12.125 12.125 0 0 1 24.077 0h-6.246a1.448 1.448 0 1 0 0 2.9H72.7a1.448 1.448 0 0 0 0-2.9zM37.076 15.822A15.046 15.046 0 0 0 22.122 29.4h-13v-2.849H12.1a1.449 1.449 0 0 0 1.412-1.125 23.976 23.976 0 0 1 3.071-7.406 1.449 1.449 0 0 0-.2-1.794l-2.109-2.106 6.076-6.075 2.106 2.106a1.449 1.449 0 0 0 1.794.2 23.986 23.986 0 0 1 7.406-3.071 1.448 1.448 0 0 0 1.124-1.41V2.9h8.592v2.97A1.449 1.449 0 0 0 42.5 7.282a24 24 0 0 1 7.4 3.071 1.447 1.447 0 0 0 1.793-.2L53.8 8.045l6.076 6.076-2.106 2.105a1.448 1.448 0 0 0-.2 1.794 24 24 0 0 1 3.071 7.406 1.448 1.448 0 0 0 1.412 1.125h2.975V29.4h-13a15.046 15.046 0 0 0-14.952-13.578zm0 0" class="cls-1" transform="translate(0 0)"/>
        <path id="Path_82577" d="M65.232 262.768h3.055a3.112 3.112 0 0 1 3.108 3.109 1.448 1.448 0 1 0 2.9 0 6.012 6.012 0 0 0-6-6.005h-3.063a6.012 6.012 0 0 0-6.005 6.005v11.081a6.012 6.012 0 0 0 6.005 6.005h3.055a6.012 6.012 0 0 0 6-6.005 1.448 1.448 0 1 0-2.9 0 3.112 3.112 0 0 1-3.108 3.109h-3.047a3.112 3.112 0 0 1-3.109-3.109v-11.082a3.112 3.112 0 0 1 3.109-3.108zm0 0" class="cls-2" transform="translate(-50.649 -222.234)"/>
        <path id="Path_82578" d="M210.254 261.6a1.448 1.448 0 0 0-1.629.692l-7.537 13.435-7.537-13.435a1.448 1.448 0 0 0-2.712.709v19.709a1.448 1.448 0 1 0 2.9 0v-14.172l6.089 10.853a1.448 1.448 0 0 0 2.526 0l6.088-10.853v14.167a1.448 1.448 0 1 0 2.9 0V263a1.448 1.448 0 0 0-1.082-1.4zm0 0" class="cls-2" transform="translate(-163.201 -223.669)"/>
        <path id="Path_82579" d="M365.465 266.2a3.92 3.92 0 1 1 3.193-6.194 1.448 1.448 0 1 0 2.357-1.683 6.816 6.816 0 1 0-5.55 10.774 3.919 3.919 0 1 1-3.473 5.739 1.448 1.448 0 1 0-2.564 1.347 6.816 6.816 0 1 0 6.037-9.982zm0 0" class="cls-2" transform="translate(-306.706 -218.467)"/>
        <path id="Path_82580" d="M248.9 204.436a1.448 1.448 0 1 0-1.448 1.448 1.451 1.451 0 0 0 1.448-1.448zm0 0" class="cls-1" transform="translate(-210.372 -173.59)"/>
    </g>
</svg>
