<svg xmlns="http://www.w3.org/2000/svg" width="63" height="63" viewBox="0 0 63 63">
    <defs>
        <style>
            .cls-2{stroke:#fff;fill:#ef3a2f}
        </style>
    </defs>
    <g id="coding" transform="translate(0.5 0.5)">
        <path id="Path_82473" fill="#2d2d2d" stroke="#fff" d="M60.184 0H1.816A1.816 1.816 0 0 0 0 1.816v58.368A1.816 1.816 0 0 0 1.816 62h58.368A1.816 1.816 0 0 0 62 60.184V1.816A1.816 1.816 0 0 0 60.184 0zm-1.817 3.633v7.473h-7.473V3.633zm-54.734 0h43.628v7.473H3.633zm54.734 54.734H3.633V14.739h54.734z"/>
        <path id="Path_82474" d="M85.817 209.222l7.673-7.54a1.816 1.816 0 1 0-2.546-2.591l-8.98 8.824a1.816 1.816 0 0 0-.011 2.58l8.98 8.98a1.816 1.816 0 1 0 2.569-2.569z" class="cls-2" transform="translate(-71.561 -174.525)"/>
        <path id="Path_82475" d="M326.953 199.1a1.816 1.816 0 0 0 0 2.569l7.684 7.684-7.673 7.54a1.816 1.816 0 0 0 2.546 2.591l8.98-8.824a1.816 1.816 0 0 0 .011-2.58l-8.98-8.98a1.816 1.816 0 0 0-2.568 0z" class="cls-2" transform="translate(-286.893 -174.524)"/>
        <path id="Path_82476" d="M223.664 198.672a1.816 1.816 0 0 0-2.319 1.1l-6.314 17.8a1.816 1.816 0 1 0 3.424 1.214l6.314-17.8a1.816 1.816 0 0 0-1.105-2.314z" class="cls-2" transform="translate(-188.9 -174.521)"/>
    </g>
</svg>
