<svg xmlns="http://www.w3.org/2000/svg" width="60" height="60.32" viewBox="0 0 60 60.32">
    <defs>
        <style>
            .cls-1{fill:#ef3a2f}
        </style>
    </defs>
    <g id="Consult-Talk" transform="translate(-2 -1.68)">
        <path id="Rectangle_19169" d="M0 0H2V2H0z" class="cls-1" transform="translate(16 25)"/>
        <path id="Rectangle_19170" d="M0 0H2V2H0z" class="cls-1" transform="translate(26 25)"/>
        <path id="Path_82487" d="M61.142 36.01l-3.907-.558a14 14 0 0 0-.657-1.6l2.364-3.152a1 1 0 0 0-.093-1.307l-4.243-4.243a.989.989 0 0 0-.606-.283v-9.626A8 8 0 0 0 57 9a7.917 7.917 0 0 0-4.573-7.224A1 1 0 0 0 51 2.68v5.6l-2 .667-2-.667v-5.6a1 1 0 0 0-1.427-.9A7.917 7.917 0 0 0 41 9a8 8 0 0 0 3 6.241V22h-3a1 1 0 0 0-.99.858l-.647 4.529 1.98.283.524-3.67h4.266l.524 3.67a1 1 0 0 0 .71.818 11.939 11.939 0 0 1 2.4.987 1 1 0 0 0 1.081-.077l2.961-2.22 3.016 3.016-2.225 2.961a1 1 0 0 0-.077 1.081 11.939 11.939 0 0 1 .987 2.4 1 1 0 0 0 .818.71L60 37.87v4.266l-3.67.524a1 1 0 0 0-.818.71 11.939 11.939 0 0 1-.987 2.4 1 1 0 0 0 .077 1.081l2.22 2.961-3.022 3.016-2.955-2.228a1 1 0 0 0-1.081-.077 11.939 11.939 0 0 1-2.4.987 1 1 0 0 0-.71.818L46.133 56H42v-4.229a11.1 11.1 0 0 0-.45-3.121 9.11 9.11 0 1 0-6.394-7.062c-.024-.01-.047-.022-.071-.031L27 38.323v-1.537A11.089 11.089 0 0 0 30.479 34H33a3 3 0 0 0 3-3v-2.184A3 3 0 0 0 38 26v-3a3 3 0 0 0-2-2.816V19a14 14 0 1 0-28 0v1.184A3 3 0 0 0 6 23v3a3 3 0 0 0 3 3h2c.064 0 .126-.01.189-.014a11.023 11.023 0 0 0 5.811 7.8v1.537l-8.085 3.234A10.949 10.949 0 0 0 2 51.771V61a1 1 0 0 0 1 1h38a1 1 0 0 0 1-1v-3h5a1 1 0 0 0 .99-.858l.558-3.907a14 14 0 0 0 1.6-.657l3.152 2.364a1 1 0 0 0 1.307-.093l4.243-4.243a1 1 0 0 0 .093-1.307l-2.364-3.152a14 14 0 0 0 .657-1.6l3.907-.558A1 1 0 0 0 62 43v-6a1 1 0 0 0-.858-.99zm-11-8.588c-.047-.023-.1-.038-.147-.06V15H48v7.93l-.01-.072A1 1 0 0 0 47 22h-1v-7.26a1 1 0 0 0-.429-.821A6 6 0 0 1 45 4.522V9a1 1 0 0 0 .684.949l3 1a1 1 0 0 0 .632 0l3-1A1 1 0 0 0 53 9V4.522a6 6 0 0 1-.571 9.4 1 1 0 0 0-.429.818v11.293zM37 40a7.05 7.05 0 1 1 3.333 5.941 10.916 10.916 0 0 0-2.611-2.877A6.836 6.836 0 0 1 37 40zm-4-8h-1.214a10.9 10.9 0 0 0 1.025-3.014c.063 0 .125.014.189.014h1v2a1 1 0 0 1-1 1zm-2-11a3.015 3.015 0 0 1-2.4-1.2l-1.8-2.4a1 1 0 0 0-.674-.392 1.011 1.011 0 0 0-.751.211L22.019 19.9A5.018 5.018 0 0 1 18.9 21H13v-1a9 9 0 0 1 18 0zm5 5a1 1 0 0 1-1 1h-2v-5h2a1 1 0 0 1 1 1zM22 7a12.013 12.013 0 0 1 12 12v1h-1a11 11 0 0 0-22 0h-1v-1A12.013 12.013 0 0 1 22 7zM9 27a1 1 0 0 1-1-1v-3a1 1 0 0 1 1-1h2v5zm4 0v-4h5.9a7.024 7.024 0 0 0 4.372-1.534l2.551-2.041L27 21a5.025 5.025 0 0 0 4 2v4a8.947 8.947 0 0 1-1.522 5H22v2h5.644A8.991 8.991 0 0 1 13 27zm9 11a10.966 10.966 0 0 0 3-.426V39a3 3 0 1 1-6 0v-1.426A10.966 10.966 0 0 0 22 38zm18 22h-6V49h-2v11H12V49h-2v11H4v-8.229a8.958 8.958 0 0 1 5.658-8.357l7.563-3.025a4.968 4.968 0 0 0 9.558 0l7.563 3.025A8.958 8.958 0 0 1 40 51.771z"/>
        <path id="Rectangle_19171" d="M0 0H2V2H0z" class="cls-1" transform="translate(43 26)"/>
        <path id="Rectangle_19172" d="M0 0H2V2H0z" class="cls-1" transform="translate(43 52)"/>
        <path id="Rectangle_19173" d="M0 0H2V2H0z" class="cls-1" transform="translate(51.778 49.193) rotate(-45)"/>
        <path id="Rectangle_19174" d="M0 0H2V2H0z" class="cls-1" transform="translate(56 39)"/>
        <path id="Rectangle_19175" d="M0 0H2V2H0z" class="cls-1" transform="translate(51.778 30.808) rotate(-45)"/>
    </g>
</svg>
