<svg xmlns="http://www.w3.org/2000/svg" id="XMLID_816_" width="64.127" height="64.127" viewBox="0 0 64.127 64.127">
    <defs>
        <style>
            .cls-1{fill:#ef3a2f}
        </style>
    </defs>
    <g id="XMLID_1663_">
        <g id="XMLID_709_">
            <path id="XMLID_710_" d="M232.182 364.99a1.253 1.253 0 1 0 .886.367 1.261 1.261 0 0 0-.886-.367z" transform="translate(-202.007 -319.276)"/>
            <path id="XMLID_734_" d="M423.022 335.12a1.253 1.253 0 1 0 .885.367 1.262 1.262 0 0 0-.885-.367z" transform="translate(-368.944 -293.147)"/>
            <path id="XMLID_735_" d="M127.191 287a1.253 1.253 0 1 0 .886.367 1.261 1.261 0 0 0-.886-.367z" transform="translate(-110.165 -251.054)"/>
            <path id="XMLID_744_" d="M64.127 13.594a1.253 1.253 0 0 0-1.252-1.252h-1.929A13.532 13.532 0 0 0 59.9 9.8l1.363-1.364a1.253 1.253 0 0 0 0-1.771l-3.8-3.8a1.253 1.253 0 0 0-1.771 0l-1.37 1.367a13.541 13.541 0 0 0-2.537-1.05v-1.93A1.253 1.253 0 0 0 50.533 0h-5.377A1.253 1.253 0 0 0 43.9 1.252v1.934a13.536 13.536 0 0 0-2.532 1.051L40 2.868a1.253 1.253 0 0 0-1.771 0l-3.8 3.8a1.25 1.25 0 0 0-.348 1.1H5.014A5.02 5.02 0 0 0 0 12.78v34.56a5.02 5.02 0 0 0 5.014 5.014h19.9v4.258h-3a4.519 4.519 0 0 0-4.514 4.513v1.749a1.253 1.253 0 0 0 1.252 1.252H41.7a1.253 1.253 0 0 0 1.252-1.252v-1.749a4.518 4.518 0 0 0-4.513-4.513h-3v-4.258h19.89a5.02 5.02 0 0 0 5.011-5.014V26.813l.919-.919a1.252 1.252 0 0 0 0-1.771l-1.369-1.368a13.54 13.54 0 0 0 1.051-2.532h1.933a1.253 1.253 0 0 0 1.252-1.252zM40.446 61.125v.5H19.905v-.5a2.011 2.011 0 0 1 2.008-2.008h16.525a2.011 2.011 0 0 1 2.008 2.008zm-7.515-4.513H27.42v-4.258h5.511zm24.9-9.272a2.512 2.512 0 0 1-2.509 2.509H5.014A2.512 2.512 0 0 1 2.5 47.34v-2.862h46.568a1.252 1.252 0 1 0 0-2.5H2.5v-3.527h9.561a1.252 1.252 0 0 0 0-2.5H2.5V12.78a2.512 2.512 0 0 1 2.514-2.51h30.557a13.542 13.542 0 0 0-.812 2.071h-1.944a1.253 1.253 0 0 0-1.253 1.252v5.377a1.253 1.253 0 0 0 1.252 1.252h1.949a13.549 13.549 0 0 0 1.046 2.521l-1.379 1.379a1.253 1.253 0 0 0 0 1.771l3.8 3.8A1.253 1.253 0 0 0 40 29.7l1.379-1.379a13.536 13.536 0 0 0 2.521 1.042v1.949a1.253 1.253 0 0 0 1.252 1.252h5.377a1.253 1.253 0 0 0 1.252-1.252v-1.945a13.536 13.536 0 0 0 2.527-1.045l1.378 1.378a1.252 1.252 0 0 0 1.771 0l.378-.378V47.34zm3.787-29.622h-1.644a1.253 1.253 0 0 0-1.223.982 11.066 11.066 0 0 1-1.486 3.579 1.253 1.253 0 0 0 .169 1.562l1.166 1.168-2.031 2.03-1.169-1.171a1.253 1.253 0 0 0-1.446-.235 1.231 1.231 0 0 0-.113.064 11.066 11.066 0 0 1-3.577 1.479 1.252 1.252 0 0 0-.984 1.224v1.66h-2.871V28.4a1.253 1.253 0 0 0-.982-1.223 11.068 11.068 0 0 1-3.572-1.481 1.253 1.253 0 0 0-1.56.17l-1.177 1.177-2.03-2.031 1.177-1.177a1.253 1.253 0 0 0 .169-1.562 11.065 11.065 0 0 1-1.48-3.57 1.253 1.253 0 0 0-1.223-.982h-1.664v-2.875h1.66a1.253 1.253 0 0 0 1.223-.983 11.064 11.064 0 0 1 1.477-3.574 1.253 1.253 0 0 0-.169-1.562l-1.171-1.172 2.031-2.03 1.168 1.168a1.254 1.254 0 0 0 1.58.158 11.061 11.061 0 0 1 3.562-1.475 1.253 1.253 0 0 0 .982-1.223V2.5h2.87v1.649a1.253 1.253 0 0 0 .983 1.223 11.066 11.066 0 0 1 3.586 1.484 1.254 1.254 0 0 0 1.56-.17l1.162-1.162L58.6 7.555l-1.16 1.162a1.253 1.253 0 0 0-.169 1.562 11.06 11.06 0 0 1 1.483 3.583 1.252 1.252 0 0 0 1.223.983h1.645v2.872z"/>
            <path id="XMLID_999_" d="M327.765 68a7.765 7.765 0 1 0 7.765 7.765A7.774 7.774 0 0 0 327.765 68zm0 13.026a5.26 5.26 0 1 1 5.26-5.26 5.266 5.266 0 0 1-5.26 5.26z" transform="translate(-279.921 -59.483)"/>
            <path id="XMLID_1012_" d="M154.922 187.22a1.253 1.253 0 1 0 .885.367 1.26 1.26 0 0 0-.885-.367z" class="cls-1" transform="translate(-134.423 -163.771)"/>
            <path id="XMLID_1094_" d="M104.867 125.743a1.252 1.252 0 0 0-.125-.95l-2.115-3.663a1.252 1.252 0 0 0-1.711-.458l-1.2.7a7.922 7.922 0 0 0-1.253-.725v-1.39A1.253 1.253 0 0 0 97.206 118h-4.23a1.253 1.253 0 0 0-1.252 1.252v1.39a7.932 7.932 0 0 0-1.253.725l-1.2-.7a1.252 1.252 0 0 0-1.711.458l-2.115 3.663a1.252 1.252 0 0 0 .455 1.712l1.205.7c-.022.24-.032.482-.032.723s.011.483.032.723l-1.205.7a1.252 1.252 0 0 0-.458 1.711l2.115 3.663a1.252 1.252 0 0 0 1.711.458l1.2-.7a7.921 7.921 0 0 0 1.253.725v1.39a1.253 1.253 0 0 0 1.252 1.252h4.229a1.253 1.253 0 0 0 1.252-1.252V135.2a7.931 7.931 0 0 0 1.253-.725l1.2.7a1.252 1.252 0 0 0 1.711-.458l2.115-3.663a1.252 1.252 0 0 0-.458-1.711l-1.205-.7c.022-.24.033-.482.033-.723s-.011-.483-.033-.723l1.205-.7a1.254 1.254 0 0 0 .592-.754zm-4.377 1.051a5.568 5.568 0 0 1 0 2.257 1.253 1.253 0 0 0 .6 1.339l.856.494-.862 1.493-.857-.495a1.252 1.252 0 0 0-1.461.151 5.474 5.474 0 0 1-1.951 1.128 1.252 1.252 0 0 0-.861 1.19v.988h-1.725v-.988a1.252 1.252 0 0 0-.861-1.19 5.475 5.475 0 0 1-1.951-1.128 1.252 1.252 0 0 0-1.461-.151l-.857.495-.862-1.493.856-.494a1.253 1.253 0 0 0 .6-1.339 5.574 5.574 0 0 1 0-2.257 1.252 1.252 0 0 0-.6-1.339l-.856-.494.862-1.493.857.495a1.252 1.252 0 0 0 1.461-.151 5.474 5.474 0 0 1 1.951-1.128 1.252 1.252 0 0 0 .861-1.19v-.994h1.725v.988a1.252 1.252 0 0 0 .861 1.19 5.475 5.475 0 0 1 1.951 1.128 1.253 1.253 0 0 0 1.461.151l.857-.5.862 1.493-.856.494a1.253 1.253 0 0 0-.6 1.35z" class="cls-1" transform="translate(-74.592 -103.221)"/>
        </g>
    </g>
</svg>
