<svg xmlns="http://www.w3.org/2000/svg" width="67.766" height="60.388" viewBox="0 0 67.766 60.388">
    <defs>
        <style>
            .cls-1{fill:#ef3a2f}
        </style>
    </defs>
    <g id="online-shopping_1_" transform="translate(0 -27.87)">
        <path id="Path_82571" d="M64.126 32.794H46.213a18.26 18.26 0 0 0-2.107-1.7.993.993 0 0 0-1.13 1.633 16.136 16.136 0 1 1-4.03-2.025.993.993 0 0 0 .634-1.881 18.226 18.226 0 1 0 8.453 5.959h16.093a1.656 1.656 0 0 1 1.654 1.654v31.243h-7.851a.993.993 0 1 0 0 1.985h7.851v5.213a1.656 1.656 0 0 1-1.654 1.654H3.64a1.656 1.656 0 0 1-1.654-1.654v-5.213h50.943a.993.993 0 1 0 0-1.985H1.985V36.434a1.656 1.656 0 0 1 1.655-1.655h11.837a.993.993 0 0 0 0-1.985H3.64A3.644 3.644 0 0 0 0 36.434v38.441a3.644 3.644 0 0 0 3.64 3.64H25.4v7.758h-3a.993.993 0 0 0 0 1.985h22.72a.993.993 0 1 0 0-1.985h-3v-7.758h22a3.644 3.644 0 0 0 3.64-3.64V36.434a3.644 3.644 0 0 0-3.634-3.64zM40.139 86.273H27.384v-7.758h12.755z"/>
        <path id="Path_82572" d="M172.861 92.792a2.38 2.38 0 0 0-2.337-1.937h-1.061a.993.993 0 1 0 0 1.985h1.061a.393.393 0 0 1 .386.32l2.938 15.56a.993.993 0 0 0 .975.808h.67a1.853 1.853 0 1 0 2.759 0h4.084a1.853 1.853 0 1 0 2.759 0h.893a.993.993 0 1 0 0-1.985h-10.343l-.405-2.145h11.094a.993.993 0 0 0 .975-.808l1.762-9.295v-.018a1.193 1.193 0 0 0-1.176-1.394h-14.828zm1.481 7.842h2.708l.2 2.779h-2.386zm7.089 0l-.2 2.779h-1.983l-.2-2.779zm-2.531-1.986l-.2-2.779h3.086l-.2 2.779zm4.322 4.765l.2-2.779h2.619l-.527 2.779zm3.2-4.765h-2.85l.2-2.779h3.173zm-9.722-2.779l.2 2.779h-2.938l-.525-2.779z" class="cls-1" transform="translate(-146.172 -54.649)"/>
        <path id="Path_82573" d="M42.344 262.086h5.871a.993.993 0 0 0 0-1.985h-5.871a.993.993 0 0 0 0 1.985z" class="cls-1" transform="translate(-35.878 -201.494)"/>
        <path id="Path_82574" d="M42.344 295.915H53.3a.993.993 0 1 0 0-1.985H42.344a.993.993 0 1 0 0 1.985z" class="cls-1" transform="translate(-35.878 -230.846)"/>
        <path id="Path_82575" d="M415.626 108.37a.993.993 0 0 0-.993.993v2.484h-2.484a.993.993 0 1 0 0 1.985h2.484v2.484a.993.993 0 1 0 1.985 0v-2.484h2.482a.993.993 0 1 0 0-1.985h-2.484v-2.484a.993.993 0 0 0-.99-.993z" class="cls-1" transform="translate(-356.738 -69.845)"/>
    </g>
</svg>
