<svg xmlns="http://www.w3.org/2000/svg" width="60" height="60" viewBox="0 0 60 60">
    <path d="M12.1 232.471a.879.879 0 0 0-.879-.879 9.456 9.456 0 0 1-3.915-18.066.879.879 0 1 0-.728-1.6 11.214 11.214 0 0 0 4.642 21.424.879.879 0 0 0 .88-.879z" transform="translate(0 -187.021)"/>
    <path fill="#ef3a2f" d="M80.538 27.09a14.866 14.866 0 0 1 27.756-4.321.879.879 0 1 0 1.552-.825 16.717 16.717 0 0 0-1.7-2.592V7.636l2.123-2.536a2.638 2.638 0 1 0-1.347-1.129l-2.331 2.778a.879.879 0 0 0-.206.565v10.157a16.578 16.578 0 0 0-5.291-3.264V8.073a2.637 2.637 0 1 0-1.758 0v5.575a16.763 16.763 0 0 0-6.324-.391V5.118a2.637 2.637 0 1 0-1.758 0v8.462a16.592 16.592 0 0 0-6.324 3.049V8.073a2.637 2.637 0 1 0-1.758 0v10.14a16.517 16.517 0 0 0-4.078 7.266 11.117 11.117 0 0 0-1.269-.653V7.316a.879.879 0 0 0-.206-.565l-2.331-2.778A2.635 2.635 0 1 0 73.941 5.1l2.126 2.534v16.597a11.3 11.3 0 0 0-2.714-.328.879.879 0 0 0 0 1.758 9.375 9.375 0 0 1 5.782 1.97.879.879 0 0 0 1.4-.541zm30.655-25.332a.877.877 0 1 1-.879.877.879.879 0 0 1 .879-.877zm-10.978 2.954a.877.877 0 1 1-.879.877.879.879 0 0 1 .879-.877zm-8.082-2.954a.877.877 0 1 1-.879.877.879.879 0 0 1 .879-.877zm-8.082 2.954a.877.877 0 1 1-.879.877.879.879 0 0 1 .879-.877zM72.139 2.634a.879.879 0 1 1 .879.877.879.879 0 0 1-.879-.877z" transform="translate(-62.133 0)"/>
    <path d="M409.292 220.1a8.479 8.479 0 0 0-1.89.212 16.68 16.68 0 0 0-.42-3.626.879.879 0 1 0-1.713.393 14.925 14.925 0 0 1 .376 3.335c0 .343-.012.694-.036 1.041a.879.879 0 0 0 1.2.877 6.7 6.7 0 1 1 2.481 12.93h-2.882a.879.879 0 1 0 0 1.758h2.882a8.46 8.46 0 1 0 0-16.919z" transform="translate(-357.756 -190.694)"/>
    <path d="M287.539 380.343h-8.145a.879.879 0 1 0 0 1.758h3.686v8.552a2.637 2.637 0 1 0 1.758 0V382.1h2.7a.879.879 0 1 0 0-1.758zm-3.581 13.671a.877.877 0 1 1 .879-.877.879.879 0 0 1-.878.877z" transform="translate(-245.877 -335.772)"/>
    <path d="M159.05 380.343h-8a.879.879 0 1 0 0 1.758h2.562v8.552a2.637 2.637 0 1 0 1.758 0V382.1h3.683a.879.879 0 1 0 0-1.758zm-4.562 13.671a.877.877 0 1 1 .879-.877.879.879 0 0 1-.879.877z" transform="translate(-132.57 -335.772)"/>
    <path d="M90.663 315.637a2.634 2.634 0 0 0-.879 5.118v12.013l-3.723 4.432a.879.879 0 0 0 1.346 1.13l3.929-4.681a.879.879 0 0 0 .206-.565v-12.329a2.634 2.634 0 0 0-.879-5.118zm0 3.511a.877.877 0 1 1 .879-.877.879.879 0 0 1-.879.877z" transform="translate(-75.795 -278.648)"/>
    <path d="M236.137 315.637a2.634 2.634 0 0 0-.879 5.118v17.014a.879.879 0 0 0 1.758 0v-17.014a2.634 2.634 0 0 0-.879-5.118zm0 3.511a.877.877 0 1 1 .879-.877.879.879 0 0 1-.879.877z" transform="translate(-206.137 -278.648)"/>
    <path d="M366.135 332.768v-12.013a2.637 2.637 0 1 0-1.758 0v12.333a.879.879 0 0 0 .206.565l3.929 4.681a.879.879 0 0 0 1.346-1.13zm-.879-15.373a.877.877 0 1 1-.879.877.879.879 0 0 1 .879-.877z" transform="translate(-320.125 -278.648)"/>
</svg>
