<svg xmlns="http://www.w3.org/2000/svg" width="59.422" height="58.61" viewBox="0 0 59.422 58.61">
    <defs>
        <style>
            .cls-1{fill:#ef3a2f}
        </style>
    </defs>
    <g id="innovation" transform="translate(0 -3.495)">
        <path id="Path_82544" d="M80.06 108.212a1.161 1.161 0 0 0-1.081-.738 1.161 1.161 0 0 0-1.081.738l-3.427 8.757a1.161 1.161 0 1 0 2.162.846l.581-1.485h3.527l.581 1.485a1.161 1.161 0 0 0 2.162-.845zm-1.937 5.8l.856-2.188.855 2.188z" class="cls-1" transform="translate(-65.758 -91.911)"/>
        <path id="Path_82545" d="M169.655 118.552a1.161 1.161 0 0 0 1.161-1.161v-8.757a1.161 1.161 0 1 0-2.321 0v8.757a1.161 1.161 0 0 0 1.16 1.161z" class="cls-1" transform="translate(-148.939 -91.911)"/>
        <path id="Path_82546" d="M55.138 30.423a3.971 3.971 0 0 0-3.79 2.808h-2.526l-.962-4.161a1.173 1.173 0 0 0-1.131-.9h-2.306a18.215 18.215 0 0 0 .868-4.813h6.378a3.968 3.968 0 1 0 0-2.321h-6.382a20.142 20.142 0 0 0-.829-4.813h2.272a1.173 1.173 0 0 0 1.131-.9l.962-4.161h2.526a3.965 3.965 0 1 0 0-2.321H47.9a1.16 1.16 0 0 0-1.115.841c-.006.018-.011.037-.016.059l-.962 4.159h-2.229a17.7 17.7 0 0 0-3.2-4.747 1.161 1.161 0 0 0-1.691 1.59 15.347 15.347 0 0 1 2.292 3.157h-3.694a1.161 1.161 0 1 0 0 2.321h4.728a17.557 17.557 0 0 1 .95 4.813h-7.171a1.161 1.161 0 0 0 0 2.321h7.173a15.591 15.591 0 0 1-1.012 4.813h-4.668a1.161 1.161 0 0 0 0 2.321h3.547a38.715 38.715 0 0 1-2.406 3.543c-1.817 2.474-3.691 5.027-4.456 8.744H20.243a16.752 16.752 0 0 0-1.932-5.022 2.339 2.339 0 0 0 1.743-2.254v-.333a13.819 13.819 0 0 0 2.675-1.111l.237.238a2.339 2.339 0 0 0 3.3 0l2.334-2.331a2.34 2.34 0 0 0 0-3.3l-.238-.238a13.841 13.841 0 0 0 1.111-2.677h.327a2.34 2.34 0 0 0 2.341-2.348v-3.3a2.34 2.34 0 0 0-2.341-2.328h-.332a13.844 13.844 0 0 0-1.111-2.677l.238-.238a2.341 2.341 0 0 0 0-3.3L26.27 9.221a2.339 2.339 0 0 0-3.3 0l-.237.238a13.815 13.815 0 0 0-2.675-1.111v-.333a2.329 2.329 0 0 0-.072-.567 15.52 15.52 0 0 1 7.111-1.63h.032a15.259 15.259 0 0 1 3.394.337A1.161 1.161 0 1 0 31 3.885a17.548 17.548 0 0 0-3.9-.389 17.859 17.859 0 0 0-8.868 2.242 2.331 2.331 0 0 0-.524-.062h-3.284a2.34 2.34 0 0 0-2.337 2.337v.333a13.815 13.815 0 0 0-2.674 1.112l-.237-.238a2.339 2.339 0 0 0-3.3 0l-2.335 2.332a2.341 2.341 0 0 0 0 3.3l.238.238a13.843 13.843 0 0 0-1.111 2.677h-.331A2.34 2.34 0 0 0 0 20.11v3.3a2.34 2.34 0 0 0 2.337 2.337h.332a13.84 13.84 0 0 0 1.11 2.673l-.238.238a2.34 2.34 0 0 0 0 3.3l2.329 2.336a2.339 2.339 0 0 0 3.3 0l.237-.238a13.819 13.819 0 0 0 2.675 1.111v.333a2.34 2.34 0 0 0 2.337 2.337h1.212a15.35 15.35 0 0 1 2.383 5.654 3.721 3.721 0 0 0-.512 5.584 3.722 3.722 0 0 0 1.8 6.183v2.32a4.532 4.532 0 0 0 4.525 4.528h6.55a4.533 4.533 0 0 0 4.529-4.528v-2.32a3.724 3.724 0 0 0 1.8-6.183 3.723 3.723 0 0 0-.506-5.585c.631-3.354 2.32-5.654 4.1-8.08a33.1 33.1 0 0 0 3.172-4.918h2.338l.962 4.161a1.173 1.173 0 0 0 1.131.9h3.449a3.966 3.966 0 1 0 3.79-5.129zm.32-9.872a1.646 1.646 0 1 1-1.642 1.649 1.647 1.647 0 0 1 1.642-1.649zm-.32-12.193A1.644 1.644 0 1 1 53.5 10a1.647 1.647 0 0 1 1.638-1.642zM17.732 34.271V35.5a.021.021 0 0 1-.016.016h-3.292a.021.021 0 0 1-.016-.016v-1.229a1.161 1.161 0 0 0-.905-1.132 11.53 11.53 0 0 1-3.655-1.519 1.16 1.16 0 0 0-1.443.159l-.872.873a.017.017 0 0 1-.021 0l-2.329-2.33a.022.022 0 0 1 0-.023l.872-.873a1.16 1.16 0 0 0 .159-1.442A11.552 11.552 0 0 1 4.7 24.327a1.161 1.161 0 0 0-1.132-.906H2.337a.021.021 0 0 1-.016-.016v-3.3a.021.021 0 0 1 .016-.016h1.228a1.161 1.161 0 0 0 1.135-.901 11.553 11.553 0 0 1 1.515-3.658 1.16 1.16 0 0 0-.159-1.442l-.872-.873a.021.021 0 0 1 0-.023l2.329-2.331a.017.017 0 0 1 .021 0l.872.873a1.161 1.161 0 0 0 1.443.159 11.533 11.533 0 0 1 3.651-1.517 1.161 1.161 0 0 0 .905-1.132V8.015A.021.021 0 0 1 14.424 8h3.293a.021.021 0 0 1 .016.016v1.228a1.16 1.16 0 0 0 .905 1.132 11.527 11.527 0 0 1 3.654 1.518 1.161 1.161 0 0 0 1.443-.159l.872-.873a.017.017 0 0 1 .021 0l2.329 2.331a.021.021 0 0 1 0 .023l-.872.873a1.16 1.16 0 0 0-.159 1.442 11.553 11.553 0 0 1 1.517 3.657 1.161 1.161 0 0 0 1.132.906H29.8a.021.021 0 0 1 .016.016v3.3a.021.021 0 0 1-.016.016h-1.224a1.161 1.161 0 0 0-1.132.906 11.552 11.552 0 0 1-1.517 3.657 1.16 1.16 0 0 0 .159 1.442l.872.873a.022.022 0 0 1 0 .023l-2.329 2.331a.017.017 0 0 1-.021 0l-.872-.873a1.161 1.161 0 0 0-1.443-.159 11.53 11.53 0 0 1-3.655 1.518 1.161 1.161 0 0 0-.905 1.132zM32.59 57.578a2.209 2.209 0 0 1-2.208 2.206h-6.55a2.208 2.208 0 0 1-2.2-2.206v-2.21H32.59v2.21zm1.422-4.531H20.206a1.405 1.405 0 1 1 0-2.811h13.806a1.405 1.405 0 0 1 0 2.811zm0-5.132H20.206a1.407 1.407 0 1 1 0-2.814h13.806a1.407 1.407 0 0 1 0 2.814zm21.126-11.879a1.646 1.646 0 1 1 1.646-1.644 1.645 1.645 0 0 1-1.646 1.644z"/>
        <path id="Path_82547" d="M296.5 24.186h.007a1.156 1.156 0 0 0 1.554-.521 1.162 1.162 0 1 0-1.56.518z" transform="translate(-261.525 -16.346)"/>
    </g>
</svg>
