<svg xmlns="http://www.w3.org/2000/svg" width="60.531" height="60.531" viewBox="0 0 60.531 60.531">
    <defs>
        <style>
            .cls-1{fill:#ef3a2f}
        </style>
    </defs>
    <g id="data-scientist_1_" transform="translate(-1 -1)">
        <path id="Path_82540" d="M57.626 32.242v-8.787a4.887 4.887 0 0 0-4.882-4.882H27.36a4.819 4.819 0 0 0-2.122.507 12.563 12.563 0 0 0-5.388-3.7 7.812 7.812 0 1 0-8.392.01 12.7 12.7 0 0 0-8.5 11.968v4.882H1v29.291h60.531V32.242zM33.218 47.863v-3.905h13.669v3.905zm-5.858-5.858a2.933 2.933 0 0 1-2.929-2.929V38.1h31.242v.976a2.933 2.933 0 0 1-2.929 2.929zm25.384-21.479a2.933 2.933 0 0 1 2.929 2.929v12.692H24.431V23.455a2.933 2.933 0 0 1 2.929-2.929zM9.787 8.81a5.858 5.858 0 1 1 5.858 5.858A5.864 5.864 0 0 1 9.787 8.81zM4.905 27.36a10.752 10.752 0 0 1 10.74-10.739 10.636 10.636 0 0 1 8.047 3.649 4.839 4.839 0 0 0-1.213 3.185v8.787H9.787v-8.787H7.834v8.787H4.905zm17.574 6.834v4.882a4.887 4.887 0 0 0 4.882 4.882h3.905v3.905H27.36v1.953h25.384v-1.953h-3.905v-3.905h3.905a4.887 4.887 0 0 0 4.882-4.882v-4.881h1.953v19.526H2.953V34.195zM2.953 59.579v-3.906h56.626v3.905z"/>
        <path id="Path_82541" d="M13.787 52.621c2.968 0 8.787-1.179 8.787-3.905v-7.81c0-2.726-5.819-3.905-8.787-3.905S5 38.179 5 40.905v7.81c0 2.727 5.819 3.906 8.787 3.906zm0-1.953c-3.357 0-6.644-1.324-6.834-1.953v-1.5a16.752 16.752 0 0 0 6.834 1.5 16.743 16.743 0 0 0 6.836-1.5v1.476c-.192.653-3.48 1.977-6.836 1.977zm0-11.716c3.318 0 6.569 1.295 6.829 1.953-.261.658-3.511 1.953-6.829 1.953-3.35 0-6.628-1.319-6.834-1.925v-.009c.206-.652 3.484-1.971 6.834-1.971zm-6.834 4.36a16.752 16.752 0 0 0 6.834 1.5 16.753 16.753 0 0 0 6.835-1.5v1.478c-.2.652-3.482 1.973-6.835 1.973s-6.644-1.324-6.834-1.953z" class="cls-1" transform="translate(-0.095 -0.853)"/>
        <path id="Path_82542" d="M28.929 10.763a2.91 2.91 0 0 0 1.622-.493l3.406 2.555a2.867 2.867 0 0 0-.146.867 2.929 2.929 0 0 0 5.858 0 2.881 2.881 0 0 0-.294-1.255l3.92-3.92a2.831 2.831 0 0 0 2.51 0l1.967 1.967a2.9 2.9 0 0 0-.293 1.256 2.929 2.929 0 0 0 5.858 0 2.881 2.881 0 0 0-.294-1.255l3.92-3.92a2.9 2.9 0 0 0 1.256.293 2.929 2.929 0 1 0-2.929-2.929 2.881 2.881 0 0 0 .294 1.255L51.663 9.1a2.831 2.831 0 0 0-2.51 0l-1.967-1.963a2.9 2.9 0 0 0 .293-1.256 2.929 2.929 0 0 0-5.858 0 2.881 2.881 0 0 0 .294 1.255l-3.92 3.92a2.88 2.88 0 0 0-2.877.2L31.711 8.7a2.867 2.867 0 0 0 .146-.867 2.929 2.929 0 1 0-2.929 2.929zm29.289-7.81a.976.976 0 1 1-.976.976.978.978 0 0 1 .976-.976zm-6.834 8.787a.976.976 0 1 1-.976-.976.978.978 0 0 1 .976.975zM44.55 4.905a.976.976 0 1 1-.976.976.978.978 0 0 1 .976-.976zm-7.81 7.81a.976.976 0 1 1-.976.976.978.978 0 0 1 .975-.975zm-7.81-5.858a.976.976 0 1 1-.976.976.978.978 0 0 1 .975-.975z" class="cls-1" transform="translate(-0.592 0)"/>
        <path id="Path_82543" d="M53.384 32.763h-1.953V23h-5.857v9.763h-1.953v-5.858h-5.858v5.858H35.81v-7.81h-5.857v7.81H28v1.953h25.384zm-5.858-7.81h1.953v7.81h-1.953zm-7.81 3.905h1.953v3.905h-1.953zm-7.81-1.953h1.953v5.858h-1.954z" class="cls-1" transform="translate(-0.64 -0.521)"/>
    </g>
</svg>
