<svg xmlns="http://www.w3.org/2000/svg" width="63.615" height="65.667" viewBox="0 0 63.615 65.667">
    <defs>
        <style>
            .cls-1{fill:#ef3a2f}
        </style>
    </defs>
    <g id="api" transform="translate(-8)">
        <path id="Path_82566" d="M66.759 24.869A12.528 12.528 0 0 0 54.7 8.973a12.692 12.692 0 0 0-1.473.085 14.472 14.472 0 0 0-26.84 0 12.754 12.754 0 0 0-1.473-.085 12.528 12.528 0 0 0-12.057 15.9 10.374 10.374 0 0 0 5.513 19.156h1.964V48.2a2.718 2.718 0 0 0 2.715 2.715h.507a16.732 16.732 0 0 0 1.42 3.425l-.356.356a2.718 2.718 0 0 0 0 3.844l2.843 2.847a2.724 2.724 0 0 0 3.838 0l.362-.361a16.73 16.73 0 0 0 3.422 1.418v.507a2.721 2.721 0 0 0 2.715 2.716h4.017a2.721 2.721 0 0 0 2.718-2.719v-.507a16.814 16.814 0 0 0 3.42-1.417l.359.36a2.72 2.72 0 0 0 3.842 0L55 58.537a2.724 2.724 0 0 0 0-3.837l-.36-.36a16.9 16.9 0 0 0 1.42-3.424h.5a2.72 2.72 0 0 0 2.721-2.716v-4.171h1.964a10.374 10.374 0 0 0 5.514-19.159zM56.716 48.2a.156.156 0 0 1-.153.15h-1.5a1.282 1.282 0 0 0-1.251 1 14.371 14.371 0 0 1-1.869 4.51 1.282 1.282 0 0 0 .178 1.591l1.061 1.062a.16.16 0 0 1 0 .215l-2.84 2.842a.159.159 0 0 1-.214 0l-1.061-1.062a1.283 1.283 0 0 0-1.591-.178 14.278 14.278 0 0 1-4.5 1.865 1.283 1.283 0 0 0-1 1.252v1.5a.159.159 0 0 1-.153.153H37.8a.157.157 0 0 1-.153-.153v-1.5a1.283 1.283 0 0 0-1-1.252 14.212 14.212 0 0 1-4.5-1.865 1.282 1.282 0 0 0-1.591.176l-1.071 1.064a.158.158 0 0 1-.214 0l-2.839-2.844a.151.151 0 0 1-.044-.109.143.143 0 0 1 .044-.106l1.061-1.062a1.283 1.283 0 0 0 .177-1.593 14.2 14.2 0 0 1-1.87-4.504 1.282 1.282 0 0 0-1.252-1h-1.5a.152.152 0 0 1-.15-.15v-4.173h5.975a11.147 11.147 0 1 0 21.867 0h5.977V48.2zm4.529-6.736H45.564a1.283 1.283 0 1 0 0 2.565h2.546a8.58 8.58 0 1 1-16.608 0h2.546a1.283 1.283 0 0 0 0-2.565H18.37a7.808 7.808 0 0 1-3.405-14.833 1.283 1.283 0 0 0 .639-1.607 9.962 9.962 0 0 1 9.309-13.486 9.8 9.8 0 0 1 2.05.211 1.283 1.283 0 0 0 1.492-.868 11.9 11.9 0 0 1 22.7 0 1.282 1.282 0 0 0 1.491.868 9.837 9.837 0 0 1 2.051-.211 9.962 9.962 0 0 1 9.313 13.486 1.283 1.283 0 0 0 .639 1.607 7.808 7.808 0 0 1-3.405 14.833z"/>
        <path id="Path_82567" d="M352.9 141.875a1.283 1.283 0 0 0-1.283 1.283v12.652a1.283 1.283 0 0 0 2.565 0v-12.652a1.283 1.283 0 0 0-1.282-1.283z" class="cls-1" transform="translate(-299.542 -123.679)"/>
        <path id="Path_82568" d="M248.87 141.875h-3.588a1.3 1.3 0 0 0-1.282 1.283v12.884a1.283 1.283 0 0 0 2.565 0v-4.321c.8 0 1.778-.01 2.305-.01a4.919 4.919 0 1 0 0-9.836zm0 7.271c-.525 0-1.491.005-2.286.01 0-.82-.008-1.826-.008-2.363 0-.455 0-1.5-.006-2.353h2.3a2.354 2.354 0 1 1 0 4.706z" class="cls-1" transform="translate(-205.731 -123.679)"/>
        <path id="Path_82569" d="M121.824 142.879l-.01-.027a1.572 1.572 0 0 0-2.917 0l-.009.023-4.838 12.7a1.282 1.282 0 0 0 2.4.913l.89-2.337h6l.881 2.333a1.282 1.282 0 1 0 2.4-.906zm-3.511 8.71l2.037-5.349 2.019 5.349z" class="cls-1" transform="translate(-92.374 -123.672)"/>
        <path id="Path_82570" d="M247.268 323.285a1.283 1.283 0 1 0 0 2.565h.007a1.283 1.283 0 1 0-.007-2.565z" transform="translate(-207.462 -281.822)"/>
    </g>
</svg>
