<svg xmlns="http://www.w3.org/2000/svg" width="62" height="62" viewBox="0 0 62 62">
    <defs>
        <style>
            .cls-2{fill:#ef3a2f}
        </style>
    </defs>
    <g id="computer_3_" transform="translate(-1 -1)">
        <path id="Path_82469" fill="#1a1a1a" d="M58 1H6a5.006 5.006 0 0 0-5 5v37a5.006 5.006 0 0 0 5 5h18.713a6.866 6.866 0 0 1 .6 7H21a5.006 5.006 0 0 0-5 5v2a1 1 0 0 0 1 1h30a1 1 0 0 0 1-1v-2a5.006 5.006 0 0 0-5-5h-4.311A6.994 6.994 0 0 1 38 52a6.9 6.9 0 0 1 1.283-4H58a5.006 5.006 0 0 0 5-5V6a5.006 5.006 0 0 0-5-5zM6 3h52a3 3 0 0 1 3 3v28h-2V7a2 2 0 0 0-2-2H7a2 2 0 0 0-2 2v27H3V6a3 3 0 0 1 3-3zm34.168 13a4.842 4.842 0 0 1 2.932-1 4.908 4.908 0 0 1 4.608 3.328 1 1 0 0 0 .945.672H57v2h-8.354a1 1 0 0 0-.943.668 4.959 4.959 0 0 1-3.803 3.268A4.839 4.839 0 0 1 40.162 24a4 4 0 0 0 .006-8zM57 17h-7.67a6.843 6.843 0 0 0-12.2-.494A1 1 0 0 0 38 18h2a2 2 0 1 1 0 4h-2a1 1 0 0 0-.868 1.495A6.848 6.848 0 0 0 43.106 27a7.151 7.151 0 0 0 1.1-.087A6.964 6.964 0 0 0 49.315 23H57v11H7V7h50zM46 60v1H18v-1a3 3 0 0 1 3-3h22a3 3 0 0 1 3 3zm-9.467-5h-9.066a8.83 8.83 0 0 0-.414-7h9.894a8.83 8.83 0 0 0-.414 7zM58 46H6a3 3 0 0 1-3-3v-7h58v7a3 3 0 0 1-3 3z"/>
        <path id="Path_82470" d="M32 38a3 3 0 1 0 3 3 3 3 0 0 0-3-3zm0 4a1 1 0 1 1 1-1 1 1 0 0 1-1 1z" class="cls-2"/>
        <path id="Path_82471" d="M14 23h1.382l.4.8-1.49 1.49a1 1 0 0 0 0 1.414l3 3a1 1 0 0 0 1.414 0l1.49-1.49.8.4V30a1 1 0 0 0 1 1h4a1 1 0 0 0 1-1v-1.382l.8-.4 1.49 1.49a1 1 0 0 0 1.414 0l3-3a1 1 0 0 0 0-1.414l-1.49-1.49.4-.8H34a1 1 0 0 0 1-1V18a1 1 0 0 0-1-1h-1.382l-.4-.8 1.49-1.49a1 1 0 0 0 0-1.414l-3-3a1 1 0 0 0-1.414 0l-1.49 1.49-.8-.4V10a1 1 0 0 0-1-1H22a1 1 0 0 0-1 1v1.382l-.8.4-1.49-1.49a1 1 0 0 0-1.414 0l-3 3a1 1 0 0 0 0 1.414l1.49 1.49-.4.8H14a1 1 0 0 0-1 1v4a1 1 0 0 0 1 1zm1-4h1a1 1 0 0 0 .9-.553l1-2a1 1 0 0 0-.188-1.154L16.414 14 18 12.414l1.293 1.293a1 1 0 0 0 1.154.188l2-1A1 1 0 0 0 23 12v-1h2v1a1 1 0 0 0 .553.9l2 1a1 1 0 0 0 1.154-.188L30 12.414 31.586 14l-1.293 1.293a1 1 0 0 0-.188 1.154l1 2A1 1 0 0 0 32 19h1v2h-1a1 1 0 0 0-.9.553l-1 2a1 1 0 0 0 .188 1.154L31.586 26 30 27.586l-1.293-1.293a1.006 1.006 0 0 0-1.154-.188l-2 1A1 1 0 0 0 25 28v1h-2v-1a1 1 0 0 0-.553-.9l-2-1a1 1 0 0 0-1.154.188L18 27.586 16.414 26l1.293-1.293a1 1 0 0 0 .188-1.154l-1-2A1 1 0 0 0 16 21h-1z" class="cls-2"/>
        <path id="Path_82472" d="M24 25a5 5 0 1 0-5-5 5.006 5.006 0 0 0 5 5zm0-8a3 3 0 1 1-3 3 3 3 0 0 1 3-3z" class="cls-2"/>
    </g>
</svg>
