<svg xmlns="http://www.w3.org/2000/svg" width="59.806" height="63.607" viewBox="0 0 59.806 63.607">
    <defs>
        <style>
            .cls-1{fill:#ef3a2f}
        </style>
    </defs>
    <g id="virtual-reality" transform="translate(-0.001 0)">
        <path id="Path_82548" d="M262.149 122.672a.44.44 0 0 1-.016-.08c0-.256.376-.432.656-.432.176 0 .312.056.352.208l1.224 4.335 1.216-4.335c.04-.152.176-.208.352-.208.28 0 .656.184.656.432a.341.341 0 0 1-.017.08l-1.535 5.03c-.072.24-.368.352-.672.352a.661.661 0 0 1-.672-.352zm0 0" class="cls-1" transform="translate(-229.566 -106.983)"/>
        <path id="Path_82549" d="M302.431 122.484a.324.324 0 0 1 .336-.32h1.583c1.048 0 1.9.4 1.9 1.671a1.5 1.5 0 0 1-1.048 1.6l1.048 1.944a.216.216 0 0 1 .04.128.672.672 0 0 1-.648.544.409.409 0 0 1-.36-.248l-1.136-2.208h-.672v2.088c0 .216-.256.328-.52.328s-.52-.112-.52-.328v-5.2zm1.039.592v1.7h.88a.852.852 0 1 0 0-1.7zm0 0" class="cls-1" transform="translate(-264.857 -106.987)"/>
        <path id="Path_82550" d="M59.765 60.188l-.531-3.11a.932.932 0 1 0-1.837.314l.531 3.109a1.064 1.064 0 0 1-1.049 1.243h-6.53l-1.167-7.168a.932.932 0 0 0-1.839.3l1.118 6.869H11.348l1.118-6.869a.932.932 0 0 0-1.839-.3L9.46 61.744H2.928A1.063 1.063 0 0 1 1.88 60.5l1.273-7.453A7.821 7.821 0 0 1 7.59 47.28a.922.922 0 0 0 .334-.144 7.66 7.66 0 0 1 .783-.267l11.182-2.376a17.983 17.983 0 0 0 20.031 0L51.1 46.87a7.814 7.814 0 0 1 5.554 6.178.932.932 0 0 0 1.837-.314 9.685 9.685 0 0 0-6.918-7.667l-.057-.014-11.6-2.466-1.123-.239a2.351 2.351 0 0 1-1.532-2.243v-3.226a31.54 31.54 0 0 0 4.268-4.465 12.572 12.572 0 0 0 2.159-6.375l.033-.592h.435a1.764 1.764 0 0 0 1.658-1.168h.957a1.921 1.921 0 0 0 1.919-1.918v-8.072a1.921 1.921 0 0 0-1.919-1.919h-.957a1.766 1.766 0 0 0-1.528-1.163 12.348 12.348 0 0 0-3.091-6.657C37.09.067 31.056 0 30.717 0H29.1c-.262 0-6.35.033-10.486 4.549a12.346 12.346 0 0 0-3.091 6.658 1.766 1.766 0 0 0-1.533 1.164h-.957a1.921 1.921 0 0 0-1.919 1.919v3.1H9.663a3.2 3.2 0 0 0-3.2 3.2v25.167a9.694 9.694 0 0 0-5.148 6.977L.043 60.188a2.927 2.927 0 0 0 2.885 3.42H56.88a2.927 2.927 0 0 0 2.885-3.42zM45.916 14.234h.854a.055.055 0 0 1 .055.055v8.072a.055.055 0 0 1-.055.055h-.854zM37.448 43.8a16.13 16.13 0 0 1-15.091 0 4.466 4.466 0 0 0 2.054-3.7v-1.636a9.884 9.884 0 0 0 1.767 1.21 9.541 9.541 0 0 0 7.452 0 9.876 9.876 0 0 0 1.767-1.21v1.643a4.471 4.471 0 0 0 2.052 3.7zm-17.46-38c3.568-3.9 9.053-3.944 9.109-3.944h1.616c.081 0 5.53.038 9.106 3.944a10.459 10.459 0 0 1 2.581 5.4H17.407a10.46 10.46 0 0 1 2.581-5.395zm-4.238 7.258h28.3v10.527H33.686a2.727 2.727 0 0 1-1.411-.393 4.579 4.579 0 0 0-4.747 0 2.727 2.727 0 0 1-1.411.393h-1.682a.932.932 0 0 0 0 1.863h1.682a4.59 4.59 0 0 0 2.374-.661 2.722 2.722 0 0 1 2.82 0 4.588 4.588 0 0 0 2.374.661h8.168l-.028.487a10.71 10.71 0 0 1-1.838 5.43A36.649 36.649 0 0 1 32.9 37.96a7.67 7.67 0 0 1-5.99 0 18.49 18.49 0 0 1-2.8-2.187l-.024-.021q-.276-.244-.572-.513a28.129 28.129 0 0 1-3.693-3.873 10.713 10.713 0 0 1-1.838-5.431l-.027-.486H20.1a.932.932 0 0 0 0-1.863h-4.349zm-2.772 1.223a.055.055 0 0 1 .055-.055h.854v8.182h-.854a.055.055 0 0 1-.055-.055zm-4.65 6.3a1.336 1.336 0 0 1 1.335-1.335h1.452v3.1a1.921 1.921 0 0 0 1.919 1.919h.956a1.764 1.764 0 0 0 1.659 1.168h.439l.033.591A12.574 12.574 0 0 0 18.28 32.4a31.539 31.539 0 0 0 4.268 4.465v3.228a2.351 2.351 0 0 1-1.542 2.245l-1.113.236-11.565 2.472zm0 0" transform="translate(0)"/>
    </g>
</svg>
