<svg xmlns="http://www.w3.org/2000/svg" width="45" height="60" viewBox="0 0 45 60">
    <defs>
        <style>
            .cls-1{fill:#ef3a2f}
        </style>
    </defs>
    <g id="repair-man" transform="translate(-80 -16)">
        <path id="Path_82536" d="M202 209a1 1 0 0 0-1-1h-8a1 1 0 0 0-1 1v.946a4.059 4.059 0 0 0 4.054 4.054h1.891a4.059 4.059 0 0 0 4.055-4.054zm-4.054 3h-1.891a2.057 2.057 0 0 1-2.055-2h6a2.057 2.057 0 0 1-2.054 2z" class="cls-1" transform="translate(-98 -168)"/>
        <path id="Path_82537" d="M174 144h-2a1 1 0 0 1-2 0h-2a3 3 0 0 0 6 0z" class="cls-1" transform="translate(-77 -112)"/>
        <path id="Path_82538" d="M251 147a3 3 0 0 0 3-3h-2a1 1 0 0 1-2 0h-2a3 3 0 0 0 3 3z" class="cls-1" transform="translate(-147 -112)"/>
        <path id="Path_82539" d="M124.383 57.076a1 1 0 0 0-1.09.217l-3.674 3.674a2 2 0 0 1-1.593-1.579l3.681-3.681A1 1 0 0 0 121 54h-5a1 1 0 0 0-.707.293l-.057.057A5 5 0 0 0 110.98 52H103v-2h.021A7.987 7.987 0 0 0 111 42.021V37h2.039A1.963 1.963 0 0 0 115 35.039V31h3a1 1 0 0 0 1-1 5.006 5.006 0 0 0-5-5h-3v-1.143A7.866 7.866 0 0 0 103.143 16h-8.286A7.866 7.866 0 0 0 87 23.857V29h-2.039A1.963 1.963 0 0 0 83 30.961v4.078A1.963 1.963 0 0 0 84.961 37H87v5.021A7.988 7.988 0 0 0 94.979 50H95v2h-7.98A5.026 5.026 0 0 0 82 57.02V61h-1a1 1 0 0 0-1 1v9a1 1 0 0 0 1 1h1v3a1 1 0 0 0 1 1h32a1 1 0 0 0 1-1v-7h4a1 1 0 0 0 .707-.293l4-4A1 1 0 0 0 125 63v-5a1 1 0 0 0-.617-.924zm-18.673-.43l-2.467-.617a1 1 0 0 0-1.191 1.286l.7 2.105-2.123.849L102.721 54h2.459zm-9.976-.326a1 1 0 0 0-.976-.291l-2.467.617L92.82 54h2.459l2.09 6.271-2.123-.849.7-2.105a1 1 0 0 0-.215-1zM113 35h-2v-4h2zm1-8a3.005 3.005 0 0 1 2.829 2H111v-2zm-29 8v-4h2v4zm4 7.021V31h15.9v-2H103v-3.59A4.415 4.415 0 0 0 98.59 21h-3.18A4.415 4.415 0 0 0 91 25.41V29h-2v-5.143A5.864 5.864 0 0 1 94.857 18h8.285A5.864 5.864 0 0 1 109 23.857V29h-2v2h2v11.021A5.985 5.985 0 0 1 103.021 48h-8.042A5.985 5.985 0 0 1 89 42.021zM93 27h8v2h-8zm.037-2a2.412 2.412 0 0 1 2.372-2h3.18a2.413 2.413 0 0 1 2.372 2zM101 50v2.837l-2 6-2-6V50zM84 63v2h-2v-2zm0 9h1a1 1 0 0 0 1-1v-1h-4v-3h2v1h2v-6a1 1 0 0 0-1-1h-1v-3.98A3.023 3.023 0 0 1 87.02 54h3.76l-.761 3.8a1 1 0 0 0 1.223 1.166l2.233-.558-.424 1.271a1 1 0 0 0 .577 1.245l5 2 .044.015.028.01a.986.986 0 0 0 .131.032h.026a.9.9 0 0 0 .285 0h.026a.986.986 0 0 0 .131-.032l.028-.01.044-.015 5-2a1 1 0 0 0 .577-1.245l-.424-1.271 2.233.558a1 1 0 0 0 1.223-1.166l-.76-3.8h3.76a3 3 0 0 1 2.777 1.829l-2.464 2.464A1 1 0 0 0 111 59v4.586l-1 1V60h-2v6.586L100.586 74H90V60h-2v14h-4zm25.414 2L114 69.414V74zM123 62.586L119.586 66H115a1 1 0 0 0-.707.293L106.586 74h-3.172l9.293-9.293A1 1 0 0 0 113 64v-4.586L116.414 56h2.172l-2.3 2.3a1 1 0 0 0-.293.707A4 4 0 0 0 119.98 63h.02a1 1 0 0 0 .707-.293L123 60.414z"/>
        <path id="Rectangle_19192" d="M0 0H3V2H0z" class="cls-1" transform="translate(102.478 63)"/>
        <path id="Rectangle_19193" d="M0 0H4V2H0z" class="cls-1" transform="translate(92.478 63)"/>
    </g>
</svg>
