<svg xmlns="http://www.w3.org/2000/svg" width="59.005" height="61.755" viewBox="0 0 59.005 61.755">
    <defs>
        <style>
            .cls-1{fill:#ef3a2f}
        </style>
    </defs>
    <g id="smartphone_5_" transform="translate(0)">
        <path id="Path_82477" d="M212.772 431.413a2.077 2.077 0 1 0 2.077 2.077 2.077 2.077 0 0 0-2.077-2.077zm0 2.648a.571.571 0 1 1 .571-.571.571.571 0 0 1-.571.571z" class="cls-1" transform="translate(-186.885 -378.518)"/>
        <path id="Path_82478" d="M121 47h-.251a.753.753 0 0 0 0 1.506H121A.753.753 0 0 0 121 47z" class="cls-1" transform="translate(-107.574 -42.356)"/>
        <path id="Path_82479" d="M154.3 47h-11.547a.753.753 0 1 0 0 1.506H154.3a.753.753 0 1 0 0-1.506z" class="cls-1" transform="translate(-126.812 -42.356)"/>
        <path id="Path_82480" d="M52.328 160.506h5.744a.753.753 0 1 0 0-1.506h-5.744a.753.753 0 1 0 0 1.506z" class="cls-1" transform="translate(-47.737 -140.298)"/>
        <path id="Path_82481" d="M122.3 159.753a.753.753 0 0 0 .753.753h7.18a.753.753 0 0 0 0-1.506h-7.18a.753.753 0 0 0-.753.753z" class="cls-1" transform="translate(-109.585 -140.298)"/>
        <path id="Path_82482" d="M64.569 185.753a.753.753 0 0 0-.753-.753H52.328a.753.753 0 1 0 0 1.506h11.488a.753.753 0 0 0 .753-.753z" class="cls-1" transform="translate(-47.737 -163.034)"/>
        <path id="Path_82483" d="M170.248 185h-1.436a.753.753 0 1 0 0 1.506h1.436a.753.753 0 1 0 0-1.506z" class="cls-1" transform="translate(-149.601 -163.034)"/>
        <path id="Path_82484" d="M58.595 211h-6.267a.753.753 0 0 0 0 1.506h6.266a.753.753 0 0 0 0-1.506z" class="cls-1" transform="translate(-47.737 -185.771)"/>
        <path id="Path_82485" d="M133.869 211h-6.658a.753.753 0 0 0 0 1.506h6.658a.753.753 0 1 0 0-1.506z" class="cls-1" transform="translate(-113.221 -185.771)"/>
        <path id="Path_82486" fill="#141111" d="M76.411 41.294a3.494 3.494 0 0 0-2.3-2.315 3.356 3.356 0 0 0-1.437-.138 3.5 3.5 0 0 0-2.451 1.441 3.494 3.494 0 0 0-6.2.628 3.536 3.536 0 0 0-.478-.276V16.049A6.076 6.076 0 0 0 57.478 10H36.3a6.021 6.021 0 0 0-6.008 6.049V23.3H24.35A3.35 3.35 0 0 0 21 26.655v11.621a3.35 3.35 0 0 0 3.346 3.355h5.942v24.075a6.021 6.021 0 0 0 6.012 6.049h21.178a6.076 6.076 0 0 0 6.072-6.049v-.718a9.841 9.841 0 0 0 5.959.055l3.5-1.071a9.908 9.908 0 0 0 6.562-12.362zM31.795 16.049a4.513 4.513 0 0 1 4.5-4.542h21.183a4.568 4.568 0 0 1 4.566 4.542v1.984H31.795zm30.25 49.657a4.568 4.568 0 0 1-4.566 4.542H36.3a4.513 4.513 0 0 1-4.5-4.542v-5.5h24.731l2.248 1.422a9.928 9.928 0 0 0 3.266 2.725zM51.354 55.151a3.511 3.511 0 0 1 4.368-.725l.224.128 1.2 3.925c.044.144.092.286.142.427zm21.212 7.38l-3.5 1.071a8.4 8.4 0 0 1-10.48-5.565l-2.971-9.7a.753.753 0 0 0-.935-.5.753.753 0 0 0-.506.943l1.186 3.872a5.018 5.018 0 0 0-5.735 2.34A.753.753 0 0 0 49.88 56l4.269 2.7H31.795V41.631h1.019a6.762 6.762 0 0 0 4.716 6.77.747.747 0 0 0 .2.026.755.755 0 0 0 .662-.393.774.774 0 0 0 .065-.559c-.241-.99-.628-3.783.4-5.093a2.11 2.11 0 0 1 1.785-.751h2.252a3.342 3.342 0 0 0 3.342-3.342v-11.64a3.345 3.345 0 0 0-3.351-3.349h-4.061a.753.753 0 1 0 0 1.506h4.064a1.836 1.836 0 0 1 1.836 1.836V38.27a1.855 1.855 0 0 1-1.855 1.855h-2.233a3.567 3.567 0 0 0-2.973 1.332c-1.075 1.376-1.072 3.513-.915 4.935a5.321 5.321 0 0 1-2.421-5.026 1.176 1.176 0 0 0-1.153-1.241h-8.827a1.843 1.843 0 0 1-1.841-1.855V26.655a1.844 1.844 0 0 1 1.844-1.844h9.2a.753.753 0 1 0 0-1.506h-1.755v-3.766h30.25v20.749A3.486 3.486 0 0 0 59.3 41.62l-3.232-10.543a3.5 3.5 0 1 0-6.686 2.048l3.251 10.614a.753.753 0 0 0 .935.5.753.753 0 0 0 .505-.943l-3.251-10.612a2 2 0 0 1 .512-2.014 1.534 1.534 0 0 1 .212-.179 2 2 0 0 1 3.081 1.027l5.945 19.409a.753.753 0 0 0 1.44-.441l-1.875-6.12a1.99 1.99 0 1 1 3.807-1.166l1.874 6.12a.753.753 0 0 0 1.44-.441l-1.875-6.12a1.99 1.99 0 1 1 3.805-1.166l1.875 6.12a.753.753 0 0 0 1.44-.441L71.165 42.9a2 2 0 0 1 .52-2.021 1.5 1.5 0 0 1 .215-.179 2 2 0 0 1 2.1-.14 1.976 1.976 0 0 1 .969 1.175l3.16 10.316a8.4 8.4 0 0 1-5.564 10.479z" transform="translate(-21 -10)"/>
    </g>
</svg>
