<svg xmlns="http://www.w3.org/2000/svg" xmlns:xlink="http://www.w3.org/1999/xlink" width="70" height="36" viewBox="0 0 70 36">
  <defs>
    <linearGradient id="linear-gradient" y1="0.586" x2="1" y2="0.582" gradientUnits="objectBoundingBox">
      <stop offset="0" stop-color="#ee2d2f"/>
      <stop offset="1" stop-color="#f4792f"/>
    </linearGradient>
  </defs>
  <path id="Union_7" data-name="Union 7" d="M70,36H59L50.643,25.5l-8.28,10.481H31.294l.076-.1-3.061-6.452q-.5.556-1.056,1.088a21.051,21.051,0,0,1-1.738,1.489c-.238.18-.481.357-.725.526q-.552.386-1.127.724c-.127.076-.257.148-.383.22a18.962,18.962,0,0,1-6.3,2.188c-.1.016-.194.032-.293.046l-.248.037q-.408.055-.819.1c-.316.027-.634.05-.957.068-.164.01-.326.018-.49.023h-.14a.512.512,0,0,0-.064.006l-.086.007a.333.333,0,0,1-.076.006.86.86,0,0,1-.107.01.163.163,0,0,0-.036,0c-.092.007-.13.007-.171.007h-2.4v0H0V11.492H.013l8.323-.036c.795,0,1.946.018,2.751.027V24.861c.051,0,.246.006.261.006.393.01.78.009,1.185.021s.8.014,1.209-.009c.382-.022.763-.039,1.147-.059a6.717,6.717,0,0,0,0-13.43c-.026,0-.052,0-.079,0v0h-2.77s-.393-.005-.954-.016c-.806-.009-1.956-.025-2.75-.025l-8.322.036H0V0H13.491A19.153,19.153,0,0,1,27.048,5.18c.116.109.232.213.348.33l.337.338a17.1,17.1,0,0,1,4.2,6.8c.031.1.06.192.09.292A16.42,16.42,0,0,1,32.6,15.66c.037.3.067.6.091.9.032.455.049.913.044,1.377q0,.492-.025.976l4.5,9.617L50.487,11.8v-.313l.125.157.124-.157,0,.315,8.378,10.526.063-16.17H70V36Z" fill="url(#linear-gradient)"/>
</svg>
