<svg xmlns="http://www.w3.org/2000/svg" width="50.001" height="50" viewBox="0 0 50.001 50">
    <g>
        <path fill="none" d="M0 0H50V50H0z" transform="translate(-1563 -5539) translate(1563 5539)"/>
        <g>
            <g>
                <g>
                    <path fill="#f4792f" d="M120.129 306.872a7.527 7.527 0 0 1-1.443-.046.489.489 0 0 1-.1-.018 12.9 12.9 0 0 1-15.855 16.236.732.732 0 1 0-.4 1.409 14.361 14.361 0 0 0 17.8-17.581z" transform="translate(-1563 -5539) translate(1563 5540.785) translate(9.941 28.177) translate(-101.797 -306.808)"/>
                </g>
            </g>
            <g>
                <g>
                    <path d="M38.9 36.3a14.4 14.4 0 0 0-20.229-16.576.734.734 0 0 0 .644 1.32 12.93 12.93 0 0 1 18.139 14.992 14.578 14.578 0 0 0-1.847-.118q-.324 0-.645.015h-.038a.731.731 0 0 0-.111.009 14.261 14.261 0 0 0-7.763 2.8 14.569 14.569 0 0 0-2.058 1.85 14.573 14.573 0 0 0-2.058-1.85 14.261 14.261 0 0 0-7.812-2.8.743.743 0 0 0-.1-.007H15q-.313-.013-.628-.014a14.576 14.576 0 0 0-1.877.122 12.929 12.929 0 0 1 2.822-11.967.736.736 0 1 0-1.1-.977 14.4 14.4 0 0 0-3.176 13.216A14.394 14.394 0 0 0 5.5 61.625a.734.734 0 1 0 .9-1.154 12.926 12.926 0 0 1 5.1-22.756 14.451 14.451 0 0 0 10.178 8.965A14.394 14.394 0 1 0 38.9 36.3zm-24.608 3.635a12.9 12.9 0 0 1-1.32-2.473 13.1 13.1 0 0 1 1.32-.075zm3.057 3.165a13.037 13.037 0 0 1-1.588-1.375v-4.264a12.866 12.866 0 0 1 1.588.268zm3.1 1.678a12.879 12.879 0 0 1-1.632-.745v-5.865a12.765 12.765 0 0 1 1.632.731zm15.208-7.388a13.136 13.136 0 0 1 1.321.072 12.911 12.911 0 0 1-1.321 2.477zm-3.057.35a12.891 12.891 0 0 1 1.588-.272v4.258A13.038 13.038 0 0 1 32.6 43.1zm-3.1 1.181a12.775 12.775 0 0 1 1.632-.738v5.85a12.879 12.879 0 0 1-1.632.745zm-1.577 1l.108-.077v5.387l-.159.039a14.382 14.382 0 0 0-1.927-3.542 13.067 13.067 0 0 1 1.978-1.812zm-.762 8.379h-4.322a12.832 12.832 0 0 1 .29-1.361 14.469 14.469 0 0 0 3.74-.007 12.95 12.95 0 0 1 .292 1.368zm-2.169-5.373a12.827 12.827 0 0 1 1.39 2.585 12.936 12.936 0 0 1-2.782 0 12.823 12.823 0 0 1 1.392-2.581zm-3.074 2.3v-5.411l.142.1a13.068 13.068 0 0 1 1.986 1.815 14.293 14.293 0 0 0-1.925 3.543zm.763 5.085c0-.181 0-.361.012-.54h4.614q.011.269.012.538 0 .527-.044 1.05h-4.551c-.024-.345-.043-.695-.043-1.049zm.247 2.519h4.141a12.991 12.991 0 0 1-.437 1.632h-3.267a12.824 12.824 0 0 1-.437-1.633zM25 57.693a12.957 12.957 0 0 1-1.035-1.763h2.064A12.888 12.888 0 0 1 25 57.693zm10.6 5.543a12.9 12.9 0 0 1-9.657-4.345 14.381 14.381 0 0 0 2.368-12.223A14.452 14.452 0 0 0 38.458 37.7a12.925 12.925 0 0 1-2.852 25.531z" transform="translate(-1563 -5539) translate(1563 5540.785) translate(0 -18.274)"/>
                </g>
            </g>
        </g>
    </g>
</svg>
