<svg xmlns="http://www.w3.org/2000/svg" width="50" height="50" viewBox="0 0 50 50">
    <defs>
        <style>
            .cls-2{fill:#f4792f}
        </style>
    </defs>
    <g id="Group_77027" transform="translate(-1563 -5224) translate(1563 5224)">
        <path id="Rectangle_19197" fill="none" d="M0 0H50V50H0z"/>
        <g id="compliance">
            <path id="Path_82528" d="M43.457 13.126l2.143-2.749-5.977-5.972-2.749 2.138a22.032 22.032 0 0 0-7.216-2.993L29.228 0h-8.456l-.431 3.55a22.036 22.036 0 0 0-7.216 2.993l-2.748-2.138-5.972 5.972 2.138 2.748a22.034 22.034 0 0 0-2.993 7.217l-3.55.43v8.455l3.55.431a22.035 22.035 0 0 0 2.993 7.216l-2.138 2.748 5.972 5.972 2.749-2.138a22.032 22.032 0 0 0 7.216 2.993l.43 3.551h8.455l.431-3.55a22.036 22.036 0 0 0 7.216-2.993l2.749 2.143 5.977-5.977-2.138-2.748a22.034 22.034 0 0 0 2.993-7.216L50 29.228v-8.456l-3.55-.431a22.036 22.036 0 0 0-2.993-7.216zm3.613 13.506l-3.125.379-.178 1.089a19.6 19.6 0 0 1-3.95 8.871l1.877 2.413-2.314 2.31-2.413-1.877a19.6 19.6 0 0 1-8.872 3.95l-1.084.178-.379 3.125h-3.264l-.379-3.125-1.089-.178a19.6 19.6 0 0 1-8.872-3.95l-2.408 1.877-2.314-2.314 1.877-2.413a19.6 19.6 0 0 1-3.95-8.867l-.178-1.084-3.125-.384v-3.264l3.125-.379.178-1.089a19.6 19.6 0 0 1 3.95-8.871L8.306 10.62l2.314-2.314 2.413 1.877a19.6 19.6 0 0 1 8.867-3.95l1.084-.178.379-3.125h3.264l.379 3.125 1.084.178a19.6 19.6 0 0 1 8.872 3.95l2.418-1.877 2.314 2.314-1.877 2.413a19.6 19.6 0 0 1 3.95 8.871l.178 1.084 3.125.379z"/>
            <path id="Path_82529" d="M107.113 91a16.113 16.113 0 1 0 16.113 16.113A16.113 16.113 0 0 0 107.113 91zm0 29.3a13.184 13.184 0 1 1 13.187-13.186 13.183 13.183 0 0 1-13.187 13.186z" class="cls-2" transform="translate(-82.113 -82.113)"/>
            <path id="Path_82530" d="M190.824 206.681l-3.359-3.359-2.071 2.072 5.43 5.43 8.36-8.36-2.071-2.072z" class="cls-2" transform="translate(-167.289 -180.823)"/>
        </g>
    </g>
</svg>
