<svg xmlns="http://www.w3.org/2000/svg" width="50" height="50" viewBox="0 0 50 50">
    <g>
        <path fill="none" d="M0 0H50V50H0z" transform="translate(-1563 -5470) translate(1563 5470)"/>
        <g>
            <path fill="#f4792f" d="M135.175 94.828a1.465 1.465 0 0 0-1.183-1l-6.827-.992-3.053-6.186a1.465 1.465 0 0 0-2.627 0l-3.053 6.186-6.827.992a1.465 1.465 0 0 0-.812 2.5l4.94 4.816-1.166 6.8a1.465 1.465 0 0 0 2.126 1.544l6.106-3.21 6.106 3.21a1.462 1.462 0 0 0 .682.169h.006a1.466 1.466 0 0 0 1.424-1.792l-1.152-6.72 4.94-4.816a1.465 1.465 0 0 0 .37-1.5zm-7.907 4.757a1.464 1.464 0 0 0-.421 1.3l.795 4.633-4.161-2.188a1.465 1.465 0 0 0-1.363 0l-4.161 2.188.795-4.633a1.464 1.464 0 0 0-.421-1.3l-3.367-3.285 4.652-.676a1.465 1.465 0 0 0 1.1-.8l2.08-4.215 2.081 4.215a1.465 1.465 0 0 0 1.1.8l4.652.676zm0 0" transform="translate(-1563 -5470) translate(1566.266 5470) translate(-99.623 -77.454)"/>
            <path d="M23.675 0A20.316 20.316 0 0 0 3.384 20.044L.968 27.09c-.663 1.936-.62 3.639.119 4.675a2.286 2.286 0 0 0 1.877.976h.418V35.2a5.393 5.393 0 0 0 5.388 5.386 2.461 2.461 0 0 1 2.458 2.458v1.569A5.393 5.393 0 0 0 16.615 50H27.6a5.394 5.394 0 0 0 5.387-5.387v-6.288A20.293 20.293 0 0 0 23.675 0zm7.234 36.079a1.465 1.465 0 0 0-.854 1.331v7.2a2.46 2.46 0 0 1-2.455 2.46H16.615a2.46 2.46 0 0 1-2.457-2.458v-1.569a5.393 5.393 0 0 0-5.388-5.387A2.461 2.461 0 0 1 6.312 35.2v-3.924a1.465 1.465 0 0 0-1.465-1.465H3.438a4.58 4.58 0 0 1 .3-1.77l2.494-7.273a1.47 1.47 0 0 0 .079-.475 17.363 17.363 0 1 1 24.6 15.786zm0 0" transform="translate(-1563 -5470) translate(1566.266 5470) translate(-0.5)"/>
        </g>
    </g>
</svg>
