<svg xmlns="http://www.w3.org/2000/svg" width="50" height="50.037" viewBox="0 0 50 50.037">
    <defs>
        <style>
            .cls-2{fill:#f4792f}
        </style>
    </defs>
    <g id="Group_77028" transform="translate(-1563 -5307.967)">
        <path id="Rectangle_19198" fill="none" d="M0 0H50V50H0z" transform="translate(1563 5308)"/>
        <g id="like-2" transform="translate(1565.984 5308)">
            <g id="Group_77000" transform="translate(0 8.807)">
                <g id="Group_76999">
                    <path id="Path_82531" d="M73.512 109.26a4.355 4.355 0 0 0-4.295-4.4H57.77c.93-1.7 1.425-6.551 1.425-8.549a6.061 6.061 0 0 0-5.977-6.128h-1.181a1.45 1.45 0 0 0-1.437 1.468c0 3.394-1.289 9.52-3.63 11.92l-.091.093a15.8 15.8 0 0 1-4.869 3.225v-.561a1.45 1.45 0 0 0-1.432-1.468h-8.59a1.45 1.45 0 0 0-1.432 1.468v23.581a1.45 1.45 0 0 0 1.432 1.468h8.59a1.45 1.45 0 0 0 1.432-1.468v-.9a32.676 32.676 0 0 0 11.8 2.367h9.67a4.355 4.355 0 0 0 4.295-4.4 4.478 4.478 0 0 0-.3-1.622 4.395 4.395 0 0 0 3.165-4.249 4.478 4.478 0 0 0-.3-1.622 4.395 4.395 0 0 0 3.165-4.249 4.586 4.586 0 0 0-1.118-3.008 4.449 4.449 0 0 0 1.12-2.966zm-34.36 0v19.178h-5.727v-20.646h5.727zm30.065 7.44h-8.59a1.468 1.468 0 0 0 0 2.935h5.727a1.468 1.468 0 0 1 0 2.935h-5.727a1.468 1.468 0 0 0 0 2.935h2.863a1.468 1.468 0 0 1 0 2.935h-9.67c-5 0-8.1-1.258-11.8-2.525v-15.748c3.2-1.641 4.79-2.275 6.985-4.524 2.54-2.6 4.074-8.9 4.4-12.522a3.163 3.163 0 0 1 2.93 3.187c0 2.282-.867 7.362-2.444 8.979a1.5 1.5 0 0 0-.31 1.6 1.432 1.432 0 0 0 1.323.906h14.313a1.468 1.468 0 0 1 0 2.935h-8.59a1.468 1.468 0 0 0 0 2.935h8.59a1.543 1.543 0 0 1 1.432 1.566 1.452 1.452 0 0 1-1.432 1.471z" transform="translate(-30.562 -90.18)"/>
                </g>
            </g>
            <g id="Group_77002" transform="translate(17.132)">
                <g id="Group_77001">
                    <path id="Path_82532" d="M215.158 3.747L213.691.811a1.468 1.468 0 1 0-2.625 1.313l1.468 2.935a1.468 1.468 0 1 0 2.625-1.313z" class="cls-2" transform="translate(-210.91)"/>
                </g>
            </g>
            <g id="Group_77004" transform="translate(27.125)">
                <g id="Group_77003">
                    <path id="Path_82533" d="M319.706.156a1.468 1.468 0 0 0-1.969.656l-1.468 2.935a1.468 1.468 0 1 0 2.625 1.313l1.468-2.935a1.468 1.468 0 0 0-.656-1.969z" class="cls-2" transform="translate(-316.114)"/>
                </g>
            </g>
            <g id="Group_77006" transform="translate(31.208 8.807)">
                <g id="Group_77005">
                    <path id="Path_82534" d="M365.609 90.179h-2.935a1.468 1.468 0 1 0 0 2.935h2.935a1.468 1.468 0 1 0 0-2.935z" class="cls-2" transform="translate(-361.206 -90.179)"/>
                </g>
            </g>
            <g id="Group_77008" transform="translate(11.409 8.807)">
                <g id="Group_77007">
                    <path id="Path_82535" d="M155.2 90.179h-2.935a1.468 1.468 0 1 0 0 2.935h2.935a1.468 1.468 0 1 0 0-2.935z" class="cls-2" transform="translate(-150.796 -90.179)"/>
                </g>
            </g>
        </g>
    </g>
</svg>
