<svg xmlns="http://www.w3.org/2000/svg" width="50.443" height="50.001" viewBox="0 0 50.443 50.001">
    <defs>
        <style>
            .cls-2{fill:#f4792f}
        </style>
    </defs>
    <g id="Group_77029" transform="translate(-1562.557 -5386)">
        <path id="Rectangle_19199" fill="none" d="M0 0H50V50H0z" transform="translate(1563 5386)"/>
        <g id="logic" transform="translate(1562.557 5386)">
            <path id="Path_82536" d="M33.4 197.467v-2.842h6.911v9.1a6.158 6.158 0 0 1 2.93 0v-9.1h7.79v14.757a6.158 6.158 0 0 1 2.93 0v-14.757h7.79v9.1a6.158 6.158 0 0 1 2.93 0v-9.1h6.911v2.842a6.158 6.158 0 0 1 2.93 0V191.7H53.961v-4.3L52.5 187l-1.465.4v4.3H30.471v5.767a6.157 6.157 0 0 1 2.93 0z" transform="translate(-27.901 -168.743)"/>
            <path id="Path_82537" d="M179.828 16.806l.283-5.65 3.089-4.737-5.283-2.019-3.55-4.4-3.549 4.4-5.286 2.015 3.092 4.737.283 5.65 5.46-1.477z" class="cls-2" transform="translate(-149.773)"/>
            <circle id="Ellipse_598" cx="3.353" cy="3.353" r="3.353" class="cls-2" transform="translate(21.242 43.295)"/>
            <circle id="Ellipse_599" cx="3.353" cy="3.353" r="3.353" class="cls-2" transform="translate(10.523 37.638)"/>
            <circle id="Ellipse_600" cx="3.353" cy="3.353" r="3.353" class="cls-2" transform="translate(31.961 37.638)"/>
            <circle id="Ellipse_601" cx="3.353" cy="3.353" r="3.353" class="cls-2" transform="translate(0 32.23) rotate(-13.3)"/>
            <circle id="Ellipse_602" cx="3.353" cy="3.353" r="3.353" class="cls-2" transform="matrix(0.851, -0.526, 0.526, 0.851, 40.571, 33.641)"/>
        </g>
    </g>
</svg>
