<svg xmlns="http://www.w3.org/2000/svg" width="50.442" height="50" viewBox="0 0 50.442 50">
    <defs>
        <style>
            .cls-2{fill:#f4792f}
        </style>
    </defs>
    <g id="Group_77031" transform="translate(-1562.558 -5623)">
        <path id="Rectangle_19202" fill="none" d="M0 0H50V50H0z" transform="translate(1563 5623)"/>
        <g id="trusted" transform="translate(1562.557 5623)">
            <path id="Path_82542" d="M49.141 34.915L43.526 29.3a20.506 20.506 0 1 0-37.052 0L.859 34.915A2.93 2.93 0 0 0 2.08 39.79l6.237 1.894 1.894 6.237a2.93 2.93 0 0 0 4.875 1.221l8.2-8.2a20.712 20.712 0 0 0 3.434 0l8.2 8.2a2.93 2.93 0 0 0 4.875-1.221l1.894-6.237 6.237-1.894a2.93 2.93 0 0 0 1.221-4.875zM13.015 47.07l-1.9-6.237a2.923 2.923 0 0 0-1.951-1.952l-6.233-1.894 5.049-5.049a20.579 20.579 0 0 0 11.77 8.4zM10.1 29.821A17.59 17.59 0 1 1 25 38.067a17.575 17.575 0 0 1-14.9-8.246zm30.735 9.06a2.927 2.927 0 0 0-1.952 1.952l-1.9 6.237-6.733-6.735a20.579 20.579 0 0 0 11.77-8.4l5.049 5.049z" transform="translate(0 -0.002)"/>
            <path id="Path_82543" d="M120.556 60A14.649 14.649 0 1 0 135.2 74.647 14.649 14.649 0 0 0 120.556 60zm-7.9 23.294c-7.91-7.22-2.706-20.365 7.9-20.365a11.716 11.716 0 1 1-7.9 20.365z" class="cls-2" transform="translate(-95.555 -54.142)"/>
            <path id="Path_82544" d="M197.78 166.764l-6.457 4.793-2.237-2.383a1.465 1.465 0 1 0-2.136 2l3.13 3.335a1.465 1.465 0 0 0 1.941.174l7.5-5.57a1.465 1.465 0 1 0-1.746-2.352z" class="cls-2" transform="translate(-168.335 -150.218)"/>
        </g>
    </g>
</svg>
