<svg xmlns="http://www.w3.org/2000/svg" width="60.655" height="60.867" viewBox="0 0 60.655 60.867">
    <defs>
        <style>
            .cls-1{fill:#ef3a2f}
        </style>
    </defs>
    <g id="support" transform="translate(-0.894)">
        <path id="Path_82741" d="M246.233 7.734a1.2 1.2 0 0 0 1.2-1.2V1.2a1.2 1.2 0 0 0-2.395 0v5.34a1.2 1.2 0 0 0 1.195 1.194z" class="cls-1" transform="translate(-215.118)"/>
        <path id="Path_82742" d="M60.381 113.518l-2.115-2.109a4.009 4.009 0 0 0-4.744-.677l-3.986-3.981.194-.194a4.155 4.155 0 0 0 0-5.867 4.11 4.11 0 0 0-2.084-1.127 4.181 4.181 0 0 0 .165-1.165 4.146 4.146 0 0 0-3.3-4.061 4.18 4.18 0 0 0 .165-1.165 4.142 4.142 0 0 0-3.3-4.059 4.143 4.143 0 0 0-4.428-5.288l-7.9-1.495c-1.2-.229-2.709-.38-3.658.486a2.163 2.163 0 0 0-.181.188 4.164 4.164 0 0 0-4.368.961 4.119 4.119 0 0 0-1.207 2.935 4.186 4.186 0 0 0 .165 1.165 4.147 4.147 0 0 0-3.3 4.056 4.174 4.174 0 0 0 .165 1.168 4.151 4.151 0 0 0-2.571 6.411 4.149 4.149 0 0 0-1.593 6.86l.193.193-3.986 3.979a4 4 0 0 0-4.529.785l-2.116 2.11a4 4 0 0 0 0 5.648l2.638 2.637a1.2 1.2 0 1 0 1.692-1.694l-2.639-2.638a1.605 1.605 0 0 1 0-2.259l2.116-2.111a1.6 1.6 0 0 1 1.953-.239 1.206 1.206 0 0 0 .151.184 1.192 1.192 0 0 0 .344.239l12.137 12.119a1.179 1.179 0 0 0 .577.583 1.6 1.6 0 0 1-.066 2.186L18.85 130.4a1.608 1.608 0 0 1-2.264 0l-2.641-2.641a1.2 1.2 0 0 0-1.693 1.693l2.643 2.643a4.009 4.009 0 0 0 5.646 0l2.116-2.113a4 4 0 0 0 .561-4.944l4.486-4.481.014-.015c.514-.531 1.944-.432 3.328-.336a17.22 17.22 0 0 0 3.149.021l4.913 4.907a4 4 0 0 0 .679 4.74l2.116 2.113a4 4 0 0 0 5.647 0l12.832-12.817a4 4 0 0 0 0-5.648zM28.608 84.683l5.194.983-3.109 3.107a7.548 7.548 0 0 1-1.863-1.353 5.508 5.508 0 0 1-1.762-2.72 1.046 1.046 0 0 1-.005-.118 4.057 4.057 0 0 1 1.546.1zm-6.07.976a1.766 1.766 0 0 1 2.234-.212 8.564 8.564 0 0 0 2.4 3.7 8.866 8.866 0 0 0 3.449 2.137 1.757 1.757 0 0 1-2.686 2.244l-5.4-5.39a1.763 1.763 0 0 1 0-2.482zm-3.128 5.225a1.766 1.766 0 0 1 2.488 0l4.348 4.339a1.76 1.76 0 0 1-2.491 2.486l-3.3-3.3-.016-.015-1.032-1.031a1.757 1.757 0 0 1 0-2.483zm-3.134 5.223a1.771 1.771 0 0 1 2.48-.008l3.308 3.307a1.757 1.757 0 0 1-2.49 2.48l-1.2-1.2-2.1-2.1a1.761 1.761 0 0 1 0-2.485zm-2.085 6.275a1.77 1.77 0 0 1 2.491 0l1.2 1.2a1.757 1.757 0 0 1-2.491 2.479l-.15-.15-.005-.006-.007-.006-1.037-1.033a1.758 1.758 0 0 1 0-2.483zm24.4 13.607a1.2 1.2 0 0 0-1.693 0l-1.065 1.064c-1.012 1.012-2.846.885-4.62.762-1.926-.134-3.918-.272-5.206 1.051l-4.41 4.4-11.03-11.008 3.9-3.9a4.152 4.152 0 0 0 6.32-3.541v-.031h.031a4.141 4.141 0 0 0 4.151-4.146v-.031H25a4.137 4.137 0 0 0 4.151-4.177h.032a4.153 4.153 0 0 0 3.544-6.312l3.421-3.419a1.756 1.756 0 0 1 .9-.479c.036 0 .071-.01.106-.016a1.754 1.754 0 0 1 1.49 2.978L37.6 90.227l-.011.01-1.2 1.2a1.2 1.2 0 0 0 1.692 1.694l1.046-1.045.158-.158a1.763 1.763 0 0 1 2.485.006 1.757 1.757 0 0 1 0 2.482l-1.048 1.05-1.2 1.195a1.2 1.2 0 1 0 1.69 1.7l1.205-1.2a1.757 1.757 0 0 1 2.483 2.478l-2.089 2.09a1.2 1.2 0 1 0 1.693 1.693l1.024-1.024.018-.016a1.757 1.757 0 0 1 2.487 2.483L47 105.9l-1.652 1.65a1.2 1.2 0 0 0 1.692 1.694l.808-.807 3.873 3.868-11.033 11.02-3.951-3.946a4.708 4.708 0 0 0 .786-.633l1.065-1.063a1.2 1.2 0 0 0 0-1.693zm20.1 1.483l-12.834 12.817a1.609 1.609 0 0 1-2.263 0l-2.116-2.113a1.6 1.6 0 0 1 0-2.256l12.833-12.82a1.609 1.609 0 0 1 2.264 0l2.115 2.109a1.6 1.6 0 0 1 0 2.26z" transform="translate(0 -72.387)"/>
        <path id="Path_82743" d="M86.437 9.144a1.2 1.2 0 0 0 1.691-1.695l-4.362-4.354a1.2 1.2 0 0 0-1.691 1.695z" class="cls-1" transform="translate(-71.22 -2.419)"/>
        <path id="Path_82744" d="M372.848 9.494a1.194 1.194 0 0 0 .846-.35l4.359-4.354a1.2 1.2 0 0 0-1.691-1.69L372 7.45a1.2 1.2 0 0 0 .846 2.044z" class="cls-1" transform="translate(-326.681 -2.419)"/>
        <path id="Path_82745" d="M60.273 430.551a1.2 1.2 0 0 0 .015 1.693 1.2 1.2 0 1 0-.018-1.7z" transform="translate(-52.018 -379.051)"/>
        <path id="Path_82746" d="M333.71 334.513a1.2 1.2 0 1 0-.538-2.267h-.007a1.2 1.2 0 0 0 .545 2.264z" transform="translate(-292.192 -292.635)"/>
    </g>
</svg>
