<svg xmlns="http://www.w3.org/2000/svg" width="38.99" height="61.563" viewBox="0 0 38.99 61.563">
    <defs>
        <style>
            .cls-1{fill:#ef3a2f}
        </style>
    </defs>
    <g id="hourglass" transform="translate(-93.867)">
        <g id="Group_77175" transform="translate(93.867)">
            <g id="Group_77174">
                <path id="Path_82752" d="M129.779 0H96.945a3.078 3.078 0 1 0 0 6.156h32.834a3.078 3.078 0 1 0 0-6.156zm0 4.1H96.945a1.026 1.026 0 1 1 0-2.052h32.834a1.026 1.026 0 1 1 0 2.052z" transform="translate(-93.867)"/>
            </g>
        </g>
        <g id="Group_77177" transform="translate(93.867 55.407)">
            <g id="Group_77176">
                <path id="Path_82753" d="M129.779 460.8H96.945a3.078 3.078 0 1 0 0 6.156h32.834a3.078 3.078 0 1 0 0-6.156zm0 4.1H96.945a1.026 1.026 0 1 1 0-2.052h32.834a1.026 1.026 0 1 1 0 2.052z" transform="translate(-93.867 -460.8)"/>
            </g>
        </g>
        <g id="Group_77179" transform="translate(97.971 4.104)">
            <g id="Group_77178">
                <path id="Path_82754" d="M150.7 57a27.4 27.4 0 0 0 8.079-19.5v-2.34a1.026 1.026 0 0 0-1.026-1.026h-28.73A1.026 1.026 0 0 0 128 35.16v2.34a27.4 27.4 0 0 0 8.078 19.5l1.031 1.031a3.928 3.928 0 0 1 0 5.555l-1.031 1.031A27.4 27.4 0 0 0 128 84.125v2.338a1.026 1.026 0 0 0 1.026 1.026h28.73a1.026 1.026 0 0 0 1.026-1.026v-2.338a27.4 27.4 0 0 0-8.079-19.5l-1.031-1.031a3.929 3.929 0 0 1 0-5.555zm-2.482-.42a5.98 5.98 0 0 0 0 8.457l1.031 1.031a25.365 25.365 0 0 1 7.478 18.054v1.312h-26.675v-1.309a25.366 25.366 0 0 1 7.477-18.054l1.031-1.031a5.979 5.979 0 0 0 0-8.457l-1.031-1.031a25.365 25.365 0 0 1-7.477-18.052v-1.314h26.678V37.5a25.365 25.365 0 0 1-7.478 18.054z" transform="translate(-128 -34.134)"/>
            </g>
        </g>
        <g id="Group_77181" transform="translate(105.155 13.751)">
            <g id="Group_77180">
                <path id="Path_82755" d="M204.62 117.9a1.459 1.459 0 0 0-1.489-.869c-5.331 0-7.707-1.142-8.649-1.823a4.386 4.386 0 0 0-4.036-.594 4.044 4.044 0 0 0-2.594 2.786 3.348 3.348 0 0 0-.109.563 1.083 1.083 0 0 0 .128.6 22.809 22.809 0 0 0 3.667 5.1l1.03 1.031a7.972 7.972 0 0 1 2.353 5.679 1.026 1.026 0 0 0 2.052 0 7.979 7.979 0 0 1 2.352-5.679l1.032-1.032c.253-.252.584-.564.947-.9 2.654-2.506 3.769-3.72 3.316-4.862zm-4.722 3.358c-.38.358-.727.684-.991.949l-1.032 1.032a10.08 10.08 0 0 0-1.927 2.686 10.075 10.075 0 0 0-1.927-2.686l-1.03-1.031a19.68 19.68 0 0 1-3.142-4.323 2.005 2.005 0 0 1 1.283-1.338 2.334 2.334 0 0 1 2.148.322c1.307.946 3.885 2.061 8.822 2.2-.635.711-1.63 1.648-2.202 2.187z" class="cls-1" transform="translate(-187.741 -114.362)"/>
            </g>
        </g>
        <g id="Group_77183" transform="translate(102.143 43.095)">
            <g id="Group_77182">
                <path id="Path_82756" d="M185.13 367.555c-.258-3.326-1.591-4.708-3.135-6.308-.208-.217-.426-.441-.648-.679a6.866 6.866 0 0 0-5-2.167h-4.875a6.868 6.868 0 0 0-5 2.167c-.223.238-.439.462-.647.678-1.544 1.6-2.878 2.983-3.135 6.31a1.025 1.025 0 0 0 1.023 1.105h20.386a1.027 1.027 0 0 0 1.023-1.106zm-20.24-.946c.348-1.791 1.177-2.649 2.42-3.938.215-.224.439-.457.669-.7a4.8 4.8 0 0 1 3.5-1.516h4.875a4.81 4.81 0 0 1 3.5 1.516c.231.248.455.479.671.7 1.243 1.289 2.071 2.147 2.419 3.937z" class="cls-1" transform="translate(-162.695 -358.4)"/>
            </g>
        </g>
        <g id="Group_77185" transform="translate(112.305 32.834)">
            <g id="Group_77184">
                <path id="Path_82757" d="M248.237 273.067a1.026 1.026 0 0 0-1.026 1.026v1.026a1.026 1.026 0 0 0 2.052 0v-1.026a1.026 1.026 0 0 0-1.026-1.026z" class="cls-1" transform="translate(-247.211 -273.067)"/>
            </g>
        </g>
        <g id="Group_77187" transform="translate(112.305 37.964)">
            <g id="Group_77186">
                <path id="Path_82758" d="M248.237 315.733a1.026 1.026 0 0 0-1.026 1.026v1.026a1.026 1.026 0 1 0 2.052 0v-1.026a1.026 1.026 0 0 0-1.026-1.026z" class="cls-1" transform="translate(-247.211 -315.733)"/>
            </g>
        </g>
    </g>
</svg>
