<svg xmlns="http://www.w3.org/2000/svg" width="75.855" height="59.473" viewBox="0 0 75.855 59.473">
    <defs>
        <style>
            .cls-1{fill:#ef3a2f}
        </style>
    </defs>
    <g id="agile" transform="translate(-1 -9)">
        <path id="Path_82747" d="M76.855 56.257L61.586 44.042v7.369h-10.92a24.138 24.138 0 0 0 4.187-8.853l4.31-1.115v-9.152l-4.3-1.089a24 24 0 0 0-2.9-6.977l2.28-3.825-6.475-6.474-3.832 2.274a24.014 24.014 0 0 0-6.976-2.9L35.871 9h-9.157l-1.089 4.3a23.981 23.981 0 0 0-6.976 2.9l-3.825-2.279L8.348 20.4l2.28 3.825a24.021 24.021 0 0 0-2.9 6.977l-4.3 1.088v9.155l4.306 1.1a24 24 0 0 0 4.2 8.865H1v9.69h60.586v7.369zM3.423 58.681v-4.847h10.618a24.491 24.491 0 0 0 6.768 4.847zm27.87 0a21.883 21.883 0 0 1-21.356-17.37l-.154-.742-3.936-1.006v-5.386l3.933-.995.154-.744a21.615 21.615 0 0 1 3.13-7.527l.417-.634L11.4 20.78l3.8-3.807 3.5 2.085.634-.417a21.615 21.615 0 0 1 7.527-3.13l.744-.154.995-3.934h5.384l.995 3.933.744.154a21.615 21.615 0 0 1 7.527 3.13l.634.417 3.5-2.085 3.807 3.807-2.084 3.5.417.634a21.615 21.615 0 0 1 3.13 7.527l.154.744 3.934 1v5.389L52.8 40.585l-.153.738a21.745 21.745 0 0 1-5.113 10.086h-7.547a16.928 16.928 0 1 0-8.694 2.425H64.01v-4.749l8.966 7.172-8.966 7.173v-4.749zm0-7.27A14.541 14.541 0 1 1 45.834 36.87a14.557 14.557 0 0 1-14.541 14.541z"/>
        <path id="Path_82748" d="M19.089 29.18l-2.25-.9a12.18 12.18 0 0 0-.715 2.589l2.394.38a9.653 9.653 0 0 1 .571-2.069z" class="cls-1" transform="translate(3.202 4.082)"/>
        <path id="Path_82749" d="M18.439 32.507l-2.419.149a12.029 12.029 0 0 0 .464 2.649l2.325-.681a9.7 9.7 0 0 1-.37-2.117z" class="cls-1" transform="translate(3.18 4.977)"/>
        <path id="Path_82750" d="M17.26 37.068a12.2 12.2 0 0 0 1.559 2.187l1.805-1.616a9.678 9.678 0 0 1-1.248-1.751z" class="cls-1" transform="translate(3.443 5.693)"/>
        <path id="Path_82751" d="M30.27 34.117a3.63 3.63 0 0 0-2.423-3.412V22h-2.424v8.705a3.626 3.626 0 0 0 1.212 7.047 3.576 3.576 0 0 0 1.557-.365l3.645 3.645 1.713-1.713-3.645-3.645a3.576 3.576 0 0 0 .365-1.557zm-3.635 1.212a1.212 1.212 0 1 1 1.212-1.212 1.214 1.214 0 0 1-1.212 1.212z" class="cls-1" transform="translate(4.658 2.752)"/>
    </g>
</svg>
