<svg xmlns="http://www.w3.org/2000/svg" xmlns:xlink="http://www.w3.org/1999/xlink" width="83" height="83" viewBox="0 0 83 83">
  <defs>
    <linearGradient id="linear-gradient" x1="0.5" x2="0.5" y2="1" gradientUnits="objectBoundingBox">
      <stop offset="0" stop-color="#ee2d2f"/>
      <stop offset="1" stop-color="#f4792f"/>
    </linearGradient>
  </defs>
  <g id="Group_77525" data-name="Group 77525" transform="translate(-692 -17308)">
    <circle id="Ellipse_608" data-name="Ellipse 608" cx="41.5" cy="41.5" r="41.5" transform="translate(692 17308)" fill="url(#linear-gradient)"/>
    <g id="hourglass" transform="translate(622.133 17322)">
      <g id="Group_77175" data-name="Group 77175" transform="translate(93.867)">
        <g id="Group_77174" data-name="Group 77174">
          <path id="Path_82752" data-name="Path 82752" d="M126.049,0H96.625a2.758,2.758,0,1,0,0,5.517h29.424a2.758,2.758,0,1,0,0-5.517Zm0,3.678H96.625a.919.919,0,1,1,0-1.839h29.424a.919.919,0,1,1,0,1.839Z" transform="translate(-93.867)" fill="#fff"/>
        </g>
      </g>
      <g id="Group_77177" data-name="Group 77177" transform="translate(93.867 49.652)">
        <g id="Group_77176" data-name="Group 77176">
          <path id="Path_82753" data-name="Path 82753" d="M126.049,460.8H96.625a2.758,2.758,0,1,0,0,5.517h29.424a2.758,2.758,0,1,0,0-5.517Zm0,3.678H96.625a.919.919,0,1,1,0-1.839h29.424a.919.919,0,1,1,0,1.839Z" transform="translate(-93.867 -460.8)" fill="#fff"/>
        </g>
      </g>
      <g id="Group_77179" data-name="Group 77179" transform="translate(97.545 3.678)">
        <g id="Group_77178" data-name="Group 77178">
          <path id="Path_82754" data-name="Path 82754" d="M148.345,54.627a24.557,24.557,0,0,0,7.24-17.479v-2.1a.919.919,0,0,0-.919-.919H128.919a.919.919,0,0,0-.919.919v2.1a24.558,24.558,0,0,0,7.239,17.479l.924.924a3.52,3.52,0,0,1,0,4.978l-.924.924A24.555,24.555,0,0,0,128,78.932v2.1a.919.919,0,0,0,.919.919h25.746a.919.919,0,0,0,.919-.919v-2.1a24.557,24.557,0,0,0-7.24-17.479l-.924-.924a3.521,3.521,0,0,1,0-4.978Zm-2.224-.376a5.359,5.359,0,0,0,0,7.578l.924.924a22.73,22.73,0,0,1,6.7,16.178v1.176H129.839V78.932a22.732,22.732,0,0,1,6.7-16.178l.924-.924a5.358,5.358,0,0,0,0-7.578l-.924-.924a22.73,22.73,0,0,1-6.7-16.178V35.973h23.907v1.176a22.73,22.73,0,0,1-6.7,16.178Z" transform="translate(-128 -34.134)" fill="#fff"/>
        </g>
      </g>
      <g id="Group_77181" data-name="Group 77181" transform="translate(103.982 12.323)">
        <g id="Group_77180" data-name="Group 77180">
          <path id="Path_82755" data-name="Path 82755" d="M202.867,117.53a1.308,1.308,0,0,0-1.334-.779c-4.778,0-6.906-1.023-7.75-1.634a3.93,3.93,0,0,0-3.616-.532,3.624,3.624,0,0,0-2.324,2.5,3,3,0,0,0-.1.5.971.971,0,0,0,.115.536,20.44,20.44,0,0,0,3.286,4.569l.923.924a7.144,7.144,0,0,1,2.108,5.089.919.919,0,0,0,1.839,0,7.151,7.151,0,0,1,2.107-5.089l.925-.925c.227-.226.523-.506.849-.811C202.274,119.644,203.273,118.556,202.867,117.53Zm-4.231,3.01c-.34.321-.651.613-.888.85l-.925.925a9.033,9.033,0,0,0-1.727,2.407,9.028,9.028,0,0,0-1.727-2.407l-.923-.924a17.636,17.636,0,0,1-2.815-3.874,1.8,1.8,0,0,1,1.149-1.2,2.092,2.092,0,0,1,1.924.289c1.171.848,3.481,1.847,7.906,1.97C200.041,119.217,199.149,120.057,198.635,120.54Z" transform="translate(-187.741 -114.362)" fill="#fff"/>
        </g>
      </g>
      <g id="Group_77183" data-name="Group 77183" transform="translate(101.283 38.619)">
        <g id="Group_77182" data-name="Group 77182">
          <path id="Path_82756" data-name="Path 82756" d="M182.8,366.6a7.969,7.969,0,0,0-2.809-5.653c-.187-.194-.382-.4-.581-.609a6.152,6.152,0,0,0-4.477-1.942h-4.369a6.155,6.155,0,0,0-4.477,1.942c-.2.213-.394.414-.58.608A7.964,7.964,0,0,0,162.7,366.6a.918.918,0,0,0,.917.99h18.268a.92.92,0,0,0,.917-.991Zm-18.138-.848a6.391,6.391,0,0,1,2.169-3.529c.193-.2.394-.409.6-.629a4.3,4.3,0,0,1,3.134-1.359h4.369a4.31,4.31,0,0,1,3.135,1.358c.207.222.407.429.6.631a6.4,6.4,0,0,1,2.168,3.528Z" transform="translate(-162.695 -358.4)" fill="#fff"/>
        </g>
      </g>
      <g id="Group_77185" data-name="Group 77185" transform="translate(110.39 29.424)">
        <g id="Group_77184" data-name="Group 77184">
          <path id="Path_82757" data-name="Path 82757" d="M248.13,273.067a.919.919,0,0,0-.919.919v.919a.919.919,0,0,0,1.839,0v-.919A.919.919,0,0,0,248.13,273.067Z" transform="translate(-247.211 -273.067)" fill="#fff"/>
        </g>
      </g>
      <g id="Group_77187" data-name="Group 77187" transform="translate(110.39 34.021)">
        <g id="Group_77186" data-name="Group 77186">
          <path id="Path_82758" data-name="Path 82758" d="M248.13,315.733a.919.919,0,0,0-.919.919v.919a.919.919,0,1,0,1.839,0v-.919A.919.919,0,0,0,248.13,315.733Z" transform="translate(-247.211 -315.733)" fill="#fff"/>
        </g>
      </g>
    </g>
  </g>
</svg>
