<svg xmlns="http://www.w3.org/2000/svg" width="54.732" height="65.694" viewBox="0 0 54.732 65.694">
  <g id="android_4_" data-name="android (4)" transform="translate(-42.727)">
    <g id="Group_76969" data-name="Group 76969" transform="translate(42.727 0)">
      <path id="Path_82491" data-name="Path 82491" d="M46.832,170.787a4.1,4.1,0,0,0-4.1,4.1v19.156a4.1,4.1,0,0,0,8.21,0V174.892A4.1,4.1,0,0,0,46.832,170.787Z" transform="translate(-42.727 -148.879)" fill="#4caf50"/>
      <path id="Path_82492" data-name="Path 82492" d="M409.5,170.787a4.1,4.1,0,0,0-4.1,4.1v19.156a4.1,4.1,0,0,0,8.21,0V174.892A4.1,4.1,0,0,0,409.5,170.787Z" transform="translate(-358.871 -148.879)" fill="#4caf50"/>
      <path id="Path_82493" data-name="Path 82493" d="M159.531,170.787h-30.1a1.368,1.368,0,0,0-1.368,1.368v21.893a6.842,6.842,0,0,0,5.473,6.7v9.715a4.1,4.1,0,1,0,8.21,0V200.89h5.473v9.578a4.1,4.1,0,0,0,8.21,0v-9.715a6.842,6.842,0,0,0,5.473-6.7V172.155A1.369,1.369,0,0,0,159.531,170.787Z" transform="translate(-117.114 -148.879)" fill="#4caf50"/>
      <path id="Path_82494" data-name="Path 82494" d="M154.426,5.686l3.336-3.333a1.368,1.368,0,1,0-1.9-1.968l-.034.034L151.941,4.3a18.727,18.727,0,0,0-14.923,0L133.132.415A1.368,1.368,0,0,0,131.2,2.35l3.333,3.336A14.441,14.441,0,0,0,128.059,17.8a1.368,1.368,0,0,0,1.368,1.368h30.1A1.368,1.368,0,0,0,160.9,17.8,14.441,14.441,0,0,0,154.426,5.686Z" transform="translate(-117.112 0)" fill="#4caf50"/>
    </g>
    <g id="Group_76970" data-name="Group 76970" transform="translate(61.883 10.962)">
      <circle id="Ellipse_593" data-name="Ellipse 593" cx="1.368" cy="1.368" r="1.368" fill="#fafafa"/>
      <circle id="Ellipse_594" data-name="Ellipse 594" cx="1.368" cy="1.368" r="1.368" transform="translate(13.683)" fill="#fafafa"/>
    </g>
  </g>
</svg>
