<svg xmlns="http://www.w3.org/2000/svg" width="63.999" height="63.999" viewBox="0 0 63.999 63.999">
  <g id="ionicframework-icon" transform="translate(-16.631 -79.368)">
    <path id="Path_82498" data-name="Path 82498" d="M48.674,96.87a14.585,14.585,0,1,0,14.585,14.585A14.586,14.586,0,0,0,48.674,96.87Z" fill="#3880ff"/>
    <circle id="Ellipse_596" data-name="Ellipse 596" cx="6.661" cy="6.661" r="6.661" transform="translate(62.911 84.854)" fill="#3880ff"/>
    <path id="Path_82499" data-name="Path 82499" d="M77.757,98.176l-.261-.61-.435.522a10.157,10.157,0,0,1-4.005,2.743l-.435.174.174.435a25.544,25.544,0,0,1,2,10.014A26.143,26.143,0,1,1,59.863,87.814l.392.174.174-.435a9.941,9.941,0,0,1,2.961-3.875l.522-.435-.61-.3A32.136,32.136,0,1,0,77.757,98.176Z" fill="#3880ff"/>
  </g>
</svg>
