<svg xmlns="http://www.w3.org/2000/svg" width="54.135" height="66" viewBox="0 0 54.135 66">
  <g id="apple_3_" data-name="apple (3)" transform="translate(-46.022)">
    <path id="Path_82489" data-name="Path 82489" d="M63.97,168.752c-9.823-.057-17.948-20.108-17.948-30.32,0-16.681,12.514-20.333,17.336-20.333a19.948,19.948,0,0,1,6.541,1.609,14.621,14.621,0,0,0,3.735,1.071,11.623,11.623,0,0,0,2.679-.869,21.475,21.475,0,0,1,8.076-1.952h.019c2.366,0,9.54.519,13.852,7l1.01,1.518-1.454,1.1C95.74,129.136,91.95,132,91.95,137.658c0,6.707,4.292,9.287,6.354,10.527.91.548,1.852,1.112,1.852,2.347,0,.806-6.435,18.12-15.78,18.12a12.691,12.691,0,0,1-5.329-1.293,10.806,10.806,0,0,0-4.743-1.142,12.2,12.2,0,0,0-3.756,1.016,18.4,18.4,0,0,1-6.514,1.52Z" transform="translate(0 -102.752)"/>
    <path id="Path_82490" data-name="Path 82490" d="M267.554,0c.243,8.775-6.032,14.863-12.3,14.482C254.22,7.478,261.52,0,267.554,0Z" transform="translate(-182.174)"/>
  </g>
</svg>
