<svg xmlns="http://www.w3.org/2000/svg" width="75.969" height="67.648" viewBox="0 0 75.969 67.648">
  <g id="reactjs-icon" transform="translate(0.648 0.81)">
    <circle id="Ellipse_595" data-name="Ellipse 595" cx="6.959" cy="6.959" r="6.959" transform="translate(30.378 25.987)" fill="#00d8ff"/>
    <g id="Group_76971" data-name="Group 76971" transform="translate(0.035 0.011)">
      <path id="Path_82495" data-name="Path 82495" d="M37.337,7.725c9.343,0,18.023,1.341,24.567,3.594,7.885,2.715,12.733,6.829,12.733,10.555,0,3.883-5.138,8.254-13.605,11.059-6.4,2.121-14.826,3.228-23.695,3.228-9.093,0-17.7-1.039-24.178-3.251C4.969,30.111.035,25.683.035,21.874c0-3.7,4.629-7.779,12.4-10.489,6.569-2.29,15.463-3.66,24.9-3.66Z" transform="translate(-0.035 11.061)" fill="none" stroke="#00d8ff" stroke-width="1.367" fill-rule="evenodd"/>
      <path id="Path_82496" data-name="Path 82496" d="M16.145,25.912C20.813,17.819,26.31,10.97,31.531,6.426,37.822.951,43.808-1.192,47.036.669c3.364,1.94,4.583,8.574,2.784,17.311-1.359,6.605-4.61,14.456-9.041,22.139C36.236,48,31.034,54.936,25.884,59.437c-6.517,5.7-12.817,7.758-16.116,5.856-3.2-1.845-4.426-7.9-2.89-15.984,1.3-6.834,4.554-15.223,9.266-23.4Z" transform="translate(8.839 -0.011)" fill="none" stroke="#00d8ff" stroke-width="1.367" fill-rule="evenodd"/>
      <path id="Path_82497" data-name="Path 82497" d="M16.145,40.094c-4.681-8.085-7.868-16.269-9.2-23.062C5.346,8.848,6.478,2.591,9.7.725c3.36-1.945,9.718.311,16.388,6.234,5.043,4.478,10.222,11.213,14.665,18.889,4.556,7.87,7.97,15.843,9.3,22.552,1.681,8.491.32,14.979-2.976,16.887-3.2,1.852-9.051-.109-15.292-5.479C26.514,55.27,20.872,48.259,16.145,40.094Z" transform="translate(8.851 0.033)" fill="none" stroke="#00d8ff" stroke-width="1.367" fill-rule="evenodd"/>
    </g>
  </g>
</svg>
