<svg id="xamarin-seeklogo.com" xmlns="http://www.w3.org/2000/svg" width="74.177" height="66" viewBox="0 0 74.177 66">
  <path id="Path_82488" data-name="Path 82488" d="M21.4,0A5.885,5.885,0,0,0,16.43,2.876L.745,30.124a5.927,5.927,0,0,0,0,5.752L16.43,63.124A5.885,5.885,0,0,0,21.4,66H52.774a5.885,5.885,0,0,0,4.973-2.876L73.432,35.876a5.927,5.927,0,0,0,0-5.752L57.747,2.876A5.884,5.884,0,0,0,52.774,0Zm.285,15.94a.683.683,0,0,1,.132,0H27.23a.713.713,0,0,1,.591.351L37,32.649a.707.707,0,0,1,.087.264.7.7,0,0,1,.087-.264l9.157-16.357a.716.716,0,0,1,.613-.351h5.411a.74.74,0,0,1,.613,1.032L44.01,33l8.96,16.006a.741.741,0,0,1-.613,1.054H46.946a.716.716,0,0,1-.613-.373L37.175,33.329a.707.707,0,0,1-.087-.263.707.707,0,0,1-.087.263L27.822,49.687a.716.716,0,0,1-.591.373H21.819a.74.74,0,0,1-.613-1.054L30.166,33l-8.96-16.028a.737.737,0,0,1,.482-1.032Z" fill="#3498db"/>
</svg>
