<svg xmlns="http://www.w3.org/2000/svg" xmlns:xlink="http://www.w3.org/1999/xlink" width="51.687" height="64.005" viewBox="0 0 51.687 64.005">
  <defs>
    <clipPath id="clip-path">
      <path id="Path_82501" data-name="Path 82501" d="M59.118,30.81,41.889,48.045,59.118,65.28H39.431L22.2,48.045,39.431,30.81ZM39.431,1.276l-32,32,9.847,9.847L59.118,1.276Z"/>
    </clipPath>
    <linearGradient id="linear-gradient" x1="0.197" y1="1.193" x2="0.699" y2="0.448" gradientUnits="objectBoundingBox">
      <stop offset="0" stop-color="#1a237e" stop-opacity="0.4"/>
      <stop offset="1" stop-color="#1a237e" stop-opacity="0"/>
    </linearGradient>
    <radialGradient id="radial-gradient" cx="0.028" cy="0.068" r="1.223" gradientTransform="matrix(1.238, 0, 0, -1, -2.189, -5.539)" gradientUnits="objectBoundingBox">
      <stop offset="0" stop-color="#fff" stop-opacity="0.102"/>
      <stop offset="1" stop-color="#fff" stop-opacity="0"/>
    </radialGradient>
  </defs>
  <g id="flutterio-icon" transform="translate(-7.431 -1.275)">
    <g id="Group_76972" data-name="Group 76972" clip-path="url(#clip-path)">
      <path id="Path_82500" data-name="Path 82500" d="M22.2,48.045l9.841,9.847L59.118,30.81H39.431Z" fill="#39cefd"/>
    </g>
    <g id="Group_76973" data-name="Group 76973" clip-path="url(#clip-path)">
      <path id="Path_82502" data-name="Path 82502" d="M39.431,1.276H59.118L17.278,43.122,7.431,33.275Z" fill="#39cefd"/>
    </g>
    <g id="Group_76974" data-name="Group 76974" clip-path="url(#clip-path)">
      <path id="Path_82504" data-name="Path 82504" d="M32.042,57.892l7.388,7.382H59.118L41.889,48.045Z" fill="#03569b"/>
    </g>
    <g id="Group_76975" data-name="Group 76975" clip-path="url(#clip-path)">
      <path id="Path_82506" data-name="Path 82506" d="M46.646,52.833l-4.757-4.788-9.847,9.847Z" fill="url(#linear-gradient)"/>
    </g>
    <g id="Group_76976" data-name="Group 76976" clip-path="url(#clip-path)">
      <path id="Path_82508" data-name="Path 82508" d="M22.2,48.042l9.847-9.847L41.9,48.042l-9.848,9.847Z" fill="#16b9fd"/>
    </g>
    <path id="Path_82510" data-name="Path 82510" d="M59.118,30.81,41.889,48.045,59.118,65.28H39.431L22.2,48.045,39.431,30.81ZM39.431,1.276l-32,32,9.847,9.847L59.118,1.276Z" fill="url(#radial-gradient)"/>
  </g>
</svg>
