<svg width="32" height="32" viewBox="0 0 32 32" fill="none" xmlns="http://www.w3.org/2000/svg">
<rect x="6.07526" y="0.603588" width="19.9248" height="30.7928" rx="1.71071" fill="url(#paint0_linear_6_102)"/>
<circle cx="16.0376" cy="28.6794" r="1.16731" fill="white" stroke="white" stroke-width="0.684285"/>
<line x1="13.3206" y1="3.45142" x2="17.5471" y2="3.45142" stroke="white" stroke-width="0.342142"/>
<circle cx="18.4528" cy="3.3206" r="0.30189" fill="white"/>
<rect x="7.28284" y="6.03762" width="17.5096" height="19.9248" fill="white"/>
<path d="M22.8302 15.8551C22.8302 14.9453 22.6545 14.0443 22.3131 13.2037C21.9718 12.3631 21.4714 11.5994 20.8407 10.956C20.21 10.3126 19.4612 9.8023 18.637 9.45412C17.8129 9.10594 16.9297 8.92673 16.0377 8.92673C14.2362 8.92673 12.5085 9.65668 11.2346 10.956C9.96076 12.2553 9.24512 14.0176 9.24512 15.8551C9.24512 17.6926 9.96076 19.4549 11.2346 20.7542C12.5085 22.0535 14.2362 22.7835 16.0377 22.7835C17.8391 22.7835 19.5669 22.0535 20.8407 20.7542C22.1145 19.4549 22.8302 17.6926 22.8302 15.8551V15.8551ZM21.4241 15.1623H19.4339C19.3219 13.5328 18.7745 11.9658 17.8513 10.6311C18.7998 10.9747 19.6362 11.5803 20.267 12.3804C20.8979 13.1805 21.2985 14.1436 21.4241 15.1623V15.1623ZM14.0542 16.548H18.0754C17.9016 18.2597 17.1863 19.8672 16.0377 21.1276C14.8898 19.8724 14.1909 18.2588 14.0542 16.548V16.548ZM14.0542 15.1623C14.2124 13.4592 14.9085 11.8545 16.0377 10.5895C17.1956 11.8409 17.9125 13.4496 18.0754 15.1623H14.0542ZM14.2988 10.6103C13.3706 11.9524 12.8145 13.5249 12.6889 15.1623H10.6512C10.7795 14.131 11.1896 13.1573 11.8345 12.3524C12.4795 11.5475 13.3334 10.9438 14.2988 10.6103V10.6103ZM10.6512 16.548H12.6889C12.8008 18.1839 13.3532 19.7567 14.2852 21.093C13.3233 20.7579 12.4729 20.1543 11.8305 19.3509C11.1882 18.5475 10.7796 17.5764 10.6512 16.548V16.548ZM17.8173 21.086C18.7468 19.7493 19.3053 18.1815 19.4339 16.548H21.4377C21.3093 17.5735 20.9021 18.542 20.2624 19.3439C19.6226 20.1459 18.7757 20.7493 17.8173 21.086V21.086Z" fill="url(#paint1_linear_6_102)"/>
<defs>
<linearGradient id="paint0_linear_6_102" x1="7.8866" y1="1.81115" x2="22.9811" y2="32.604" gradientUnits="userSpaceOnUse">
<stop stop-color="#EC362D"/>
<stop offset="1" stop-color="#FD7632"/>
</linearGradient>
<linearGradient id="paint1_linear_6_102" x1="10.9056" y1="11.1698" x2="19.6604" y2="22.9435" gradientUnits="userSpaceOnUse">
<stop stop-color="#ED3B2E"/>
<stop offset="1" stop-color="#FC7331"/>
</linearGradient>
</defs>
</svg>
