<svg width="110" height="32" viewBox="0 0 110 32" fill="none" xmlns="http://www.w3.org/2000/svg">
<path d="M7.62302 4.48405H0.568359V7.91339H8.50485C13.11 7.91339 16.3434 11.6367 16.3434 16.3398C16.3434 21.0429 13.11 24.8152 8.50485 24.8152H0.568359V28.1956H7.62302C15.3636 28.1956 19.7238 22.9046 19.7238 16.3398C19.7238 9.77504 15.5106 4.48405 7.62302 4.48405ZM23.7812 16.3398C23.7812 22.7086 28.6802 27.9506 34.9021 28.4405V25.0112C30.4929 24.5703 27.1615 20.896 27.1615 16.3398C27.1615 11.8327 30.4929 8.15835 34.9021 7.66844V4.28808C28.6802 4.77799 23.7812 9.971 23.7812 16.3398ZM36.8617 4.28808V7.66844C41.2219 8.15835 44.6022 11.8327 44.6022 16.3398C44.6022 20.896 41.2219 24.5703 36.8617 25.0112V28.4405C43.0835 27.9506 47.9826 22.7086 47.9826 16.3398C47.9826 9.971 43.0835 4.77799 36.8617 4.28808ZM49.9257 4.48405L59.7729 28.7345L61.5365 24.3253L53.551 4.48405H49.9257ZM78.9282 4.48405L73.8822 17.2217L75.6458 21.5818L82.6025 4.48405H78.9282ZM60.9486 17.1237L62.7123 21.3859L66.2396 12.4205L72.7554 28.7345L74.4701 24.5213L66.2396 3.99414L60.9486 17.1237Z" fill="url(#paint0_linear_64_9)"/>
<path d="M82.9375 26.7201C82.9375 27.5001 83.5375 28.1001 84.3175 28.1001C85.0975 28.1001 85.7175 27.5001 85.7175 26.7201C85.7175 25.9401 85.0975 25.3201 84.3175 25.3201C83.5375 25.3201 82.9375 25.9401 82.9375 26.7201ZM92.4705 19.8201C94.1105 19.8201 94.8105 20.9201 95.0505 21.8601L96.7505 21.1401C96.3505 19.6801 95.0305 18.0801 92.4705 18.0801C89.7305 18.0801 87.6305 20.1801 87.6305 23.1801C87.6305 26.1001 89.6905 28.3001 92.4905 28.3001C94.9905 28.3001 96.3705 26.6801 96.8305 25.3001L95.1705 24.5801C94.9505 25.3401 94.2905 26.5601 92.4905 26.5601C90.9305 26.5601 89.5505 25.3801 89.5505 23.1801C89.5505 20.9401 90.9505 19.8201 92.4705 19.8201ZM103.058 26.6201C101.458 26.6201 100.058 25.4201 100.058 23.1801C100.058 20.9601 101.458 19.7601 103.058 19.7601C104.658 19.7601 106.058 20.9601 106.058 23.1801C106.058 25.4201 104.658 26.6201 103.058 26.6201ZM103.058 18.0801C100.178 18.0801 98.1379 20.2601 98.1379 23.1801C98.1379 26.1201 100.178 28.3001 103.058 28.3001C105.938 28.3001 107.978 26.1201 107.978 23.1801C107.978 20.2601 105.938 18.0801 103.058 18.0801Z" fill="black"/>
<defs>
<linearGradient id="paint0_linear_64_9" x1="1" y1="16" x2="83" y2="16" gradientUnits="userSpaceOnUse">
<stop stop-color="#EE352F"/>
<stop offset="1" stop-color="#F3834F"/>
</linearGradient>
</defs>
</svg>
