<svg width="241" height="32" viewBox="0 0 241 32" fill="none" xmlns="http://www.w3.org/2000/svg">
<path d="M7.45394 4.94438H0.537109V8.30673H8.31854C12.8337 8.30673 16.0039 11.9573 16.0039 16.5685C16.0039 21.1797 12.8337 24.8783 8.31854 24.8783H0.537109V28.1926H7.45394C15.0432 28.1926 19.3182 23.005 19.3182 16.5685C19.3182 10.132 15.1873 4.94438 7.45394 4.94438ZM22.6719 4.94438V8.30673H35.9291V4.94438H22.6719ZM34.248 18.2497V14.9834H22.6719V18.2497H34.248ZM25.9862 24.8783H22.6719V28.1926H35.9291V24.8783H25.9862ZM48.2809 14.6472C44.6303 13.9266 43.0452 13.1101 43.0452 11.2848C43.0452 9.21937 44.8225 8.01853 48.0407 8.01853C50.9227 8.01853 52.796 9.2674 53.9969 10.4682L55.582 7.44213C52.7 4.80028 49.0494 4.70422 48.0887 4.70422C42.661 4.70422 39.7309 7.6823 39.7309 11.4289C39.7309 14.5511 41.5562 16.8567 48.0407 17.9615C51.2109 18.4899 53.3244 19.6427 53.3244 21.516C53.3244 23.7255 51.4031 25.1665 47.9446 25.1665C45.2067 25.1665 42.5169 23.8696 40.5955 21.7081L38.9624 24.6862C39.2986 25.1185 42.2767 28.4808 47.8486 28.4808C53.2764 28.4808 56.6387 25.4067 56.6387 21.3719C56.6387 17.4812 53.8047 15.7039 48.2809 14.6472ZM65.1031 28.1926V4.94438H61.7888V28.1926H65.1031ZM93.3082 15.5118L81.2518 15.4638V18.7781H93.2121C93.3082 18.0576 93.4042 17.3371 93.4042 16.5685C93.4042 16.1843 93.3562 15.8 93.3082 15.5118ZM82.0683 25.1665C77.313 25.1665 73.5184 21.3238 73.5184 16.5685C73.5184 11.8612 77.313 8.01853 82.0683 8.01853C85.1905 8.01853 87.6402 9.65167 88.9852 12.1494L92.3475 11.1887C90.3781 7.29803 86.7756 4.70422 82.0683 4.70422C75.4877 4.70422 70.204 9.9879 70.204 16.5685C70.204 23.1491 75.4877 28.4808 82.0683 28.4808C87.352 28.4808 91.4349 25.0224 92.8759 20.2671H89.4175C88.2646 23.1491 85.6708 25.1665 82.0683 25.1665ZM98.4226 28.1926H101.737V15.1275L98.4226 11.8132V28.1926ZM114.418 4.94438V20.8435L98.4226 4.41602V8.9792L117.732 28.721V4.94438H114.418Z" fill="#EE352F"/>
<path d="M122.836 16.5673C122.836 22.8117 127.639 27.9513 133.739 28.4316V25.0693C129.416 24.637 126.15 21.0344 126.15 16.5673C126.15 12.1483 129.416 8.54574 133.739 8.0654V4.75109C127.639 5.23143 122.836 10.323 122.836 16.5673ZM135.66 4.75109V8.0654C139.935 8.54574 143.25 12.1483 143.25 16.5673C143.25 21.0344 139.935 24.637 135.66 25.0693V28.4316C141.761 27.9513 146.564 22.8117 146.564 16.5673C146.564 10.323 141.761 5.23143 135.66 4.75109ZM148.469 4.94323L158.124 28.7198L159.853 24.3968L152.024 4.94323H148.469ZM176.905 4.94323L171.958 17.4319L173.687 21.7069L180.508 4.94323H176.905ZM159.277 17.3359L161.006 21.5148L164.464 12.7247L170.853 28.7198L172.534 24.5889L164.464 4.46289L159.277 17.3359ZM182.722 4.94323V8.30557H195.979V4.94323H182.722ZM194.298 18.2485V14.9822H182.722V18.2485H194.298ZM186.036 24.8771H182.722V28.1914H195.979V24.8771H186.036ZM211.645 15.7027C213.134 15.1263 214.383 13.3491 214.383 11.0435C214.383 7.0567 211.405 4.94323 206.41 4.94323H199.493V8.30557H206.938C209.58 8.30557 211.069 9.21821 211.069 11.1876C211.069 13.205 209.58 14.0696 206.938 14.0696H199.493V17.3839H207.466C210.348 17.3839 212.174 18.5847 212.174 21.1305C212.174 23.6763 210.348 24.8771 207.466 24.8771H199.493V28.1914H208.043C212.702 28.1914 215.488 25.2134 215.488 21.2266C215.488 18.8729 214.335 16.3752 211.645 15.7027Z" fill="#F58856"/>
<path d="M218.832 26.7138C218.832 27.4858 219.45 28.1033 220.222 28.1033C220.994 28.1033 221.628 27.4858 221.628 26.7138C221.628 25.9418 220.994 25.3071 220.222 25.3071C219.45 25.3071 218.832 25.9418 218.832 26.7138ZM227.398 21.2242C228.667 21.2242 229.233 22.0477 229.422 22.7853L231.206 22.1335C230.863 20.7954 229.628 19.3887 227.38 19.3887C224.979 19.3887 223.109 21.2414 223.109 23.8146C223.109 26.3535 224.979 28.2577 227.432 28.2577C229.628 28.2577 230.88 26.8339 231.275 25.5301L229.525 24.8954C229.336 25.5301 228.736 26.4393 227.432 26.4393C226.18 26.4393 225.099 25.4958 225.099 23.8146C225.099 22.1335 226.18 21.2242 227.398 21.2242ZM236.629 26.4736C235.411 26.4736 234.296 25.5473 234.296 23.8146C234.296 22.082 235.411 21.1899 236.629 21.1899C237.864 21.1899 238.962 22.082 238.962 23.8146C238.962 25.5644 237.864 26.4736 236.629 26.4736ZM236.629 19.3887C234.142 19.3887 232.306 21.2586 232.306 23.8146C232.306 26.3878 234.142 28.2577 236.629 28.2577C239.134 28.2577 240.969 26.3878 240.969 23.8146C240.969 21.2586 239.134 19.3887 236.629 19.3887Z" fill="black"/>
</svg>
