<svg width="37" height="37" viewBox="0 0 37 37" fill="none" xmlns="http://www.w3.org/2000/svg">
<circle cx="18.96" cy="18.0186" r="18.0186" fill="#ECECEC"/>
<path d="M17.834 25.3181L11.234 18.7181C11.134 18.6181 11.063 18.5098 11.021 18.3931C10.979 18.2765 10.9583 18.1515 10.959 18.0181C10.959 17.8848 10.98 17.7598 11.022 17.6431C11.064 17.5265 11.1347 17.4181 11.234 17.3181L17.834 10.7181C18.0173 10.5348 18.2467 10.4391 18.522 10.4311C18.7973 10.4231 19.0347 10.5188 19.234 10.7181C19.434 10.9015 19.5383 11.1308 19.547 11.4061C19.5557 11.6815 19.4597 11.9188 19.259 12.1181L14.359 17.0181H25.534C25.8173 17.0181 26.055 17.1141 26.247 17.3061C26.439 17.4981 26.5347 17.7355 26.534 18.0181C26.534 18.3015 26.4383 18.5391 26.247 18.7311C26.0557 18.9231 25.818 19.0188 25.534 19.0181H14.359L19.259 23.9181C19.4423 24.1015 19.5383 24.3348 19.547 24.6181C19.5557 24.9015 19.4597 25.1348 19.259 25.3181C19.0757 25.5181 18.8423 25.6181 18.559 25.6181C18.2757 25.6181 18.034 25.5181 17.834 25.3181Z" fill="black"/>
</svg>
