<svg width="162" height="52" viewBox="0 0 914 298" fill="none" xmlns="http://www.w3.org/2000/svg">
<path d="M241.98 282.794C242.572 206.74 175.672 163.683 127.072 163.683" stroke="#F16725" stroke-width="24.3754"/>
<path d="M12.3994 282.794C11.8068 206.74 78.7068 163.683 127.307 163.683" stroke="#F16725" stroke-width="24.3754"/>
<path d="M130.218 15.9526H114.425C77.1029 15.9526 46.8477 44.9017 46.8477 80.6121C46.8477 116.323 77.1029 145.272 114.425 145.272H130.218C167.54 145.272 197.795 116.323 197.795 80.6121C197.795 44.9017 167.54 15.9526 130.218 15.9526Z" stroke="#F16725" stroke-width="24.3754"/>
<path d="M41.0025 52.6687H48.71L44.8539 72.392C43.8638 77.4555 43.8638 82.6512 44.8539 87.715L48.71 107.438H41.0025C30.0708 107.438 21.209 98.959 21.209 88.4995V71.6076C21.209 61.1476 30.0708 52.6687 41.0025 52.6687Z" fill="#F16725" stroke="#F16725" stroke-width="19.2869"/>
<path d="M204.157 52.6687H195.885L199.847 72.0587C200.925 77.3384 200.925 82.7682 199.847 88.048L195.885 107.438H204.157C215.088 107.438 223.95 98.959 223.95 88.4995V71.6076C223.95 61.1476 215.088 52.6687 204.157 52.6687Z" fill="#F16725" stroke="#F16725" stroke-width="19.2869"/>
<path d="M319.474 270.794V264.284C321.224 267.854 325.074 271.704 331.514 271.704C340.824 271.704 346.774 264.004 346.774 254.064C346.774 244.124 340.964 236.494 331.654 236.494C324.934 236.494 321.014 240.554 319.544 243.844V220.254H315.344V270.794H319.474ZM331.024 267.924C324.164 267.924 319.474 262.184 319.474 254.064C319.474 246.014 324.164 240.274 331.024 240.274C337.884 240.274 342.574 246.014 342.574 254.064C342.574 262.184 337.884 267.924 331.024 267.924ZM358.157 284.094L379.787 237.404H375.167L364.107 262.044L352.417 237.404H347.727L361.937 266.454L353.607 284.094H358.157ZM403.195 266.874V225.084H414.115C424.405 225.084 433.295 232.154 433.295 246.084C433.295 259.944 424.265 266.874 413.975 266.874H403.195ZM414.115 270.794C426.715 270.794 437.845 262.324 437.845 246.084C437.845 229.774 426.855 221.164 414.255 221.164H398.785V270.794H414.115ZM446.449 251.404C446.869 245.244 451.349 240.274 457.579 240.274C464.579 240.274 468.569 245.174 468.709 251.404H446.449ZM469.199 260.014C467.799 264.424 464.299 267.924 458.279 267.924C451.699 267.924 446.379 262.884 446.309 255.184V254.904H473.049C473.119 254.344 473.119 253.924 473.119 253.364C473.049 243.494 467.379 236.494 457.509 236.494C449.179 236.494 442.039 243.494 442.039 253.994C442.039 265.194 449.459 271.704 458.279 271.704C465.979 271.704 471.019 267.014 472.909 261.344L469.199 260.014ZM476.21 262.044C476.84 266.454 480.97 271.704 489.16 271.704C496.58 271.704 500.78 266.804 500.78 261.834C500.78 257.004 497.63 253.854 492.1 252.594L486.78 251.404C483.35 250.634 481.53 248.954 481.53 246.084C481.53 242.584 484.89 240.204 488.67 240.204C493.99 240.204 496.3 243.354 496.93 246.574L500.64 245.174C499.73 241.184 496.44 236.564 488.67 236.564C482.58 236.564 477.4 240.974 477.4 246.364C477.4 251.194 480.69 254.134 485.59 255.254L490.98 256.514C494.55 257.354 496.65 259.034 496.65 262.114C496.65 265.614 493.36 268.064 489.23 268.064C483.77 268.064 480.69 264.774 480.06 260.714L476.21 262.044ZM511.172 270.794V237.404H506.972V270.794H511.172ZM505.572 223.544C505.572 225.574 507.112 227.044 509.072 227.044C511.032 227.044 512.572 225.574 512.572 223.544C512.572 221.514 511.032 220.044 509.072 220.044C507.112 220.044 505.572 221.514 505.572 223.544ZM517.313 272.684C518.153 279.684 523.823 285.004 531.943 285.004C544.263 285.004 547.693 276.114 547.693 268.344V237.404H543.563V243.144C541.883 239.714 538.453 236.634 532.223 236.634C523.333 236.634 517.313 243.704 517.313 252.804C517.313 262.114 523.473 269.044 532.223 269.044C538.313 269.044 542.023 265.684 543.493 262.254V268.414C543.493 275.344 540.833 281.294 532.013 281.294C526.063 281.294 521.863 276.954 521.303 271.704L517.313 272.684ZM532.713 265.404C525.993 265.404 521.513 260.084 521.513 252.804C521.513 245.524 526.063 240.274 532.713 240.274C539.293 240.274 543.633 245.594 543.633 252.804C543.633 260.084 539.293 265.404 532.713 265.404ZM560.259 250.844C560.259 245.174 563.829 240.344 569.569 240.344C576.009 240.344 578.599 244.474 578.599 249.724V270.794H582.799V249.024C582.799 242.164 578.809 236.564 570.969 236.564C565.859 236.564 561.939 239.154 560.119 242.724V237.404H556.059V270.794H560.259V250.844ZM605.137 271.704C614.447 271.704 621.727 264.564 621.727 254.134C621.727 243.634 614.447 236.564 605.137 236.564C595.757 236.564 588.547 243.634 588.547 254.134C588.547 264.564 595.827 271.704 605.137 271.704ZM592.817 254.134C592.817 245.384 598.557 240.344 605.137 240.344C611.717 240.344 617.457 245.384 617.457 254.134C617.457 262.814 611.717 267.924 605.137 267.924C598.557 267.924 592.817 262.814 592.817 254.134ZM647.11 237.404L637.17 265.614L628.28 237.404H623.66L634.72 270.794H639.41L649.35 242.514L659.29 270.794H663.98L674.9 237.404H670.35L661.6 265.614L651.66 237.404H647.11ZM681.283 251.404C681.703 245.244 686.183 240.274 692.413 240.274C699.413 240.274 703.403 245.174 703.543 251.404H681.283ZM704.033 260.014C702.633 264.424 699.133 267.924 693.113 267.924C686.533 267.924 681.213 262.884 681.143 255.184V254.904H707.883C707.953 254.344 707.953 253.924 707.953 253.364C707.883 243.494 702.213 236.494 692.343 236.494C684.013 236.494 676.873 243.494 676.873 253.994C676.873 265.194 684.293 271.704 693.113 271.704C700.813 271.704 705.853 267.014 707.743 261.344L704.033 260.014ZM717.974 270.794V264.284C719.724 267.854 723.574 271.704 730.014 271.704C739.324 271.704 745.274 264.004 745.274 254.064C745.274 244.124 739.464 236.494 730.154 236.494C723.434 236.494 719.514 240.554 718.044 243.844V220.254H713.844V270.794H717.974ZM729.524 267.924C722.664 267.924 717.974 262.184 717.974 254.064C717.974 246.014 722.664 240.274 729.524 240.274C736.384 240.274 741.074 246.014 741.074 254.064C741.074 262.184 736.384 267.924 729.524 267.924Z" fill="black"/>
<path d="M301.344 167.424C303.424 181.724 317.984 203.824 352.304 203.824C383.244 203.824 398.064 182.764 398.064 165.084C398.064 146.624 386.104 132.844 363.484 127.904L343.204 123.484C333.584 121.404 328.904 115.944 328.904 108.404C328.904 99.8243 337.224 91.7643 349.704 91.7643C369.464 91.7643 374.664 106.064 375.704 112.564L397.284 104.504C394.684 93.3243 384.024 70.9643 349.704 70.9643C325.264 70.9643 305.244 89.1643 305.244 110.484C305.244 128.164 316.944 141.424 336.444 145.584L357.764 150.264C368.164 152.604 373.884 158.584 373.884 166.384C373.884 175.224 366.344 183.024 352.564 183.024C334.884 183.024 325.004 172.624 323.444 159.624L301.344 167.424ZM471.453 93.5843C492.773 93.5843 501.873 107.884 504.993 120.104L527.093 110.744C521.893 91.7643 504.733 70.9643 471.453 70.9643C435.833 70.9643 408.533 98.2643 408.533 137.264C408.533 175.224 435.313 203.824 471.713 203.824C504.213 203.824 522.153 182.764 528.133 164.824L506.553 155.464C503.693 165.344 495.113 181.204 471.713 181.204C451.433 181.204 433.493 165.864 433.493 137.264C433.493 108.144 451.693 93.5843 471.453 93.5843ZM537.335 166.384C537.335 186.144 553.715 203.824 579.195 203.824C601.555 203.824 614.035 191.864 619.495 183.024C619.495 192.124 620.275 196.804 620.795 199.924H644.715C644.195 196.804 643.155 190.304 643.155 179.384V116.724C643.155 92.2843 628.595 70.9643 591.155 70.9643C564.115 70.9643 542.535 87.6043 539.935 111.524L563.335 116.984C564.895 102.424 574.515 91.7643 591.675 91.7643C610.655 91.7643 618.715 101.904 618.715 114.124C618.715 118.544 616.635 122.444 609.095 123.484L575.295 128.424C553.715 131.544 537.335 144.024 537.335 166.384ZM582.575 183.284C570.095 183.284 562.295 174.444 562.295 165.084C562.295 153.904 570.095 147.924 580.495 146.364L618.715 140.644V146.364C618.715 173.664 602.595 183.284 582.575 183.284ZM695.269 199.924V11.6843H670.829V199.924H695.269ZM750.624 199.924V74.8643H726.444V199.924H750.624ZM720.984 27.5443C720.984 37.1643 728.784 44.9643 738.404 44.9643C748.284 44.9643 756.084 37.1643 756.084 27.5443C756.084 17.6643 748.284 9.86431 738.404 9.86431C728.784 9.86431 720.984 17.6643 720.984 27.5443ZM797.666 124.524C798.706 108.404 811.186 92.5443 831.726 92.5443C853.826 92.5443 865.526 106.584 866.046 124.524H797.666ZM869.686 157.024C865.006 171.064 854.866 182.244 834.586 182.244C813.526 182.244 797.406 166.644 796.886 144.284H891.006C891.266 142.724 891.526 139.604 891.526 136.484C891.526 97.4843 869.946 70.9643 831.466 70.9643C800.006 70.9643 771.666 97.7443 771.666 137.004C771.666 179.384 801.046 203.824 834.586 203.824C863.706 203.824 883.726 186.404 890.746 164.304L869.686 157.024Z" fill="#070B2F"/>
</svg>
