<svg version="1.2" xmlns="http://www.w3.org/2000/svg" viewBox="0 0 169 48" width="183" height="52">
	<title>foot-logo-svg</title>
	<defs>
		<linearGradient id="g1" x1="24.8" y1="0" x2="24.8" y2="47.5" gradientUnits="userSpaceOnUse">
			<stop offset="0" stop-color="#ee2d2f"/>
			<stop offset="1" stop-color="#f4792f"/>
		</linearGradient>
	</defs>
	<style>
		.s0 { fill: #242424 } 
		.s1 { fill: #242424;stroke: #000000;stroke-width: .4 } 
		.s2 { fill: url(#g1) } 
		.s3 { fill: #ffffff;stroke: #ecedee;stroke-width: .4 } 
		.s4 { fill: #ffffff } 
	</style>
	<g id="Group_82947">
		<g id="Group_77642">
			<path id="Path_706" fill-rule="evenodd" class="s0" d="m164.6 9q0.3 0 0.5 0 0.2 0 0.5 0.1 0.2 0 0.4 0.1 0.2 0.1 0.4 0.2 0.2 0.1 0.4 0.3 0.2 0.1 0.4 0.3 0.2 0.2 0.3 0.4 0.2 0.2 0.3 0.4 0.2 0.4 0.3 0.9 0.2 0.4 0.2 0.9 0 0.5-0.1 0.9-0.2 0.5-0.4 0.9-0.1 0.2-0.3 0.4-0.1 0.2-0.3 0.4-0.2 0.2-0.3 0.3-0.2 0.1-0.5 0.3-0.4 0.2-0.8 0.3-0.5 0.1-1 0.1-0.4 0-0.9-0.1-0.5-0.1-0.9-0.3-0.2-0.2-0.4-0.3-0.2-0.1-0.3-0.3-0.2-0.2-0.4-0.4-0.1-0.2-0.2-0.4-0.3-0.4-0.4-0.9-0.1-0.4-0.1-0.9 0-0.5 0.1-0.9 0.1-0.5 0.4-0.9 0.1-0.2 0.2-0.4 0.2-0.2 0.4-0.4 0.1-0.2 0.3-0.3 0.2-0.2 0.4-0.3 0.3-0.1 0.5-0.2 0.2-0.1 0.4-0.1 0.2-0.1 0.5-0.1 0.2 0 0.4 0zm0 0.6q-0.2 0-0.4 0-0.1 0-0.3 0.1-0.2 0-0.4 0.1-0.2 0.1-0.4 0.2-0.1 0.1-0.3 0.2-0.2 0.1-0.3 0.2-0.2 0.2-0.3 0.3-0.1 0.2-0.2 0.4-0.2 0.3-0.3 0.7-0.1 0.4-0.1 0.8 0 0.4 0.1 0.8 0.1 0.4 0.3 0.7 0.1 0.2 0.2 0.3 0.1 0.2 0.3 0.4 0.1 0.1 0.3 0.2 0.1 0.1 0.3 0.2 0.4 0.2 0.8 0.3 0.3 0.1 0.7 0.1 0.4 0 0.8-0.1 0.4-0.1 0.7-0.3 0.2-0.1 0.4-0.2 0.1-0.1 0.3-0.2 0.1-0.2 0.3-0.4 0.1-0.1 0.2-0.3 0.2-0.3 0.3-0.7 0.1-0.4 0.1-0.8 0-0.4-0.1-0.8-0.1-0.4-0.3-0.7-0.1-0.2-0.3-0.4-0.1-0.1-0.2-0.3-0.2-0.1-0.3-0.2-0.2-0.1-0.4-0.2-0.1-0.1-0.3-0.2-0.2-0.1-0.4-0.1-0.2-0.1-0.4-0.1-0.2 0-0.4 0zm-1.6 5v-3.9h1.4q0.1 0 0.2 0 0.2 0 0.3 0 0.1 0 0.2 0 0.2 0.1 0.3 0.1 0.1 0 0.1 0.1 0.1 0 0.2 0.1 0 0 0.1 0.1 0 0 0.1 0.1 0 0 0.1 0.1 0 0.1 0 0.2 0 0 0 0.1 0.1 0.1 0.1 0.2 0 0.1-0.1 0.2 0 0.1 0 0.2-0.1 0.1-0.1 0.1-0.1 0.1-0.1 0.2-0.1 0.1-0.2 0.2-0.1 0-0.2 0.1-0.1 0-0.2 0-0.1 0.1-0.3 0.1 0.1 0 0.1 0 0.1 0 0.1 0.1 0.1 0 0.1 0 0 0 0.1 0.1 0.1 0.1 0.1 0.2 0.1 0 0.2 0.1 0.1 0.1 0.1 0.2 0.1 0.1 0.1 0.2l0.5 0.8h-0.7l-0.4-0.6q-0.1-0.1-0.1-0.3-0.1-0.1-0.2-0.2-0.1-0.1-0.2-0.2-0.1-0.1-0.2-0.2 0-0.1-0.1-0.1 0 0-0.1 0-0.1 0-0.1 0-0.1-0.1-0.2-0.1h-0.3v1.7zm0.6-2.2h0.8q0.1 0 0.2 0 0.1 0 0.2 0 0.1 0 0.1-0.1 0.1 0 0.2-0.1 0.1 0 0.2-0.1 0-0.1 0-0.2 0-0.1 0-0.2 0-0.1-0.1-0.2 0 0 0-0.1-0.1 0-0.1 0 0 0-0.1-0.1 0 0 0 0-0.1 0-0.2 0-0.1 0-0.2-0.1 0 0-0.1 0-0.1 0-0.2 0h-0.7z"/>
			<path id="Path_707" fill-rule="evenodd" class="s1" d="m60.7 27q-0.1 0-0.1 0-0.1 0-0.1 0 0 0-0.1-0.1 0 0 0 0-0.1 0-0.1-0.1 0 0 0-0.1 0 0-0.1 0 0-0.1 0-0.1v-9.6q0 0 0 0 0.1-0.1 0.1-0.1 0-0.1 0-0.1 0 0 0.1-0.1 0 0 0 0 0.1 0 0.1-0.1 0 0 0.1 0 0 0 0.1 0h2.4c1.3 0 2.7 0.6 3.6 1.5 1 1 1.5 2.3 1.5 3.7 0 1.4-0.5 2.7-1.5 3.6-0.9 1-2.3 1.6-3.6 1.6 0 0-2.4 0-2.4 0zm0.4-0.9h2c1.1 0 2.2-0.4 3-1.3 0.8-0.8 1.3-1.9 1.3-3 0-1.1-0.5-2.2-1.3-3.1-0.8-0.8-1.9-1.2-3-1.2h-2z"/>
			<path id="Path_708" fill-rule="evenodd" class="s0" d="m60.7 27.2q-0.1 0-0.2 0 0 0-0.1 0 0-0.1-0.1-0.1 0 0-0.1-0.1 0 0 0-0.1-0.1 0-0.1-0.1 0 0 0-0.1 0-0.1 0-0.1v-9.6q0 0 0-0.1 0 0 0-0.1 0-0.1 0.1-0.1 0-0.1 0-0.1 0.1 0 0.1-0.1 0.1 0 0.1 0 0.1-0.1 0.1-0.1 0.1 0 0.2 0h2.4c1.4 0 2.8 0.6 3.8 1.6 1 1 1.6 2.4 1.6 3.8 0 1.4-0.6 2.8-1.6 3.8-1 1-2.4 1.6-3.8 1.6zm0-10.4q0 0-0.1 0 0 0 0 0 0 0-0.1 0 0 0 0 0 0 0 0 0.1 0 0-0.1 0 0 0 0 0.1 0 0 0 0v9.6q0 0 0 0 0 0 0 0.1 0.1 0 0.1 0 0 0 0 0 0 0.1 0 0.1 0.1 0 0.1 0 0 0 0 0 0.1 0 0.1 0v0.2-0.2h2.4c1.3 0 2.6-0.6 3.5-1.5 1-0.9 1.5-2.2 1.5-3.5 0-1.4-0.5-2.6-1.5-3.6-0.9-0.9-2.2-1.4-3.5-1.4zm0.2 9.5v-9h2.2c1.2-0.1 2.4 0.4 3.3 1.2 0.9 0.9 1.4 2 1.4 3.3 0 1.2-0.5 2.4-1.4 3.2-0.9 0.9-2.1 1.3-3.3 1.3zm0.4-8.7v8.3h1.7c1.2 0 2.2-0.4 3-1.2 0.8-0.8 1.2-1.9 1.3-3 0-1.1-0.5-2.1-1.3-2.9-0.8-0.8-1.8-1.2-2.9-1.2z"/>
			<path id="Path_709" class="s1" d="m70.9 27q0 0-0.1 0-0.1 0-0.2-0.1 0-0.1-0.1-0.1 0-0.1 0-0.2v-9.5q0-0.1 0-0.1 0-0.1 0-0.1 0.1 0 0.1-0.1 0 0 0 0 0.1-0.1 0.1-0.1 0 0 0.1 0 0-0.1 0-0.1 0.1 0 0.1 0h5.8q0 0 0.1 0 0 0.1 0.1 0.1 0 0 0 0 0.1 0 0.1 0.1 0.1 0 0.1 0.1 0 0.1 0 0.2 0 0.1 0 0.1 0 0.1-0.1 0.2 0 0-0.1 0 0 0.1 0 0.1-0.1 0-0.1 0-0.1 0-0.1 0h-5.3v3.9h3.9q0.2 0 0.4 0.1 0.1 0.2 0.1 0.3 0 0.2-0.1 0.3-0.2 0.2-0.4 0.2h-3.9v3.9h5.3q0.2 0 0.3 0.1 0.1 0.1 0.1 0.3 0 0.2-0.1 0.3-0.1 0.1-0.3 0.1z"/>
			<path id="Path_710" fill-rule="evenodd" class="s0" d="m76.7 27.2h-5.8q0 0-0.1 0 0 0-0.1 0-0.1-0.1-0.1-0.1-0.1 0-0.1-0.1 0 0-0.1-0.1 0 0 0-0.1-0.1 0-0.1-0.1 0 0 0-0.1v-9.5q0-0.1 0-0.2 0 0 0.1-0.1 0 0 0-0.1 0.1 0 0.1-0.1 0 0 0.1-0.1 0 0 0.1 0 0 0 0.1 0 0.1-0.1 0.1-0.1l5.8 0.1q0.1 0 0.2 0 0.1 0.1 0.2 0.1 0.1 0.1 0.2 0.2 0 0.1 0 0.3 0 0 0 0.1 0 0.1 0 0.1-0.1 0.1-0.1 0.1 0 0.1-0.1 0.1 0 0.1-0.1 0.1 0 0-0.1 0 0 0.1-0.1 0.1 0 0-0.1 0h-5.1v3.5h3.8q0 0 0.1 0 0 0 0.1 0.1 0 0 0.1 0 0 0.1 0.1 0.1 0 0 0.1 0.1 0 0 0 0.1 0 0.1 0.1 0.1 0 0.1 0 0.1 0 0.1 0 0.1-0.1 0.1-0.1 0.2 0 0 0 0.1-0.1 0-0.1 0.1-0.1 0-0.1 0-0.1 0.1-0.1 0.1-0.1 0-0.1 0-0.1 0-0.1 0h-3.8v3.6h5.1q0.1 0 0.1 0 0.1 0 0.1 0 0.1 0.1 0.1 0.1 0.1 0 0.1 0.1 0.1 0 0.1 0.1 0 0 0.1 0.1 0 0 0 0.1 0 0 0 0.1 0 0.1 0 0.1 0 0.1 0 0.1-0.1 0.1-0.1 0.1 0 0.1-0.1 0.1 0 0.1-0.1 0.1 0 0-0.1 0.1 0 0-0.1 0 0 0-0.1 0zm-5.8-10.4q0 0 0 0 0 0-0.1 0 0 0 0 0 0 0.1 0 0.1-0.1 0-0.1 0 0 0 0 0.1 0 0 0 0 0 0 0 0.1v9.5q0 0 0 0.1 0 0 0 0 0 0 0 0 0 0.1 0.1 0.1 0 0 0 0 0 0 0 0 0.1 0 0.1 0.1 0 0 0 0h5.8q0 0 0 0 0.1-0.1 0.1-0.1 0 0 0 0 0.1 0 0.1 0 0 0 0-0.1 0 0 0 0 0 0 0 0 0-0.1 0-0.1 0 0 0 0 0-0.1 0-0.1 0 0 0 0 0-0.1 0-0.1 0 0-0.1 0 0 0 0 0 0 0-0.1 0 0-0.1 0-0.1h-5.5v-4.2h4.2q0 0 0 0 0 0 0.1 0 0 0 0-0.1 0 0 0 0 0 0 0.1 0 0-0.1 0-0.1 0 0 0 0 0 0 0-0.1 0 0 0 0 0 0 0-0.1 0 0 0 0 0 0-0.1 0 0-0.1 0-0.1 0 0 0 0-0.1 0-0.1 0 0 0 0 0h-4.2v-4.3h5.5q0 0 0 0 0.1 0 0.1 0 0 0 0 0 0.1 0 0.1 0 0-0.1 0-0.1 0 0 0 0 0-0.1 0-0.1 0 0 0 0 0-0.1 0-0.1 0 0 0 0 0-0.1 0-0.1 0 0 0 0 0 0-0.1 0 0-0.1 0-0.1 0 0-0.1 0 0 0 0 0c0 0-5.8 0-5.8 0z"/>
			<path id="Path_711" class="s0" d="m81.6 22.2q-0.3 0.1-0.7 0-0.3 0-0.7-0.2-0.3-0.1-0.6-0.3-0.3-0.2-0.6-0.4-0.2-0.2-0.3-0.4-0.1-0.2-0.2-0.4-0.1-0.3-0.1-0.5-0.1-0.2-0.1-0.5 0.1-0.3 0.1-0.6 0.1-0.2 0.2-0.5 0.2-0.3 0.3-0.5 0.2-0.2 0.4-0.4 0.3-0.3 0.5-0.4 0.3-0.2 0.6-0.3 0.3-0.1 0.6-0.1 0.3-0.1 0.6-0.1 0.2 0 0.5 0 0.3 0.1 0.5 0.1 0.3 0.1 0.5 0.2 0.3 0.1 0.5 0.2 0.3 0.1 0.5 0.3 0.2 0.1 0.4 0.4 0.2 0.2 0.3 0.4 0.1 0.3 0.2 0.5 0 0.1 0 0.2 0 0.1-0.1 0.2 0 0-0.1 0.1-0.1 0-0.1 0.1-0.1 0-0.1 0-0.1 0-0.1 0 0 0-0.1 0 0-0.1-0.1-0.1 0 0 0 0-0.1-0.1-0.1-0.1 0 0 0-0.1-0.1 0-0.1 0 0-0.2-0.1-0.4-0.1-0.2-0.2-0.3-0.2-0.2-0.3-0.3-0.2-0.1-0.4-0.2-0.2-0.1-0.3-0.1-0.2-0.1-0.4-0.2-0.2 0-0.4 0-0.2 0-0.4 0-0.3 0-0.5 0-0.2 0-0.4 0.1-0.2 0.1-0.4 0.2-0.2 0.1-0.4 0.3-0.1 0.1-0.3 0.3-0.1 0.2-0.2 0.4-0.1 0.1-0.1 0.4-0.1 0.2-0.1 0.4 0 0.1 0 0.3 0.1 0.1 0.1 0.3 0.1 0.1 0.1 0.2 0.1 0.2 0.2 0.3 0.2 0.2 0.5 0.3 0.2 0.2 0.5 0.2 0.2 0.1 0.5 0.2 0.3 0 0.6 0 0.1 0 0.3 0.1 0.1 0.1 0.1 0.3 0 0.2-0.1 0.3-0.2 0.2-0.4 0.1zm-1.9 4.3q-0.2-0.1-0.4-0.2-0.3-0.2-0.4-0.4-0.2-0.2-0.3-0.5-0.2-0.2-0.2-0.5 0-0.1-0.1-0.1 0 0 0.1-0.1 0 0 0-0.1 0 0 0 0 0-0.1 0.1-0.1 0 0 0-0.1 0.1 0 0.1 0 0 0 0.1 0 0 0 0.1-0.1 0 0 0 0.1 0.1 0 0.1 0 0.1 0 0.1 0 0 0 0.1 0.1 0 0 0 0 0.1 0 0.1 0.1 0 0 0 0.1 0.1 0.2 0.1 0.3 0.1 0.2 0.3 0.4 0.1 0.1 0.3 0.2 0.1 0.1 0.3 0.2 0.2 0.1 0.4 0.2 0.2 0 0.4 0.1 0.2 0 0.4 0 0.2 0 0.4 0 0.2 0.1 0.4 0 0.2 0 0.4-0.1 0.3-0.1 0.4-0.2 0.2-0.1 0.4-0.3 0.2-0.1 0.3-0.3 0.1-0.1 0.2-0.3 0.1-0.2 0.2-0.4 0-0.2 0-0.4 0-0.2 0-0.4 0-0.1-0.1-0.3 0-0.1-0.1-0.2-0.1-0.2-0.2-0.3-0.2-0.2-0.4-0.3-0.3-0.1-0.5-0.2-0.3-0.1-0.6-0.1-0.2-0.1-0.5-0.1-0.1 0-0.1 0 0 0-0.1 0 0 0-0.1 0 0-0.1 0-0.1 0 0-0.1-0.1 0 0 0 0 0-0.1 0-0.1 0-0.1 0-0.1 0 0 0-0.1 0 0 0-0.1 0 0 0 0 0.1-0.1 0.1-0.1 0 0 0.1-0.1 0 0 0 0 0.1 0 0.1 0 0.1 0 0.1 0 0.4 0 0.7 0 0.4 0.1 0.7 0.2 0.4 0.1 0.7 0.3 0.3 0.2 0.5 0.5 0.2 0.1 0.3 0.3 0.2 0.2 0.2 0.5 0.1 0.2 0.2 0.4 0 0.3 0 0.5 0 0.3-0.1 0.6-0.1 0.3-0.2 0.5-0.1 0.3-0.3 0.5-0.2 0.3-0.4 0.5-0.2 0.2-0.5 0.3-0.2 0.2-0.5 0.3-0.3 0.1-0.6 0.2-0.3 0-0.6 0-0.3 0-0.6 0-0.2 0-0.5-0.1-0.2-0.1-0.5-0.1-0.2-0.1-0.5-0.3z"/>
			<path id="Path_712" fill-rule="evenodd" class="s1" d="m81.8 27.2q-0.3 0-0.6 0-0.3-0.1-0.5-0.1-0.3-0.1-0.6-0.2-0.2-0.1-0.5-0.2-0.2-0.1-0.5-0.3-0.2-0.2-0.4-0.4-0.2-0.3-0.3-0.5-0.1-0.3-0.2-0.6 0-0.1 0-0.2 0-0.1 0-0.2 0.1-0.1 0.2-0.2 0.1-0.1 0.2-0.1 0.1 0 0.1 0 0.1 0 0.2 0 0 0 0.1 0 0 0 0.1 0 0 0.1 0.1 0.1 0 0.1 0.1 0.1 0 0.1 0 0.1 0.1 0.1 0.1 0.1 0 0.2 0.1 0.4 0.1 0.1 0.2 0.2 0.1 0.2 0.3 0.3 0.1 0.1 0.3 0.2 0.2 0 0.3 0.1 0.2 0.1 0.4 0.1 0.2 0 0.4 0.1 0.2 0 0.4 0 0.2 0 0.4-0.1 0.2 0 0.4-0.1 0.2 0 0.4-0.1 0.1-0.2 0.3-0.3 0.1-0.1 0.3-0.3 0.1-0.1 0.2-0.3 0-0.2 0.1-0.4 0-0.2 0-0.4 0.1-0.1 0-0.2 0-0.2 0-0.3-0.1-0.1-0.2-0.2 0-0.1-0.1-0.2-0.2-0.2-0.5-0.3-0.2-0.2-0.4-0.3-0.3 0-0.5-0.1-0.3 0-0.5 0h-0.1q-0.3 0-0.7 0-0.4-0.1-0.7-0.2-0.4-0.1-0.7-0.3-0.3-0.2-0.6-0.5-0.2-0.2-0.3-0.4-0.2-0.2-0.3-0.5-0.1-0.2-0.1-0.5 0-0.2 0-0.5 0-0.3 0.1-0.6 0-0.3 0.2-0.6 0.1-0.3 0.3-0.5 0.2-0.3 0.4-0.5 0.3-0.2 0.5-0.4 0.3-0.1 0.6-0.3 0.3-0.1 0.6-0.1 0.3-0.1 0.7-0.1 0.2 0 0.5 0 0.3 0.1 0.6 0.1 0.2 0.1 0.5 0.2 0.2 0.1 0.5 0.2 0.3 0.2 0.5 0.3 0.2 0.2 0.4 0.4 0.2 0.3 0.3 0.5 0.2 0.3 0.2 0.6 0.1 0.1 0.1 0.2-0.1 0.1-0.1 0.2-0.1 0.2-0.2 0.2-0.1 0.1-0.2 0.1-0.1 0-0.1 0-0.1 0.1-0.1 0-0.1 0-0.2 0 0 0-0.1 0 0-0.1-0.1-0.1 0 0 0-0.1-0.1 0-0.1-0.1 0-0.1 0-0.1-0.1-0.2-0.2-0.3-0.1-0.2-0.2-0.3-0.1-0.2-0.2-0.3-0.2-0.1-0.4-0.1-0.1-0.1-0.3-0.2-0.2 0-0.4-0.1-0.2 0-0.4 0-0.1-0.1-0.3-0.1-0.2 0-0.4 0.1-0.3 0-0.4 0.1-0.2 0.1-0.4 0.2-0.2 0.1-0.3 0.2-0.2 0.1-0.3 0.3-0.1 0.1-0.2 0.3-0.1 0.2-0.2 0.4 0 0.2 0 0.4 0 0.1 0 0.2 0 0.2 0.1 0.3 0 0.1 0.1 0.2 0.1 0.2 0.2 0.3 0.2 0.1 0.4 0.3 0.2 0.1 0.4 0.2 0.3 0 0.5 0.1 0.3 0 0.6 0 0.4 0 0.8 0 0.3 0.1 0.7 0.2 0.3 0.2 0.7 0.4 0.3 0.2 0.6 0.4 0.1 0.2 0.3 0.4 0.1 0.2 0.2 0.5 0.1 0.2 0.1 0.5 0.1 0.2 0.1 0.5 0 0.3-0.1 0.6-0.1 0.3-0.2 0.6-0.2 0.3-0.4 0.5-0.1 0.3-0.4 0.5-0.2 0.2-0.5 0.4-0.3 0.2-0.6 0.3-0.3 0.1-0.6 0.1-0.3 0.1-0.6 0.1zm-3-2.7q0 0 0 0 0 0 0 0-0.1 0-0.1 0 0 0 0 0 0 0.1-0.1 0.1 0 0 0 0.1-0.1 0-0.1 0 0 0.1 0 0.1 0.1 0.3 0.2 0.5 0.1 0.3 0.3 0.5 0.2 0.2 0.4 0.3 0.2 0.2 0.4 0.3 0.2 0.1 0.5 0.2 0.2 0.1 0.5 0.1 0.2 0.1 0.5 0.1 0.2 0 0.5 0 0.3 0 0.5 0 0.3-0.1 0.6-0.2 0.3-0.1 0.5-0.2 0.3-0.2 0.5-0.4 0.2-0.1 0.3-0.4 0.2-0.2 0.3-0.4 0.2-0.3 0.2-0.6 0.1-0.2 0.1-0.5 0-0.2 0-0.5-0.1-0.2-0.1-0.4-0.1-0.2-0.2-0.4-0.2-0.2-0.3-0.3-0.2-0.2-0.4-0.4-0.3-0.1-0.5-0.2-0.3-0.2-0.5-0.2-0.3-0.1-0.6-0.1 0 0.1 0 0.1 0.1 0.1 0.1 0.1 0 0.1-0.1 0.2 0 0 0 0.1 0.2 0 0.4 0.1 0.3 0 0.5 0.1 0.2 0.1 0.4 0.2 0.2 0.2 0.3 0.3 0.1 0.1 0.2 0.3 0.1 0.1 0.2 0.3 0.1 0.1 0.1 0.3 0 0.2 0 0.4 0 0.2-0.1 0.4 0 0.2-0.1 0.4-0.1 0.3-0.3 0.4-0.1 0.2-0.3 0.4-0.2 0.1-0.4 0.3-0.2 0.1-0.4 0.2-0.2 0.1-0.5 0.1-0.2 0-0.4 0-0.2 0-0.5 0-0.2 0-0.4-0.1-0.2 0-0.4-0.1-0.2 0-0.4-0.1-0.2-0.1-0.4-0.2-0.1-0.2-0.3-0.3-0.1-0.2-0.2-0.4-0.1-0.2-0.2-0.4 0 0 0 0 0-0.1 0-0.1 0 0-0.1 0 0 0 0 0 0 0 0-0.1 0 0-0.1 0 0 0 0 0 0 0 0 0zm2.9-2.9q-0.1 0-0.1 0 0 0 0 0 0 0 0 0-0.1 0-0.1 0 0 0 0 0.1 0 0 0 0-0.1 0-0.1 0.1 0 0 0 0 0 0 0 0.1 0 0 0.1 0 0 0 0 0.1 0 0 0 0 0 0 0 0 0.1 0 0.1 0 0 0.1 0 0.1 0 0 0.1 0 0.1 0 0.1-0.1 0.1-0.1 0.1-0.2 0-0.1-0.1-0.2 0 0-0.1 0zm-0.1-4.8q-0.3 0-0.6 0-0.3 0.1-0.6 0.2-0.2 0.1-0.5 0.2-0.2 0.2-0.4 0.4-0.2 0.2-0.4 0.4-0.2 0.2-0.3 0.5-0.1 0.2-0.2 0.5-0.1 0.3-0.1 0.5 0 0.3 0.1 0.5 0 0.2 0.1 0.4 0 0.2 0.2 0.4 0.1 0.2 0.3 0.4 0.1 0.1 0.4 0.3 0.2 0.2 0.5 0.3 0.2 0.1 0.5 0.1 0.2 0.1 0.5 0.1 0 0 0-0.1 0-0.1 0-0.1 0-0.1 0-0.2 0 0 0.1-0.1-0.3 0-0.5 0-0.2-0.1-0.4-0.2-0.2-0.1-0.4-0.2-0.2-0.1-0.4-0.3-0.1-0.1-0.2-0.3-0.1-0.1-0.2-0.3 0-0.1 0-0.3-0.1-0.2-0.1-0.3 0-0.3 0.1-0.5 0.1-0.2 0.2-0.4 0.1-0.2 0.2-0.4 0.1-0.2 0.3-0.4 0.2-0.1 0.4-0.2 0.2-0.2 0.4-0.2 0.3-0.1 0.5-0.2 0.2 0 0.5 0 0.2 0 0.4 0 0.2 0 0.4 0.1 0.2 0 0.4 0.1 0.2 0.1 0.4 0.1 0.2 0.1 0.4 0.3 0.2 0.1 0.3 0.2 0.2 0.2 0.3 0.4 0.1 0.2 0.1 0.4 0 0 0 0.1 0 0 0.1 0 0 0 0 0 0 0 0 0.1 0.1 0 0.1 0 0 0 0 0 0 0 0.1 0 0 0 0 0 0 0 0.1 0 0 0 0-0.1 0 0 0 0 0.1 0 0.1 0 0-0.1 0-0.1 0 0 0 0 0 0 0-0.1 0 0 0 0-0.1-0.3-0.2-0.5-0.1-0.2-0.3-0.4-0.1-0.2-0.3-0.4-0.2-0.1-0.5-0.3-0.2-0.1-0.4-0.2-0.3 0-0.5-0.1-0.3-0.1-0.5-0.1-0.3 0-0.5 0z"/>
			<path id="Path_713" class="s1" d="m87.8 26.6q0 0.2-0.2 0.3-0.1 0.1-0.3 0.1-0.1 0-0.3-0.1-0.1-0.1-0.1-0.3v-9.5q0-0.2 0.1-0.3 0.2-0.1 0.3-0.1 0.2 0 0.3 0.1 0.2 0.1 0.2 0.3z"/>
			<path id="Path_714" fill-rule="evenodd" class="s0" d="m87.3 27.2q0 0-0.1 0 0 0-0.1-0.1-0.1 0-0.1 0-0.1 0-0.1-0.1 0 0-0.1-0.1 0 0 0-0.1-0.1 0-0.1-0.1 0-0.1 0-0.1v-9.5q0-0.1 0-0.1 0-0.1 0.1-0.2 0 0 0-0.1 0.1 0 0.1-0.1 0 0 0.1 0 0-0.1 0.1-0.1 0.1 0 0.1 0 0.1 0 0.1 0 0.1 0 0.2 0 0 0 0.1 0 0 0 0.1 0.1 0 0 0.1 0.1 0 0 0 0 0.1 0.1 0.1 0.1 0 0.1 0 0.2 0 0 0 0.1v9.5q0 0 0 0.1 0 0.1 0 0.1 0 0.1-0.1 0.1 0 0.1 0 0.1-0.1 0.1-0.1 0.1-0.1 0-0.1 0.1-0.1 0-0.1 0-0.1 0-0.2 0zm0-10.4q0 0 0 0 0 0-0.1 0 0 0.1 0 0.1 0 0 0 0-0.1 0-0.1 0 0 0.1 0 0.1 0 0 0 0 0 0.1 0 0.1v9.5q0 0 0 0 0 0.1 0 0.1 0 0 0 0 0 0 0.1 0.1 0 0 0 0 0 0 0 0 0.1 0 0.1 0 0 0 0 0 0.1 0 0.1 0 0 0 0 0 0.1 0 0.1 0 0 0 0 0 0-0.1 0-0.1 0.1 0 0.1 0 0 0 0-0.1 0 0 0 0v-9.5q0 0 0-0.1 0 0 0 0 0 0-0.1-0.1 0 0 0 0 0 0 0 0 0 0-0.1-0.1 0 0 0 0 0 0-0.1 0z"/>
			<path id="Path_715" class="s1" d="m91.2 25.5c-0.7-0.7-1.2-1.7-1.4-2.7-0.2-1-0.1-2 0.3-3 0.4-0.9 1.1-1.8 1.9-2.3 0.9-0.6 1.9-0.9 2.9-0.9q0.4 0 0.9 0.1 0.4 0 0.8 0.2 0.4 0.1 0.8 0.3 0.3 0.2 0.7 0.5 0 0 0 0 0.1 0.1 0.1 0.1 0 0 0 0.1 0 0 0 0.1 0.1 0 0.1 0 0 0.1-0.1 0.1 0 0.1 0 0.1 0 0.1 0 0.1-0.1 0-0.1 0.1 0 0-0.1 0 0 0 0 0-0.1 0.1-0.1 0.1-0.1 0-0.1 0-0.1 0-0.1-0.1 0 0-0.1 0 0 0 0 0-0.3-0.3-0.6-0.4-0.4-0.2-0.7-0.3-0.3-0.1-0.7-0.2-0.3 0-0.7 0c-1.4 0-2.7 0.7-3.6 1.9-0.8 1.1-0.9 2.6-0.4 4 0.5 1.3 1.6 2.3 3 2.6 1.4 0.3 2.9 0 3.9-1q0.1 0 0.1 0 0-0.1 0.1-0.1 0 0 0.1 0 0 0 0 0 0.1 0 0.1 0 0.1 0 0.1 0 0.1 0.1 0.1 0.1 0 0 0.1 0 0 0.1 0 0.2 0.1 0.1 0.1 0.2 0 0-0.1 0.1 0 0.1-0.1 0.2-0.7 0.6-1.7 1-0.9 0.3-1.9 0.3-1 0-1.9-0.4-1-0.4-1.7-1.1zm6.7 1.4q0 0-0.1-0.1 0 0 0-0.1 0 0 0 0 0-0.1 0-0.1v-4.6h-3.7q0 0 0 0-0.1 0-0.1 0-0.1-0.1-0.1-0.1 0 0-0.1 0 0-0.1 0-0.1-0.1 0-0.1-0.1 0 0 0-0.1 0 0 0-0.1 0 0 0 0 0-0.1 0-0.1 0-0.1 0.1-0.1 0 0 0-0.1 0.1 0 0.1 0 0 0 0.1 0 0-0.1 0-0.1 0.1 0 0.1 0h4.1q0.1 0 0.1 0 0 0 0.1 0.1 0 0 0.1 0 0 0 0 0 0.1 0.1 0.1 0.1 0 0 0 0.1 0 0 0 0.1 0 0 0 0v5.1q0 0 0 0.1 0 0 0 0 0 0.1 0 0.1 0 0.1-0.1 0.1 0 0-0.1 0.1-0.1 0-0.2 0-0.1 0-0.2 0 0 0-0.1-0.1z"/>
			<path id="Path_716" fill-rule="evenodd" class="s0" d="m98.2 27.2q0 0-0.1 0-0.1 0-0.1-0.1-0.1 0-0.1 0-0.1 0-0.1-0.1-0.1 0-0.1-0.1 0 0-0.1-0.1 0 0 0-0.1 0-0.1 0-0.1v-0.1q-0.3 0.2-0.6 0.3-0.4 0.1-0.7 0.2-0.3 0.1-0.7 0.2-0.3 0-0.7 0c-1.4 0-2.8-0.6-3.7-1.6-1-1-1.6-2.4-1.6-3.8 0-1.4 0.6-2.8 1.6-3.8 0.9-1 2.3-1.6 3.7-1.6q0.5 0 0.9 0.1 0.4 0.1 0.8 0.2 0.5 0.1 0.9 0.3 0.3 0.3 0.7 0.5 0 0.1 0.1 0.1 0 0.1 0.1 0.1 0 0.1 0 0.1 0 0.1 0 0.1 0 0.1 0 0.2 0 0 0 0.1 0 0 0 0.1-0.1 0.1-0.1 0.1 0 0-0.1 0.1 0 0-0.1 0.1 0 0-0.1 0 0 0-0.1 0-0.1 0-0.1 0-0.1 0-0.1 0-0.1 0-0.2 0 0-0.1-0.1-0.1-0.2-0.2-0.5-0.4-0.3-0.1-0.6-0.2-0.4-0.1-0.7-0.2-0.3-0.1-0.7-0.1c-1.3 0.1-2.6 0.7-3.4 1.8-0.8 1.1-0.9 2.6-0.5 3.8 0.5 1.3 1.5 2.3 2.9 2.6 1.3 0.4 2.7 0 3.7-0.8v-2.8h-3.5q0 0-0.1-0.1 0 0-0.1 0-0.1 0-0.1 0-0.1-0.1-0.1-0.1 0-0.1-0.1-0.1 0-0.1 0-0.1-0.1-0.1-0.1-0.1 0-0.1 0-0.2 0 0 0-0.1 0 0 0.1-0.1 0-0.1 0-0.1 0.1-0.1 0.1-0.1 0 0 0.1-0.1 0 0 0.1 0 0.1-0.1 0.1-0.1 0.1 0 0.1 0h4.1q0.1 0 0.2 0.1 0.2 0 0.2 0.1 0.1 0.1 0.2 0.2 0 0.1 0 0.2v5.1q0 0 0 0.1 0 0.1 0 0.1 0 0.1-0.1 0.1 0 0.1 0 0.1-0.1 0.1-0.1 0.1-0.1 0-0.1 0-0.1 0.1-0.2 0.1 0 0-0.1 0zm-0.2-0.9v0.3q0 0 0 0 0 0.1 0 0.1 0 0 0 0 0 0 0 0.1 0.1 0 0.1 0 0.1 0 0.1 0 0.1 0 0.1 0 0.1 0 0.1 0 0-0.1 0-0.1 0 0 0.1 0 0 0 0-0.1 0 0 0 0v-0.7q-0.1 0-0.2 0.1 0 0-0.1 0.1 0 0-0.1 0.1-0.1 0-0.1 0.1zm-3.1-9.5c-1.6 0-3 0.7-4 2-0.9 1.3-1.2 2.9-0.8 4.4 0.4 1.5 1.6 2.7 3 3.3 1.5 0.6 3.2 0.4 4.5-0.4v-0.7c-1.4 1.1-3.2 1.2-4.7 0.4-1.6-0.7-2.5-2.3-2.5-4 0-1.7 1-3.3 2.5-4.1 1.6-0.7 3.4-0.5 4.8 0.5q0 0 0 0.1 0 0 0.1 0 0 0 0 0 0 0 0.1 0 0 0 0-0.1 0.1 0 0.1 0 0.1-0.1 0.1-0.1 0-0.1 0-0.1 0 0 0-0.1 0 0-0.1 0 0 0 0-0.1 0 0 0 0-0.4-0.2-0.7-0.4-0.4-0.2-0.8-0.4-0.4-0.1-0.8-0.2-0.4 0-0.8 0zm3.1 8.3v0.7q0.1-0.1 0.3-0.3 0 0 0.1-0.1 0 0 0-0.1 0 0 0-0.1 0 0-0.1 0 0-0.1 0-0.1 0 0-0.1 0 0 0 0 0 0 0-0.1 0 0 0 0 0 0 0-0.1 0 0 0 0 0 0 0 0 0zm0.1-0.4h0.1q0 0 0 0 0.1 0 0.1 0 0.1 0.1 0.1 0.1 0 0 0.1 0v-3.3q0 0 0 0 0 0 0-0.1-0.1 0-0.1 0 0 0 0 0 0-0.1 0-0.1-0.1 0-0.1 0 0 0 0 0-0.1 0-0.1 0h-4.1q0 0 0 0 0 0-0.1 0 0 0 0 0 0 0 0 0.1-0.1 0-0.1 0 0 0 0 0 0 0.1 0 0.1 0 0 0 0 0 0.1 0 0.1 0 0 0 0 0 0.1 0 0.1 0 0 0.1 0 0 0 0 0.1 0 0 0 0 0.1 0 0.1 0 0 0 0 0h3.9v2.9q0 0 0 0 0 0 0 0 0.1 0 0.1 0 0 0 0 0z"/>
			<path id="Path_717" class="s1" d="m108.1 26.9v-0.1l-6.6-8.5v8.3q0 0.2-0.2 0.3-0.1 0.1-0.3 0.1-0.2 0-0.3-0.1-0.1-0.1-0.1-0.3v-9.6q0-0.1 0.1-0.2 0.1-0.1 0.2-0.2 0.1 0 0.2 0 0.2 0.1 0.3 0.2l6.6 8.5v-8.3q0-0.1 0-0.1 0.1-0.1 0.1-0.2 0.1 0 0.2-0.1 0.1 0 0.1 0 0.1 0 0.1 0 0.1 0 0.1 0 0 0 0.1 0.1 0 0 0 0 0.1 0.1 0.1 0.1 0 0 0 0.1 0.1 0 0.1 0 0 0.1 0 0.1v9.6q0 0 0 0 0 0 0 0 0 0 0 0 0 0 0 0 0 0 0 0.1 0 0 0 0 0 0 0 0 0 0 0 0 0 0 0 0 0 0 0 0-0.1 0-0.1 0 0 0 0 0 0 0 0 0 0 0 0 0 0 0 0 0 0 0.1 0 0.1 0 0 0 0 0 0 0 0 0 0 0 0 0 0 0 0 0 0 0 0 0 0 0 0 0 0 0 0.1 0 0 0 0h-0.1q0 0 0 0 0 0 0 0 0 0 0 0 0 0 0 0 0 0 0 0 0 0 0 0 0 0 0 0 0 0.1-0.1 0.1 0 0 0 0 0 0 0 0 0 0 0 0 0 0 0 0 0 0 0 0 0 0-0.1 0 0 0 0 0 0 0 0 0 0 0 0 0 0 0 0 0 0 0 0 0 0 0 0 0 0 0 0 0-0.1 0-0.1 0 0 0 0 0 0 0 0 0 0 0 0 0 0 0 0 0h-0.1q0 0 0 0 0 0 0 0 0 0 0 0-0.1 0-0.1 0 0 0 0-0.1 0 0 0 0 0 0 0 0 0 0 0 0 0 0 0 0 0 0 0 0 0 0 0 0 0 0 0 0 0 0 0 0-0.1 0-0.1 0z"/>
			<path id="Path_718" fill-rule="evenodd" class="s0" d="m108.4 27.2q0 0 0 0 0 0 0 0 0 0-0.1 0 0 0 0 0-0.1 0-0.1 0 0-0.1 0-0.1-0.1 0-0.1 0 0 0 0 0 0 0 0-0.1-0.1 0-0.1 0 0 0 0 0 0 0 0 0l-6.4-8.2v7.8q0 0 0 0.1 0 0.1 0 0.1 0 0.1-0.1 0.1 0 0.1 0 0.1-0.2 0.1-0.4 0.2-0.1 0-0.3-0.1-0.2 0-0.3-0.2-0.1-0.1-0.1-0.3v-9.6q0-0.1 0-0.2 0.1-0.1 0.1-0.1 0.1-0.1 0.2-0.2 0 0 0.1-0.1 0 0 0.1 0 0 0 0 0 0.1 0 0.1 0 0 0 0 0 0.1 0 0.2 0 0 0 0.1 0.1 0.1 0 0.1 0 0.1 0.1 0.1 0.1l6.3 8.2v-7.8q0-0.2 0.1-0.3 0.1-0.2 0.3-0.2 0.2-0.1 0.4-0.1 0.1 0.1 0.3 0.2 0 0 0.1 0.1 0 0 0 0.1 0 0 0 0.1 0.1 0.1 0.1 0.1v9.4q0 0.1 0 0.2-0.1 0.1-0.1 0.1 0 0.1 0 0.2-0.1 0-0.1 0.1l-0.1 0.1q0 0 0 0 0 0 0 0 0 0 0 0 0 0 0 0 0 0-0.1 0 0 0 0 0 0 0 0 0 0 0 0 0v0.1h-0.1q0 0 0 0 0 0 0 0 0 0 0 0-0.1 0-0.1 0 0 0 0 0 0 0 0 0 0 0 0 0 0 0-0.1 0zm0-0.4q0 0 0 0 0 0 0 0 0.1 0 0.1 0 0 0 0 0h0.1l0.1-0.1q0 0 0 0 0 0 0 0 0 0 0 0 0 0 0-0.1v-9.6q0 0 0 0 0 0 0-0.1 0 0 0 0-0.1 0-0.1-0.1 0 0-0.1 0 0 0-0.1 0 0 0-0.1 0 0 0 0 0-0.1 0.1-0.1 0.1 0 0 0 0 0 0.1 0 0.1 0 0 0 0v8.8l-7-8.9q0-0.1 0-0.1 0 0-0.1 0 0 0 0 0 0 0-0.1 0 0 0 0 0 0 0 0 0 0 0 0 0 0 0-0.1 0 0 0 0 0-0.1 0-0.1 0.1 0 0 0 0.1 0 0 0 0v9.6q0 0 0 0 0 0.1 0 0.1 0 0 0 0 0 0 0 0.1 0.1 0 0.1 0 0 0 0 0 0.1 0 0.1 0 0 0 0 0 0.1 0 0.1 0 0 0 0 0 0 0 0.1 0 0 0 0 0 0-0.1 0-0.1 0.1 0 0.1 0 0 0 0-0.1 0 0 0 0v-8.8l7 9h0.1z"/>
			<path id="Path_719" fill-rule="evenodd" class="s1" d="m119.5 27c-2.4 0-4.6-1.7-5.1-4.2-0.4-2.4 0.9-4.8 3.2-5.8 2.2-0.9 4.9-0.1 6.3 1.9 1.3 2.1 1.1 4.8-0.7 6.6q-0.3 0.4-0.8 0.6-0.4 0.3-0.9 0.5-0.4 0.2-0.9 0.3-0.5 0.1-1.1 0.1zm0-9.5c-2 0-3.8 1.4-4.2 3.5-0.5 2 0.6 4.1 2.5 4.9 2 0.8 4.2 0.1 5.3-1.6 1.2-1.8 1-4.1-0.5-5.5q-0.3-0.4-0.6-0.6-0.4-0.2-0.8-0.4-0.4-0.2-0.8-0.2-0.4-0.1-0.9-0.1z"/>
			<path id="Path_720" fill-rule="evenodd" class="s0" d="m119.5 27.2c-2.5 0-4.7-1.8-5.2-4.3-0.5-2.5 0.8-5.1 3.2-6.1 2.4-0.9 5.1-0.1 6.5 2 1.4 2.2 1.2 5-0.7 6.8q-0.3 0.4-0.8 0.7-0.4 0.3-0.9 0.5-0.5 0.2-1 0.3-0.5 0.1-1.1 0.1zm0-10.4c-2.3 0-4.4 1.7-4.9 4-0.4 2.4 0.8 4.7 3 5.7 2.2 0.9 4.8 0.1 6.1-1.9 1.3-2 1.1-4.6-0.6-6.3q-0.3-0.4-0.8-0.7-0.4-0.2-0.8-0.4-0.5-0.2-1-0.3-0.5-0.1-1-0.1zm0 9.5c-2.1 0-4-1.5-4.4-3.6-0.4-2.1 0.7-4.3 2.7-5.1 2-0.8 4.3-0.1 5.5 1.7 1.2 1.8 1 4.2-0.6 5.7q-0.3 0.3-0.6 0.6-0.4 0.2-0.8 0.4-0.4 0.2-0.9 0.2-0.4 0.1-0.9 0.1zm0-8.6c-1.9-0.1-3.7 1.3-4.1 3.3-0.4 2 0.7 3.9 2.5 4.7 1.9 0.8 4 0.1 5.1-1.5 1.1-1.7 0.9-3.9-0.5-5.3q-0.3-0.3-0.6-0.5-0.4-0.3-0.8-0.4-0.3-0.2-0.7-0.3-0.4 0-0.9 0z"/>
			<path id="Path_721" class="s0" d="m143.9 16.6q0 0 0.1 0.1 0 0 0.1 0 0 0 0 0.1 0 0 0.1 0 0 0.1 0 0.1 0 0.1 0 0.1 0 0 0 0.1 0 0 0 0.1l-3.4 9.5q0 0 0 0.1 0 0 0 0 0 0 0 0 0 0 0 0 0 0 0 0 0 0 0 0 0 0 0 0 0 0 0 0 0 0 0 0-0.1 0-0.1 0.1 0 0 0 0 0 0 0 0 0 0 0 0 0 0-0.1 0 0 0 0 0 0 0 0 0 0 0.1 0 0.1 0 0 0 0 0 0 0 0 0 0 0 0 0 0 0 0 0 0 0 0 0 0 0 0 0 0 0 0 0 0 0 0 0 0 0 0c-3126.8-399.6-3126.8-399.6-3126.8-399.6 0 0 3126.8 399.6 3126.7 399.6q0 0 0 0 0 0 0 0 0 0 0 0 0 0 0 0 0 0 0 0 0 0-0.1 0 0 0 0 0 0 0 0 0 0 0 0 0 0 0 0 0 0 0 0 0 0 0-0.1 0 0 0 0 0 0 0 0 0 0 0 0 0 0 0 0 0 0 0 0 0c-3126.5-399.6-3126.5-399.6-3126.5-399.6l3126.5 399.6q0 0-0.1 0 0 0 0 0 0 0 0 0 0 0 0 0 0 0 0 0 0 0 0-0.1 0 0 0 0 0 0 0 0h-0.1v-0.1q0 0 0 0 0 0 0 0 0 0 0 0 0 0 0 0 0 0 0 0 0 0 0 0 0 0 0 0 0 0 0 0 0 0 0 0 0 0-0.1 0 0 0 0 0 0 0 0 0 0 0 0 0 0-0.1 0-0.1l-2.9-8.4-3 8.4q0 0 0 0.1 0 0 0 0 0 0 0 0 0 0 0 0 0 0 0 0 0 0 0 0 0 0 0 0 0 0 0 0 0 0 0 0 0 0-0.1 0.1 0 0 0 0 0 0 0 0 0 0 0 0h-0.1q0 0 0 0 0 0 0 0.1 0 0 0 0 0 0 0 0 0 0-0.1 0 0 0 0 0 0 0 0 0 0 0 0 0 0 0 0 0 0 0 0 0 0 0-0.1 0 0 0 0 0 0 0 0 0 0 0 0 0 0 0 0 0 0 0 0 0 0 0-0.1 0 0 0 0 0 0 0 0 0 0 0 0 0 0 0 0 0h-0.1q0 0 0 0 0 0 0 0 0-0.1 0-0.1 0 0 0 0h-0.1q0 0 0 0 0 0 0 0 0 0 0 0 0 0 0 0 0-0.1 0-0.1 0 0 0 0 0 0 0 0-0.1 0-0.1 0 0 0 0 0 0 0 0 0 0 0 0 0 0 0 0 0 0 0 0 0 0 0 0 0 0-0.1 0-0.1l-3.3-9.5q-0.1-0.1-0.1-0.1 0 0 0-0.1 0 0 0-0.1 0.1 0 0.1-0.1 0 0 0.1-0.1 0-0.1 0.1-0.1 0.1 0 0.2 0 0.1 0 0.2 0 0 0.1 0 0.1 0.1 0 0.1 0 0 0.1 0 0.1 0.1 0 0.1 0.1l2.9 8.4 3-8.4q0 0 0 0 0-0.1 0-0.1 0 0 0 0 0 0 0 0 0 0 0 0 0 0 0 0 0 0 0 0 0 0 0 0 0 0 0 0 0 0 0 0 0 0 0 0 0-0.1 0-0.1 0.1 0 0.1 0 0 0 0 0 0 0 0 0 0 0 0 0 0 0 0.1 0 0 0 0 0v-0.1q0.1 0 0 0 0 0 0 0 0 0 0.1 0 0 0 0 0 0 0 0 0 0 0 0 0 0 0 0 0 0 0 0 0 0 0 0 0 0 0 0 0h0.1q0 0 0 0 0 0 0 0 0 0 0 0 0 0 0 0 0.1 0 0.1 0 0 0 0 0 0 0 0 0 0 0 0 0 0 0 0 0 0 0 0 0 0 0 0 0 0 0 0 0 0 0 0 0l0.1 0.1q0 0 0 0 0 0 0 0 0 0 0 0 0 0 0 0 0 0 0 0 0 0 0 0 0 0 0 0 0 0 0 0h0.1v0.1q0 0 0 0 0 0 0 0 0 0 0 0 0 0 0 0 0 0 0 0 0 0 0 0 0 0 0 0 0 0 0 0 0 0 0.1 0 0 0 0 0 0 0.1 0 0.1 0 0 0 0 0 0 0 0l2.9 8.4 3-8.4q0-0.1 0-0.1 0 0 0.1-0.1 0 0 0 0 0 0 0.1-0.1h0.1z"/>
			<path id="Path_722" fill-rule="evenodd" class="s1" d="m137.5 16.6q0 0.1 0.1 0.1 0 0 0 0 0 0.1 0 0.1 0 0 0 0.1l2.8 7.8 2.8-7.9q0-0.1 0.2-0.2 0.1-0.1 0.2-0.2 0.2 0 0.3 0 0.2 0.1 0.3 0.2 0 0 0 0 0.1 0 0.1 0.1 0 0 0 0 0 0 0 0.1 0 0 0.1 0.1 0 0 0 0.1 0 0.1 0 0.1 0 0.1-0.1 0.1l-3.3 9.6q-0.1 0.2-0.2 0.3-0.1 0-0.3 0.1-0.1 0-0.2 0-0.2 0-0.3-0.1 0-0.1 0-0.1-0.1 0-0.1-0.1 0 0 0 0-0.1-0.1-0.1-0.1l-2.7-7.9c0 0-2.8 7.9-2.8 7.9q-0.1 0.1-0.1 0.1 0 0.1-0.1 0.1 0 0.1-0.1 0.1 0 0-0.1 0.1-0.1 0-0.2 0-0.1 0-0.3-0.1-0.1 0-0.2-0.1 0-0.1-0.1-0.2l-3.3-9.6q0 0-0.1-0.1 0 0 0-0.1 0-0.1 0.1-0.1 0-0.1 0-0.1 0-0.2 0.1-0.2 0.1-0.1 0.2-0.2 0.2 0 0.3 0 0.1 0 0.2 0.1 0.1 0 0.1 0 0.1 0.1 0.1 0.1 0 0.1 0.1 0.1 0 0.1 0 0.1l2.8 7.9v-0.1l0.1-0.1q0-0.1 0.1-0.2l0.1-0.3 0.1-0.4q0.1-0.2 0.2-0.5 0-0.2 0.1-0.4l0.2-0.6 0.2-0.5q0.1-0.3 0.2-0.6l0.2-0.5q0.1-0.3 0.2-0.6l0.2-0.5q0.1-0.3 0.2-0.5l0.1-0.5 0.2-0.5q0-0.2 0.1-0.3 0.1-0.2 0.1-0.3 0.1-0.2 0.1-0.3 0-0.1 0.1-0.2 0 0 0-0.1 0 0 0.1 0 0-0.1 0-0.1 0.1-0.1 0.1-0.1 0.1 0 0.2-0.1 0.1 0 0.2 0 0.1 0 0.2 0.1 0.1 0 0.1 0.1 0.1 0 0.1 0 0 0 0 0 0 0 0 0 0 0 0 0zm-3.8 10.2q0 0 0 0 0 0 0 0 0 0 0 0 0 0 0 0h0.1 0.1v-0.1q0 0 0 0 0 0 0 0 0 0 0 0 0 0 0 0 0 0 0 0 0 0 0 0 0 0 0 0 0-0.1 0-0.1l3.2-8.8 3.1 8.9v0.1h0.1 0.2 0.1v-0.1q0 0 0 0 0 0 0 0 0 0 0 0 0 0 0-0.1l3.4-9.5q0 0 0 0 0-0.1 0-0.1 0 0 0 0 0-0.1 0-0.1 0 0 0 0-0.1 0-0.1-0.1 0 0 0 0 0 0-0.1 0h-0.1-0.1q0 0 0 0 0 0 0 0.1-0.1 0-0.1 0 0 0 0 0l-3.1 8.9-3.1-8.9h-0.1v-0.1q0 0 0 0 0 0 0 0 0 0 0 0 0 0 0 0h-0.1-0.1-0.1l-0.1 0.1q0 0 0 0 0 0 0 0 0 0 0 0 0 0 0 0v0.1l-3.1 8.8-3.1-8.9q0 0 0 0-0.1 0-0.1 0 0-0.1 0-0.1 0 0-0.1 0 0 0 0 0 0 0 0 0-0.1 0-0.1 0 0 0-0.1 0 0 0 0 0 0 0 0 0-0.1 0.1-0.1 0.1 0 0 0 0 0 0 0 0.1 0 0 0 0 0 0 0 0.1 0 0 0 0l3.3 9.6q0.1 0 0.1 0 0 0 0 0 0 0 0 0 0 0 0 0 0 0 0 0v0.1h0.1z"/>
			<path id="Path_723" class="s1" d="m145.7 27q-0.1 0-0.2 0-0.1-0.1-0.1-0.1-0.1-0.1-0.1-0.2-0.1 0-0.1-0.1v-9.6q0 0 0 0 0.1-0.1 0.1-0.1 0-0.1 0-0.1 0 0 0.1-0.1 0 0 0 0 0.1 0 0.1-0.1 0 0 0.1 0 0 0 0.1 0h5.7q0.1 0 0.1 0 0.1 0 0.1 0.1 0 0 0.1 0 0 0 0 0 0.1 0.1 0.1 0.1 0 0 0 0.1 0 0 0 0.1 0.1 0 0.1 0.1 0 0-0.1 0 0 0.1 0 0.1 0 0.1 0 0.1 0 0-0.1 0.1 0 0 0 0-0.1 0-0.1 0.1-0.1 0-0.1 0 0 0-0.1 0h-5.3v3.9h4q0.2 0 0.3 0.1 0.1 0.1 0.1 0.3 0 0.2-0.1 0.3-0.1 0.1-0.3 0.1h-4v3.9h5.3q0.2 0 0.3 0.2 0.2 0.1 0.2 0.3 0 0.2-0.2 0.3-0.1 0.1-0.3 0.1z"/>
			<path id="Path_724" fill-rule="evenodd" class="s0" d="m151.4 27.2h-5.7q-0.1 0-0.1 0-0.1 0-0.2-0.1 0 0-0.1 0 0 0-0.1-0.1 0 0 0-0.1-0.1 0-0.1-0.1 0 0 0-0.1 0-0.1 0-0.1v-9.6q0 0 0-0.1 0 0 0-0.1 0-0.1 0.1-0.1 0-0.1 0-0.1 0.1 0 0.1-0.1 0.1 0 0.1 0 0.1-0.1 0.1-0.1 0.1 0 0.2 0h5.7q0.2 0 0.3 0.1 0.1 0 0.2 0.1 0 0.1 0.1 0.2 0 0.1 0 0.3 0 0 0 0.1 0 0 0 0.1 0 0-0.1 0.1 0 0 0 0.1-0.1 0-0.1 0.1-0.1 0-0.1 0-0.1 0-0.2 0.1 0 0-0.1 0h-5.1v3.5h3.8q0 0 0.1 0 0.1 0 0.1 0 0.1 0.1 0.1 0.1 0.1 0 0.1 0.1 0.1 0.1 0.2 0.3 0 0.2-0.1 0.3 0 0.2-0.2 0.3-0.1 0.1-0.3 0.1h-3.8v3.6h5.1q0.2 0 0.4 0.1 0.1 0.1 0.2 0.2 0.1 0.2 0 0.4 0 0.2-0.1 0.3-0.1 0.1-0.1 0.1-0.1 0-0.1 0.1-0.1 0-0.2 0 0 0-0.1 0zm-5.7-10.4q-0.1 0-0.1 0 0 0 0 0 0 0-0.1 0 0 0 0 0.1 0 0 0 0-0.1 0-0.1 0 0 0.1 0 0.1 0 0 0 0v9.6q0 0 0 0 0 0.1 0 0.1 0 0 0.1 0 0 0 0 0.1 0 0 0 0 0 0 0.1 0 0 0 0 0 0 0 0.1 0h5.7q0.1 0 0.1 0 0 0 0 0 0 0 0.1 0 0 0 0 0 0-0.1 0-0.1 0.1 0 0.1 0 0 0 0-0.1 0 0 0 0 0 0 0-0.1 0 0 0 0 0 0-0.1-0.1 0 0 0 0 0 0 0 0 0 0-0.1-0.1 0 0 0 0 0 0-0.1 0h-5.5v-4.2h4.2q0 0 0 0 0.1 0 0.1-0.1 0 0 0 0 0 0 0.1 0 0 0 0 0 0-0.1 0-0.1 0 0 0 0 0-0.1 0-0.1 0 0 0 0 0-0.1 0-0.1 0 0 0 0 0 0 0-0.1 0 0-0.1 0 0 0 0 0 0 0-0.1 0 0 0 0 0h-4.2v-4.3h5.5q0.1 0 0.1 0 0 0 0 0 0 0 0.1 0 0 0 0-0.1 0 0 0 0 0.1 0 0.1-0.1 0 0 0 0 0 0 0-0.1 0 0 0 0 0 0 0 0 0-0.1-0.1-0.1 0 0 0 0 0 0 0-0.1-0.1 0-0.1 0 0 0 0 0 0 0-0.1 0c0 0-5.7 0-5.7 0z"/>
			<path id="Path_725" fill-rule="evenodd" class="s1" d="m153.9 27.1q-0.1 0-0.2-0.1 0 0-0.1-0.1-0.1 0-0.1-0.1 0-0.1 0-0.2v-9.5q0 0 0-0.1 0 0 0-0.1 0 0 0 0 0.1-0.1 0.1-0.1 0 0 0.1-0.1 0 0 0 0 0.1 0 0.1 0 0.1 0 0.1 0h3.3q0.3-0.1 0.6 0 0.3 0 0.6 0.1 0.3 0.2 0.5 0.3 0.3 0.2 0.5 0.4 0.2 0.1 0.4 0.4 0.2 0.2 0.3 0.5 0.1 0.2 0.1 0.5 0.1 0.3 0.1 0.5 0 0.2 0 0.4 0 0.2-0.1 0.3 0 0.2-0.1 0.4-0.1 0.1-0.2 0.3-0.1 0.1-0.2 0.3-0.1 0.1-0.2 0.3-0.1 0.1-0.2 0.2-0.2 0.1-0.3 0.2 0.1 0.1 0.3 0.2 0.2 0.1 0.3 0.2 0.1 0.2 0.3 0.3 0.1 0.1 0.2 0.3 0.2 0.4 0.3 0.9 0.1 0.4 0.1 0.9-0.1 0.5-0.3 0.9-0.3 0.4-0.6 0.7-0.2 0.2-0.5 0.4-0.2 0.1-0.5 0.3-0.3 0.1-0.6 0.1-0.3 0.1-0.6 0.1zm0.5-5.7h2.9q0.2 0 0.4 0 0.2 0 0.4-0.1 0.2-0.1 0.4-0.2 0.2-0.1 0.3-0.2 0.2-0.2 0.3-0.3 0.1-0.2 0.2-0.4 0.1-0.2 0.1-0.4 0.1-0.2 0.1-0.4 0-0.2-0.1-0.3 0-0.2-0.1-0.4-0.1-0.2-0.2-0.3-0.1-0.2-0.3-0.3-0.1-0.2-0.3-0.3-0.2-0.1-0.4-0.1-0.2-0.1-0.4-0.2-0.2 0-0.4 0h-2.9zm0 4.8h3.1q0.2 0 0.4-0.1 0.2 0 0.4-0.1 0.2 0 0.4-0.1 0.2-0.2 0.3-0.3 0.2-0.1 0.3-0.3 0.1-0.1 0.2-0.3 0.1-0.2 0.1-0.4 0.1-0.2 0.1-0.4 0-0.2-0.1-0.4 0-0.2-0.1-0.3-0.1-0.2-0.2-0.4-0.1-0.1-0.3-0.2-0.1-0.2-0.3-0.3-0.2-0.1-0.4-0.2-0.2 0-0.4-0.1-0.2 0-0.4 0h-3.1z"/>
			<path id="Path_726" fill-rule="evenodd" class="s0" d="m157.4 27.2h-3.5q-0.1 0-0.1 0-0.1 0-0.1 0-0.1 0-0.1-0.1-0.1 0-0.1 0-0.1-0.1-0.1-0.1 0-0.1-0.1-0.1 0-0.1 0-0.2 0 0 0-0.1v-9.5q0-0.1 0-0.1 0-0.1 0-0.1 0-0.1 0.1-0.1 0-0.1 0.1-0.1 0-0.1 0.1-0.1 0 0 0.1-0.1 0 0 0.1 0 0 0 0.1 0h3.3q0.4 0 0.7 0 0.3 0.1 0.6 0.2 0.3 0.1 0.5 0.3 0.3 0.1 0.5 0.3 0.3 0.2 0.4 0.5 0.2 0.2 0.3 0.5 0.2 0.3 0.2 0.5 0.1 0.3 0.1 0.6 0 0.2 0 0.4-0.1 0.2-0.1 0.4-0.1 0.2-0.1 0.3-0.1 0.2-0.2 0.4-0.1 0.1-0.2 0.2-0.1 0.2-0.2 0.3-0.1 0.1-0.2 0.2-0.1 0.1-0.2 0.2 0.1 0.1 0.3 0.2 0.1 0.1 0.2 0.2 0.1 0.1 0.2 0.2 0.1 0.2 0.2 0.3 0.3 0.4 0.4 0.9 0.1 0.5 0 1 0 0.5-0.3 1-0.2 0.4-0.6 0.8-0.2 0.2-0.5 0.3-0.2 0.2-0.5 0.3-0.3 0.1-0.6 0.2-0.4 0-0.7 0zm-0.2-10.4h-3.3q0 0 0 0.1-0.1 0-0.1 0 0 0 0 0-0.1 0-0.1 0 0 0 0 0.1 0 0 0 0 0 0 0 0.1-0.1 0-0.1 0v9.5q0 0 0.1 0.1 0 0 0 0 0 0 0 0.1 0 0 0 0 0 0 0.1 0 0 0 0 0.1 0 0 0.1 0 0 0 0 0h3.5q0.3 0 0.6-0.1 0.3 0 0.5-0.1 0.3-0.1 0.5-0.3 0.3-0.1 0.5-0.3 0.3-0.3 0.5-0.7 0.2-0.4 0.3-0.8 0.1-0.5 0-0.9-0.1-0.4-0.4-0.8-0.1-0.2-0.2-0.3-0.1-0.1-0.2-0.2-0.2-0.2-0.3-0.3-0.2-0.1-0.3-0.1l-0.3-0.2 0.3-0.2q0.1 0 0.2-0.1 0.2-0.1 0.3-0.3 0.1-0.1 0.2-0.2 0.1-0.2 0.2-0.3 0.1-0.1 0.1-0.3 0.1-0.1 0.1-0.3 0.1-0.2 0.1-0.3 0-0.2 0-0.4 0-0.2 0-0.5-0.1-0.2-0.2-0.5-0.1-0.2-0.3-0.4-0.1-0.2-0.3-0.4-0.2-0.2-0.5-0.3-0.2-0.2-0.5-0.3-0.2-0.1-0.5-0.1-0.3-0.1-0.6-0.1zm0.2 9.6h-3.2v-4.3h3.2q0.3 0 0.5 0.1 0.2 0 0.4 0.1 0.3 0.1 0.4 0.2 0.2 0.1 0.4 0.2 0.2 0.2 0.3 0.3 0.1 0.2 0.2 0.4 0.1 0.2 0.2 0.4 0 0.2 0 0.4 0 0.2 0 0.5-0.1 0.2-0.2 0.4-0.1 0.2-0.2 0.3-0.1 0.2-0.3 0.4-0.2 0.1-0.4 0.2-0.2 0.1-0.4 0.2-0.2 0.1-0.4 0.1-0.2 0.1-0.5 0.1zm-2.9-0.4h2.9q0.2 0 0.4 0 0.2 0 0.4-0.1 0.2-0.1 0.4-0.2 0.1-0.1 0.3-0.2 0.1-0.1 0.2-0.3 0.1-0.1 0.2-0.3 0.1-0.1 0.1-0.3 0-0.2 0-0.4 0-0.1 0-0.3 0-0.2-0.1-0.3-0.1-0.2-0.2-0.3-0.1-0.2-0.2-0.3-0.2-0.1-0.3-0.2-0.2-0.1-0.4-0.2-0.2-0.1-0.4-0.1-0.2 0-0.4 0h-2.9zm-0.3-4.4v-4.3h3q0.3 0 0.5 0.1 0.2 0 0.4 0.1 0.3 0 0.4 0.2 0.2 0.1 0.4 0.2 0.2 0.2 0.3 0.3 0.1 0.2 0.2 0.4 0.1 0.2 0.2 0.4 0 0.2 0 0.4 0 0.2 0 0.5-0.1 0.2-0.2 0.4-0.1 0.2-0.2 0.4-0.1 0.1-0.3 0.3-0.2 0.1-0.4 0.2-0.1 0.2-0.4 0.3-0.2 0-0.4 0.1-0.2 0-0.5 0zm0.4-3.9v3.5h2.7q0.2 0 0.4 0 0.2 0 0.4-0.1 0.2-0.1 0.3-0.2 0.2-0.1 0.4-0.2 0.1-0.1 0.2-0.3 0.1-0.1 0.2-0.3 0.1-0.1 0.1-0.3 0-0.2 0-0.4 0-0.2 0-0.3 0-0.2-0.1-0.4-0.1-0.1-0.2-0.3-0.1-0.1-0.2-0.2-0.2-0.1-0.4-0.2-0.1-0.1-0.3-0.2-0.2-0.1-0.4-0.1-0.2 0-0.4 0z"/>
			<path id="Path_727" class="s1" d="m74.2 32.3h-1.8q-0.1 0-0.1-0.1-0.1 0-0.1-0.1-0.1-0.1-0.1-0.2 0.1 0 0.1-0.1 0 0 0.1 0 0 0 0-0.1 0 0 0.1 0 0 0 0 0h4.2q0.1 0 0.1 0.1 0.1 0 0.1 0.1 0.1 0.1 0.1 0.1-0.1 0.1-0.1 0.2 0 0-0.1 0 0 0 0 0 0 0.1-0.1 0.1 0 0 0 0h-1.8v5.7q0 0.1-0.1 0.2 0 0-0.1 0.1-0.1 0-0.2 0 0 0-0.1-0.1 0 0 0 0 0 0-0.1-0.1 0 0 0 0 0-0.1 0-0.1z"/>
			<path id="Path_728" fill-rule="evenodd" class="s0" d="m74.5 38.4q0 0-0.1 0 0 0-0.1 0 0 0 0 0-0.1-0.1-0.1-0.1 0 0 0 0-0.1-0.1-0.1-0.1 0-0.1 0-0.1 0 0 0-0.1v-5.6h-1.7q0 0-0.1 0 0 0 0 0-0.1 0-0.1-0.1 0 0-0.1 0 0-0.1-0.1-0.1 0-0.1 0-0.2 0-0.1 0-0.2 0.1 0 0.1-0.1 0.1 0 0.1 0 0-0.1 0.1-0.1 0 0 0 0 0.1 0 0.1 0h4.2q0.1 0 0.2 0.1 0.1 0 0.2 0.1 0 0.2 0 0.3 0 0.1-0.1 0.2-0.1 0-0.1 0 0 0.1-0.1 0.1 0 0 0 0-0.1 0-0.1 0h-1.7v5.6q0 0.1 0 0.2 0 0.1-0.1 0.1-0.1 0.1-0.1 0.1-0.1 0-0.2 0zm-2.1-6.5q0 0 0 0 0 0 0 0-0.1 0-0.1 0 0 0 0 0 0 0 0 0.1 0 0 0 0 0 0.1 0 0.1 0.1 0 0.1 0h2v5.9q0 0 0 0 0 0.1 0 0.1 0 0 0 0 0 0 0 0 0 0 0 0 0.1 0.1 0.1 0.1 0 0 0.1-0.1 0 0 0 0 0 0 0 0 0 0 0 0 0 0 0-0.1 0 0 0 0v-5.9h2q0 0 0 0 0 0 0 0 0.1 0 0.1 0 0 0 0 0 0 0 0 0 0 0 0-0.1 0 0 0 0 0 0 0 0 0 0 0 0 0-0.1 0-0.1 0 0 0 0 0 0 0 0 0 0 0 0 0 0-0.1 0 0 0 0-0.1 0 0 0 0z"/>
			<path id="Path_729" class="s0" d="m78.9 38.4q-0.1 0-0.1 0-0.1 0-0.1-0.1-0.1 0-0.1 0 0-0.1 0-0.2v-6q0 0 0 0 0-0.1 0-0.1 0 0 0 0 0-0.1 0.1-0.1 0 0 0 0 0 0 0.1 0 0-0.1 0-0.1 0 0 0.1 0h3.6q0 0 0.1 0.1 0 0 0 0 0 0 0.1 0 0 0 0 0 0 0.1 0 0.1 0 0 0.1 0 0 0 0 0.1 0 0 0 0 0 0.1 0 0.1 0 0 0 0-0.1 0.1-0.1 0.1 0 0 0 0 0 0 0 0.1-0.1 0-0.1 0 0 0 0 0-0.1 0-0.1 0h-3.4v2.5h2.6q0.1 0 0.1 0 0.1 0.1 0.1 0.2 0 0.2-0.1 0.2 0 0.1-0.1 0.1h-2.6v2.5h3.4q0.1 0 0.2 0.1 0.1 0 0.1 0.2 0 0.1-0.1 0.1-0.1 0.1-0.2 0.1z"/>
			<path id="Path_730" fill-rule="evenodd" class="s1" d="m82.5 38.6h-3.6q-0.1 0-0.1 0-0.1-0.1-0.1-0.1 0 0-0.1 0 0 0 0-0.1-0.1 0-0.1 0 0-0.1 0-0.1 0 0 0-0.1 0 0 0-0.1v-6q0 0 0-0.1 0 0 0 0 0-0.1 0-0.1 0.1 0 0.1-0.1 0 0 0 0 0.1 0 0.1-0.1 0 0 0.1 0 0 0 0.1 0h3.6q0.1 0 0.1 0 0 0 0.1 0 0 0.1 0 0.1 0.1 0 0.1 0 0 0.1 0.1 0.1 0 0 0 0.1 0 0 0 0 0 0.1 0 0.1 0 0.1 0 0.1 0 0.1 0 0.1 0 0 0 0.1-0.1 0-0.1 0 0 0.1-0.1 0.1 0 0 0 0-0.1 0-0.1 0 0 0-0.1 0h-3.2v2.2h2.4q0 0 0 0 0.1 0 0.1 0.1 0.1 0 0.1 0 0 0 0.1 0 0 0.1 0.1 0.3 0 0.1-0.1 0.2 0 0.1-0.1 0.2-0.1 0-0.2 0h-2.4v2.2h3.2q0.1 0 0.1 0.1 0 0 0.1 0 0 0 0 0 0.1 0 0.1 0.1 0.1 0.1 0.1 0.2 0 0.1 0 0.2-0.1 0.1-0.2 0.2-0.1 0.1-0.2 0.1zm-3.6-6.6q0 0-0.1 0 0 0 0 0 0 0 0 0 0 0 0 0 0 0 0 0.1-0.1 0-0.1 0 0 0 0 0 0 0 0 0v6.1q0 0 0 0 0 0 0 0 0 0 0.1 0 0 0 0 0.1 0 0 0 0 0 0 0 0 0 0 0 0 0.1 0 0.1 0h3.6q0 0 0 0 0.1 0 0.1 0 0 0 0 0 0 0 0 0 0 0 0-0.1 0 0 0 0 0 0 0 0 0.1 0 0 0 0.1-0.1 0-0.1 0 0 0 0 0 0 0 0 0 0 0 0 0 0 0-0.1 0 0 0 0 0 0-0.1 0 0 0 0 0h-3.5v-2.7h2.7q0 0 0 0 0 0 0 0 0 0 0 0 0 0 0.1-0.1 0 0 0 0 0 0 0 0 0 0 0 0 0 0 0-0.1 0 0 0 0 0 0 0 0 0 0 0 0 0 0 0 0-0.1-0.1-0.1-0.1 0 0 0 0 0 0 0 0 0 0 0 0h-2.7v-2.7h3.5q0 0 0 0 0 0 0.1 0 0 0 0 0 0 0 0-0.1 0 0 0 0 0 0 0 0 0 0 0 0 0 0 0-0.1 0 0 0 0 0 0 0 0 0 0 0 0 0 0 0-0.1 0 0 0 0 0 0 0 0-0.1 0-0.1 0 0 0 0 0c0 0-3.6 0-3.6 0z"/>
			<path id="Path_731" class="s0" d="m87.6 38.3q-0.4 0-0.7-0.1-0.3 0-0.6-0.1-0.3-0.2-0.6-0.4-0.2-0.1-0.5-0.4-0.2-0.2-0.4-0.5-0.2-0.2-0.3-0.5-0.1-0.3-0.2-0.7 0-0.3 0-0.6 0-0.3 0-0.6 0.1-0.4 0.2-0.7 0.1-0.3 0.3-0.5 0.2-0.3 0.4-0.5 0.5-0.5 1-0.7 0.6-0.2 1.2-0.3 0.6 0 1.1 0.1 0.6 0.2 1.1 0.6 0 0 0 0 0 0 0.1 0.1 0 0 0 0 0 0 0 0.1 0 0 0 0 0 0.1 0 0.1 0 0 0 0-0.1 0.1-0.1 0.1 0 0 0 0 0 0-0.1 0 0 0.1 0 0.1 0 0-0.1 0 0 0 0 0 0 0-0.1 0 0 0 0 0 0-0.1-0.1-0.1-0.1-0.1-0.3-0.2-0.2-0.1-0.4-0.2-0.3-0.1-0.5-0.1-0.2 0-0.4 0c-0.9 0-1.8 0.4-2.3 1.2-0.5 0.7-0.6 1.6-0.3 2.5 0.3 0.8 1.1 1.5 1.9 1.7 0.9 0.2 1.9-0.1 2.5-0.7q0.1 0 0.2 0 0.1 0 0.2 0 0.1 0.1 0.1 0.2 0 0.2-0.1 0.2-0.2 0.2-0.5 0.4-0.3 0.2-0.5 0.3-0.3 0.1-0.6 0.1-0.3 0.1-0.6 0.1z"/>
			<path id="Path_732" fill-rule="evenodd" class="s1" d="m87.6 38.4c-0.9 0-1.8-0.3-2.5-1-0.6-0.6-1-1.5-1-2.4 0-0.9 0.4-1.8 1-2.4 0.7-0.7 1.6-1 2.5-1q0.3 0 0.5 0 0.3 0.1 0.6 0.2 0.2 0 0.5 0.2 0.2 0.1 0.5 0.3 0.1 0.1 0.1 0.2 0 0.1 0 0.2 0 0.1-0.1 0.2-0.1 0.1-0.2 0.1 0 0-0.1 0 0 0 0 0 0 0 0 0 0 0 0 0 0 0-0.1 0 0 0 0 0-0.1 0-0.1 0 0-0.1 0-0.1-0.2-0.1-0.4-0.2-0.2-0.1-0.4-0.2-0.2 0-0.4-0.1-0.2 0-0.4 0c-0.9 0-1.7 0.4-2.2 1.1-0.4 0.7-0.5 1.6-0.2 2.4 0.3 0.8 1 1.4 1.8 1.6 0.8 0.2 1.7 0 2.3-0.6q0.1 0 0.1 0 0 0 0.1-0.1 0 0 0 0 0.1 0 0.1 0 0.1 0 0.2 0.1 0.1 0.1 0.2 0.2 0 0.1 0 0.2 0 0.1-0.1 0.2-0.3 0.3-0.5 0.4-0.3 0.2-0.6 0.3-0.3 0.1-0.6 0.2-0.3 0-0.6 0zm0-6.6c-1.1 0-2 0.6-2.6 1.4-0.6 0.9-0.7 2-0.4 2.9 0.4 1 1.2 1.7 2.2 2 1.1 0.2 2.1-0.1 2.9-0.8q0 0 0 0 0 0 0-0.1 0 0 0 0 0 0 0-0.1 0 0 0 0 0 0 0 0 0 0-0.1 0 0 0 0 0 0 0 0 0 0 0 0 0-0.1 0-0.1 0 0 0 0 0c-0.7 0.7-1.7 0.9-2.6 0.7-0.9-0.2-1.7-0.9-2-1.8-0.4-0.8-0.2-1.8 0.3-2.6 0.5-0.8 1.4-1.3 2.4-1.3q0.2 0 0.4 0.1 0.3 0 0.5 0.1 0.2 0.1 0.4 0.2 0.2 0.1 0.4 0.2 0 0 0 0 0.1 0 0.1 0 0 0.1 0 0.1 0 0 0-0.1 0.1 0 0.1 0 0 0 0 0 0 0 0-0.1 0.1 0 0.1 0-0.1 0-0.1 0 0 0 0-0.1 0 0 0 0 0 0 0 0-0.2-0.2-0.4-0.3-0.3-0.1-0.5-0.2-0.3-0.1-0.5-0.1-0.3-0.1-0.5-0.1z"/>
			<path id="Path_733" class="s1" d="m96.5 38.3q0 0-0.1 0 0 0 0 0 0 0-0.1-0.1 0 0 0 0 0 0 0 0-0.1-0.1-0.1-0.1 0 0 0 0 0-0.1 0-0.1v-2.7h-3.7v2.7q0 0 0 0.1 0 0 0 0-0.1 0-0.1 0.1 0 0 0 0 0 0 0 0-0.1 0.1-0.1 0.1 0 0-0.1 0 0 0 0 0-0.1 0-0.1 0-0.1 0-0.1-0.1 0 0-0.1-0.1 0 0 0-0.1v-6q0-0.1 0-0.1 0.1-0.1 0.1-0.1 0 0 0.1-0.1 0 0 0.1 0 0 0 0 0 0.1 0 0.1 0 0 0.1 0.1 0.1 0 0 0 0 0 0 0 0.1 0 0 0.1 0 0 0 0 0 0 0.1 0 0.1v2.7h3.7v-2.7q0 0 0-0.1 0 0 0 0 0 0 0.1-0.1 0 0 0 0 0 0 0 0 0.1 0 0.1-0.1 0 0 0 0 0.1 0 0.1 0 0 0 0.1 0 0 0.1 0.1 0.1 0 0 0 0.1 0.1 0 0.1 0.1v6q0 0.1-0.1 0.1 0 0.1 0 0.1-0.1 0.1-0.1 0.1-0.1 0-0.1 0z"/>
			<path id="Path_734" fill-rule="evenodd" class="s0" d="m96.5 38.4q0 0-0.1 0 0 0-0.1 0 0 0 0 0-0.1-0.1-0.1-0.1 0 0-0.1-0.1 0 0 0 0 0-0.1 0-0.1 0 0 0-0.1v-2.6h-3.5v2.6q0 0.1 0 0.1 0 0 0 0.1 0 0-0.1 0 0 0.1 0 0.1-0.1 0.1-0.1 0.1-0.1 0-0.2 0-0.1 0-0.2 0 0 0-0.1-0.1 0 0 0-0.1-0.1 0-0.1 0 0-0.1 0-0.1 0 0 0-0.1v-6q0 0 0-0.1 0 0 0-0.1 0 0 0.1 0 0-0.1 0-0.1 0.1 0 0.1-0.1 0.1 0 0.2 0 0.1 0 0.2 0 0 0.1 0.1 0.1 0 0 0 0.1 0.1 0 0.1 0 0 0.1 0 0.1 0 0.1 0 0.1v2.6h3.5v-2.6q0 0 0-0.1 0 0 0-0.1 0 0 0.1 0 0-0.1 0-0.1 0.1 0 0.1-0.1 0.1 0 0.2 0 0.1 0 0.2 0 0 0.1 0.1 0.1 0 0 0 0.1 0.1 0 0.1 0 0 0.1 0 0.1 0 0.1 0 0.1v6q0 0.1 0 0.1 0 0 0 0.1 0 0-0.1 0 0 0.1 0 0.1 0 0-0.1 0.1 0 0-0.1 0 0 0 0 0-0.1 0-0.1 0zm-4.2-3.2h4.1v2.8q0 0 0 0 0 0.1 0 0.1 0 0 0 0 0 0 0 0 0 0 0 0.1 0.1 0 0.1 0 0 0 0 0 0.1-0.1 0.1-0.1 0 0 0 0 0 0 0 0 0 0 0-0.1 0 0 0 0v-6q0 0 0 0 0 0 0-0.1 0 0 0 0 0 0 0 0 0 0 0 0-0.1 0-0.1 0 0 0-0.1 0 0 0 0 0 0 0 0 0 0 0 0 0.1 0 0 0 0 0 0 0 0v2.9h-4.1v-2.9q0 0 0 0 0 0 0-0.1 0 0 0 0 0 0 0 0 0 0 0 0 0 0 0 0-0.1 0-0.1 0 0 0 0 0 0 0 0 0 0 0 0 0-0.1 0-0.1 0 0 0 0 0 0 0 0 0 0 0 0 0 0 0.1 0 0.1 0 0 0 0v6q0 0 0 0 0 0.1 0 0.1 0 0 0 0 0 0 0 0 0 0 0.1 0.1 0 0 0.1-0.1 0 0 0 0 0 0 0-0.1z"/>
			<path id="Path_735" class="s1" d="m104 38.2l-4.2-5.4v5.2q0 0.1-0.1 0.2 0 0.1-0.2 0.1-0.1 0-0.1-0.1-0.1-0.1-0.1-0.2v-6q0-0.1 0-0.2 0.1 0 0.2-0.1 0 0 0.1 0 0.1 0.1 0.2 0.1l4.2 5.4v-5.2q0-0.1 0-0.1 0-0.1 0-0.1 0.1 0 0.1-0.1 0.1 0 0.1 0 0.1 0 0.1 0 0 0 0 0 0.1 0 0.1 0.1 0 0 0 0 0.1 0 0.1 0 0 0.1 0 0.1 0 0 0 0 0 0.1 0 0.1v6q0 0.1 0 0.1 0 0 0 0 0 0 0 0 0 0 0 0 0 0 0 0 0 0 0 0 0 0 0 0 0 0 0 0 0 0 0 0 0 0 0 0 0 0 0 0 0 0 0 0 0 0 0 0 0 0 0 0 0 0 0 0 0 0 0 0 0 0.1 0 0.1 0 0 0 0 0 0 0 0 0 0 0 0 0 0 0 0 0 0 0 0 0 0 0 0 0 0 0 0 0 0 0 0 0 0 0 0 0 0-0.1 0 0 0 0 0 0 0.1 0 0 0 0 0 0.1 0 0 0 0 0 0 0 0 0 0 0 0 0 0 0 0h-0.1q0 0 0 0 0 0 0 0 0 0 0 0-0.1 0-0.1 0 0 0 0 0 0 0 0 0 0 0 0 0 0 0 0 0h-0.1v-0.1q0 0 0 0 0 0 0 0 0 0 0 0 0 0 0 0z"/>
			<path id="Path_736" fill-rule="evenodd" class="s0" d="m104.6 38.1q0 0.1 0 0.1 0 0 0 0 0 0 0 0 0 0 0 0v0.1q0 0-0.1 0 0 0 0 0 0 0 0 0 0 0 0 0 0 0 0 0.1 0 0 0 0 0 0 0 0 0 0-0.1 0 0 0 0 0 0 0 0 0 0 0 0 0 0 0 0 0h-0.1q0 0 0 0 0 0 0 0 0 0 0 0 0 0 0 0 0 0 0 0-0.1 0-0.1 0 0 0 0 0 0 0-0.1 0 0 0 0 0-0.1 0-0.1 0 0 0 0-0.1-0.1 0-0.1 0l-4-5.1v4.8q0 0.1 0 0.1 0 0 0 0.1 0 0 0 0 0 0.1-0.1 0.1 0 0.1-0.1 0.1-0.1 0-0.2 0 0 0-0.1 0-0.1 0-0.2-0.1 0 0 0-0.1 0 0 0 0-0.1-0.1-0.1-0.1 0 0 0-0.1v-6q0-0.1 0-0.1 0.1-0.1 0.1-0.2 0 0 0.1-0.1 0 0 0.1 0 0 0 0 0 0.1 0 0.1 0 0 0 0 0 0 0 0 0 0.1 0 0.1 0 0.1 0 0.1 0 0.1 0 0.1 0.1 0 0 0.1 0l3.9 5.1v-4.8q0-0.1 0-0.1 0 0 0-0.1 0.1 0 0.1 0 0-0.1 0-0.1 0.1-0.1 0.2-0.1 0 0 0.1 0 0.1 0 0.2 0 0.1 0 0.1 0.1 0 0 0.1 0.1 0 0 0 0 0 0.1 0 0.1 0 0 0 0.1v5.9q0 0 0 0.1 0 0 0 0 0 0.1 0 0.1 0 0 0 0zm-0.4 0.1q0 0 0 0 0 0 0 0 0 0 0 0 0 0 0.1 0v-0.1h0.1q0 0 0 0 0 0 0 0 0 0 0 0 0 0 0 0v-6.1q0 0 0 0 0-0.1 0-0.1-0.1 0-0.1 0 0 0 0 0 0 0 0 0 0-0.1-0.1-0.1 0 0 0 0.1-0.1 0-0.1 0 0 0 0 0 0 0 0 0 0 0 0 0.1 0 0 0 0v5.6l-4.5-5.7c0-0.1-0.1-0.1-0.1 0q0 0-0.1 0 0 0 0 0 0 0 0 0 0 0.1 0 0.1v6q0 0 0 0 0 0.1 0 0.1 0 0 0 0 0 0 0 0 0.1 0 0.1 0.1 0 0 0.1-0.1 0 0 0.1 0 0 0 0-0.1v-5.6l4.4 5.7h0.1v0.1q0 0 0 0z"/>
			<path id="Path_737" fill-rule="evenodd" class="s0" d="m109.8 38.3c-1.6 0-3-1.1-3.3-2.6-0.3-1.6 0.6-3.1 2-3.7 1.5-0.6 3.1-0.1 4 1.2 0.9 1.3 0.7 3-0.4 4.1q-0.2 0.3-0.5 0.5-0.3 0.1-0.6 0.3-0.3 0.1-0.6 0.1-0.3 0.1-0.6 0.1zm0-6c-1.4 0-2.5 0.9-2.8 2.2-0.2 1.3 0.5 2.6 1.7 3.1 1.2 0.5 2.6 0.1 3.3-1 0.8-1.1 0.6-2.6-0.3-3.5q-0.2-0.2-0.4-0.4-0.2-0.1-0.5-0.2-0.2-0.1-0.5-0.2-0.3 0-0.5 0z"/>
			<path id="Path_738" fill-rule="evenodd" class="s1" d="m109.8 38.4c-1.7 0-3.1-1.1-3.4-2.7-0.3-1.6 0.5-3.2 2.1-3.9 1.5-0.6 3.2 0 4.1 1.3 0.9 1.4 0.7 3.2-0.4 4.3q-0.3 0.3-0.5 0.5-0.3 0.2-0.6 0.3-0.3 0.1-0.7 0.2-0.3 0-0.6 0zm0-6.5c-1.1 0-2.1 0.5-2.7 1.4-0.5 0.8-0.7 1.9-0.3 2.9 0.4 1 1.3 1.7 2.3 1.9 1.1 0.2 2.1-0.1 2.9-0.9 0.4-0.4 0.7-1 0.9-1.6 0.1-0.6 0-1.2-0.2-1.8-0.3-0.6-0.7-1.1-1.2-1.4-0.5-0.4-1.1-0.5-1.7-0.5zm0 6c-0.8 0-1.5-0.3-2.1-0.9-0.5-0.5-0.8-1.2-0.8-2 0-0.8 0.3-1.5 0.8-2 0.6-0.6 1.3-0.9 2.1-0.9 0.7 0 1.5 0.3 2 0.9 0.5 0.5 0.8 1.2 0.8 2 0 0.8-0.3 1.5-0.8 2-0.5 0.6-1.3 0.9-2 0.9zm0-5.5c-1.3 0-2.4 0.9-2.6 2.1-0.3 1.2 0.4 2.5 1.5 2.9 1.2 0.5 2.5 0.1 3.2-0.9 0.7-1.1 0.6-2.4-0.3-3.3q-0.2-0.2-0.4-0.4-0.2-0.1-0.4-0.2-0.3-0.1-0.5-0.2-0.3 0-0.5 0z"/>
			<path id="Path_739" class="s0" d="m115.7 31.7q0 0 0 0 0.1 0 0.1 0.1 0 0 0 0 0.1 0 0.1 0 0 0 0 0.1 0 0 0 0 0 0 0.1 0.1 0 0 0 0v5.7h2.9q0.1 0 0.1 0.1 0.1 0 0.1 0 0.1 0.1 0.1 0.1 0 0.1 0 0.1 0 0 0 0.1 0 0 0 0 0 0.1 0 0.1-0.1 0-0.1 0 0 0 0 0.1 0 0-0.1 0 0 0 0 0 0 0-0.1 0h-3.2q0 0-0.1 0 0 0 0 0 0 0-0.1 0 0-0.1 0-0.1 0 0 0 0-0.1 0-0.1-0.1 0 0 0 0 0-0.1 0-0.1v-6q0 0 0 0 0-0.1 0-0.1 0 0 0.1 0 0-0.1 0-0.1 0 0 0 0 0.1 0 0.1 0 0-0.1 0-0.1 0.1 0 0.1 0z"/>
			<path id="Path_740" fill-rule="evenodd" class="s1" d="m118.9 38.4h-3.2q-0.1 0-0.2 0 0 0-0.1-0.1-0.1 0-0.1-0.1 0-0.1 0-0.2v-6q0 0 0-0.1 0 0 0 0 0-0.1 0-0.1 0.1-0.1 0.1-0.1 0.1 0 0.1-0.1 0.1 0 0.2 0 0.1 0 0.1 0 0.1 0.1 0.2 0.1 0 0 0 0.1 0 0 0.1 0.1 0 0 0 0 0 0.1 0 0.1v5.6h2.8q0.2 0 0.3 0.1 0.1 0 0.1 0.2 0.1 0.1 0 0.2 0 0.1-0.1 0.2 0 0 0 0.1-0.1 0-0.1 0 0 0-0.1 0 0 0-0.1 0zm-3.2-6.5q0 0 0 0-0.1 0-0.1 0 0 0 0 0 0 0 0 0 0 0 0 0 0 0 0 0.1 0 0-0.1 0 0 0 0 0v6q0 0 0 0 0.1 0.1 0.1 0.1 0 0 0 0 0 0 0 0 0 0 0 0 0 0 0 0 0 0 0.1 0 0 0.1 0 0.1h3.2q0 0 0.1-0.1 0 0 0 0 0 0 0 0 0 0 0 0 0 0 0.1 0 0 0 0 0 0 0 0-0.1 0 0 0 0 0 0 0 0 0-0.1-0.1-0.1 0 0 0 0 0 0-0.1 0h-3.1v-5.9q0 0 0 0 0 0 0-0.1 0 0 0 0 0 0 0 0 0 0 0 0 0 0-0.1 0 0 0 0 0 0 0 0 0z"/>
			<path id="Path_741" fill-rule="evenodd" class="s1" d="m123.8 38.3c-1.5 0-2.9-1.1-3.2-2.6-0.3-1.6 0.5-3.1 2-3.7 1.4-0.6 3.1-0.1 4 1.2 0.8 1.3 0.7 3-0.4 4.1q-0.3 0.3-0.5 0.5-0.3 0.1-0.6 0.3-0.3 0.1-0.6 0.1-0.3 0.1-0.7 0.1zm0-6c-1.3 0-2.4 0.9-2.7 2.2-0.2 1.3 0.4 2.6 1.7 3.1 1.2 0.5 2.6 0.1 3.3-1 0.7-1.1 0.6-2.6-0.3-3.5q-0.2-0.2-0.4-0.4-0.3-0.1-0.5-0.2-0.3-0.1-0.5-0.2-0.3 0-0.6 0z"/>
			<path id="Path_742" fill-rule="evenodd" class="s0" d="m123.8 38.4c-1.6 0-3-1.1-3.3-2.7-0.3-1.6 0.5-3.2 2-3.9 1.5-0.6 3.3 0 4.2 1.3 0.9 1.4 0.7 3.2-0.4 4.3q-0.3 0.3-0.6 0.5-0.2 0.2-0.6 0.3-0.3 0.1-0.6 0.2-0.3 0-0.7 0zm0-6.5c-0.6 0-1.2 0.1-1.7 0.5-0.5 0.3-0.9 0.8-1.2 1.4-0.2 0.6-0.3 1.2-0.2 1.8 0.2 0.6 0.5 1.2 0.9 1.6q0.4 0.5 1 0.7 0.6 0.3 1.2 0.3 0.7 0 1.2-0.3 0.6-0.2 1.1-0.7c0.4-0.4 0.7-1 0.8-1.6 0.1-0.6 0.1-1.2-0.2-1.8-0.2-0.6-0.6-1.1-1.1-1.4-0.5-0.4-1.1-0.5-1.8-0.5zm0 6c-0.5 0-1.1-0.2-1.6-0.5-0.4-0.3-0.8-0.8-1-1.3-0.2-0.5-0.3-1.1-0.2-1.7 0.1-0.5 0.4-1 0.8-1.4 0.7-0.7 1.7-1 2.6-0.8 0.9 0.2 1.7 0.8 2.1 1.7 0.4 0.9 0.3 1.9-0.3 2.7-0.5 0.8-1.4 1.3-2.4 1.3zm0-5.5c-1.2 0-2.3 0.9-2.6 2.1-0.2 1.2 0.4 2.5 1.6 2.9 1.2 0.5 2.5 0.1 3.2-0.9 0.7-1.1 0.6-2.4-0.3-3.3q-0.2-0.2-0.4-0.4-0.2-0.1-0.5-0.2-0.2-0.1-0.5-0.2-0.2 0-0.5 0z"/>
			<path id="Path_743" fill-rule="evenodd" class="s0" d="m130 37.3c-0.5-0.4-0.8-1-0.9-1.7-0.1-0.6-0.1-1.3 0.2-1.9 0.2-0.6 0.7-1.1 1.2-1.4 0.5-0.4 1.2-0.6 1.8-0.6q0.3 0 0.6 0.1 0.2 0 0.5 0.1 0.2 0.1 0.5 0.2 0.2 0.1 0.4 0.3 0 0 0.1 0 0 0 0 0.1 0 0 0 0 0 0 0 0.1 0 0 0 0 0 0.1 0 0.1 0 0 0 0 0 0.1 0 0.1 0 0-0.1 0 0 0 0 0.1 0 0-0.1 0 0 0 0 0 0 0-0.1 0 0 0 0 0 0 0-0.1 0 0-0.1 0-0.1-0.2-0.1-0.4-0.2-0.2-0.1-0.4-0.2-0.2-0.1-0.4-0.1-0.3 0-0.5 0c-0.9 0-1.7 0.4-2.2 1.2-0.6 0.7-0.7 1.6-0.3 2.5 0.3 0.8 1 1.5 1.9 1.7 0.9 0.2 1.8-0.1 2.4-0.6v0.7q0 0 0 0-0.3 0.2-0.6 0.3-0.3 0.1-0.6 0.1-0.3 0.1-0.6 0.1-0.3 0-0.6-0.1-0.3 0-0.6-0.1-0.3-0.2-0.6-0.4-0.3-0.1-0.5-0.4zm4.2-0.3q0 0 0 0 0 0 0.1 0 0 0 0 0 0 0 0.1 0 0 0 0 0 0 0 0.1 0 0 0 0 0 0 0 0.1 0 0 0.1 0 0.1 0 0 0 0 0 0.1 0 0.1 0 0 0 0 0 0.1 0 0.1 0 0 0 0.1 0 0 0 0 0 0-0.1 0-0.2 0.2-0.4 0.4v0.2q0 0 0 0.1 0 0 0.1 0 0 0 0 0.1 0 0 0 0 0.1 0.1 0.1 0.1 0.1 0 0.1 0 0.1 0 0.1 0 0.1 0 0.1-0.1 0 0 0 0 0.1-0.1 0.1-0.1 0 0 0 0 0-0.1 0-0.1v-3.2q0 0 0 0 0 0 0-0.1 0 0-0.1 0 0 0 0-0.1 0 0 0 0-0.1 0-0.1 0 0 0 0 0-0.1 0-0.1 0h-2.6q0 0 0 0-0.1 0-0.1 0 0 0 0 0 0 0-0.1 0 0 0.1 0 0.1 0 0 0 0 0 0.1 0 0.1-0.1 0-0.1 0 0 0.1 0.1 0.1 0 0 0 0 0 0.1 0 0.1 0 0 0 0 0.1 0.1 0.1 0.1 0 0 0 0 0.1 0 0.1 0 0 0 0 0h2.3v2q0-0.1 0.1-0.1z"/>
			<path id="Path_744" fill-rule="evenodd" class="s1" d="m134.4 38.4q0 0-0.1 0 0 0-0.1 0 0 0 0 0-0.1-0.1-0.1-0.1 0 0 0-0.1-0.1 0-0.1 0 0-0.1 0-0.1 0 0 0-0.1-0.2 0.1-0.4 0.2-0.2 0.1-0.4 0.1-0.2 0.1-0.4 0.1-0.3 0-0.5 0c-0.9 0-1.8-0.3-2.4-1-0.6-0.6-1-1.5-1-2.4 0-0.9 0.4-1.8 1-2.4 0.6-0.7 1.5-1 2.4-1q0.3 0 0.6 0 0.3 0.1 0.5 0.1 0.3 0.1 0.5 0.3 0.3 0.1 0.5 0.3 0 0 0.1 0 0 0.1 0 0.1 0 0 0 0.1 0.1 0 0.1 0.1 0 0 0 0 0 0.1 0 0.1-0.1 0.1-0.1 0.1 0 0 0 0.1 0 0-0.1 0 0 0 0 0.1-0.1 0-0.1 0-0.1 0-0.1 0 0 0-0.1 0 0 0-0.1 0 0 0 0 0-0.1 0-0.1-0.1-0.2-0.1-0.3-0.2-0.2-0.1-0.4-0.2-0.2 0-0.5-0.1-0.2 0-0.4 0c-0.8 0-1.6 0.4-2.1 1.1-0.5 0.7-0.6 1.6-0.3 2.4 0.3 0.8 0.9 1.4 1.8 1.6 0.8 0.2 1.6 0 2.3-0.5v-1.8h-2.2q0 0-0.1 0 0 0 0 0-0.1 0-0.1 0 0 0-0.1-0.1 0 0 0 0 0-0.1-0.1-0.1 0 0 0-0.1 0 0 0-0.1 0 0 0 0 0-0.1 0-0.1 0.1-0.1 0.1-0.1 0 0 0-0.1 0.1 0 0.1 0 0 0 0.1 0 0-0.1 0-0.1 0.1 0 0.1 0h2.6q0 0 0.1 0 0 0 0.1 0.1 0 0 0 0 0.1 0 0.1 0 0 0.1 0.1 0.1 0 0 0 0.1 0 0 0 0.1 0 0 0 0v3.2q0 0.1 0 0.1 0 0 0 0.1 0 0 0 0-0.1 0.1-0.1 0.1 0 0-0.1 0.1 0 0 0 0-0.1 0-0.1 0-0.1 0-0.1 0zm-0.1-0.6v0.2q0 0 0 0 0 0.1 0 0.1 0 0 0 0 0 0 0 0 0 0 0.1 0.1 0 0 0 0 0 0 0.1 0 0-0.1 0-0.1 0 0 0 0 0 0 0 0 0 0 0-0.1 0 0 0 0v-0.4q-0.1 0.1-0.2 0.2zm-2-6c-1 0.1-1.9 0.5-2.5 1.3-0.6 0.8-0.8 1.8-0.5 2.8 0.3 0.9 1 1.7 1.9 2 0.9 0.4 2 0.3 2.8-0.2v-0.4c-0.7 0.6-1.7 0.7-2.6 0.4-0.8-0.3-1.5-0.9-1.8-1.8-0.3-0.9-0.1-1.8 0.4-2.6 0.5-0.7 1.4-1.2 2.3-1.2q0.3 0 0.5 0.1 0.2 0 0.4 0.1 0.3 0.1 0.5 0.2 0.2 0.1 0.4 0.2 0 0 0 0 0 0.1 0 0.1 0 0 0 0 0.1 0 0.1 0 0 0 0 0 0-0.1 0-0.1 0 0 0 0 0.1 0 0.1 0 0 0 0 0 0 0 0 0 0-0.1 0-0.1 0 0 0 0 0 0 0 0 0 0 0-0.1 0 0 0 0 0 0-0.1 0-0.2-0.2-0.4-0.3-0.2-0.1-0.5-0.2-0.2-0.1-0.5-0.1-0.2 0-0.5-0.1zm2 5.3v0.4q0.1-0.1 0.1-0.2 0.1 0 0.1 0 0 0 0 0 0 0 0 0 0 0 0-0.1 0 0 0 0 0 0 0 0 0 0 0 0 0-0.1 0-0.1-0.1 0-0.1 0 0 0 0 0 0 0 0 0 0 0 0 0-0.1 0-0.1 0 0 0 0 0 0 0 0 0 0 0 0 0zm0.1-0.3q0 0 0 0 0 0 0.1 0 0 0 0 0 0 0.1 0 0.1v-2.1q0 0 0 0 0 0 0 0 0 0 0 0 0-0.1 0-0.1 0 0 0 0 0 0 0 0-0.1 0-0.1 0 0 0 0 0h-2.6q0 0 0 0 0 0 0 0 0 0 0 0-0.1 0-0.1 0 0 0 0 0.1 0 0 0 0 0 0 0 0 0 0 0 0 0 0.1 0 0.1 0 0 0 0 0 0 0 0 0 0 0 0 0 0 0.1 0.1 0 0 0 0 0 0 0 0 0 0 0 0h2.5v1.8q0 0 0 0 0 0 0 0 0 0 0 0 0 0 0.1 0z"/>
			<path id="Path_745" class="s0" d="m137.6 38.2q0 0.1-0.1 0.1-0.1 0.1-0.2 0.1-0.1 0-0.2-0.1-0.1 0-0.1-0.1v-6.1q0-0.1 0.1-0.1 0.1-0.1 0.2-0.1 0.1 0 0.2 0.1 0.1 0 0.1 0.1z"/>
			<path id="Path_746" fill-rule="evenodd" class="s1" d="m137.3 38.6q-0.1 0-0.1 0 0-0.1-0.1-0.1 0 0 0 0-0.1 0-0.1-0.1 0 0-0.1 0 0-0.1 0-0.1 0 0 0-0.1 0 0 0 0v-6q0-0.1 0-0.1 0-0.1 0-0.1 0 0 0-0.1 0.1 0 0.1 0 0.1-0.1 0.1-0.1 0.1-0.1 0.2-0.1 0.1 0 0.1 0.1 0.1 0 0.2 0.1 0 0 0 0 0.1 0.1 0.1 0.1 0 0 0 0.1 0 0 0 0.1v6q0 0 0 0.1-0.1 0.1-0.1 0.1-0.1 0.1-0.2 0.1 0 0.1-0.1 0.1zm0-6.6q0 0 0 0-0.1 0-0.1 0 0 0 0 0 0 0 0 0 0 0.1 0 0.1 0 0 0 0 0 0-0.1 0 0 0 0 0v6.1q0 0 0 0 0.1 0 0.1 0 0 0 0 0 0 0 0 0 0 0.1 0 0.1 0 0 0 0 0 0 0.1 0 0 0 0 0 0 0 0 0 0 0 0 0 0.1 0 0.1 0 0 0 0 0 0-0.1 0-0.1 0 0 0 0 0 0 0 0 0 0 0 0v-6.1q0 0 0 0 0 0 0 0 0 0 0 0 0 0 0 0 0-0.1 0-0.1 0 0-0.1 0 0 0 0 0 0 0 0 0z"/>
			<path id="Path_747" class="s1" d="m140.3 38.3q0 0-0.1 0 0 0-0.1-0.1 0 0 0-0.1-0.1 0-0.1-0.1v-6q0 0 0.1-0.1 0 0 0 0 0 0 0-0.1 0 0 0 0 0 0 0.1 0 0-0.1 0-0.1 0 0 0.1 0 0 0 0 0h3.7q0 0 0 0 0 0 0.1 0 0 0.1 0 0.1 0 0 0.1 0 0 0 0 0 0 0.1 0 0.1 0 0 0 0 0 0.1 0 0.1 0 0 0 0.1 0 0 0 0 0 0 0 0.1 0 0 0 0-0.1 0-0.1 0 0 0 0 0.1-0.1 0-0.1 0 0 0 0 0h-3.4v2.4h2.5q0.1 0 0.2 0.1 0.1 0.1 0.1 0.2 0 0.1-0.1 0.2-0.1 0.1-0.2 0.1h-2.5v2.4h3.4q0.1 0 0.2 0.1 0 0.1 0 0.2 0 0.1 0 0.2-0.1 0.1-0.2 0.1c0 0-3.7 0-3.7 0z"/>
			<path id="Path_748" fill-rule="evenodd" class="s0" d="m144 38.4h-3.7q0 0-0.1 0 0 0 0 0-0.1 0-0.1 0 0-0.1-0.1-0.1 0 0 0-0.1 0 0-0.1 0 0-0.1 0-0.1 0 0 0-0.1v-6q0-0.1 0-0.1 0 0 0-0.1 0.1 0 0.1 0 0-0.1 0-0.1 0.1 0 0.1-0.1 0 0 0.1 0 0 0 0 0 0.1 0 0.1 0h3.7q0 0 0 0 0.1 0 0.1 0 0.1 0 0.1 0.1 0 0 0.1 0 0 0 0 0.1 0 0 0 0 0.1 0.1 0.1 0.1 0 0.1 0 0.1 0 0 0 0.1 0 0-0.1 0.1 0 0 0 0 0 0.1-0.1 0.1 0 0 0 0 0 0.1-0.1 0.1 0 0-0.1 0 0 0 0 0h-3.3v2.2h2.4q0.1 0 0.1 0 0 0 0.1 0 0 0 0 0.1 0.1 0 0.1 0 0 0.1 0.1 0.1 0 0 0 0.1 0 0 0 0 0 0.1 0 0.1 0 0.1 0 0.2 0 0-0.1 0.1-0.1 0.1-0.1 0.1-0.1 0-0.2 0h-2.4v2.2h3.3q0.1 0 0.3 0.1 0.1 0.2 0.1 0.3 0 0.2-0.1 0.3-0.2 0.1-0.3 0.1zm-3.7-6.5q0 0 0 0 0 0 0 0 0 0-0.1 0 0 0 0 0 0 0 0 0 0 0 0 0 0 0.1 0 0.1 0 0 0 0v6q0 0 0 0.1 0 0 0 0 0 0 0 0 0 0 0 0 0 0 0 0 0.1 0.1 0.1 0.1 0 0 0 0 0 0 0 0h3.7q0 0 0 0 0 0 0 0 0 0 0-0.1 0 0 0.1 0 0 0 0 0 0 0 0 0 0 0 0 0 0-0.1 0-0.1 0 0 0 0 0 0 0 0 0 0 0 0 0-0.1 0-0.1 0 0-0.1 0 0 0 0 0 0 0 0 0 0 0 0 0h-3.5v-2.7h2.6q0 0 0 0 0.1-0.1 0.1-0.1 0 0 0 0 0 0 0 0 0 0 0 0 0 0 0 0 0 0 0-0.1 0.1 0 0.1 0 0 0-0.1 0 0 0 0 0 0-0.1 0-0.1 0 0 0 0 0 0 0 0 0 0 0 0 0 0-0.1 0 0 0 0 0h-2.6v-2.8h3.5q0 0 0 0 0 0 0 0 0 0 0 0 0 0 0.1 0 0 0 0 0 0 0 0 0 0-0.1 0-0.1 0 0 0 0 0 0 0 0 0 0 0 0 0-0.1 0-0.1 0 0 0 0-0.1 0-0.1 0 0 0 0 0 0 0 0 0 0 0 0 0c0 0-3.7 0-3.7 0z"/>
			<path id="Path_749" class="s1" d="m147.6 35.3q-0.2 0-0.4 0-0.2-0.1-0.4-0.2-0.3 0-0.5-0.2-0.1-0.1-0.3-0.2-0.1-0.1-0.2-0.3-0.1-0.1-0.1-0.2-0.1-0.2-0.1-0.3 0-0.2 0-0.3 0-0.2 0-0.4 0.1-0.2 0.1-0.4 0.1-0.1 0.2-0.3 0.2-0.1 0.3-0.2 0.1-0.2 0.3-0.3 0.2-0.1 0.3-0.1 0.2-0.1 0.4-0.1 0.2-0.1 0.4-0.1 0.2 0 0.3 0 0.2 0.1 0.4 0.1 0.1 0 0.3 0.1 0.1 0 0.3 0.1 0.2 0.1 0.3 0.2 0.1 0.1 0.2 0.2 0.2 0.2 0.2 0.3 0.1 0.2 0.2 0.4 0 0 0 0.1 0 0-0.1 0.1 0 0 0 0-0.1 0.1-0.1 0.1-0.1 0-0.1 0 0 0-0.1 0 0 0 0 0 0 0-0.1 0 0 0 0-0.1 0 0 0 0 0 0-0.1-0.1 0 0 0 0 0-0.1-0.1-0.2 0-0.1-0.1-0.2-0.1-0.1-0.2-0.2-0.1-0.1-0.2-0.1-0.1-0.1-0.3-0.1-0.1-0.1-0.2-0.1-0.1 0-0.2 0-0.2 0-0.3 0-0.1 0-0.3 0-0.1 0-0.3 0.1-0.1 0-0.2 0.1-0.1 0.1-0.2 0.1-0.1 0.1-0.2 0.2-0.1 0.2-0.2 0.3 0 0.1-0.1 0.2 0 0.2 0 0.3 0 0.1 0 0.2 0 0.1 0.1 0.2 0 0.1 0.1 0.1 0 0.1 0.1 0.2 0.1 0.1 0.3 0.2 0.1 0.1 0.3 0.1 0.1 0.1 0.3 0.1 0.2 0 0.4 0 0 0 0 0 0 0 0.1 0.1 0 0 0 0 0 0 0 0 0.1 0 0.1 0.1 0 0 0 0 0 0 0 0.1 0 0 0 0 0 0.1 0 0.1 0 0.1-0.1 0.1 0 0 0 0.1-0.1 0-0.2 0zm-1.2 2.7q-0.1-0.1-0.3-0.2-0.1-0.1-0.2-0.2-0.1-0.2-0.2-0.3-0.1-0.2-0.1-0.3 0-0.1 0-0.1 0 0 0-0.1 0 0 0 0 0 0 0-0.1 0 0 0 0 0.1 0 0.1 0 0-0.1 0-0.1 0 0 0.1 0 0 0 0 0 0 0 0.1 0 0 0 0 0 0.1 0 0.1 0 0 0.1 0 0.1 0 0 0.1 0 0 0 0 0.1 0 0 0 0 0 0.1 0.1 0.2 0.1 0.2 0.1 0.3 0.1 0 0.2 0.1 0.1 0.1 0.2 0.1 0.2 0.1 0.3 0.1 0.1 0.1 0.2 0.1 0.1 0 0.3 0 0.1 0.1 0.2 0 0.2 0.1 0.3 0 0.1 0 0.3 0 0.1-0.1 0.2-0.2 0.2 0 0.3-0.1 0.1-0.1 0.1-0.2 0.1-0.1 0.2-0.3 0-0.1 0.1-0.2 0-0.1 0-0.3 0-0.1 0-0.2 0-0.1 0-0.2-0.1-0.1-0.1-0.1-0.1-0.1-0.2-0.2-0.1-0.1-0.2-0.2-0.2-0.1-0.3-0.1-0.2-0.1-0.4-0.1-0.2 0-0.3 0-0.1 0-0.1 0 0 0 0 0-0.1-0.1-0.1-0.1 0 0 0 0 0 0-0.1 0 0-0.1 0-0.1 0 0 0 0 0-0.1 0-0.1 0 0 0-0.1 0 0 0 0 0 0 0.1-0.1 0 0 0 0 0 0 0 0 0.1 0 0.1-0.1 0 0 0 0 0.1 0 0.1 0 0.2 0 0.4 0.1 0.3 0 0.5 0.1 0.2 0 0.4 0.2 0.2 0.1 0.3 0.2 0.1 0.2 0.2 0.3 0.1 0.1 0.2 0.2 0 0.2 0 0.3 0.1 0.2 0.1 0.3 0 0.2-0.1 0.4 0 0.2-0.1 0.4-0.1 0.1-0.2 0.3-0.1 0.1-0.3 0.3-0.1 0.1-0.3 0.2-0.1 0.1-0.3 0.2-0.2 0-0.4 0.1-0.2 0-0.4 0-0.1 0-0.3 0-0.2 0-0.3-0.1-0.2 0-0.4-0.1-0.1 0-0.3-0.1z"/>
			<path id="Path_750" fill-rule="evenodd" class="s0" d="m147.7 38.4q-0.1 0-0.3 0-0.2 0-0.4 0-0.1-0.1-0.3-0.1-0.2-0.1-0.3-0.2-0.2-0.1-0.3-0.2-0.2-0.1-0.3-0.2-0.1-0.2-0.2-0.4-0.1-0.1-0.2-0.3 0-0.1 0-0.2 0-0.1 0.1-0.1 0-0.1 0.1-0.1 0.1-0.1 0.1-0.1 0.1 0 0.2 0 0.1 0 0.1 0 0.1 0.1 0.2 0.1 0 0.1 0 0.2 0.1 0.1 0.1 0.2 0.1 0.1 0.1 0.2 0.1 0 0.2 0.1 0.1 0.1 0.2 0.1 0.1 0.1 0.2 0.1 0.1 0 0.3 0.1 0.1 0 0.2 0 0.1 0 0.2 0 0.2 0 0.3 0 0.1 0 0.2-0.1 0.2 0 0.3-0.1 0.1-0.1 0.2-0.1 0.1-0.1 0.1-0.2 0.1-0.1 0.2-0.2 0-0.1 0-0.2 0.1-0.2 0.1-0.3 0-0.1 0-0.2 0 0-0.1-0.1 0-0.1 0-0.2-0.1 0-0.2-0.1-0.1-0.1-0.2-0.2-0.2-0.1-0.3-0.1-0.2-0.1-0.3-0.1-0.2 0-0.3 0h-0.1q-0.2 0-0.4 0-0.3-0.1-0.5-0.1-0.2-0.1-0.4-0.2-0.2-0.2-0.4-0.3-0.1-0.2-0.2-0.3-0.1-0.1-0.2-0.3 0-0.2-0.1-0.3 0-0.2 0-0.3 0-0.2 0.1-0.4 0-0.2 0.1-0.4 0.1-0.2 0.2-0.4 0.1-0.1 0.3-0.3 0.2-0.1 0.3-0.2 0.2-0.1 0.4-0.2 0.2-0.1 0.4-0.1 0.2 0 0.4 0 0.2 0 0.4 0 0.1 0 0.3 0.1 0.2 0 0.3 0.1 0.2 0 0.4 0.1 0.1 0.1 0.3 0.2 0.1 0.1 0.2 0.3 0.2 0.1 0.3 0.3 0 0.1 0.1 0.3 0 0.1 0 0.2 0 0.1-0.1 0.1 0 0.1-0.1 0.2 0 0-0.1 0 0 0-0.1 0 0 0-0.1 0 0 0 0 0-0.1 0-0.1 0-0.1 0-0.1-0.1 0 0 0 0-0.1-0.1-0.1-0.1 0 0 0-0.1 0-0.1-0.1-0.2 0-0.1-0.1-0.2-0.1 0-0.2-0.1-0.1-0.1-0.2-0.1-0.1-0.1-0.2-0.1-0.1 0-0.2-0.1-0.1 0-0.3 0-0.1 0-0.2 0-0.1 0-0.3 0-0.1 0-0.2 0.1-0.1 0-0.2 0.1-0.1 0.1-0.2 0.1-0.1 0.1-0.2 0.2-0.1 0.1-0.1 0.2-0.1 0.1-0.1 0.3 0 0.1-0.1 0.2 0 0.1 0.1 0.2 0 0 0 0.1 0 0.1 0.1 0.2 0 0 0.1 0.1 0.1 0.1 0.2 0.2 0.2 0.1 0.3 0.1 0.2 0.1 0.3 0.1 0.2 0 0.4 0 0.2 0 0.5 0 0.2 0.1 0.4 0.1 0.3 0.1 0.5 0.3 0.2 0.1 0.3 0.3 0.2 0.1 0.3 0.2 0 0.2 0.1 0.3 0.1 0.2 0.1 0.3 0 0.2 0 0.4 0 0.2-0.1 0.4 0 0.1-0.1 0.3-0.1 0.2-0.2 0.4-0.1 0.1-0.3 0.3-0.1 0.1-0.3 0.2-0.2 0.1-0.4 0.2-0.2 0.1-0.4 0.1-0.2 0-0.4 0zm-1.9-1.7q0 0 0 0.1 0 0 0 0 0 0-0.1 0 0 0 0 0 0 0 0 0 0 0.1 0 0.1 0 0 0 0 0 0 0 0 0 0.2 0.1 0.3 0.1 0.2 0.2 0.3 0.1 0.1 0.2 0.2 0.2 0.1 0.3 0.2 0.1 0 0.3 0.1 0.1 0.1 0.3 0.1 0.2 0 0.3 0 0.2 0.1 0.3 0.1 0.2 0 0.4-0.1 0.2 0 0.3-0.1 0.2 0 0.4-0.1 0.1-0.1 0.2-0.2 0.2-0.2 0.3-0.3 0.1-0.1 0.2-0.3 0-0.1 0.1-0.3 0-0.2 0-0.4 0-0.1 0-0.2 0-0.2-0.1-0.3 0-0.1-0.1-0.2-0.1-0.2-0.2-0.3-0.1-0.1-0.2-0.2-0.2-0.1-0.3-0.1-0.2-0.1-0.3-0.1-0.2-0.1-0.4-0.1 0.1 0 0.1 0.1 0 0 0 0 0 0.1 0 0.1-0.1 0-0.1 0.1 0.2 0 0.3 0 0.1 0.1 0.3 0.1 0.1 0.1 0.2 0.1 0.1 0.1 0.2 0.2 0.1 0.1 0.2 0.2 0 0.1 0.1 0.2 0 0.1 0 0.2 0.1 0.1 0.1 0.2-0.1 0.2-0.1 0.3 0 0.2-0.1 0.3-0.1 0.1-0.1 0.2-0.1 0.2-0.2 0.3-0.2 0.1-0.3 0.1-0.1 0.1-0.3 0.2-0.1 0-0.3 0.1-0.1 0-0.3 0-0.1 0-0.2 0-0.2 0-0.3-0.1-0.1 0-0.3 0-0.1-0.1-0.2-0.1-0.1-0.1-0.3-0.2-0.1-0.1-0.2-0.2-0.1-0.1-0.1-0.2-0.1-0.1-0.1-0.3 0 0 0 0 0 0 0 0-0.1 0-0.1 0 0 0 0 0 0 0 0 0 0 0 0 0 0-0.1 0-0.1-0.1 0-0.1 0zm1.9-1.8q0 0-0.1 0 0 0 0 0 0 0 0 0 0 0 0 0 0 0 0 0 0 0 0 0.1-0.1 0-0.1 0 0 0 0 0 0 0 0 0 0 0 0 0.1 0.1 0 0.1 0 0 0 0 0 0 0 0 0 0 0 0 0 0 0 0 0 0.1 0 0.1 0 0 0 0.1 0 0 0 0-0.1 0-0.1 0-0.1-0.1 0-0.1 0zm-0.1-3q-0.2-0.1-0.4 0-0.1 0-0.3 0.1-0.2 0-0.3 0.1-0.2 0.1-0.3 0.3-0.1 0.1-0.3 0.2-0.1 0.1-0.1 0.3-0.1 0.2-0.2 0.3 0 0.2 0 0.4 0 0.1 0 0.2 0 0.2 0.1 0.3 0 0.1 0.1 0.3 0.1 0.1 0.2 0.2 0.1 0.1 0.2 0.2 0.2 0.1 0.3 0.2 0.2 0 0.4 0.1 0.1 0 0.3 0 0 0 0 0 0 0 0 0 0-0.1 0-0.1 0 0 0 0 0 0 0 0 0-0.1 0-0.1 0 0 0 0 0 0 0-0.1-0.1 0-0.3 0-0.1 0-0.2-0.1-0.2-0.1-0.3-0.1-0.1-0.1-0.2-0.2-0.1-0.1-0.2-0.2 0-0.1-0.1-0.2 0-0.1 0-0.2 0-0.1 0-0.2 0-0.2 0-0.3 0.1-0.2 0.1-0.3 0.1-0.1 0.2-0.2 0.1-0.2 0.2-0.3 0.1-0.1 0.2-0.1 0.2-0.1 0.3-0.2 0.1 0 0.3-0.1 0.1 0 0.3 0 0.1 0 0.3 0 0.1 0 0.2 0.1 0.2 0 0.3 0 0.1 0.1 0.2 0.1 0.2 0.1 0.3 0.2 0.1 0.1 0.2 0.2 0.1 0.1 0.2 0.2 0 0.1 0.1 0.3 0 0 0 0 0 0 0 0 0 0 0 0 0 0 0 0 0 0.1 0 0.1 0.1 0 0.1 0 0 0 0 0 0 0 0 0 0 0 0-0.1 0.1 0 0.1 0 0 0 0 0 0 0 0 0 0 0 0 0 0 0 0-0.1 0 0 0 0 0 0 0 0 0-0.2-0.1-0.3-0.1-0.1-0.2-0.3-0.1-0.1-0.2-0.2-0.1-0.1-0.3-0.2-0.1 0-0.3-0.1-0.1 0-0.3-0.1-0.1 0-0.3 0-0.1 0-0.3 0z"/>
		</g>
		<g id="Group_77644">
			<path id="Path_751" class="s2" d="m49.5 0h-49.5v47.5h49.5z"/>
			<g id="Group_77643">
				<path id="Path_752" class="s3" d="m33.1 23h-1.5l0.8-1.4 0.7-1.3 0.8 1.3 0.8 1.4z"/>
				<path id="Path_753" class="s4" d="m6 20.3v-0.3z"/>
				<path id="Path_754" class="s4" d="m6 20.3v-0.3z"/>
				<path id="Path_755" class="s4" d="m11.9 19.7v13.6h-5.9v-13.6h4.4c0.5 0 1.1 0 1.5 0z"/>
				<path id="Path_756" class="s4" d="m25.9 29.4l-3.1 3.9-3.1-6.7 3.4-3.3z"/>
				<path id="Path_757" class="s4" d="m23.4 23q-0.1-0.2-0.1-0.5 0-0.2 0-0.3-0.1-0.2-0.1-0.4 0-0.2-0.1-0.4 0-0.1-0.1-0.3 0-0.1 0-0.2-0.2-0.5-0.4-1-0.3-0.4-0.5-0.9-0.3-0.4-0.7-0.9-0.3-0.4-0.7-0.8l-0.1-0.1q-0.1-0.1-0.2-0.2-0.8-0.7-1.6-1.2-0.8-0.5-1.8-0.9-0.9-0.3-1.9-0.5-0.9-0.2-1.9-0.1h-7.2v6l4.4-0.1c0.5 0 1.1 0.1 1.5 0.1h0.5 1.5c1 0 1.9 0.3 2.5 1 0.7 0.7 1.1 1.6 1.1 2.5 0 1-0.4 1.9-1.1 2.5-0.6 0.7-1.5 1.1-2.5 1.1q-0.3 0-0.6 0-0.3 0-0.6 0-0.3 0-0.7 0h-0.1-1.3-4.6v5.9h7.2q0 0 0.1 0 0 0 0 0 0 0 0 0 0 0 0 0 0 0 0 0 0.1 0 0.1 0 0 0 0 0 0 0 0 0 0 0 0 0h0.1q0.2 0 0.3-0.1 0.3 0 0.5 0 0.2 0 0.4 0l0.2-0.1h0.1q0.5-0.1 0.9-0.2 0.4-0.1 0.8-0.2 0.5-0.2 0.9-0.3 0.4-0.2 0.8-0.4 0.1-0.1 0.2-0.2 0.3-0.1 0.6-0.3 0.2-0.2 0.4-0.3 0.1-0.1 0.2-0.2 0.1-0.1 0.2-0.2 0.1-0.1 0.3-0.2 0.1-0.1 0.2-0.2 0.7-0.6 1.2-1.4 0.6-0.8 0.9-1.6 0.4-0.9 0.6-1.8 0.2-0.9 0.2-1.9 0-0.3 0-0.7z"/>
				<path id="Path_758" class="s4" d="m33.2 27.6l-0.1-7.3-10.3 13h5.9z"/>
				<path id="Path_759" class="s4" d="m11.9 20.3v13h-5.9v-13h4.4c0.5 0 1.1 0 1.5 0z"/>
				<path id="Path_760" class="s4" d="m43.5 33.3h-5.8l0.1-15.8h5.7z"/>
				<path id="Path_761" class="s4" d="m33.2 27.6l-0.1-7.3 10.4 13h-5.8z"/>
				<path id="Path_762" class="s4" d="m22.8 33.3l3.1-3.9z"/>
			</g>
		</g>
	</g>
</svg>