<svg width="162" height="52" viewBox="0 0 903 298" fill="none" xmlns="http://www.w3.org/2000/svg">
<path d="M242.585 282.717C243.177 206.663 176.277 163.605 127.677 163.605" stroke="#F16725" stroke-width="24.3754"/>
<path d="M13.0039 282.717C12.4113 206.663 79.3113 163.605 127.912 163.605" stroke="#F16725" stroke-width="24.3754"/>
<path d="M130.823 15.8757H115.029C77.7076 15.8757 47.4524 44.8248 47.4524 80.5352C47.4524 116.246 77.7076 145.195 115.029 145.195H130.823C168.145 145.195 198.4 116.246 198.4 80.5352C198.4 44.8248 168.145 15.8757 130.823 15.8757Z" stroke="#F16725" stroke-width="24.3754"/>
<path d="M41.607 52.5918H49.3145L45.4584 72.3151C44.4683 77.3786 44.4683 82.5743 45.4584 87.6381L49.3145 107.361H41.607C30.6753 107.361 21.8135 98.8821 21.8135 88.4226V71.5307C21.8135 61.0707 30.6753 52.5918 41.607 52.5918Z" fill="#F16725" stroke="#F16725" stroke-width="19.2869"/>
<path d="M204.762 52.5918H196.49L200.451 71.9818C201.53 77.2615 201.53 82.6913 200.451 87.9711L196.49 107.361H204.762C215.693 107.361 224.555 98.8821 224.555 88.4226V71.5307C224.555 61.0707 215.693 52.5918 204.762 52.5918Z" fill="#F16725" stroke="#F16725" stroke-width="19.2869"/>
<path d="M320.079 270.718V264.208C321.829 267.778 325.679 271.628 332.119 271.628C341.429 271.628 347.379 263.928 347.379 253.988C347.379 244.048 341.569 236.418 332.259 236.418C325.539 236.418 321.619 240.478 320.149 243.768V220.178H315.949V270.718H320.079ZM331.629 267.848C324.769 267.848 320.079 262.108 320.079 253.988C320.079 245.938 324.769 240.198 331.629 240.198C338.489 240.198 343.179 245.938 343.179 253.988C343.179 262.108 338.489 267.848 331.629 267.848ZM358.762 284.018L380.392 237.328H375.772L364.712 261.968L353.022 237.328H348.332L362.542 266.378L354.212 284.018H358.762ZM403.8 266.798V225.008H414.72C425.01 225.008 433.9 232.078 433.9 246.008C433.9 259.868 424.87 266.798 414.58 266.798H403.8ZM414.72 270.718C427.32 270.718 438.45 262.248 438.45 246.008C438.45 229.698 427.46 221.088 414.86 221.088H399.39V270.718H414.72ZM447.054 251.328C447.474 245.168 451.954 240.198 458.184 240.198C465.184 240.198 469.174 245.098 469.314 251.328H447.054ZM469.804 259.938C468.404 264.348 464.904 267.848 458.884 267.848C452.304 267.848 446.984 262.808 446.914 255.108V254.828H473.654C473.724 254.268 473.724 253.848 473.724 253.288C473.654 243.418 467.984 236.418 458.114 236.418C449.784 236.418 442.644 243.418 442.644 253.918C442.644 265.118 450.064 271.628 458.884 271.628C466.584 271.628 471.624 266.938 473.514 261.268L469.804 259.938ZM476.815 261.968C477.445 266.378 481.575 271.628 489.765 271.628C497.185 271.628 501.385 266.728 501.385 261.758C501.385 256.928 498.235 253.778 492.705 252.518L487.385 251.328C483.955 250.558 482.135 248.878 482.135 246.008C482.135 242.508 485.495 240.128 489.275 240.128C494.595 240.128 496.905 243.278 497.535 246.498L501.245 245.098C500.335 241.108 497.045 236.488 489.275 236.488C483.185 236.488 478.005 240.898 478.005 246.288C478.005 251.118 481.295 254.058 486.195 255.178L491.585 256.438C495.155 257.278 497.255 258.958 497.255 262.038C497.255 265.538 493.965 267.988 489.835 267.988C484.375 267.988 481.295 264.698 480.665 260.638L476.815 261.968ZM511.776 270.718V237.328H507.576V270.718H511.776ZM506.176 223.468C506.176 225.498 507.716 226.968 509.676 226.968C511.636 226.968 513.176 225.498 513.176 223.468C513.176 221.438 511.636 219.968 509.676 219.968C507.716 219.968 506.176 221.438 506.176 223.468ZM517.917 272.608C518.757 279.608 524.427 284.928 532.547 284.928C544.867 284.928 548.297 276.038 548.297 268.268V237.328H544.167V243.068C542.487 239.638 539.057 236.558 532.827 236.558C523.937 236.558 517.917 243.628 517.917 252.728C517.917 262.038 524.077 268.968 532.827 268.968C538.917 268.968 542.627 265.608 544.097 262.178V268.338C544.097 275.268 541.437 281.218 532.617 281.218C526.667 281.218 522.467 276.878 521.907 271.628L517.917 272.608ZM533.317 265.328C526.597 265.328 522.117 260.008 522.117 252.728C522.117 245.448 526.667 240.198 533.317 240.198C539.897 240.198 544.237 245.518 544.237 252.728C544.237 260.008 539.897 265.328 533.317 265.328ZM560.864 250.768C560.864 245.098 564.434 240.268 570.174 240.268C576.614 240.268 579.204 244.398 579.204 249.648V270.718H583.404V248.948C583.404 242.088 579.414 236.488 571.574 236.488C566.464 236.488 562.544 239.078 560.724 242.648V237.328H556.664V270.718H560.864V250.768ZM605.742 271.628C615.052 271.628 622.332 264.488 622.332 254.058C622.332 243.558 615.052 236.488 605.742 236.488C596.362 236.488 589.152 243.558 589.152 254.058C589.152 264.488 596.432 271.628 605.742 271.628ZM593.422 254.058C593.422 245.308 599.162 240.268 605.742 240.268C612.322 240.268 618.062 245.308 618.062 254.058C618.062 262.738 612.322 267.848 605.742 267.848C599.162 267.848 593.422 262.738 593.422 254.058ZM647.715 237.328L637.775 265.538L628.885 237.328H624.265L635.325 270.718H640.015L649.955 242.438L659.895 270.718H664.585L675.505 237.328H670.955L662.205 265.538L652.265 237.328H647.715ZM681.887 251.328C682.307 245.168 686.787 240.198 693.017 240.198C700.017 240.198 704.007 245.098 704.147 251.328H681.887ZM704.637 259.938C703.237 264.348 699.737 267.848 693.717 267.848C687.137 267.848 681.817 262.808 681.747 255.108V254.828H708.487C708.557 254.268 708.557 253.848 708.557 253.288C708.487 243.418 702.817 236.418 692.947 236.418C684.617 236.418 677.477 243.418 677.477 253.918C677.477 265.118 684.897 271.628 693.717 271.628C701.417 271.628 706.457 266.938 708.347 261.268L704.637 259.938ZM718.578 270.718V264.208C720.328 267.778 724.178 271.628 730.618 271.628C739.928 271.628 745.878 263.928 745.878 253.988C745.878 244.048 740.068 236.418 730.758 236.418C724.038 236.418 720.118 240.478 718.648 243.768V220.178H714.448V270.718H718.578ZM730.128 267.848C723.268 267.848 718.578 262.108 718.578 253.988C718.578 245.938 723.268 240.198 730.128 240.198C736.988 240.198 741.678 245.938 741.678 253.988C741.678 262.108 736.988 267.848 730.128 267.848Z" fill="white"/>
<path d="M301.949 167.347C304.029 181.647 318.589 203.747 352.909 203.747C383.849 203.747 398.669 182.687 398.669 165.007C398.669 146.547 386.709 132.767 364.089 127.827L343.809 123.407C334.189 121.327 329.509 115.867 329.509 108.327C329.509 99.7474 337.829 91.6874 350.309 91.6874C370.069 91.6874 375.269 105.987 376.309 112.487L397.889 104.427C395.289 93.2474 384.629 70.8874 350.309 70.8874C325.869 70.8874 305.849 89.0874 305.849 110.407C305.849 128.087 317.549 141.347 337.049 145.507L358.369 150.187C368.769 152.527 374.489 158.507 374.489 166.307C374.489 175.147 366.949 182.947 353.169 182.947C335.489 182.947 325.609 172.547 324.049 159.547L301.949 167.347ZM472.058 93.5074C493.378 93.5074 502.478 107.807 505.598 120.027L527.698 110.667C522.498 91.6874 505.338 70.8874 472.058 70.8874C436.438 70.8874 409.138 98.1874 409.138 137.187C409.138 175.147 435.918 203.747 472.318 203.747C504.818 203.747 522.758 182.687 528.738 164.747L507.158 155.387C504.298 165.267 495.718 181.127 472.318 181.127C452.038 181.127 434.098 165.787 434.098 137.187C434.098 108.067 452.298 93.5074 472.058 93.5074ZM537.939 166.307C537.939 186.067 554.319 203.747 579.799 203.747C602.159 203.747 614.639 191.787 620.099 182.947C620.099 192.047 620.879 196.727 621.399 199.847H645.319C644.799 196.727 643.759 190.227 643.759 179.307V116.647C643.759 92.2074 629.199 70.8874 591.759 70.8874C564.719 70.8874 543.139 87.5274 540.539 111.447L563.939 116.907C565.499 102.347 575.119 91.6874 592.279 91.6874C611.259 91.6874 619.319 101.827 619.319 114.047C619.319 118.467 617.239 122.367 609.699 123.407L575.899 128.347C554.319 131.467 537.939 143.947 537.939 166.307ZM583.179 183.207C570.699 183.207 562.899 174.367 562.899 165.007C562.899 153.827 570.699 147.847 581.099 146.287L619.319 140.567V146.287C619.319 173.587 603.199 183.207 583.179 183.207ZM695.873 199.847V11.6074H671.433V199.847H695.873ZM751.229 199.847V74.7874H727.049V199.847H751.229ZM721.589 27.4674C721.589 37.0874 729.389 44.8874 739.009 44.8874C748.889 44.8874 756.689 37.0874 756.689 27.4674C756.689 17.5874 748.889 9.78741 739.009 9.78741C729.389 9.78741 721.589 17.5874 721.589 27.4674ZM798.27 124.447C799.31 108.327 811.79 92.4674 832.33 92.4674C854.43 92.4674 866.13 106.507 866.65 124.447H798.27ZM870.29 156.947C865.61 170.987 855.47 182.167 835.19 182.167C814.13 182.167 798.01 166.567 797.49 144.207H891.61C891.87 142.647 892.13 139.527 892.13 136.407C892.13 97.4074 870.55 70.8874 832.07 70.8874C800.61 70.8874 772.27 97.6674 772.27 136.927C772.27 179.307 801.65 203.747 835.19 203.747C864.31 203.747 884.33 186.327 891.35 164.227L870.29 156.947Z" fill="white"/>
</svg>
