<svg height="496pt" viewBox="0 0 496 496" width="496pt" xmlns="http://www.w3.org/2000/svg"><path d="m8 8h448v464h-448zm0 0" fill="#999"/><path d="m40 488v-400h48v-48h400v448zm0 0" fill="#d9d7d8"/><path d="m88 40v48h-48v400h416v-448zm0 0" fill="#efedee"/><g fill="#1e73c9"><path d="m456 136h-64v-64h64zm0 0"/><path d="m456 232h-64v-64h64zm0 0"/><path d="m136 456h-64v-64h64zm0 0"/><path d="m72 224v-48h19.671875c1.558594-4.96875 3.710937-9.65625 6.167969-14.160156l-17.839844-17.839844 32-32 17.839844 17.839844c4.496094-2.457032 9.183594-4.609375 14.160156-6.167969v-19.671875h48v19.671875c4.984375 1.566406 9.753906 3.601563 14.265625 6.0625l17.734375-17.734375 32 32-17.734375 17.734375c2.460937 4.511719 4.496094 9.28125 6.0625 14.265625h19.671875v48h-19.671875c-1.558594 4.96875-3.710937 9.65625-6.167969 14.160156l17.839844 17.839844-32 32-17.839844-17.839844c-4.496094 2.457032-9.191406 4.609375-14.160156 6.167969v19.671875h-48v-19.671875c-4.984375-1.566406-9.753906-3.601563-14.265625-6.0625l-17.734375 17.734375-32-32 17.734375-17.734375c-2.460937-4.511719-4.496094-9.28125-6.0625-14.265625zm0 0"/><path d="m264 360v-32h18.097656c1.421875-5.519531 3.574219-10.734375 6.328125-15.574219l-8.425781-8.425781 24-24 8.425781 8.425781c4.839844-2.746093 10.054688-4.90625 15.574219-6.328125v-18.097656h32v18.097656c5.527344 1.421875 10.769531 3.535156 15.609375 6.292969l8.390625-8.390625 24 24-8.390625 8.390625c2.757813 4.839844 4.871094 10.082031 6.292969 15.609375h18.097656v32h-18.097656c-1.421875 5.519531-3.574219 10.734375-6.328125 15.574219l8.425781 8.425781-24 24-8.425781-8.425781c-4.839844 2.746093-10.054688 4.90625-15.574219 6.328125v18.097656h-32v-18.097656c-5.527344-1.421875-10.769531-3.535156-15.609375-6.292969l-8.390625 8.390625-24-24 8.390625-8.390625c-2.757813-4.839844-4.871094-10.082031-6.292969-15.609375zm0 0"/></g><path d="m216 200c0 26.507812-21.492188 48-48 48s-48-21.492188-48-48 21.492188-48 48-48 48 21.492188 48 48zm0 0" fill="#fff"/><path d="m376 344c0 17.671875-14.328125 32-32 32s-32-14.328125-32-32 14.328125-32 32-32 32 14.328125 32 32zm0 0" fill="#fff"/><path d="m40 88 48-48v48zm0 0" fill="#999"/><path d="m192 304h-48c-4.414062 0-8-3.574219-8-8v-14.015625c-1.585938-.617187-3.144531-1.28125-4.6875-1.984375l-13.65625 13.65625c-3.128906 3.128906-8.183594 3.128906-11.3125 0l-32-32c-3.128906-3.128906-3.128906-8.183594 0-11.3125l13.65625-13.65625c-.703125-1.535156-1.367188-3.113281-1.992188-4.6875h-14.007812c-4.414062 0-8-3.574219-8-8v-48c0-4.425781 3.585938-8 8-8h14.054688c.609374-1.511719 1.289062-3.054688 2.015624-4.609375l-13.726562-13.734375c-3.128906-3.128906-3.128906-8.183594 0-11.3125l32-32c1.496094-1.503906 3.535156-2.34375 5.65625-2.34375s4.160156.839844 5.65625 2.34375l13.726562 13.734375c1.5625-.734375 3.097657-1.414063 4.617188-2.023437v-14.054688c0-4.425781 3.585938-8 8-8h48c4.414062 0 8 3.574219 8 8v14.015625c1.585938.617187 3.144531 1.28125 4.6875 1.984375l13.65625-13.65625c3.128906-3.128906 8.183594-3.128906 11.3125 0l32 32c3.128906 3.128906 3.128906 8.183594 0 11.3125l-13.65625 13.65625c.703125 1.535156 1.367188 3.113281 1.992188 4.6875h14.007812c4.414062 0 8 3.574219 8 8v48c0 4.425781-3.585938 8-8 8h-14.054688c-.617187 1.511719-1.289062 3.046875-2.015624 4.609375l13.726562 13.734375c3.128906 3.128906 3.128906 8.183594 0 11.3125l-32 32c-1.496094 1.503906-3.535156 2.34375-5.65625 2.34375s-4.160156-.839844-5.65625-2.34375l-13.726562-13.734375c-1.5625.734375-3.097657 1.414063-4.617188 2.023437v14.054688c0 4.425781-3.585938 8-8 8zm-40-16h32v-11.671875c0-3.496094 2.273438-6.585937 5.601562-7.632813 4.007813-1.253906 8.167969-3.078124 12.726563-5.558593 3.113281-1.703125 6.976563-1.136719 9.488281 1.367187l12.183594 12.183594 20.6875-20.6875-12.183594-12.183594c-2.503906-2.503906-3.0625-6.367187-1.367187-9.488281 2.480469-4.542969 4.296875-8.710937 5.550781-12.71875 1.046875-3.335937 4.144531-5.609375 7.640625-5.609375h11.671875v-32h-11.671875c-3.496094 0-6.585937-2.273438-7.632813-5.609375-1.390624-4.4375-3.222656-8.75-5.449218-12.824219-1.695313-3.117187-1.140625-6.980468 1.371094-9.496094l12.078124-12.078124-20.695312-20.679688-12.078125 12.078125c-2.507813 2.503906-6.355469 3.066406-9.488281 1.371094-4.058594-2.210938-8.378906-4.050781-12.839844-5.457031-3.328125-1.058594-5.59375-4.136719-5.59375-7.632813v-11.671875h-32v11.671875c0 3.496094-2.273438 6.585937-5.601562 7.632813-4.007813 1.253906-8.167969 3.078124-12.726563 5.558593-3.121094 1.695313-6.976563 1.144531-9.488281-1.367187l-12.183594-12.183594-20.6875 20.6875 12.183594 12.183594c2.503906 2.503906 3.0625 6.367187 1.367187 9.488281-2.480469 4.542969-4.296875 8.710937-5.558593 12.726563-1.046876 3.335937-4.144532 5.601562-7.632813 5.601562h-11.671875v32h11.671875c3.496094 0 6.585937 2.265625 7.632813 5.601562 1.398437 4.445313 3.230468 8.765626 5.457031 12.832032 1.695312 3.117187 1.140625 6.980468-1.371094 9.496094l-12.078125 12.070312 20.6875 20.6875 12.078125-12.078125c2.507813-2.503906 6.363281-3.074219 9.488281-1.371094 4.058594 2.210938 8.378906 4.050781 12.839844 5.457031 3.328125 1.058594 5.59375 4.136719 5.59375 7.632813zm0 0"/><path d="m168 256c-30.878906 0-56-25.128906-56-56s25.121094-56 56-56 56 25.128906 56 56-25.121094 56-56 56zm0-96c-22.054688 0-40 17.945312-40 40s17.945312 40 40 40 40-17.945312 40-40-17.945312-40-40-40zm0 0"/><path d="m360 432h-32c-4.414062 0-8-3.574219-8-8v-12.175781c-2.0625-.71875-4.089844-1.535157-6.0625-2.441407l-4.28125 4.273438c-3.128906 3.128906-8.183594 3.128906-11.3125 0l-24-24c-1.503906-1.496094-2.34375-3.527344-2.34375-5.65625s.839844-4.160156 2.34375-5.65625l4.28125-4.28125c-.90625-1.972656-1.722656-4-2.449219-6.0625h-12.175781c-4.414062 0-8-3.574219-8-8v-32c0-4.425781 3.585938-8 8-8h12.183594c.726562-2.046875 1.542968-4.054688 2.464844-6.039062l-4.304688-4.304688c-3.128906-3.128906-3.128906-8.183594 0-11.3125l24-24c1.496094-1.503906 3.535156-2.34375 5.65625-2.34375s4.160156.839844 5.65625 2.34375l4.3125 4.304688c1.976562-.90625 3.992188-1.738282 6.03125-2.464844v-12.183594c0-4.425781 3.585938-8 8-8h32c4.414062 0 8 3.574219 8 8v12.167969c2.0625.726562 4.089844 1.542969 6.0625 2.449219l4.28125-4.273438c3.128906-3.128906 8.183594-3.128906 11.3125 0l24 24c1.503906 1.496094 2.34375 3.527344 2.34375 5.65625s-.839844 4.160156-2.34375 5.65625l-4.28125 4.28125c.90625 1.964844 1.722656 3.992188 2.449219 6.0625h12.175781c4.414062 0 8 3.574219 8 8v32c0 4.425781-3.585938 8-8 8h-12.183594c-.726562 2.046875-1.542968 4.054688-2.464844 6.039062l4.304688 4.304688c3.128906 3.128906 3.128906 8.183594 0 11.3125l-24 24c-1.496094 1.503906-3.535156 2.34375-5.65625 2.34375s-4.160156-.839844-5.65625-2.34375l-4.3125-4.304688c-1.984375.90625-3.992188 1.738282-6.03125 2.457032v12.191406c0 4.425781-3.585938 8-8 8zm-24-16h16v-10.105469c0-3.648437 2.472656-6.832031 6-7.75 4.703125-1.207031 9.289062-3.074219 13.617188-5.527343 3.125-1.792969 7.0625-1.242188 9.605468 1.292968l2.777344 2.777344 12.6875-12.6875-2.765625-2.777344c-2.554687-2.542968-3.082031-6.488281-1.296875-9.613281 2.464844-4.3125 4.320312-8.890625 5.535156-13.601563.902344-3.535156 4.097656-6.007812 7.742188-6.007812h10.097656v-16h-10.097656c-3.644532 0-6.832032-2.472656-7.742188-6-1.25-4.847656-3.105468-9.441406-5.503906-13.648438-1.785156-3.136718-1.257812-7.070312 1.296875-9.617187l2.726563-2.734375-12.679688-12.6875-2.734375 2.734375c-2.546875 2.546875-6.480469 3.082031-9.617187 1.296875-4.207032-2.398438-8.800782-4.246094-13.648438-5.503906-3.535156-.917969-6-4.097656-6-7.742188v-10.097656h-16v10.097656c0 3.644532-2.464844 6.832032-5.992188 7.742188-4.71875 1.222656-9.304687 3.097656-13.632812 5.542968-3.128906 1.785157-7.0625 1.242188-9.605469-1.292968l-2.769531-2.777344-12.6875 12.6875 2.765625 2.777344c2.554687 2.542968 3.082031 6.488281 1.296875 9.613281-2.464844 4.3125-4.320312 8.890625-5.535156 13.601563-.902344 3.535156-4.097656 6.007812-7.742188 6.007812h-10.097656v16h10.097656c3.644532 0 6.832032 2.472656 7.742188 6 1.25 4.832031 3.105468 9.433594 5.503906 13.648438 1.785156 3.136718 1.25 7.070312-1.296875 9.617187l-2.726563 2.734375 12.679688 12.6875 2.734375-2.734375c2.554687-2.546875 6.488281-3.066406 9.617187-1.296875 4.207032 2.398438 8.800782 4.246094 13.640626 5.496094 3.535156.910156 6.007812 4.09375 6.007812 7.742187zm0 0"/><path d="m344 384c-22.054688 0-40-17.945312-40-40s17.945312-40 40-40 40 17.945312 40 40-17.945312 40-40 40zm0-64c-13.230469 0-24 10.769531-24 24s10.769531 24 24 24 24-10.769531 24-24-10.769531-24-24-24zm0 0"/><path d="m257.523438 180.6875 12.933593-9.40625 64 87.992188-12.933593 9.410156zm0 0"/><path d="m140.25 303.050781 7.535156-14.125 120.003906 64.003907-7.53125 14.125zm0 0"/><path d="m40 480h-32c-4.414062 0-8-3.574219-8-8v-464c0-4.425781 3.585938-8 8-8h448c4.414062 0 8 3.574219 8 8v32h-16v-24h-432v448h24zm0 0"/><path d="m488 496h-448c-4.414062 0-8-3.574219-8-8v-400c0-4.425781 3.585938-8 8-8h40v-40c0-4.425781 3.585938-8 8-8h400c4.414062 0 8 3.574219 8 8v448c0 4.425781-3.585938 8-8 8zm-440-16h432v-432h-384v40c0 4.425781-3.585938 8-8 8h-40zm0 0"/><path d="m34.339844 82.34375 48-47.996094 11.3125 11.3125-48 48zm0 0"/><path d="m456 144h-64c-4.414062 0-8-3.574219-8-8v-64c0-4.425781 3.585938-8 8-8h64c4.414062 0 8 3.574219 8 8v64c0 4.425781-3.585938 8-8 8zm-56-16h48v-48h-48zm0 0"/><path d="m456 240h-64c-4.414062 0-8-3.574219-8-8v-64c0-4.425781 3.585938-8 8-8h64c4.414062 0 8 3.574219 8 8v64c0 4.425781-3.585938 8-8 8zm-56-16h48v-48h-48zm0 0"/><path d="m136 464h-64c-4.414062 0-8-3.574219-8-8v-64c0-4.425781 3.585938-8 8-8h64c4.414062 0 8 3.574219 8 8v64c0 4.425781-3.585938 8-8 8zm-56-16h48v-48h-48zm0 0"/><path d="m160 448h96v16h-96zm0 0"/><path d="m160 416h96v16h-96zm0 0"/><path d="m160 384h96v16h-96zm0 0"/><path d="m272 128h96v16h-96zm0 0"/><path d="m272 96h96v16h-96zm0 0"/><path d="m272 64h96v16h-96zm0 0"/></svg>