<svg id="_x33_0" enable-background="new 0 0 64 64" height="512" viewBox="0 0 64 64" width="512" xmlns="http://www.w3.org/2000/svg"><g><g><g><path d="m48 31c-8.271 0-15-6.729-15-15s6.729-15 15-15 15 6.729 15 15-6.729 15-15 15zm0-25c-5.514 0-10 4.486-10 10s4.486 10 10 10 10-4.486 10-10-4.486-10-10-10z" fill="#1e73c9"/></g></g><g><path d="m29.6 27.801c-1.314-1.754-3.408-2.801-5.6-2.801h-4c-2.192 0-4.286 1.047-5.6 2.8-.902 1.203-1.4 2.694-1.4 4.2v.752c0 .936.15 1.859.446 2.748.447 1.342 1.226 2.567 2.251 3.545l1.003.955h.855c-.344-.59-.555-1.268-.555-2v-2.859c0-1.337.668-2.586 1.781-3.328l1.219-.813c1.281 1.921 3.272 3.254 5.536 3.707h.001c.851.171 1.463.917 1.463 1.785v1.508c0 .732-.211 1.41-.555 2h.855l1.004-.956c1.025-.977 1.803-2.202 2.25-3.544.296-.889.446-1.812.446-2.748v-.752c0-1.506-.498-2.997-1.4-4.199z" fill="#1e73c9"/></g><g><path d="m33 34h8v12h-8z" fill="#1e73c9"/></g><g><path d="m49 11.184v-2.184h-2v2h-2v3c0 1.654 1.346 3 3 3 .551 0 1 .448 1 1v1h-1c-.551 0-1-.448-1-1v-1h-2v1c0 1.302.839 2.402 2 2.816v2.184h2v-2h2v-3c0-1.654-1.346-3-3-3-.551 0-1-.448-1-1v-1h1c.551 0 1 .448 1 1v1h2v-1c0-1.302-.839-2.402-2-2.816z"/><path d="m48 5c-6.065 0-11 4.935-11 11s4.935 11 11 11 11-4.935 11-11-4.935-11-11-11zm0 20c-4.962 0-9-4.037-9-9s4.038-9 9-9 9 4.037 9 9-4.038 9-9 9z"/><path d="m51 33v-2.302c-.651.133-1.322.207-2 .252v2.05h-2v-2.051c-.678-.045-1.349-.119-2-.252v2.303c-1.103 0-2 .897-2 2v15c0 1.13.391 2.162 1.026 3h-11.026v-.929c0-4.296-3.044-8.024-7.186-8.939l-.22-.879c1.436-.879 2.406-2.449 2.406-4.253v-1.508c0-1.339-.954-2.502-2.268-2.766-2.019-.404-3.758-1.569-4.9-3.281l-.555-.832-2.051 1.367c-1.393.93-2.226 2.486-2.226 4.161v2.859c0 1.804.97 3.374 2.406 4.253l-.22.879c-4.142.915-7.186 4.643-7.186 8.939v.929h-2v-30h25.744c-.339-.639-.623-1.31-.868-2h-26.876v32h-2v-33c0-.552.449-1 1-1h27.302c-.133-.651-.207-1.322-.252-2h-27.05c-1.654 0-3 1.346-3 3v33c-1.103 0-2 .897-2 2v2c0 3.309 2.691 6 6 6h38c3.309 0 6-2.691 6-6v-3.026c1.207-.914 2-2.348 2-3.974v-15c0-1.103-.897-2-2-2zm-29 14.414.783.783-.401.803h-.764l-.401-.803zm-.219 3.586h.438l.5 2h-1.438zm-.781 4h10v2h-10zm10-2.929v.929h-6.219l-.721-2.883.214-.428.925.925 2.668-4.447c1.899 1.301 3.133 3.487 3.133 5.904zm-4.932-6.795-1.267 2.111-1.232-1.231 1.646-1.097c.291.056.577.126.853.217zm-8.068-10.135c0-1.005.5-1.938 1.336-2.496l.429-.286c1.416 1.718 3.363 2.887 5.576 3.329.382.077.66.415.66.805v1.507c0 1.654-1.346 3-3 3h-2c-1.654 0-3-1.346-3-3v-2.859zm3 7.859h2c.24 0 .47-.038.701-.071l.157.63-1.858 1.239-1.859-1.239.157-.63c.232.033.462.071.702.071zm-2.215 2.058 1.646 1.097-1.232 1.232-1.267-2.112c.276-.09.562-.16.853-.217zm-5.785 7.013c0-2.417 1.234-4.603 3.133-5.905l2.668 4.446.924-.924.214.429-.72 2.883h-6.219zm36 2.929v2c0 2.206-1.794 4-4 4h-38c-2.206 0-4-1.794-4-4l-.001-2h.001 16v2c0 1.103.897 2 2 2h10c1.103 0 2-.897 2-2v-2zm2-5c0 1.654-1.346 3-3 3s-3-1.346-3-3l-.001-15h.001 6z"/><path d="m5 5h2v2h-2z"/><path d="m9 5h2v2h-2z"/><path d="m13 5h2v2h-2z"/><path d="m3 11h4.586l3.293 3.294c.45.448 1.072.706 1.707.706 1.331 0 2.414-1.083 2.414-2.414v-1.586h2c1.103 0 2-.897 2-2v-6c0-1.103-.897-2-2-2h-14c-1.103 0-2 .897-2 2v6c0 1.103.897 2 2 2zm0-8h14l.001 6h-4.001v3.586c0 .337-.468.531-.707.293l-3.879-3.879h-5.414z"/><path d="m35 57h2v2h-2z"/><path d="m39 57h2v2h-2z"/><path d="m43 57h2v2h-2z"/><path d="m35 49h2v2h-2z"/><path d="m39 49h2v2h-2z"/><path d="m33 45h8v2h-8z"/><path d="m33 41h8v2h-8z"/><path d="m33 37h8v2h-8z"/><path d="m33 33h8v2h-8z"/></g></g></svg>