<?xml version="1.0"?>
<svg xmlns="http://www.w3.org/2000/svg" viewBox="0 0 64 64" width="512" height="512"><g id="stethoscope-medical_stethoscope-heart-protect-check" data-name="stethoscope-medical stethoscope-heart-protect-check"><path d="M61,7v6.86a6.959,6.959,0,0,1-2.05,4.95L52,25.76l-6.95-6.95A6.959,6.959,0,0,1,43,13.86V7l9-3.75Z" style="fill:#1e73c9"/><path d="M61,7v6.86a6.959,6.959,0,0,1-2.05,4.95L52,25.76l-2-2,4.95-4.95A6.959,6.959,0,0,0,57,13.86V7L50,4.08l2-.83Z" style="fill:#1e73c9"/><path d="M61,43c0,11-16,18-16,18S29,54,29,43a9.99,9.99,0,0,1,16-7.99A9.99,9.99,0,0,1,61,43Z" style="fill:#1e73c9"/><path d="M61,43c0,11-16,18-16,18s-.78-.34-2-.99c4.29-2.3,14-8.44,14-17.01a10.008,10.008,0,0,0-7.96-9.79A9.054,9.054,0,0,1,51,33,10,10,0,0,1,61,43Z" style="fill:#1e73c9"/><circle cx="45" cy="47" r="8" style="fill:#acabb1"/><path d="M53,47a8,8,0,0,1-8,8,8.239,8.239,0,0,1-2-.25,8.005,8.005,0,0,0,0-15.5A8.239,8.239,0,0,1,45,39,8,8,0,0,1,53,47Z" style="fill:#898890"/><circle cx="45" cy="47" r="4" style="fill:#b39a7c"/><path d="M49,47a4,4,0,0,1-4,4,3.756,3.756,0,0,1-1.5-.3,3.988,3.988,0,0,0,0-7.4A3.756,3.756,0,0,1,45,43,4,4,0,0,1,49,47Z" style="fill:#957856"/><path d="M41,21v4a4,4,0,0,1-4,4H24v6H20V29H7a4,4,0,0,1-4-4V21H7v4H37V21h4Z" style="fill:#acabb1"/><path d="M35,6V7a2.006,2.006,0,0,1-2,2H31V3h2a2.006,2.006,0,0,1,2,2Z" style="fill:#b39a7c"/><path d="M13,3V9H11A2.006,2.006,0,0,1,9,7V5a2.006,2.006,0,0,1,2-2Z" style="fill:#b39a7c"/><path d="M51,32a10.905,10.905,0,0,0-6,1.79A10.989,10.989,0,0,0,28,43c0,8.18,8.03,14.13,12.93,17H24a1,1,0,0,1-1-1V52a3.009,3.009,0,0,0-3-3H5a1,1,0,0,1-1-1V43a1,1,0,0,1,1-1H20a3.009,3.009,0,0,0,3-3V36h1a1,1,0,0,0,1-1V30H37a5,5,0,0,0,5-5V21a1,1,0,0,0-1-1H40V8a3.009,3.009,0,0,0-3-3H36a3.009,3.009,0,0,0-3-3H31a1,1,0,0,0-1,1V9a1,1,0,0,0,1,1h2a3.009,3.009,0,0,0,3-3h1a1,1,0,0,1,1,1V20H37a1,1,0,0,0-1,1v3H8V21a1,1,0,0,0-1-1H6V8A1,1,0,0,1,7,7H8a3.009,3.009,0,0,0,3,3h2a1,1,0,0,0,1-1V3a1,1,0,0,0-1-1H11A3.009,3.009,0,0,0,8,5H7A3.009,3.009,0,0,0,4,8V20H3a1,1,0,0,0-1,1v4a5,5,0,0,0,5,5H19v5a1,1,0,0,0,1,1h1v3a1,1,0,0,1-1,1H5a3.009,3.009,0,0,0-3,3v5a3.009,3.009,0,0,0,3,3H20a1,1,0,0,1,1,1v7a3.009,3.009,0,0,0,3,3H45a1.1,1.1,0,0,0,.4-.08,42.468,42.468,0,0,0,8.56-5.25C58.02,53.42,62,48.76,62,43A11.007,11.007,0,0,0,51,32ZM34,7a1,1,0,0,1-1,1H32V4h1a1,1,0,0,1,1,1ZM10,5a1,1,0,0,1,1-1h1V8H11a1,1,0,0,1-1-1ZM20,28H7a3.009,3.009,0,0,1-3-3V22H6v3a1,1,0,0,0,1,1H37a1,1,0,0,0,1-1V22h2v3a3.009,3.009,0,0,1-3,3H24a1,1,0,0,0-1,1v5H21V29A1,1,0,0,0,20,28ZM45,54a7,7,0,1,1,7-7A7.008,7.008,0,0,1,45,54Zm1,5.4V55.94a9,9,0,1,0-2,0V59.4C40.2,57.43,30,51.36,30,43a8.99,8.99,0,0,1,14.4-7.19.99.99,0,0,0,1.2,0A8.99,8.99,0,0,1,60,43C60,51.36,49.8,57.43,46,59.4Z"/><path d="M45,42a5,5,0,1,0,5,5A5.006,5.006,0,0,0,45,42Zm0,8a3,3,0,1,1,3-3A3,3,0,0,1,45,50Z"/><path d="M49.878,12.465l-1.414,1.414,2.829,2.828a1,1,0,0,0,1.414,0l5.657-5.657L56.95,9.636,52,14.586Z"/><path d="M61.38,6.08l-9-3.75a.916.916,0,0,0-.76,0l-9,3.75A.987.987,0,0,0,42,7v6.86a7.943,7.943,0,0,0,2.34,5.65l6.95,6.95a.99.99,0,0,0,1.42,0l6.95-6.95A7.943,7.943,0,0,0,62,13.86V7A.987.987,0,0,0,61.38,6.08ZM60,13.86a5.928,5.928,0,0,1-1.76,4.24L52,24.34,45.76,18.1A5.928,5.928,0,0,1,44,13.86V7.67l8-3.34,8,3.34Z"/></g></svg>
