<svg id="Group_83974" data-name="Group 83974" xmlns="http://www.w3.org/2000/svg" width="491.051" height="475.998" viewBox="0 0 491.051 475.998">
    <defs>
        <clipPath id="clip-path">
            <path id="Rectangle_23144" data-name="Rectangle 23144" class="cls-1" d="M0 0h491.051v475.998H0z"/>
        </clipPath>
        <clipPath id="clip-path-4">
            <path id="Rectangle_23130" data-name="Rectangle 23130" class="cls-1" d="M0 0h259.217v113.176H0z"/>
        </clipPath>
        <clipPath id="clip-path-6">
            <path id="Rectangle_23133" data-name="Rectangle 23133" class="cls-1" d="M0 0h17.267v4.648H0z"/>
        </clipPath>
        <clipPath id="clip-path-7">
            <path id="Rectangle_23134" data-name="Rectangle 23134" class="cls-1" d="M0 0h17.228v4.132H0z"/>
        </clipPath>
        <clipPath id="clip-path-8">
            <path id="Rectangle_23135" data-name="Rectangle 23135" class="cls-1" d="M0 0h30.144v8.902H0z"/>
        </clipPath>
        <clipPath id="clip-path-9">
            <path id="Rectangle_23136" data-name="Rectangle 23136" class="cls-1" d="M0 0h5.273v22.246H0z"/>
        </clipPath>
        <clipPath id="clip-path-10">
            <path id="Rectangle_23137" data-name="Rectangle 23137" class="cls-1" d="M0 0h26.583v4.032H0z"/>
        </clipPath>
        <clipPath id="clip-path-12">
            <path id="Rectangle_23139" data-name="Rectangle 23139" class="cls-2" d="M0 0h24.479v18.158H0z"/>
        </clipPath>
        <clipPath id="clip-path-13">
            <path id="Rectangle_23140" data-name="Rectangle 23140" class="cls-2" d="M0 0h26.901v16.797H0z"/>
        </clipPath>
        <style>
            .cls-1{fill:none}.cls-2{fill:#d5d5d5}.cls-3{clip-path:url(#clip-path)}.cls-4{fill:#e0e0e0}.cls-5{fill:#f0f0f0}.cls-6{fill:#f5f5f5}.cls-7{fill:#ebebeb}.cls-8{fill:#fafafa}.cls-9{fill:#ccc}.cls-10{fill:#263238}.cls-11{fill:#161e6d}.cls-12,.cls-21{fill:#fff}.cls-13{fill:#ef3a2f}.cls-14{fill:#ffba41}.cls-15{opacity:.3}.cls-19{fill:#ffbe9d}.cls-20{fill:#455a64}.cls-21{stroke:#000}.cls-25{fill:#ff725e}
        </style>
    </defs>
    <g id="Group_83973" data-name="Group 83973" class="cls-3">
        <g id="Group_83938" data-name="Group 83938" transform="translate(0 -.043)">
            <g id="Group_83937" data-name="Group 83937" class="cls-3">
                <path id="Path_87267" data-name="Path 87267" class="cls-4" d="M367.058 118.071a30.883 30.883 0 0 1 7.528-3.271l1.55-7.451 12.588-.221 1.812 7.39a30.867 30.867 0 0 1 7.638 3l6.362-4.17 9.057 8.746-3.943 6.5a30.834 30.834 0 0 1 3.271 7.53l7.451 1.55.221 12.588-7.391 1.812a30.778 30.778 0 0 1-3 7.637l4.17 6.362-8.745 9.058-6.5-3.943a30.847 30.847 0 0 1-7.529 3.27l-1.55 7.451-12.588.222-1.812-7.391a30.822 30.822 0 0 1-7.648-2.998l-6.362 4.171-9.058-8.746 3.944-6.5a30.807 30.807 0 0 1-3.272-7.528l-7.451-1.551-.219-12.588 7.391-1.812a30.907 30.907 0 0 1 3-7.638l-4.17-6.362 8.745-9.057zm6.711 16.77a13.506 13.506 0 1 0 19.1-.336 13.5 13.5 0 0 0-19.1.336" transform="translate(13.974 4.332)"/>
                <path id="Path_87268" data-name="Path 87268" class="cls-4" d="M372.83 133.934a10.2 10.2 0 0 1 2.515-2.207 13.449 13.449 0 0 1 8.811-2.084 13.632 13.632 0 0 1 5.989 2.128 13.83 13.83 0 0 1 4.842 5.457 13.847 13.847 0 0 1 1.3 7.949 13.78 13.78 0 0 1-11.4 11.81 13.857 13.857 0 0 1-7.992-1.025 13.824 13.824 0 0 1-5.624-4.649 13.628 13.628 0 0 1-2.337-5.911 13.452 13.452 0 0 1 1.773-8.878 10.19 10.19 0 0 1 2.117-2.591c.073.061-.816.886-1.856 2.741a13.471 13.471 0 0 0-1.493 8.646 13.2 13.2 0 0 0 7.71 9.99 13.195 13.195 0 0 0 7.573.928 13.088 13.088 0 0 0 10.777-11.164 13.2 13.2 0 0 0-1.194-7.534 13.193 13.193 0 0 0-10.254-7.354 13.466 13.466 0 0 0-8.589 1.8c-1.817 1.1-2.609 2.023-2.674 1.951" transform="translate(14.913 5.239)"/>
                <path id="Path_87269" data-name="Path 87269" class="cls-4" d="M367.068 118.08a2.849 2.849 0 0 1-.419-.221l-1.247-.721-4.9-2.9.153-.019-8.692 9.108.023-.245 4.2 6.345.075.116-.067.122a30.731 30.731 0 0 0-2.956 7.587l-.036.149-.151.036c-2.3.571-4.793 1.189-7.386 1.834l.21-.274.251 12.588-.242-.294 7.452 1.537.19.04.053.186a30.688 30.688 0 0 0 3.249 7.443l.105.172-.105.174-3.934 6.51-.055-.428 9.068 8.734-.448-.042 6.358-4.177.186-.122.195.107a30.647 30.647 0 0 0 7.547 2.964l.221.054.054.22 1.817 7.391-.376-.29 12.588-.226-.369.306 1.549-7.45.047-.23.226-.064a30.586 30.586 0 0 0 7.427-3.226h.006l.2-.12.2.12 6.5 3.945-.479.06 8.747-9.055-.045.477-4.167-6.364-.126-.192.111-.2a30.445 30.445 0 0 0 2.972-7.545l.055-.221.221-.054q3.75-.918 7.392-1.806l-.281.364-.209-12.588.284.343-7.448-1.56-.206-.045-.057-.2a30.545 30.545 0 0 0-3.223-7.451l-.105-.174.105-.172 3.954-6.5.052.4c-3.18-3.084-6.181-5.994-9.039-8.763l.368.034-6.372 4.153-.142.092-.147-.082a30.762 30.762 0 0 0-7.564-3l-.15-.037-.036-.15-1.786-7.4.226.175c-4.876.063-9.032.118-12.589.166l.168-.139c-.639 2.973-1.162 5.409-1.6 7.44l-.017.076-.072.019a31.952 31.952 0 0 0-5.757 2.215l-1.354.707a3.117 3.117 0 0 1-.452.229 4.505 4.505 0 0 1 .419-.286c.288-.176.724-.441 1.328-.764a29.7 29.7 0 0 1 5.746-2.34l-.087.094 1.5-7.461.027-.135h.14l12.586-.276h.182l.045.179 1.836 7.384-.185-.185a31.108 31.108 0 0 1 7.712 3.009l-.287.009 6.352-4.185.2-.13.172.165 9.075 8.726.185.177-.133.221a17132.28 17132.28 0 0 1-3.933 6.51v-.345a31.2 31.2 0 0 1 3.318 7.607L413 135.8l7.452 1.542.279.057.005.286.234 12.586.005.3-.286.071-7.39 1.817.275-.274a31.218 31.218 0 0 1-3.037 7.731l-.014-.391q2.065 3.146 4.172 6.36l.169.256-.213.22-8.742 9.06-.214.224-.264-.162-6.5-3.941h.4-.006a31.346 31.346 0 0 1-7.616 3.307l.273-.293-1.552 7.45-.062.3-.308.006-12.588.215-.3.005-.072-.3-1.807-7.391.274.275a31.38 31.38 0 0 1-7.726-3.048l.381-.014-6.366 4.165-.241.157-.207-.2-9.047-8.757-.2-.191.139-.228 3.953-6.5v.345a31.216 31.216 0 0 1-3.293-7.614l.242.225c-2.6-.545-5.142-1.079-7.447-1.564l-.238-.051v-.243l-.193-12.588v-.22l.213-.053 7.4-1.791-.186.185a31.177 31.177 0 0 1 3.053-7.687l.008.236c-1.492-2.3-2.888-4.447-4.144-6.38l-.085-.132.109-.111 8.8-9.008.071-.072.082.052 4.792 2.983c.524.332.929.59 1.232.78a3.939 3.939 0 0 1 .417.286" transform="translate(13.964 4.323)"/>
                <path id="Path_87270" data-name="Path 87270" class="cls-5" d="M55.938 190.01a30.882 30.882 0 0 1 7.528-3.271l1.55-7.451 12.588-.221 1.811 7.39a30.858 30.858 0 0 1 7.639 3l6.362-4.17 9.057 8.746-3.943 6.5a30.811 30.811 0 0 1 3.271 7.529l7.45 1.55.222 12.588-7.391 1.812a30.861 30.861 0 0 1-3 7.637l4.17 6.362-8.752 9.068-6.5-3.943a30.846 30.846 0 0 1-7.529 3.27l-1.55 7.452-12.588.221-1.811-7.391a30.852 30.852 0 0 1-7.638-3l-6.362 4.17-9.058-8.745 3.943-6.5a30.867 30.867 0 0 1-3.271-7.529l-7.451-1.551-.221-12.587 7.391-1.812a30.908 30.908 0 0 1 3-7.638l-4.17-6.362 8.745-9.057zm6.711 16.77a13.506 13.506 0 1 0 19.1-.336 13.5 13.5 0 0 0-19.1.336" transform="translate(1.394 7.241)"/>
                <path id="Path_87271" data-name="Path 87271" class="cls-6" d="M61.71 205.873a10.2 10.2 0 0 1 2.515-2.207 13.45 13.45 0 0 1 8.811-2.083 13.617 13.617 0 0 1 5.989 2.127 13.822 13.822 0 0 1 4.842 5.457 13.846 13.846 0 0 1 1.3 7.949 13.779 13.779 0 0 1-11.4 11.81 13.855 13.855 0 0 1-7.987-1.026 13.817 13.817 0 0 1-5.624-4.649 13.627 13.627 0 0 1-2.337-5.911 13.444 13.444 0 0 1 1.773-8.878 10.191 10.191 0 0 1 2.117-2.591c.073.062-.816.886-1.856 2.741a13.471 13.471 0 0 0-1.493 8.646 13.2 13.2 0 0 0 7.71 9.99 13.195 13.195 0 0 0 7.573.928 13.088 13.088 0 0 0 10.777-11.162 13.2 13.2 0 0 0-1.194-7.534 13.193 13.193 0 0 0-10.254-7.354 13.466 13.466 0 0 0-8.589 1.8c-1.817 1.1-2.609 2.023-2.674 1.951" transform="translate(2.332 8.148)"/>
                <path id="Path_87272" data-name="Path 87272" class="cls-6" d="M55.949 190.019a2.953 2.953 0 0 1-.419-.222l-1.247-.721-4.9-2.9.153-.02-8.692 9.108.023-.243 4.2 6.345.075.114-.067.122a30.764 30.764 0 0 0-2.956 7.587l-.036.149-.151.037-7.386 1.833.21-.273.251 12.587-.242-.293 7.453 1.536.189.04.053.187a30.667 30.667 0 0 0 3.249 7.442l.105.173-.105.174-3.934 6.509-.055-.427 9.068 8.733-.448-.042 6.358-4.176.186-.123.195.108a30.646 30.646 0 0 0 7.547 2.963l.221.054.054.221 1.817 7.39-.376-.289 12.588-.227-.369.307 1.549-7.451.047-.23.226-.063a30.586 30.586 0 0 0 7.427-3.226h.006l.2-.12.2.12 6.5 3.944-.479.061q4.434-4.588 8.747-9.055l-.045.477-4.167-6.364-.126-.192.111-.2a30.486 30.486 0 0 0 2.973-7.542l.055-.221.221-.054 7.392-1.806-.281.365-.209-12.588.284.342-7.448-1.56-.206-.043-.056-.2a30.587 30.587 0 0 0-3.224-7.451l-.105-.174.105-.173 3.954-6.5.052.4-9.039-8.764.368.035-6.375 4.151-.143.093-.146-.082a30.726 30.726 0 0 0-7.564-3l-.15-.037-.035-.149c-.65-2.687-1.235-5.11-1.787-7.4l.226.175-12.589.165.168-.138c-.639 2.971-1.162 5.409-1.6 7.44l-.017.075-.072.02a32.045 32.045 0 0 0-5.757 2.214l-1.354.707a3.08 3.08 0 0 1-.452.23 4.044 4.044 0 0 1 .419-.286 24.36 24.36 0 0 1 1.328-.765 29.84 29.84 0 0 1 5.746-2.34l-.087.094 1.5-7.46.027-.135h.14l12.586-.276h.182l.045.178 1.836 7.385-.185-.186a31.108 31.108 0 0 1 7.717 3.008l-.287.01 6.352-4.186.2-.13.172.165 9.075 8.726.185.178-.133.221-3.933 6.51v-.346a31.2 31.2 0 0 1 3.318 7.608l-.263-.246 7.452 1.542.279.057.005.285.234 12.587.005.294-.286.071-7.39 1.818.275-.275a31.209 31.209 0 0 1-3.037 7.733l-.014-.392 4.172 6.36.168.256-.212.221-8.742 9.06-.214.223-.264-.161-6.5-3.942h.4-.006a31.333 31.333 0 0 1-7.616 3.308l.273-.293-1.552 7.451-.062.3-.308.005-12.588.215-.3.005-.072-.294-1.807-7.392.274.275a31.339 31.339 0 0 1-7.726-3.047l.381-.014-6.366 4.164-.241.158-.207-.2-9.047-8.756-.2-.191.144-.236 3.953-6.5v.345a31.25 31.25 0 0 1-3.293-7.613l.242.225-7.447-1.565-.238-.05v-.243l-.192-12.588v-.221l.213-.052 7.4-1.792-.186.186a31.161 31.161 0 0 1 3.053-7.687l.008.235c-1.492-2.3-2.888-4.446-4.144-6.379l-.085-.133.109-.111 8.8-9.007.07-.072.082.052 4.792 2.982 1.232.781a3.75 3.75 0 0 1 .417.286" transform="translate(1.383 7.232)"/>
                <path id="Path_87273" data-name="Path 87273" class="cls-5" d="M389.34 51.84a22.387 22.387 0 0 1 5.455-2.37l1.124-5.4 9.122-.16 1.313 5.355a22.365 22.365 0 0 1 5.535 2.178l4.61-3.021 6.563 6.337-2.862 4.713a22.332 22.332 0 0 1 2.37 5.456l5.4 1.124.16 9.122-5.356 1.314a22.292 22.292 0 0 1-2.178 5.534l3.022 4.61-6.333 6.568-4.713-2.858a22.347 22.347 0 0 1-5.455 2.37l-1.124 5.4-9.121.159-1.314-5.356a22.358 22.358 0 0 1-5.534-2.178l-4.61 3.022-6.564-6.337 2.858-4.713a22.29 22.29 0 0 1-2.37-5.455l-5.4-1.124-.16-9.13 5.356-1.314a22.37 22.37 0 0 1 2.177-5.534l-3.021-4.61 6.336-6.564zm4.86 12.152a9.787 9.787 0 1 0 13.839-.243 9.786 9.786 0 0 0-13.839.243" transform="translate(15.115 1.776)"/>
                <path id="Path_87274" data-name="Path 87274" class="cls-6" d="M393.522 63.335a7.409 7.409 0 0 1 1.822-1.6 9.743 9.743 0 0 1 6.385-1.51 9.86 9.86 0 0 1 4.34 1.542 10.013 10.013 0 0 1 3.509 3.954 10.031 10.031 0 0 1 .946 5.76 9.985 9.985 0 0 1-8.262 8.559 10.027 10.027 0 0 1-5.79-.743 10.019 10.019 0 0 1-4.072-3.367 9.871 9.871 0 0 1-1.693-4.283 9.748 9.748 0 0 1 1.284-6.434 7.4 7.4 0 0 1 1.535-1.877c.053.045-.591.642-1.345 1.986a9.754 9.754 0 0 0-1.081 6.264 9.557 9.557 0 0 0 5.587 7.239 9.56 9.56 0 0 0 5.487.673 9.482 9.482 0 0 0 7.808-8.089 9.563 9.563 0 0 0-.865-5.46 9.563 9.563 0 0 0-7.431-5.328 9.754 9.754 0 0 0-6.224 1.3c-1.316.8-1.89 1.466-1.937 1.414" transform="translate(15.795 2.433)"/>
                <path id="Path_87275" data-name="Path 87275" class="cls-6" d="M389.348 51.847a2.007 2.007 0 0 1-.3-.16l-.9-.522-3.552-2.1.11-.015-6.3 6.6.017-.177 3.041 4.6.054.083-.048.087a22.32 22.32 0 0 0-2.142 5.5l-.026.108-.109.027-5.359 1.322.152-.2.181 9.122-.176-.212 5.4 1.113.137.028.038.135a22.255 22.255 0 0 0 2.355 5.394l.076.125-.076.126-2.851 4.717-.04-.31 6.57 6.329-.325-.03 4.608-3.027.134-.088.141.078a22.248 22.248 0 0 0 5.47 2.147l.159.038.04.16c.412 1.677.863 3.507 1.316 5.355l-.269-.2 9.126-.166-.267.223 1.123-5.4.034-.166.162-.046a22.12 22.12 0 0 0 5.382-2.338h.005l.147-.087.144.087 4.713 2.858-.346.045 6.338-6.562-.033.345-3.019-4.611-.092-.14.081-.145a22.068 22.068 0 0 0 2.155-5.465l.04-.16.159-.038 5.357-1.309-.2.264q-.076-4.671-.151-9.122l.2.248-5.4-1.131-.15-.031-.041-.153A22.142 22.142 0 0 0 420 59.6l-.076-.126.076-.126 2.865-4.708.038.289-6.551-6.351.266.026-4.617 3.01-.1.067-.106-.059a22.249 22.249 0 0 0-5.481-2.175l-.109-.027-.026-.108c-.47-1.948-.895-3.7-1.3-5.359l.164.126-9.123.12.121-.1-1.158 5.392-.011.054-.052.015a23.188 23.188 0 0 0-4.171 1.6l-.981.513a2.163 2.163 0 0 1-.328.166 2.734 2.734 0 0 1 .3-.207c.209-.128.525-.32.962-.555a21.643 21.643 0 0 1 4.164-1.7l-.063.069c.3-1.475.653-3.247 1.088-5.406l.02-.1h.1l9.12-.2h.132l.032.13 1.331 5.351-.134-.135a22.522 22.522 0 0 1 5.588 2.181l-.208.007 4.6-3.033.143-.094.125.12 6.576 6.323.134.129-.1.16-2.85 4.717v-.251a22.577 22.577 0 0 1 2.4 5.512l-.189-.178 5.4 1.117.2.042v.207l.17 9.122v.213l-.208.051-5.354 1.317.2-.2a22.672 22.672 0 0 1-2.2 5.6l-.01-.284 3.023 4.608.122.186-.154.159-6.305 6.583-.155.16-.191-.117-4.713-2.856h.29-.005a22.663 22.663 0 0 1-5.52 2.4l.2-.212-1.125 5.4-.045.218h-.223l-9.123.156h-.22l-.052-.213-1.31-5.357.2.2a22.678 22.678 0 0 1-5.6-2.208l.276-.01-4.613 3.018-.176.114-.149-.146-6.557-6.347-.145-.139.1-.171c1-1.639 1.977-3.248 2.864-4.708v.25a22.652 22.652 0 0 1-2.387-5.516l.176.163-5.4-1.134-.173-.037v-.176l-.138-9.122v-.16l.155-.037 5.359-1.3-.134.135a22.57 22.57 0 0 1 2.212-5.571l.006.171-3-4.623-.062-.1.079-.081 6.375-6.527.05-.052.06.037 3.472 2.16.894.567a2.915 2.915 0 0 1 .3.207" transform="translate(15.107 1.769)"/>
                <path id="Path_87276" data-name="Path 87276" class="cls-4" d="M115.124 27.139a22.388 22.388 0 0 1 5.455-2.37l1.124-5.4 9.122-.16 1.313 5.355a22.364 22.364 0 0 1 5.535 2.178l4.61-3.021 6.563 6.337-2.857 4.712a22.332 22.332 0 0 1 2.37 5.456l5.4 1.124.16 9.122-5.356 1.314a22.333 22.333 0 0 1-2.178 5.534l3.021 4.61-6.336 6.564-4.713-2.858a22.348 22.348 0 0 1-5.455 2.37l-1.124 5.4-9.123.159-1.312-5.356a22.349 22.349 0 0 1-5.535-2.178l-4.61 3.022-6.564-6.337L107.491 58a22.29 22.29 0 0 1-2.37-5.455l-5.4-1.124-.16-9.122 5.356-1.314a22.355 22.355 0 0 1 2.177-5.534l-3.021-4.61 6.336-6.563zm4.863 12.152a9.787 9.787 0 1 0 13.839-.243 9.786 9.786 0 0 0-13.839.243" transform="translate(4.026 .777)"/>
                <path id="Path_87277" data-name="Path 87277" class="cls-4" d="M119.306 38.634a7.409 7.409 0 0 1 1.822-1.6 9.743 9.743 0 0 1 6.385-1.51 9.86 9.86 0 0 1 4.34 1.542 10.02 10.02 0 0 1 3.509 3.954 10.034 10.034 0 0 1 .946 5.76 9.988 9.988 0 0 1-8.262 8.559 10.027 10.027 0 0 1-5.79-.743 10.013 10.013 0 0 1-4.075-3.369 9.849 9.849 0 0 1-1.693-4.282 9.748 9.748 0 0 1 1.284-6.434 7.4 7.4 0 0 1 1.535-1.877c.053.045-.591.642-1.345 1.986a9.76 9.76 0 0 0-1.082 6.264 9.563 9.563 0 0 0 5.587 7.239 9.565 9.565 0 0 0 5.488.673 9.482 9.482 0 0 0 7.808-8.089 9.563 9.563 0 0 0-.865-5.46 9.563 9.563 0 0 0-7.431-5.328 9.754 9.754 0 0 0-6.224 1.3c-1.316.8-1.89 1.466-1.937 1.414" transform="translate(4.706 1.434)"/>
                <path id="Path_87278" data-name="Path 87278" class="cls-4" d="M115.132 27.146a1.776 1.776 0 0 1-.3-.16c-.223-.127-.519-.3-.9-.521q-1.236-.732-3.552-2.1l.11-.015-6.3 6.6.017-.176 3.041 4.6.054.084-.048.086a22.321 22.321 0 0 0-2.142 5.5l-.027.108-.108.027c-1.669.416-3.474.864-5.352 1.329l.152-.2.181 9.122-.176-.212 5.4 1.113.137.029.038.135a22.247 22.247 0 0 0 2.355 5.393l.076.125-.076.126-2.851 4.717-.04-.31 6.57 6.329-.325-.029 4.608-3.027.134-.089.142.078a22.151 22.151 0 0 0 5.47 2.147l.159.04.04.159c.412 1.677.863 3.508 1.316 5.356l-.272-.21 9.122-.164-.267.223 1.122-5.4.034-.166.163-.046a22.164 22.164 0 0 0 5.382-2.339h.005l.147-.088.144.088 4.713 2.857-.348.046 6.338-6.561-.032.344-3.019-4.612-.092-.14.081-.144a22.156 22.156 0 0 0 2.155-5.466l.04-.16.159-.037q2.717-.666 5.357-1.31l-.2.264q-.076-4.669-.151-9.122l.2.248q-2.747-.573-5.4-1.13l-.15-.032-.041-.145a22.106 22.106 0 0 0-2.337-5.4l-.076-.126.076-.126 2.865-4.708.037.288c-2.3-2.234-4.479-4.342-6.55-6.351l.266.026-4.617 3.01-.1.067-.106-.058a22.249 22.249 0 0 0-5.481-2.175l-.109-.027-.026-.108c-.47-1.949-.895-3.7-1.3-5.359l.164.126-9.123.119.121-.1-1.158 5.392-.011.054-.052.016a23.067 23.067 0 0 0-4.172 1.605c-.421.22-.744.387-.981.512a2.039 2.039 0 0 1-.327.165 2.663 2.663 0 0 1 .3-.206c.209-.129.524-.321.961-.555a21.675 21.675 0 0 1 4.165-1.7l-.063.069c.3-1.475.653-3.247 1.088-5.405l.02-.1h.1c2.577-.055 5.587-.122 9.12-.2h.132l.032.13 1.331 5.351-.134-.135a22.562 22.562 0 0 1 5.588 2.181l-.208.007a2708.44 2708.44 0 0 0 4.6-3.032l.143-.094.124.119 6.577 6.323.134.129-.1.161-2.85 4.717v-.251a22.59 22.59 0 0 1 2.4 5.511l-.19-.178 5.4 1.117.2.043v.207l.17 9.122v.212l-.208.052-5.354 1.316.2-.2a22.638 22.638 0 0 1-2.2 5.6l-.01-.284 3.024 4.609.122.185-.154.16-6.335 6.566-.155.16-.191-.117-4.713-2.856h.285a22.684 22.684 0 0 1-5.52 2.4l.2-.213-1.125 5.4-.046.218h-.222c-3.139.054-6.234.107-9.123.155h-.22l-.052-.212-1.31-5.358.2.2a22.679 22.679 0 0 1-5.6-2.209l.276-.01-4.614 3.018-.175.115-.15-.147-6.53-6.341-.145-.139.1-.171c1-1.638 1.977-3.247 2.864-4.708v.25a22.654 22.654 0 0 1-2.387-5.516l.176.163-5.4-1.133-.173-.038v-.176l-.139-9.122v-.16l.155-.037c1.881-.456 3.689-.893 5.359-1.3l-.134.136a22.56 22.56 0 0 1 2.212-5.572l.006.171c-1.082-1.666-2.093-3.222-3-4.622l-.061-.1.079-.081 6.375-6.527.05-.052.06.038 3.472 2.159.893.568a3 3 0 0 1 .3.206" transform="translate(4.018 .77)"/>
                <path id="Path_87279" data-name="Path 87279" class="cls-4" d="m347.146 55.745-.005-.021-.987-4.032a16.908 16.908 0 0 1-4.16-1.637l-3.488 2.287-.016-.015-4.973-4.8.01-.018 2.151-3.547a16.975 16.975 0 0 1-1.781-4.1l-4.083-.85v-.022l-.123-6.913.021-.005 4.032-.988a17.023 17.023 0 0 1 1.636-4.159l-2.285-3.488.016-.016 4.8-4.973.017.01 3.548 2.152a16.954 16.954 0 0 1 4.1-1.782l.85-4.084h.022l6.912-.121.005.021.987 4.031a16.9 16.9 0 0 1 4.161 1.636L362 18.025l.016.014 4.973 4.8-.01.018-2.151 3.547a16.869 16.869 0 0 1 1.781 4.1l4.084.85v.021l.122 6.914-.021.005-4.032.987a16.881 16.881 0 0 1-1.636 4.159l2.286 3.489-.015.015-4.8 4.974-.017-.01-3.548-2.152a16.946 16.946 0 0 1-4.1 1.781l-.85 4.084h-.022zM341.992 50H342a16.9 16.9 0 0 0 4.176 1.643h.016v.016l.986 4.026 6.85-.12.848-4.075h.016a16.894 16.894 0 0 0 4.116-1.787l.014-.008.012.008 3.545 2.147 4.758-4.929-2.281-3.48.008-.014a16.844 16.844 0 0 0 1.642-4.174v-.016h.016l4.026-.986-.121-6.851-4.073-.848-.005-.015a16.849 16.849 0 0 0-1.788-4.116l-.008-.014.008-.014 2.15-3.544-4.931-4.759-3.479 2.281-.012-.007a16.854 16.854 0 0 0-4.176-1.643h-.015v-.015l-.987-4.026-6.85.12-.848 4.074h-.016a16.919 16.919 0 0 0-4.115 1.789l-.014.008-.012-.008-3.544-2.149-4.759 4.93 2.28 3.479-.008.014a16.973 16.973 0 0 0-1.642 4.175v.015h-.016l-4.026.987.121 6.85 4.073.848.005.016a16.89 16.89 0 0 0 1.789 4.116l.008.014-.008.014-2.149 3.543 4.93 4.759zm8.477-7.62a7.417 7.417 0 1 1 5.34-2.263 7.4 7.4 0 0 1-5.34 2.263m0-14.783a7.366 7.366 0 1 0 5.117 2.064 7.352 7.352 0 0 0-5.117-2.064" transform="translate(13.332 .591)"/>
                <path id="Path_87280" data-name="Path 87280" class="cls-7" d="M344.636 29.324a5.591 5.591 0 0 1 1.376-1.208 7.361 7.361 0 0 1 4.825-1.141 7.477 7.477 0 0 1 3.279 1.166 7.575 7.575 0 0 1 2.651 2.986 7.568 7.568 0 0 1 .714 4.352 7.545 7.545 0 0 1-6.242 6.466 7.561 7.561 0 0 1-4.375-.561 7.581 7.581 0 0 1-3.08-2.544 7.475 7.475 0 0 1-1.279-3.238 7.362 7.362 0 0 1 .971-4.861 5.578 5.578 0 0 1 1.159-1.418c.04.034-.446.485-1.016 1.5a7.375 7.375 0 0 0-.817 4.734 7.224 7.224 0 0 0 4.221 5.47 7.235 7.235 0 0 0 4.146.509 7.168 7.168 0 0 0 5.9-6.113 7.224 7.224 0 0 0-.653-4.125 7.227 7.227 0 0 0-5.614-4.026 7.374 7.374 0 0 0-4.7.983c-.995.606-1.429 1.109-1.464 1.069" transform="translate(13.847 1.089)"/>
                <path id="Path_87281" data-name="Path 87281" class="cls-7" d="M341.482 20.645a1.515 1.515 0 0 1-.23-.121l-.683-.4-2.684-1.586.084-.01-4.76 4.987.014-.133 2.3 3.474.041.062-.036.067a16.864 16.864 0 0 0-1.618 4.153l-.021.081-.082.021-4.043 1 .114-.15.137 6.892-.133-.16 4.081.841.1.022.029.1a16.8 16.8 0 0 0 1.779 4.075l.057.094-.057.1-2.155 3.563-.03-.233c1.56 1.5 3.242 3.121 4.965 4.782l-.246-.023 3.481-2.287.1-.068.107.059a16.758 16.758 0 0 0 4.133 1.623l.12.029.03.121.995 4.046-.206-.158 6.893-.124-.2.168.848-4.08.026-.126.124-.034a16.707 16.707 0 0 0 4.066-1.767l.11-.066.109.066 3.56 2.159-.262.034 4.789-4.958-.024.26-2.282-3.484-.07-.105.061-.109a16.7 16.7 0 0 0 1.628-4.129l.03-.122.121-.029 4.046-.988-.153.2-.114-6.893.155.188-4.077-.854-.113-.024-.031-.11a16.746 16.746 0 0 0-1.765-4.079l-.058-.1.058-.095c.742-1.22 1.462-2.4 2.165-3.557l.028.218-4.949-4.8.2.019-3.484 2.285-.078.051-.08-.045a16.779 16.779 0 0 0-4.141-1.643l-.082-.021-.02-.081-.978-4.05.124.1-6.893.091.092-.076-.875 4.074-.009.041-.04.011a17.5 17.5 0 0 0-3.151 1.212l-.741.387a1.59 1.59 0 0 1-.248.126 2.222 2.222 0 0 1 .23-.156c.157-.1.4-.242.726-.419a16.349 16.349 0 0 1 3.146-1.281l-.048.051.823-4.085.015-.074h.077l6.891-.151h.1l.025.1 1.005 4.043-.1-.1a17.066 17.066 0 0 1 4.222 1.647l-.157.006 3.478-2.292.108-.071.094.091 4.968 4.778.1.1-.074.121-2.153 3.565v-.19a17.039 17.039 0 0 1 1.817 4.165l-.144-.134 4.081.844.152.032v.156l.128 6.892v.161l-.157.038-4.046.995.151-.15a17.118 17.118 0 0 1-1.663 4.234l-.008-.215 2.285 3.482.092.14-.115.121-4.787 4.961-.118.122-.145-.088-3.56-2.158h.219a17.151 17.151 0 0 1-4.17 1.81l.149-.16-.849 4.079-.034.165h-.169l-6.892.118h-.167l-.04-.161c-.341-1.4-.679-2.78-.989-4.047l.151.15a17.167 17.167 0 0 1-4.231-1.668l.209-.008-3.485 2.281-.133.086-.112-.11-4.954-4.793-.109-.105.079-.129 2.164-3.557v.189a17.122 17.122 0 0 1-1.8-4.169l.132.124-4.076-.857-.131-.028v-.132l-.105-6.893v-.121l.117-.028 4.05-.981-.1.1a17.024 17.024 0 0 1 1.671-4.209l.005.129-2.276-3.505-.043-.069.059-.061 4.816-4.931.038-.04.046.028 2.623 1.632.674.429a1.992 1.992 0 0 1 .229.156" transform="translate(13.327 .587)"/>
                <path id="Path_87282" data-name="Path 87282" class="cls-4" d="m38.686 175.262-.005-.02-.987-4.032a16.924 16.924 0 0 1-4.16-1.637l-3.488 2.286-.016-.015-4.973-4.8.01-.018 2.152-3.547a16.932 16.932 0 0 1-1.782-4.1l-4.084-.849v-.022l-.122-6.912.02-.005 4.032-.988a16.94 16.94 0 0 1 1.637-4.16l-2.286-3.488.015-.015 4.8-4.974.018.01 3.549 2.152a16.9 16.9 0 0 1 4.1-1.781l.849-4.085h.021l6.913-.121.005.02.988 4.032a16.88 16.88 0 0 1 4.16 1.636l3.488-2.286.015.015 4.974 4.8-.01.018-2.152 3.547a16.865 16.865 0 0 1 1.781 4.1l4.084.85v.021l.122 6.913-.021.005-4.033.988a16.9 16.9 0 0 1-1.636 4.16l2.286 3.488-.015.015-4.8 4.974-.018-.01-3.547-2.151a16.92 16.92 0 0 1-4.1 1.78l-.85 4.085h-.02zm-5.154-5.749.014.007a16.89 16.89 0 0 0 4.175 1.644h.016v.016l.986 4.027 6.85-.12.848-4.075h.016a16.9 16.9 0 0 0 4.116-1.789l.014-.008.014.008 3.544 2.149 4.758-4.93-2.283-3.48.008-.014a16.843 16.843 0 0 0 1.642-4.175v-.016h.016l4.026-.986-.121-6.85-4.074-.848v-.016a16.876 16.876 0 0 0-1.787-4.116l-.008-.014.008-.014 2.149-3.543-4.93-4.759-3.479 2.281-.014-.008a16.827 16.827 0 0 0-4.175-1.642h-.016v-.016l-.987-4.027-6.85.12-.847 4.075h-.016a16.9 16.9 0 0 0-4.116 1.788l-.012.008-.017-.009-3.544-2.15-4.758 4.93 2.28 3.479-.007.014a16.887 16.887 0 0 0-1.643 4.175v.016h-.015l-4.026.987.12 6.849 4.074.848v.016a16.865 16.865 0 0 0 1.79 4.116l.007.014-.007.014-2.149 3.543 4.929 4.76zm8.477-7.62a7.413 7.413 0 1 1 5.34-2.262 7.4 7.4 0 0 1-5.34 2.262m.005-14.786h-.133a7.381 7.381 0 1 0 .133 0" transform="translate(.859 5.424)"/>
                <path id="Path_87283" data-name="Path 87283" class="cls-7" d="M36.176 148.842a5.591 5.591 0 0 1 1.376-1.208 7.361 7.361 0 0 1 4.825-1.141 7.449 7.449 0 0 1 3.278 1.165 7.566 7.566 0 0 1 2.652 2.987 7.565 7.565 0 0 1 .714 4.355 7.542 7.542 0 0 1-6.242 6.466 7.584 7.584 0 0 1-4.379-.566 7.576 7.576 0 0 1-3.08-2.546 7.457 7.457 0 0 1-1.279-3.236 7.361 7.361 0 0 1 .971-4.861 5.579 5.579 0 0 1 1.159-1.418c.041.034-.446.485-1.017 1.5a7.376 7.376 0 0 0-.817 4.734 7.224 7.224 0 0 0 4.221 5.47 7.223 7.223 0 0 0 4.146.508 7.165 7.165 0 0 0 5.9-6.112 7.224 7.224 0 0 0-.653-4.125 7.227 7.227 0 0 0-5.614-4.027 7.376 7.376 0 0 0-4.7.983c-.995.606-1.429 1.107-1.464 1.069" transform="translate(1.374 5.922)"/>
                <path id="Path_87284" data-name="Path 87284" class="cls-7" d="M33.022 140.162a1.483 1.483 0 0 1-.23-.122l-.683-.394-2.684-1.586.083-.01-4.759 4.987.014-.134 2.3 3.475.042.062-.036.066a16.873 16.873 0 0 0-1.619 4.154l-.02.081-.082.021-4.044 1 .115-.15.137 6.892-.133-.16 4.081.841.1.022.029.1a16.816 16.816 0 0 0 1.778 4.075l.058.094-.058.1c-.667 1.1-1.4 2.323-2.154 3.564l-.03-.233c1.56 1.5 3.242 3.121 4.965 4.782l-.246-.024 3.481-2.286.1-.068.107.059a16.716 16.716 0 0 0 4.133 1.622l.12.03.03.121.995 4.046-.206-.158 6.893-.124-.2.167.848-4.08.026-.126.124-.034a16.765 16.765 0 0 0 4.066-1.767l.111-.066.108.066 3.561 2.159-.262.034 4.789-4.958-.025.26-2.281-3.484-.07-.105.061-.109a16.7 16.7 0 0 0 1.628-4.13l.029-.122.121-.029 4.047-.988-.153.2-.114-6.892.155.188-4.077-.854-.113-.024-.031-.11a16.746 16.746 0 0 0-1.765-4.079l-.058-.1.058-.095 2.164-3.557.029.218-4.949-4.8.2.019-3.489 2.274-.078.051-.08-.045a16.8 16.8 0 0 0-4.141-1.643l-.082-.021-.02-.081-.979-4.05.125.1-6.893.091.092-.076-.875 4.074-.009.041-.04.011a17.5 17.5 0 0 0-3.151 1.212l-.741.387a1.59 1.59 0 0 1-.248.126 2.229 2.229 0 0 1 .23-.156c.157-.1.4-.242.726-.419a16.348 16.348 0 0 1 3.146-1.281l-.048.051.823-4.085.015-.074h.077l6.891-.151h.1l.025.1 1.005 4.043-.1-.1a17.026 17.026 0 0 1 4.222 1.647l-.157.006 3.478-2.292.108-.071.094.091 4.968 4.778.1.1-.074.121-2.153 3.564v-.189A17.08 17.08 0 0 1 58.315 150l-.144-.134 4.08.844.153.032v.156l.128 6.892v.161l-.157.038-4.046.995.151-.15a17.159 17.159 0 0 1-1.663 4.234l-.008-.215 2.285 3.482.092.14-.117.121-4.786 4.961-.118.122-.145-.088-3.561-2.159h.216a17.114 17.114 0 0 1-4.17 1.811l.149-.16c-.291 1.4-.582 2.79-.849 4.079l-.034.165h-.169l-6.893.118h-.165l-.04-.161c-.341-1.4-.679-2.78-.989-4.047l.15.15a17.175 17.175 0 0 1-4.23-1.668l.209-.008L30.163 172l-.132.086-.112-.109-4.954-4.794-.109-.105.079-.129 2.164-3.557v.188a17.1 17.1 0 0 1-1.8-4.168l.132.124-4.077-.857-.13-.028v-.132c-.037-2.419-.073-4.723-.105-6.893v-.121l.117-.028 4.049-.981-.1.1a17.022 17.022 0 0 1 1.671-4.209v.129l-2.268-3.493-.048-.073.06-.061 4.816-4.931.038-.04.046.028 2.623 1.632.674.429a1.987 1.987 0 0 1 .229.156" transform="translate(.854 5.42)"/>
                <path id="Path_87285" data-name="Path 87285" class="cls-4" d="M334.691 365.978a33.351 33.351 0 0 0-14.266-4.911c-2.331-.239-4.879-.171-6.748 1.241a1.389 1.389 0 0 0-.7 1.232 1.51 1.51 0 0 0 .66.844c5.8 4.428 14.586 4.987 21.05 1.594" transform="translate(12.656 14.596)"/>
                <path id="Path_87286" data-name="Path 87286" class="cls-4" d="M334.084 366.264a69.63 69.63 0 0 1-9.214-8.107 23.309 23.309 0 0 1-5.778-10.684 4.309 4.309 0 0 1 .457-3.575c7.344 5.736 13.115 13.155 14.535 22.366" transform="translate(12.896 13.906)"/>
                <path id="Path_87287" data-name="Path 87287" class="cls-4" d="M333.792 366.588a33.312 33.312 0 0 1 .171-12.1 16.36 16.36 0 0 1 6.444-9.983c1.269 2.967.723 6.385-.171 9.485a46.066 46.066 0 0 1-6.39 13.454" transform="translate(13.479 13.931)"/>
                <path id="Path_87288" data-name="Path 87288" class="cls-4" d="M341.393 378.13c-4.371.532-8.178 2.835-11.442 5.791a21.651 21.651 0 0 0-6.544 11.234c4.288-.264 7.925-3.288 10.563-6.678s4.466-7.11 7.364-10.281" transform="translate(13.078 15.291)"/>
                <path id="Path_87289" data-name="Path 87289" class="cls-4" d="M342.273 381.15a28.216 28.216 0 0 1 3.259-26.692c2.49 8.858 1.575 18.863-3.259 26.692" transform="translate(13.761 14.333)"/>
                <path id="Path_87290" data-name="Path 87290" class="cls-4" d="M352.111 391a20.405 20.405 0 0 0-19.51 11.23c-.242.484-.456 1.1-.132 1.53a1.454 1.454 0 0 0 1.294.381c3.845-.25 7.253-2.564 10.065-5.2s5.262-5.678 8.368-7.956" transform="translate(13.437 15.81)"/>
                <path id="Path_87291" data-name="Path 87291" class="cls-4" d="M351.113 391.459a36.336 36.336 0 0 1-.363-20.3c.716-2.614 1.916-5.363 4.332-6.589a.854.854 0 0 1 .663-.117.877.877 0 0 1 .418.486 12.218 12.218 0 0 1 1.022 5.823 36.567 36.567 0 0 1-.912 5.9c-.761 3.6-1.165 7.475-3.142 10.582a21.271 21.271 0 0 0-1.256 2.324c-.375.79-.378 1.068-.72 1.7" transform="translate(14.132 14.736)"/>
                <path id="Path_87292" data-name="Path 87292" class="cls-4" d="M375.281 394.884c-1.866-7.1.114-15.7 4.586-21.518.33-.429.767-.889 1.3-.839.823.076 1.037 1.174 1 2a38.886 38.886 0 0 1-6.891 20.356" transform="translate(15.147 15.064)"/>
                <path id="Path_87293" data-name="Path 87293" class="cls-4" d="M377.436 395.8a31.3 31.3 0 0 0 25.685-5.224 20.8 20.8 0 0 0-13.9-1.706c-4.645 1.062-8.889 3.143-11.781 6.93" transform="translate(15.263 15.704)"/>
                <path id="Path_87294" data-name="Path 87294" class="cls-4" d="M379.276 391.488c4.83-7.873 14.088-13.012 23.311-13.48-1.062 3.752-4.145 6.668-7.624 8.43s-7.362 2.529-11.19 3.273c-1.489.289-3.531.608-4.5 1.777" transform="translate(15.337 15.286)"/>
                <path id="Path_87295" data-name="Path 87295" class="cls-4" d="M375.845 369.981a67.641 67.641 0 0 0 2.981-13.653c.36-4.653-.3-9.511-2.719-13.5-4.51 8.728-4.967 18.927-.4 27.625" transform="translate(15.063 13.863)"/>
                <path id="Path_87296" data-name="Path 87296" class="cls-4" d="M390.311 362.26c5.275-9.588 16.037-17.245 26.928-18.319-4.2 10.461-15.658 18.544-26.928 18.319" transform="translate(15.783 13.908)"/>
                <path id="Path_87297" data-name="Path 87297" class="cls-4" d="M387.122 363.415c7.867 1.2 14.569 6.223 21.922 9.269a9.818 9.818 0 0 0 4.956.949 3.88 3.88 0 0 0 2.428-6.863 10.593 10.593 0 0 0-3.6-2.184c-8.007-3.334-16.594-3.417-25.029-1.4" transform="translate(15.654 14.632)"/>
                <path id="Path_87298" data-name="Path 87298" class="cls-4" d="M382.746 368.672c1.781.51 2.39 1.432 3.8 2.633a41.016 41.016 0 0 0 16.623 8.54c.636.157 1.468.221 1.783-.354.275-.5-.073-1.108-.43-1.554a22.889 22.889 0 0 0-10.037-6.814c-3.836-1.428-7.16-3.15-11.739-2.781" transform="translate(15.477 14.893)"/>
                <path id="Path_87299" data-name="Path 87299" class="cls-4" d="M377.808 336.66a31.462 31.462 0 0 0 24.119 8.206 1.651 1.651 0 0 0 1.1-.394c.607-.661-.121-1.679-.828-2.231-7.092-5.529-15.68-7.821-24.389-5.581" transform="translate(15.278 13.579)"/>
                <path id="Path_87300" data-name="Path 87300" class="cls-4" d="M383.663 334.74a33.62 33.62 0 0 1 30.1-4.966 23.891 23.891 0 0 1-14.342 6.3 45.406 45.406 0 0 1-15.754-1.331" transform="translate(15.514 13.271)"/>
                <path id="Path_87301" data-name="Path 87301" class="cls-4" d="M381.494 320.593c-.7-7.078-.245-12.665-.736-19.777-.04-.567-.161-1.252-.693-1.456-.74-.285-1.357.624-1.6 1.38a22.67 22.67 0 0 0 3.018 19.7" transform="translate(15.262 12.103)"/>
                <path id="Path_87302" data-name="Path 87302" class="cls-4" d="M380.846 321.383a41.611 41.611 0 0 0 11.725-11.395c2.316-3.169 4.268-6.965 3.741-10.854a11.218 11.218 0 0 0-8.457 4.2 23.589 23.589 0 0 0-4.312 8.675c-.939 3.114-1.6 6.314-2.7 9.374" transform="translate(15.4 12.096)"/>
                <path id="Path_87303" data-name="Path 87303" class="cls-4" d="M391.924 318.131a94.541 94.541 0 0 0 28.853-17.013c-3.446-1.389-7.392-.558-10.838.833a34.176 34.176 0 0 0-18.166 16.1" transform="translate(15.842 12.148)"/>
                <path id="Path_87304" data-name="Path 87304" class="cls-4" d="M383.959 324.563c5.326.583 10.737.961 16.022.078 5.195-.868 10.1-2.927 14.957-4.97a1.75 1.75 0 0 0 1.015-.771 1.169 1.169 0 0 0-.364-1.28 3.071 3.071 0 0 0-1.275-.6c-5.277-1.476-10.972-.786-16.164.964a75.045 75.045 0 0 0-14.192 6.576" transform="translate(15.526 12.787)"/>
                <path id="Path_87305" data-name="Path 87305" class="cls-4" d="M354.831 337.772c-3.634-7.335-3.4-15.9-.259-23.456 2.21 3.367 2.48 7.656 2.076 11.662s-1.624 8.131-1.7 12.158" transform="translate(14.24 12.71)"/>
                <path id="Path_87306" data-name="Path 87306" class="cls-4" d="M341.719 329.822a32.712 32.712 0 0 0-24.31 10.355 22.708 22.708 0 0 0 13.311-2.468 67.689 67.689 0 0 0 11.407-7.635" transform="translate(12.835 13.337)"/>
                <path id="Path_87307" data-name="Path 87307" class="cls-4" d="M332.282 326.7c-4.439-.36-8.71-.909-12.977.4a15.565 15.565 0 0 0-9.891 8.387 23.45 23.45 0 0 0 12.167-2.3 69.945 69.945 0 0 0 10.7-6.487" transform="translate(12.512 13.194)"/>
                <path id="Path_87308" data-name="Path 87308" class="cls-4" d="M346.294 327.094c-3.993-2.617-8.094-5.28-12.742-6.364s-10.037-.283-13.279 3.221c3.763 2.209 8.33 2.47 12.693 2.466s9.712-.052 13.826 1.4" transform="translate(12.951 12.951)"/>
                <path id="Path_87309" data-name="Path 87309" class="cls-4" d="M345.607 328.116c-6.826-6.7-9.414-18.745-6.668-27.91a42.525 42.525 0 0 1 6.668 27.91" transform="translate(13.662 12.14)"/>
                <path id="Path_87310" data-name="Path 87310" class="cls-4" d="M363.347 309.633c1.287-2.993 2.193-6.134 3.348-9.181a26.393 26.393 0 0 1 4.772-8.464 12.571 12.571 0 0 1 8.455-4.381 34.049 34.049 0 0 1-16.408 22.074" transform="translate(14.693 11.63)"/>
                <path id="Path_87311" data-name="Path 87311" class="cls-4" d="M360.768 313.048c-2.131-2.932-4.591-6.913-7.481-9.1s-6.652-3.515-10.178-2.673a23.7 23.7 0 0 0 17.658 11.774" transform="translate(13.874 12.172)"/>
                <path id="Path_87312" data-name="Path 87312" class="cls-4" d="M360.875 309.866a50.658 50.658 0 0 1-3.368-10.906 17.013 17.013 0 0 1 1.707-11.089c3.748 7.083 4.955 14.687 1.852 22.075" transform="translate(14.447 11.641)"/>
                <path id="Path_87313" data-name="Path 87313" class="cls-4" d="M363.38 288.454c2.122-7.022 8.552-12.192 15.494-14.564a5.772 5.772 0 0 1 2.717-.408 2.358 2.358 0 0 1 2 1.671c.253 1.194-.734 2.265-1.662 3.059a52.741 52.741 0 0 1-18.551 10.242" transform="translate(14.694 11.057)"/>
                <path id="Path_87314" data-name="Path 87314" class="cls-4" d="M363.458 283.269c.269-4.528.552-9.12 2.025-13.41s4.311-8.314 8.44-10.191c.7 4.573-1.315 9.122-3.749 13.056s-5.366 7.649-6.827 12.038" transform="translate(14.693 10.5)"/>
                <path id="Path_87315" data-name="Path 87315" class="cls-4" d="M363.859 286.3c-1.754-5.118-1.935-11.617-5-16.076-2.142-3.116-5.572-5.24-7.417-8.54a12.991 12.991 0 0 0 .431 9.695 28.07 28.07 0 0 0 5.669 8.115c2.268 2.422 4.21 4.244 6.318 6.805" transform="translate(14.181 10.582)"/>
                <path id="Path_87316" data-name="Path 87316" class="cls-4" d="M363.39 436.122c-.136 0-.255-34.138-.264-76.24s.094-76.248.23-76.248.255 34.132.264 76.248c.009 42.1-.094 76.24-.23 76.24" transform="translate(14.684 11.469)"/>
                <path id="Path_87317" data-name="Path 87317" class="cls-4" d="M393.214 331.909a7.336 7.336 0 0 1-1.284.482l-3.532 1.192a207.913 207.913 0 0 0-11.51 4.3c-4.4 1.886-8.544 3.418-10.9 5.463a8.008 8.008 0 0 0-2.191 2.9c-.339.8-.4 1.291-.444 1.283a.993.993 0 0 1 .015-.358 5.325 5.325 0 0 1 .251-.995 7.687 7.687 0 0 1 2.138-3.09 19.166 19.166 0 0 1 4.732-2.939 147.39 147.39 0 0 1 6.218-2.721 142.327 142.327 0 0 1 11.589-4.178 96.176 96.176 0 0 1 3.585-1.045 7.351 7.351 0 0 1 1.339-.3" transform="translate(14.692 13.421)"/>
                <path id="Path_87318" data-name="Path 87318" class="cls-4" d="M402.9 308.823a2.087 2.087 0 0 1-.36.384l-1.1 1.029-4.089 3.715-13.606 12.119c-5.312 4.73-9.9 9.248-13.087 12.652a143.646 143.646 0 0 0-3.7 4.089l-.989 1.13a.264.264 0 1 1-.077-.062c.206-.275.507-.684.919-1.19a90.1 90.1 0 0 1 3.595-4.2 172.293 172.293 0 0 1 13.012-12.789 1795.806 1795.806 0 0 1 13.709-12.014l4.193-3.6 1.157-.96a2.175 2.175 0 0 1 .426-.309" transform="translate(14.784 12.488)"/>
                <path id="Path_87319" data-name="Path 87319" class="cls-4" d="M377.527 330.481c-.139-.062.971-2.625 2.077-5.866s1.642-5.976 1.783-5.952a20.059 20.059 0 0 1-1.316 6.111 39.726 39.726 0 0 1-1.652 4.1 6.375 6.375 0 0 1-.892 1.605" transform="translate(15.266 12.886)"/>
                <path id="Path_87320" data-name="Path 87320" class="cls-4" d="M364.179 350.851a6.187 6.187 0 0 1-.819-.951l-2.1-2.69c-1.761-2.276-4.2-5.421-6.927-8.861s-5.242-6.527-7.059-8.759l-2.143-2.653a6.137 6.137 0 0 1-.74-1.012 5.992 5.992 0 0 1 .885.887c.547.593 1.321 1.465 2.265 2.554 1.888 2.177 4.443 5.231 7.178 8.677s5.128 6.626 6.82 8.958c.847 1.166 1.52 2.118 1.974 2.785a6.143 6.143 0 0 1 .664 1.064" transform="translate(13.926 13.179)"/>
                <path id="Path_87321" data-name="Path 87321" class="cls-4" d="M357.255 342.212a12.029 12.029 0 0 1-2.74-5.13 14.653 14.653 0 0 1-.621-5.172l.217.018c-.1.4-.169.6-.207.6s-.042-.227-.009-.633l.218.018a23.485 23.485 0 0 0 .875 5.032 38.2 38.2 0 0 0 2.267 5.271" transform="translate(14.309 13.421)"/>
                <path id="Path_87322" data-name="Path 87322" class="cls-4" d="M349.58 331.682a8.824 8.824 0 0 0-1.913-1.111 12.774 12.774 0 0 0-5.311-.422 32.9 32.9 0 0 0-5.35.862 16.087 16.087 0 0 1-2.2.529 7.653 7.653 0 0 1 2.107-.864 24.45 24.45 0 0 1 5.406-1.02 11.6 11.6 0 0 1 5.48.591 3.388 3.388 0 0 1 1.782 1.435" transform="translate(13.539 13.328)"/>
                <path id="Path_87323" data-name="Path 87323" class="cls-4" d="M347.889 329.248c-.037.077-1.114-.446-2.931-1.068a29.493 29.493 0 0 0-14.772-1.126c-1.889.338-3.033.692-3.059.611a2.745 2.745 0 0 1 .777-.332 18.309 18.309 0 0 1 2.213-.621 26.058 26.058 0 0 1 14.959 1.14 18.3 18.3 0 0 1 2.094.95 2.781 2.781 0 0 1 .718.445" transform="translate(13.228 13.187)"/>
                <path id="Path_87324" data-name="Path 87324" class="cls-4" d="M363.5 319.245a60.655 60.655 0 0 1-2.138-7.426 60.631 60.631 0 0 1-1.659-7.547 60.636 60.636 0 0 1 2.138 7.427 60.576 60.576 0 0 1 1.659 7.546" transform="translate(14.545 12.304)"/>
                <path id="Path_87325" data-name="Path 87325" class="cls-4" d="M363.706 318.976a35.856 35.856 0 0 0-2.369-4.446 19.586 19.586 0 0 0-3.488-3.6 3.244 3.244 0 0 1 1.346.694 10.865 10.865 0 0 1 2.545 2.622 9.852 9.852 0 0 1 1.965 4.729" transform="translate(14.47 12.573)"/>
                <path id="Path_87326" data-name="Path 87326" class="cls-4" d="M364.6 414.641c-.053.008-.154-.821-.538-2.27a32.368 32.368 0 0 0-2.282-5.911c-2.359-4.819-6.65-10.931-12.1-17.052-2.7-3.088-5.325-6-7.549-8.789a61.838 61.838 0 0 1-5.4-7.787 37.391 37.391 0 0 1-2.731-5.777 23.394 23.394 0 0 1-.535-1.652 2.738 2.738 0 0 1-.14-.59c.044-.014.292.781.854 2.173a42.245 42.245 0 0 0 2.848 5.67 65.372 65.372 0 0 0 5.451 7.677c2.234 2.759 4.86 5.656 7.567 8.749 5.467 6.136 9.749 12.326 12.046 17.224a29.486 29.486 0 0 1 2.154 6.016 16.6 16.6 0 0 1 .3 1.713 2.832 2.832 0 0 1 .05.6" transform="translate(13.479 14.752)"/>
                <path id="Path_87327" data-name="Path 87327" class="cls-4" d="M390.338 383.438a12.268 12.268 0 0 1-1.413.793 30.935 30.935 0 0 0-3.664 2.423 42.016 42.016 0 0 0-4.813 4.39c-1.689 1.784-3.429 3.857-5.205 6.077-3.551 4.455-6.871 8.4-8.86 11.544a47.211 47.211 0 0 0-2.224 3.8 12.366 12.366 0 0 1-.777 1.422 1.324 1.324 0 0 1 .131-.4c.105-.255.248-.636.474-1.107a35.769 35.769 0 0 1 2.1-3.9c1.931-3.222 5.226-7.219 8.77-11.666 1.78-2.224 3.541-4.3 5.263-6.083a39.132 39.132 0 0 1 4.932-4.354 25.685 25.685 0 0 1 3.784-2.313c.468-.235.851-.38 1.1-.488a1.358 1.358 0 0 1 .4-.135" transform="translate(14.694 15.505)"/>
                <path id="Path_87328" data-name="Path 87328" class="cls-4" d="M390.521 392.933a20.643 20.643 0 0 1-2.986.434 39.416 39.416 0 0 0-7.082 1.4 21.285 21.285 0 0 0-6.341 3.327c-1.462 1.13-2.152 2.064-2.219 2.009a2.287 2.287 0 0 1 .442-.687 11.3 11.3 0 0 1 1.556-1.593 19.2 19.2 0 0 1 6.41-3.527 32 32 0 0 1 7.2-1.272 16.492 16.492 0 0 1 3.021-.086" transform="translate(15.038 15.888)"/>
                <path id="Path_87329" data-name="Path 87329" class="cls-4" d="M372.73 399.17c-.156-.088 1.19-2.144 2.234-4.909.98-2.79 1.209-5.237 1.385-5.208a4.727 4.727 0 0 1-.05 1.6 17.171 17.171 0 0 1-.871 3.775 18.253 18.253 0 0 1-1.732 3.462 4.8 4.8 0 0 1-.966 1.279" transform="translate(15.072 15.732)"/>
                <path id="Path_87330" data-name="Path 87330" class="cls-4" d="M399.069 357.949a2.276 2.276 0 0 1-.478.254l-1.4.638c-.615.263-1.361.6-2.2 1.042s-1.828.883-2.854 1.5l-1.629.926c-.564.325-1.124.711-1.718 1.083-1.2.728-2.4 1.625-3.688 2.542a63.285 63.285 0 0 0-14.205 14.7c-.871 1.315-1.727 2.548-2.414 3.774-.352.608-.718 1.179-1.024 1.754l-.87 1.66c-.581 1.046-.995 2.044-1.4 2.9s-.722 1.612-.964 2.236l-.59 1.423a2.268 2.268 0 0 1-.237.487 2.145 2.145 0 0 1 .144-.52l.5-1.46c.215-.636.5-1.407.891-2.276s.779-1.887 1.342-2.95l.847-1.684c.3-.584.66-1.164 1.006-1.78.676-1.242 1.524-2.493 2.393-3.825a60.906 60.906 0 0 1 14.308-14.805c1.3-.914 2.521-1.8 3.74-2.522.6-.367 1.17-.748 1.744-1.065l1.655-.9c1.041-.6 2.042-1.029 2.9-1.442s1.617-.732 2.245-.97l1.442-.553a2.264 2.264 0 0 1 .515-.161" transform="translate(14.694 14.474)"/>
                <path id="Path_87331" data-name="Path 87331" class="cls-4" d="M377.175 371.828a3.425 3.425 0 0 1 1.174-1.747 7.4 7.4 0 0 1 4.727-1.814 12.907 12.907 0 0 1 4.974.972 7.074 7.074 0 0 1 1.88.914 11.551 11.551 0 0 1-2-.585 15 15 0 0 0-4.843-.807 7.692 7.692 0 0 0-4.515 1.585 13.886 13.886 0 0 0-1.4 1.483" transform="translate(15.252 14.892)"/>
                <path id="Path_87332" data-name="Path 87332" class="cls-4" d="M374.11 375.2a12.617 12.617 0 0 0 1.041-8.925 2.887 2.887 0 0 1 .555 1.271 9.029 9.029 0 0 1-.764 6.543c-.417.754-.784 1.144-.832 1.11" transform="translate(15.128 14.811)"/>
                <path id="Path_87333" data-name="Path 87333" class="cls-4" d="M340.718 417.4c.736 13.046 4.667 26.315 10.714 39.729h26.3c5.766-13.281 9.426-26.529 10.077-39.729z" transform="translate(13.778 16.879)"/>
                <path id="Path_87334" data-name="Path 87334" class="cls-8" d="M383.382 437.706c0 .136-8.659.247-19.335.247s-19.338-.11-19.338-.247 8.655-.247 19.338-.247 19.335.11 19.335.247" transform="translate(13.939 17.69)"/>
                <path id="Path_87335" data-name="Path 87335" class="cls-8" d="M382.724 442.248c0 .136-8.116.247-18.126.247s-18.129-.11-18.129-.247S354.584 442 364.6 442s18.126.11 18.126.247" transform="translate(14.01 17.873)"/>
                <path id="Path_87336" data-name="Path 87336" class="cls-8" d="M351.434 425.638a74.513 74.513 0 0 1 0 12.114 74.513 74.513 0 0 1 0-12.114" transform="translate(14.201 17.212)"/>
                <path id="Path_87337" data-name="Path 87337" class="cls-8" d="M364.975 425.638a79.91 79.91 0 0 1 0 12.546 79.91 79.91 0 0 1 0-12.546" transform="translate(14.749 17.212)"/>
                <path id="Path_87338" data-name="Path 87338" class="cls-8" d="M377.688 425.536a83.118 83.118 0 0 1 0 12.8 83.118 83.118 0 0 1 0-12.8" transform="translate(15.263 17.208)"/>
                <path id="Path_87339" data-name="Path 87339" class="cls-8" d="M386.936 425.648c0 .136-10.155.247-22.678.247s-22.681-.11-22.681-.247 10.153-.247 22.681-.247 22.678.11 22.678.247" transform="translate(13.812 17.202)"/>
            </g>
        </g>
        <g id="Group_83943" data-name="Group 83943">
            <g id="Group_83942" data-name="Group 83942" class="cls-3">
                <path id="Path_87340" data-name="Path 87340" class="cls-9" d="M179.157 121.7a75.792 75.792 0 0 1 16.582-11.486l.175-18.706 30.244-6.553 7.9 16.953a75.8 75.8 0 0 1 19.853 3.592l13.344-13.1 26.02 16.753-6.4 17.566a75.818 75.818 0 0 1 11.487 16.588l18.7.175 6.554 30.244-16.953 7.9a75.848 75.848 0 0 1-3.592 19.851l13.1 13.346-16.751 26.02-17.567-6.4a75.78 75.78 0 0 1-16.587 11.486l-.176 18.7-30.236 6.571-7.9-16.955a75.846 75.846 0 0 1-19.852-3.592l-13.344 13.1-26.02-16.752 6.4-17.567a75.794 75.794 0 0 1-11.488-16.586l-18.7-.175-6.553-30.244 16.954-7.9a75.889 75.889 0 0 1 3.592-19.851l-13.1-13.345 16.75-26.02zm16.892 34.191a40.982 40.982 0 1 0 56.641-12.275 40.98 40.98 0 0 0-56.641 12.275" transform="translate(5.556 3.435)"/>
                <path id="Path_87341" data-name="Path 87341" class="cls-10" d="M194.028 153.872s.114-.192.363-.556.635-.908 1.116-1.6l.829-1.178c.325-.418.721-.842 1.129-1.319l1.333-1.528a21.842 21.842 0 0 1 1.651-1.614 38.824 38.824 0 0 1 9.709-6.8 40.861 40.861 0 0 1 15.1-4.222l2.214-.16c.748-.009 1.506.028 2.271.041.764.04 1.543-.008 2.318.1l2.353.287 1.194.152 1.187.264 2.409.537c.8.206 1.589.508 2.4.761a20.822 20.822 0 0 1 2.4.869 38.155 38.155 0 0 1 4.713 2.3c.765.453 1.567.863 2.318 1.362l2.22 1.589c.369.274.76.52 1.111.819l1.044.919c.691.623 1.419 1.217 2.092 1.876a43.349 43.349 0 0 1 3.757 4.326 42.7 42.7 0 0 1 3.25 4.893c.478.868.883 1.781 1.334 2.678.208.455.462.893.637 1.366l.53 1.42a46.364 46.364 0 0 1 1.789 5.874 46.953 46.953 0 0 1 .817 6.206l.11 1.58-.034 1.591-.041 1.6a10.44 10.44 0 0 1-.115 1.6l-.4 3.2-.711 3.175a40.841 40.841 0 0 1-14.091 21.892l-2.6 1.962-2.754 1.688-.688.415-.721.351-1.437.7-1.435.691-1.485.553a37.752 37.752 0 0 1-12.077 2.631l-1.513.105c-.5.037-1.007-.012-1.508-.015-1-.037-2-.029-2.99-.105a42.744 42.744 0 0 1-5.8-.933 43.361 43.361 0 0 1-5.492-1.63c-.88-.34-1.722-.756-2.575-1.127l-1.268-.57c-.417-.2-.8-.451-1.206-.672q-1.191-.688-2.366-1.364c-.765-.479-1.47-1.037-2.2-1.546a38.339 38.339 0 0 1-4.046-3.339 21.155 21.155 0 0 1-1.786-1.83c-.563-.629-1.164-1.218-1.683-1.865l-1.486-1.97-.732-.971-.632-1.025-1.236-2.025c-.421-.66-.7-1.388-1.053-2.067-.328-.692-.676-1.365-.977-2.051l-.771-2.081a40.86 40.86 0 0 1-2.4-15.49 38.912 38.912 0 0 1 2.171-11.653 21.955 21.955 0 0 1 .787-2.169l.839-1.847c.266-.568.489-1.1.735-1.573l.728-1.242 1-1.678c.227-.377.356-.562.356-.562s-.1.2-.309.591l-.947 1.7q-.317.56-.7 1.25c-.238.471-.452 1.01-.709 1.579l-.813 1.849a22.119 22.119 0 0 0-.76 2.167 39.121 39.121 0 0 0-2.068 11.6 40.714 40.714 0 0 0 2.462 15.349l.772 2.059c.3.677.648 1.343.976 2.027.351.671.629 1.392 1.05 2.043s.816 1.327 1.231 2l.628 1.011.728.958 1.469 1.949c.516.638 1.112 1.218 1.672 1.839a20.567 20.567 0 0 0 1.773 1.805 37.728 37.728 0 0 0 4.009 3.291c.723.5 1.421 1.052 2.179 1.523l2.343 1.343c.4.217.779.467 1.192.663l1.255.56c.844.364 1.677.774 2.546 1.109a43.107 43.107 0 0 0 5.43 1.6 42.291 42.291 0 0 0 5.732.912c.975.074 1.963.063 2.953.1.494 0 .992.051 1.49.012l1.493-.106a37.235 37.235 0 0 0 11.921-2.61l1.466-.546 1.415-.684 1.418-.691.712-.346.679-.411 2.716-1.667 2.563-1.94a40.355 40.355 0 0 0 13.9-21.606q.353-1.572.7-3.133.2-1.589.392-3.163a10.287 10.287 0 0 0 .114-1.578l.041-1.577.035-1.57-.107-1.56a46.293 46.293 0 0 0-.8-6.128 45.817 45.817 0 0 0-1.758-5.8l-.521-1.4c-.171-.468-.421-.9-.628-1.35-.442-.885-.842-1.789-1.312-2.646a42.443 42.443 0 0 0-3.2-4.839 43.047 43.047 0 0 0-3.7-4.28c-.664-.652-1.381-1.24-2.062-1.858l-1.03-.91c-.348-.3-.732-.54-1.1-.812l-2.19-1.576c-.744-.5-1.534-.9-2.29-1.353a37.85 37.85 0 0 0-4.655-2.288 20.523 20.523 0 0 0-2.376-.866c-.8-.253-1.572-.555-2.367-.761l-2.382-.539-1.174-.266c-.394-.051-.79-.1-1.181-.154l-2.33-.292c-.768-.113-1.539-.068-2.3-.109-.757-.016-1.508-.056-2.248-.05l-2.193.15a40.715 40.715 0 0 0-14.993 4.112 39.069 39.069 0 0 0-9.7 6.683 22.079 22.079 0 0 0-1.66 1.588l-1.346 1.505c-.412.47-.813.888-1.144 1.3l-.847 1.158-1.159 1.568a12 12 0 0 1-.409.524" transform="translate(7.577 5.455)"/>
                <path id="Path_87342" data-name="Path 87342" class="cls-10" d="M179.166 121.707s-.378-.124-1.127-.389l-3.35-1.2-13.123-4.73.1-.034-16.707 26.047-.018-.171 13.112 13.33.068.069-.029.092a76.034 76.034 0 0 0-3.566 19.81l-.005.107-.1.046-16.943 7.916.107-.215 6.572 30.239-.206-.169 18.7.165h.135l.061.121a75.927 75.927 0 0 0 11.461 16.53l.1.1-.048.133-6.39 17.569-.1-.285 26.03 16.753-.313.032 13.34-13.1.111-.109.149.049a75.986 75.986 0 0 0 19.784 3.575l.158.006.068.145 7.903 16.951-.3-.148 30.242-6.557-.212.261.174-18.705v-.164l.146-.074a75.807 75.807 0 0 0 16.513-11.433l.014-.014.124-.109.152.055 17.568 6.4-.32.108 16.752-26.019.034.333-13.087-13.349-.112-.115.049-.153a75.619 75.619 0 0 0 3.583-19.78l.006-.159.145-.068 16.954-7.9-.143.288-6.545-30.246.241.2-18.7-.182h-.147l-.068-.131a75.665 75.665 0 0 0-11.444-16.54l-.1-.105.049-.133c2.2-6.023 4.325-11.861 6.4-17.563l.089.266-26.01-16.769.257-.026-13.344 13.086-.084.083-.111-.036a75.8 75.8 0 0 0-19.8-3.6l-.107-.005-.046-.1-7.887-16.96.179.089-30.253 6.514.1-.118-.209 18.7v.053l-.047.024A76.48 76.48 0 0 0 183 118.5c-1.317 1.037-2.26 1.859-2.893 2.4s-.941.813-.941.813 1.165-1.164 3.778-3.28a75.021 75.021 0 0 1 12.765-8.284l-.047.076.14-18.7v-.1l.095-.021 30.236-6.59.125-.027.054.115 7.919 16.946-.153-.1a76.1 76.1 0 0 1 19.9 3.584l-.2.047c4.244-4.171 8.645-8.5 13.335-13.107l.119-.115.139.089 26.03 16.739.151.1-.061.17-6.388 17.569-.047-.238a76.15 76.15 0 0 1 11.53 16.636l-.214-.132 18.7.168h.2l.043.195 6.562 30.242.044.2-.187.086-16.951 7.907.151-.225a76.1 76.1 0 0 1-3.6 19.919l-.063-.267 13.1 13.344.15.153-.115.181q-8.261 12.832-16.748 26.02l-.118.182-.2-.074-17.568-6.4.275-.054-.015.014a76.268 76.268 0 0 1-16.63 11.513l.147-.237-.177 18.705v.214l-.21.046-30.243 6.55-.208.045-.089-.192-7.9-16.955.225.151a76.473 76.473 0 0 1-19.917-3.621l.259-.061-13.348 13.093-.145.141-.169-.109-26.014-16.764-.162-.1.067-.182 6.4-17.563.047.237a76.3 76.3 0 0 1-11.515-16.642l.2.122-18.7-.185h-.171l-.036-.166c-2.292-10.617-4.476-20.724-6.533-30.248l-.032-.151.139-.066 16.96-7.891-.1.153a76.253 76.253 0 0 1 3.619-19.891l.037.16-13.08-13.36-.077-.078.059-.093 16.794-25.992.037-.058.064.024 13.059 4.8 3.348 1.241c.751.281 1.134.434 1.134.434" transform="translate(5.547 3.428)"/>
                <path id="Path_87343" data-name="Path 87343" class="cls-9" d="m313.348 271.6-60.243 38.5H450.6v-38.5z" transform="translate(10.235 10.983)"/>
                <path id="Path_87344" data-name="Path 87344" class="cls-9" d="M418.069 248.749v86.043l56.077-43.022z" transform="translate(16.906 10.059)"/>
                <path id="Path_87345" data-name="Path 87345" class="cls-10" d="M347.6 288.446h1.624v5.7h3.523v1.324H347.6z" transform="translate(14.056 11.664)"/>
                <path id="Path_87346" data-name="Path 87346" class="cls-10" d="M358.137 293.964h-3.262l-.621 1.5h-1.667l3.132-7.023h1.605l3.139 7.023h-1.7zm-.512-1.235-1.113-2.688-1.114 2.688z" transform="translate(14.258 11.664)"/>
                <path id="Path_87347" data-name="Path 87347" class="cls-10" d="M360.656 292.378v-3.932h1.625v3.871c0 1.336.584 1.887 1.567 1.887s1.565-.551 1.565-1.887v-3.871h1.605v3.932a3.181 3.181 0 1 1-6.362 0" transform="translate(14.584 11.664)"/>
                <path id="Path_87348" data-name="Path 87348" class="cls-10" d="M374.752 288.446v7.023h-1.333l-3.5-4.265v4.265h-1.605v-7.023h1.343l3.491 4.264v-4.264z" transform="translate(14.894 11.664)"/>
                <path id="Path_87349" data-name="Path 87349" class="cls-10" d="M375.675 291.962a3.868 3.868 0 0 1 6.7-2.388l-1.045.963a2.253 2.253 0 0 0-1.766-.823 2.247 2.247 0 1 0 0 4.495 2.235 2.235 0 0 0 1.766-.833l1.045.963a3.862 3.862 0 0 1-6.7-2.377" transform="translate(15.191 11.659)"/>
                <path id="Path_87350" data-name="Path 87350" class="cls-10" d="M389.607 288.446v7.023h-1.624v-2.88h-3.192v2.88h-1.623v-7.023h1.623v2.769h3.192v-2.769z" transform="translate(15.494 11.664)"/>
                <path id="Path_87351" data-name="Path 87351" class="cls-11" d="M77.333 181.008c6.186 78.371 71.94 140.251 151.874 140.251v-38.5A113.982 113.982 0 0 1 115.354 168.91s1.716-19.865 2.912-25.849l-37.9-7.126c-1.381 6.8-3.579 38.158-3.034 45.073" transform="translate(3.124 5.497)"/>
                <path id="Path_87352" data-name="Path 87352" class="cls-12" d="m124.548 242.883-.657 2.285.051.061.895 1.095 1.514-1.237 1.028 1.257-5.431 4.445-1.925-2.351c-1.186-1.451-1.177-2.976.042-3.972a2.283 2.283 0 0 1 2.629-.286l.748-2.646zm-3.443 4.785.838 1.024 1.894-1.549-.837-1.023c-.629-.769-1.3-.865-1.893-.382s-.629 1.162 0 1.93" transform="translate(4.818 9.767)"/>
                <path id="Path_87353" data-name="Path 87353" class="cls-12" d="m118.722 237.268 1.049-.774 3.229 4.371-5.644 4.17-3.15-4.268 1.049-.774 2.192 2.969 1.226-.906-1.935-2.622 1.017-.75 1.935 2.621 1.307-.964z" transform="translate(4.618 9.563)"/>
                <path id="Path_87354" data-name="Path 87354" class="cls-12" d="m109.724 234.033 7.521-1.383.894 1.332-4.145 6.423-.978-1.458 2.975-4.565-5.369.992z" transform="translate(4.437 9.408)"/>
                <path id="Rectangle_23129" data-name="Rectangle 23129" class="cls-12" transform="rotate(-31.982 477.663 -76.327)" d="M0 0h7.027v1.626H0z"/>
                <path id="Path_87355" data-name="Path 87355" class="cls-12" d="m109.929 223.267 1.128-.654 2.729 4.7-6.073 3.524-2.664-4.589 1.129-.654 1.852 3.193 1.317-.766-1.636-2.82 1.095-.635 1.636 2.821 1.406-.816z" transform="translate(4.248 9.002)"/>
                <path id="Path_87356" data-name="Path 87356" class="cls-12" d="m99.628 215.741 7.294-1.143.791 1.554-3.529 3.533 4.956-.739.787 1.544-5.2 5.242-.765-1.5 3.674-3.652-5.145.767-.683-1.339 3.7-3.687-5.171.8z" transform="translate(4.029 8.678)"/>
                <path id="Path_87357" data-name="Path 87357" class="cls-13" d="M142.336 134.426 66.66 113.671l24.486 59.065z" transform="translate(2.696 4.597)"/>
                <path id="Path_87358" data-name="Path 87358" class="cls-13" d="M122.272 136.616A114.047 114.047 0 0 1 229.194 61.9V23.4c-65.868 0-122.107 42.017-143.321 100.656z" transform="translate(3.472 .946)"/>
                <path id="Path_87359" data-name="Path 87359" class="cls-12" d="m125.954 81.881 2.635-1.8c1.9-1.294 3.98-1.04 5.179.718s.677 3.789-1.219 5.084l-2.635 1.8zm5.777 2.945a2.18 2.18 0 1 0-2.454-3.6l-1.228.837 2.455 3.6z" transform="translate(5.093 3.205)"/>
                <path id="Path_87360" data-name="Path 87360" class="cls-12" d="m140.247 79.064.736 1.078-4.491 3.065-3.96-5.8 4.383-2.992.736 1.077-3.051 2.081.859 1.259 2.693-1.837.714 1.044-2.693 1.838.917 1.342z" transform="translate(5.359 3.009)"/>
                <path id="Path_87361" data-name="Path 87361" class="cls-12" d="M144.341 72.408c.882 1.292.462 2.759-1.088 3.816l-1.168.8 1.09 1.6-1.341.916-3.959-5.8 2.511-1.714c1.549-1.057 3.066-.917 3.956.385m-1.36.928c-.436-.639-1.1-.728-1.925-.169l-1.093.747 1.374 2.014 1.095-.747c.82-.56.979-1.216.549-1.846" transform="translate(5.575 2.884)"/>
                <path id="Path_87362" data-name="Path 87362" class="cls-12" d="m143.622 69.755 1.342-.916 3.213 4.706 2.908-1.985.747 1.095-4.25 2.9z" transform="translate(5.808 2.784)"/>
                <path id="Path_87363" data-name="Path 87363" class="cls-12" d="M149.914 69.76a3.849 3.849 0 1 1 5.221.833 3.633 3.633 0 0 1-5.221-.833m4.989-3.405a2.2 2.2 0 1 0-.548 3.1 2.143 2.143 0 0 0 .548-3.1" transform="translate(6.036 2.582)"/>
                <path id="Path_87364" data-name="Path 87364" class="cls-12" d="m160.19 64.057 1.4 2.055-1.342.917-1.415-2.072-4.79-2.2 1.424-.973 3.311 1.52-.212-3.635 1.319-.9z" transform="translate(6.229 2.377)"/>
                <path id="Path_87365" data-name="Path 87365" class="cls-9" d="m246.415 91.073-50.13-54.838L260.253 0z" transform="translate(7.937)"/>
                <path id="Path_87366" data-name="Path 87366" class="cls-9" d="M314.281 98.651A113.907 113.907 0 0 0 228.53 59.7V21.2a152.4 152.4 0 0 1 114.732 52.113z" transform="translate(9.241 .857)"/>
                <path id="Path_87367" data-name="Path 87367" class="cls-10" d="m269.382 46-2.1-.8.474-1.236 5.715 2.189-.471 1.233-2.1-.8-2.04 5.314-1.516-.583z" transform="translate(10.808 1.778)"/>
                <path id="Path_87368" data-name="Path 87368" class="cls-10" d="m277.143 53.65-.465 1.218-5.078-1.945 2.512-6.559 4.957 1.9-.469 1.216-3.447-1.32-.546 1.424 3.046 1.166-.452 1.181-3.046-1.167-.583 1.518z" transform="translate(10.983 1.875)"/>
                <path id="Path_87369" data-name="Path 87369" class="cls-10" d="m277.382 54.374.953-.946a4.126 4.126 0 0 0 1.9 1.513c.9.344 1.379.186 1.534-.217.47-1.228-3.665-1.846-2.732-4.281.427-1.116 1.682-1.7 3.546-.983a4.685 4.685 0 0 1 2.055 1.453l-.909.973a3.957 3.957 0 0 0-1.621-1.213c-.9-.343-1.375-.139-1.535.273-.463 1.21 3.671 1.837 2.748 4.244-.419 1.1-1.687 1.684-3.561.967a5 5 0 0 1-2.378-1.781" transform="translate(11.217 1.987)"/>
                <path id="Path_87370" data-name="Path 87370" class="cls-10" d="m286.64 52.612-2.1-.8.474-1.236 5.714 2.189-.473 1.235-2.1-.8-2.039 5.322-1.516-.582z" transform="translate(11.506 2.045)"/>
                <path id="Path_87371" data-name="Path 87371" class="cls-11" d="m359.984 241.145-34.857-16.338c7.1-15.147 13.612-36.974 13.612-53.851a112.618 112.618 0 0 0-12.211-51.36c-1.407-2.775-6.5-12.013-7.9-14.325l32.932-19.934c2.026 3.344 7.6 13.481 9.309 16.862a150.784 150.784 0 0 1 16.365 68.756c0 22.567-7.737 49.892-17.251 70.189" transform="translate(12.885 3.451)"/>
                <path id="Path_87372" data-name="Path 87372" class="cls-11" d="m305.6 123.846 65.555-43.13-60.525-20.61z" transform="translate(12.358 2.431)"/>
                <path id="Path_87373" data-name="Path 87373" class="cls-12" d="M353.138 128.227 354 131.3c.625 2.211-.281 4.1-2.326 4.68s-3.806-.563-4.431-2.773l-.866-3.071zm-4.63 4.535a2.18 2.18 0 1 0 4.19-1.181l-.4-1.43-4.191 1.182z" transform="translate(14.007 5.185)"/>
                <path id="Path_87374" data-name="Path 87374" class="cls-12" d="m350.92 142.715-1.271.287-1.2-5.3 6.844-1.547 1.169 5.173-1.271.286-.813-3.6-1.487.337.718 3.176-1.232.28-.717-3.179-1.585.358z" transform="translate(14.09 5.506)"/>
                <path id="Path_87375" data-name="Path 87375" class="cls-12" d="m357.9 149.29-7.443-1.758-.282-1.579 6.377-4.214.31 1.727-4.562 2.984 5.317 1.252z" transform="translate(14.16 5.732)"/>
                <path id="Path_87376" data-name="Path 87376" class="cls-12" d="m353.03 155.919-1.292.175-.728-5.384 6.953-.942.712 5.256-1.29.174-.5-3.655-1.51.2.438 3.23-1.252.171-.439-3.231-1.607.219z" transform="translate(14.194 6.056)"/>
                <path id="Path_87377" data-name="Path 87377" class="cls-12" d="m358.815 156.386.153 1.618-5.669.536.331 3.5-1.317.127-.485-5.121z" transform="translate(14.227 6.324)"/>
                <path id="Path_87378" data-name="Path 87378" class="cls-12" d="M355.836 162.029a3.847 3.847 0 1 1-3.429 4.021 3.632 3.632 0 0 1 3.429-4.021m.31 6.028a2.2 2.2 0 1 0-2.358-2.078 2.142 2.142 0 0 0 2.358 2.078" transform="translate(14.25 6.552)"/>
                <path id="Path_87379" data-name="Path 87379" class="cls-12" d="M357.216 176.748c-1.565.006-2.54-1.163-2.548-3.039l-.006-1.413-1.934.008-.006-1.625 7.02-.027.01 3.037c.006 1.875-.961 3.053-2.536 3.059m-.006-1.645c.772 0 1.221-.506 1.218-1.5l-.006-1.324-2.437.008.005 1.323c0 .994.458 1.493 1.219 1.49" transform="translate(14.263 6.901)"/>
                <path id="Path_87380" data-name="Path 87380" class="cls-14" d="M233.3 317.292H110.457V278.8H233.3a113.117 113.117 0 0 0 90.51-44.772l30.582 23.383A151.332 151.332 0 0 1 233.3 317.292" transform="translate(4.467 9.463)"/>
                <path id="Path_87381" data-name="Path 87381" class="cls-14" d="m296.817 225.561 65.321 43.485-4.684-63.767z" transform="translate(12.003 8.301)"/>
                <path id="Path_87383" data-name="Path 87383" class="cls-10" d="M296.182 274.439c.943 1.25.589 2.734-.908 3.863l-1.132.851 1.166 1.546-1.3.978-4.225-5.611 2.428-1.829c1.5-1.128 3.021-1.056 3.969.2m-1.315.99c-.465-.618-1.138-.675-1.93-.079l-1.059.8 1.467 1.947 1.059-.8c.792-.6.922-1.26.463-1.869" transform="translate(11.718 11.057)"/>
                <path id="Path_87384" data-name="Path 87384" class="cls-10" d="m295.343 271.816 1.3-.977 3.428 4.55 2.812-2.117.8 1.059-4.112 3.1z" transform="translate(11.943 10.952)"/>
                <path id="Path_87385" data-name="Path 87385" class="cls-10" d="m306.986 269.954-2.6 1.962.406 1.577-1.329 1-1.727-7.493 1.282-.964 6.735 3.721-1.364 1.026zm-1.15-.676-2.507-1.479.727 2.819z" transform="translate(12.201 10.758)"/>
                <path id="Path_87386" data-name="Path 87386" class="cls-10" d="m311.086 260.074 4.225 5.611-1.068.8-5.36-1.3 2.565 3.406-1.283.965-4.224-5.609 1.073-.809 5.354 1.3-2.564-3.405z" transform="translate(12.371 10.517)"/>
                <path id="Path_87387" data-name="Path 87387" class="cls-9" d="M100.626 254.207v86.043l55.356-43.022z" transform="translate(4.069 10.279)"/>
                <path id="Rectangle_23131" data-name="Rectangle 23131" class="cls-9" transform="translate(0 288.259)" d="M0 0h114.924v38.496H0z"/>
                <path id="Path_87388" data-name="Path 87388" class="cls-10" d="M47.577 294.4c0 1.565-1.175 2.538-3.051 2.538h-1.415v1.937h-1.624v-7.023h3.039c1.876 0 3.051.972 3.051 2.548m-1.646 0c0-.773-.5-1.225-1.494-1.225h-1.326v2.439h1.326c.993 0 1.494-.453 1.494-1.214" transform="translate(1.678 11.802)"/>
                <path id="Path_87389" data-name="Path 87389" class="cls-10" d="M48.446 291.854h1.624v5.7h3.522v1.324h-5.146z" transform="translate(1.959 11.802)"/>
                <path id="Path_87390" data-name="Path 87390" class="cls-10" d="M58.988 297.372h-3.261l-.622 1.5h-1.666l3.131-7.023h1.605l3.141 7.023H59.61zm-.512-1.235-1.113-2.689-1.114 2.689z" transform="translate(2.161 11.802)"/>
                <path id="Path_87391" data-name="Path 87391" class="cls-10" d="M68.153 291.854v7.023h-1.334l-3.5-4.265v4.265h-1.607v-7.023h1.344l3.491 4.264v-4.264z" transform="translate(2.495 11.802)"/>
            </g>
        </g>
        <path id="Path_87392" data-name="Path 87392" class="cls-11" d="m196.175 457.467 16.975 1.261 2.965-31.4L199.081 426z" transform="translate(7.933 17.226)"/>
        <g id="Group_83960" data-name="Group 83960">
            <g id="Group_83959" data-name="Group 83959" class="cls-3">
                <path id="Path_87393" data-name="Path 87393" class="cls-10" d="M204.539 456.912c-.141-.015.479-6.894 1.386-15.362s1.756-15.324 1.9-15.309-.48 6.893-1.386 15.364-1.756 15.323-1.9 15.307" transform="translate(8.27 17.236)"/>
                <path id="Path_87394" data-name="Path 87394" class="cls-10" d="m213.354 455.426-16.975-1.317-.2 2.221 16.976 1.261z" transform="translate(7.933 18.363)"/>
                <path id="Path_87395" data-name="Path 87395" class="cls-10" d="M197.068 446.743c-.024-.022.146-.258.5-.643a11.842 11.842 0 0 1 1.67-1.466 11.523 11.523 0 0 1 2.915-1.566 9.059 9.059 0 0 1 10.36 3 7.807 7.807 0 0 1 1.059 1.964 2.211 2.211 0 0 1 .194.793 17.878 17.878 0 0 0-1.54-2.535 9.069 9.069 0 0 0-6.091-3.232 10.425 10.425 0 0 0-6.69 1.878c-1.532 1.017-2.312 1.876-2.377 1.81" transform="translate(7.969 17.893)"/>
                <g id="Group_83946" data-name="Group 83946" class="cls-15" transform="translate(205.867 452.18)">
                    <g id="Group_83945" data-name="Group 83945">
                        <g id="Group_83944" data-name="Group 83944" style="clip-path:url(#clip-path-6)">
                            <path id="Path_87396" data-name="Path 87396" d="m198.185 434.606-.319 3.461 17.022 1.187.247-2.605z" transform="translate(-197.866 -434.606)"/>
                        </g>
                    </g>
                </g>
                <path id="Path_87397" data-name="Path 87397" class="cls-11" d="m281.6 425.16 2.04 31.478-16.961 1.441-2.109-31.536z" transform="translate(10.699 17.192)"/>
                <path id="Path_87398" data-name="Path 87398" class="cls-10" d="M274.839 456.155c-.143.007-.618-6.883-1.062-15.388s-.69-15.409-.547-15.416.617 6.881 1.062 15.39.689 15.407.547 15.414" transform="translate(11.047 17.2)"/>
                <path id="Path_87399" data-name="Path 87399" class="cls-10" d="m283.426 453.329-16.97 1.385.149 2.227 16.961-1.441z" transform="translate(10.775 18.331)"/>
                <path id="Path_87400" data-name="Path 87400" class="cls-10" d="M265.952 447.331a2.277 2.277 0 0 1 .393-.715 11.729 11.729 0 0 1 1.416-1.71 11.537 11.537 0 0 1 2.631-2.008 9.061 9.061 0 0 1 10.7 1.319 7.788 7.788 0 0 1 1.356 1.772 2.2 2.2 0 0 1 .317.752 17.874 17.874 0 0 0-1.922-2.259 9.067 9.067 0 0 0-6.526-2.228 10.414 10.414 0 0 0-6.308 2.913c-1.352 1.245-1.986 2.218-2.061 2.163" transform="translate(10.754 17.862)"/>
                <g id="Group_83949" data-name="Group 83949" class="cls-15" transform="translate(275.871 452.048)">
                    <g id="Group_83948" data-name="Group 83948">
                        <g id="Group_83947" data-name="Group 83947" style="clip-path:url(#clip-path-7)">
                            <path id="Path_87401" data-name="Path 87401" d="m265.149 435.143.232 3.468 17-1.52-.17-2.613z" transform="translate(-265.149 -434.479)"/>
                        </g>
                    </g>
                </g>
                <path id="Path_87402" data-name="Path 87402" class="cls-19" d="m236.009 159.77-23.376 3.488-1.095-20s-1.689-.072-3.183-8.605-4.252-23-4.252-23a32.1 32.1 0 0 1 31.537-1.254l1.47.763z" transform="translate(8.253 4.321)"/>
                <path id="Path_87403" data-name="Path 87403" class="cls-19" d="M234.8 121.563c.14-.087 5.8-2.723 6.557 3.155s-5.511 5.461-5.543 5.295-1.013-8.449-1.013-8.449" transform="translate(9.495 4.889)"/>
                <path id="Path_87404" data-name="Path 87404" class="cls-19" d="M207.461 124.79c-.161-.039-5.786-.57-4.647 5.245s6.954 3.444 6.931 3.275-2.285-8.52-2.285-8.52" transform="translate(8.195 5.045)"/>
                <path id="Path_87405" data-name="Path 87405" class="cls-10" d="M237.941 121.214c-.111 5.045.484 7.59.176 11-.486 5.392-2.506 9.793-6.919 13.162s-10.955 4.379-15.674 1.53c-3.275-1.977-5.763-4.406-6.786-8.014s-2.505-10.053-3.132-13.749c-1.13-6.666-2.626-12.972-2.626-12.972l19.192-6.649 12.283 4.633z" transform="translate(8.208 4.267)"/>
                <path id="Path_87406" data-name="Path 87406" class="cls-10" d="M220.959 148.287a6.7 6.7 0 0 0 3.508-.265 6.622 6.622 0 0 0 3.146-1.552c-.08-.137-1.469.541-3.293 1.031s-3.365.627-3.362.787" transform="translate(8.935 5.922)"/>
                <path id="Path_87407" data-name="Path 87407" class="cls-10" d="M238.438 130.02c-.234-5.114-.789-10.916-.833-16.34-.016-2.035.253-5.017-.254-6.987a16.336 16.336 0 0 0-2.25-5.67 8.769 8.769 0 0 0-6.726-3.5 9.031 9.031 0 0 0-7.021 3.072 6.781 6.781 0 0 0-7.2-1.5 6.528 6.528 0 0 0-4.069 6 4.774 4.774 0 0 0-5.472.311 4.413 4.413 0 0 0-1.177 5.187 4.466 4.466 0 0 0-2.872 2.979 4.209 4.209 0 0 0 .977 3.929c1.136 1.211 2.907 1.694 4.126 2.827a4.8 4.8 0 0 1 1.157 5.228" transform="translate(8.105 3.943)"/>
                <path id="Path_87408" data-name="Path 87408" class="cls-20" d="M207.778 115.828c-.018.01.063.2.308.513a3.956 3.956 0 0 0 1.349 1.06 4.285 4.285 0 0 0 2.7.37 4.533 4.533 0 0 0 2.934-1.946l-.436-.042a4.072 4.072 0 0 0 3.116 2.5 4.923 4.923 0 0 0 4.365-1.262 6.58 6.58 0 0 0 1.992-3.576l-.47.13a5.687 5.687 0 0 0 4.855 1.643 5.3 5.3 0 0 0 3.523-2.092 5.083 5.083 0 0 0 1-2.458 2.106 2.106 0 0 0-.035-.945c-.043 0-.031.334-.15.92a5.339 5.339 0 0 1-1.091 2.282 5.008 5.008 0 0 1-3.3 1.843 5.244 5.244 0 0 1-4.392-1.545l-.363-.39-.107.519a6.125 6.125 0 0 1-1.839 3.276 4.382 4.382 0 0 1-3.868 1.143 3.612 3.612 0 0 1-2.773-2.142l-.169-.47-.267.429a4.145 4.145 0 0 1-2.6 1.81 4.086 4.086 0 0 1-2.494-.242 5.6 5.6 0 0 1-1.781-1.326" transform="translate(8.402 4.437)"/>
                <path id="Path_87409" data-name="Path 87409" class="cls-20" d="M207.458 113.754a5.245 5.245 0 0 1 .5-2.265 3.652 3.652 0 0 1 1.858-1.684 3.915 3.915 0 0 1 3.1.068l.534.256-.143-.564a4.3 4.3 0 0 1-.07-1.713 4.7 4.7 0 0 1 1.987-3.123 4.861 4.861 0 0 1 3.036-.76 6.6 6.6 0 0 1 2.794.982c.022-.02-.157-.258-.6-.57a4.912 4.912 0 0 0-2.153-.793 4.983 4.983 0 0 0-5.621 4.186 4.717 4.717 0 0 0 .089 1.929l.391-.308a4.351 4.351 0 0 0-3.541-.018 3.913 3.913 0 0 0-1.993 1.965 3.627 3.627 0 0 0-.332 1.78c.036.423.131.638.158.632" transform="translate(8.382 4.187)"/>
                <path id="Path_87410" data-name="Path 87410" class="cls-20" d="M219.605 111.749c.071-.045-.07-.331-.113-.806a3.75 3.75 0 0 1 .338-1.826 19.018 19.018 0 0 1 .89-1.735c.256-.35.574-.185.612-.221.029-.017.01-.135-.169-.214a.711.711 0 0 0-.734.179 4.441 4.441 0 0 0-.574.776 6.9 6.9 0 0 0-.543 1.017 3.149 3.149 0 0 0-.209 2.1c.163.54.449.773.5.73" transform="translate(8.856 4.323)"/>
                <path id="Path_87411" data-name="Path 87411" class="cls-20" d="M229.927 102.75c.059-.032-.071-.456-.542-1.007a2.919 2.919 0 0 0-1.049-.77 2.453 2.453 0 0 0-1.661-.079 3.9 3.9 0 0 0-2.162 1.839c-.355.611-.5 1.014-.434 1.051s.339-.306.762-.84a4.23 4.23 0 0 1 1.992-1.533 2.371 2.371 0 0 1 2.267.6c.5.434.753.782.826.738" transform="translate(9.061 4.076)"/>
                <path id="Path_87412" data-name="Path 87412" class="cls-20" d="M230.6 127.305a9.554 9.554 0 0 0 1.484-4.067 9.336 9.336 0 0 0 .054-4.3c-.165.007-.176 1.912-.606 4.21s-1.085 4.1-.932 4.156" transform="translate(9.324 4.81)"/>
                <path id="Path_87413" data-name="Path 87413" class="cls-20" d="M228.275 128.971a7.133 7.133 0 0 0 1.035-2.893 6.956 6.956 0 0 0 .245-3.045 10.931 10.931 0 0 0-.793 2.94 10.777 10.777 0 0 0-.487 3" transform="translate(9.229 4.975)"/>
                <path id="Path_87414" data-name="Path 87414" class="cls-20" d="M212.344 131.712a9.043 9.043 0 0 0 1.514 5.027 9.38 9.38 0 0 0 3.7 3.8 32.406 32.406 0 0 1-3.216-4.074 31.846 31.846 0 0 1-2-4.755" transform="translate(8.585 5.326)"/>
                <path id="Path_87415" data-name="Path 87415" class="cls-20" d="M209.136 128.027a7.305 7.305 0 0 0 .363 4.69 7.455 7.455 0 0 0 2.731 3.868 25.564 25.564 0 0 1-2.2-4.051 25.272 25.272 0 0 1-.892-4.507" transform="translate(8.448 5.177)"/>
                <path id="Path_87416" data-name="Path 87416" class="cls-12" d="m211.322 157.568.207-5.015 24.432-5.161.865 4.13z" transform="translate(8.545 5.96)"/>
                <path id="Path_87417" data-name="Path 87417" class="cls-19" d="M137.836 215.966s-1.207.62-.365 1.5 11.955 10.75 13.455 11.718 6 2.135 6 2.135l2.937-.546 1.718-7.077 2.073-3.405-.527-.782 1.951-7.566s-1.694-.687-2.468.533c-1.092 1.72-2.6 4.5-2.6 4.5s-3.056.465-4.168-.861-7.589-12.256-8.372-12.447-1.974.05-1.34 1.788 4.777 7.935 4.62 8.275-.787.805-1.091.5-6.913-9.027-7.959-9.177c-1.115-.159-1.915.743-.891 2.425s6.4 7.818 6.156 8.211-.961-.082-.961-.082-6.149-6.421-7.013-6.306c-.958.127-1.108 1.09-.622 1.887s6.716 6.821 6.826 7.3c.072.313-.192 1.553-.693 1.13s-6.169-4.07-6.658-3.661" transform="translate(5.547 8.234)"/>
                <path id="Path_87418" data-name="Path 87418" class="cls-21" d="m198.345 277.531-1.293 83.938-2.852 87.136 23.652 1.709 7.98-88.845 9.082-63.04 2-.123 17.867 65.631 11.136 84.225c1.384-.346 22.327-2 22.327-2l-14.529-170.54-2.415-14.182-62.267 1.384z" transform="translate(7.853 10.572)"/>
                <path id="Path_87419" data-name="Path 87419" class="cls-21" d="m268.623 236.843-1.8-48.55-2.994-33.526h-20.417l-5.213-5.083-26.185 5.083-2.424 7.313s-21.029 6.7-22.2 8.738c0 0 7.376 29.11 10.85 45.423a4885.76 4885.76 0 0 0 4.893 22.665l-6.633 53.706c-.264 0 40.451-1.793 40.451-1.793l39.335-4.254z" transform="translate(7.578 6.053)"/>
                <path id="Path_87420" data-name="Path 87420" class="cls-19" d="M286.608 140.907s-5.992.469-6.347.469-6.524.567-6.524.567a3.156 3.156 0 0 1 1.7-2.127c1.418-.638 4.122-1.626 4.405-2.122s.912-1.21.345-1.99-10.9-11.27-11.257-11.837-.922-1.63 0-1.844 2.056.78 2.836 1.418 4.8 4.038 5.229 3.825.071-.567.071-.567-6.835-7.033-6.905-7.247-.876-2.286 1.07-1.946c.932.163 8.034 7.419 8.317 7.136s-5.957-8.3-5.388-8.934 1.2-1.277 2.34 0 6.02 7.8 6.378 7.87a.593.593 0 0 0 .642-.779c-.143-.5-3.045-5.553-3.045-6.12s.57-.708 1.137-.778 6.659 8.742 6.659 8.742 4.7 7.563 5.176 8.438a28.6 28.6 0 0 1 1.347 3.829z" transform="translate(10.855 4.649)"/>
                <path id="Path_87421" data-name="Path 87421" class="cls-21" d="m285.451 140.478 4.083 15.749-9.333 3.5-20.124-4.375V185.1l2.847 7.735s42.113-20.324 44.91-22.561c5.229-4.183-3.072-18.585-3.072-18.585l-7.644-16.462z" transform="translate(10.517 5.468)"/>
                <path id="Path_87422" data-name="Path 87422" class="cls-21" d="m188.655 170-4.71 9.432-11.9 39.4-13.3 3.548-2.5 12.158s20.8 4.877 24.658 3.2c6.551-2.845 17.485-29.973 17.485-29.973L196.9 184.57z" transform="translate(6.318 6.874)"/>
                <path id="Path_87423" data-name="Path 87423" class="cls-10" d="M301.6 161.863a28 28 0 0 0-13.328-6.752 6.758 6.758 0 0 1 2.238.209 20.11 20.11 0 0 1 9.6 4.863 6.786 6.786 0 0 1 1.493 1.68" transform="translate(11.657 6.271)"/>
                <path id="Path_87424" data-name="Path 87424" class="cls-10" d="M297.661 155.365a29.393 29.393 0 0 0-5.077-.392A29.132 29.132 0 0 0 287.6 156a10.757 10.757 0 0 1 10.065-.639" transform="translate(11.63 6.244)"/>
                <path id="Path_87425" data-name="Path 87425" class="cls-10" d="M242.552 154.57a6.853 6.853 0 0 1-1.143.794c-.375.249-.845.53-1.408.827s-1.19.664-1.92 1a48.38 48.38 0 0 1-5.2 2.16 64.739 64.739 0 0 1-6.636 1.874 70.67 70.67 0 0 1-12.407 1.587c-1.6.061-2.9.066-3.79.03a6.839 6.839 0 0 1-1.388-.1 6.834 6.834 0 0 1 1.387-.109c.892-.029 2.182-.092 3.771-.2a84.016 84.016 0 0 0 12.31-1.733 72.755 72.755 0 0 0 6.592-1.819c1.985-.691 3.76-1.358 5.2-2.033.734-.31 1.373-.64 1.94-.919s1.056-.523 1.443-.743a6.9 6.9 0 0 1 1.25-.611" transform="translate(8.438 6.25)"/>
                <path id="Path_87426" data-name="Path 87426" class="cls-10" d="M248.672 235.6a8.552 8.552 0 0 1-1.5.383c-.973.221-2.4.467-4.164.7a68.01 68.01 0 0 1-27.631-2.1c-1.712-.5-3.082-.959-4.01-1.324a8.647 8.647 0 0 1-1.426-.6 8.5 8.5 0 0 1 1.5.4c.946.3 2.327.7 4.043 1.155a75.945 75.945 0 0 0 27.484 2.086 83.398 83.398 0 0 0 4.171-.532 8.6 8.6 0 0 1 1.539-.175" transform="translate(8.489 9.408)"/>
                <path id="Path_87427" data-name="Path 87427" class="cls-10" d="M170.717 221.339c-.144-.042 1.317-5.482 3.262-12.15s3.638-12.041 3.782-12-1.317 5.481-3.262 12.151-3.638 12.04-3.782 12" transform="translate(6.903 7.974)"/>
                <path id="Path_87428" data-name="Path 87428" class="cls-10" d="M232.09 250.606c.15 0 .422 6.051.609 13.521s.216 13.533.067 13.536-.421-6.049-.609-13.523-.216-13.531-.067-13.535" transform="translate(9.381 10.134)"/>
                <path id="Path_87429" data-name="Path 87429" class="cls-20" d="M247.346 294.844c.027.148-5.264 1.24-11.814 2.441s-11.887 2.055-11.914 1.907 5.263-1.239 11.816-2.441 11.885-2.054 11.912-1.907" transform="translate(9.043 11.922)"/>
                <path id="Path_87430" data-name="Path 87430" class="cls-20" d="M270.015 356.057a48.963 48.963 0 0 0-6.805.881 49.068 49.068 0 0 0-6.448 2.353 5.975 5.975 0 0 1 1.7-1.134 20.263 20.263 0 0 1 9.52-2.323 5.948 5.948 0 0 1 2.032.223" transform="translate(10.383 14.389)"/>
                <path id="Path_87431" data-name="Path 87431" class="cls-20" d="M215.1 360c-.035.159-1.962-.238-4.351-.124-2.391.094-4.275.656-4.325.5A11.46 11.46 0 0 1 215.1 360" transform="translate(8.347 14.53)"/>
                <path id="Path_87432" data-name="Path 87432" class="cls-10" d="M202.994 237.514a2.112 2.112 0 0 1-.171-.532c-.1-.413-.231-.925-.387-1.548l-1.328-5.711-4.237-18.874c-1.646-7.336-3.121-13.979-4.215-18.881l-1.28-5.721c-.133-.627-.242-1.143-.332-1.56a2.127 2.127 0 0 1-.079-.552 2.191 2.191 0 0 1 .185.526l.431 1.536a251.47 251.47 0 0 1 1.447 5.684c1.18 4.81 2.727 11.474 4.371 18.85s3.076 14.063 4.083 18.911l1.16 5.748.287 1.569a2.209 2.209 0 0 1 .063.555" transform="translate(7.722 7.446)"/>
                <path id="Path_87433" data-name="Path 87433" class="cls-10" d="M262.766 170.736a1.234 1.234 0 0 1 .047.3l.081.872c.067.768.157 1.9.25 3.361.2 2.92.43 7.148.693 12.373.521 10.45 1.133 24.89 1.731 40.841l.276 7.5v-.03l5.365 35.41 1.537 10.519.39 2.841c.036.3.066.543.088.738a1.019 1.019 0 0 1 .014.254.966.966 0 0 1-.063-.246l-.138-.731-.483-2.826c-.406-2.5-.983-6.071-1.7-10.495-1.4-8.95-3.345-21.361-5.54-35.383V236l-.28-7.5-2.261-57.764" transform="translate(10.626 6.904)"/>
                <g id="Group_83952" data-name="Group 83952" class="cls-15" transform="translate(218.161 162.659)">
                    <g id="Group_83951" data-name="Group 83951">
                        <g id="Group_83950" data-name="Group 83950" style="clip-path:url(#clip-path-8)">
                            <path id="Path_87434" data-name="Path 87434" d="M239.807 156.337c-9.842 3.966-19.566 6.414-30.125 6.422a8.533 8.533 0 0 0 5.508 2.424 22.057 22.057 0 0 0 6.178-.526 93.365 93.365 0 0 0 15.029-4.222c1.676-.628 3.639-2.437 3.41-4.1" transform="translate(-209.682 -156.337)"/>
                        </g>
                    </g>
                </g>
                <g id="Group_83955" data-name="Group 83955" class="cls-15" transform="translate(199.271 193.276)">
                    <g id="Group_83954" data-name="Group 83954">
                        <g id="Group_83953" data-name="Group 83953" style="clip-path:url(#clip-path-9)">
                            <path id="Path_87435" data-name="Path 87435" d="M191.526 185.764c.161 3.79-.258 8.345.536 12.055a22.572 22.572 0 0 0 4.738 10.191c-1.835-7.142-3.385-14.966-5.273-22.246" transform="translate(-191.526 -185.764)"/>
                        </g>
                    </g>
                </g>
                <g id="Group_83958" data-name="Group 83958" class="cls-15" transform="translate(229.477 250.355)">
                    <g id="Group_83957" data-name="Group 83957">
                        <g id="Group_83956" data-name="Group 83956" style="clip-path:url(#clip-path-10)">
                            <path id="Path_87436" data-name="Path 87436" d="m220.881 240.675-.323-.05c3.185 3.62 8.471 4 13.292 4.03s10.058-.278 13.292-3.853a65.233 65.233 0 0 1-26.261-.127" transform="translate(-220.558 -240.625)"/>
                        </g>
                    </g>
                </g>
            </g>
        </g>
        <g id="Group_83968" data-name="Group 83968">
            <g id="Group_83967" data-name="Group 83967" class="cls-3">
                <path id="Path_87437" data-name="Path 87437" class="cls-25" d="M52 394.175c1.259 3.908 5.886 6.622 9.722 5.16 2.168-.827 3.739-2.712 5.08-4.606s2.6-3.92 4.482-5.281a6.574 6.574 0 0 1 4.565-1.257l-17.594-6.612c-7.539 4.549-7.515 8.689-6.256 12.6" transform="translate(2.077 15.43)"/>
                <path id="Path_87438" data-name="Path 87438" class="cls-25" d="M52 394.175c1.259 3.908 5.886 6.622 9.722 5.16 2.168-.827 3.739-2.712 5.08-4.606s2.6-3.92 4.482-5.281a6.574 6.574 0 0 1 4.565-1.257l-17.594-6.612c-7.539 4.549-7.515 8.689-6.256 12.6" transform="translate(2.077 15.43)"/>
                <g id="Group_83963" data-name="Group 83963" transform="translate(53.445 397.008)">
                    <g id="Group_83962" data-name="Group 83962">
                        <g id="Group_83961" data-name="Group 83961" style="clip-path:url(#clip-path-12)">
                            <path id="Path_87439" data-name="Path 87439" class="cls-2" d="M52 394.175c1.259 3.908 5.886 6.622 9.722 5.16 2.168-.827 3.739-2.712 5.08-4.606s2.6-3.92 4.482-5.281a6.574 6.574 0 0 1 4.565-1.257l-17.594-6.612c-7.539 4.549-7.515 8.689-6.256 12.6" transform="translate(-51.368 -381.578)"/>
                        </g>
                    </g>
                </g>
                <path id="Path_87440" data-name="Path 87440" class="cls-25" d="M137.107 398.31a14.865 14.865 0 0 0-24.355 5.847l1.763 6.814a8.341 8.341 0 0 1 4.323-5.522c2.309-.995 4.982-.428 7.343.43s4.682 2.007 7.19 2.162 5.34-1.035 6.091-3.433c.706-2.255-.653-4.659-2.356-6.3" transform="translate(4.559 15.939)"/>
                <g id="Group_83966" data-name="Group 83966" transform="translate(117.311 410.113)">
                    <g id="Group_83965" data-name="Group 83965">
                        <g id="Group_83964" data-name="Group 83964" style="clip-path:url(#clip-path-13)">
                            <path id="Path_87441" data-name="Path 87441" class="cls-2" d="M137.107 398.31a14.865 14.865 0 0 0-24.355 5.847l1.763 6.814a8.341 8.341 0 0 1 4.323-5.522c2.309-.995 4.982-.428 7.343.43s4.682 2.007 7.19 2.162 5.34-1.035 6.091-3.433c.706-2.255-.653-4.659-2.356-6.3" transform="translate(-112.752 -394.174)"/>
                        </g>
                    </g>
                </g>
                <path id="Path_87442" data-name="Path 87442" class="cls-2" d="M95.459 421.123c-3.68-3.5-3.5-9.582-1.661-14.315s5.843-8.366 10.318-10.761a32.677 32.677 0 0 1 28.479-.923 13.516 13.516 0 0 0-10.929 6.417c-2.017 3.349-2.465 7.414-4.132 10.952a17.242 17.242 0 0 1-22.076 8.63" transform="translate(3.741 15.864)"/>
                <path id="Path_87443" data-name="Path 87443" class="cls-2" d="M93.861 402.17c-4.074-4.81-4.616-12.531-4.017-18.806s2.055-12.59 1.065-18.815c-.587-3.688-2.017-7.209-2.5-10.912s.2-7.891 3.071-10.282c3.3-2.747 8.491-2.1 11.921.481s5.419 6.632 6.871 10.671c3.191 8.874 4.363 18.713 1.741 27.772s-8.773 17.157-17.8 19.891" transform="translate(3.569 13.812)"/>
                <path id="Path_87444" data-name="Path 87444" class="cls-10" d="M91.766 439.457a3.441 3.441 0 0 1-.016-.555c.005-.363 0-.9.03-1.589.052-1.38.185-3.375.494-5.825a77.547 77.547 0 0 1 1.566-8.531 39.345 39.345 0 0 1 3.892-9.877 41.168 41.168 0 0 1 6.361-8.5 40.5 40.5 0 0 1 6.669-5.546c1.018-.7 2-1.238 2.85-1.733a77.59 77.59 0 0 1 2.248-1.131l1.466-.616a3.506 3.506 0 0 1 .519-.194 3.27 3.27 0 0 1-.492.256l-1.437.672c-.61.317-1.357.707-2.213 1.178-.834.508-1.805 1.053-2.808 1.766a41.92 41.92 0 0 0-12.869 14.017c-3.747 6.554-4.772 13.443-5.516 18.273a82.888 82.888 0 0 0-.6 5.8l-.093 1.585a3.53 3.53 0 0 1-.053.552" transform="translate(3.71 15.987)"/>
                <path id="Path_87445" data-name="Path 87445" class="cls-2" d="M52.562 386.768c1.97-2.724 6.84-3.513 9.914-2.154s5.328 4.055 7.344 6.745 3.978 5.531 6.771 7.4 6.693 2.55 9.477.665a8.145 8.145 0 0 0 3.218-5.575 18.573 18.573 0 0 0-.441-6.573c-.666-3.162-1.753-6.463-4.282-8.472-2.821-2.239-6.733-2.345-10.332-2.227a38.675 38.675 0 0 0-12.2 1.876c-3.875 1.432-7.83 4.522-9.474 8.312" transform="translate(2.125 15.227)"/>
                <path id="Path_87446" data-name="Path 87446" class="cls-10" d="M86.5 434.147a.6.6 0 0 1-.02-.165l-.026-.487-.064-1.871c-.048-1.653-.115-4-.2-6.881-.092-2.9-.21-6.362-.419-10.2s-.5-8.051-1.081-12.438a40.179 40.179 0 0 0-1.25-6.318 32.779 32.779 0 0 0-2.31-5.528 31.889 31.889 0 0 0-2.915-4.575 29.669 29.669 0 0 0-3.183-3.495 23.4 23.4 0 0 0-5.642-3.846c-.368-.169-.689-.334-.978-.452l-.736-.285-.452-.183a.679.679 0 0 1-.151-.073.626.626 0 0 1 .161.041l.463.151.751.257c.294.108.621.265 1 .426a22.553 22.553 0 0 1 5.748 3.789 29.38 29.38 0 0 1 3.243 3.5 31.745 31.745 0 0 1 2.968 4.6 32.761 32.761 0 0 1 2.35 5.575 39.8 39.8 0 0 1 1.268 6.371c.584 4.406.858 8.629 1.057 12.469s.286 7.3.348 10.208.082 5.259.091 6.886v1.872c0 .2-.005.358-.007.487a.607.607 0 0 1-.015.166" transform="translate(2.712 15.259)"/>
                <path id="Path_87447" data-name="Path 87447" class="cls-10" d="M88.4 438.448a21.731 21.731 0 0 1-.826-3.238 34.008 34.008 0 0 1-.345-9.1 60.489 60.489 0 0 1 2.873-13.2c1.547-4.851 3.648-10.037 5.443-15.612a71.742 71.742 0 0 0 2.164-8.26 73.523 73.523 0 0 0 1.07-7.881 115.3 115.3 0 0 0 .24-13.478c-.13-3.839-.335-6.944-.462-9.089l-.146-2.471-.03-.643a1.112 1.112 0 0 1 0-.221.988.988 0 0 1 .033.217c.017.162.037.374.063.641l.209 2.467c.168 2.143.408 5.246.569 9.089a111.4 111.4 0 0 1-.169 13.512 72.837 72.837 0 0 1-1.055 7.919 71.1 71.1 0 0 1-2.168 8.3c-1.8 5.593-3.908 10.774-5.466 15.605a61.463 61.463 0 0 0-2.932 13.122 35.1 35.1 0 0 0 .238 9.052c.184 1.055.354 1.873.5 2.418l.153.625a1.107 1.107 0 0 1 .041.216" transform="translate(3.521 14.366)"/>
                <path id="Path_87448" data-name="Path 87448" class="cls-2" d="M107.721 438.754h-35.4l-.808-6.814h36.206z" transform="translate(2.892 17.466)"/>
                <path id="Path_87449" data-name="Path 87449" class="cls-2" d="m75.942 437.743 4.426 20.439H99.6l4.141-20.439z" transform="translate(3.071 17.701)"/>
                <path id="Path_87450" data-name="Path 87450" class="cls-20" d="M107.664 438.5c0 .094-7.782.147-17.381.12s-17.383-.126-17.383-.22 7.781-.147 17.383-.12 17.379.125 17.379.217" transform="translate(2.948 17.723)"/>
                <path id="Path_87451" data-name="Path 87451" class="cls-10" d="M101.386 448.3a14.633 14.633 0 0 0-3.117-1.786 11 11 0 0 0-3.791-.762 13.316 13.316 0 0 0-4.66.855c-1.614.545-3.12 1.181-4.587 1.53a10.939 10.939 0 0 1-3.965.12 8.17 8.17 0 0 1-2.548-.807 4.857 4.857 0 0 1-.615-.39c-.133-.1-.2-.157-.191-.166.019-.027.3.175.865.439a8.938 8.938 0 0 0 2.523.689 11.113 11.113 0 0 0 3.862-.186c1.417-.355 2.924-1 4.549-1.547a13.233 13.233 0 0 1 4.777-.846 10.823 10.823 0 0 1 3.873.85 10.006 10.006 0 0 1 2.307 1.346 6 6 0 0 1 .55.473c.12.115.178.18.171.188" transform="translate(3.15 18.012)"/>
                <path id="Path_87452" data-name="Path 87452" class="cls-12" d="M101.1 449.607a15.377 15.377 0 0 0-2.994-1.762 10.113 10.113 0 0 0-3.655-.753 13.15 13.15 0 0 0-4.508.811c-1.56.521-3.022 1.127-4.421 1.5a11.346 11.346 0 0 1-3.81.428 6.466 6.466 0 0 1-2.5-.668 4.559 4.559 0 0 1-.6-.377c-.129-.1-.192-.153-.185-.162.019-.027.292.171.838.42a6.838 6.838 0 0 0 2.455.548 11.616 11.616 0 0 0 3.711-.489c1.368-.385 2.821-.995 4.4-1.522a13.049 13.049 0 0 1 4.623-.8 10 10 0 0 1 3.74.845 9.878 9.878 0 0 1 2.21 1.337 6.372 6.372 0 0 1 .527.462c.114.112.171.175.163.183" transform="translate(3.172 18.066)"/>
                <path id="Path_87453" data-name="Path 87453" class="cls-12" d="M101.752 447.006a16.746 16.746 0 0 0-3.2-1.886 11.775 11.775 0 0 0-3.885-.934 12.563 12.563 0 0 0-4.809.848 43.562 43.562 0 0 1-4.751 1.551 12.084 12.084 0 0 1-4.094.006 9.18 9.18 0 0 1-2.63-.832 4.865 4.865 0 0 1-.638-.4c-.138-.1-.207-.16-.2-.17.019-.028.311.182.895.448a10.163 10.163 0 0 0 2.61.715 12.331 12.331 0 0 0 4-.077 48.193 48.193 0 0 0 4.7-1.565 12.542 12.542 0 0 1 4.936-.839 11.9 11.9 0 0 1 6.324 2.448 6.271 6.271 0 0 1 .567.489c.124.119.185.185.177.194" transform="translate(3.136 17.948)"/>
                <path id="Path_87454" data-name="Path 87454" class="cls-10" d="M108 438.524c0 .094-7.962.169-17.783.169s-17.784-.075-17.784-.169 7.961-.169 17.784-.169 17.783.076 17.783.169" transform="translate(2.929 17.726)"/>
            </g>
        </g>
        <g id="Group_83970" data-name="Group 83970">
            <g id="Group_83969" data-name="Group 83969" class="cls-3">
                <path id="Path_87455" data-name="Path 87455" class="cls-10" d="M455.332 457.249c0 .15-95.145.27-212.482.27-117.38 0-212.5-.121-212.5-.27s95.123-.271 212.5-.271c117.337 0 212.482.121 212.482.271" transform="translate(1.227 18.479)"/>
            </g>
        </g>
        <g id="Group_83972" data-name="Group 83972">
            <g id="Group_83971" data-name="Group 83971" class="cls-3">
                <path id="Path_87456" data-name="Path 87456" class="cls-12" d="m196.122 144.7-11.462-2.566a27.376 27.376 0 1 1 5.064-8.4l.009-.012z" transform="translate(5.534 3.911)"/>
                <path id="Path_87457" data-name="Path 87457" class="cls-10" d="m196.129 144.708-6.3-11.028a.1.1 0 0 0-.174-.008l-.008.012.18.1a27.311 27.311 0 0 0 1.473-14.174 24.633 24.633 0 0 0-1.053-4.209c-.257-.7-.5-1.421-.779-2.134l-1.008-2.11A27.606 27.606 0 0 0 172.974 98a27.292 27.292 0 0 0-11.464-1.343 27.909 27.909 0 0 0-11.554 3.859 27.006 27.006 0 0 0-9.058 8.895 27.5 27.5 0 0 0-4.127 12.285 27.928 27.928 0 0 0 1.776 12.287 27.009 27.009 0 0 0 6.469 9.8 27.766 27.766 0 0 0 19.081 7.76 29.547 29.547 0 0 0 8.859-1.462 27.23 27.23 0 0 0 11.785-7.87l-.1.031 11.484 2.469-11.441-2.662a.1.1 0 0 0-.1.031 27.164 27.164 0 0 1-11.727 7.729 29.38 29.38 0 0 1-8.767 1.41 27.467 27.467 0 0 1-18.817-7.71 26.648 26.648 0 0 1-6.361-9.671 27.553 27.553 0 0 1-1.739-12.108 27.113 27.113 0 0 1 4.068-12.1 26.639 26.639 0 0 1 8.92-8.764 27.534 27.534 0 0 1 11.38-3.813 26.951 26.951 0 0 1 11.3 1.307 27.309 27.309 0 0 1 15.32 12.953l1 2.081c.283.7.521 1.416.779 2.108a24.447 24.447 0 0 1 1.058 4.159 27.214 27.214 0 0 1-1.379 14.049.1.1 0 0 0 .181.1l.008-.012-.173-.008 6.479 10.925" transform="translate(5.527 3.903)"/>
                <path id="Path_87458" data-name="Path 87458" class="cls-25" d="m148.6 123.96 3.927-3.927 7.572 6.732 14.864-14.3 3.646 3.927-19.07 17.95z" transform="translate(6.009 4.548)"/>
            </g>
        </g>
    </g>
</svg>
