<svg width="107" height="107" viewBox="0 0 107 107" fill="none" xmlns="http://www.w3.org/2000/svg">
<path d="M53.3 0C42.7583 0 32.4533 3.12599 23.6881 8.98267C14.923 14.8393 8.09139 23.1637 4.05724 32.903C0.023094 42.6423 -1.03242 53.3591 1.02417 63.6983C3.08076 74.0375 8.15709 83.5346 15.6112 90.9888C23.0654 98.4429 32.5625 103.519 42.9017 105.576C53.2409 107.632 63.9577 106.577 73.697 102.543C83.4363 98.5086 91.7606 91.677 97.6173 82.9119C103.474 74.1467 106.6 63.8417 106.6 53.3C106.6 46.3005 105.221 39.3696 102.543 32.903C99.8642 26.4363 95.9382 20.5606 90.9888 15.6112C86.0394 10.6618 80.1637 6.7358 73.697 4.05722C67.2304 1.37865 60.2995 0 53.3 0ZM53.3 95.94C44.8666 95.94 36.6226 93.4392 29.6105 88.7538C22.5984 84.0685 17.1331 77.409 13.9058 69.6176C10.6785 61.8262 9.83407 53.2527 11.4793 44.9813C13.1246 36.71 17.1857 29.1123 23.149 23.149C29.1123 17.1857 36.71 13.1246 44.9814 11.4793C53.2527 9.83404 61.8262 10.6785 69.6176 13.9058C77.4091 17.1331 84.0685 22.5984 88.7539 29.6105C93.4392 36.6226 95.94 44.8666 95.94 53.3C95.94 64.6088 91.4476 75.4545 83.451 83.451C75.4545 91.4476 64.6088 95.94 53.3 95.94Z" fill="#8B8B8B"/>
<path d="M74.6181 47.9702H58.6281V31.9802C58.6281 30.5666 58.0666 29.2109 57.067 28.2113C56.0674 27.2117 54.7117 26.6502 53.2981 26.6502C51.8845 26.6502 50.5288 27.2117 49.5293 28.2113C48.5297 29.2109 47.9681 30.5666 47.9681 31.9802V53.3002C47.9681 54.7138 48.5297 56.0695 49.5293 57.069C50.5288 58.0686 51.8845 58.6302 53.2981 58.6302H74.6181C76.0317 58.6302 77.3874 58.0686 78.387 57.069C79.3866 56.0695 79.9481 54.7138 79.9481 53.3002C79.9481 51.8866 79.3866 50.5309 78.387 49.5313C77.3874 48.5317 76.0317 47.9702 74.6181 47.9702Z" fill="#8B8B8B"/>
</svg>
