<svg width="94" height="92" viewBox="0 0 94 92" fill="none" xmlns="http://www.w3.org/2000/svg">
<path d="M80.6998 60.2996C80.7998 60.1996 80.5998 60.1996 80.6998 60.2996V60.2996Z" fill="white"/>
<path d="M14.3999 60.4004L14.4999 60.5004H14.3999V60.4004Z" fill="white"/>
<path d="M15.9 43.7H11.3C11.1 43.1 10.9333 42.5 10.8 41.9C10.6667 41.3 10.5333 40.7 10.4 40.1C10.2667 39.4333 10.1333 38.8 10 38.2C9.93333 37.6 9.83333 37 9.7 36.4C9.5 35 9.33333 33.6 9.2 32.2C9.06667 30.8667 8.96667 29.5 8.9 28.1C8.83333 26.7 8.8 25.3333 8.8 24C8.73333 22.6 8.73333 21.2 8.8 19.8C8.8 19.3 9.1 19.2 9.4 19.1L46 0.4C46.2667 0.266667 46.5 0.133333 46.7 0H47C48.7 1 50.5 1.9 52.3 2.8C62.9667 8.26667 73.6667 13.7 84.4 19.1C84.4667 19.1 84.5333 19.1333 84.6 19.2C84.6 19.2667 84.6333 19.3333 84.7 19.4C84.7667 19.4 84.8 19.4333 84.8 19.5C84.8 19.6333 84.8 19.7333 84.8 19.8C84.8667 21.7333 84.8667 23.7 84.8 25.7C84.7333 27.6333 84.6 29.5667 84.4 31.5C84.2 33.5 83.9333 35.4667 83.6 37.4C83.3333 39.3333 82.9667 41.2667 82.5 43.2C82.4333 43.2 82.4 43.2333 82.4 43.3C82.4 43.3667 82.4 43.4 82.4 43.4C82.4 43.4667 82.3667 43.5 82.3 43.5C82.3 43.5667 82.3 43.6333 82.3 43.7H77.2C77.1333 43.7 77.1 43.7 77.1 43.7C77.0333 43.6333 77 43.6 77 43.6C76.9333 43.6 76.9 43.6 76.9 43.6C76.8333 43.5333 76.8 43.5 76.8 43.5C76.8 43.4333 76.8 43.4 76.8 43.4C76.8 43.4 76.8 43.3667 76.8 43.3C76.8 43.2333 76.8 43.2 76.8 43.2C77.2667 41.6 77.6667 39.9667 78 38.3C78.3333 36.7 78.6 35.0667 78.8 33.4C79 31.7333 79.1333 30.0667 79.2 28.4C79.3333 26.7333 79.3667 25.0667 79.3 23.4C79.3 23.2667 79.3 23.1667 79.3 23.1C79.2333 22.9667 79.1667 22.8667 79.1 22.8C79.1 22.6667 79.0333 22.5667 78.9 22.5C78.8333 22.4333 78.7333 22.4 78.6 22.4C68.1333 17.2667 57.6667 12.1667 47.2 7.1C47.0667 7.03333 46.9667 7 46.9 7C46.8333 7 46.7667 7 46.7 7C46.5667 7 46.4667 7 46.4 7C46.3333 7 46.2667 7.03333 46.2 7.1C44 8.2 41.7 9.2 39.5 10.3L14.5 22.5C14.2 22.6 14 22.8 14 23.2C14 24.2 14 25.2 14 26.2C14.0667 27.2 14.1333 28.2 14.2 29.2C14.2667 30.2 14.3333 31.2 14.4 32.2C14.5333 33.2 14.6667 34.2 14.8 35.2C15.2 38 15.9 40.7 16.6 43.4C16.5 43.8 16.1 43.7 15.9 43.7V43.7Z" fill="white"/>
<path fill-rule="evenodd" clip-rule="evenodd" d="M76.2999 60.7C76.2999 60.7 76.3332 60.7333 76.3999 60.8C76.3999 60.8 76.4332 60.8333 76.4999 60.9C76.4999 60.9 76.4999 60.9333 76.4999 61C75.8999 61.9333 75.2999 62.8333 74.6999 63.7C74.0999 64.6333 73.4999 65.5333 72.8999 66.4C72.2332 67.2667 71.5666 68.1 70.8999 68.9C70.2332 69.7667 69.5666 70.6333 68.8999 71.5C67.2999 73.3667 65.6332 75.2 63.8999 77C62.1666 78.7333 60.3999 80.4667 58.5999 82.2C56.7999 83.8667 54.9332 85.4667 52.9999 87C51.0666 88.6 49.0999 90.1 47.0999 91.5C46.8999 91.6333 46.6999 91.8 46.4999 92H46.3999C44.7999 90.8 43.1999 89.5667 41.5999 88.3C39.1332 86.4333 36.7666 84.4667 34.4999 82.4C32.2332 80.3333 30.0666 78.1667 27.9999 75.9C25.8666 73.6333 23.8666 71.3 21.9999 68.9C20.0666 66.4333 18.2666 63.9333 16.5999 61.4C16.5332 61.2667 16.4666 61.1333 16.3999 61C16.4999 60.4 16.9999 60.7 17.2999 60.7C17.4999 60.7 75.8999 60.7 76.0999 60.7C76.1666 60.7 76.2332 60.7 76.2999 60.7V60.7ZM63.8999 63.4C63.7999 63.1 63.4999 63.2 63.2999 63.2H29.4999C29.0999 63.2 28.9999 63.4 29.1999 63.7C29.4999 64.1 29.6999 64.4 29.8999 64.8C31.0332 66.4 32.1999 67.9667 33.3999 69.5C34.6666 71.0333 35.9666 72.5333 37.2999 74C38.6332 75.4 40.0332 76.7667 41.4999 78.1C42.9666 79.4333 44.4999 80.7 46.0999 81.9C46.3999 82.1 46.4999 82.2 46.7999 81.9C47.4999 81.3 48.2999 80.7 48.9999 80.1C50.3999 78.9667 51.7666 77.7667 53.0999 76.5C54.4332 75.2333 55.6999 73.9333 56.8999 72.6C58.1666 71.2 59.3332 69.8 60.3999 68.4C61.5332 66.9333 62.5999 65.4333 63.5999 63.9C63.6999 63.7 63.8999 63.6 63.8999 63.4V63.4Z" fill="white"/>
<path d="M14.5 60.8C14.5 62.7 14.5 64.6 14.5 66.6C14.5 67.2 14.1 67 13.8 67H0V66.8C0.3 66.8 0.3 66.5 0.5 66.4C2.3 64.1 4.2 61.8 6 59.4C6.4 59.1 6.3 58.8 6 58.4C4.06667 56 2.13333 53.5667 0.2 51.1C0.266667 51.0333 0.333333 51 0.4 51C0.4 51 0.433333 51 0.5 51C0.5 51 0.533333 51 0.6 51C3.8 51 7 51 10.2 51C10.7 51 10.7 51.2 10.7 51.7C10.7 54.3 10.7 56.9 10.7 59.5C10.7 59.7 10.6 60 10.9 60.2L11 60.4V60.5C11.2 60.8 11.5 60.7 11.7 60.7L14.5 60.8Z" fill="white"/>
<path d="M0 66.7996C0.266667 66.4663 0.533333 66.0996 0.8 65.6996C1.06667 65.3663 1.33333 65.0329 1.6 64.6996C1.86667 64.3663 2.13333 63.9996 2.4 63.5996C2.66667 63.2663 2.96667 62.9329 3.3 62.5996C4.1 61.5996 4.9 60.4996 5.8 59.4996C5.86667 59.4329 5.93333 59.3329 6 59.1996C6 59.1329 6 59.0329 6 58.8996C6 58.8329 6 58.7329 6 58.5996C5.93333 58.5329 5.86667 58.4329 5.8 58.2996C4 56.1996 2.2 53.9996 0.5 51.6996C0.3 51.5996 0 51.3996 0.2 51.0996C2.13333 53.5663 4.06667 56.0329 6 58.4996C6.3 58.7996 6.3 59.0996 6 59.4996C4.1 61.7996 2.3 64.0996 0.5 66.3996C0.3 66.4996 0.3 66.7996 0 66.7996H0Z" fill="white"/>
<path d="M0.1 51.1008C0.1 51.1008 0.0666667 51.1008 0 51.1008C0 51.1008 0 51.1341 0 51.2008V50.9008C3.53333 50.9008 7.1 50.9008 10.7 50.9008C11.2 50.9008 11.2 50.7008 11.2 50.3008C11.2 48.5008 11.2 46.7341 11.2 45.0008C11.2 44.7008 11.1 44.5008 11.3 44.3008C11.3 46.5674 11.3 48.8008 11.3 51.0008C11.3 51.0008 11.2667 51.0008 11.2 51.0008C11.2 51.0008 11.1667 51.0008 11.1 51.0008C11.1 51.0008 11.1 51.0341 11.1 51.1008C11.0333 51.1008 11 51.1008 11 51.1008V59.3008C11 59.3674 11 59.4341 11 59.5008C11 59.5674 11 59.6341 11 59.7008C11 59.7008 11 59.7341 11 59.8008C11 59.8674 11 59.9341 11 60.0008C11 59.9341 11 59.9008 11 59.9008C10.9333 57.2341 10.9333 54.5675 11 51.9008C11 50.9008 10.9 50.9008 10 50.9008H0.3C0.3 50.9008 0.3 50.9341 0.3 51.0008C0.233333 51.0008 0.2 51.0008 0.2 51.0008C0.133333 51.0674 0.1 51.1008 0.1 51.1008V51.1008Z" fill="white"/>
<path d="M11.0001 60.1004C10.9334 60.1671 10.9001 60.2004 10.9001 60.2004C10.6001 60.0004 10.7001 59.7004 10.7001 59.5004C10.7001 56.9004 10.7001 54.3004 10.7001 51.7004C10.7001 51.2004 10.7001 51.0004 10.2001 51.0004C7.0001 51.0004 3.8001 51.0004 0.600098 51.0004C0.533431 51.0004 0.500098 51.0004 0.500098 51.0004C0.433431 51.0004 0.366764 51.0004 0.300098 51.0004C0.300098 51.0004 0.266764 51.0337 0.200098 51.1004C0.200098 51.1004 0.166764 51.1004 0.100098 51.1004C0.100098 51.1004 0.133431 51.1004 0.200098 51.1004C0.200098 51.0337 0.200098 51.0004 0.200098 51.0004C0.200098 51.0004 0.233431 51.0004 0.300098 51.0004C0.300098 51.0004 0.300098 50.9671 0.300098 50.9004H10.1001C11.0001 50.9004 11.0001 51.0004 11.0001 51.9004C11.0001 54.6004 10.9001 57.3004 11.0001 59.9004C11.0001 59.9004 11.0001 59.9337 11.0001 60.0004C11.0001 60.0004 11.0001 60.0337 11.0001 60.1004V60.1004Z" fill="white"/>
<path d="M11.2998 44.2996V43.6996C11.3665 43.7663 11.4331 43.7996 11.4998 43.7996C11.4998 43.7996 11.5331 43.8329 11.5998 43.8996C11.6665 43.8996 11.6998 43.8996 11.6998 43.8996C11.7665 43.8996 11.8331 43.8996 11.8998 43.8996C13.2998 43.8996 14.6665 43.8996 15.9998 43.8996C16.0665 43.8996 16.1331 43.8996 16.1998 43.8996C16.2665 43.8996 16.3331 43.8996 16.3998 43.8996C16.4665 43.8329 16.4998 43.7996 16.4998 43.7996C16.5665 43.7329 16.6331 43.6663 16.6998 43.5996C16.6998 43.5996 16.6998 43.6329 16.6998 43.6996C16.6998 43.6996 16.6998 43.7329 16.6998 43.7996C16.6998 43.7996 16.6998 43.8329 16.6998 43.8996C16.6998 43.8996 16.6998 43.9329 16.6998 43.9996C15.1998 43.9996 13.6998 43.9996 12.1998 43.9996C11.8998 43.9996 11.4998 43.9996 11.2998 44.2996V44.2996Z" fill="white"/>
<path d="M11.8998 43.9004C11.8331 43.9004 11.7665 43.9004 11.6998 43.9004C11.6331 43.9004 11.5998 43.8671 11.5998 43.8004C11.5331 43.8004 11.4665 43.8004 11.3998 43.8004C11.3998 43.7337 11.3665 43.7004 11.2998 43.7004H15.7998C16.0998 43.7004 16.4998 43.8004 16.4998 43.4004C16.5665 43.4004 16.5998 43.4004 16.5998 43.4004C16.5998 43.4671 16.5998 43.5004 16.5998 43.5004V43.6004C16.5998 43.6671 16.5665 43.7004 16.4998 43.7004C16.4331 43.7671 16.3998 43.8004 16.3998 43.8004C16.3331 43.8671 16.2665 43.9004 16.1998 43.9004C16.1331 43.9004 16.0665 43.9004 15.9998 43.9004C14.5998 43.9004 13.2331 43.9004 11.8998 43.9004V43.9004Z" fill="white"/>
<path d="M93.3001 66.6C93.4001 67.1 93.0001 66.9 92.8001 66.9C90.6001 66.9 88.5001 66.9 86.1001 66.9C83.7668 66.9 81.4334 66.9 79.1001 66.9V60.7H81.3001C82.3001 60.7 82.5001 60.5 82.5001 59.5C82.5001 57.0333 82.5001 54.5333 82.5001 52C82.5001 51 82.5001 51 83.5001 51H93.4001V51.2C92.9001 51.1 92.8001 51.5 92.7001 51.7C90.9001 53.9 89.1001 56.1 87.3001 58.3C87.2334 58.3667 87.1668 58.4667 87.1001 58.6C87.0334 58.6667 87.0001 58.7667 87.0001 58.9C87.0001 59.0333 87.0334 59.1667 87.1001 59.3C87.1668 59.4333 87.2334 59.5333 87.3001 59.6C89.1001 61.8 90.9001 64 92.7001 66.2C92.8001 66.4 93.0001 66.7 93.3001 66.6V66.6Z" fill="white"/>
<path d="M87.3 59.1996C89.3 61.6996 91.3 64.1996 93.3 66.6996C93 66.6996 92.8 66.3996 92.7 66.1996C90.9 63.9996 89.1 61.7996 87.3 59.5996C87.2333 59.5329 87.1667 59.4329 87.1 59.2996C87.0333 59.1663 87 59.0329 87 58.8996C87 58.7663 87.0333 58.6663 87.1 58.5996C87.1667 58.4663 87.2333 58.3663 87.3 58.2996C89.1 56.0996 90.9 53.8996 92.7 51.6996C92.8 51.3996 92.9 51.0996 93.4 51.0996C91.3333 53.6329 89.3 56.1663 87.3 58.6996C87.1 58.7996 87 58.9996 87.3 59.1996V59.1996Z" fill="white"/>
<path d="M78.9 65.1008C78.9 65.3008 78.9 65.5008 78.9 65.7008C78.9 65.9008 78.9 66.1008 78.9 66.3008C78.9667 66.5008 79 66.7008 79 66.9008C78.8 66.6008 78.9 66.3008 78.9 66.0008C78.9 64.3341 78.9 62.6341 78.9 60.9008C78.9 60.5008 78.9 60.3008 78.4 60.3008C77.8 60.4008 77.3 60.2008 76.8 60.5008H76.7C76.5 60.3008 76.2 60.4008 76 60.4008H16.9C16.7 60.4008 16.4 60.3008 16.2 60.5008H16.1C15.9667 60.4341 15.8333 60.4008 15.7 60.4008C15.5667 60.3341 15.4333 60.3008 15.3 60.3008C15.1667 60.3008 15.0333 60.3341 14.9 60.4008C14.7667 60.4008 14.6333 60.4341 14.5 60.5008V60.4008V60.3008H79.1V60.4008C79.1 60.5008 79.1 60.5008 79.1 60.5008V60.7008H79C78.9 61.9008 79 63.2008 79 64.5008C79 64.7008 78.9667 64.9008 78.9 65.1008V65.1008Z" fill="white"/>
<path d="M78.9999 60.6996V66.8996C78.9999 66.6996 78.9666 66.4996 78.8999 66.2996C78.8999 66.0996 78.8999 65.8996 78.8999 65.6996C78.8999 65.4996 78.8999 65.2663 78.8999 64.9996C78.9666 64.7996 78.9999 64.5996 78.9999 64.3996C78.9999 63.1996 78.8999 61.8996 78.9999 60.5996H79.0999V60.6996H78.9999Z" fill="white"/>
<path d="M76.6998 60.6H76.7998C76.7998 60.6 76.7998 60.6333 76.7998 60.7C76.7331 60.7667 76.6998 60.8 76.6998 60.8C76.6998 60.8667 76.6665 60.9 76.5998 60.9C76.5998 60.9667 76.5665 61 76.4998 61C76.5998 60.7 76.4998 60.6 76.2998 60.5C76.4331 60.5 76.5665 60.5333 76.6998 60.6V60.6Z" fill="white"/>
<path d="M16.4001 61C16.3334 61 16.3001 60.9667 16.3001 60.9C16.2334 60.9 16.2001 60.8667 16.2001 60.8C16.2001 60.7333 16.1668 60.7 16.1001 60.7C16.1001 60.6333 16.1001 60.5667 16.1001 60.5H16.2001H16.6001C16.4001 60.6 16.3001 60.7 16.4001 61V61Z" fill="white"/>
<path d="M76.5001 61C76.5001 61 76.5001 60.9667 76.5001 60.9C76.4334 60.8333 76.4001 60.8 76.4001 60.8C76.3334 60.7333 76.3001 60.7 76.3001 60.7C76.2334 60.7 76.1667 60.7 76.1001 60.7C75.9001 60.7 75.7001 60.7 75.5001 60.7H17.3001C17.0001 60.7 16.5001 60.4 16.4001 61C16.3001 60.7 16.4001 60.6 16.6001 60.5H76.3001C76.5001 60.6 76.6001 60.7 76.5001 61V61Z" fill="white"/>
<path fill-rule="evenodd" clip-rule="evenodd" d="M82.1999 44.0996C82.1332 44.6329 82.0999 45.1996 82.0999 45.7996C82.0332 46.3329 81.9999 46.8663 81.9999 47.3996C81.9999 47.9996 81.9999 48.5663 81.9999 49.0996C81.9999 49.6329 81.9999 50.1996 81.9999 50.7996C81.9999 53.9329 81.9999 57.0663 81.9999 60.1996L81.8999 60.2996C81.8332 60.3663 81.7666 60.3996 81.6999 60.3996C81.6332 60.3996 81.5666 60.3996 81.4999 60.3996C81.4332 60.3996 81.3666 60.3996 81.2999 60.3996C81.2332 60.3996 81.1666 60.3996 81.0999 60.3996C80.8999 60.3996 80.7332 60.3996 80.5999 60.3996C80.4666 60.3996 80.3332 60.3996 80.1999 60.3996C80.0666 60.3996 79.9332 60.3996 79.7999 60.3996C79.6666 60.3996 79.5332 60.3996 79.3999 60.3996H79.0999H80.5999V60.1996H78.9999C78.9999 60.1996 78.9999 60.1663 78.9999 60.0996C78.9332 60.0996 78.8999 60.0996 78.8999 60.0996C78.8999 60.0996 78.8666 60.0996 78.7999 60.0996C78.6666 60.0329 78.5666 59.9996 78.4999 59.9996C78.3666 59.9996 78.2666 59.9996 78.1999 59.9996C78.0666 59.9996 77.9666 59.9996 77.8999 59.9996C77.7666 59.9996 77.6666 59.9996 77.5999 59.9996H15.8999C15.8332 59.9996 15.7332 59.9996 15.5999 59.9996C15.5332 59.9996 15.4666 59.9996 15.3999 59.9996C15.2666 59.9996 15.1666 59.9996 15.0999 59.9996C14.9666 59.9996 14.8666 59.9996 14.7999 59.9996C14.7999 59.9996 14.7666 59.9996 14.6999 59.9996C14.6332 60.0663 14.5999 60.0996 14.5999 60.0996C14.5999 60.0996 14.5666 60.0996 14.4999 60.0996V60.1996H11.3999V51.1996C11.3999 51.1329 11.4332 51.0996 11.4999 51.0996C11.4999 51.0996 11.4999 51.0663 11.4999 50.9996C11.4999 50.9996 11.4999 50.9663 11.4999 50.8996C11.5666 50.8996 11.5999 50.8663 11.5999 50.7996C11.6999 48.7996 11.5999 46.6996 11.5999 44.6996C11.5999 44.6329 11.5999 44.5996 11.5999 44.5996C11.5332 44.5329 11.4999 44.4996 11.4999 44.4996C11.4999 44.4329 11.4999 44.3996 11.4999 44.3996C11.4999 44.3996 11.4666 44.3663 11.3999 44.2996C12.7999 44.0996 14.1999 44.1996 15.6999 44.1996C15.7666 44.1996 15.8332 44.1996 15.8999 44.1996C16.0332 44.1996 16.1332 44.1996 16.1999 44.1996C16.2666 44.1996 16.3666 44.1996 16.4999 44.1996C16.5666 44.1329 16.6332 44.0996 16.6999 44.0996V43.9996C16.8999 44.2996 17.2999 44.1996 17.5999 44.1996H75.5999C75.9999 44.1996 76.3999 44.3996 76.5999 43.9996C78.1999 43.9996 79.7999 43.9996 81.3999 43.9996C81.6999 43.9996 81.9999 43.8996 82.1999 44.0996V44.0996ZM80.7999 58.3996C80.7999 54.3329 80.7999 50.2663 80.7999 46.1996C80.7999 45.5996 80.6999 45.4996 80.1999 45.4996H13.0999C12.4999 45.4996 12.3999 45.5996 12.3999 46.1996C12.3999 50.2663 12.3999 54.3329 12.3999 58.3996C12.3999 59.0996 12.5999 59.1996 13.1999 59.1996C24.3332 59.1996 35.4666 59.1996 46.5999 59.1996C57.7332 59.1996 68.8999 59.1996 80.0999 59.1996C80.6999 59.1996 80.7999 58.9996 80.7999 58.3996V58.3996Z" fill="white"/>
<path d="M11.2998 51.0004C11.2998 48.8004 11.2998 46.6004 11.2998 44.4004H11.3998C11.3998 44.4671 11.3998 44.5004 11.3998 44.5004C11.4665 44.5671 11.4998 44.6004 11.4998 44.6004C11.4998 44.6671 11.4998 44.7004 11.4998 44.7004C11.5998 46.8004 11.5998 48.9004 11.4998 50.9004C11.4998 50.9004 11.4998 50.9337 11.4998 51.0004C11.4331 51.0004 11.3998 51.0004 11.3998 51.0004C11.3998 51.0671 11.3998 51.1004 11.3998 51.1004C11.3998 51.1671 11.3665 51.2004 11.2998 51.2004V51.0004Z" fill="white"/>
<path d="M11.2998 44.3C11.4998 44 11.7998 44 12.0998 44C13.6998 44 15.1998 44 16.6998 44V44.1C16.6331 44.1 16.5331 44.1 16.3998 44.1C16.3331 44.1667 16.2665 44.2 16.1998 44.2C16.0665 44.2 15.9665 44.2 15.8998 44.2C15.8331 44.2 15.7331 44.2 15.5998 44.2C14.1998 44.3 12.7998 44.1 11.2998 44.3V44.3Z" fill="white"/>
<path d="M81.7999 60.4004C81.7332 60.4671 81.6999 60.5004 81.6999 60.5004C81.6332 60.5004 81.5666 60.5004 81.4999 60.5004C81.4332 60.5004 81.3999 60.5004 81.3999 60.5004H79.3999C79.5332 60.5004 79.6666 60.5004 79.7999 60.5004C79.9332 60.4337 80.0666 60.4004 80.1999 60.4004C80.3332 60.4004 80.4666 60.4337 80.5999 60.5004C80.7332 60.5004 80.8666 60.5004 80.9999 60.5004C81.1332 60.5004 81.2332 60.5004 81.2999 60.5004C81.3666 60.5004 81.4332 60.5004 81.4999 60.5004C81.5666 60.5004 81.6332 60.4671 81.6999 60.4004C81.7666 60.4004 81.8332 60.4004 81.8999 60.4004C81.8999 60.4004 81.8666 60.4004 81.7999 60.4004V60.4004Z" fill="white"/>
<path d="M79.1 60.2H14.5C14.5 60.2 14.5 60.1667 14.5 60.1C14.5667 60.1 14.6 60.1 14.6 60.1C14.6 60.1 14.6333 60.1 14.7 60.1C14.8333 60.0333 14.9333 60 15 60C15.1333 60 15.2333 60 15.3 60C15.4333 60 15.5333 60 15.6 60C15.7333 60 15.8333 60 15.9 60H77.6C77.6667 60 77.7667 60 77.9 60C77.9667 60 78.0667 60 78.2 60C78.2667 60 78.3667 60 78.5 60C78.5667 60 78.6667 60.0333 78.8 60.1C78.8 60.1 78.8333 60.1 78.9 60.1C78.9667 60.1667 79 60.2 79 60.2H79.1Z" fill="white"/>
<path d="M79.1001 60.5H79.3001L79.1001 60.6V60.5Z" fill="white"/>
<path d="M82.3001 51.2008C82.3001 51.1341 82.2668 51.1008 82.2001 51.1008C82.2001 51.1008 82.2001 51.0674 82.2001 51.0008C82.1334 51.0008 82.1001 51.0008 82.1001 51.0008C82.1001 51.0008 82.1001 50.9675 82.1001 50.9008C82.1001 50.9008 82.1001 50.8674 82.1001 50.8008H93.1001C93.2001 50.8008 93.3001 50.9008 93.3001 51.0008C93.3001 50.9341 93.2668 50.9008 93.2001 50.9008C93.1334 50.9008 93.0668 50.9008 93.0001 50.9008C92.9334 50.9008 92.8668 50.9008 92.8001 50.9008C92.7334 50.9008 92.6668 50.9008 92.6001 50.9008H83.2001C82.6001 50.9008 82.4001 50.9008 82.3001 51.2008V51.2008Z" fill="white"/>
<path d="M92.8001 50.9004C92.8668 50.9004 92.9334 50.9004 93.0001 50.9004C93.0668 50.9671 93.1334 51.0004 93.2001 51.0004C93.2668 51.0004 93.3334 51.0337 93.4001 51.1004H83.5001C82.5001 51.1004 82.5001 51.1004 82.5001 52.1004C82.5001 54.6337 82.5001 57.1337 82.5001 59.6004C82.5001 60.6004 82.4001 60.8004 81.4001 60.8004H79.1001C79.1001 60.7337 79.1001 60.7004 79.1001 60.7004L79.3001 60.6004C79.5001 60.6004 79.7001 60.6004 79.9001 60.6004C80.1001 60.6671 80.3001 60.7004 80.5001 60.7004C80.7001 60.7004 80.9001 60.7004 81.1001 60.7004C81.3001 60.7004 81.5001 60.7004 81.7001 60.7004C81.7668 60.6337 81.8334 60.6004 81.9001 60.6004C81.9668 60.6004 82.0001 60.5671 82.0001 60.5004C82.0668 60.5004 82.1001 60.4671 82.1001 60.4004C82.1668 60.3337 82.2001 60.3004 82.2001 60.3004V60.1004C82.3001 60.0004 82.3001 59.8004 82.3001 59.6004C82.3001 56.9337 82.3001 54.2671 82.3001 51.6004C82.3001 51.5337 82.3001 51.5004 82.3001 51.5004C82.3001 51.5004 82.3001 51.4671 82.3001 51.4004C82.3001 51.4004 82.3001 51.3671 82.3001 51.3004C82.3001 51.3004 82.3001 51.2671 82.3001 51.2004C82.4001 50.9004 82.6001 50.9004 83.2001 50.9004H92.6001C92.6668 50.9004 92.7334 50.9004 92.8001 50.9004V50.9004Z" fill="white"/>
<path d="M82.0999 60.1996C82.0999 60.2663 82.0666 60.2996 81.9999 60.2996C81.9999 60.2996 81.9666 60.3329 81.8999 60.3996L81.9999 60.1996L82.1999 60.0996C82.1999 60.0996 82.1666 60.1329 82.0999 60.1996V60.1996Z" fill="white"/>
<path d="M81.1002 60.5996C80.9002 60.5996 80.7002 60.5996 80.5002 60.5996C80.2335 60.5996 80.0002 60.5996 79.8002 60.5996C79.6002 60.5996 79.4002 60.5663 79.2002 60.4996H79.3002H81.3002C81.3669 60.4996 81.4335 60.4996 81.5002 60.4996C81.5669 60.4996 81.6002 60.4996 81.6002 60.4996C81.6669 60.4996 81.7335 60.4663 81.8002 60.3996C81.8669 60.3996 81.9002 60.3996 81.9002 60.3996C81.9669 60.3329 82.0002 60.2996 82.0002 60.2996C82.0002 60.2996 82.0335 60.2663 82.1002 60.1996C82.1002 60.1329 82.1335 60.0996 82.2002 60.0996V60.1996C82.1335 60.2663 82.1002 60.3329 82.1002 60.3996C82.1002 60.3996 82.0669 60.4329 82.0002 60.4996C81.9335 60.4996 81.9002 60.5329 81.9002 60.5996C81.8335 60.5996 81.7669 60.5996 81.7002 60.5996C81.5002 60.5996 81.3002 60.5996 81.1002 60.5996Z" fill="white"/>
<path d="M82.1 43.8992C82.1 43.8992 82.1333 43.8659 82.2 43.7992C82.2667 43.7326 82.3 43.6992 82.3 43.6992C82.3 43.7659 82.3 43.7992 82.3 43.7992C82.3 43.8659 82.3 43.8992 82.3 43.8992C82.2333 43.9659 82.2 44.0325 82.2 44.0992C82.2 44.0992 82.2 44.1326 82.2 44.1992C82.1333 44.1326 82.1 44.0992 82.1 44.0992C82.1 44.0325 82.1 43.9992 82.1 43.9992C82.0333 43.9326 82 43.8992 82 43.8992C82 43.8992 82.0333 43.8992 82.1 43.8992Z" fill="white"/>
<path d="M76.6001 43.7996C76.6001 43.7329 76.6001 43.6996 76.6001 43.6996C76.6668 43.6329 76.7001 43.5996 76.7001 43.5996C76.7001 43.5996 76.7001 43.6329 76.7001 43.6996C76.7001 43.6996 76.7334 43.6996 76.8001 43.6996C76.8001 43.6996 76.8001 43.7329 76.8001 43.7996C76.8001 43.7996 76.8334 43.7996 76.9001 43.7996C76.9668 43.7996 77.0001 43.8329 77.0001 43.8996L76.6001 43.7996Z" fill="white"/>
<path d="M76.8002 43.6C76.8669 43.6 76.9002 43.6 76.9002 43.6C76.9669 43.6 77.0002 43.6 77.0002 43.6C77.0669 43.6 77.1335 43.6 77.2002 43.6H82.3002C82.3002 43.6667 82.2669 43.7 82.2002 43.7C82.2002 43.7 82.2002 43.7333 82.2002 43.8C82.1335 43.8 82.1002 43.8 82.1002 43.8C82.1002 43.8 82.0669 43.8333 82.0002 43.9C81.9002 43.8 81.6002 43.9 81.5002 43.9C80.0002 43.9 78.5002 43.9 77.0002 43.9C77.0002 43.8333 77.0002 43.8 77.0002 43.8C76.9335 43.8 76.9002 43.8 76.9002 43.8C76.9002 43.8 76.8669 43.8 76.8002 43.8C76.8002 43.7333 76.8002 43.7 76.8002 43.7C76.7335 43.7 76.7002 43.7 76.7002 43.7C76.7002 43.6333 76.7002 43.6 76.7002 43.6L76.8002 43.5C76.8002 43.5 76.8002 43.5333 76.8002 43.6V43.6Z" fill="white"/>
<path d="M82.1001 44.0004C82.1001 44.0671 82.1001 44.1004 82.1001 44.1004C82.1001 44.1004 82.1001 44.1337 82.1001 44.2004C81.9001 43.9004 81.6001 44.0004 81.4001 44.0004C79.8001 44.0004 78.2001 44.0004 76.6001 44.0004V43.9004H77.0001C77.0001 43.9004 77.0334 43.9004 77.1001 43.9004C77.1001 43.9004 77.1334 43.9004 77.2001 43.9004C77.2668 43.9004 77.3001 43.9004 77.3001 43.9004C78.8334 43.9004 80.3334 43.9004 81.8001 43.9004H82.0001C82.0001 43.9004 82.0334 43.9337 82.1001 44.0004V44.0004Z" fill="white"/>
<path d="M77.3 43.8999C77.3 43.8999 77.2667 43.8999 77.2 43.8999C77.1333 43.8999 77.1 43.8999 77.1 43.8999C77.0333 43.8999 77 43.8999 77 43.8999C78.4667 43.8999 79.9333 43.8999 81.4 43.8999C81.6 43.8999 81.8 43.7999 82 43.8999H81.9C80.4 43.8999 78.8 43.8999 77.3 43.8999V43.8999Z" fill="white"/>
<path d="M82.1 50.9008C82.1 50.9675 82.1 51.0008 82.1 51.0008C82.1 50.9341 82.1 50.9008 82.1 50.9008C82.0333 50.9008 82 50.9008 82 50.9008C82 50.8341 82 50.8008 82 50.8008L82.2 50.9008C82.2 50.9008 82.1667 50.9008 82.1 50.9008V50.9008Z" fill="white"/>
<path d="M82 60.2008C82 57.0674 82 53.9341 82 50.8008C82 50.8008 82.0333 50.8341 82.1 50.9008C82.1 50.9008 82.1 50.9341 82.1 51.0008C82.1 51.0674 82.1 51.1008 82.1 51.1008C82.1 54.0341 82.1 56.9675 82.1 59.9008C82.1 59.9008 82.1 59.9341 82.1 60.0008C82.1 60.0008 82.1 60.0341 82.1 60.1008C82.1 60.1008 82.0667 60.1008 82 60.1008C82 60.1674 82 60.2008 82 60.2008V60.2008Z" fill="white"/>
<path d="M82 60.2C82.0667 60.2 82.1 60.1667 82.1 60.1C82.1 60.0333 82.1333 60 82.2 60C82.2 59.9333 82.2 59.9 82.2 59.9C82.2 56.9667 82.2 54.0333 82.2 51.1C82.2 51.1 82.2 51.0667 82.2 51V51.1C82.2 54.1 82.2 57.1 82.2 60.1L82 60.2Z" fill="white"/>
<path d="M14.4001 60.5H14.5001C14.5001 60.5667 14.5001 60.6 14.5001 60.6C14.5001 60.6 14.5001 60.6333 14.5001 60.7C14.4334 60.7 14.4001 60.6667 14.4001 60.6C14.4001 60.6 14.3668 60.6 14.3001 60.6C14.3001 60.6 14.2668 60.5667 14.2001 60.5C14.2001 60.5 14.1668 60.5 14.1001 60.5H14.4001Z" fill="white"/>
<path d="M14.1 60.5C14.1667 60.5 14.2 60.5 14.2 60.5C14.2 60.5 14.2333 60.5333 14.3 60.6C14.3 60.6 14.3333 60.6 14.4 60.6C14.4 60.6 14.4 60.6333 14.4 60.7H11.7C11.5 60.7 11.2 60.8 11 60.5H11.3H14.1Z" fill="white"/>
<path d="M16.7 43.4004C16.6333 43.4004 16.6 43.4004 16.6 43.4004C16.6 43.3337 16.6 43.3004 16.6 43.3004C15.9 40.6004 15.2 37.9004 14.8 35.2004C14.6667 34.2004 14.5333 33.2004 14.4 32.2004C14.3333 31.2004 14.2333 30.2004 14.1 29.2004C14.0333 28.2004 14 27.2004 14 26.2004C14 25.2004 14 24.2004 14 23.2004C14 22.7004 14.2 22.6004 14.5 22.4004L39.5 10.3004C41.7 9.20039 44 8.20039 46.2 7.10039C46.2667 7.03372 46.3333 7.00039 46.4 7.00039C46.4667 6.93372 46.5667 6.90039 46.7 6.90039C46.7667 6.90039 46.8333 6.93372 46.9 7.00039C47.0333 7.00039 47.1333 7.03372 47.2 7.10039C57.6667 12.1671 68.1667 17.2671 78.7 22.4004C78.7667 22.4671 78.8333 22.5337 78.9 22.6004C79.0333 22.6671 79.1333 22.7337 79.2 22.8004C79.2667 22.8671 79.3 22.9671 79.3 23.1004C79.3 23.1671 79.3 23.2671 79.3 23.4004C79.3667 25.0671 79.3333 26.7337 79.2 28.4004C79.1333 30.0671 79 31.7337 78.8 33.4004C78.6 35.0671 78.3333 36.7337 78 38.4004C77.6667 40.0004 77.2667 41.6337 76.8 43.3004C76.8 43.3671 76.8 43.4004 76.8 43.4004C76.8 43.4671 76.8 43.5004 76.8 43.5004C76.8 43.5004 76.8 43.5337 76.8 43.6004H76.7C76.7 43.5337 76.7 43.4671 76.7 43.4004C76.6333 43.3337 76.6 43.2337 76.6 43.1004C76.6 43.0337 76.6333 42.9671 76.7 42.9004C76.7 42.8337 76.7 42.7671 76.7 42.7004C76.9667 41.8337 77.2 40.9337 77.4 40.0004C77.6 39.1337 77.8 38.2337 78 37.3004C78.1333 36.3671 78.2667 35.4337 78.4 34.5004C78.5333 33.5671 78.6667 32.6337 78.8 31.7004C78.8667 31.0337 78.9333 30.3671 79 29.7004C79 29.0337 79.0333 28.3337 79.1 27.6004C79.1 26.9337 79.1 26.2671 79.1 25.6004C79.1 24.8671 79.1 24.1671 79.1 23.5004C79.1 23.3671 79.1 23.2671 79.1 23.2004C79.0333 23.0671 78.9667 22.9671 78.9 22.9004C78.9 22.7671 78.8333 22.6671 78.7 22.6004C78.6333 22.5337 78.5333 22.5004 78.4 22.5004C75.2 20.9004 71.9 19.3004 68.7 17.7004L52.4 9.90039C50.7 9.00039 49.1 8.20039 47.3 7.40039C47.2333 7.33372 47.1333 7.30039 47 7.30039C46.8667 7.23372 46.7667 7.20039 46.7 7.20039C46.5667 7.20039 46.4333 7.23372 46.3 7.30039C46.2333 7.30039 46.1333 7.33372 46 7.40039L30.5 14.9004C25.3667 17.3671 20.2333 19.8671 15.1 22.4004C14.9667 22.4671 14.8333 22.5337 14.7 22.6004C14.5667 22.7337 14.4667 22.8671 14.4 23.0004C14.3333 23.1337 14.2667 23.2671 14.2 23.4004C14.2 23.5337 14.2 23.7004 14.2 23.9004C14.2 25.4337 14.2333 26.9671 14.3 28.5004C14.4333 30.1004 14.6 31.6671 14.8 33.2004C15 34.7337 15.2333 36.2671 15.5 37.8004C15.7667 39.2671 16.1 40.7671 16.5 42.3004C16.5667 42.3671 16.6 42.4671 16.6 42.6004C16.6 42.6671 16.6333 42.7671 16.7 42.9004C16.7 42.9671 16.7 43.0337 16.7 43.1004C16.7 43.2337 16.7 43.3337 16.7 43.4004V43.4004Z" fill="white"/>
<path d="M16.7002 43.4004V43.5004C16.7002 43.5671 16.7002 43.6004 16.7002 43.6004C16.7002 43.6671 16.7002 43.7004 16.7002 43.7004C16.7002 43.7671 16.7002 43.8337 16.7002 43.9004C16.7669 43.9004 16.8002 43.9337 16.8002 44.0004C16.9002 43.8004 16.9002 43.6004 16.7002 43.4004V43.4004Z" fill="white"/>
<path d="M16.6001 43.4004C16.6668 43.4004 16.7001 43.4004 16.7001 43.4004C16.7001 43.5004 16.7001 43.5004 16.7001 43.5004C16.7001 43.5004 16.6668 43.5004 16.6001 43.5004C16.6001 43.5004 16.6001 43.4671 16.6001 43.4004Z" fill="white"/>
<path d="M75.4002 44.0008C75.5335 44.0008 75.6669 44.0008 75.8002 44.0008C75.9335 44.0008 76.0669 43.9675 76.2002 43.9008C76.3335 43.9008 76.4669 43.8674 76.6002 43.8008C76.6002 43.8008 76.6002 43.8341 76.6002 43.9008C76.6002 43.9008 76.6335 43.9008 76.7002 43.9008C76.4002 44.3008 76.0002 44.2008 75.7002 44.2008H17.6002C17.3002 44.2008 17.0002 44.3008 16.7002 43.9008C36.1002 44.1008 55.5002 44.0008 74.9002 44.0008C75.0335 44.0008 75.2002 44.0008 75.4002 44.0008V44.0008Z" fill="white"/>
<path d="M76.5 43.7996C76.5 43.7329 76.5 43.6996 76.5 43.6996C76.5667 43.6996 76.6 43.6663 76.6 43.5996C76.6 43.5996 76.6 43.6329 76.6 43.6996C76.6 43.7663 76.6 43.7996 76.6 43.7996C76.6 43.7996 76.6 43.8329 76.6 43.8996C76.6 43.8329 76.5667 43.7996 76.5 43.7996Z" fill="white"/>
<path d="M76.7002 43.5H76.8002L76.7002 43.6V43.5Z" fill="white"/>
<path d="M11.4002 60.4C11.4002 60.4 11.3669 60.4 11.3002 60.4C11.3002 60.4 11.3002 60.3667 11.3002 60.3C11.2335 60.3 11.2002 60.3 11.2002 60.3C11.2002 60.2333 11.2002 60.2 11.2002 60.2C11.2002 60.2 11.2002 60.1667 11.2002 60.1C11.2002 60.1 11.2002 60.0667 11.2002 60C11.2002 60 11.2002 60.0333 11.2002 60.1C11.2002 60.1 11.2335 60.1 11.3002 60.1C11.3002 60.1667 11.3002 60.2 11.3002 60.2C11.3002 60.2 11.3002 60.2333 11.3002 60.3V60.4H11.4002Z" fill="white"/>
<path d="M11.2 60.3008C11.2667 60.3674 11.3 60.4008 11.3 60.4008C11.3 60.4008 11.2667 60.4008 11.2 60.4008C11.2 60.4008 11.2 60.4341 11.2 60.5008C11.1333 60.5008 11.1 60.5008 11.1 60.5008C11.1 60.5008 11.0667 60.5008 11 60.5008V60.4008C11.0667 60.4008 11.1 60.4008 11.1 60.4008C11.1 60.4008 11.1 60.3674 11.1 60.3008C11.1 60.3008 11.1333 60.3008 11.2 60.3008Z" fill="white"/>
<path d="M11.3 51.1C11.2333 51.1667 11.2 51.2 11.2 51.2C11.2 51.2667 11.2 51.3 11.2 51.3C11.2 51.3667 11.2 51.4 11.2 51.4C11.2 51.3333 11.1667 51.3 11.1 51.3C11.1 51.2333 11.1 51.2 11.1 51.2C11.1 51.2 11.0667 51.2 11 51.2C11.0667 51.1333 11.1 51.1 11.1 51.1C11.1 51.1 11.1333 51.0667 11.2 51C11.2667 51 11.3 51 11.3 51C11.3 51 11.3 51.0333 11.3 51.1Z" fill="white"/>
<path d="M11.2002 51.3992C11.2002 51.3992 11.2335 51.3659 11.3002 51.2992C11.3002 51.2992 11.3002 51.2659 11.3002 51.1992V60.1992C11.2335 60.1326 11.2002 60.0992 11.2002 60.0992C11.2002 60.0992 11.2002 60.0659 11.2002 59.9992C11.2002 59.9992 11.2002 59.9659 11.2002 59.8992C11.2002 59.8326 11.2002 59.7659 11.2002 59.6992C11.2002 59.6992 11.2002 59.6659 11.2002 59.5992C11.2669 59.5325 11.3002 59.4659 11.3002 59.3992C11.3002 59.3326 11.2669 59.2659 11.2002 59.1992C11.3002 56.5992 11.2002 53.9992 11.2002 51.3992V51.3992Z" fill="white"/>
<path d="M11.2002 51.6C11.2002 51.5333 11.2002 51.5 11.2002 51.5C11.2002 51.5 11.2002 51.4667 11.2002 51.4C11.2002 51.4 11.2002 51.3667 11.2002 51.3C11.2002 51.3 11.2002 51.2667 11.2002 51.2C11.2002 51.2 11.2002 51.1667 11.2002 51.1C11.2669 51.0333 11.3002 51 11.3002 51V51.2C11.3002 51.2667 11.3002 51.3 11.3002 51.3C11.3002 51.3 11.2669 51.3 11.2002 51.3C11.2002 51.3667 11.2002 51.4 11.2002 51.4C11.2002 54 11.2002 56.6 11.2002 59.2C11.2002 59.2667 11.2002 59.3333 11.2002 59.4C11.2002 59.4667 11.2002 59.5333 11.2002 59.6C11.2002 59.6667 11.2002 59.7 11.2002 59.7C11.2002 59.7667 11.2002 59.8333 11.2002 59.9C11.2002 59.9 11.2002 59.8667 11.2002 59.8C11.2002 59.7333 11.2002 59.6333 11.2002 59.5C11.2002 56.9667 11.2002 54.4 11.2002 51.8C11.2002 51.7 11.2002 51.7 11.2002 51.7C11.2002 51.6333 11.2002 51.6 11.2002 51.6Z" fill="white"/>
<path d="M11.3 60.4004V60.5004H11C11.0667 60.5004 11.1 60.5004 11.1 60.5004C11.1 60.5004 11.1333 60.5004 11.2 60.5004C11.2 60.4337 11.2 60.4004 11.2 60.4004C11.2667 60.4004 11.3 60.4004 11.3 60.4004V60.4004Z" fill="white"/>
<path d="M10.9999 60.0996C10.9999 60.1663 10.9999 60.1996 10.9999 60.1996C10.9999 60.1996 10.9999 60.2329 10.9999 60.2996C10.9999 60.3663 10.9999 60.3996 10.9999 60.3996L10.8999 60.1996C10.9666 60.1996 10.9999 60.1996 10.9999 60.1996C10.9999 60.1329 11.0332 60.0996 11.0999 60.0996H10.9999Z" fill="white"/>
<path d="M11.1 60.0996C11.0333 60.0996 11 60.0996 11 60.0996C11 60.0996 11 60.0663 11 59.9996C11 59.9329 11 59.8663 11 59.7996C11 59.7329 11 59.6663 11 59.5996C11 59.5996 11 59.5663 11 59.4996C11 59.4329 11 59.3663 11 59.2996V51.0996C11 51.1663 11.0333 51.2329 11.1 51.2996C11.1 51.3663 11.1 51.4329 11.1 51.4996C11.1 51.5663 11.1 51.6329 11.1 51.6996C11.1 51.7663 11.1 51.8329 11.1 51.8996V58.7996C11.1 58.8663 11.1 58.9663 11.1 59.0996C11.1 59.2329 11.1 59.3329 11.1 59.3996C11.1 59.5329 11.1 59.6663 11.1 59.7996C11.1 59.8663 11.1 59.9663 11.1 60.0996V60.0996Z" fill="white"/>
<path d="M10.9999 60C10.9999 60.0667 10.9999 60.1 10.9999 60.1C10.9999 60.1 11.0332 60.1 11.0999 60.1C11.0999 60.1 11.0666 60.1333 10.9999 60.2C10.9999 60.2 10.9666 60.2 10.8999 60.2C10.8999 60.2 10.9332 60.1667 10.9999 60.1C10.9999 60.0333 10.9999 60 10.9999 60Z" fill="white"/>
<path d="M11.2001 60.1C11.2001 60.1667 11.2001 60.2 11.2001 60.2C11.2001 60.2 11.2001 60.2333 11.2001 60.3L11.1001 60.2C11.1001 60.2 11.1001 60.1667 11.1001 60.1C11.1001 60.1 11.1334 60.1 11.2001 60.1C11.2001 60.1 11.2001 60.0667 11.2001 60C11.2001 60 11.2001 60.0333 11.2001 60.1Z" fill="white"/>
<path d="M11.1001 51.6996C11.1001 51.6329 11.1001 51.5663 11.1001 51.4996C11.1001 51.4329 11.1001 51.3663 11.1001 51.2996C11.1001 51.2329 11.1001 51.1663 11.1001 51.0996C11.1001 51.1663 11.1001 51.1996 11.1001 51.1996C11.1001 51.1996 11.1334 51.2329 11.2001 51.2996C11.2001 51.3663 11.2001 51.3996 11.2001 51.3996V59.7996V59.8996C11.2001 59.9663 11.2001 59.9996 11.2001 59.9996C11.2001 59.9996 11.1668 60.0329 11.1001 60.0996C11.1001 59.9663 11.1001 59.8663 11.1001 59.7996C11.1001 59.6663 11.1001 59.5329 11.1001 59.3996C11.1001 59.3329 11.1001 59.2329 11.1001 59.0996C11.1001 58.9663 11.1001 58.8663 11.1001 58.7996V51.8996C11.1001 51.8329 11.1001 51.7663 11.1001 51.6996V51.6996Z" fill="white"/>
<path d="M16.8002 60.5C16.7335 60.5 16.6669 60.5 16.6002 60.5C16.5335 60.5 16.4669 60.5 16.4002 60.5C16.3335 60.5 16.2669 60.5 16.2002 60.5C16.4002 60.3 16.6002 60.4 16.9002 60.4H76.1002C76.3002 60.4 76.6002 60.3 76.8002 60.5C76.7335 60.5 76.6669 60.5 76.6002 60.5C76.5335 60.5 76.4669 60.5 76.4002 60.5C76.3335 60.5 76.2669 60.5 76.2002 60.5C76.1335 60.5 76.0669 60.5 76.0002 60.5H17.0002C16.9335 60.5 16.8669 60.5 16.8002 60.5Z" fill="white"/>
<path d="M16.7002 60.5004H16.2002C16.2669 60.4337 16.3335 60.4004 16.4002 60.4004C16.4669 60.4004 16.5335 60.4004 16.6002 60.4004C16.6669 60.4004 16.7335 60.4004 16.8002 60.4004C16.8669 60.4004 16.9335 60.4337 17.0002 60.5004H75.9002C75.9669 60.4337 76.0335 60.4004 76.1002 60.4004C76.1669 60.4004 76.2335 60.4004 76.3002 60.4004C76.3669 60.4671 76.4335 60.5004 76.5002 60.5004C76.5669 60.5004 76.6335 60.5004 76.7002 60.5004H76.2002C76.1335 60.5004 76.0669 60.5004 76.0002 60.5004C75.9335 60.5004 75.8669 60.5004 75.8002 60.5004C75.7335 60.5004 75.6669 60.5004 75.6002 60.5004C75.5335 60.5004 75.4335 60.5004 75.3002 60.5004H17.6002C17.5335 60.5004 17.4669 60.5004 17.4002 60.5004C17.3335 60.5004 17.2669 60.5004 17.2002 60.5004C17.1335 60.5004 17.0669 60.5004 17.0002 60.5004C16.9335 60.5004 16.8669 60.5004 16.8002 60.5004H16.7002Z" fill="white"/>
<path d="M11.3999 60.4008C11.3999 60.4008 11.3999 60.3674 11.3999 60.3008L11.7999 60.4008H11.3999Z" fill="white"/>
<path d="M13.7998 60.3992C13.8665 60.3992 13.8998 60.3992 13.8998 60.3992C13.9665 60.3326 14.0331 60.2992 14.0998 60.2992C14.1665 60.2992 14.2331 60.2992 14.2998 60.2992C14.2998 60.2992 14.3331 60.2659 14.3998 60.1992C14.3998 60.2659 14.3998 60.2992 14.3998 60.2992C14.3998 60.2992 14.3998 60.3326 14.3998 60.3992H13.8998H13.7998Z" fill="white"/>
<path d="M14.4001 60.5004C14.4001 60.5004 14.3668 60.5004 14.3001 60.5004C14.3001 60.5004 14.2668 60.4671 14.2001 60.4004C14.1334 60.4004 14.1001 60.4004 14.1001 60.4004H14.4001V60.5004Z" fill="white"/>
<path d="M12.4999 60.4004H12.5999C12.5332 60.4004 12.4332 60.4004 12.2999 60.4004C12.2332 60.4004 12.1332 60.4004 11.9999 60.4004C11.9332 60.4004 11.8332 60.4004 11.6999 60.4004C11.6332 60.4004 11.5332 60.4004 11.3999 60.4004C11.7332 60.4671 12.0999 60.4671 12.4999 60.4004V60.4004Z" fill="white"/>
<path d="M13.6998 60.5C13.7665 60.5 13.8331 60.5 13.8998 60.5C13.8998 60.5 13.9331 60.5333 13.9998 60.6C14.0665 60.6 14.0998 60.6 14.0998 60.6H11.2998C11.2998 60.6 11.3331 60.6 11.3998 60.6C11.3998 60.6 11.3998 60.5667 11.3998 60.5C11.5331 60.5 11.6331 60.5 11.6998 60.5C11.8331 60.5 11.9331 60.5 11.9998 60.5C12.1331 60.5 12.2331 60.5 12.2998 60.5C12.4331 60.5 12.5331 60.5 12.5998 60.5C12.6665 60.5 12.7331 60.5 12.7998 60.5C12.8665 60.5 12.9331 60.5 12.9998 60.5C12.9998 60.5 13.0331 60.5 13.0998 60.5C13.1665 60.5 13.2331 60.5 13.2998 60.5H13.5998C13.5998 60.5 13.6331 60.5 13.6998 60.5V60.5Z" fill="white"/>
<path d="M11.3998 60.5004C11.3331 60.5004 11.2998 60.5004 11.2998 60.5004V60.4004H11.3998C11.3998 60.4004 11.3998 60.4337 11.3998 60.5004Z" fill="white"/>
<path d="M13.8999 60.5004H14.0999H13.3999L13.7999 60.4004L13.8999 60.5004Z" fill="white"/>
<path d="M11.4999 60.4004C11.5666 60.4004 11.6332 60.4004 11.6999 60.4004C11.6999 60.4004 11.7332 60.4004 11.7999 60.4004C11.8666 60.4004 11.8999 60.4004 11.8999 60.4004C11.9666 60.4004 12.0332 60.4004 12.0999 60.4004C12.0999 60.4004 12.1332 60.4004 12.1999 60.4004C12.2666 60.4004 12.2999 60.4004 12.2999 60.4004C12.3666 60.4671 12.4332 60.5004 12.4999 60.5004C12.0999 60.5004 11.7999 60.4004 11.3999 60.4004C11.4666 60.4004 11.4999 60.4004 11.4999 60.4004V60.4004Z" fill="white"/>
<path d="M13.7999 60.4004L13.4999 60.5004C13.0999 60.5004 12.7666 60.5004 12.4999 60.5004C12.4332 60.5004 12.3666 60.5004 12.2999 60.5004C12.2999 60.5004 12.2666 60.4671 12.1999 60.4004C12.1332 60.4004 12.0999 60.4004 12.0999 60.4004C12.0332 60.4004 11.9666 60.4004 11.8999 60.4004H12.2999H13.7999Z" fill="white"/>
<path d="M79.4001 60.3008C79.4001 60.3008 79.3668 60.3008 79.3001 60.3008C79.3001 60.3008 79.2668 60.3008 79.2001 60.3008C79.2001 60.3008 79.2001 60.3341 79.2001 60.4008C79.1334 60.4008 79.1001 60.4008 79.1001 60.4008C79.1001 60.4008 79.1001 60.3674 79.1001 60.3008H79.4001Z" fill="white"/>
<path d="M79.1001 60.3008C79.1001 60.3674 79.1001 60.4008 79.1001 60.4008C79.1668 60.4008 79.2001 60.4008 79.2001 60.4008H79.1001V60.3008Z" fill="white"/>
<path d="M80.1001 60.3008C80.1668 60.3008 80.2334 60.3008 80.3001 60.3008C80.3001 60.3008 80.3334 60.3008 80.4001 60.3008C80.4668 60.3008 80.5001 60.3008 80.5001 60.3008H80.6001V60.4008H79.1001C79.1001 60.4008 79.1334 60.4008 79.2001 60.4008C79.2001 60.4008 79.2334 60.3674 79.3001 60.3008C79.3668 60.3008 79.4001 60.3008 79.4001 60.3008C79.4668 60.3008 79.5334 60.3008 79.6001 60.3008C79.6001 60.3008 79.6334 60.3008 79.7001 60.3008C79.7668 60.3008 79.8334 60.3008 79.9001 60.3008C79.9001 60.3008 79.9334 60.3008 80.0001 60.3008C80.0668 60.3008 80.1001 60.3008 80.1001 60.3008V60.3008Z" fill="white"/>
<path d="M82.2001 51.2C82.2001 51.2 82.2001 51.2333 82.2001 51.3C82.2001 51.3667 82.2001 51.4 82.2001 51.4C82.2001 51.4667 82.2001 51.5 82.2001 51.5V51.9C82.2001 53.6333 82.2001 55.3667 82.2001 57.1C82.2001 57.5 82.2001 57.9 82.2001 58.3C82.2001 56.1667 82.2001 54.0333 82.2001 51.9C82.2001 51.8333 82.2001 51.8 82.2001 51.8C82.2001 51.7333 82.2001 51.6667 82.2001 51.6C82.2001 51.5333 82.2001 51.4667 82.2001 51.4C82.2001 51.3333 82.2001 51.2667 82.2001 51.2C82.2001 51.1333 82.1668 51.1 82.1001 51.1C82.1001 51.0333 82.1001 51 82.1001 51L82.2001 51.2Z" fill="white"/>
<path d="M82.3002 51.8992C82.3002 51.8326 82.3002 51.7659 82.3002 51.6992C82.3002 51.6326 82.3002 51.5659 82.3002 51.4992C82.3002 51.4992 82.3002 51.4659 82.3002 51.3992C82.3002 51.3326 82.3002 51.2659 82.3002 51.1992C82.3669 51.1992 82.4002 51.2326 82.4002 51.2992C82.4002 51.2992 82.4002 51.3326 82.4002 51.3992C82.4002 51.4659 82.3669 51.4992 82.3002 51.4992C82.3002 54.1659 82.3002 56.8326 82.3002 59.4992C82.3002 59.6992 82.4002 59.8992 82.2002 60.0992C82.2002 59.9992 82.2002 59.9992 82.2002 59.9992C82.2002 59.9326 82.2335 59.8659 82.3002 59.7992C82.3002 59.7326 82.3002 59.6659 82.3002 59.5992C82.3002 59.5992 82.3002 59.5659 82.3002 59.4992C82.2335 59.4326 82.2002 59.3659 82.2002 59.2992V59.0992C82.2002 58.8325 82.2002 58.5659 82.2002 58.2992C82.3002 56.1992 82.2002 53.9992 82.3002 51.8992V51.8992Z" fill="white"/>
<path d="M82.2002 58.3008V59.1008C82.2669 58.8341 82.2669 58.5674 82.2002 58.3008Z" fill="white"/>
<path fill-rule="evenodd" clip-rule="evenodd" d="M40.7002 26.6004V17.1004C40.7002 16.2004 41.0002 15.9004 41.9002 15.9004H51.6002C52.5002 15.9004 52.8002 16.2004 52.8002 17.1004V26.7004C52.8002 27.5004 52.5002 27.9004 51.6002 27.9004C50.0002 27.9004 43.6002 27.9004 42.0002 27.9004C41.0002 27.9004 40.7002 27.6004 40.7002 26.6004V26.6004ZM43.5002 18.7004C42.9002 18.7004 43.1002 19.2004 43.1002 19.5004C43.1002 19.7004 42.9002 20.3004 43.5002 20.2004C44.4002 20.0004 44.3002 20.7004 44.3002 21.2004C44.3002 21.6004 44.3002 23.5004 44.3002 24.0004C44.3002 25.1004 44.3002 25.1004 45.3002 25.1004C45.8002 25.1004 45.9002 24.9004 45.9002 24.4004C45.9002 23.2004 45.9002 22.0004 45.9002 20.8004C45.9002 20.3004 46.0002 20.1004 46.5002 20.2004C46.5669 20.2004 46.6002 20.2004 46.6002 20.2004C46.6669 20.2004 46.7335 20.2004 46.8002 20.2004C46.8669 20.2004 46.9335 20.2004 47.0002 20.2004C47.0669 20.2004 47.1002 20.2004 47.1002 20.2004C48.3002 20.2004 48.8002 20.7004 48.8002 21.9004C48.8002 23.1004 48.4002 23.6004 47.2002 23.6004C46.9002 23.6004 46.5002 23.4004 46.4002 23.7004C46.4002 23.8337 46.4002 23.9337 46.4002 24.0004C46.4002 24.1337 46.4002 24.2337 46.4002 24.3004C46.4002 24.4337 46.4002 24.5337 46.4002 24.6004C46.4002 24.7337 46.4002 24.8337 46.4002 24.9004C46.5002 25.2004 47.0002 25.0004 47.2002 25.1004C47.2669 25.1004 47.3002 25.1004 47.3002 25.1004C47.3669 25.1004 47.4002 25.1004 47.4002 25.1004C47.4002 25.1004 47.4335 25.1004 47.5002 25.1004C47.9002 25.0337 48.2669 24.9337 48.6002 24.8004C48.9335 24.6671 49.2669 24.4671 49.6002 24.2004C49.8669 23.9337 50.0669 23.6337 50.2002 23.3004C50.3335 22.9671 50.4002 22.6004 50.4002 22.2004C50.4669 21.8004 50.4335 21.4337 50.3002 21.1004C50.2335 20.7004 50.1002 20.3337 49.9002 20.0004C49.6335 19.7337 49.3335 19.5004 49.0002 19.3004C48.7335 19.0337 48.4002 18.8671 48.0002 18.8004C46.5002 18.7004 45.0002 18.7004 43.5002 18.7004V18.7004Z" fill="white"/>
<path fill-rule="evenodd" clip-rule="evenodd" d="M38.2998 34.6008C36.5998 35.0008 36.2998 34.8008 36.2998 33.0008C36.2998 32.4008 36.2998 31.0008 36.2998 30.4008C36.2998 30.0008 36.3998 29.8008 36.8998 29.8008C37.3665 29.8008 37.8331 29.8008 38.2998 29.8008C38.4998 29.8008 38.7331 29.8674 38.9998 30.0008C39.2665 30.0674 39.4665 30.2008 39.5998 30.4008C39.7998 30.6008 39.9665 30.8008 40.0998 31.0008C40.1665 31.2674 40.2331 31.5008 40.2998 31.7008C40.2998 32.0341 40.2998 32.3341 40.2998 32.6008C40.2331 32.8674 40.1331 33.1341 39.9998 33.4008C39.8665 33.6008 39.6998 33.8008 39.4998 34.0008C39.2331 34.2008 38.9998 34.3341 38.7998 34.4008L38.2998 34.6008ZM37.3998 34.1008C37.6665 34.1008 37.9331 34.0674 38.1998 34.0008C38.4665 33.9341 38.6998 33.8008 38.8998 33.6008C39.0331 33.4008 39.1665 33.1675 39.2998 32.9008C39.3665 32.7008 39.3998 32.4674 39.3998 32.2008C39.3998 31.9341 39.3331 31.6674 39.1998 31.4008C39.1331 31.2008 38.9998 31.0341 38.7998 30.9008C38.5998 30.7008 38.3665 30.5674 38.0998 30.5008C37.8998 30.4341 37.6665 30.4341 37.3998 30.5008C37.0998 30.5008 36.9998 30.7008 36.9998 30.9008C36.9998 31.8341 36.9998 32.7341 36.9998 33.6008C36.9998 33.9008 37.0998 34.1008 37.3998 34.1008V34.1008Z" fill="white"/>
<path fill-rule="evenodd" clip-rule="evenodd" d="M57.6001 31.5004C57.6001 31.1004 57.8001 30.8004 58.1001 31.1004C58.4001 31.4004 58.7001 31.2004 58.9001 31.1004C59.0334 31.0337 59.1334 31.0004 59.2001 31.0004C59.3334 31.0004 59.4334 31.0004 59.5001 31.0004C59.6334 31.0004 59.7334 31.0004 59.8001 31.0004C59.9334 31.0671 60.0334 31.1337 60.1001 31.2004C60.3001 31.3337 60.4668 31.5004 60.6001 31.7004C60.7334 31.8337 60.8334 32.0337 60.9001 32.3004C60.9668 32.5004 60.9668 32.7004 60.9001 32.9004C60.9001 33.1671 60.8668 33.4004 60.8001 33.6004C60.7334 33.8004 60.6334 33.9671 60.5001 34.1004C60.3668 34.2337 60.2334 34.3671 60.1001 34.5004C59.9001 34.5671 59.7001 34.6004 59.5001 34.6004C59.3001 34.6671 59.1334 34.6671 59.0001 34.6004C58.4001 34.4004 58.4001 34.6004 58.4001 35.0004C58.4001 35.2004 58.4001 35.2004 58.4001 35.5004C58.4001 35.7004 58.4001 35.9004 58.1001 35.9004C57.8001 35.9004 57.6001 35.8004 57.6001 35.5004C57.6001 34.8337 57.6001 34.1671 57.6001 33.5004C57.6001 32.9004 57.6001 32.2004 57.6001 31.5004V31.5004ZM58.4001 32.9004C58.4001 33.4004 58.7001 33.9004 59.2001 34.0004C59.7001 34.0004 60.1001 33.5004 60.1001 32.7004C60.1001 32.3004 60.0001 31.7004 59.3001 31.7004C58.7001 31.7004 58.4001 32.1004 58.4001 32.9004V32.9004Z" fill="white"/>
<path fill-rule="evenodd" clip-rule="evenodd" d="M32.6002 35.9C32.3002 35.9 32.2002 35.8 32.2002 35.5C32.2002 34.1667 32.2002 32.8 32.2002 31.4C32.2002 31.1 32.4002 31 32.6002 31.1C33.0002 31.4 33.4002 31.1 33.8002 31C34.0002 31 34.2002 31 34.4002 31C34.6002 31.0667 34.8002 31.1667 35.0002 31.3C35.1335 31.4333 35.2669 31.6 35.4002 31.8C35.4669 32 35.5002 32.2 35.5002 32.4C35.5669 32.6667 35.6002 32.9 35.6002 33.1C35.5335 33.3667 35.4335 33.6 35.3002 33.8C35.1669 34 35.0002 34.1667 34.8002 34.3C34.6002 34.4333 34.4002 34.5333 34.2002 34.6C34.0669 34.6 33.9669 34.6 33.9002 34.6C33.7669 34.6 33.6669 34.6 33.6002 34.6C33.4669 34.6 33.3669 34.5667 33.3002 34.5C33.1669 34.5 33.0669 34.4667 33.0002 34.4C33.0002 34.8 33.0002 35.2 33.0002 35.5C33.0002 35.8 32.9002 35.9 32.6002 35.9V35.9ZM33.8002 31.7C33.3002 31.7 33.0002 32.2 33.0002 32.9C33.0002 33.6 33.3002 34 33.8002 34C34.0002 34 34.1335 33.9667 34.2002 33.9C34.3335 33.8333 34.4335 33.7333 34.5002 33.6C34.6335 33.4667 34.7002 33.3333 34.7002 33.2C34.7669 33.0667 34.7669 32.9333 34.7002 32.8C34.7002 32.2 34.4002 31.7 33.9002 31.7H33.8002Z" fill="white"/>
<path fill-rule="evenodd" clip-rule="evenodd" d="M62.8 34.6008C62.6 34.6008 62.4333 34.5341 62.3 34.4008C62.1 34.3341 61.9667 34.2341 61.9 34.1008C61.7667 33.9674 61.6667 33.8341 61.6 33.7008C61.5333 33.5008 61.5 33.3008 61.5 33.1008C61.5 32.9008 61.5 32.7008 61.5 32.5008C61.5667 32.3008 61.6333 32.1341 61.7 32.0008C61.8333 31.8008 61.9667 31.6341 62.1 31.5008C62.2333 31.3674 62.4 31.2341 62.6 31.1008C62.8 31.0341 63.0333 31.0341 63.3 31.1008C63.5 31.1008 63.7 31.1674 63.9 31.3008C64.1 31.4341 64.2333 31.6008 64.3 31.8008C64.8 32.7008 64.6 33.1008 63.6 33.1008C63.4 33.1008 63 33.1008 62.9 33.1008C62.7 33.1008 62.4 33.0008 62.3 33.2008C62.3 33.5008 62.5 33.7008 62.7 33.8008C62.7667 33.8674 62.8333 33.9341 62.9 34.0008C63.0333 34.0008 63.1333 34.0008 63.2 34.0008C63.2667 34.0008 63.3667 34.0008 63.5 34.0008C63.5667 34.0008 63.6667 34.0008 63.8 34.0008C64 33.9008 64.2 33.7008 64.3 34.2008C64.5 34.6008 64.1 34.5008 63.9 34.6008C63.8333 34.6008 63.7667 34.6008 63.7 34.6008C63.6333 34.6008 63.6 34.6008 63.6 34.6008C63.5333 34.6008 63.4667 34.6008 63.4 34.6008C63.3333 34.6008 63.3 34.6008 63.3 34.6008C63.1 34.6674 62.9333 34.6674 62.8 34.6008V34.6008ZM63.1 31.6008C62.7 31.6008 62.4 31.9008 62.4 32.2008C62.4 32.5008 62.8 32.3008 63 32.4008C63.3 32.3008 63.7 32.5008 63.7 32.2008C63.8 31.9008 63.5 31.6008 63.1 31.6008Z" fill="white"/>
<path fill-rule="evenodd" clip-rule="evenodd" d="M42.9001 31.1008C43.1001 31.1674 43.3001 31.2674 43.5001 31.4008C43.7001 31.6008 43.8334 31.8008 43.9001 32.0008C43.9668 32.2674 43.9668 32.5008 43.9001 32.7008C43.9001 33.1008 43.7001 33.1008 43.5001 33.1008H42.1001C41.9001 33.1008 41.7001 33.0008 41.7001 33.2008C41.7001 33.2008 41.7001 33.2341 41.7001 33.3008C41.7001 33.3674 41.7001 33.4008 41.7001 33.4008C41.7001 33.4674 41.7334 33.5008 41.8001 33.5008C41.8001 33.5008 41.8001 33.5341 41.8001 33.6008C41.8668 33.6674 41.9668 33.7341 42.1001 33.8008C42.1668 33.8674 42.2668 33.9341 42.4001 34.0008C42.4668 34.0008 42.5668 34.0008 42.7001 34.0008C42.8334 34.0008 42.9334 34.0008 43.0001 34.0008C43.3001 33.9008 43.6001 33.7008 43.7001 34.2008C43.8001 34.6008 43.3001 34.5008 43.1001 34.6008C43.0334 34.6008 43.0001 34.6008 43.0001 34.6008C42.9334 34.6008 42.9001 34.6008 42.9001 34.6008C42.8334 34.6008 42.7668 34.6008 42.7001 34.6008C42.7001 34.6008 42.6668 34.6008 42.6001 34.6008C42.4001 34.6008 42.2001 34.6008 42.0001 34.6008C41.8001 34.5341 41.6001 34.4341 41.4001 34.3008C41.2668 34.1008 41.1334 33.9341 41.0001 33.8008C40.9334 33.6008 40.9001 33.3674 40.9001 33.1008C40.8334 32.9008 40.8334 32.7008 40.9001 32.5008C40.9001 32.2341 40.9668 32.0008 41.1001 31.8008C41.2334 31.6674 41.3668 31.5341 41.5001 31.4008C41.7001 31.2674 41.9001 31.1674 42.1001 31.1008C42.3668 31.0341 42.6334 31.0341 42.9001 31.1008V31.1008ZM42.4001 31.6008C42.3334 31.6008 42.2668 31.6341 42.2001 31.7008C42.1334 31.7008 42.0668 31.7341 42.0001 31.8008C41.9334 31.8674 41.8668 31.9341 41.8001 32.0008C41.8001 32.0674 41.8001 32.1341 41.8001 32.2008C41.8001 32.6008 42.1001 32.3008 42.4001 32.4008C42.6001 32.3008 43.1001 32.6008 43.1001 32.2008C43.1001 31.8008 42.8001 31.6008 42.4001 31.6008V31.6008Z" fill="white"/>
<path fill-rule="evenodd" clip-rule="evenodd" d="M48.8999 33.5C48.9666 33.6333 49.0332 33.7333 49.0999 33.8C49.2332 33.8667 49.3332 33.9 49.3999 33.9C49.5332 33.9667 49.6666 34 49.7999 34C49.9332 34 50.0332 34 50.0999 34C50.3999 33.9 50.6999 33.7 50.7999 34.2C50.8999 34.7 50.3999 34.5 50.1999 34.6C50.1332 34.6 50.0999 34.6 50.0999 34.6C50.0332 34.6 49.9999 34.6 49.9999 34.6C49.9332 34.6 49.8999 34.6 49.8999 34.6C49.8332 34.6 49.7999 34.6 49.7999 34.6C48.7999 34.6 48.0999 34.2 47.9999 33.4C47.9332 33.1333 47.8999 32.9 47.8999 32.7C47.8999 32.4333 47.9666 32.2 48.0999 32C48.1666 31.8 48.2999 31.6333 48.4999 31.5C48.6332 31.3 48.7999 31.1667 48.9999 31.1C49.2666 31.0333 49.5332 31 49.7999 31C50.0666 31.0667 50.2999 31.1667 50.4999 31.3C50.6999 31.5 50.8666 31.7 50.9999 31.9C51.0666 32.1667 51.0666 32.4333 50.9999 32.7C50.9999 33.1 50.7999 33.1 50.5999 33.1H49.0999C48.6999 33.1 48.6999 33.3 48.8999 33.5V33.5ZM48.7999 32.4C48.8666 32.4 48.9332 32.4 48.9999 32.4C49.0666 32.4 49.1332 32.4 49.1999 32.4C49.2666 32.4 49.3332 32.4 49.3999 32.4C49.4666 32.4 49.5332 32.4 49.5999 32.4C49.7999 32.4 50.1999 32.6 50.1999 32.2C50.1999 32.1333 50.1666 32.0333 50.0999 31.9C50.0332 31.8333 49.9666 31.8 49.8999 31.8C49.8999 31.7333 49.8332 31.7 49.6999 31.7C49.6332 31.6333 49.5666 31.6333 49.4999 31.7C49.0999 31.7 48.8999 31.9 48.7999 32.4V32.4Z" fill="white"/>
<path fill-rule="evenodd" clip-rule="evenodd" d="M54.3999 34.5C54.1999 34.4333 53.9999 34.3 53.7999 34.1C53.6666 33.9 53.5666 33.7 53.4999 33.5C53.4332 33.3 53.3999 33.0667 53.3999 32.8C53.3999 32.6 53.4332 32.3667 53.4999 32.1C53.6332 31.9 53.7666 31.7 53.8999 31.5C54.0999 31.3667 54.2999 31.2333 54.4999 31.1C54.6999 31.0333 54.9332 31 55.1999 31C55.5999 31 56.0999 31.3 56.3999 31.6C56.6999 32 56.7999 32.4 56.7999 32.9C56.7999 33.3 56.5999 33.8 56.2999 34.1C55.9999 34.4 55.4999 34.6 55.0999 34.6C54.8332 34.6 54.5999 34.5667 54.3999 34.5V34.5ZM55.0999 31.7C54.5999 31.7 54.1999 32.2 54.1999 32.9C54.1999 33.5 54.5999 34 55.0999 34C55.2332 34 55.3666 33.9333 55.4999 33.8C55.6332 33.7333 55.7332 33.6667 55.7999 33.6C55.8666 33.4667 55.9332 33.3333 55.9999 33.2C55.9999 33.0667 55.9999 32.9333 55.9999 32.8C55.9999 32.6667 55.9999 32.5333 55.9999 32.4C55.9332 32.2667 55.8666 32.1333 55.7999 32C55.6666 31.9333 55.5666 31.8667 55.4999 31.8C55.3666 31.7333 55.2332 31.6667 55.0999 31.6V31.7Z" fill="white"/>
<path fill-rule="evenodd" clip-rule="evenodd" d="M31.3 33.5C31.2333 33.7 31.1333 33.9 31 34.1C30.8 34.2333 30.6 34.3667 30.4 34.5C30.2 34.5667 29.9667 34.6 29.7 34.6C29.4333 34.6 29.2 34.5667 29 34.5C28.8 34.4333 28.6 34.3 28.4 34.1C28.2667 33.9667 28.1667 33.8 28.1 33.6C28.0333 33.3333 28 33.1 28 32.9C28 32.6333 28.0333 32.4 28.1 32.2C28.1667 31.9333 28.2667 31.7333 28.4 31.6C28.6 31.4 28.8 31.2333 29 31.1C29.2 31.0333 29.4333 31 29.7 31C29.9667 31 30.2 31.0333 30.4 31.1C30.6 31.2333 30.8 31.3667 31 31.5C31.1333 31.7 31.2333 31.9 31.3 32.1C31.3667 32.3 31.4 32.5333 31.4 32.8C31.4 33 31.3667 33.2333 31.3 33.5ZM30.6 32.9C30.6 32.2 30.2 31.7 29.7 31.7C29.5667 31.7 29.4333 31.7333 29.3 31.8C29.2333 31.8667 29.1333 31.9667 29 32.1C28.9333 32.1667 28.8667 32.2667 28.8 32.4C28.8 32.5333 28.8 32.6667 28.8 32.8C28.8 32.9333 28.8 33.0667 28.8 33.2C28.8667 33.3333 28.9333 33.4667 29 33.6C29.0667 33.6667 29.1667 33.7667 29.3 33.9C29.4333 33.9667 29.5667 34 29.7 34C30.2 34 30.6 33.5 30.6 32.9V32.9Z" fill="white"/>
<path d="M27.9001 30.5008C27.8334 30.5008 27.8001 30.5008 27.8001 30.5008C27.7334 30.5008 27.6668 30.5008 27.6001 30.5008C27.6001 30.5008 27.5668 30.5008 27.5001 30.5008C27.5001 30.5008 27.4668 30.5008 27.4001 30.5008C26.9001 30.4008 26.9001 30.7008 26.9001 31.1008C26.9001 32.1008 26.9001 33.1008 26.9001 34.1008C26.9001 34.4008 26.8001 34.6008 26.4001 34.6008C26.0001 34.6008 26.0001 34.4008 26.0001 34.1008V32.5008C26.0001 32.4341 26.0001 32.3674 26.0001 32.3008C26.0001 32.2341 26.0001 32.1674 26.0001 32.1008C26.0001 32.0341 26.0001 31.9674 26.0001 31.9008C26.0001 31.8341 26.0001 31.7674 26.0001 31.7008C26.1001 30.9008 26.0001 30.3008 25.0001 30.5008C24.8001 30.6008 24.6001 30.4008 24.6001 30.1008C24.6001 29.9008 24.8001 29.8008 25.0001 29.8008H27.8001C28.0001 29.8008 28.2001 29.8008 28.2001 30.1008C28.2001 30.4008 28.1001 30.5008 27.9001 30.5008V30.5008Z" fill="white"/>
<path d="M45.9999 34.601C45.5999 34.601 45.4999 34.401 45.3999 34.201C45.0999 33.301 44.7999 32.501 44.4999 31.701C44.3999 31.501 44.2999 31.201 44.5999 31.101C44.7999 31.101 45.0999 31.001 45.1999 31.401C45.3999 32.101 45.6999 32.701 45.9999 33.501C46.2999 32.701 46.4999 32.101 46.6999 31.501C46.6999 31.4343 46.7332 31.3676 46.7999 31.301C46.7999 31.2343 46.8332 31.1676 46.8999 31.101C47.0332 31.101 47.1332 31.101 47.1999 31.101C47.2666 31.101 47.3332 31.101 47.3999 31.101C47.7999 31.301 47.4999 31.601 47.3999 31.701C47.1332 32.5676 46.8332 33.401 46.4999 34.201C46.3999 34.401 46.2999 34.601 45.9999 34.601V34.601Z" fill="white"/>
<path d="M67.6998 34.1C67.6998 33.7 67.8998 33.8 68.2998 33.9C68.5998 34 68.9998 34.1 69.0998 33.7C69.1998 33.3 68.7998 33.2 68.4998 33.1C67.7998 32.7 67.4998 32.2 67.7998 31.6C67.8665 31.4667 67.9665 31.3667 68.0998 31.3C68.2331 31.1667 68.3998 31.0667 68.5998 31C68.7331 31 68.8665 31 68.9998 31C69.1998 31 69.3665 31.0333 69.4998 31.1C69.7998 31.2 69.7998 31.3 69.7998 31.5C69.6998 31.7 69.5998 31.9 69.3998 31.8C69.3331 31.7333 69.2665 31.7 69.1998 31.7C69.1998 31.7 69.1665 31.7 69.0998 31.7C69.0998 31.7 69.0665 31.7 68.9998 31.7C68.9998 31.7 68.9665 31.7 68.8998 31.7C68.8998 31.6333 68.8665 31.6333 68.7998 31.7C68.7331 31.7 68.6998 31.7 68.6998 31.7C68.6331 31.7 68.5998 31.7333 68.5998 31.8C68.5331 31.8 68.4998 31.8333 68.4998 31.9C68.3998 32.1 68.5998 32.2 68.6998 32.3C68.7665 32.3 68.7998 32.3333 68.7998 32.4C68.7998 32.4 68.8331 32.4 68.8998 32.4C68.8998 32.4 68.9331 32.4 68.9998 32.4C68.9998 32.4667 69.0331 32.5 69.0998 32.5C69.5998 32.7 69.9998 33.1 69.8998 33.8C69.7998 34.3 69.2998 34.6 68.4998 34.6C68.4998 34.6 68.4665 34.6 68.3998 34.6C68.3998 34.6 68.3665 34.6 68.2998 34.6C68.2998 34.6 68.2665 34.6 68.1998 34.6C67.8998 34.5 67.5998 34.6 67.6998 34.1V34.1Z" fill="white"/>
<path fill-rule="evenodd" clip-rule="evenodd" d="M52.2998 39.2008C52.2998 39.1341 52.3331 39.0341 52.3998 38.9008C52.3998 38.8341 52.3998 38.7341 52.3998 38.6008C52.4665 38.5341 52.4998 38.4675 52.4998 38.4008C52.5665 38.2675 52.5998 38.1674 52.5998 38.1008C52.6665 38.0341 52.7331 37.9675 52.7998 37.9008C52.9331 37.8341 53.0331 37.8008 53.0998 37.8008C53.1665 37.8008 53.2665 37.8008 53.3998 37.8008C53.4665 37.8008 53.5331 37.8008 53.5998 37.8008C53.7331 37.8674 53.8331 37.9341 53.8998 38.0008C53.9665 38.0674 54.0331 38.1341 54.0998 38.2008C54.0998 38.2674 54.1331 38.3341 54.1998 38.4008C54.2665 38.6008 54.2998 38.8008 54.2998 39.0008C54.2998 39.2008 54.2998 39.4008 54.2998 39.6008C54.2998 39.8008 54.2998 39.9674 54.2998 40.1008C54.2998 40.3008 54.2665 40.5008 54.1998 40.7008C54.0998 40.9008 53.7998 41.1008 54.2998 41.2008C54.3998 41.2008 54.3998 41.4008 54.3998 41.5008C54.2998 41.6008 54.1998 41.6008 53.9998 41.6008C52.6998 41.3008 52.2998 40.8008 52.2998 39.5008C52.2998 39.4341 52.2998 39.3341 52.2998 39.2008V39.2008ZM52.9998 38.8008C52.9998 38.8674 52.9665 38.9674 52.8998 39.1008C52.8998 39.2341 52.8998 39.3674 52.8998 39.5008C52.8998 39.6341 52.8998 39.7675 52.8998 39.9008C52.8998 40.0341 52.9331 40.1674 52.9998 40.3008C52.9998 40.5008 53.0998 40.8008 53.2998 40.8008C53.5998 40.8008 53.6998 40.6008 53.6998 40.4008C53.7998 40.1008 53.8998 39.8008 53.8998 39.5008C53.7998 39.3008 53.7998 38.9008 53.6998 38.7008C53.6998 38.5008 53.5998 38.2008 53.2998 38.3008C53.0998 38.3008 52.9998 38.5008 52.9998 38.8008Z" fill="white"/>
<path d="M52.1998 34.5997C51.7998 34.5997 51.7998 34.2997 51.7998 34.0997V30.0997C51.7998 29.7997 51.8998 29.4997 52.1998 29.5997C52.5998 29.5997 52.5998 29.8997 52.5998 30.0997V34.0997C52.5998 34.3997 52.5998 34.5997 52.1998 34.5997Z" fill="white"/>
<path d="M65.2998 31.5993C65.2998 31.5326 65.2998 31.4993 65.2998 31.4993C65.2998 31.4326 65.2998 31.3993 65.2998 31.3993C65.2998 31.0993 65.5998 30.9993 65.5998 31.0993C66.0998 31.6993 66.6998 30.5993 67.0998 31.1993C67.1998 31.3993 67.2998 31.6993 66.8998 31.7993C66.1998 31.8993 66.1998 32.3993 66.1998 32.9993C66.1998 33.3993 66.1998 33.8993 66.1998 34.1993C66.1998 34.4993 66.0998 34.5993 65.7998 34.5993C65.3998 34.5993 65.2998 34.4993 65.2998 34.1993C65.2998 33.6993 65.2998 33.0993 65.2998 32.6993C65.2998 32.3659 65.2998 31.9993 65.2998 31.5993V31.5993Z" fill="white"/>
<path d="M38.6 41.3C38.4667 41.3 38.3333 41.2667 38.2 41.2C38.1333 41.1333 38.0333 41.0333 37.9 40.9C37.8333 40.8333 37.7667 40.7333 37.7 40.6C37.6333 40.4667 37.6 40.3 37.6 40.1C37.5333 39.9 37.5 39.7 37.5 39.5C37.5 39.3 37.5333 39.1 37.6 38.9C37.6667 38.7667 37.7333 38.6 37.8 38.4C37.8667 38.3333 37.9 38.2667 37.9 38.2C37.9667 38.1333 38.0333 38.0667 38.1 38C38.2333 37.9333 38.3333 37.8667 38.4 37.8C38.4667 37.8 38.5667 37.8 38.7 37.8C38.9 37.8 39.3 37.6 39.3 38C39.4 38.5 39 38.3 38.8 38.3C38.7333 38.3 38.6667 38.3 38.6 38.3C38.5333 38.3667 38.4667 38.4333 38.4 38.5C38.3333 38.5 38.3 38.5333 38.3 38.6C38.2333 38.6667 38.2 38.7333 38.2 38.8C38.1333 38.9333 38.1 39.0667 38.1 39.2C38.1 39.3333 38.1 39.4333 38.1 39.5C38.1 39.6333 38.1 39.7667 38.1 39.9C38.1 40.0333 38.1333 40.1667 38.2 40.3C38.2 40.3667 38.2 40.4333 38.2 40.5C38.2667 40.5 38.3 40.5333 38.3 40.6C38.3667 40.6667 38.4333 40.7 38.5 40.7C38.5667 40.7667 38.6333 40.8 38.7 40.8C38.7 40.8 38.9 41 38.9 40.7C38.9 40.4 39 40 38.8 39.9C38.7 39.7 38.4 39.7 38.6 39.5C38.7 39.3 38.9 39.4 39.2 39.4C39.5 39.4 39.5 39.5 39.5 39.7C39.5 39.9 39.5 40 39.5 40.4C39.4 40.7 39.7 41.2 39 41.3C38.8667 41.3 38.7333 41.3 38.6 41.3Z" fill="white"/>
<path d="M33.9999 39.1992C33.9999 39.7992 33.9999 40.4325 33.9999 41.0992C34.0665 41.0992 34.0665 41.0992 33.9999 41.0992C33.9999 41.1659 33.9999 41.1992 33.9999 41.1992C33.9999 41.2659 33.9665 41.2992 33.8999 41.2992C33.8999 41.2992 33.8665 41.2992 33.7999 41.2992C33.5999 41.2992 33.5999 41.1992 33.5999 40.9992C33.5999 40.5326 33.5999 40.0659 33.5999 39.5992C33.4999 39.3992 33.4999 39.1992 33.2999 39.1992C32.9999 39.2992 32.9999 39.4992 32.9999 39.5992C32.9999 39.8992 33.0999 40.3992 32.9999 40.5992C32.9999 40.7992 33.0999 41.1992 32.7999 41.1992C32.3999 41.1992 32.4999 40.8992 32.4999 40.5992C32.4999 40.1992 32.4999 39.8326 32.4999 39.4992V38.0992C32.4999 37.8992 32.5999 37.6992 32.7999 37.6992C32.9999 37.6992 32.9999 37.8992 32.9999 38.0992C32.9999 38.5992 33.0999 38.7992 33.5999 38.6992C33.8999 38.6992 34.0999 38.9992 33.9999 39.1992V39.1992Z" fill="white"/>
<path d="M43.5001 39.4992C43.5001 39.9659 43.5001 40.4326 43.5001 40.8992C43.5001 40.9992 43.5001 41.1992 43.3001 41.1992C43.0001 41.1992 43.0001 40.9992 43.0001 40.8992C43.0001 40.4326 43.0001 39.9992 43.0001 39.5992C43.0001 39.3992 43.0001 39.1992 42.8001 39.1992C42.5001 39.1992 42.5001 39.2992 42.5001 39.5992C42.5001 39.9992 42.5001 40.3992 42.5001 40.5992C42.5001 40.7992 42.6001 41.2992 42.2001 41.1992C41.8001 41.1992 41.9001 40.7992 41.9001 40.5992C41.9001 40.5325 41.9001 40.4659 41.9001 40.3992C41.9001 40.3326 41.9001 40.2992 41.9001 40.2992C41.9001 40.2326 41.9001 40.1659 41.9001 40.0992C41.9001 40.0325 41.9001 39.9659 41.9001 39.8992C41.9001 39.8992 41.9001 39.8659 41.9001 39.7992C41.9667 39.7992 42.0001 39.7659 42.0001 39.6992C42.0001 39.6992 41.9667 39.6659 41.9001 39.5992C41.9001 39.5992 41.9001 39.5659 41.9001 39.4992C41.8001 38.7992 42.2001 38.6992 42.8001 38.6992C43.4001 38.6992 43.5001 39.0992 43.5001 39.4992V39.4992Z" fill="white"/>
<path fill-rule="evenodd" clip-rule="evenodd" d="M57.7999 39.3996C57.7999 39.0996 57.3999 39.1996 57.2999 39.1996C57.1999 39.1996 57.0999 39.0996 57.0999 38.9996C57.0999 38.7996 57.1999 38.6996 57.2999 38.6996C57.4332 38.6329 57.5666 38.5996 57.6999 38.5996C57.8332 38.5996 57.9332 38.6329 57.9999 38.6996C58.1332 38.7663 58.2332 38.8663 58.2999 38.9996C58.3666 39.1329 58.3999 39.2663 58.3999 39.3996C58.3999 39.4663 58.3999 39.5329 58.3999 39.5996C58.3999 39.6663 58.3999 39.7663 58.3999 39.8996C58.3999 39.9663 58.3999 40.0329 58.3999 40.0996C58.3999 40.1663 58.3999 40.2663 58.3999 40.3996C58.2999 40.6996 58.7999 41.2996 57.7999 41.2996C57.3999 41.1996 57.0999 41.2996 56.8999 40.7996C56.8999 40.7329 56.8999 40.6329 56.8999 40.4996C56.8999 40.4329 56.8999 40.3329 56.8999 40.1996C56.9666 40.1329 57.0332 40.0329 57.0999 39.8996C57.1666 39.8329 57.2332 39.7996 57.2999 39.7996C57.4999 39.5996 57.8999 39.6996 57.7999 39.3996ZM57.6999 40.0996C57.4999 40.0996 57.3999 40.2996 57.3999 40.5996C57.3999 40.6996 57.3999 40.8996 57.5999 40.7996C57.8999 40.7996 57.8999 40.4996 57.8999 40.3996C57.8999 40.1996 57.9999 40.0996 57.6999 40.0996V40.0996Z" fill="white"/>
<path d="M64.1002 39.0992C64.1002 39.2992 64.0669 39.4992 64.0002 39.6992C63.9336 39.9659 63.8669 40.1992 63.8002 40.3992C63.7336 40.6659 63.6669 40.8992 63.6002 41.0992C63.5336 41.2992 63.4336 41.4992 63.3002 41.6992C63.3002 41.7659 63.2669 41.7992 63.2002 41.7992C63.2002 41.8659 63.2002 41.8992 63.2002 41.8992C63.1336 41.9659 63.1002 41.9992 63.1002 41.9992C63.0336 42.0659 63.0002 42.0992 63.0002 42.0992C62.9002 42.1992 62.7002 42.2992 62.7002 42.1992C62.6002 42.0992 62.4002 41.8992 62.6002 41.7992C63.4002 41.2992 62.9002 40.5992 62.8002 39.8992L62.6002 39.1992C62.5002 38.9992 62.3002 38.7992 62.7002 38.7992C62.7002 38.7326 62.7336 38.6992 62.8002 38.6992C62.8669 38.7659 62.9002 38.7992 62.9002 38.7992C62.9669 38.7992 63.0002 38.8326 63.0002 38.8992C63.0669 38.9659 63.1002 39.0325 63.1002 39.0992C63.1669 39.3659 63.2336 39.6659 63.3002 39.9992H63.4002C63.4669 39.6659 63.5336 39.3326 63.6002 38.9992C63.7002 38.7992 63.8002 38.6992 63.9002 38.6992C64.2002 38.7992 64.2002 38.8992 64.1002 39.0992V39.0992Z" fill="white"/>
<path fill-rule="evenodd" clip-rule="evenodd" d="M36.2001 39.6992C36.3001 40.1992 35.9001 40.0992 35.7001 40.0992C35.5001 40.1992 35.2001 39.9992 35.2001 40.3992C35.2001 40.6992 35.6001 40.7992 35.7001 40.7992C35.9001 40.7992 36.1001 40.6992 36.1001 40.9992C36.1001 41.2992 35.8001 41.2992 35.7001 41.2992C35.5668 41.2992 35.4668 41.2992 35.4001 41.2992C35.2668 41.2992 35.1668 41.2659 35.1001 41.1992C35.0334 41.1326 34.9668 41.0659 34.9001 40.9992C34.8334 40.9326 34.7668 40.8326 34.7001 40.6992C34.7001 40.6326 34.6668 40.5326 34.6001 40.3992C34.6001 40.3326 34.6001 40.2325 34.6001 40.0992C34.6001 40.0325 34.6001 39.9326 34.6001 39.7992C34.6001 39.7326 34.6334 39.6326 34.7001 39.4992C34.8001 38.9992 35.0001 38.6992 35.6001 38.6992C36.2001 38.7992 36.2001 39.1992 36.2001 39.6992V39.6992ZM35.7001 39.4992C35.7001 39.2992 35.6001 39.1992 35.4001 39.1992C35.4001 39.1992 35.3668 39.1992 35.3001 39.1992C35.3001 39.2659 35.2668 39.2992 35.2001 39.2992C35.2001 39.3659 35.2001 39.3992 35.2001 39.3992C35.2001 39.4659 35.2001 39.4992 35.2001 39.4992C35.2001 39.7992 35.4001 39.6992 35.5001 39.6992C35.6001 39.6992 35.7001 39.5992 35.7001 39.4992V39.4992Z" fill="white"/>
<path d="M48.9002 39.5992C48.9002 40.0659 48.9002 40.5326 48.9002 40.9992C48.9002 41.0992 48.9002 41.1992 48.7002 41.1992C48.4002 41.1992 48.4002 41.0992 48.4002 40.9992C48.4002 40.5326 48.4002 40.0659 48.4002 39.5992C48.4002 39.3992 48.3002 39.1992 48.1002 39.1992C47.9002 39.1992 47.9002 39.4992 47.9002 39.5992V40.8992C47.9002 41.0992 47.9002 41.2992 47.6002 41.2992C47.4002 41.2992 47.4002 41.0992 47.4002 40.8992V39.8992C47.4002 39.8992 47.4002 39.8659 47.4002 39.7992C47.4002 39.7992 47.4002 39.7659 47.4002 39.6992C47.4002 39.6992 47.4002 39.6659 47.4002 39.5992C47.4002 39.5992 47.4002 39.5659 47.4002 39.4992C47.2002 38.7992 47.6002 38.6992 48.2002 38.6992C48.8002 38.6992 48.9002 39.0992 48.9002 39.5992V39.5992Z" fill="white"/>
<path d="M56.3999 40.1992C56.3999 40.1992 56.3999 40.2326 56.3999 40.2992C56.3999 40.2992 56.3999 40.3326 56.3999 40.3992C56.3999 40.3992 56.3999 40.4326 56.3999 40.4992C56.6999 41.2992 56.1999 41.1992 55.5999 41.2992C54.9999 41.2992 54.8999 40.8992 54.8999 40.4992C54.8999 40.0326 54.8999 39.5659 54.8999 39.0992C54.8999 38.8992 54.9999 38.6992 55.1999 38.6992C55.3999 38.7992 55.3999 38.8992 55.3999 39.0992C55.3999 39.4992 55.3999 39.9326 55.3999 40.3992C55.3999 40.5992 55.3999 40.7992 55.6999 40.7992C55.8999 40.7992 55.8999 40.5992 55.8999 40.3992C55.8999 39.9992 55.8999 39.5992 55.8999 39.1992C55.8999 38.9992 55.7999 38.7992 56.0999 38.7992C56.4999 38.6992 56.3999 38.9992 56.3999 39.1992C56.3999 39.4659 56.3999 39.7326 56.3999 39.9992C56.3999 40.0659 56.3999 40.1326 56.3999 40.1992Z" fill="white"/>
<path d="M45.7001 40.0992C45.7001 40.1659 45.7001 40.1992 45.7001 40.1992C45.7001 40.2659 45.7001 40.2992 45.7001 40.2992C45.7001 40.3659 45.7001 40.3992 45.7001 40.3992C45.9001 41.1992 45.5001 41.2992 44.9001 41.2992C44.3001 41.2992 44.1001 40.7992 44.1001 40.3992C44.1001 39.9992 44.1001 39.5659 44.1001 39.0992C44.1001 38.9992 44.1001 38.6992 44.4001 38.6992C44.7001 38.6992 44.6001 38.9992 44.6001 39.1992C44.6001 39.5992 44.6001 39.9992 44.6001 40.3992C44.6001 40.4992 44.6001 40.6992 44.9001 40.6992C45.2001 40.6992 45.2001 40.4992 45.2001 40.2992C45.2001 40.2992 45.2001 40.2659 45.2001 40.1992C45.2001 40.1326 45.2001 40.0992 45.2001 40.0992C45.2001 40.0325 45.2001 39.9659 45.2001 39.8992C45.2001 39.8992 45.2001 39.8659 45.2001 39.7992C45.3001 39.4992 44.9001 38.6992 45.4001 38.7992C46.0001 38.8992 45.5001 39.4992 45.7001 39.8992C45.7001 39.8992 45.7001 39.9326 45.7001 39.9992C45.7001 40.0659 45.7001 40.0992 45.7001 40.0992V40.0992Z" fill="white"/>
<path fill-rule="evenodd" clip-rule="evenodd" d="M41.3999 39.0992C41.4666 39.1659 41.4999 39.2659 41.4999 39.3992C41.5666 39.4659 41.5999 39.5659 41.5999 39.6992C41.5332 39.7659 41.4999 39.8659 41.4999 39.9992C41.3999 40.1992 41.0999 40.0992 40.8999 40.0992C40.7999 40.1992 40.4999 39.9992 40.4999 40.2992C40.4999 40.5992 40.6999 40.7992 40.8999 40.7992C41.0999 40.8992 41.4999 40.6992 41.3999 41.0992C41.2999 41.2992 40.9999 41.2992 40.7999 41.2992C40.1999 41.2992 39.8999 40.7992 39.8999 39.9992C39.8999 39.9326 39.8999 39.8326 39.8999 39.6992C39.8999 39.6326 39.9332 39.5659 39.9999 39.4992C39.9999 39.4326 39.9999 39.3659 39.9999 39.2992C40.0666 39.2326 40.0999 39.1659 40.0999 39.0992C40.1666 38.9659 40.2332 38.8659 40.2999 38.7992C40.4332 38.7992 40.5332 38.7659 40.5999 38.6992C40.6666 38.6992 40.7666 38.6992 40.8999 38.6992C40.9666 38.7659 41.0332 38.8326 41.0999 38.8992C41.2332 38.8992 41.3332 38.9659 41.3999 39.0992ZM40.9999 39.3992C40.8999 39.2992 40.8999 39.1992 40.6999 39.1992C40.6332 39.1992 40.5999 39.2326 40.5999 39.2992C40.5332 39.2992 40.4999 39.2992 40.4999 39.2992C40.4999 39.3659 40.4999 39.3992 40.4999 39.3992C40.4332 39.4659 40.3999 39.4992 40.3999 39.4992C40.3999 39.6992 40.5999 39.6992 40.6999 39.6992C40.7999 39.6992 40.9999 39.6992 40.9999 39.3992V39.3992Z" fill="white"/>
<path fill-rule="evenodd" clip-rule="evenodd" d="M50.9 39.0992C50.9667 39.1659 51.0333 39.2659 51.1 39.3992C51.1 39.4659 51.1 39.5659 51.1 39.6992C51.1 39.7659 51.0667 39.8659 51 39.9992C51 40.1992 50.7 40.0992 50.5 40.0992C50.3 40.1992 50 39.9992 50 40.2992C50 40.5992 50.3 40.7992 50.5 40.7992C50.7 40.8992 51 40.8992 50.9 41.0992C50.9 41.2992 50.5 41.2992 50.3 41.2992C49.6 41.1992 49.5 40.5992 49.5 39.9992C49.5 39.9326 49.5 39.8326 49.5 39.6992C49.5 39.6326 49.5 39.5659 49.5 39.4992C49.5667 39.4326 49.6 39.3659 49.6 39.2992C49.6 39.2326 49.6333 39.1659 49.7 39.0992C49.7667 38.9659 49.8333 38.8992 49.9 38.8992C49.9667 38.8326 50.0333 38.7659 50.1 38.6992C50.2333 38.6992 50.3333 38.6992 50.4 38.6992C50.5333 38.7659 50.6333 38.8326 50.7 38.8992C50.7667 38.8992 50.8333 38.9659 50.9 39.0992V39.0992ZM50.5 39.4992C50.5 39.3992 50.4 39.1992 50.3 39.1992C50.1 39.1992 50 39.2992 50 39.4992C49.9 39.6992 50.1 39.6992 50.2 39.6992C50.3 39.6992 50.6 39.6992 50.5 39.4992Z" fill="white"/>
<path d="M32.1999 37.9992C32.2999 38.2992 31.8999 38.1992 31.6999 38.2992C31.4999 38.3992 31.5999 38.5992 31.5999 38.7992C31.5999 39.4659 31.5999 40.1659 31.5999 40.8992C31.5999 40.9992 31.6999 41.1992 31.3999 41.2992C31.0999 41.2992 31.0999 40.9992 31.0999 40.8992V38.6992C31.0999 38.4992 31.0999 38.3992 30.9999 38.2992C30.7999 38.1992 30.4999 38.1992 30.5999 37.9992C30.6999 37.6992 30.9999 37.7992 31.1999 37.7992C31.1999 37.7992 31.2333 37.7992 31.2999 37.7992C31.2999 37.7992 31.3333 37.7992 31.3999 37.7992C31.4666 37.7992 31.4999 37.7992 31.4999 37.7992C31.7999 37.8992 32.0999 37.6992 32.1999 37.9992V37.9992Z" fill="white"/>
<path d="M61.0002 39.0992C60.8002 38.8992 61.4002 38.1992 61.6002 38.1992C61.8002 38.3992 61.8002 38.6992 62.2002 38.8992C62.2002 38.8992 62.1002 39.0992 61.9002 39.1992C61.8335 39.3326 61.8002 39.4659 61.8002 39.5992C61.7335 39.7325 61.7002 39.8659 61.7002 39.9992C61.7002 40.1326 61.7335 40.2659 61.8002 40.3992C61.8002 40.5326 61.8335 40.6659 61.9002 40.7992C62.1002 40.8992 62.3002 40.9992 62.1002 41.1992C61.8002 41.3992 61.6002 41.2992 61.4002 41.0992C61.3002 40.8992 61.3002 40.5992 61.3002 40.3992C61.2002 39.8992 61.5002 39.4992 61.0002 39.0992V39.0992Z" fill="white"/>
<path d="M59.5 40.8992C59.5 41.0992 59.4 41.1992 59.2 41.1992C59 41.1992 59 40.9992 59 40.8992C59 39.8992 59 38.9992 59 37.9992C59 37.7992 59.1 37.6992 59.3 37.6992C59.5 37.6992 59.5 37.8992 59.5 37.9992V40.8992Z" fill="white"/>
<path d="M60.6001 39.0008V41.0008C60.6001 41.2008 60.6001 41.3008 60.3001 41.3008C60.1001 41.3008 60.1001 41.1008 60.1001 40.9008V40.0008C60.1001 39.7008 60.1001 39.3008 60.1001 39.1008C60.1001 38.9008 60.1001 38.8008 60.4001 38.8008C60.5334 38.8008 60.6001 38.8674 60.6001 39.0008V39.0008Z" fill="white"/>
<path d="M46.8 40.8992C46.8 41.0992 46.7 41.1992 46.5 41.1992C46.5 41.2659 46.4667 41.2659 46.4 41.1992C46.4 41.1992 46.3667 41.1992 46.3 41.1992C46.3 41.1326 46.3 41.0992 46.3 41.0992C46.2333 41.0325 46.2333 40.9992 46.3 40.9992C46.3 40.3326 46.3 39.6659 46.3 38.9992C46.3 38.7992 46.3667 38.6992 46.5 38.6992C46.5667 38.6992 46.6 38.6992 46.6 38.6992C46.6667 38.7659 46.7 38.7992 46.7 38.7992C46.7667 38.7992 46.8 38.8326 46.8 38.8992C46.8 38.8992 46.8 38.9326 46.8 38.9992V40.8992V40.8992Z" fill="white"/>
<path d="M60.3001 38.5004C60.2334 38.5004 60.2001 38.4671 60.2001 38.4004C60.1334 38.4004 60.1001 38.4004 60.1001 38.4004C60.1001 38.3337 60.1001 38.3004 60.1001 38.3004C60.1001 38.2337 60.1001 38.1671 60.1001 38.1004C60.1001 38.1004 60.1001 38.0671 60.1001 38.0004C60.1668 38.0004 60.2001 37.9671 60.2001 37.9004C60.2668 37.9004 60.3334 37.9004 60.4001 37.9004C60.5001 37.9004 60.6001 38.0004 60.6001 38.2004C60.6001 38.2004 60.6001 38.2337 60.6001 38.3004C60.6001 38.3004 60.6001 38.3337 60.6001 38.4004C60.5334 38.4004 60.5001 38.4337 60.5001 38.5004C60.4334 38.5004 60.4001 38.5004 60.4001 38.5004C60.3334 38.5004 60.3001 38.5004 60.3001 38.5004V38.5004Z" fill="white"/>
<path d="M46.7002 37.9004C46.7002 37.9671 46.7002 38.0004 46.7002 38.0004C46.7669 38.0671 46.8002 38.1004 46.8002 38.1004C46.8002 38.1671 46.8002 38.2004 46.8002 38.2004C46.8002 38.2671 46.8002 38.3004 46.8002 38.3004C46.8002 38.3671 46.7669 38.4004 46.7002 38.4004C46.7002 38.4004 46.6669 38.4337 46.6002 38.5004C46.3002 38.5004 46.2002 38.4004 46.2002 38.2004C46.2002 38.0004 46.3335 37.9004 46.6002 37.9004C46.6002 37.9004 46.6335 37.9004 46.7002 37.9004V37.9004Z" fill="white"/>
<path fill-rule="evenodd" clip-rule="evenodd" d="M46.2998 68.5C46.2998 68.5 46.2998 68.5333 46.2998 68.6C46.2998 68.6667 46.2998 68.7 46.2998 68.7C46.2998 68.7667 46.2998 68.8333 46.2998 68.9C46.2998 68.9 46.2998 68.9333 46.2998 69C46.2998 69.0667 46.2998 69.1333 46.2998 69.2C46.2998 69.2667 46.2665 69.3333 46.1998 69.4C46.1998 69.4667 46.1998 69.5667 46.1998 69.7C46.1998 69.7667 46.1665 69.8333 46.0998 69.9C46.0998 69.9667 46.0665 70.0333 45.9998 70.1C45.9331 70.1667 45.8665 70.2333 45.7998 70.3C45.7331 70.3667 45.6665 70.4 45.5998 70.4C45.4665 70.4667 45.3665 70.5 45.2998 70.5C45.1665 70.5 45.0665 70.5 44.9998 70.5C44.9331 70.4333 44.8665 70.3667 44.7998 70.3C44.6665 70.3 44.5998 70.2333 44.5998 70.1C44.5331 70.0333 44.4665 69.9667 44.3998 69.9C44.3998 69.7667 44.3665 69.6333 44.2998 69.5C44.2998 69.3667 44.2998 69.2333 44.2998 69.1C44.2998 68.9667 44.2998 68.8333 44.2998 68.7C44.2998 68.5667 44.3331 68.4333 44.3998 68.3C44.3998 68.1667 44.4331 68.0667 44.4998 68C44.5665 67.8667 44.6331 67.7667 44.6998 67.7C44.8331 67.6333 44.9665 67.5667 45.0998 67.5C45.1665 67.5 45.2665 67.5 45.3998 67.5C45.9998 67.6 46.1998 68 46.2998 68.5V68.5ZM45.7998 68.9C45.6998 68.5 45.7998 67.9 45.2998 67.9C44.7998 67.9 44.7998 68.5 44.7998 68.9C44.7998 69.3 44.6998 70 45.2998 70C45.7998 70 45.7998 69.3 45.7998 68.9Z" fill="white"/>
<path d="M43.8001 70.2C43.8001 70.6 43.2001 70.3 42.9001 70.4C42.9001 70.4 42.8667 70.4 42.8001 70.4C42.5001 70.3 42.2001 70.6 42.0001 70.3C41.9001 69.9 42.2001 69.8 42.5001 69.6C42.7001 69.3 42.9001 69.1 43.1001 68.8C43.1667 68.7333 43.2001 68.6667 43.2001 68.6C43.2668 68.5333 43.3001 68.4667 43.3001 68.4C43.3001 68.3333 43.2668 68.2667 43.2001 68.2C43.2001 68.1333 43.1667 68.0667 43.1001 68C43.0001 67.8 42.6001 67.8 42.5001 68C42.3001 68.1 42.1001 68.2 42.1001 68C42.0001 67.7 42.2001 67.6 42.3001 67.6C42.4334 67.5333 42.5334 67.5 42.6001 67.5C42.7334 67.5 42.8334 67.5 42.9001 67.5C43.0334 67.5 43.1334 67.5333 43.2001 67.6C43.3334 67.6 43.4334 67.6333 43.5001 67.7C43.5668 67.7667 43.6334 67.8667 43.7001 68C43.7668 68.1333 43.8001 68.2333 43.8001 68.3C43.8001 68.4333 43.7668 68.5333 43.7001 68.6C43.7001 68.7333 43.6667 68.8667 43.6001 69C43.5334 69.0667 43.4668 69.1333 43.4001 69.2C43.3334 69.2667 43.3001 69.3333 43.3001 69.4C43.2334 69.5333 43.1667 69.6333 43.1001 69.7C43.0334 69.7667 42.9668 69.8333 42.9001 69.9C43.2001 70.1 43.8001 69.8 43.8001 70.2V70.2Z" fill="white"/>
<path d="M48.5999 70.1992C48.4999 70.5992 47.8999 70.3992 47.5999 70.3992C47.2999 70.3992 46.7999 70.5992 46.6999 70.1992C46.5999 69.8992 46.9999 69.7992 47.1999 69.4992C47.3999 69.1992 47.6999 68.9992 47.8999 68.6992C47.8999 68.6992 47.9332 68.6659 47.9999 68.5992C47.9999 68.5325 47.9999 68.4659 47.9999 68.3992C47.9999 68.3325 47.9999 68.2659 47.9999 68.1992C47.9332 68.1325 47.8999 68.0659 47.8999 67.9992C47.6999 67.7992 47.3999 67.8992 47.2999 67.8992C47.0999 67.9992 46.8999 68.1992 46.7999 67.8992C46.6999 67.6992 46.9999 67.5992 47.1999 67.5992C47.5999 67.4992 47.9999 67.3992 48.2999 67.7992C48.3665 67.8659 48.4332 67.9659 48.4999 68.0992C48.4999 68.1659 48.4999 68.2659 48.4999 68.3992C48.4999 68.4659 48.4999 68.5659 48.4999 68.6992C48.4332 68.7659 48.3665 68.8659 48.2999 68.9992C48.2332 69.0659 48.1999 69.1325 48.1999 69.1992C48.1332 69.2659 48.0665 69.3325 47.9999 69.3992C47.9332 69.5325 47.8665 69.6325 47.7999 69.6992C47.7332 69.7659 47.6665 69.8325 47.5999 69.8992C47.8999 70.0992 48.5999 69.7992 48.5999 70.1992V70.1992Z" fill="white"/>
<path d="M50.2998 67.8V70.1C50.2998 70.3 50.2998 70.4 49.9998 70.4C49.7998 70.4 49.7998 70.3 49.7998 70.1C49.7998 70.0333 49.7998 69.9333 49.7998 69.8C49.7998 69.6667 49.7998 69.5667 49.7998 69.5C49.7998 69.3667 49.7998 69.2667 49.7998 69.2C49.7998 69.0667 49.7998 68.9667 49.7998 68.9C49.7998 68.6 50.0998 68.1 49.3998 68.2C49.2998 68.2 49.2998 68 49.2998 67.9C49.3665 67.8333 49.4331 67.7667 49.4998 67.7C49.5665 67.7 49.6331 67.6667 49.6998 67.6C49.7665 67.6 49.8331 67.6 49.8998 67.6C49.9665 67.5333 50.0331 67.5 50.0998 67.5C50.2998 67.5 50.3998 67.6 50.3998 67.8H50.2998Z" fill="white"/>
<path d="M39.2999 50.1C39.0999 51.0333 38.8666 51.9667 38.5999 52.9C38.4999 53.1 38.4999 53.4 38.1999 53.4C37.7999 53.3 37.7999 53.2 37.6999 52.9C37.5999 52.2 37.3999 51.6 37.1999 50.7C36.8999 51.6 36.6999 52.3 36.5999 52.9C36.4999 53.2 36.4999 53.3 36.0999 53.4C35.7999 53.4 35.7999 53.2 35.6999 52.9C35.4999 52 35.1999 51 34.9999 50C34.9999 49.9 34.8999 49.6 35.1999 49.5C35.3999 49.5 35.5999 49.6 35.5999 49.9C35.7999 50.6 35.9999 51.3 36.1999 52.2C36.3999 51.4 36.5999 50.7 36.7999 49.9C36.8999 49.7 36.8999 49.5 37.1999 49.5C37.4999 49.5 37.5999 49.7 37.5999 50C37.7999 50.6 37.8999 51.3 38.1999 52.2C38.3999 51.3 38.5999 50.7 38.6999 50C38.7999 49.7 38.8999 49.5 39.2999 49.6C39.5999 49.7 39.3999 50 39.2999 50.1Z" fill="white"/>
<path fill-rule="evenodd" clip-rule="evenodd" d="M47.6 51.3C47.6 51.5667 47.5667 51.8333 47.5 52.1C47.3667 52.3667 47.2333 52.6 47.1 52.8C46.9 53 46.6667 53.1667 46.4 53.3C46.1333 53.3667 45.8667 53.4 45.6 53.4C44.5 53.4 44.5 53.4 44.5 52.3V50.6C44.5 49.5 44.5 49.5 45.5 49.5C46.9 49.6 47.6 50.1 47.6 51.3V51.3ZM46.9 52C46.9667 51.8667 47 51.7 47 51.5C47 51.3667 47 51.2333 47 51.1C46.9333 50.9667 46.8667 50.8333 46.8 50.7C46.7333 50.5667 46.6667 50.4667 46.6 50.4C46.4667 50.2667 46.3333 50.1667 46.2 50.1C46.0667 50.1 45.9333 50.0667 45.8 50C45.6667 50 45.5333 50.0333 45.4 50.1C44.9 50.2 45.2 50.7 45.1 51.1C45.1 51.1667 45.1 51.2 45.1 51.2C45.1 51.2667 45.1 51.3 45.1 51.3C45.1 51.3667 45.1 51.4 45.1 51.4C45.1 51.4667 45.1 51.5 45.1 51.5C45.1 51.5667 45.1 51.6 45.1 51.6C45.1 51.6667 45.1 51.7 45.1 51.7C45.1 51.7667 45.1 51.8333 45.1 51.9C45.2 52.2 44.9 52.7 45.3 52.8C45.4333 52.8 45.5667 52.8 45.7 52.8C45.8333 52.8 45.9667 52.8 46.1 52.8C46.1667 52.7333 46.2667 52.6667 46.4 52.6C46.5333 52.5333 46.6333 52.4667 46.7 52.4C46.7667 52.2667 46.8333 52.1333 46.9 52V52Z" fill="white"/>
<path fill-rule="evenodd" clip-rule="evenodd" d="M42.5001 53.0002C42.5001 53.2002 42.4334 53.3002 42.3001 53.3002C42.2001 53.3002 42.0001 53.4002 41.9001 53.2002C41.9001 53.1335 41.9001 53.1002 41.9001 53.1002C41.8334 53.0335 41.8001 52.9668 41.8001 52.9002C41.8001 52.9002 41.8001 52.8668 41.8001 52.8002C41.7334 52.7335 41.7001 52.7002 41.7001 52.7002C41.6001 52.2002 41.3001 52.2002 40.9001 52.2002C40.6001 52.2002 40.3001 52.2002 40.2001 52.7002C40.2001 52.7002 40.2001 52.7335 40.2001 52.8002C40.2001 52.8002 40.2001 52.8335 40.2001 52.9002C40.2001 52.9668 40.1668 53.0002 40.1001 53.0002C40.1001 53.0668 40.1001 53.1002 40.1001 53.1002C40.0001 53.4002 39.8001 53.4002 39.6001 53.3002C39.4001 53.3002 39.5001 53.1002 39.5001 52.9002C39.9001 51.9002 40.2001 50.8002 40.6001 49.8002C40.7001 49.4002 41.2001 49.4002 41.3001 49.7002C41.8001 50.8002 42.1001 52.0002 42.5001 53.0002V53.0002ZM41.0001 50.6002C40.8001 50.9002 40.5001 51.3002 40.7001 51.7002C40.7001 51.8002 41.1001 51.8002 41.2001 51.7002C41.5001 51.3002 41.1001 51.0002 41.0001 50.6002Z" fill="white"/>
<path fill-rule="evenodd" clip-rule="evenodd" d="M63.3999 50.7C63.5332 50.7667 63.6666 50.8667 63.7999 51C63.8666 51.1333 63.9332 51.3 63.9999 51.5C64.0666 51.6333 64.0999 51.8 64.0999 52C63.9999 52.8 63.4999 53.4 62.7999 53.4C62.7332 53.4 62.6666 53.4 62.5999 53.4C62.5332 53.4 62.4666 53.3667 62.3999 53.3C62.3332 53.3 62.2666 53.3 62.1999 53.3C62.1332 53.3 62.0666 53.3 61.9999 53.3C61.9999 53.5667 61.9999 53.8333 61.9999 54.1C61.9999 54.3 61.9999 54.4 61.6999 54.4C61.3999 54.4 61.3999 54.3 61.3999 54.1C61.3999 53.0333 61.3999 51.9667 61.3999 50.9C61.3999 50.7 61.4999 50.5 61.5999 50.6C62.0999 50.8 62.4999 50.5 62.8999 50.5C63.0999 50.5 63.2666 50.5667 63.3999 50.7V50.7ZM63.3999 52C63.3999 51.5 63.2999 51 62.6999 51.1C62.1999 51.1 61.9999 51.5 61.9999 52C61.9999 52.5 62.2999 52.8 62.7999 52.8C63.2999 52.8 63.3999 52.4 63.3999 52V52Z" fill="white"/>
<path fill-rule="evenodd" clip-rule="evenodd" d="M30.1 52.1C30.1 52.3 30.0667 52.4667 30 52.6C29.9333 52.8 29.8667 52.9333 29.8 53C29.6667 53.1333 29.5 53.2333 29.3 53.3C29.1667 53.3667 29 53.4 28.8 53.4C28.8 53.4 28.7667 53.4 28.7 53.4C28.6333 53.4 28.5667 53.3667 28.5 53.3C28.4333 53.3 28.3667 53.3 28.3 53.3C28.2333 53.3 28.1667 53.3 28.1 53.3V54.2C28.1 54.4 28 54.4 27.8 54.4C27.5 54.4 27.5 54.3 27.5 54.1V50.9C27.5 50.7 27.6 50.6 27.7 50.6C28.2 50.8 28.7 50.5 29.2 50.5C29.8 50.6 30.2 51.3 30.1 52.1V52.1ZM28.8 51.1C28.3 51.1 28.2 51.5 28.2 52C28.1 52.5 28.3 52.8 28.8 52.8C29.3 52.9 29.5 52.5 29.5 52C29.5 51.5 29.3 51.1 28.8 51.1Z" fill="white"/>
<path fill-rule="evenodd" clip-rule="evenodd" d="M33.9 49.6C34.0333 49.6667 34.1333 49.7667 34.2 49.9C34.3333 50.0333 34.4333 50.1667 34.5 50.3C34.5 50.4333 34.5 50.5667 34.5 50.7C34.5 50.8333 34.5 50.9667 34.5 51.1C34.4333 51.3 34.3333 51.4333 34.2 51.5C34.1333 51.6333 34.0333 51.7333 33.9 51.8C33.7666 51.8667 33.6333 51.9 33.5 51.9C32.8 51.9 32.8 52.2 32.8 52.7C32.8 52.9 33 53.3 32.5 53.3C32 53.3 32.1 53.1 32.1 52.7C32.1 52.3 32.1 51.9 32.1 51.5C32.1666 51.3667 32.2 51.2667 32.2 51.2C32.2 51.0667 32.2 50.9333 32.2 50.8C32.2 50.7333 32.2 50.6333 32.2 50.5C32.2 50.4333 32.1666 50.3333 32.1 50.2C32.1 49.7 32.4 49.5 32.8 49.5C33 49.5 33.2 49.5 33.4 49.5C33.6 49.5667 33.7666 49.6 33.9 49.6V49.6ZM33.9 50.7C33.9 50.3 33.6 50.1 33.2 50.1C32.7 50 32.7 50.5 32.8 50.7C32.9 50.9 32.6 51.4 33.2 51.4C33.6 51.4 33.9 51.1 33.9 50.7Z" fill="white"/>
<path fill-rule="evenodd" clip-rule="evenodd" d="M54.7002 50.5C54.8335 50.5 55.0002 50.5 55.2002 50.5C55.3335 50.5 55.5002 50.5667 55.7002 50.7C55.8335 50.7667 55.9335 50.8667 56.0002 51C56.0669 51.0667 56.1002 51.1333 56.1002 51.2C56.1669 51.3333 56.2002 51.4333 56.2002 51.5C56.2002 51.5667 56.2002 51.6667 56.2002 51.8C56.2002 51.8667 56.1669 51.9333 56.1002 52C56.0002 52.3 55.6002 52.2 55.4002 52.2C55.3335 52.1333 55.3002 52.1 55.3002 52.1C55.3002 52.1 55.2669 52.1 55.2002 52.1C55.2002 52.1 55.1669 52.1333 55.1002 52.2C54.9002 52.3 54.5002 52 54.4002 52.4C54.4002 52.8 54.9002 52.9 55.2002 52.9C55.2669 52.9 55.3002 52.9 55.3002 52.9C55.3669 52.9 55.4002 52.9 55.4002 52.9C55.4002 52.9 55.4335 52.8667 55.5002 52.8C55.7002 52.8 55.9002 52.7 56.0002 53C56.1002 53.3 55.8002 53.3 55.6002 53.3C55.6002 53.3667 55.5669 53.4 55.5002 53.4C55.4335 53.4 55.4002 53.4 55.4002 53.4C55.3335 53.4 55.3002 53.4 55.3002 53.4C55.2335 53.4 55.2002 53.4 55.2002 53.4C55.0002 53.4 54.8335 53.4 54.7002 53.4C54.5669 53.3333 54.4335 53.2667 54.3002 53.2C54.1669 53.1333 54.0669 53.0333 54.0002 52.9C53.9335 52.7667 53.8669 52.6333 53.8002 52.5C53.7335 52.3667 53.7002 52.2 53.7002 52C53.7002 51.8667 53.7335 51.7333 53.8002 51.6C53.8002 51.4 53.8335 51.2333 53.9002 51.1C54.0335 50.9667 54.1669 50.8667 54.3002 50.8C54.4335 50.6667 54.5669 50.5667 54.7002 50.5V50.5ZM55.0002 51.7C55.1002 51.5 55.5002 51.8 55.4002 51.4C55.4002 51.1 55.2002 51 55.0002 51C54.9335 51 54.8669 51 54.8002 51C54.7335 51 54.6669 51.0333 54.6002 51.1C54.5335 51.1667 54.5002 51.2 54.5002 51.2C54.5002 51.2667 54.4669 51.3333 54.4002 51.4C54.4002 51.8 54.8002 51.6 55.0002 51.7V51.7Z" fill="white"/>
<path fill-rule="evenodd" clip-rule="evenodd" d="M49.1001 50.5C49.2334 50.5 49.4001 50.5 49.6001 50.5C49.8001 50.5667 49.9668 50.6333 50.1001 50.7C50.2334 50.8333 50.3334 51 50.4001 51.2C50.7001 51.9 50.6001 52.2 49.8001 52.2C49.8001 52.1333 49.7668 52.1 49.7001 52.1C49.7001 52.1 49.6668 52.1 49.6001 52.1C49.6001 52.1 49.5668 52.1 49.5001 52.1C49.5001 52.1 49.4668 52.1333 49.4001 52.2C49.2001 52.2 48.8001 51.9 48.8001 52.3C48.8001 52.7 49.2001 52.8 49.5001 52.9H49.6001C49.9001 52.9 50.4001 52.5 50.4001 53.1C50.3001 53.4 49.8001 53.4 49.5001 53.4C49.3668 53.4 49.2334 53.4 49.1001 53.4C48.9668 53.3333 48.8334 53.2667 48.7001 53.2C48.5668 53.1333 48.4668 53.0667 48.4001 53C48.3334 52.8667 48.2668 52.7333 48.2001 52.6C48.1334 52.4667 48.1001 52.3 48.1001 52.1C48.1001 51.9667 48.1001 51.8 48.1001 51.6C48.1668 51.4667 48.2334 51.3333 48.3001 51.2C48.3668 51.0667 48.4668 50.9333 48.6001 50.8C48.7334 50.6667 48.9001 50.5667 49.1001 50.5V50.5ZM49.5001 51C49.1001 50.9 48.9001 51.2 48.8001 51.6C49.2001 51.6 49.6001 51.8 49.8001 51.5C49.9001 51.3 49.7001 51.1 49.5001 51Z" fill="white"/>
<path fill-rule="evenodd" clip-rule="evenodd" d="M65.4 50.6C65.6 50.5333 65.7667 50.5 65.9 50.5C66.1 50.5 66.2667 50.5667 66.4 50.7C66.5333 50.7667 66.6333 50.8667 66.7 51C66.7667 51.0667 66.8333 51.1667 66.9 51.3C66.9 51.3667 66.9333 51.4333 67 51.5C67 51.5667 67 51.6667 67 51.8C67 51.8667 66.9667 51.9333 66.9 52C66.8 52.3 66.3 52.2 66.2 52.2C66.1 52.2 66.1 52.1 65.9 52.2C65.6 52.2 65.2 52 65.2 52.4C65.2 52.7 65.6 52.8 65.9 52.9H66C66.3 52.9 66.8 52.5 66.8 53.1C66.8 53.4 66.2 53.3 66 53.4C65.8 53.4 65.6333 53.4 65.5 53.4C65.3667 53.4 65.2333 53.3333 65.1 53.2C65.0333 53.1333 64.9333 53.0667 64.8 53C64.7333 52.8667 64.6667 52.7333 64.6 52.6C64.5333 52.4667 64.5 52.3 64.5 52.1C64.5 51.9667 64.5 51.8 64.5 51.6C64.5667 51.4667 64.6333 51.3333 64.7 51.2C64.7667 51.0667 64.8667 50.9333 65 50.8C65.1333 50.6667 65.2667 50.6 65.4 50.6ZM65.8 51.7C65.9 51.5 66.2 51.7 66.2 51.4C66.2 51.2 66 51 65.7 51C65.7 51 65.6667 51 65.6 51C65.5333 51.0667 65.4667 51.1 65.4 51.1C65.3333 51.1667 65.3 51.2333 65.3 51.3C65.2333 51.3667 65.2 51.4 65.2 51.4C65.2 51.8 65.6 51.6 65.8 51.7V51.7Z" fill="white"/>
<path fill-rule="evenodd" clip-rule="evenodd" d="M26.1002 50.6C26.2335 50.6667 26.3669 50.7667 26.5002 50.9C26.6335 51.0333 26.7335 51.2 26.8002 51.4C26.8669 51.5333 26.9002 51.7 26.9002 51.9C26.9002 52.1 26.8669 52.3 26.8002 52.5C26.7335 52.7 26.6335 52.8667 26.5002 53C26.3669 53.1333 26.2335 53.2333 26.1002 53.3C25.9002 53.3667 25.7002 53.4 25.5002 53.4C25.3002 53.4 25.1335 53.3667 25.0002 53.3C24.8002 53.2333 24.6669 53.1333 24.6002 53C24.4669 52.8667 24.3669 52.7 24.3002 52.5C24.2335 52.3667 24.2002 52.2 24.2002 52C24.2002 51.8 24.2335 51.6333 24.3002 51.5C24.3002 51.3 24.3669 51.1333 24.5002 51C24.6335 50.8667 24.8002 50.7333 25.0002 50.6C25.1335 50.5333 25.3002 50.5 25.5002 50.5C25.7002 50.5 25.9002 50.5333 26.1002 50.6ZM25.6002 52.9C26.1002 52.9 26.2002 52.4 26.2002 52C26.2002 51.5 26.1002 51.1 25.5002 51.1C25.0002 51 24.8002 51.5 24.8002 52C24.8002 52.5 25.0002 52.9 25.5002 52.9H25.6002Z" fill="white"/>
<path fill-rule="evenodd" clip-rule="evenodd" d="M60.0001 50.6C60.2001 50.6667 60.3668 50.7667 60.5001 50.9C60.6334 51.1 60.7001 51.2667 60.7001 51.4C60.7668 51.6 60.8001 51.8 60.8001 52C60.8001 52.2 60.7668 52.3667 60.7001 52.5C60.6334 52.7 60.5334 52.8667 60.4001 53C60.2668 53.1333 60.1334 53.2333 60.0001 53.3C59.8001 53.3667 59.6001 53.4 59.4001 53.4C59.2668 53.4 59.1001 53.3667 58.9001 53.3C58.7001 53.2333 58.5334 53.1333 58.4001 53C58.2668 52.8667 58.2001 52.7333 58.2001 52.6C58.1334 52.4 58.1001 52.2 58.1001 52C58.1001 51.8 58.1001 51.6 58.1001 51.4C58.1668 51.2667 58.2668 51.1333 58.4001 51C58.5334 50.8 58.7001 50.6667 58.9001 50.6C59.0334 50.5333 59.2001 50.5 59.4001 50.5C59.6001 50.5 59.8001 50.5333 60.0001 50.6ZM60.1001 51.9C60.1001 51.4 60.0001 51 59.4001 51C58.9001 51 58.7001 51.6 58.8001 52C58.8001 52.5 59.0001 52.9 59.4001 52.9C60.0001 52.9 60.2001 52.4 60.1001 51.9Z" fill="white"/>
<path d="M24 50.1C23.3 50 23.3 50.3 23.3 51C23.3 51.6667 23.3 52.3 23.3 52.9C23.3 53.2 23.2 53.4 22.9 53.4C22.6 53.4 22.6 53.2 22.6 53C22.6 52.6 22.6 52.2 22.6 51.8C22.6 51.5333 22.6 51.3 22.6 51.1C22.7 50.5 22.7 50 21.8 50.1C21.8 50.1 21.7667 50.1 21.7 50.1C21.6333 50.1 21.6 50.1 21.6 50.1C21.6 50.0333 21.5667 50 21.5 50C21.5 49.9333 21.5 49.9 21.5 49.9C21.5 49.7 21.6 49.5667 21.8 49.5H24.1C24.2333 49.5667 24.3 49.6667 24.3 49.8C24.3 50.1 24.2 50.1 24 50.1V50.1Z" fill="white"/>
<path d="M53.3002 51.1008C53.1002 51.7675 52.8669 52.4008 52.6002 53.0008C52.5002 53.2008 52.5002 53.4008 52.2002 53.4008C51.9002 53.4008 51.8002 53.2008 51.8002 53.0008C51.5336 52.3342 51.2669 51.6675 51.0002 51.0008C50.9002 50.9008 50.8002 50.7008 51.0002 50.6008C51.2002 50.5008 51.5002 50.5008 51.6002 50.8008L52.2002 52.5008C52.4002 51.8008 52.6002 51.4008 52.7002 50.9008C52.8002 50.6008 53.0002 50.5008 53.2002 50.6008C53.6002 50.7008 53.4002 51.0008 53.3002 51.1008V51.1008Z" fill="white"/>
<path d="M71.2001 52.7C71.1001 53.3 70.6001 53.4 70.1001 53.4C70.0335 53.4 70.0001 53.4 70.0001 53.4C69.9335 53.4 69.9001 53.4 69.9001 53.4C69.8335 53.4 69.8001 53.3667 69.8001 53.3C69.7335 53.3 69.7001 53.3 69.7001 53.3C69.5001 53.3 69.3001 53.2 69.4001 53C69.5001 52.8 69.5001 52.7 69.8001 52.8C70.1001 52.9 70.5001 53 70.5001 52.6C70.6001 52.3 70.2001 52.2 70.0001 52.1C69.5001 51.9 69.3001 51.5 69.5001 51C69.6335 50.8667 69.7335 50.7667 69.8001 50.7C69.9335 50.6333 70.0668 50.5667 70.2001 50.5C70.3335 50.5 70.4668 50.5 70.6001 50.5C70.7335 50.5 70.8335 50.5333 70.9001 50.6C71.0001 50.7 71.2001 50.7 71.1001 50.9C71.0001 51.1 70.9001 51.2 70.7001 51.1C70.5001 51 70.2001 51 70.1001 51.3C70.0001 51.6 70.4001 51.6 70.5001 51.7C71.0001 51.9 71.3001 52.1 71.2001 52.7V52.7Z" fill="white"/>
<path d="M57.3998 49.7991V52.9991C57.3998 53.1991 57.3998 53.2991 57.0998 53.2991C56.7998 53.2991 56.7998 53.1991 56.7998 52.8991V49.7991C56.7998 49.5991 56.7998 49.3991 57.0998 49.3991C57.3998 49.2991 57.3998 49.4991 57.3998 49.7991Z" fill="white"/>
<path d="M69.0001 50.7C69.0001 50.8 69.1001 51.1 68.9001 51.1C68.0001 51.2 68.2001 51.9 68.2001 52.5C68.2001 52.6 68.2001 52.8 68.2001 52.9C68.2001 53.1 68.2001 53.3 67.9001 53.3C67.7001 53.3 67.6001 53.2 67.6001 52.9C67.6001 52.6333 67.6001 52.3 67.6001 51.9V51.8C67.6001 50.5 67.6001 50.5 68.7001 50.5C68.8001 50.5 69.0001 50.5 69.0001 50.7Z" fill="white"/>
</svg>
