<svg xmlns="http://www.w3.org/2000/svg" xmlns:xlink="http://www.w3.org/1999/xlink" width="53.355" height="27.444" viewBox="0 0 53.355 27.444">
  <defs>
    <linearGradient id="linear-gradient" x1="0.5" x2="0.5" y2="1" gradientUnits="objectBoundingBox">
      <stop offset="0.4" stop-color="#ee2d2f"/>
      <stop offset="1" stop-color="#f4792f"/>
    </linearGradient>
  </defs>
  <path id="Union_7" data-name="Union 7" d="M53.355,27.439H44.971l-6.37-8L32.29,27.424H23.853l.058-.076L21.578,22.43q-.381.424-.8.829a16.045,16.045,0,0,1-1.325,1.135c-.181.137-.367.272-.553.4q-.421.294-.859.552c-.1.058-.2.113-.292.168a14.453,14.453,0,0,1-4.8,1.668c-.076.012-.148.024-.223.035l-.189.028q-.311.042-.624.076c-.241.021-.483.038-.729.052-.125.008-.248.014-.373.018H10.7a.391.391,0,0,0-.049,0l-.066.005a.254.254,0,0,1-.058,0,.657.657,0,0,1-.082.008.124.124,0,0,0-.027,0c-.07.005-.1.005-.13.005H0V8.758H.01l6.344-.027c.606,0,1.483.014,2.1.021v10.2l.2,0c.3.008.595.007.9.016s.61.011.922-.007c.291-.017.582-.03.874-.045a5.12,5.12,0,0,0,0-10.237H9.177s-.3,0-.727-.012c-.614-.007-1.491-.019-2.1-.019L.011,8.677H0V0H10.283A14.6,14.6,0,0,1,20.617,3.947c.088.083.177.162.265.252l.257.258a13.034,13.034,0,0,1,3.2,5.183c.024.076.046.146.069.223a12.515,12.515,0,0,1,.44,2.073q.042.343.069.686c.024.347.037.7.034,1.05q0,.375-.019.744l3.43,7.33L38.482,8.993V8.754l.1.12.095-.12v.24l6.386,8.023.048-12.325h8.25Z" transform="translate(0 0.005)" fill="url(#linear-gradient)"/>
</svg>
