<svg xmlns="http://www.w3.org/2000/svg" xmlns:xlink="http://www.w3.org/1999/xlink" width="168.271" height="47.527" viewBox="0 0 168.271 47.527">
  <defs>
    <linearGradient id="linear-gradient" x1="0.5" x2="0.5" y2="1" gradientUnits="objectBoundingBox">
      <stop offset="0" stop-color="#ee2d2f"/>
      <stop offset="1" stop-color="#f4792f"/>
    </linearGradient>
  </defs>
  <g id="Group_82947" data-name="Group 82947" transform="translate(-100 -58)">
    <g id="Group_77642" data-name="Group 77642" transform="translate(160.053 66.963)">
      <path id="Path_706" data-name="Path 706" d="M3858.311,208.67a3.73,3.73,0,0,1,1.79.47,3.344,3.344,0,0,1,1.36,1.346,3.659,3.659,0,0,1,.008,3.634,3.384,3.384,0,0,1-1.347,1.346,3.658,3.658,0,0,1-3.623,0,3.394,3.394,0,0,1-1.346-1.346,3.64,3.64,0,0,1,.007-3.635,3.354,3.354,0,0,1,1.362-1.346A3.734,3.734,0,0,1,3858.311,208.67Zm0,.6a3.1,3.1,0,0,0-1.493.393,2.821,2.821,0,0,0-1.136,1.124,3.029,3.029,0,0,0-.007,3.029,2.861,2.861,0,0,0,1.127,1.123,3.029,3.029,0,0,0,3.019,0,2.84,2.84,0,0,0,1.124-1.123,3.042,3.042,0,0,0-.007-3.029,2.806,2.806,0,0,0-1.136-1.124A3.109,3.109,0,0,0,3858.311,209.273Zm-1.6,5.049v-3.916h1.346a3.275,3.275,0,0,1,1,.109.967.967,0,0,1,.493.379,1.008,1.008,0,0,1,.183.574,1.043,1.043,0,0,1-.306.748,1.214,1.214,0,0,1-.813.357,1.076,1.076,0,0,1,.333.207,4.458,4.458,0,0,1,.579.777l.477.766h-.772l-.347-.617a3.15,3.15,0,0,0-.661-.912.815.815,0,0,0-.5-.135h-.371v1.664Zm.63-2.2h.767a1.238,1.238,0,0,0,.751-.164.565.565,0,0,0,.1-.745.578.578,0,0,0-.268-.2,1.965,1.965,0,0,0-.634-.068h-.72Z" transform="translate(-3753.729 -208.67)" fill="#242424"/>
      <path id="Path_707" data-name="Path 707" d="M1460.385,400.592a.411.411,0,0,1-.3-.124.424.424,0,0,1-.131-.311v-9.536a.425.425,0,0,1,.131-.312.4.4,0,0,1,.3-.131h2.415a5.193,5.193,0,0,1,0,10.385l-2.407.029Zm.435-.877,1.973-.029a4.316,4.316,0,1,0,.007-8.632h-1.978Z" transform="translate(-1459.769 -382.541)" fill="#242424" stroke="#000" stroke-width="0.3"/>
      <path id="Path_708" data-name="Path 708" d="M1456.283,396.665h-.008a.589.589,0,0,1-.432-.176.6.6,0,0,1-.183-.439v-9.537a.6.6,0,0,1,.183-.439.584.584,0,0,1,.432-.184h2.415a5.373,5.373,0,0,1,0,10.746Zm-.008-10.414a.221.221,0,0,0-.173.074.252.252,0,0,0-.081.188v9.536a.244.244,0,0,0,.077.184.234.234,0,0,0,.177.071l.007.18,0-.18,2.408-.029a5.012,5.012,0,0,0,0-10.024Zm.252,9.539v-9.024h2.16a4.5,4.5,0,1,1-.007,8.992Zm.361-8.661v8.294l1.789-.026a4.135,4.135,0,1,0,.01-8.269Z" transform="translate(-1455.659 -378.432)" fill="#242424"/>
      <path id="Path_709" data-name="Path 709" d="M1704.433,401.068a.446.446,0,0,1-.435-.435v-9.546a.4.4,0,0,1,.13-.3.384.384,0,0,1,.3-.13l5.758.015a.4.4,0,0,1,.305.13.43.43,0,0,1,0,.616.415.415,0,0,1-.305.123l-5.323-.014v3.9h3.981a.435.435,0,0,1,0,.871h-3.981v3.9h5.323a.435.435,0,1,1,0,.87Z" transform="translate(-1693.548 -382.995)" fill="#242424" stroke="#000" stroke-width="0.3"/>
      <path id="Path_710" data-name="Path 710" d="M1706.072,397.137h-5.758a.586.586,0,0,1-.436-.187.579.579,0,0,1-.18-.429v-9.546a.587.587,0,0,1,.187-.436.561.561,0,0,1,.412-.18h.025l5.751.014a.625.625,0,0,1,.615.616.609.609,0,0,1-.183.439.589.589,0,0,1-.433.176l-5.141-.011v3.54h3.8a.59.59,0,0,1,.436.187.58.58,0,0,1,.179.428.587.587,0,0,1-.187.436.58.58,0,0,1-.429.18h-3.8v3.541h5.142a.586.586,0,0,1,.436.187.578.578,0,0,1,.18.428.584.584,0,0,1-.187.436A.577.577,0,0,1,1706.072,397.137Zm-5.762-10.414a.21.21,0,0,0-.168.074.231.231,0,0,0-.081.181v9.544a.222.222,0,0,0,.071.174.229.229,0,0,0,.181.081h5.758a.224.224,0,0,0,.174-.074.23.23,0,0,0,.08-.181.222.222,0,0,0-.074-.173.229.229,0,0,0-.181-.081h-5.5V392h4.162a.22.22,0,0,0,.173-.074.229.229,0,0,0,.082-.181.221.221,0,0,0-.074-.173.231.231,0,0,0-.181-.082h-4.162v-4.263l5.5.016a.232.232,0,0,0,.176-.071.244.244,0,0,0,.078-.184.238.238,0,0,0-.078-.177.225.225,0,0,0-.177-.078l-5.758-.014Z" transform="translate(-1689.429 -378.883)" fill="#242424"/>
      <path id="Path_711" data-name="Path 711" d="M1893.665,395.995a3.492,3.492,0,0,1-2.625-.964,2.31,2.31,0,0,1-.667-1.748,2.884,2.884,0,0,1,.993-2.074,3.185,3.185,0,0,1,2.226-.849,4.285,4.285,0,0,1,2.046.479,2.541,2.541,0,0,1,1.364,1.646.421.421,0,0,1-.312.522.39.39,0,0,1-.326-.042.4.4,0,0,1-.2-.262,1.745,1.745,0,0,0-1.016-1.145,3.5,3.5,0,0,0-1.559-.334,2.363,2.363,0,0,0-1.631.609,2.077,2.077,0,0,0-.726,1.494,1.458,1.458,0,0,0,.436,1.11,2.706,2.706,0,0,0,2.009.7.432.432,0,1,1-.007.863Zm-1.914,4.3a2.561,2.561,0,0,1-1.364-1.653.433.433,0,0,1,.042-.327.426.426,0,0,1,.269-.2.433.433,0,0,1,.326.042.426.426,0,0,1,.2.261,1.76,1.76,0,0,0,1.016,1.153,3.553,3.553,0,0,0,1.557.327,2.364,2.364,0,0,0,1.632-.61,2.066,2.066,0,0,0,.725-1.486,1.467,1.467,0,0,0-.435-1.117,2.707,2.707,0,0,0-2.009-.7.4.4,0,0,1-.3-.13.433.433,0,0,1-.123-.3.424.424,0,0,1,.138-.3.412.412,0,0,1,.3-.123,3.514,3.514,0,0,1,2.625.972,2.266,2.266,0,0,1,.66,1.74,2.862,2.862,0,0,1-.986,2.074,3.178,3.178,0,0,1-2.226.849A4.318,4.318,0,0,1,1891.75,400.295Z" transform="translate(-1872.078 -382.715)" fill="#242424"/>
      <path id="Path_712" data-name="Path 712" d="M1889.68,396.8a4.531,4.531,0,0,1-2.129-.492,2.748,2.748,0,0,1-1.455-1.767.6.6,0,0,1,.443-.744.624.624,0,0,1,.456.057.611.611,0,0,1,.285.374,1.576,1.576,0,0,0,.919,1.036,3.405,3.405,0,0,0,1.48.309,2.173,2.173,0,0,0,1.512-.564,1.868,1.868,0,0,0,.665-1.361,1.282,1.282,0,0,0-.386-.983,2.546,2.546,0,0,0-1.881-.64h-.042a3.683,3.683,0,0,1-2.757-1.021,2.5,2.5,0,0,1-.715-1.88,3.084,3.084,0,0,1,1.052-2.2,3.373,3.373,0,0,1,2.347-.895,4.485,4.485,0,0,1,2.13.5,2.723,2.723,0,0,1,1.453,1.76.6.6,0,0,1-.443.743.586.586,0,0,1-.463-.066.579.579,0,0,1-.277-.371,1.555,1.555,0,0,0-.917-1.027,3.334,3.334,0,0,0-1.482-.316,2.171,2.171,0,0,0-1.511.563,1.875,1.875,0,0,0-.665,1.368,1.273,1.273,0,0,0,.385.976,2.542,2.542,0,0,0,1.881.64h.042a3.707,3.707,0,0,1,2.757,1.029,2.457,2.457,0,0,1,.709,1.874,3.051,3.051,0,0,1-1.045,2.2A3.378,3.378,0,0,1,1889.68,396.8Zm-2.987-2.661a.258.258,0,0,0-.064.008.24.24,0,0,0-.183.3,2.378,2.378,0,0,0,1.273,1.54,4.181,4.181,0,0,0,1.96.45,3.025,3.025,0,0,0,2.1-.8,2.659,2.659,0,0,0,.926-1.948,2.076,2.076,0,0,0-.61-1.609,3.079,3.079,0,0,0-1.97-.884.6.6,0,0,1-.03.5,2.556,2.556,0,0,1,1.632.72,1.648,1.648,0,0,1,.484,1.249,2.25,2.25,0,0,1-.785,1.613,2.544,2.544,0,0,1-1.753.655,3.76,3.76,0,0,1-1.636-.345,1.942,1.942,0,0,1-1.113-1.27.244.244,0,0,0-.116-.153.263.263,0,0,0-.118-.033Zm2.884-2.972a.224.224,0,0,0-.147.069.248.248,0,0,0-.084.184.245.245,0,0,0,.074.174.22.22,0,0,0,.155.073.25.25,0,0,0,0-.5Zm-.1-4.774a3.028,3.028,0,0,0-2.1.8,2.693,2.693,0,0,0-.935,1.949,2.122,2.122,0,0,0,.618,1.616,3.062,3.062,0,0,0,1.97.877.594.594,0,0,1,.031-.5,2.576,2.576,0,0,1-1.635-.721,1.637,1.637,0,0,1-.484-1.241,2.252,2.252,0,0,1,.785-1.62,2.545,2.545,0,0,1,1.752-.655,3.694,3.694,0,0,1,1.639.353,1.915,1.915,0,0,1,1.111,1.262.22.22,0,0,0,.111.149.208.208,0,0,0,.186.027.252.252,0,0,0,.165-.118.243.243,0,0,0,.022-.187,2.346,2.346,0,0,0-1.272-1.53A4.148,4.148,0,0,0,1889.479,386.393Z" transform="translate(-1867.963 -378.568)" fill="#242424" stroke="#000" stroke-width="0.3"/>
      <path id="Path_713" data-name="Path 713" d="M2094.491,401.456a.436.436,0,0,1-.871,0v-9.5a.436.436,0,0,1,.871,0Z" transform="translate(-2066.777 -383.839)" fill="#242424" stroke="#000" stroke-width="0.3"/>
      <path id="Path_714" data-name="Path 714" d="M2089.965,397.661a.586.586,0,0,1-.436-.187.576.576,0,0,1-.18-.429v-9.5a.586.586,0,0,1,.188-.436.579.579,0,0,1,.429-.18.586.586,0,0,1,.435.187.579.579,0,0,1,.18.428v9.5a.587.587,0,0,1-.187.436A.579.579,0,0,1,2089.965,397.661Zm0-10.37a.222.222,0,0,0-.174.074.231.231,0,0,0-.081.181v9.5a.22.22,0,0,0,.074.173.229.229,0,0,0,.181.081.221.221,0,0,0,.173-.074.231.231,0,0,0,.082-.181v-9.5a.222.222,0,0,0-.074-.173.228.228,0,0,0-.18-.081Z" transform="translate(-2062.685 -379.428)" fill="#242424"/>
      <path id="Path_715" data-name="Path 715" d="M2161.94,399.059a5.2,5.2,0,0,1,3.677-8.884,5.072,5.072,0,0,1,3.169,1.073.429.429,0,0,1,.168.29.4.4,0,0,1-.086.327.408.408,0,0,1-.291.166.425.425,0,0,1-.319-.087,4.218,4.218,0,0,0-2.64-.9,4.333,4.333,0,1,0,2.916,7.542.437.437,0,0,1,.319-.116.42.42,0,0,1,.305.145.449.449,0,0,1-.029.616,5.2,5.2,0,0,1-7.188-.174Zm6.665,1.4a.414.414,0,0,1-.124-.3v-4.6h-3.641a.44.44,0,0,1-.312-.123.426.426,0,0,1-.13-.312.4.4,0,0,1,.13-.3.428.428,0,0,1,.312-.13h4.076a.427.427,0,0,1,.312.13.415.415,0,0,1,.124.3v5.033a.416.416,0,0,1-.124.305.437.437,0,0,1-.623,0Z" transform="translate(-2130.757 -382.538)" fill="#242424" stroke="#000" stroke-width="0.3"/>
      <path id="Path_716" data-name="Path 716" d="M2164.807,396.681a.6.6,0,0,1-.439-.183.589.589,0,0,1-.176-.433v-.088a5.255,5.255,0,0,1-2.684.7,5.388,5.388,0,0,1,0-10.775,5.271,5.271,0,0,1,3.279,1.111.608.608,0,0,1,.236.411.582.582,0,0,1-.126.463.59.59,0,0,1-.41.234.613.613,0,0,1-.45-.122,4.055,4.055,0,0,0-2.531-.863,4.152,4.152,0,1,0,2.684,7.325v-2.817h-3.46a.616.616,0,0,1-.436-.173.606.606,0,0,1-.187-.443.586.586,0,0,1,.187-.436.6.6,0,0,1,.436-.18h4.076a.613.613,0,0,1,.616.616v5.033a.591.591,0,0,1-.176.432A.6.6,0,0,1,2164.807,396.681Zm-.254-.934v.318a.234.234,0,0,0,.071.177.252.252,0,0,0,.368,0,.236.236,0,0,0,.07-.177v-.719a5.764,5.764,0,0,1-.509.4Zm-3.045-9.48a5.026,5.026,0,1,0,2.684,9.286v-.629a4.518,4.518,0,1,1,.066-7.212.25.25,0,0,0,.187.051.257.257,0,0,0,.221-.286.256.256,0,0,0-.1-.178,4.919,4.919,0,0,0-3.058-1.033Zm3.045,8.358v.673c.117-.09.232-.186.344-.287a.268.268,0,0,0,.015-.363.234.234,0,0,0-.177-.084h0a.265.265,0,0,0-.182.061Zm.168-.423h.027a.594.594,0,0,1,.313.1v-3.271a.235.235,0,0,0-.07-.177.248.248,0,0,0-.185-.078h-4.075a.245.245,0,0,0-.184.078.226.226,0,0,0-.078.176.248.248,0,0,0,.078.184.256.256,0,0,0,.184.071h3.821v2.937a.62.62,0,0,1,.169-.023Z" transform="translate(-2126.647 -378.449)" fill="#242424"/>
      <path id="Path_717" data-name="Path 717" d="M2426.611,400.094l-.008-.007-.007-.007-6.636-8.55v8.281a.435.435,0,1,1-.87,0V390.26a.433.433,0,0,1,.776-.268l6.643,8.551V390.26a.434.434,0,0,1,.428-.435.424.424,0,0,1,.311.131.412.412,0,0,1,.123.3v9.579a.124.124,0,0,1-.007.042.114.114,0,0,1-.007.036.273.273,0,0,1-.014.042.253.253,0,0,0-.015.036.09.09,0,0,1-.021.036.387.387,0,0,1-.051.073l-.029.029c-.025.02-.032.024-.022.015s0,0-.015.015a.119.119,0,0,1-.021.014.2.2,0,0,1-.042.022l-.029.014a.345.345,0,0,1-.05.015.1.1,0,0,1-.029.007.453.453,0,0,1-.079.007.513.513,0,0,1-.087-.007l-.029-.007c-.024-.01-.042-.017-.058-.022a.2.2,0,0,0-.029-.021.5.5,0,0,1-.051-.029.246.246,0,0,0-.029-.022c-.014-.015-.022-.022-.022-.022Z" transform="translate(-2378.553 -382.195)" fill="#242424" stroke="#000" stroke-width="0.3"/>
      <path id="Path_718" data-name="Path 718" d="M2422.818,396.273a.708.708,0,0,1-.119-.01l-.064-.017a.493.493,0,0,1-.169-.092.772.772,0,0,1-.133-.117l-6.311-8.134v7.753a.591.591,0,0,1-.187.437.616.616,0,0,1-1.044-.436v-9.551a.581.581,0,0,1,.411-.584.693.693,0,0,1,.224-.042.57.57,0,0,1,.465.246l6.319,8.134v-7.754a.611.611,0,0,1,1.048-.432.591.591,0,0,1,.177.432v9.418a.8.8,0,0,1-.168.558l-.062.057-.016.013a.262.262,0,0,1-.038.027l-.009.005a.337.337,0,0,1-.063.032l-.042.02-.063.018a.228.228,0,0,1-.052.011A.61.61,0,0,1,2422.818,396.273Zm-.062-.367.017,0a.356.356,0,0,0,.093,0h.005l.038-.01.048-.024.087-.1a.352.352,0,0,1,.021-.046V395.7l.01-.029,0-.018v-9.549a.232.232,0,0,0-.071-.177.244.244,0,0,0-.361,0,.235.235,0,0,0-.071.177v8.809l-6.966-8.966a.214.214,0,0,0-.179-.1.324.324,0,0,0-.106.02.224.224,0,0,0-.168.242v9.551a.223.223,0,0,0,.074.174.229.229,0,0,0,.18.081.221.221,0,0,0,.173-.074.23.23,0,0,0,.081-.18v-8.809l6.99,9,.021.016.023.013.021.012.015.011Z" transform="translate(-2374.433 -378.041)" fill="#242424"/>
      <path id="Path_719" data-name="Path 719" d="M2751.2,400.929a5.2,5.2,0,1,1,3.676-1.523A5.013,5.013,0,0,1,2751.2,400.929Zm0-9.536a4.357,4.357,0,1,0,3.061,1.276,4.157,4.157,0,0,0-3.061-1.276Z" transform="translate(-2691.707 -382.878)" fill="#242424" stroke="#000" stroke-width="0.3"/>
      <path id="Path_720" data-name="Path 720" d="M2747.11,397.011a5.38,5.38,0,1,1,3.8-1.576A5.208,5.208,0,0,1,2747.11,397.011Zm0-10.4a5.018,5.018,0,1,0,3.55,1.47,4.858,4.858,0,0,0-3.55-1.47Zm0,9.529a4.526,4.526,0,1,1,3.188-1.322,4.362,4.362,0,0,1-3.188,1.322Zm0-8.668a4.178,4.178,0,1,0,2.933,1.224,4,4,0,0,0-2.933-1.224Z" transform="translate(-2687.617 -378.778)" fill="#242424"/>
      <path id="Path_721" data-name="Path 721" d="M3130.061,389.208a.416.416,0,0,1,.252.225.439.439,0,0,1,.015.333l-3.351,9.551s-.005,0-.015.029a.056.056,0,0,0-.008.021.189.189,0,0,1-.036.051v.007l-.008.008a.452.452,0,0,1-.05.058l-.014.015q-.025.016-.051.029a.1.1,0,0,1-.021.014.5.5,0,0,1-.051.029h-.007a.006.006,0,0,0-.005,0,0,0,0,0,0,0,.005s0,0-.007,0a.21.21,0,0,1-.042.014h-.022a.354.354,0,0,1-.073.008.316.316,0,0,1-.064-.008h-.022a.507.507,0,0,1-.051-.014s-.007,0-.007,0a0,0,0,0,0,0-.005l-.005,0a.379.379,0,0,1-.058-.029.1.1,0,0,1-.021-.014l-.042-.029-.015-.015-.058-.058v-.008a.005.005,0,0,1-.005,0,.007.007,0,0,1,0-.005.416.416,0,0,1-.029-.051s0-.012-.014-.021-.007-.034-.007-.029l-2.945-8.384-2.945,8.384s-.005,0-.015.029a.056.056,0,0,0-.007.021.2.2,0,0,1-.036.051v.007l-.007.008a.521.521,0,0,1-.051.058l-.014.015-.042.029a.075.075,0,0,0-.022.014l-.058.029h-.006l-.008.007c.005,0,0,0-.007,0a.2.2,0,0,1-.042.014h-.022a.35.35,0,0,1-.072.008.318.318,0,0,1-.066-.008h-.022a.477.477,0,0,1-.05-.014h0l-.007-.007h-.008l-.057-.029a.1.1,0,0,1-.022-.014l-.042-.029c-.014-.015-.02-.019-.014-.015a.449.449,0,0,1-.052-.058s-.006,0-.006-.008l-.008-.007a.416.416,0,0,1-.029-.051.049.049,0,0,0-.007-.021c-.009-.024-.014-.034-.014-.029l-3.351-9.551a.4.4,0,0,1,.014-.333.426.426,0,0,1,.58-.2.449.449,0,0,1,.225.247l2.935,8.383,2.946-8.383c-.005.014,0,.007.014-.022s.01-.029.015-.042a.135.135,0,0,0,.021-.029.2.2,0,0,1,.029-.037.07.07,0,0,1,.029-.029l.029-.029.029-.029a.207.207,0,0,1,.042-.022l.037-.014c.034-.015.042-.019.021-.015s0,.005.016,0a.3.3,0,0,0,.042-.014.1.1,0,0,0,.042-.007h.087a.056.056,0,0,0,.036.007.263.263,0,0,1,.042.014c.02.005.026.005.022,0l.007.008a.021.021,0,0,1,.015.007l.037.014a.257.257,0,0,0,.036.022.211.211,0,0,0,.037.029l.029.029.029.029a.1.1,0,0,1,.022.037.1.1,0,0,1,.021.029.154.154,0,0,1,.022.042c.015.029.017.036.007.022l2.945,8.383,2.946-8.383a.416.416,0,0,1,.225-.247l.159-.08Z" transform="translate(-3046.21 -381.556)" fill="#242424"/>
      <path id="Path_722" data-name="Path 722" d="M3119.507,385.866a.657.657,0,0,1,.135.233l2.761,7.861,2.773-7.9a.621.621,0,0,1,1.019-.231.6.6,0,0,1,.119.168.621.621,0,0,1,.023.469l-3.366,9.6a.63.63,0,0,1-.97.232.8.8,0,0,1-.175-.278l-2.773-7.9s-2.788,7.933-2.791,7.942a.558.558,0,0,1-.336.329.619.619,0,0,1-.808-.371l-3.35-9.551a.582.582,0,0,1,.023-.474.608.608,0,0,1,.823-.284.633.633,0,0,1,.312.343l2.769,7.9.029-.084.047-.133c.024-.071.05-.142.075-.214l.107-.305.136-.387q.078-.224.157-.448.084-.244.172-.489l.18-.516.189-.539q.1-.276.194-.553l.2-.561c.067-.187.132-.373.2-.56l.192-.547q.091-.26.183-.522l.169-.486.151-.435c.042-.126.086-.249.13-.373q.053-.151.107-.3c.028-.079.057-.157.087-.236.024-.062.048-.126.072-.187a.7.7,0,0,1,.244-.337.649.649,0,0,1,.721.053A.632.632,0,0,1,3119.507,385.866Zm-3.858,10.205.015.012,0-.015a.088.088,0,0,0,.063,0l0,.014.034-.033.049-.009.026-.016.023-.016.005,0V396l.05-.058a.19.19,0,0,1,.012-.029.205.205,0,0,1,.013-.029l3.107-8.847,3.111,8.857h.072l.007.12.049.032h.221l.042-.026.019-.01h0l0-.005V396l.05-.058.009-.021a.231.231,0,0,1,.016-.034l3.344-9.533a.26.26,0,0,0-.009-.2.235.235,0,0,0-.146-.126l-.1-.034-.091.046a.242.242,0,0,0-.136.145l-3.114,8.869-3.128-8.9-.025-.025-.007-.022-.03-.03a.266.266,0,0,1-.026-.021l-.015-.008h-.041l-.028-.023-.039-.006h-.027l-.037.006-.03.01-.013.006-.05.024-.061.062a.278.278,0,0,1-.018.027l-.012.034-.016.03-3.1,8.838-3.108-8.869a.264.264,0,0,0-.135-.145.241.241,0,0,0-.2-.012.235.235,0,0,0-.14.131.221.221,0,0,0-.009.192l3.346,9.539c.008.016.013.03.017.04a.144.144,0,0,1,.009.02l.042.052.012.012.053.034h.031l.029.025h0Z" transform="translate(-3042.048 -378.201)" fill="#242424" stroke="#000" stroke-width="0.3"/>
      <path id="Path_723" data-name="Path 723" d="M3480.633,400.587a.447.447,0,0,1-.436-.435v-9.543a.4.4,0,0,1,.131-.3.385.385,0,0,1,.3-.131l5.758.015a.4.4,0,0,1,.3.13.417.417,0,0,1,.131.3.424.424,0,0,1-.131.312.412.412,0,0,1-.3.123l-5.322-.014v3.9h3.981a.435.435,0,0,1,0,.87h-3.982v3.9h5.323a.435.435,0,1,1,0,.87Z" transform="translate(-3395.013 -382.536)" fill="#242424" stroke="#000" stroke-width="0.3"/>
      <path id="Path_724" data-name="Path 724" d="M3482.282,396.656h-5.758a.587.587,0,0,1-.436-.187.579.579,0,0,1-.18-.429V386.5a.586.586,0,0,1,.187-.436.559.559,0,0,1,.411-.181h.025l5.751.014a.626.626,0,0,1,.614.616.609.609,0,0,1-.183.439.588.588,0,0,1-.433.177l-5.142-.014v3.54h3.8a.587.587,0,0,1,.436.187.616.616,0,0,1-.436,1.044h-3.8v3.541h5.142a.611.611,0,0,1,.429,1.052A.577.577,0,0,1,3482.282,396.656Zm-5.761-10.414a.21.21,0,0,0-.171.074.229.229,0,0,0-.081.181v9.543a.221.221,0,0,0,.074.173.229.229,0,0,0,.181.081h5.758a.221.221,0,0,0,.173-.073.231.231,0,0,0,.081-.181.22.22,0,0,0-.074-.173.227.227,0,0,0-.18-.081h-5.5v-4.262h4.162a.221.221,0,0,0,.173-.074.23.23,0,0,0,.081-.181.219.219,0,0,0-.074-.173.229.229,0,0,0-.18-.082h-4.162V386.75l5.5.015a.232.232,0,0,0,.176-.07.244.244,0,0,0,.078-.185.238.238,0,0,0-.078-.177.223.223,0,0,0-.176-.077l-5.759-.014Z" transform="translate(-3390.905 -378.424)" fill="#242424"/>
      <path id="Path_725" data-name="Path 725" d="M3676.261,401.837a.446.446,0,0,1-.435-.435v-9.522a.411.411,0,0,1,.123-.3.425.425,0,0,1,.312-.13l3.344-.015a3.1,3.1,0,0,1,2.168.8,2.59,2.59,0,0,1,.883,1.98,2.677,2.677,0,0,1-.363,1.356,2.828,2.828,0,0,1-.965,1.008,2.819,2.819,0,0,1,1.11,1,2.67,2.67,0,0,1-.486,3.425,3.051,3.051,0,0,1-2.161.834Zm.436-5.613,2.908-.008a2.2,2.2,0,0,0,1.544-.589,1.853,1.853,0,0,0,.638-1.414,1.755,1.755,0,0,0-.63-1.364,2.282,2.282,0,0,0-1.552-.551l-2.908.014Zm0,4.743h3.1a2.258,2.258,0,0,0,1.552-.573,1.8,1.8,0,0,0,.638-1.386,1.736,1.736,0,0,0-.631-1.364,2.249,2.249,0,0,0-1.545-.558H3676.7Z" transform="translate(-3582.411 -383.74)" fill="#242424" stroke="#000" stroke-width="0.3"/>
      <path id="Path_726" data-name="Path 726" d="M3675.637,397.908H3672.1a.59.59,0,0,1-.436-.187.58.58,0,0,1-.179-.429V387.77a.6.6,0,0,1,.176-.432.61.61,0,0,1,.44-.184l3.342-.014a3.3,3.3,0,0,1,2.292.852,2.774,2.774,0,0,1,.944,2.113,2.878,2.878,0,0,1-.387,1.446,2.984,2.984,0,0,1-.785.9,2.976,2.976,0,0,1,.926.919,2.849,2.849,0,0,1-.517,3.653A3.226,3.226,0,0,1,3675.637,397.908Zm-.188-10.407-3.343.015a.248.248,0,0,0-.185.077.234.234,0,0,0-.071.177v9.522a.222.222,0,0,0,.074.173.227.227,0,0,0,.18.081h3.534a2.888,2.888,0,0,0,2.038-.785,2.487,2.487,0,0,0,.456-3.194,2.648,2.648,0,0,0-1.039-.937l-.279-.144.265-.168a2.667,2.667,0,0,0,.9-.944,2.508,2.508,0,0,0,.339-1.267,2.4,2.4,0,0,0-.826-1.847A2.948,2.948,0,0,0,3675.449,387.5Zm.188,9.537h-3.277V392.8h3.291a2.438,2.438,0,0,1,1.665.6,1.939,1.939,0,0,1,.692,1.5,1.976,1.976,0,0,1-.7,1.52A2.419,2.419,0,0,1,3675.637,397.038Zm-2.917-.361h2.917a2.062,2.062,0,0,0,1.431-.527,1.608,1.608,0,0,0,.577-1.25,1.553,1.553,0,0,0-.569-1.228,2.059,2.059,0,0,0-1.427-.514h-2.929Zm-.361-4.381v-4.269l3.089-.016a2.462,2.462,0,0,1,1.671.6,1.935,1.935,0,0,1,.692,1.5,2.034,2.034,0,0,1-.7,1.547,2.373,2.373,0,0,1-1.667.635Zm.361-3.91v3.548l2.727-.007a2.009,2.009,0,0,0,1.423-.539,1.659,1.659,0,0,0,.58-1.281,1.567,1.567,0,0,0-.57-1.228,2.078,2.078,0,0,0-1.43-.5Z" transform="translate(-3578.255 -379.631)" fill="#242424"/>
      <path id="Path_727" data-name="Path 727" d="M1745.054,750.037h-1.809a.27.27,0,0,1-.2-.463.27.27,0,0,1,.2-.084h4.165a.273.273,0,0,1,.193.468.264.264,0,0,1-.193.078H1745.6v5.755a.275.275,0,0,1-.468.2.278.278,0,0,1-.078-.2Z" transform="translate(-1730.88 -726.734)" fill="#242424" stroke="#000" stroke-width="0.3"/>
      <path id="Path_728" data-name="Path 728" d="M1742.2,753.155a.412.412,0,0,1-.286-.115.421.421,0,0,1-.121-.294v-5.619h-1.675a.411.411,0,0,1-.29-.115.412.412,0,0,1,0-.579.406.406,0,0,1,.295-.122h4.166a.408.408,0,0,1,.286.7.4.4,0,0,1-.286.115h-1.675v5.619a.4.4,0,0,1-.411.41Zm-2.082-6.575a.136.136,0,0,0-.1.042.135.135,0,0,0,.1.232h1.946v5.891a.143.143,0,0,0,.042.1.147.147,0,0,0,.2-.005.139.139,0,0,0,.036-.1v-5.891h1.947a.126.126,0,0,0,.1-.038.119.119,0,0,0,.042-.1.117.117,0,0,0-.04-.094.127.127,0,0,0-.1-.046Z" transform="translate(-1727.757 -723.688)" fill="#242424"/>
      <path id="Path_729" data-name="Path 729" d="M1896.5,759a.283.283,0,0,1-.275-.276v-6.032a.255.255,0,0,1,.084-.193.246.246,0,0,1,.193-.084l3.64.01a.252.252,0,0,1,.192.084.261.261,0,0,1,.084.193.267.267,0,0,1-.084.2.26.26,0,0,1-.192.078l-3.366-.009v2.467h2.517a.275.275,0,0,1,0,.55h-2.517v2.467h3.366a.275.275,0,0,1,0,.55Z" transform="translate(-1877.692 -729.539)" fill="#242424"/>
      <path id="Path_730" data-name="Path 730" d="M1897.06,756.093h-3.64a.392.392,0,0,1-.291-.126.386.386,0,0,1-.119-.286v-6.03a.391.391,0,0,1,.126-.291.374.374,0,0,1,.275-.12l3.652.009a.392.392,0,0,1,.29.126.4.4,0,0,1,.12.286.407.407,0,0,1-.122.295.4.4,0,0,1-.288.117l-3.23-.009v2.191h2.381a.394.394,0,0,1,.291.126.411.411,0,0,1-.291.7h-2.381v2.2h3.23a.394.394,0,0,1,.291.126.41.41,0,0,1-.291.7Zm-3.643-6.584a.112.112,0,0,0-.092.042.126.126,0,0,0-.046.1v6.031a.116.116,0,0,0,.042.094.124.124,0,0,0,.1.045h3.64a.119.119,0,0,0,.094-.04.126.126,0,0,0,.045-.1.118.118,0,0,0-.04-.094.126.126,0,0,0-.1-.046h-3.5v-2.736h2.65a.119.119,0,0,0,.094-.042.127.127,0,0,0,.046-.1.118.118,0,0,0-.042-.094.126.126,0,0,0-.1-.045h-2.651v-2.737l3.5.01a.126.126,0,0,0,.1-.038.133.133,0,0,0,.042-.1.127.127,0,0,0-.042-.1.121.121,0,0,0-.1-.042l-3.641-.009Z" transform="translate(-1874.606 -726.495)" fill="#242424" stroke="#000" stroke-width="0.3"/>
      <path id="Path_731" data-name="Path 731" d="M2034.692,755.785a3.16,3.16,0,0,1-2.325-.968,3.2,3.2,0,0,1-.968-2.324,3.164,3.164,0,0,1,.968-2.329,3.284,3.284,0,0,1,4.333-.285.257.257,0,0,1,.105.183.263.263,0,0,1-.055.2.259.259,0,0,1-.184.105.243.243,0,0,1-.2-.055,2.684,2.684,0,0,0-1.673-.564,2.74,2.74,0,1,0,1.848,4.769.276.276,0,0,1,.372.408A3.188,3.188,0,0,1,2034.692,755.785Z" transform="translate(-2007.175 -726.453)" fill="#242424"/>
      <path id="Path_732" data-name="Path 732" d="M2031.617,752.856a3.429,3.429,0,0,1,0-6.858,3.347,3.347,0,0,1,2.091.711.411.411,0,0,1-.2.732.421.421,0,0,1-.061,0,.371.371,0,0,1-.244-.09,2.561,2.561,0,0,0-1.586-.532,2.6,2.6,0,1,0,1.757,4.532.4.4,0,0,1,.275-.109.411.411,0,0,1,.277.718A3.327,3.327,0,0,1,2031.617,752.856Zm0-6.589a3.16,3.16,0,1,0,2.128,5.5.136.136,0,0,0,.011-.2.132.132,0,0,0-.1-.05.136.136,0,0,0-.1.037,2.876,2.876,0,1,1-1.941-5,2.828,2.828,0,0,1,1.756.592.112.112,0,0,0,.1.029.141.141,0,0,0,.126-.157.123.123,0,0,0-.052-.091,3.085,3.085,0,0,0-1.928-.655Z" transform="translate(-2004.099 -723.389)" fill="#242424" stroke="#000" stroke-width="0.3"/>
      <path id="Path_733" data-name="Path 733" d="M2217.68,756.171a.269.269,0,0,1-.2-.084.262.262,0,0,1-.078-.193V753.16h-3.745v2.735a.266.266,0,0,1-.078.193.273.273,0,0,1-.2.084.282.282,0,0,1-.275-.275v-6.02a.282.282,0,0,1,.275-.275.269.269,0,0,1,.2.084.263.263,0,0,1,.078.192v2.732h3.745v-2.734a.26.26,0,0,1,.078-.192.265.265,0,0,1,.2-.084.282.282,0,0,1,.275.275V755.9A.283.283,0,0,1,2217.68,756.171Z" transform="translate(-2181.239 -726.84)" fill="#242424" stroke="#000" stroke-width="0.3"/>
      <path id="Path_734" data-name="Path 734" d="M2214.537,753.311a.408.408,0,0,1-.295-.123.4.4,0,0,1-.118-.288v-2.6h-3.475v2.6a.4.4,0,0,1-.117.288.412.412,0,0,1-.584,0,.386.386,0,0,1-.119-.286v-6.02a.391.391,0,0,1,.126-.291.416.416,0,0,1,.579,0,.4.4,0,0,1,.117.289v2.6h3.477v-2.6a.4.4,0,0,1,.117-.289.413.413,0,0,1,.584,0,.387.387,0,0,1,.12.286v6.02a.394.394,0,0,1-.126.291A.388.388,0,0,1,2214.537,753.311Zm-4.154-3.279h4.016V752.9a.127.127,0,0,0,.039.1.131.131,0,0,0,.2,0,.127.127,0,0,0,.046-.1v-6.02a.118.118,0,0,0-.042-.094.131.131,0,0,0-.2,0,.126.126,0,0,0-.038.1v2.868h-4.015V746.88a.127.127,0,0,0-.038-.1.132.132,0,0,0-.1-.044.133.133,0,0,0-.1.042.127.127,0,0,0-.045.1v6.02a.117.117,0,0,0,.042.094.138.138,0,0,0,.239-.094Z" transform="translate(-2178.097 -723.844)" fill="#242424"/>
      <path id="Path_735" data-name="Path 735" d="M2392.374,755.654l0,0,0,0-4.2-5.405v5.236a.275.275,0,0,1-.55,0v-6.038a.273.273,0,0,1,.49-.168l4.2,5.406v-5.238a.277.277,0,0,1,.271-.277.269.269,0,0,1,.2.084.26.26,0,0,1,.078.193v6.056a.1.1,0,0,1,0,.028.073.073,0,0,1,0,.023.183.183,0,0,1-.01.028.128.128,0,0,0-.009.023.073.073,0,0,1-.014.023.174.174,0,0,1-.014.023.151.151,0,0,1-.019.023l-.018.018c-.015.012-.02.015-.013.009s0,0-.009.009l-.014.009a.1.1,0,0,1-.027.014l-.019.009-.032.009-.018,0a.411.411,0,0,1-.051,0,.435.435,0,0,1-.055,0l-.018,0-.037-.014-.018-.014-.033-.018a.071.071,0,0,0-.018-.013l-.013-.014Z" transform="translate(-2348.406 -726.418)" fill="#242424" stroke="#000" stroke-width="0.3"/>
      <path id="Path_736" data-name="Path 736" d="M2389.786,752.439a.444.444,0,0,1-.042.094l-.014.022a.286.286,0,0,1-.035.042l-.05.044a.143.143,0,0,1-.023.017l-.01.006a.259.259,0,0,1-.042.021l-.029.013-.042.012a.176.176,0,0,1-.034.008.47.47,0,0,1-.143,0,.412.412,0,0,1-.246-.152l-3.955-5.091v4.839a.391.391,0,0,1-.126.291.41.41,0,0,1-.576-.005.386.386,0,0,1-.119-.286v-6.038a.387.387,0,0,1,.273-.389.464.464,0,0,1,.149-.027.381.381,0,0,1,.311.163l3.955,5.091v-4.839a.4.4,0,0,1,.118-.289.412.412,0,0,1,.581,0,.4.4,0,0,1,.118.289v5.909A.919.919,0,0,1,2389.786,752.439Zm-.407.014a.281.281,0,0,0,.049,0l.046-.017.051-.057a.234.234,0,0,1,.01-.025h0l0-6.074a.127.127,0,0,0-.038-.1.133.133,0,0,0-.2,0,.126.126,0,0,0-.038.1v5.628l-4.442-5.718c-.068-.089-.1-.064-.157-.046a.12.12,0,0,0-.091.133v6.038a.12.12,0,0,0,.04.094.14.14,0,0,0,.24-.094v-5.631l4.455,5.734.01.008.013.007.021.013.015.006.01,0Z" transform="translate(-2345.226 -723.257)" fill="#242424"/>
      <path id="Path_737" data-name="Path 737" d="M2562.157,756.1a3.287,3.287,0,1,1,2.325-.963A3.166,3.166,0,0,1,2562.157,756.1Zm0-6.029a2.755,2.755,0,1,0,1.936.807A2.659,2.659,0,0,0,2562.157,750.066Z" transform="translate(-2512.451 -726.763)" fill="#242424"/>
      <path id="Path_738" data-name="Path 738" d="M2559.073,753.146a3.422,3.422,0,1,1,2.42-1A3.309,3.309,0,0,1,2559.073,753.146Zm0-6.575a3.154,3.154,0,1,0,2.23,5.383,3.152,3.152,0,0,0-2.23-5.381Zm0,6.025a2.875,2.875,0,0,1,0-5.75,2.875,2.875,0,0,1,0,5.75Zm0-5.479a2.62,2.62,0,1,0,1.837.77,2.507,2.507,0,0,0-1.837-.77Z" transform="translate(-2509.366 -723.679)" fill="#242424" stroke="#000" stroke-width="0.3"/>
      <path id="Path_739" data-name="Path 739" d="M2771.542,749.849a.266.266,0,0,1,.193.084.261.261,0,0,1,.078.192v5.739h2.978a.273.273,0,0,1,.275.271.27.27,0,0,1-.084.2.265.265,0,0,1-.193.078h-3.246a.268.268,0,0,1-.2-.078.265.265,0,0,1-.078-.2v-6.011a.261.261,0,0,1,.078-.192A.267.267,0,0,1,2771.542,749.849Z" transform="translate(-2715.911 -727.079)" fill="#242424"/>
      <path id="Path_740" data-name="Path 740" d="M2771.754,753.515h-3.246a.4.4,0,0,1-.41-.411v-6.011a.4.4,0,0,1,.117-.288.412.412,0,0,1,.582,0,.4.4,0,0,1,.117.288v5.6h2.84a.409.409,0,0,1,.288.7A.4.4,0,0,1,2771.754,753.515Zm-3.246-6.561a.132.132,0,0,0-.1.042.126.126,0,0,0-.039.1V753.1a.142.142,0,0,0,.042.1.138.138,0,0,0,.1.036h3.244a.127.127,0,0,0,.1-.039.132.132,0,0,0,.042-.1.137.137,0,0,0-.139-.135h-3.114v-5.876a.125.125,0,0,0-.038-.1.13.13,0,0,0-.1-.043Z" transform="translate(-2712.875 -724.048)" fill="#242424" stroke="#000" stroke-width="0.3"/>
      <path id="Path_741" data-name="Path 741" d="M2896.608,756.1a3.287,3.287,0,1,1,2.325-.963A3.169,3.169,0,0,1,2896.608,756.1Zm0-6.029a2.757,2.757,0,1,0,1.936.807A2.66,2.66,0,0,0,2896.608,750.066Z" transform="translate(-2832.83 -726.763)" fill="#242424" stroke="#000" stroke-width="0.3"/>
      <path id="Path_742" data-name="Path 742" d="M2893.533,753.146a3.422,3.422,0,1,1,2.42-1A3.309,3.309,0,0,1,2893.533,753.146Zm0-6.575a3.152,3.152,0,0,0-2.23,5.381,3.149,3.149,0,0,0,4.46,0,3.152,3.152,0,0,0-2.229-5.381Zm0,6.025a2.872,2.872,0,0,1-2.031-4.9,2.872,2.872,0,1,1,2.031,4.9Zm0-5.479a2.62,2.62,0,1,0,1.839.77,2.508,2.508,0,0,0-1.839-.77Z" transform="translate(-2829.754 -723.679)" fill="#242424"/>
      <path id="Path_743" data-name="Path 743" d="M3095.967,754.923a3.29,3.29,0,0,1,2.324-5.616,3.206,3.206,0,0,1,2,.678.271.271,0,0,1,.105.183.252.252,0,0,1-.055.206.26.26,0,0,1-.184.106.269.269,0,0,1-.2-.055,2.663,2.663,0,0,0-1.669-.568,2.74,2.74,0,1,0,1.843,4.769.275.275,0,0,1,.2-.073.261.261,0,0,1,.193.092.266.266,0,0,1,.069.2.27.27,0,0,1-.087.192,3.2,3.2,0,0,1-2.219.858A3.161,3.161,0,0,1,3095.967,754.923Zm4.214.884a.26.26,0,0,1-.078-.193v-2.905h-2.3a.278.278,0,0,1-.2-.077.272.272,0,0,1-.084-.2.253.253,0,0,1,.084-.192.268.268,0,0,1,.2-.084h2.578a.267.267,0,0,1,.2.084.259.259,0,0,1,.079.192v3.182a.265.265,0,0,1-.079.193.276.276,0,0,1-.394,0Z" transform="translate(-3026.023 -726.559)" fill="#242424"/>
      <path id="Path_744" data-name="Path 744" d="M3097.323,752.885a.407.407,0,0,1-.295-.123.4.4,0,0,1-.117-.288v-.019a3.353,3.353,0,0,1-1.675.43,3.428,3.428,0,0,1,0-6.857,3.351,3.351,0,0,1,2.085.706.409.409,0,0,1,.157.274.389.389,0,0,1-.083.307.4.4,0,0,1-.273.156.411.411,0,0,1-.3-.081,2.544,2.544,0,0,0-1.588-.542,2.6,2.6,0,1,0,1.675,4.6V749.7h-2.166a.414.414,0,0,1-.29-.115.408.408,0,0,1-.126-.294.39.39,0,0,1,.126-.291.4.4,0,0,1,.29-.12h2.577a.409.409,0,0,1,.295.122.4.4,0,0,1,.118.288v3.182a.4.4,0,0,1-.118.288A.407.407,0,0,1,3097.323,752.885Zm-.139-.6v.19a.127.127,0,0,0,.038.1.138.138,0,0,0,.2,0,.127.127,0,0,0,.038-.1v-.408c-.092.078-.185.151-.28.218h0Zm-1.947-5.983a3.157,3.157,0,1,0,1.677,5.84V751.8a2.875,2.875,0,1,1-1.677-5.215,2.812,2.812,0,0,1,1.752.6.134.134,0,0,0,.1.028.125.125,0,0,0,.091-.053.122.122,0,0,0,.031-.1.14.14,0,0,0-.057-.1,3.083,3.083,0,0,0-1.919-.65Zm1.947,5.273v.371c.061-.048.123-.1.181-.154a.134.134,0,0,0,.042-.1.135.135,0,0,0-.034-.1.13.13,0,0,0-.1-.047h0a.144.144,0,0,0-.092.029Zm.084-.3a.454.454,0,0,1,.194.048v-2.03a.129.129,0,0,0-.039-.1.133.133,0,0,0-.1-.042h-2.575a.132.132,0,0,0-.1.042.122.122,0,0,0-.042.1.133.133,0,0,0,.042.1.139.139,0,0,0,.1.038h2.438v1.851a.467.467,0,0,1,.086-.008Z" transform="translate(-3022.968 -723.418)" fill="#242424" stroke="#000" stroke-width="0.3"/>
      <path id="Path_745" data-name="Path 745" d="M3285.24,759.421a.275.275,0,1,1-.55,0v-6.006a.275.275,0,1,1,.55,0Z" transform="translate(-3207.732 -730.231)" fill="#242424"/>
      <path id="Path_746" data-name="Path 746" d="M3281.88,756.831a.393.393,0,0,1-.291-.126.388.388,0,0,1-.119-.286v-6a.391.391,0,0,1,.126-.291.41.41,0,0,1,.577.005.385.385,0,0,1,.119.286v6.006a.42.42,0,0,1-.411.411Zm0-6.556a.119.119,0,0,0-.094.04.126.126,0,0,0-.045.1v6.006a.12.12,0,0,0,.042.094.127.127,0,0,0,.1.048.125.125,0,0,0,.1-.043.127.127,0,0,0,.045-.1v-6.006a.118.118,0,0,0-.042-.094A.125.125,0,0,0,3281.88,750.275Z" transform="translate(-3204.647 -727.23)" fill="#242424" stroke="#000" stroke-width="0.3"/>
      <path id="Path_747" data-name="Path 747" d="M3357.094,755.852a.282.282,0,0,1-.275-.275v-6.034a.251.251,0,0,1,.084-.192.24.24,0,0,1,.192-.084l3.64.009a.254.254,0,0,1,.192.084.262.262,0,0,1,.085.193.271.271,0,0,1-.085.2.26.26,0,0,1-.192.078l-3.366-.009v2.466h2.517a.275.275,0,1,1,0,.55h-2.518V755.3h3.366a.275.275,0,0,1,0,.55h-3.64Z" transform="translate(-3276.826 -726.52)" fill="#242424" stroke="#000" stroke-width="0.3"/>
      <path id="Path_748" data-name="Path 748" d="M3357.641,752.935H3354a.393.393,0,0,1-.291-.126.386.386,0,0,1-.12-.286v-6.032a.389.389,0,0,1,.126-.291.372.372,0,0,1,.275-.12l3.651.01a.392.392,0,0,1,.291.126.4.4,0,0,1,.119.286.4.4,0,0,1-.122.292.4.4,0,0,1-.288.118l-3.23-.009v2.2h2.381a.394.394,0,0,1,.292.126.387.387,0,0,1,.119.286.416.416,0,0,1-.411.41h-2.381v2.2h3.23a.411.411,0,1,1,0,.821ZM3354,746.351a.113.113,0,0,0-.092.042.127.127,0,0,0-.046.1v6.032a.119.119,0,0,0,.042.094.126.126,0,0,0,.1.046h3.64a.118.118,0,0,0,.094-.042.125.125,0,0,0,.045-.1.118.118,0,0,0-.042-.094.126.126,0,0,0-.1-.045h-3.5v-2.736h2.651a.123.123,0,0,0,.095-.042.126.126,0,0,0,.044-.1.118.118,0,0,0-.042-.094.126.126,0,0,0-.1-.046h-2.651V746.63l3.5.009a.127.127,0,0,0,.1-.038.134.134,0,0,0,.042-.1.129.129,0,0,0-.042-.1.123.123,0,0,0-.1-.042l-3.64-.009Z" transform="translate(-3273.733 -723.468)" fill="#242424"/>
      <path id="Path_749" data-name="Path 749" d="M3490.032,752.983a2.208,2.208,0,0,1-1.66-.61,1.459,1.459,0,0,1-.421-1.1,1.825,1.825,0,0,1,.628-1.311,2.028,2.028,0,0,1,1.408-.536,2.706,2.706,0,0,1,1.292.3,1.6,1.6,0,0,1,.862,1.04.266.266,0,0,1-.2.33.248.248,0,0,1-.206-.027.255.255,0,0,1-.124-.165,1.1,1.1,0,0,0-.642-.725,2.216,2.216,0,0,0-.986-.21,1.5,1.5,0,0,0-1.032.385,1.313,1.313,0,0,0-.459.945.923.923,0,0,0,.275.7,1.7,1.7,0,0,0,1.27.44.275.275,0,0,1,.194.083.279.279,0,0,1,.077.2.275.275,0,0,1-.275.266Zm-1.211,2.719a1.623,1.623,0,0,1-.862-1.046.277.277,0,0,1,.028-.207.269.269,0,0,1,.168-.124.272.272,0,0,1,.206.028.263.263,0,0,1,.124.165,1.117,1.117,0,0,0,.642.729,2.268,2.268,0,0,0,.987.206,1.5,1.5,0,0,0,1.032-.385,1.312,1.312,0,0,0,.458-.94.93.93,0,0,0-.276-.706,1.706,1.706,0,0,0-1.27-.44.257.257,0,0,1-.193-.084.27.27,0,0,1-.077-.192.266.266,0,0,1,.086-.193.262.262,0,0,1,.192-.078,2.221,2.221,0,0,1,1.66.614,1.433,1.433,0,0,1,.417,1.1,1.815,1.815,0,0,1-.624,1.311,2.022,2.022,0,0,1-1.407.537A2.729,2.729,0,0,1,3488.821,755.7Z" transform="translate(-3402.439 -726.668)" fill="#242424" stroke="#000" stroke-width="0.3"/>
      <path id="Path_750" data-name="Path 750" d="M3486.972,753.04a2.88,2.88,0,0,1-1.355-.314,1.76,1.76,0,0,1-.93-1.131.4.4,0,0,1,.294-.5.4.4,0,0,1,.494.29.976.976,0,0,0,.57.641,2.129,2.129,0,0,0,.926.193,1.352,1.352,0,0,0,.941-.351,1.168,1.168,0,0,0,.414-.845.794.794,0,0,0-.238-.606,1.59,1.59,0,0,0-1.174-.4h-.025a2.348,2.348,0,0,1-1.758-.652,1.6,1.6,0,0,1-.459-1.2,1.964,1.964,0,0,1,.673-1.406,2.157,2.157,0,0,1,1.5-.571,2.855,2.855,0,0,1,1.357.318,1.746,1.746,0,0,1,.929,1.126.4.4,0,0,1-.294.5.393.393,0,0,1-.311-.042.388.388,0,0,1-.184-.247.965.965,0,0,0-.568-.635,2.1,2.1,0,0,0-.925-.2,1.354,1.354,0,0,0-.942.351,1.171,1.171,0,0,0-.413.85.787.787,0,0,0,.238.6,1.59,1.59,0,0,0,1.174.4h.026a2.361,2.361,0,0,1,1.759.657,1.57,1.57,0,0,1,.452,1.2,1.95,1.95,0,0,1-.668,1.4A2.153,2.153,0,0,1,3486.972,753.04Zm-1.888-1.683a.148.148,0,0,0-.126.069.132.132,0,0,0-.011.1,1.476,1.476,0,0,0,.794.96,2.624,2.624,0,0,0,1.23.283,1.867,1.867,0,0,0,1.316-.5,1.674,1.674,0,0,0,.58-1.216,1.3,1.3,0,0,0-.378-1,1.9,1.9,0,0,0-1.2-.547.4.4,0,0,1-.017.275,1.61,1.61,0,0,1,1.015.458,1.06,1.06,0,0,1,.312.8,1.442,1.442,0,0,1-.5,1.035,1.633,1.633,0,0,1-1.122.421,2.4,2.4,0,0,1-1.044-.22,1.258,1.258,0,0,1-.715-.818.136.136,0,0,0-.064-.084A.144.144,0,0,0,3485.084,751.357Zm1.824-1.879a.127.127,0,0,0-.078.037.143.143,0,0,0-.048.1.136.136,0,0,0,.042.094.122.122,0,0,0,.084.042.138.138,0,0,0,0-.276Zm-.064-3.017a1.868,1.868,0,0,0-1.316.5,1.691,1.691,0,0,0-.584,1.218,1.32,1.32,0,0,0,.385,1.006,1.894,1.894,0,0,0,1.2.544.4.4,0,0,1-.017-.116.444.444,0,0,1,.036-.159,1.624,1.624,0,0,1-1.017-.459,1.054,1.054,0,0,1-.312-.8,1.448,1.448,0,0,1,.505-1.039,1.635,1.635,0,0,1,1.122-.421,2.364,2.364,0,0,1,1.045.224,1.235,1.235,0,0,1,.713.812.118.118,0,0,0,.061.082.109.109,0,0,0,.1.015.139.139,0,0,0,.093-.065.136.136,0,0,0,.011-.1,1.46,1.46,0,0,0-.794-.953,2.609,2.609,0,0,0-1.231-.286Z" transform="translate(-3399.297 -723.573)" fill="#242424"/>
    </g>
    <g id="Group_77644" data-name="Group 77644" transform="translate(100 58)">
      <path id="Path_751" data-name="Path 751" d="M49.52,0H0V47.527H49.52Z" fill="url(#linear-gradient)"/>
      <g id="Group_77643" data-name="Group 77643" transform="translate(6.026 14.249)">
        <path id="Path_752" data-name="Path 752" d="M839.979,551.792H838.43l.774-1.341.774-1.341.774,1.341.773,1.341Z" transform="translate(-812.858 -543.071)" fill="#fff" stroke="#ecedee" stroke-miterlimit="10" stroke-width="0.25"/>
        <path id="Path_753" data-name="Path 753" d="M123.34,540.874l0-.284v.284Z" transform="translate(-123.34 -534.856)" fill="#fff"/>
        <path id="Path_754" data-name="Path 754" d="M123.34,540.874l0-.284v.284Z" transform="translate(-123.34 -534.856)" fill="#fff"/>
        <path id="Path_755" data-name="Path 755" d="M129.3,531.514V545.1H123.42V531.518h.007l4.413-.018C128.261,531.5,128.871,531.508,129.3,531.514Z" transform="translate(-123.417 -526.091)" fill="#fff"/>
        <path id="Path_756" data-name="Path 756" d="M511.377,638.942l-3.1,3.893-3.16-6.659,3.408-3.326Z" transform="translate(-491.467 -623.817)" fill="#fff"/>
        <path id="Path_757" data-name="Path 757" d="M140.752,388.993c-.012-.159-.028-.317-.048-.475a8.676,8.676,0,0,0-.305-1.439c-.016-.053-.031-.1-.048-.154a9.035,9.035,0,0,0-2.227-3.593l-.179-.179c-.061-.061-.123-.117-.184-.174a10.173,10.173,0,0,0-7.188-2.738H123.42v6.018h.007l4.412-.019c.421,0,1.031.008,1.458.013l.506.008h1.469v0l.042,0a3.55,3.55,0,0,1,0,7.1c-.2.011-.405.019-.608.031s-.426.011-.641,0-.42-.006-.629-.011l-.139,0h-.006l-1.295.029h-4.577v5.847h7.152c.021,0,.042,0,.091,0l.019,0a.513.513,0,0,0,.056-.005.16.16,0,0,0,.04,0l.046,0h0l.034,0h.074c.087,0,.173-.007.26-.012q.256-.015.507-.036.218-.022.434-.051l.132-.019.155-.024a10.082,10.082,0,0,0,3.341-1.157c.068-.038.136-.076.2-.116.2-.119.4-.246.6-.383.129-.089.258-.182.384-.278a11.161,11.161,0,0,0,.921-.787,8.911,8.911,0,0,0,2.906-6.651C140.779,389.476,140.77,389.234,140.752,388.993Z" transform="translate(-123.417 -380.24)" fill="#fff"/>
        <path id="Path_758" data-name="Path 758" d="M603.816,556.18l-.038-7.32L593.47,561.849h5.868Z" transform="translate(-576.658 -542.83)" fill="#fff"/>
        <path id="Path_759" data-name="Path 759" d="M129.3,548.474v12.989H123.42V548.479h.007l4.413-.019C128.261,548.461,128.871,548.47,129.3,548.474Z" transform="translate(-123.417 -542.444)" fill="#fff"/>
        <path id="Path_760" data-name="Path 760" d="M1014.67,485.684h-5.8l.062-15.824h5.738Z" transform="translate(-977.203 -466.655)" fill="#fff"/>
        <path id="Path_761" data-name="Path 761" d="M881.747,556.208l-.017-7.348,10.346,13h-5.834Z" transform="translate(-854.61 -542.831)" fill="#fff"/>
        <path id="Path_762" data-name="Path 762" d="M593.47,806.756l0,0,3.094-3.9.007.006Z" transform="translate(-576.658 -787.737)" fill="#fff"/>
      </g>
    </g>
  </g>
</svg>
