<svg version="1.2" xmlns="http://www.w3.org/2000/svg" viewBox="0 0 90 92" width="90" height="92">
	<title>isologowhite-svg</title>
	<style>
		.s0 { fill: #ffffff } 
	</style>
	<g id="Layer_2">
		<g id="Layer_1-2">
			<g id="HrTeFR.tif">
				<path id="Layer" fill-rule="evenodd" class="s0" d="m69.2 49.4h-1.1q-0.2 0-0.3 0q-0.2 0-0.4 0q-0.2 0-0.3 0q-0.2-0.1-0.4-0.1c-0.6-0.1-1.2-0.2-1.9-0.3q-0.5-0.1-1-0.2l-1.1-0.4c-0.1 0-0.2-0.1-0.4-0.1q-0.4-0.2-0.9-0.4q-0.5-0.2-1-0.5q-0.4-0.2-0.9-0.5q-0.4-0.2-0.8-0.5l-1.1-0.8q-0.2-0.2-0.4-0.4q-0.2-0.1-0.3-0.3q-0.2-0.2-0.4-0.4q-0.1-0.2-0.3-0.4q-0.2-0.2-0.4-0.5q-0.1-0.2-0.3-0.5q-0.2-0.3-0.3-0.5q-0.2-0.3-0.3-0.6q-0.1-0.3-0.3-0.6q-0.1-0.2-0.2-0.5q-0.1-0.3-0.2-0.6q-0.1-0.3-0.2-0.6q-0.1-0.3-0.2-0.6q0-0.2-0.1-0.5q-0.1-0.3-0.1-0.6q-0.1-0.3-0.1-0.6c-0.1-0.4-0.1-0.9-0.2-1.4q0-0.4 0-0.9q0-0.5 0-1q0-0.5 0-0.9q0-0.5 0-1c0.1-0.9 0.2-1.8 0.4-2.7q0-0.1 0-0.3q0.1-0.1 0.1-0.3q0.1-0.1 0.1-0.3q0-0.1 0.1-0.2q0.1-0.4 0.2-0.7q0.3-0.8 0.6-1.5q0.3-0.7 0.7-1.4q0.5-0.6 1-1.3q0.5-0.6 1-1.1q0.3-0.3 0.6-0.5q0.3-0.2 0.6-0.5q0.3-0.2 0.6-0.4q0.3-0.2 0.7-0.3q0.7-0.4 1.5-0.7q1.1-0.4 2.2-0.8q0.1 0 0.2 0q0.2-0.1 0.3-0.1q0.1 0 0.2-0.1q0.2 0 0.3 0c0.2 0 0.4-0.1 0.7-0.1q0.3-0.1 0.6-0.2q0.3 0 0.6 0q0.3-0.1 0.6-0.1q0.3 0 0.6 0q1.8 0 3.6 0q0.1 0 0.1 0q0.1 0 0.2 0q0.1 0 0.1 0q0.1 0.1 0.2 0.1q0 0 0 0q0 0 0.1 0q0 0 0 0q0 0 0 0l1.4 0.2q0.2 0 0.4 0.1q0.2 0 0.3 0q0.2 0.1 0.4 0.1q0.2 0.1 0.4 0.2c0.4 0.1 0.9 0.2 1.3 0.4c0.5 0.2 0.8 0.3 1.2 0.5q0.3 0.1 0.6 0.3q0.3 0.1 0.6 0.3q0.3 0.2 0.6 0.3q0.2 0.2 0.5 0.4q0.4 0.2 0.7 0.5q0.3 0.3 0.7 0.5q0.3 0.3 0.6 0.6q0.3 0.3 0.5 0.7q0.2 0.2 0.4 0.5q0.2 0.2 0.3 0.5q0.2 0.2 0.4 0.5q0.1 0.3 0.2 0.6q0.1 0.1 0.2 0.3q0 0.1 0.1 0.3q0 0.2 0.1 0.3q0.1 0.2 0.1 0.3q0.3 0.9 0.5 1.7q0 0.1 0.1 0.3c0.1 0.1 0.1 0.5 0.2 0.7c0 0 0 0.1 0 0.1c0 0.5 0.1 1 0.2 1.4q0 0.7 0.1 1.3q0 0.7 0 1.3q0 0.7 0 1.3q-0.1 0.7-0.1 1.3c0 0.2-0.1 0.4-0.1 0.6c-0.1 0.2 0 0.3-0.1 0.4c-0.1 0.2-0.1 0.5-0.2 0.8q0 0 0 0.1q0 0.4-0.1 0.8q-0.1 0.3-0.2 0.7q-0.1 0.4-0.3 0.7q-0.1 0.4-0.2 0.8q-0.1 0.2-0.3 0.5q-0.1 0.2-0.2 0.5q-0.1 0.2-0.3 0.5q-0.1 0.2-0.2 0.5q-0.2 0.2-0.4 0.5q-0.2 0.2-0.4 0.5q-0.2 0.2-0.4 0.4q-0.2 0.3-0.4 0.5q-0.4 0.3-0.7 0.6q-0.4 0.3-0.8 0.6q-0.4 0.2-0.8 0.5q-0.4 0.2-0.8 0.4q-0.2 0.1-0.4 0.2q-0.2 0.1-0.5 0.2q-0.2 0.1-0.4 0.2q-0.2 0.1-0.5 0.1c-0.5 0.2-1 0.4-1.6 0.6q-0.1 0-0.2 0q-0.1 0-0.2 0.1q-0.1 0-0.2 0q-0.1 0-0.2 0.1q-0.9 0.1-1.8 0.2l-0.7 0.2q-0.1 0-0.2 0q0 0-0.1 0q0 0-0.1 0q-0.1 0-0.1 0h-1.7zm-5-15.5q-0.1 0.5-0.1 1q0 0.5 0 1q0.1 0.5 0.1 1q0.1 0.5 0.1 1q0.1 0.2 0.1 0.4q0 0.3 0.1 0.5q0 0.2 0.1 0.4q0.1 0.2 0.1 0.4q0.2 0.4 0.4 0.8q0.3 0.3 0.6 0.6q0.3 0.3 0.7 0.5q0.4 0.2 0.8 0.3q0.3 0.1 0.6 0.2q0.4 0 0.7 0.1q0.4 0 0.7 0q0.3 0 0.7 0q0.3-0.1 0.6-0.1q0.3-0.1 0.6-0.2q0.3-0.1 0.6-0.2q0.3-0.1 0.6-0.3q0.3-0.2 0.6-0.4q0.3-0.3 0.5-0.6q0.2-0.3 0.4-0.7q0.1-0.4 0.1-0.8q0.1-0.2 0.1-0.5q0.1-0.3 0.1-0.6q0-0.3 0-0.6q0.1-0.3 0.1-0.5c0-0.5 0-1 0-1.5c0.1-0.4 0-0.8 0.1-1.2q0-0.9 0-1.8c0-0.5-0.1-0.9-0.1-1.4q0 0 0-0.1q0-0.1 0-0.1q0-0.1 0-0.2q0 0 0-0.1q-0.2-0.8-0.4-1.6q0-0.2-0.1-0.3q0-0.2-0.1-0.3q0-0.1-0.1-0.2q-0.1-0.2-0.2-0.3q-0.2-0.3-0.5-0.6q-0.3-0.2-0.6-0.4q-0.4-0.2-0.8-0.4q-0.3-0.1-0.7-0.1q-0.3-0.1-0.6-0.1q-0.3-0.1-0.6-0.1q-0.2 0-0.5 0q-0.3 0.1-0.6 0.1q-0.3 0-0.6 0.1q-0.2 0.1-0.5 0.1q-0.3 0.1-0.6 0.2q-0.2 0.1-0.5 0.3q-0.3 0.1-0.5 0.3q-0.3 0.2-0.5 0.5q-0.2 0.2-0.3 0.5q-0.2 0.3-0.3 0.7q0 0.1-0.1 0.3q0 0.1-0.1 0.3q0 0.2 0 0.3q0 0.2 0 0.4q0 0 0 0q0 0.1 0 0.1q0 0 0 0q0 0.1 0 0.1q0 0.1 0 0.2q-0.1 0.2-0.1 0.3q0 0.1 0 0.2q0 0.2 0 0.3c-0.1 0.9-0.1 1.9-0.1 2.8z"/>
				<path id="Layer" class="s0" d="m24.3 43.4l-0.1-5.1c0-0.3 0-0.4 0.4-0.4h5.3q0 0 0.1 0q0.1 0.1 0.2 0.1q0 0 0.1 0.1q0.1 0.1 0.1 0.1q0.2 0.4 0.5 0.8q0.3 0.4 0.6 0.7q0.4 0.4 0.7 0.6q0.4 0.3 0.8 0.6q0.3 0.1 0.5 0.3q0.3 0.2 0.6 0.3q0.3 0.1 0.6 0.3q0.3 0.1 0.6 0.2q0.1 0 0.2 0.1q0.1 0 0.3 0.1q0.1 0 0.2 0q0.2 0.1 0.3 0.1l0.8 0.2q0.3 0 0.5 0.1q0.3 0 0.6 0q0.3 0 0.6 0.1q0.2 0 0.5-0.1q0.3 0.1 0.6 0q0.2 0 0.5 0q0.2 0 0.5-0.1q0.3 0 0.5-0.1q0.2 0 0.4-0.1q0.1 0 0.3 0q0.1-0.1 0.3-0.2q0.1 0 0.3-0.1q0.1 0 0.1-0.1q0.1 0 0.2-0.1q0-0.1 0.1-0.2q0 0 0.1-0.1q0-0.1 0-0.2q0-0.1 0-0.2q0-0.1 0-0.2q-0.1 0-0.1-0.1q-0.1-0.1-0.2-0.2q-0.1-0.1-0.2-0.2q-0.2-0.1-0.3-0.1q-0.1-0.1-0.2-0.2c-0.5-0.1-0.9-0.3-1.4-0.4q-1.6-0.5-3.2-1l-1.5-0.4q-0.6-0.2-1.1-0.4q-0.4-0.1-0.7-0.2c-1-0.3-2.1-0.6-3.1-1q-0.3-0.1-0.5-0.2q-0.3-0.1-0.5-0.2q-0.3-0.1-0.5-0.2q-0.2-0.1-0.5-0.2q-0.2-0.1-0.3-0.2q-0.2-0.1-0.4-0.2q-0.2-0.2-0.3-0.3q-0.2-0.1-0.4-0.2q-0.2-0.1-0.4-0.3q-0.2-0.2-0.3-0.3q-0.2-0.2-0.4-0.3q-0.2-0.2-0.4-0.4q-0.2-0.2-0.4-0.4q-0.1-0.2-0.3-0.4q-0.2-0.2-0.3-0.4q-0.2-0.3-0.3-0.5q-0.2-0.3-0.4-0.7q-0.1-0.3-0.3-0.7q-0.1-0.4-0.2-0.8q-0.1-0.3-0.1-0.7q0-0.4 0-0.7q-0.1-0.3-0.1-0.7q0-0.3 0.1-0.7q0-0.3 0-0.7q0-0.1 0.1-0.3q0-0.2 0-0.4q0.1-0.2 0.1-0.4q0.1-0.1 0.1-0.3q0.1-0.2 0.2-0.4q0-0.2 0.1-0.4q0.1-0.2 0.2-0.4q0.1-0.2 0.2-0.4q0.1-0.3 0.4-0.6q0.2-0.4 0.4-0.7q0.3-0.3 0.6-0.5q0.2-0.3 0.6-0.5q0.2-0.2 0.5-0.4q0.3-0.2 0.6-0.4q0.3-0.1 0.6-0.3q0.3-0.1 0.6-0.3q0.2 0 0.3-0.1q0.2-0.1 0.4-0.1q0.2-0.1 0.4-0.2q0.2 0 0.3-0.1q0.3 0 0.5-0.1q0.3-0.1 0.5-0.1q0.3-0.1 0.5-0.1q0.2-0.1 0.5-0.1q0.3-0.1 0.7-0.1q0.3 0 0.6-0.1q0.4 0 0.7 0q0.3 0 0.7 0q0.5 0 1 0q0.1 0 0.3 0q0.2 0 0.4 0.1q0.2 0 0.4 0q0.2 0 0.4 0.1q0.2 0 0.4 0q0.1 0.1 0.3 0.1q0.2 0 0.4 0.1q0.2 0 0.4 0q0.3 0.1 0.5 0.1q0.2 0.1 0.5 0.1q0.2 0.1 0.4 0.1q0.3 0.1 0.5 0.2q0.3 0.1 0.6 0.2q0.3 0.1 0.6 0.3q0.2 0.1 0.5 0.2q0.3 0.1 0.6 0.3c0.2 0.1 0.4 0.3 0.7 0.4q0 0 0 0q0.1 0.1 0.1 0.1q0 0 0.1 0q0 0 0.1 0c0.2 0 0.3 0 0.3-0.3v-1c0-0.3 0-0.4 0.4-0.4h5.7c0.3 0 0.4 0 0.4 0.4c0 0.4 0 0.6 0 0.9v8.4c0 0.4 0 0.4-0.4 0.4q-2.7 0-5.3 0q-0.1 0-0.2 0q-0.1 0-0.2-0.1q-0.1 0-0.2-0.1q-0.1-0.1-0.1-0.1q-0.4-0.5-0.8-0.9q-0.4-0.4-0.8-0.8q-0.5-0.3-0.9-0.6q-0.5-0.3-1-0.5q-0.7-0.3-1.3-0.5q-0.1-0.1-0.3-0.1q-0.1 0-0.2-0.1q-0.1 0-0.2 0q-0.1 0-0.3-0.1q-0.5-0.1-1.1-0.2q-0.1 0-0.3-0.1q-0.1 0-0.2 0q-0.1 0-0.3 0q-0.1 0-0.2 0q-1.1 0-2.1 0q-0.2 0-0.4 0q-0.2 0-0.4 0.1q-0.2 0.1-0.4 0.2q-0.2 0.1-0.3 0.2q-0.1 0-0.1 0.1q-0.1 0-0.1 0.1q0 0-0.1 0.1q0 0 0 0.1q-0.1 0.1-0.2 0.3q0 0.2 0.1 0.4q0 0.2 0.1 0.3q0.2 0.2 0.3 0.3q0.1 0.1 0.2 0.1q0.1 0.1 0.2 0.1q0.1 0.1 0.3 0.1q0.1 0.1 0.2 0.1c0.3 0.1 0.6 0.2 0.8 0.3c0.3 0.1 0.5 0.1 0.8 0.2l2.4 0.7l3.2 0.9q0.7 0.2 1.5 0.5q1.2 0.3 2.4 0.7q0.1 0.1 0.3 0.1q0.1 0.1 0.3 0.1q0.1 0.1 0.3 0.1q0.1 0.1 0.2 0.2q0.3 0.1 0.6 0.3q0.3 0.2 0.6 0.4q0.2 0.2 0.5 0.4q0.2 0.2 0.5 0.4q0.3 0.3 0.6 0.6q0.3 0.3 0.6 0.6q0.3 0.3 0.5 0.6q0.3 0.4 0.5 0.7q0.2 0.3 0.3 0.5q0.2 0.3 0.3 0.5q0.1 0.3 0.2 0.6q0.1 0.3 0.2 0.5q0.1 0.4 0.2 0.7q0 0.4 0.1 0.7q0 0.4 0 0.7q0.1 0.4 0 0.8c0 0.3 0 0.7-0.1 1c0 0.3-0.1 0.7-0.2 1q-0.1 0.3-0.2 0.6q-0.1 0.4-0.3 0.7q-0.1 0.3-0.3 0.6q-0.2 0.3-0.4 0.6q-0.2 0.3-0.4 0.6q-0.2 0.3-0.5 0.5q-0.2 0.3-0.5 0.5q-0.3 0.3-0.6 0.5q-0.2 0.1-0.3 0.2q-0.2 0.1-0.4 0.3q-0.2 0.1-0.4 0.2q-0.2 0.1-0.4 0.2q-0.2 0.1-0.4 0.1q-0.2 0.1-0.4 0.2q-0.2 0.1-0.4 0.2q-0.2 0.1-0.4 0.1q-0.2 0.1-0.3 0.1q-0.2 0.1-0.3 0.1q-0.2 0.1-0.3 0.1q-0.2 0.1-0.3 0.1q-1 0.2-2 0.4q-0.1 0-0.1 0q-0.1 0-0.1 0q-0.1 0-0.1 0q-0.1 0-0.2 0h-2.6c-0.2 0-0.4-0.1-0.6-0.1l-0.2-0.1q-0.9-0.1-1.8-0.3c-0.5-0.1-0.8-0.2-1.3-0.3l-0.8-0.2q-0.2-0.1-0.5-0.2q-0.3-0.1-0.6-0.2q-0.2-0.1-0.5-0.2q-0.3-0.1-0.5-0.2q-0.7-0.4-1.3-0.7c-0.2-0.1-0.3-0.2-0.4-0.1c-0.2 0.1-0.2 0.2-0.2 0.4q0 0.5 0 1.1c0 0.4 0 0.5-0.4 0.5h-5.8c-0.2 0-0.2 0-0.2-0.3z"/>
				<path id="Layer" class="s0" d="m12.8 48.8h-9.3c-0.2 0-0.2 0-0.2-0.2c0-0.3 0-0.3 0-0.4v-5.9q0-0.2 0-0.4c0-0.1 0-0.3 0.3-0.3h3.5c0.6 0 0.6 0 0.6-0.6v-14.3c0-0.6 0-0.7-0.6-0.6h-3.6c-0.2 0-0.2 0-0.2-0.3q0-0.3 0-0.7q0-2.9 0-5.9c0-0.3 0-0.4 0.3-0.4h17.9h0.6q0.1 0 0.1 0q0.1 0.1 0.1 0.1q0 0 0.1 0.1q0 0 0 0.1v0.2q0 3.2 0 6.4v0.2c0 0.2-0.1 0.2-0.3 0.2h-3.6c-0.5 0-0.6 0-0.6 0.6v14.5c0 0 0 0.1 0 0.1c0 0.3 0.1 0.3 0.4 0.3h3.8c0.3 0 0.3 0 0.3 0.3v6.6c0 0.3 0 0.3-0.4 0.3z"/>
				<path id="Layer" fill-rule="evenodd" class="s0" d="m22.6 15.4q0.1-0.3 0.3-0.6c0.1-0.2 0.4-0.7 0.7-1l1.7-2.4c0.2-0.2 0.5-0.5 0.7-0.7c0.2-0.3 0.1-0.5-0.2-0.7c-0.9-0.5-1.9-1-2.8-1.6c-0.4-0.2-0.4-0.2-0.7 0q-0.4 0.4-0.8 0.7q-0.5 0.3-0.8 0.7q-0.4 0.4-0.8 0.7q-0.4 0.4-0.8 0.8q-0.4 0.4-0.7 0.8q-0.4 0.4-0.8 0.9q-0.3 0.4-0.7 0.8q-0.3 0.5-0.7 0.9q-0.2 0.3-0.3 0.5q-0.1 0.1-0.1 0.1q-0.1 0.1-0.1 0.1q-0.1 0-0.1 0q-0.1 0.1-0.2 0h-0.6q0 0-0.1 0q0 0 0 0q-0.1 0-0.1 0q0 0-0.1 0q0 0 0.1-0.1q0 0 0 0q0 0 0-0.1q0 0 0 0c0.5-0.7 1-1.5 1.6-2.2c0.6-0.7 1.1-1.3 1.7-1.9q0.4-0.5 0.9-1c0.8-0.7 1.5-1.4 2.3-2.1c0.8-0.7 1.8-1.5 2.8-2.1q0.2-0.2 0.5-0.4q0.3-0.2 0.6-0.4q0.3-0.1 0.6-0.3q0.3-0.2 0.6-0.3c1-0.6 2-1 3-1.5q0.9-0.4 1.9-0.8c0.6-0.2 1.2-0.4 1.8-0.6c0.6-0.2 1.3-0.4 2-0.6q0.5-0.1 1.1-0.2c0.4-0.1 0.8-0.2 1.2-0.3q0.1 0 0.3 0q0.1 0 0.3-0.1q0.1 0 0.3 0q0.1 0 0.3-0.1q0.2 0 0.4 0q0.2-0.1 0.4-0.1q0.2 0 0.4 0q0.2 0 0.4-0.1q0.5 0 0.9 0q0.5-0.1 1-0.1q0.4 0 0.9 0q0.5 0 1 0c0.7 0 1.4 0.1 2.1 0.1q0.3 0 0.6 0l1 0.2h0.1q0.8 0.1 1.6 0.2q0.9 0.2 1.7 0.4q0.6 0.1 1.1 0.2c0.4 0.2 1 0.4 1.6 0.5l0.8 0.3q0.3 0.1 0.7 0.2q0.4 0.1 0.7 0.3q0.4 0.1 0.7 0.3q0.3 0.1 0.7 0.3q1.1 0.5 2.3 1.1c0.7 0.4 1.3 0.8 2 1.2q0.5 0.3 0.9 0.6q0.5 0.4 1 0.7q0.4 0.4 0.9 0.7q0.4 0.4 0.9 0.8q0.4 0.3 0.8 0.7q0.3 0.3 0.7 0.7q0.4 0.3 0.7 0.7q0.4 0.4 0.7 0.7c0.5 0.6 1 1.2 1.5 1.8c0.6 0.6 1 1.3 1.5 1.9q0.2 0.3 0.4 0.6c0.1 0.2 0.1 0.2-0.1 0.2q-0.1 0.1-0.2 0.1q-0.1 0-0.3 0q-0.1 0-0.2 0q-0.1 0-0.2-0.1c-0.2 0-0.3-0.1-0.4-0.3c-0.4-0.6-0.9-1.2-1.4-1.8q-0.2-0.4-0.5-0.7q-0.3-0.3-0.5-0.6q-0.3-0.3-0.6-0.6q-0.3-0.3-0.6-0.5l-2.3-2.2l-0.5-0.4q-0.1 0-0.1-0.1q-0.1 0-0.2 0q-0.1 0-0.2 0q0 0-0.1 0.1l-2.1 1.2c-0.3 0.2-0.5 0.3-0.8 0.5c-0.2 0.1-0.2 0.2-0.1 0.5q0 0 0 0q0.1 0.1 0.1 0.1q0 0.1 0 0.1q0.1 0 0.1 0.1c0.4 0.4 0.8 0.9 1.1 1.3c0.4 0.5 0.8 1 1.1 1.6c0.4 0.5 0.7 1 1 1.4l0.2 0.3c-0.1 0-0.2 0.1-0.2 0.1h-0.8q0 0-0.1 0q0-0.1-0.1-0.1q0 0-0.1-0.1q0 0 0 0c-0.6-0.8-1-1.5-1.6-2.2c-0.4-0.5-0.8-1-1.3-1.6q-0.2-0.2-0.5-0.5q-0.1-0.1-0.1-0.1q-0.1-0.1-0.1-0.1q-0.1 0-0.2 0q-0.1 0-0.1 0l-1.8 0.8l-1.4 0.4l-1.6 0.6c-0.1 0-0.2 0-0.3 0c-0.4 0.1-0.5 0.3-0.4 0.6q0.3 0.8 0.6 1.5l0.3 0.6c-0.1 0-0.2 0.1-0.2 0.1h-0.7q-0.1 0-0.1 0q-0.1 0-0.1 0q0-0.1-0.1-0.1q0-0.1 0-0.1q-0.4-0.9-0.9-1.7c-0.1-0.4-0.2-0.4-0.6-0.3c-0.5 0.1-1.1 0.3-1.6 0.3c-0.8 0.2-1.5 0.2-2.3 0.3q0 0-0.1 0q0 0-0.1 0q-0.1 0-0.1 0q-0.1 0-0.1 0q-0.2 0.1-0.3 0.1q-0.2 0-0.4 0.1q-0.2 0-0.3 0q-0.2 0-0.4 0c-0.4 0-0.9 0-1.4 0.1c-0.4 0-0.4 0.1-0.4 0.4c0 0.3 0 0.4 0 0.6c0 0.2 0 0.3-0.2 0.3h-0.6c-0.3 0-0.3-0.1-0.3-0.3c-0.1-0.3 0-0.4 0-0.6q0-0.1-0.1-0.1q0-0.1-0.1-0.2q-0.1-0.1-0.2-0.1q-0.1 0-0.2 0q-0.9 0-1.7 0q-0.1 0-0.2 0q-0.1 0-0.2 0q-0.1-0.1-0.2-0.1q-0.1 0-0.2 0h-0.3c-0.8-0.1-1.7-0.2-2.5-0.3c-0.5-0.1-1-0.2-1.5-0.3h-0.3c-0.5-0.1-0.4-0.1-0.7 0.4q-0.2 0.4-0.4 0.8q-0.2 0.4-0.4 0.8q0 0.1-0.1 0.1q0 0.1 0 0.1q-0.1 0-0.1 0q-0.1 0-0.1 0h-0.7q-0.3 0-0.1-0.3c0.1-0.2 0.3-0.6 0.4-1q0.2-0.5 0.4-1c0.1-0.2 0-0.3-0.1-0.3q-1-0.3-1.9-0.6l-2-0.8l-1.5-0.6c-0.2 0-0.3 0-0.4 0.2c-0.1 0.1-0.4 0.4-0.6 0.6q-0.5 0.6-1.1 1.3c-0.3 0.4-0.7 1-1 1.4q-0.3 0.5-0.6 1q-0.1 0-0.1 0.1q0 0-0.1 0q0 0 0 0q0 0-0.1 0.1q-0.4 0-0.9 0c-0.1-0.2-0.1-0.2-0.1-0.3zm19.9-6.1v-3.1c0-0.6 0-0.7-0.6-0.7h-0.1l-1.9-0.3q-0.1 0-0.2 0q0 0-0.1 0q-0.1 0.1-0.1 0.1q-0.1 0-0.1 0.1l-1.1 1.4q-0.2 0.3-0.4 0.6q-0.3 0.3-0.5 0.7q-0.3 0.3-0.5 0.7q-0.2 0.3-0.4 0.7l-1.3 2c-0.2 0.3-0.1 0.6 0.3 0.7c0.3 0.1 0.8 0.2 1.2 0.3h0.4c0.8 0.1 1.6 0.3 2.4 0.4c0.8 0 1.7 0 2.6 0c0.4 0 0.4-0.1 0.4-0.5zm1.2 0c0 0.1 0 3.4 0 3.5q0 0 0 0.1q0 0 0.1 0.1q0 0 0.1 0q0.1 0 0.1 0h0.3c1 0 2.1 0 3.2-0.2q0.4 0 0.9-0.1q0.4-0.1 0.8-0.1q0.4-0.1 0.8-0.2q0.4-0.1 0.8-0.2c0.2-0.1 0.2-0.1 0.1-0.4c-0.1-0.2-0.3-0.6-0.5-0.9c-0.4-0.7-0.9-1.5-1.4-2.3c-0.5-0.7-0.9-1.3-1.3-1.9q-0.5-0.6-0.9-1.2q-0.1-0.1-0.2-0.1q0-0.1-0.1-0.1q-0.1-0.1-0.3-0.1q-0.1 0-0.2 0.1q0 0 0 0q-0.1 0-0.1 0q-0.1 0-0.1 0q0 0-0.1 0.1l-1.6 0.2c-0.4 0-0.4 0-0.4 0.4q0 1.7 0 3.3zm6.1-5.3q-0.1 0-0.1 0q0 0-0.1 0q0 0-0.1 0q0 0-0.1 0l-1.3 0.6q-0.4 0.2-0.1 0.6q0.3 0.4 0.6 0.8q0.3 0.5 0.6 0.9q0.3 0.5 0.6 0.9q0.3 0.5 0.6 0.9q0.8 1.3 1.6 2.7c0.2 0.4 0.4 0.4 0.8 0.3l0.4-0.1q0.2-0.1 0.5-0.2q0.2 0 0.5-0.1q0.2-0.1 0.5-0.2q0.2 0 0.5-0.1l2.2-1c0.3-0.1 0.4-0.3 0.1-0.6q0 0 0-0.1q0 0-0.1 0q0 0 0-0.1q-0.1 0-0.1 0q-0.4-0.4-0.8-0.7q-0.3-0.4-0.7-0.7q-0.4-0.3-0.8-0.6q-0.4-0.4-0.8-0.7q-0.3-0.2-0.7-0.4q-0.3-0.3-0.6-0.5q-0.3-0.2-0.7-0.4q-0.3-0.2-0.6-0.4q-0.7-0.4-1.5-0.8q0 0-0.1 0q0 0 0 0q-0.1 0-0.1-0.1q-0.1 0-0.1 0.1zm-16.2 7.8q0.1 0 0.1 0q0.1 0 0.2-0.1q0 0 0.1-0.1q0 0 0-0.1q0.5-0.8 0.9-1.6q0.4-0.6 0.7-1.2q0.4-0.5 0.8-1.1q0.4-0.5 0.7-1.1q0.4-0.5 0.9-1.1q0 0 0-0.1q0 0 0.1-0.1q0 0 0-0.1q0 0 0-0.1c0.1-0.2 0-0.3-0.2-0.4l-0.4-0.1l-1-0.5q0 0-0.1 0q-0.1-0.1-0.1-0.1q-0.1 0.1-0.2 0.1q0 0-0.1 0l-0.1 0.1c-0.9 0.6-1.8 1-2.6 1.6q-0.6 0.4-1.2 0.9q-0.6 0.4-1.1 0.9q-0.6 0.4-1.2 0.9q-0.5 0.5-1.1 1q0 0.1 0 0.1q-0.1 0-0.1 0q0 0.1 0 0.1q0 0-0.1 0.1q0 0 0 0.1q0 0.1 0 0.1q0 0.1 0.1 0.1q0 0.1 0.1 0.1q0.4 0.2 0.8 0.4q1.3 0.4 2.6 0.9q0.4 0.1 0.8 0.2zm9.7-10.6q-0.6-0.1-1.2-0.1q-0.7 0-1.3 0.1q-0.6 0-1.3 0.1q-0.6 0.1-1.2 0.2q-0.2 0-0.3 0q-0.2 0-0.3 0q-0.1 0-0.3 0.1q-0.1 0-0.3 0q-0.1 0.1-0.2 0.1q-0.1 0-0.2 0q-0.1 0-0.2 0.1q-0.1 0-0.2 0q0 0-0.1 0q0 0 0 0q-0.1 0-0.1 0q0 0-0.1 0.1q0 0-0.1 0q0 0.1 0 0.2q0 0.1 0 0.1q0 0.1 0.1 0.2q0 0 0.1 0q0 0 0 0.1q0.1 0 0.1 0q0 0 0.1 0.1q0.2 0.1 0.4 0.2q0.2 0.2 0.4 0.3q0.3 0.1 0.5 0.2q0.2 0.1 0.5 0.3q0.2 0 0.4 0.1q0.2 0.1 0.4 0.1q0.2 0.1 0.5 0.1q0.2 0.1 0.4 0.1q0.2 0.1 0.4 0.1q0.1 0.1 0.3 0.1q0.2 0 0.4 0q0.1 0.1 0.3 0.1q0 0 0 0q0.1 0 0.1 0q0 0 0 0q0 0 0 0c0.3 0 0.6 0.1 1 0.1c0.4 0 1 0 1.4 0q0.1 0 0.2 0q0 0 0.1 0q0.1 0 0.2 0q0 0 0.1 0q0.9-0.2 1.9-0.4q0.1 0 0.3 0q0.1-0.1 0.3-0.1q0.1 0 0.3-0.1q0.2 0 0.3-0.1q0.4-0.1 0.7-0.2q0.4-0.2 0.7-0.3q0.3-0.2 0.7-0.4q0.3-0.2 0.6-0.4q0 0 0.1 0q0-0.1 0.1-0.1q0-0.1 0-0.1q0-0.1 0-0.2c0-0.1-0.2-0.2-0.4-0.2c-0.1 0-0.4 0-0.6-0.1c-0.4 0-0.9-0.2-1.3-0.2c-0.5-0.1-1.2-0.2-1.8-0.2q-0.1-0.1-0.2-0.1q-0.1 0-0.2 0q-0.1 0-0.2 0q-0.1 0-0.2 0zm-16.1 8.2q0 0 0.1-0.1q0 0 0 0q0.1 0 0.1-0.1q0 0 0.1 0c0.1-0.1 0.2-0.3 0.4-0.4q0.5-0.5 1-0.9q0.4-0.5 0.9-0.9q0.5-0.4 1.1-0.8q0.5-0.4 1-0.8l2.2-1.4q0.3-0.2 0.6-0.4q0.1 0 0.2-0.1q0-0.1 0-0.2q0-0.1 0-0.2q0-0.1-0.1-0.1q-0.1-0.1-0.1-0.2q-0.1 0-0.2-0.1q0 0-0.1-0.1q-0.1 0-0.1 0q-0.1-0.1-0.2-0.1q0 0-0.1 0q-0.1 0-0.1 0q-0.1 0-0.2 0.1c-0.1 0-0.2 0-0.3 0l-0.4 0.1c-0.1 0-0.2 0.1-0.3 0.1c-0.7 0.3-1.5 0.6-2.3 0.9c-0.8 0.3-1.3 0.6-1.9 0.9q-0.5 0.2-0.9 0.4q-0.4 0.2-0.8 0.4q-0.5 0.3-0.9 0.5q-0.4 0.3-0.8 0.5q-0.1 0.1-0.2 0.2q-0.2 0.1-0.3 0.2q-0.1 0-0.2 0.1q-0.1 0.1-0.2 0.2c-0.4 0.3-0.4 0.5 0 0.8l0.7 0.3l1.7 1q0 0 0.1 0.1q0.1 0 0.2 0q0 0 0.1 0q0.1 0.1 0.2 0.1zm32-0.1q0 0 0.1 0q0.1-0.1 0.1-0.1q0.1 0 0.1-0.1q0.1 0 0.1 0l2.4-1.4c0.3-0.2 0.4-0.4 0-0.7q-1.2-0.8-2.5-1.5q-0.9-0.6-2-1.1q-0.2-0.1-0.5-0.2q-0.3-0.2-0.5-0.3q-0.3-0.1-0.5-0.2q-0.3-0.1-0.6-0.2c-0.7-0.3-1.4-0.6-2.2-0.8q-0.1 0-0.2 0q-0.1-0.1-0.2-0.1q-0.1 0-0.2-0.1q-0.1 0-0.2-0.1q-0.1 0-0.1 0q-0.1 0-0.2 0q0 0-0.1 0q0 0-0.1 0q0 0.1-0.1 0.1q0 0 0 0q-0.1 0.1-0.1 0.1q0 0-0.1 0q-0.1 0.1-0.2 0.2q-0.1 0.1-0.1 0.3q0 0.1 0.1 0.3q0.1 0.1 0.2 0.2h0.1q0.4 0.2 0.8 0.5q0.5 0.2 0.9 0.5q0.4 0.3 0.7 0.5q0.4 0.3 0.8 0.6c0.7 0.5 1.3 1.1 2 1.7c0.7 0.5 1.2 1.1 1.8 1.7q0.1 0 0.1 0q0.1 0.1 0.1 0.1q0.1 0 0.1 0.1q0 0 0.1 0z"/>
				<path id="Layer" fill-rule="evenodd" class="s0" d="m63.8 52.2q0 0 0 0q0 0 0 0q0 0.1 0 0.1q0 0 0 0q-0.5 0.7-0.9 1.4c-0.3 0.5-0.6 1-1 1.4c-0.5 0.6-1 1.2-1.4 1.8l-0.1 0.1q-0.1 0.1-0.2 0.1q0 0.1 0 0.2q0 0.1 0.1 0.2q0.1 0.1 0.2 0.1q0.8 0.5 1.7 1q0.6 0.3 1.2 0.7q0 0.1 0.1 0.1q0.1 0 0.2 0q0.1 0 0.2 0q0.1 0 0.2-0.1l0.4-0.4q0.5-0.4 0.9-0.8q0.5-0.4 0.9-0.8q0.4-0.4 0.8-0.8q0.4-0.5 0.8-0.9c0.4-0.5 0.9-1 1.2-1.5c0.4-0.4 0.8-1 1.2-1.6q0.1-0.1 0.2-0.2q0 0 0.1-0.1q0.1 0 0.3 0q0.1-0.1 0.2 0q0.1 0 0.1 0q0.1 0 0.2 0q0.1 0 0.2 0q0.1 0 0.2 0q-0.1 0-0.1 0q0 0.1 0 0.1q0 0 0 0.1q0 0-0.1 0q-0.7 1.1-1.5 2.1q-0.2 0.3-0.4 0.6q-0.2 0.3-0.4 0.6q-0.3 0.2-0.5 0.5q-0.2 0.2-0.5 0.5c-0.8 0.8-1.5 1.6-2.3 2.4q-0.4 0.3-0.7 0.6q-0.4 0.3-0.8 0.6q-0.3 0.3-0.7 0.6q-0.4 0.2-0.7 0.5c-0.7 0.4-1.3 0.9-1.9 1.3q-1.3 0.8-2.7 1.5q-0.3 0.1-0.7 0.3q-0.3 0.1-0.6 0.3q-0.3 0.1-0.7 0.3q-0.3 0.1-0.6 0.2c-0.9 0.4-1.8 0.6-2.6 0.9q-0.5 0.2-1 0.4h-0.1c-0.8 0.1-1.5 0.2-2.3 0.4c-0.5 0.2-1 0.2-1.4 0.3q-0.2 0-0.5 0.1q-0.2 0-0.4 0q-0.2 0.1-0.4 0.1q-0.3 0-0.5 0q-0.6 0.1-1.3 0.1q-0.6 0-1.3 0.1q-0.6 0-1.3 0q-0.6 0-1.3-0.1c-1 0-2.1-0.1-3.1-0.2l-0.5-0.1q0 0 0 0q-0.1 0-0.1 0q0 0 0-0.1q-0.1 0-0.1 0q-0.3 0-0.6-0.1q-0.3 0-0.6-0.1q-0.3 0-0.6-0.1q-0.3-0.1-0.6-0.1q-0.3-0.1-0.6-0.2q-0.3 0-0.6-0.1q-0.3-0.1-0.6-0.2q-0.3-0.1-0.6-0.2c-0.7-0.2-1.4-0.5-2.1-0.7c-1-0.4-1.9-0.8-2.8-1.3q-0.6-0.2-1.1-0.5q-0.5-0.3-1-0.6q-0.5-0.3-1-0.6q-0.5-0.3-0.9-0.6c-1-0.8-2-1.5-3-2.3q-0.3-0.3-0.6-0.6q-0.4-0.3-0.7-0.6q-0.3-0.3-0.6-0.6q-0.3-0.3-0.6-0.6q-0.4-0.4-0.7-0.7q-0.3-0.4-0.6-0.7q-0.3-0.4-0.6-0.8q-0.3-0.3-0.6-0.7q-0.6-0.9-1.2-1.8q-0.1 0-0.1 0q0 0 0-0.1q0 0 0 0q-0.1-0.1-0.1-0.1q0.1 0 0.1 0q0 0 0.1 0q0 0 0 0q0.1 0 0.1 0q0.3 0 0.6 0q0.1 0 0.2 0q0 0 0.1 0.1q0.1 0 0.2 0q0 0.1 0 0.2q0.8 1 1.6 2q0.2 0.3 0.4 0.6q0.3 0.2 0.5 0.5q0.3 0.3 0.5 0.6q0.3 0.2 0.6 0.5c0.7 0.8 1.5 1.5 2.3 2.2q0.3 0.2 0.6 0.4q0.1 0.1 0.2 0.1q0.1 0.1 0.2 0.1q0.1 0 0.2 0q0.1-0.1 0.1-0.1l2.7-1.6c0.4-0.2 0.4-0.5 0.2-0.8c-0.7-0.8-1.4-1.7-2-2.5c-0.5-0.7-0.9-1.4-1.4-2q0-0.1 0-0.1q0 0 0-0.1q0 0 0 0q0-0.1-0.1-0.1q0.1 0 0.1 0q0.1 0 0.1 0q0 0 0.1 0q0 0 0 0q0.1 0 0.1 0q0.1 0 0.1 0q0.1 0 0.1 0q0.1 0 0.1 0c0.4-0.1 0.6 0.1 0.7 0.4c0.5 0.6 0.9 1.2 1.4 1.8q0.2 0.3 0.4 0.6q0.3 0.3 0.5 0.6q0.2 0.3 0.5 0.6q0.2 0.2 0.5 0.5c0.2 0.3 0.3 0.3 0.6 0.2c0.6-0.3 1.1-0.5 1.7-0.8q0.7-0.2 1.3-0.4c0.4-0.2 0.8-0.3 1.2-0.4l0.8-0.3h0.3c0.3-0.2 0.3-0.3 0.2-0.6q-0.5-1-0.9-2q-0.1-0.2 0.2-0.3h0.6q0.1 0 0.1 0.1q0.1 0 0.1 0q0.1 0 0.1 0.1q0 0 0.1 0.1l0.4 1q0.3 0.4 0.5 0.9q0 0 0.1 0q0 0.1 0 0.1q0.1 0 0.1 0q0.1 0 0.1 0c0.3 0 0.6 0 0.9-0.1q0.2 0 0.5-0.1q0.2 0 0.5-0.1q0.2 0 0.5 0q0.3-0.1 0.5-0.1q0.1 0 0.1 0q0.1 0 0.1 0q0 0 0.1 0q0-0.1 0.1-0.1c0.2 0 0.4-0.1 0.6-0.1q0.2 0 0.4 0q0.2 0 0.4 0q0.3 0 0.5-0.1q0.2 0 0.4 0c0.5-0.1 1.1-0.1 1.6-0.1c0.6 0 0.6-0.2 0.6-0.6q0-0.3 0-0.5c0-0.2 0-0.3 0.3-0.3h0.6c0.2 0 0.3 0.1 0.3 0.3c0 0.2 0 0.3 0 0.5c0 0.5 0 0.5 0.5 0.5q1 0.1 2 0.2q0.2 0 0.4 0q0.3 0.1 0.5 0.1q0.2 0 0.4 0q0.2 0 0.4 0q0.1 0 0.1 0.1q0.1 0 0.2 0q0 0 0.1 0q0 0 0.1 0l0.8 0.1q0 0 0 0q0.1 0 0.1 0q0 0 0.1 0q0 0 0 0l2 0.4c0.4 0.1 0.4 0.1 0.6-0.3q0.4-0.8 0.8-1.6q0-0.1 0.1-0.2q0.1 0 0.1-0.1q0.1 0 0.2 0q0.1-0.1 0.2 0q0.1 0 0.2 0q0.1 0 0.1 0q0.1 0 0.2 0q0.1 0 0.2 0q0 0 0 0q0 0 0 0.1q0 0 0 0q0 0.1 0 0.1q-0.4 1-0.9 2c-0.1 0.3-0.1 0.4 0.3 0.5l0.9 0.3q0.2 0.1 0.5 0.2c0.6 0.2 1.3 0.4 2 0.6c0.7 0.3 1.2 0.5 1.8 0.7c0.2 0.2 0.3 0.2 0.5-0.1q0.3-0.3 0.5-0.5q0.3-0.3 0.6-0.6q0.2-0.3 0.4-0.6q0.3-0.4 0.5-0.7q0.7-0.9 1.3-1.8q0.1-0.1 0.1-0.1q0-0.1 0.1-0.1q0 0 0.1 0q0 0 0.1 0h0.8q0 0 0 0q0 0 0 0q-0.1 0-0.1 0q0 0 0 0zm-20 6.2v3.3c0 0.4 0.1 0.5 0.5 0.5c0.3 0.1 0.9 0.2 1.3 0.2l0.9 0.1q0 0 0.1 0q0.1 0 0.2 0q0.1-0.1 0.1-0.1q0.1-0.1 0.1-0.1q0.6-0.9 1.2-1.7q0.6-0.8 1.2-1.6c0.4-0.5 0.8-1.3 1.2-2q0.3-0.5 0.6-1c0.2-0.3 0.1-0.4-0.2-0.5l-1.5-0.3l-0.4-0.1q-0.3 0-0.5 0q-0.3-0.1-0.5-0.1q-0.3 0-0.5-0.1q-0.3 0-0.5 0h-0.2c-0.2 0-0.4-0.1-0.7-0.1c-0.2 0-0.6 0-1 0l-1-0.1c-0.3 0-0.4 0.1-0.4 0.4q0 0 0 0q0 0.1 0 0.1q0 0 0 0q0 0 0 0.1zm-1.2 0c0-0.4 0-3.1 0-3.4c0-0.4-0.1-0.4-0.4-0.4q-0.1 0-0.1 0q-0.1 0-0.2 0q0 0-0.1 0q-0.1 0-0.1 0c-1.1 0-2.1 0.2-3.2 0.2c-0.1 0-0.3 0.1-0.4 0.1l-0.6 0.1q-0.3 0-0.5 0.1q-0.3 0-0.5 0.1q-0.3 0-0.5 0.1q-0.3 0.1-0.5 0.1q-0.1 0-0.1 0.1q0 0 0 0q-0.1 0.1-0.1 0.1q0 0 0 0.1q0 0 0 0.1q0 0 0.1 0q0 0.1 0 0.1q0 0 0 0.1q0.2 0.2 0.3 0.5c0.4 0.6 0.8 1.3 1.2 2q1.2 1.9 2.5 3.6q0.1 0.1 0.2 0.2q0.1 0.1 0.2 0.1q0.1 0.1 0.2 0.1q0.1 0 0.2 0q1-0.2 1.9-0.3c0.5 0 0.6-0.1 0.6-0.6zm-9-2.5q0 0 0 0q-0.1 0-0.1 0q-0.1 0.1-0.1 0.1q0 0-0.1 0q-1 0.3-2.1 0.7q-0.7 0.2-1.4 0.5c-0.5 0.2-0.7 0.3-1.1 0.5c-0.3 0.1-0.3 0.3-0.1 0.6q0.1 0.1 0.2 0.2q0 0.1 0.1 0.1q0.1 0.1 0.2 0.2q0 0.1 0.1 0.1c1 0.8 2 1.7 3 2.4q0.5 0.4 0.9 0.7q0.5 0.3 1 0.6q0.5 0.3 0.9 0.6q0.5 0.3 1 0.6q0.1 0 0.1 0q0.1 0.1 0.2 0.1q0 0 0.1-0.1q0.1 0 0.1 0q0.8-0.4 1.6-0.7c0.3-0.1 0.3-0.3 0.2-0.5l-1.9-2.6q-0.6-0.9-1.1-1.8c-0.4-0.6-0.8-1.3-1.2-2q0 0 0-0.1q-0.1-0.1-0.1-0.1q-0.1-0.1-0.2-0.1q0 0-0.1 0zm16.3 7.9l0.5-0.3q0.4-0.2 0.8-0.4q0.3-0.2 0.7-0.4q0.4-0.2 0.7-0.5q0.4-0.2 0.7-0.5c0.4-0.2 0.8-0.5 1.2-0.8q1-0.8 1.9-1.6c0.4-0.4 0.8-0.8 1.2-1.2c0.2-0.2 0.1-0.4-0.2-0.5l-0.8-0.4q-0.6-0.2-1.2-0.4q-0.9-0.3-1.8-0.6q-0.5-0.1-1-0.2c-0.4-0.1-0.4 0-0.5 0.2c-0.7 1.2-1.4 2.4-2.1 3.5c-0.5 0.9-1.1 1.7-1.7 2.5q0 0-0.1 0.1q0 0.1 0 0.1q-0.1 0.1-0.1 0.1q0 0.1-0.1 0.1c-0.2 0.4-0.1 0.4 0.2 0.6l1.2 0.5zm-6.8 2.9q0.3 0 0.6 0c0.9-0.1 1.8-0.1 2.7-0.2q1-0.1 2-0.2c0.5-0.1 1-0.3 1.6-0.4c0.1 0 0.3 0 0.3-0.2c0.1-0.2 0-0.3-0.2-0.4q-0.3-0.2-0.5-0.3q-0.3-0.2-0.6-0.3q-0.2-0.1-0.5-0.2q-0.3-0.2-0.6-0.3q-0.6-0.2-1.3-0.4c-0.4-0.1-1-0.2-1.5-0.3c-0.3-0.1-0.6 0-0.9-0.1q-0.4 0-0.8 0q-0.4 0-0.7 0q-0.4 0-0.8 0q-0.4 0-0.7 0.1q-0.2 0-0.4 0.1q-0.2 0-0.4 0q-0.2 0.1-0.4 0.1q-0.1 0.1-0.3 0.1q-0.2 0.1-0.3 0.1q-0.2 0-0.4 0.1q-0.1 0-0.3 0.1q-0.1 0.1-0.3 0.1q-0.8 0.3-1.6 0.7q-0.1 0.1-0.1 0.1q-0.1 0.1-0.2 0.1q-0.1 0.1-0.2 0.1q-0.1 0.1-0.2 0.2q0 0-0.1 0q0 0.1 0 0.1q-0.1 0.1-0.1 0.1q0 0.1 0 0.1c0 0.2 0.2 0.2 0.3 0.3h0.1l1.2 0.2c0.5 0.1 1 0.2 1.5 0.2q1.1 0.2 2.2 0.2zm19.2-6.3q0.1-0.1 0-0.2q0 0 0-0.1q0 0-0.1-0.1q0 0-0.1 0l-2.2-1.3q-0.1 0-0.1-0.1q-0.1 0-0.2 0q0-0.1-0.1-0.1q-0.1 0-0.2-0.1q0 0-0.1 0q-0.1 0-0.2 0q0 0-0.1 0q-0.1 0.1-0.1 0.1q-0.2 0.3-0.5 0.5c-0.4 0.4-1 0.8-1.4 1.2q-0.2 0.3-0.5 0.5q-0.2 0.2-0.5 0.5q-0.2 0.2-0.5 0.4q-0.3 0.2-0.5 0.4q-0.8 0.6-1.7 1.2l-1.3 0.8q-0.2 0.1-0.4 0.3q-0.1 0-0.1 0.1q-0.1 0-0.1 0.1q0 0 0 0.1q0 0.1 0.1 0.1q0.1 0.1 0.1 0.2q0.1 0 0.2 0.1q0.1 0.1 0.2 0.1q0.1 0.1 0.2 0.1q0 0.1 0.1 0.1q0 0 0.1 0q0.1 0 0.1 0q0.1 0 0.2-0.1l2.2-0.7q0.3-0.1 0.7-0.2q0.3-0.2 0.6-0.3q0.4-0.1 0.7-0.3q0.3-0.2 0.6-0.3q0.9-0.5 1.8-0.9q0.4-0.2 0.8-0.5q0.4-0.2 0.7-0.4q0.4-0.3 0.8-0.5q0.3-0.2 0.7-0.5q0 0 0-0.1q0.1 0 0.1 0q0 0 0-0.1q0.1 0 0.1 0zm-28.4 4.9q0.1 0 0.2-0.1q0.1 0 0.2-0.1q0.1 0 0.2-0.1q0.1 0 0.2-0.1q0.3-0.4-0.1-0.7q-1-0.7-2.1-1.3q-0.4-0.3-0.7-0.5q-0.4-0.3-0.7-0.5q-0.4-0.3-0.7-0.6q-0.4-0.2-0.7-0.5c-0.8-0.7-1.5-1.5-2.3-2.2q-0.1-0.1-0.1-0.1q-0.1 0-0.2-0.1q-0.1 0-0.1 0q-0.1 0-0.2 0.1q-0.6 0.3-1.2 0.6c-0.4 0.2-1 0.6-1.5 0.9q-0.5 0.3 0 0.7q0.1 0 0.1 0q0.1 0.1 0.1 0.1q0.1 0 0.1 0.1q0.1 0 0.1 0.1c0.5 0.3 1 0.6 1.6 1q0.4 0.2 0.8 0.4q0.4 0.3 0.8 0.5q0.4 0.2 0.9 0.4q0.4 0.2 0.8 0.4q1 0.5 2.1 0.8c0.7 0.3 1.5 0.5 2.2 0.8q0 0 0.1 0q0 0 0 0q0.1 0 0.1 0q0 0 0 0z"/>
				<path id="Layer" fill-rule="evenodd" class="s0" d="m0.3 88.8q0.1 0 0.1-0.1q0.1 0 0.1 0q0.1 0 0.1 0q0 0 0.1 0q0.8-0.1 1.6-0.2c0.3 0 0.4-0.1 0.5 0.3q0.1 0.2 0.2 0.4q0.1 0.2 0.2 0.3q0.2 0.2 0.4 0.3q0.1 0.1 0.3 0.1q0.2 0.1 0.4 0q0.2 0 0.4 0q0.2-0.1 0.4-0.2q0.2-0.1 0.3-0.3q0.2-0.1 0.3-0.3q0.1-0.2 0.2-0.4q0.1-0.2 0.1-0.4q0.1-0.3 0.1-0.5q0.1-0.6 0.2-1.3l-0.1-0.2q0 0 0 0q0 0-0.1 0q0 0 0 0q0 0-0.1 0c-0.2 0.2-0.3 0.4-0.5 0.5q-0.2 0.1-0.4 0.2q-0.2 0-0.3 0.1q-0.2 0-0.4 0.1q-0.2 0-0.4 0q-0.2 0-0.4 0q-0.2 0-0.3 0q-0.2-0.1-0.4-0.1q-0.2 0-0.3-0.1q-0.2-0.1-0.3-0.1q-0.2-0.1-0.3-0.2q-0.1-0.1-0.3-0.1q-0.1-0.1-0.2-0.2q-0.1-0.1-0.2-0.2q-0.1-0.1-0.1-0.2q-0.1 0-0.2-0.1q-0.1-0.1-0.1-0.2q-0.2-0.2-0.3-0.4q-0.1-0.3-0.2-0.5q-0.1-0.2-0.2-0.4q-0.1-0.3-0.1-0.5q-0.1-0.2-0.1-0.4q0-0.2 0-0.5q0-0.2 0-0.4q0-0.2 0-0.4q0-0.3 0.1-0.6q0-0.2 0.1-0.5q0.1-0.3 0.3-0.5q0.1-0.3 0.3-0.5q0.1-0.2 0.2-0.3q0.1-0.2 0.2-0.3q0.1-0.1 0.3-0.2q0.1-0.1 0.3-0.2q0.2-0.2 0.4-0.3q0.2-0.1 0.5-0.2q0.2-0.1 0.5-0.2q0.2 0 0.5 0q0.1 0 0.2 0q0.1 0 0.3 0q0.1 0 0.2 0q0.1 0 0.3 0q0.3 0 0.6 0.1q0.4 0 0.7 0.2q0.3 0.1 0.6 0.3q0.3 0.2 0.5 0.4q0.3 0.3 0.6 0.7q0.3 0.3 0.5 0.7q0.2 0.4 0.3 0.9q0.1 0.4 0.2 0.8q0 0.2 0 0.5q0.1 0.2 0.1 0.4q0 0.2 0 0.5q0 0.2 0 0.4q0 1.2 0 2.4q0 0.5-0.1 1q0 0.5-0.2 0.9q-0.1 0.5-0.4 0.9q-0.2 0.5-0.5 0.9q-0.1 0.1-0.2 0.2q-0.1 0.2-0.2 0.3q-0.1 0.1-0.3 0.2q-0.1 0.1-0.3 0.2q-0.1 0.1-0.3 0.2q-0.2 0.1-0.3 0.2q-0.2 0-0.4 0.1q-0.2 0.1-0.4 0.1q-0.3 0.1-0.6 0.1q-0.4 0.1-0.7 0q-0.3 0-0.7 0q-0.3-0.1-0.6-0.2q-0.2 0-0.4-0.1q-0.1-0.1-0.3-0.2q-0.2-0.1-0.3-0.2q-0.2-0.2-0.3-0.3q-0.2-0.2-0.3-0.5q-0.2-0.3-0.3-0.5q-0.2-0.3-0.2-0.6q-0.1-0.3-0.2-0.6zm5.8-5.7v-0.4q0-0.2-0.1-0.4q0-0.2-0.1-0.4q0-0.2-0.1-0.4q-0.1-0.2-0.3-0.4q-0.1-0.2-0.2-0.3q-0.2-0.1-0.4-0.2q-0.2-0.1-0.4-0.2q-0.2 0-0.4 0q-0.2 0-0.5 0q-0.2 0.1-0.4 0.3q-0.1 0.1-0.3 0.3q-0.1 0.1-0.2 0.4q-0.1 0.3-0.2 0.6q-0.1 0.4-0.1 0.7q0 0.4 0.1 0.7q0 0.4 0.1 0.7q0.1 0.3 0.3 0.6q0.1 0.2 0.4 0.4q0.2 0.2 0.5 0.3q0.3 0 0.6 0q0.2 0 0.4-0.1q0.3 0 0.4-0.2q0.2-0.1 0.4-0.3q0.1-0.2 0.2-0.4q0.1-0.1 0.2-0.3q0-0.1 0-0.3q0.1-0.2 0.1-0.4q0-0.1 0-0.3z"/>
				<path id="Layer" fill-rule="evenodd" class="s0" d="m59 85.2q0-0.6 0-1.2c0-0.5 0.1-1 0.2-1.5q0-0.1 0-0.3q0.1-0.1 0.1-0.3q0-0.1 0.1-0.3q0-0.1 0-0.2q0.1-0.2 0.2-0.5q0.1-0.2 0.1-0.4q0.1-0.2 0.3-0.4q0.1-0.2 0.2-0.3q0.2-0.2 0.4-0.4q0.2-0.2 0.4-0.4q0.2-0.2 0.4-0.3q0.3-0.1 0.6-0.2q0.2-0.1 0.4-0.1q0.3-0.1 0.5-0.1q0.3 0 0.5 0q0.3 0 0.6 0q0.2 0.1 0.5 0.1q0.3 0.1 0.6 0.2q0.2 0.1 0.5 0.3q0.2 0.2 0.4 0.4q0.3 0.2 0.4 0.4q0.2 0.3 0.4 0.5q0.1 0.3 0.3 0.6q0.1 0.3 0.2 0.6q0 0.2 0.1 0.5q0.1 0.3 0.1 0.5q0.1 0.3 0.1 0.5q0 0.3 0.1 0.6q0 0.3 0 0.7q0 0.4 0 0.7q0 0.4 0 0.7q0 0.4 0 0.8q-0.1 0.2-0.1 0.3q0 0.2 0 0.4q0 0.2-0.1 0.4q0 0.2 0 0.4q-0.1 0.2-0.1 0.4q-0.1 0.2-0.1 0.4q-0.1 0.2-0.1 0.3q-0.1 0.2-0.2 0.4q-0.1 0.3-0.2 0.5q-0.1 0.3-0.3 0.5q-0.1 0.3-0.3 0.5q-0.2 0.2-0.4 0.3q-0.2 0.2-0.4 0.3q-0.1 0.1-0.3 0.2q-0.2 0-0.4 0.1q-0.2 0.1-0.4 0.1q-0.2 0.1-0.5 0.1q-0.3 0-0.6 0q-0.2 0-0.5 0q-0.3 0-0.6-0.1q-0.4-0.1-0.8-0.3q-0.4-0.3-0.8-0.6q-0.3-0.3-0.6-0.7q-0.2-0.4-0.4-0.9q-0.1-0.3-0.2-0.6q-0.1-0.3-0.1-0.6q-0.1-0.3-0.1-0.6q-0.1-0.4-0.1-0.7c0-0.6-0.1-1.1-0.1-1.7zm2.6 0q0 0.6 0 1.2q0 0.3 0 0.5q0.1 0.3 0.1 0.5q0 0.2 0 0.5q0.1 0.2 0.1 0.4q0.1 0.2 0.1 0.3q0.1 0.2 0.1 0.3q0.1 0.2 0.1 0.3q0.1 0.1 0.2 0.3q0.2 0.1 0.3 0.2q0.2 0.2 0.4 0.2q0.2 0.1 0.5 0.1q0.2-0.1 0.4-0.1q0.1-0.1 0.3-0.2q0.1-0.1 0.3-0.3q0.1-0.1 0.2-0.3q0-0.2 0.1-0.3q0.1-0.3 0.1-0.5q0.1-0.3 0.1-0.6q0.1-0.2 0.1-0.5q0-0.3 0-0.5q0-1.4 0-2.9q0-0.2 0-0.3q0-0.2 0-0.4q-0.1-0.2-0.1-0.4q0-0.2 0-0.3q-0.1-0.2-0.1-0.3q0-0.2-0.1-0.3q0-0.2-0.1-0.3q0-0.2-0.1-0.3q-0.1-0.3-0.3-0.5q-0.2-0.2-0.5-0.3q-0.3-0.1-0.6 0q-0.3 0-0.5 0.2q-0.1 0-0.2 0.1q-0.1 0.1-0.2 0.2q-0.1 0.1-0.2 0.2q0 0.2-0.1 0.3q-0.1 0.3-0.1 0.5q-0.1 0.3-0.2 0.6q0 0.3 0 0.6q-0.1 0.2-0.1 0.5c0 0.6 0 1.1 0 1.6z"/>
				<path id="Layer" fill-rule="evenodd" class="s0" d="m19.4 84.8c0 1 0 1.6-0.1 2.2q0 0.4-0.1 0.9q-0.1 0.4-0.2 0.8q-0.1 0.4-0.3 0.8q-0.2 0.4-0.4 0.8q-0.2 0.3-0.4 0.6q-0.3 0.2-0.6 0.4q-0.3 0.3-0.6 0.4q-0.3 0.1-0.7 0.2q-0.3 0.1-0.7 0.1q-0.3 0-0.6 0q-0.3 0-0.7-0.1q-0.3-0.1-0.6-0.2q-0.1-0.1-0.2-0.1q-0.1-0.1-0.2-0.1q-0.2-0.1-0.3-0.2q-0.1 0-0.1-0.1q-0.3-0.2-0.5-0.4q-0.2-0.2-0.3-0.4q-0.2-0.3-0.3-0.5q-0.2-0.3-0.2-0.5q-0.1-0.3-0.2-0.5q0-0.2-0.1-0.5q-0.1-0.2-0.1-0.5q0-0.2-0.1-0.5q0-0.4-0.1-0.8q0-0.5 0-0.9q0-0.5 0-0.9q0-0.5 0-0.9q0-0.3 0.1-0.6q0-0.3 0-0.6q0.1-0.3 0.1-0.6q0.1-0.3 0.2-0.6q0.1-0.2 0.1-0.4q0.1-0.3 0.2-0.5q0.1-0.2 0.2-0.4q0.2-0.2 0.3-0.4q0.2-0.2 0.4-0.4q0.2-0.3 0.4-0.4q0.2-0.2 0.5-0.3q0.3-0.2 0.5-0.2q0.3-0.1 0.5-0.1q0.2-0.1 0.5-0.1q0.2 0 0.5 0q0.2 0 0.4 0q0.5 0.1 0.9 0.2q0.5 0.2 0.8 0.4q0.4 0.3 0.7 0.6q0.3 0.4 0.5 0.8q0.2 0.3 0.3 0.6q0.1 0.3 0.2 0.6q0.1 0.3 0.2 0.7q0 0.3 0.1 0.6c0 0.8 0.1 1.6 0.1 2zm-2.6 0.3q0-0.7 0-1.4c0-0.4-0.1-0.9-0.2-1.3q0-0.2 0-0.3q0-0.2-0.1-0.3q0-0.2-0.1-0.3q0-0.2-0.1-0.3q0-0.1-0.1-0.2q-0.1-0.1-0.2-0.2q0-0.1-0.1-0.2q-0.1 0-0.2-0.1q-0.3-0.1-0.6-0.1q-0.2-0.1-0.5 0q-0.3 0.1-0.5 0.3q-0.2 0.2-0.3 0.5q-0.1 0.3-0.2 0.6q-0.1 0.3-0.2 0.6q-0.1 0.3-0.1 0.6q0 0.3 0 0.6q0 0.5 0 1q0 0.5 0 0.9q0 0.5 0 1q0 0.4 0.1 0.9q0 0.2 0 0.5q0.1 0.2 0.1 0.4q0.1 0.3 0.1 0.5q0.1 0.2 0.2 0.4q0.2 0.3 0.4 0.5q0.3 0.2 0.6 0.2q0.4 0.1 0.7 0q0.3-0.2 0.5-0.4q0.1-0.1 0.2-0.2q0.1-0.1 0.1-0.2q0.1-0.1 0.1-0.3q0.1-0.1 0.1-0.2q0-0.1 0-0.2q0.1-0.1 0.1-0.2q0-0.1 0-0.2q0-0.2 0-0.3q0.1-0.6 0.2-1.2c0-0.4 0-0.9 0-1.4z"/>
				<path id="Layer" fill-rule="evenodd" class="s0" d="m29.8 85.1q0 1 0 1.9q0 0.2 0 0.4q0 0.2-0.1 0.4q0 0.2-0.1 0.4q0 0.2-0.1 0.4q0 0.2-0.1 0.4q0 0.2-0.1 0.4q-0.1 0.2-0.2 0.4q-0.1 0.2-0.2 0.4q-0.1 0.2-0.3 0.5q-0.2 0.2-0.5 0.4q-0.2 0.2-0.5 0.4q-0.2 0.1-0.5 0.2q-0.3 0.1-0.6 0.2q-0.3 0.1-0.7 0.1q-0.3 0-0.6 0q-0.3 0-0.6-0.1q-0.3-0.1-0.5-0.1q-0.3-0.1-0.5-0.2q-0.2-0.1-0.4-0.3q-0.2-0.1-0.4-0.3q-0.2-0.2-0.4-0.4q-0.2-0.2-0.3-0.4q-0.2-0.3-0.3-0.5q-0.1-0.3-0.2-0.6c-0.1-0.5-0.2-1-0.3-1.6q0-0.4-0.1-0.8q0-0.4 0-0.9q0-0.4 0-0.8q0-0.4 0-0.8q0-0.4 0-0.7q0-0.3 0.1-0.6q0-0.3 0.1-0.6q0.1-0.4 0.1-0.7q0.1-0.2 0.2-0.5q0.1-0.2 0.2-0.4q0.1-0.3 0.2-0.5q0.2-0.2 0.3-0.4q0.2-0.2 0.4-0.4q0.2-0.2 0.4-0.4q0.2-0.2 0.5-0.3q0.2-0.1 0.5-0.2q0.2-0.1 0.5-0.1q0.2 0 0.4-0.1q0.3 0 0.5 0q0.3 0 0.5 0.1q0.5 0 0.9 0.2q0.5 0.1 0.8 0.4q0.4 0.3 0.7 0.6q0.3 0.4 0.5 0.8q0.1 0.3 0.3 0.6q0.1 0.3 0.2 0.6q0.1 0.3 0.1 0.6q0.1 0.4 0.2 0.7q0 0.3 0 0.6q0 0.2 0 0.5q0.1 0.3 0.1 0.6q0 0.2-0.1 0.5zm-2.5 0v-0.3q0-0.4 0-0.7q0-0.3 0-0.6q0-0.3-0.1-0.6q0-0.3-0.1-0.6q0-0.2-0.1-0.3q0-0.2 0-0.3q-0.1-0.2-0.1-0.3q-0.1-0.1-0.1-0.3q-0.1-0.1-0.2-0.3q-0.1-0.1-0.3-0.2q-0.1-0.1-0.2-0.1q-0.2-0.1-0.4-0.1q-0.2-0.1-0.4 0q-0.2 0-0.4 0.1q-0.2 0.1-0.3 0.2q-0.2 0.2-0.3 0.4q-0.1 0.1-0.1 0.2q-0.1 0.1-0.1 0.3q-0.1 0.1-0.1 0.2q0 0.2 0 0.3c-0.1 0.5-0.2 1.1-0.2 1.6q0 0.5 0 1q-0.1 0.4 0 0.9q0 0.5 0 1q0 0.5 0 0.9q0.1 0.3 0.1 0.5q0.1 0.2 0.1 0.4q0.1 0.3 0.2 0.5q0.1 0.2 0.2 0.4q0.1 0.2 0.3 0.4q0.2 0.1 0.4 0.2q0.2 0 0.5 0q0.2 0 0.5-0.1q0.1-0.1 0.3-0.2q0.1-0.1 0.3-0.3q0.1-0.1 0.2-0.3q0.1-0.2 0.1-0.4q0.1-0.2 0.1-0.5q0.1-0.3 0.1-0.6q0-0.3 0.1-0.5q0-0.3 0-0.6z"/>
				<path id="Layer" class="s0" d="m83.6 80.8c-0.2 0.8-0.3 1.6-0.5 2.4l0.4-0.1q0.2-0.1 0.4-0.2q0.3-0.1 0.5-0.1q0.3 0 0.5 0q0.2 0 0.5 0q0.3 0 0.6 0.1q0.3 0.1 0.6 0.2q0.3 0.1 0.5 0.3q0.3 0.1 0.5 0.3q0.3 0.3 0.5 0.6q0.2 0.2 0.4 0.5q0.2 0.3 0.3 0.7q0.1 0.3 0.2 0.7q0 0.1 0 0.2q0 0.2 0.1 0.3q0 0.2 0 0.3q0 0.1 0 0.3q0 0.8-0.2 1.5q-0.2 0.8-0.7 1.4q-0.5 0.6-1.1 1.1q-0.7 0.4-1.5 0.6q0 0-0.1 0q-0.1 0-0.2 0q-0.1 0.1-0.2 0.1q-0.1 0-0.2 0q-0.4 0-0.7 0q-0.4 0-0.7-0.1q-0.3 0-0.7-0.1q-0.3-0.1-0.6-0.3q-0.2-0.1-0.3-0.2q-0.2 0-0.3-0.1q-0.2-0.2-0.3-0.3q-0.1-0.1-0.2-0.2q-0.2-0.2-0.3-0.4q-0.1-0.1-0.2-0.3q-0.2-0.2-0.2-0.4q-0.1-0.2-0.2-0.4c-0.1-0.3-0.1-0.5-0.2-0.9c0.8-0.1 1.6-0.2 2.5-0.2q0.1 0.2 0.1 0.4q0.1 0.4 0.4 0.8q0.3 0.3 0.7 0.5q0.4 0.2 0.8 0.1q0.5 0 0.9-0.2q0.1-0.1 0.3-0.2q0.1-0.2 0.3-0.3q0.1-0.2 0.2-0.3q0.1-0.2 0.2-0.4q0-0.2 0.1-0.5q0-0.2 0-0.4q0-0.2 0-0.5q0-0.2 0-0.4q0-0.3-0.1-0.6q-0.2-0.3-0.4-0.6q-0.2-0.2-0.4-0.4q-0.3-0.2-0.6-0.2q-0.2-0.1-0.3-0.1q-0.2 0-0.4 0q-0.1 0-0.3 0q-0.2 0-0.3 0.1q-0.2 0-0.3 0.1q-0.2 0-0.3 0.1q-0.2 0.1-0.3 0.2q-0.2 0.1-0.3 0.3q0 0-0.1 0q0 0.1-0.1 0.1q0 0-0.1 0q0 0-0.1 0l-1.7-0.3h-0.1q0.7-3.4 1.3-6.9h6.8q0.1 0.3 0.1 0.5q0 0.3 0 0.6q0 0.3 0 0.6q0 0.3-0.1 0.5z"/>
				<path id="Layer" class="s0" d="m48.5 82.1q0.1-0.3 0.1-0.6q0.1-0.3 0.2-0.5q0.1-0.3 0.2-0.6q0.1-0.2 0.3-0.5q0.1-0.2 0.3-0.4q0.2-0.2 0.4-0.3q0.2-0.2 0.4-0.3q0.2-0.2 0.5-0.2q0.2-0.1 0.4-0.2q0.2-0.1 0.5-0.1q0.2-0.1 0.4-0.1q0.2 0 0.5 0q0.3 0 0.7 0q0.4 0 0.8 0.1q0.4 0.1 0.8 0.2q0.3 0.2 0.6 0.4q0.4 0.2 0.6 0.5q0.3 0.2 0.4 0.5q0.2 0.3 0.3 0.6q0.2 0.3 0.2 0.6q0.1 0.3 0.1 0.6q0 0.3 0 0.5q0 0.2-0.1 0.4q0 0.3 0 0.5q-0.1 0.2-0.2 0.4q0 0.2-0.1 0.3q0 0.1-0.1 0.3q-0.1 0.1-0.2 0.2q0 0.2-0.1 0.3q-0.2 0.3-0.4 0.6q-0.2 0.3-0.5 0.5q-0.2 0.3-0.5 0.6q-0.2 0.2-0.5 0.4q-0.9 0.9-1.8 1.7q0 0.1-0.1 0.2q-0.1 0.1-0.2 0.2q0 0-0.1 0.1q-0.1 0.1-0.2 0.2c0 0.1 0 0.1 0 0.2q0.1 0 0.2 0q0.1 0 0.2 0q0.1 0 0.2 0q0.1 0 0.2 0q0.4 0 0.9 0h3.3q0 0.2 0.1 0.5q0 0.3 0 0.6q0 0.3 0 0.6q-0.1 0.3-0.1 0.6q0 0-0.1 0q0 0-0.1 0q0 0 0 0q-0.1 0-0.1 0h-8.3c-0.3 0-0.3 0-0.2-0.3q0-0.5 0.2-0.9q0.1-0.4 0.3-0.8q0.2-0.4 0.4-0.8q0.3-0.4 0.6-0.7c0.5-0.5 1-1.1 1.5-1.6c0.6-0.6 1.3-1.3 2-1.9q0.2-0.2 0.3-0.3q0.2-0.2 0.3-0.4q0.2-0.2 0.3-0.4q0.1-0.1 0.3-0.3q0.1-0.3 0.1-0.5q0.1-0.2 0.1-0.5q0-0.2 0-0.4q0-0.3-0.1-0.5q0-0.1 0-0.2q-0.1-0.1-0.2-0.2q0-0.1-0.1-0.2q-0.1-0.1-0.2-0.2q-0.2-0.1-0.5-0.2q-0.2-0.1-0.4-0.1q-0.3-0.1-0.5 0q-0.2 0-0.5 0.1q-0.2 0.1-0.3 0.2q-0.2 0.1-0.3 0.2q-0.1 0.1-0.2 0.3q-0.1 0.2-0.2 0.4q0 0 0 0.1q0 0.1 0 0.2q-0.1 0-0.1 0.1q0 0.1 0 0.2q0 0 0 0.1q0 0-0.1 0q0 0-0.1 0.1q0 0 0-0.1h-0.9l-1.3-0.1z"/>
				<path id="Layer" class="s0" d="m73.4 82.1q-0.4 0.3-0.7 0.6q-0.4 0.3-0.8 0.5q-0.4 0.2-0.8 0.4q-0.5 0.2-0.9 0.3q0-1.1 0-2.1c0.4-0.3 0.8-0.5 1.2-0.7q0.4-0.2 0.7-0.4q0.3-0.3 0.6-0.5q0.3-0.3 0.6-0.6q0.2-0.3 0.4-0.7q0.1-0.2 0.3-0.5q0 0 0-0.1q0 0 0.1 0q0-0.1 0-0.1q0.1 0 0.1 0h1.7q0 0 0 0q0 0 0 0q0 0 0 0q0.1 0 0.1 0c0 0.3 0.1 13.1 0 13.5q-0.1 0-0.1 0q0 0 0 0q-0.1 0-0.1 0q0 0 0 0h-2c-0.3 0-0.3 0-0.3-0.3v-9q0-0.2 0-0.3z"/>
				<path id="Layer" class="s0" d="m38.1 91.7q-1.2 0-2.4 0q0-0.1 0-0.2v-8.3q0-0.4 0-0.9q0 0 0 0q0-0.1 0-0.1q0 0 0-0.1q0 0 0 0c-0.3 0.2-0.6 0.5-1 0.7q-0.1 0.1-0.2 0.2q-0.2 0.1-0.3 0.2q-0.1 0-0.3 0.1q-0.1 0.1-0.2 0.2c-0.4 0.1-0.8 0.3-1.2 0.4q0-0.2 0-0.5q0-0.3-0.1-0.5q0-0.3 0-0.6q0.1-0.3 0.1-0.5c0.5-0.3 1-0.6 1.5-0.9q0.2-0.1 0.4-0.3q0.2-0.1 0.4-0.3q0.2-0.1 0.4-0.3q0.2-0.2 0.3-0.4q0.1-0.1 0.2-0.3q0.1-0.1 0.2-0.3q0.1-0.1 0.1-0.3q0.1-0.1 0.2-0.3c0.1-0.1 0.1-0.2 0.3-0.2h1.6h0.1c0 0.3 0 12.8-0.1 13.5z"/>
				<path id="Layer" class="s0" d="m43.3 84.5v-2.5q0.3 0 0.6 0q0.3 0 0.6 0q0.3 0 0.6 0q0.3 0 0.6 0v2.5z"/>
				<path id="Layer" class="s0" d="m45.7 89.3v2.4q0 0 0 0q-0.1 0-0.1 0q0 0-0.1 0q0 0 0 0h-1.9c-0.3 0-0.4 0-0.4-0.3v-1.8q0-0.1 0-0.1q0 0 0 0q0-0.1 0-0.1q0 0 0-0.1q0.4 0 0.7 0q0.3-0.1 0.6-0.1q0.3 0 0.6 0.1q0.3 0 0.6 0z"/>
			</g>
		</g>
	</g>
</svg>