<svg xmlns="http://www.w3.org/2000/svg" width="90.089" height="80.555" viewBox="0 0 90.089 80.555">
    <defs>
        <linearGradient id="a" x1=".5" x2=".5" y2="1" gradientUnits="objectBoundingBox">
            <stop offset=".4" stop-color="#ee2d2f"/>
            <stop offset="1" stop-color="#f4792f"/>
        </linearGradient>
    </defs>
    <g data-name="Group 79776">
        <g data-name="Group 80428">
            <path data-name="Path 84029" d="M1685.038 277.219H1633.3a49.7 49.7 0 0 1-17.074-1.743c-2.548-.769-6.543-2.014-9.244-4.727a7.944 7.944 0 0 1-2.5-5.013v78.491a7.943 7.943 0 0 0 2.5 5.013c2.7 2.712 6.7 3.957 9.244 4.726a48.762 48.762 0 0 0 15.74 1.812v.047h53.073z" transform="rotate(90 980.154 -624.329)" style="fill:url(#a)"/>
            <path data-name="Union 7" d="M53.355 27.439h-8.384l-6.37-8-6.311 7.985h-8.437l.058-.076-2.333-4.918q-.381.424-.8.829a16.045 16.045 0 0 1-1.325 1.135 15.19 15.19 0 0 1-.553.4q-.421.294-.859.552c-.1.058-.2.113-.292.168a14.453 14.453 0 0 1-4.8 1.668l-.223.035-.189.028q-.311.042-.624.076a24.265 24.265 0 0 1-1.102.07H10.7a.391.391 0 0 0-.049 0l-.066.005a.254.254 0 0 1-.058 0 .657.657 0 0 1-.082.008.124.124 0 0 0-.027 0c-.07.005-.1.005-.13.005H0V8.758h.01l6.344-.027c.606 0 1.483.014 2.1.021v10.2h.2c.3.008.595.007.9.016s.61.011.922-.007c.291-.017.582-.03.874-.045a5.12 5.12 0 0 0 0-10.237H9.177s-.3 0-.727-.012c-.614-.007-1.491-.019-2.1-.019l-6.339.029H0V0h10.283a14.6 14.6 0 0 1 10.334 3.947c.088.083.177.162.265.252l.257.258a13.034 13.034 0 0 1 3.2 5.183l.069.223a12.515 12.515 0 0 1 .44 2.073q.042.343.069.686c.024.347.037.7.034 1.05q0 .375-.019.744l3.43 7.33 10.12-12.753v-.239l.1.12.095-.12v.24l6.386 8.023.048-12.325h8.25z" transform="translate(12.823 27.783)" style="fill:#fff"/>
        </g>
    </g>
</svg>
