<svg width="19" height="19" viewBox="0 0 19 19" fill="none" xmlns="http://www.w3.org/2000/svg">
<path fill-rule="evenodd" clip-rule="evenodd" d="M18.2071 10.2071C18.5976 9.81659 18.5976 9.18343 18.2071 8.7929C15.7218 6.30762 14.3284 4.91422 11.8431 2.42894C11.4526 2.03842 10.8195 2.03842 10.4289 2.42894C10.0384 2.81947 10.0384 3.45263 10.4289 3.84315L15.0858 8.50001H1.5C0.947714 8.50001 0.5 8.94772 0.5 9.50001C0.5 10.0523 0.947714 10.5 1.5 10.5H15.0858L10.4289 15.1569C10.0384 15.5474 10.0384 16.1806 10.4289 16.5711C10.8195 16.9616 11.4526 16.9616 11.8431 16.5711L18.2071 10.2071Z" fill="white"/>
</svg>
