<svg xmlns="http://www.w3.org/2000/svg" width="61.189" height="33.541" viewBox="0 0 61.189 33.541">
  <g id="Group_84075" data-name="Group 84075" transform="translate(1 1)">
    <path id="Path_87631" data-name="Path 87631" d="M1,19.989q0-.27.013-.54C1.133,11.441,8.561,4.792,17.759,1c-3.546,4-3.664,6.438-3.664,6.438A12.832,12.832,0,0,1,27.189,19.989,12.832,12.832,0,0,1,14.095,32.541,12.831,12.831,0,0,1,1,19.989Z" transform="translate(-1 -1)" fill="none" stroke="#ef3a2f" stroke-width="2"/>
    <path id="Path_87632" data-name="Path 87632" d="M27.189,13.552q0,.27-.013.54c-.12,8.008-7.548,14.657-16.746,18.449,3.546-4,3.664-6.438,3.664-6.438A12.832,12.832,0,0,1,1,13.552,12.832,12.832,0,0,1,14.095,1,12.831,12.831,0,0,1,27.189,13.552Z" transform="translate(32 -1)" fill="none" stroke="#ef3a2f" stroke-width="2"/>
  </g>
</svg>
