<svg width="107" height="107" viewBox="0 0 107 107" fill="none" xmlns="http://www.w3.org/2000/svg">
<path d="M39.9751 48.8583C43.489 48.8583 46.924 47.8163 49.8457 45.8641C52.7675 43.9119 55.0447 41.1371 56.3894 37.8907C57.7341 34.6442 58.0859 31.0719 57.4004 27.6256C56.7149 24.1792 55.0228 21.0134 52.538 18.5287C50.0533 16.044 46.8876 14.3519 43.4412 13.6664C39.9948 12.9808 36.4225 13.3327 33.1761 14.6774C29.9297 16.0221 27.1549 18.2993 25.2027 21.221C23.2504 24.1427 22.2084 27.5777 22.2084 31.0917C22.2084 35.8037 24.0803 40.3227 27.4122 43.6546C30.7441 46.9865 35.2631 48.8583 39.9751 48.8583ZM39.9751 22.2083C41.7321 22.2083 43.4496 22.7293 44.9104 23.7054C46.3713 24.6815 47.5099 26.0689 48.1822 27.6922C48.8546 29.3154 49.0305 31.1015 48.6878 32.8247C48.345 34.5479 47.4989 36.1308 46.2566 37.3731C45.0142 38.6155 43.4314 39.4615 41.7082 39.8043C39.985 40.1471 38.1988 39.9711 36.5756 39.2988C34.9524 38.6264 33.565 37.4878 32.5889 36.027C31.6128 34.5661 31.0918 32.8486 31.0918 31.0917C31.0918 28.7357 32.0277 26.4761 33.6936 24.8102C35.3596 23.1442 37.6191 22.2083 39.9751 22.2083Z" fill="#8B8B8B"/>
<path d="M75.5085 57.7416C78.1439 57.7416 80.7202 56.9601 82.9115 55.496C85.1028 54.0318 86.8107 51.9507 87.8192 49.5159C88.8277 47.0811 89.0916 44.4019 88.5775 41.8171C88.0633 39.2323 86.7942 36.858 84.9307 34.9944C83.0672 33.1309 80.6929 31.8618 78.1081 31.3477C75.5233 30.8335 72.8441 31.0974 70.4092 32.106C67.9744 33.1145 65.8933 34.8224 64.4292 37.0137C62.965 39.205 62.1835 41.7812 62.1835 44.4166C62.1835 47.9507 63.5874 51.3399 66.0863 53.8388C68.5852 56.3378 71.9745 57.7416 75.5085 57.7416ZM75.5085 39.975C76.387 39.975 77.2457 40.2355 77.9762 40.7235C78.7066 41.2116 79.2759 41.9053 79.6121 42.7169C79.9483 43.5285 80.0362 44.4216 79.8648 45.2832C79.6934 46.1448 79.2704 46.9362 78.6492 47.5574C78.0281 48.1786 77.2366 48.6016 76.375 48.773C75.5134 48.9443 74.6204 48.8564 73.8088 48.5202C72.9971 48.184 72.3034 47.6147 71.8154 46.8843C71.3273 46.1539 71.0668 45.2951 71.0668 44.4166C71.0668 43.2386 71.5348 42.1089 72.3678 41.2759C73.2007 40.4429 74.3305 39.975 75.5085 39.975Z" fill="#8B8B8B"/>
<path d="M75.5085 62.1833C70.5864 62.1887 65.8055 63.8292 61.917 66.847C57.5664 62.5136 52.0301 59.5654 46.0062 58.3742C39.9822 57.1831 33.7405 57.8024 28.0681 60.1541C22.3957 62.5057 17.5466 66.4843 14.1324 71.5882C10.7182 76.6921 8.89181 82.6927 8.88351 88.8333C8.88351 90.0113 9.35147 91.1411 10.1844 91.974C11.0174 92.807 12.1472 93.275 13.3252 93.275C14.5032 93.275 15.6329 92.807 16.4659 91.974C17.2989 91.1411 17.7668 90.0113 17.7668 88.8333C17.7668 82.9433 20.1066 77.2945 24.2715 73.1296C28.4364 68.9648 34.0852 66.625 39.9752 66.625C45.8652 66.625 51.514 68.9648 55.6788 73.1296C59.8437 77.2945 62.1835 82.9433 62.1835 88.8333C62.1835 90.0113 62.6515 91.1411 63.4844 91.974C64.3174 92.807 65.4472 93.275 66.6252 93.275C67.8032 93.275 68.9329 92.807 69.7659 91.974C70.5989 91.1411 71.0668 90.0113 71.0668 88.8333C71.0774 83.6296 69.7629 78.5088 67.247 73.9537C69.2099 72.4026 71.5698 71.4354 74.0566 71.1629C76.5435 70.8903 79.0569 71.3233 81.3091 72.4123C83.5614 73.5014 85.4616 75.2025 86.7923 77.321C88.1229 79.4395 88.8303 81.8899 88.8335 84.3916C88.8335 85.5696 89.3015 86.6994 90.1344 87.5324C90.9674 88.3653 92.0972 88.8333 93.2752 88.8333C94.4532 88.8333 95.5829 88.3653 96.4159 87.5324C97.2489 86.6994 97.7168 85.5696 97.7168 84.3916C97.7168 78.5016 95.377 72.8528 91.2122 68.688C87.0473 64.5231 81.3985 62.1833 75.5085 62.1833Z" fill="#8B8B8B"/>
</svg>
