<svg width="1600" height="900" viewBox="0 0 1600 900" fill="none" xmlns="http://www.w3.org/2000/svg">
<rect width="1600" height="900" fill="url(#paint0_linear_81_2)"/>
<path d="M1289.89 401.963H1273.2L1281.54 387.517L1289.88 373.072L1298.22 387.517L1306.54 401.963H1289.89Z" fill="white" stroke="#ECEDEE" stroke-width="0.260714" stroke-miterlimit="10"/>
<path d="M1061.07 366.436V512.784H997.714V366.479H997.79L1045.34 366.286C1049.87 366.286 1056.44 366.371 1061.07 366.436Z" fill="white"/>
<path d="M1212.2 470.947L1178.8 512.882L1144.75 441.151L1181.47 405.323L1212.2 470.947Z" fill="white"/>
<path d="M1184.45 402.307C1184.32 400.595 1184.15 398.893 1183.93 397.191C1183.28 391.94 1182.18 386.754 1180.65 381.69C1180.47 381.119 1180.31 380.612 1180.13 380.031C1175.31 365.414 1167.08 352.15 1156.14 341.327L1154.21 339.399C1153.55 338.742 1152.88 338.139 1152.22 337.525C1131.27 317.939 1103.46 307.35 1074.78 308.031H997.713V372.857H997.788L1045.32 372.652C1049.86 372.652 1056.43 372.738 1061.03 372.792L1066.48 372.878H1082.31H1082.76C1092.91 372.878 1102.64 376.907 1109.81 384.079C1116.98 391.25 1121.01 400.977 1121.01 411.119C1121.01 421.261 1116.98 430.987 1109.81 438.159C1102.64 445.33 1092.91 449.359 1082.76 449.359C1080.61 449.478 1078.4 449.564 1076.21 449.693C1074.03 449.822 1071.62 449.812 1069.31 449.693C1066.99 449.575 1064.78 449.629 1062.53 449.575H1061.03H1060.97L1047.02 449.887H997.702V512.871H1074.76C1074.98 512.871 1075.21 512.871 1075.74 512.871H1075.94C1076.15 512.864 1076.35 512.846 1076.55 512.817C1076.69 512.835 1076.84 512.835 1076.98 512.817H1077.47H1077.84H1078.64C1079.57 512.817 1080.5 512.741 1081.44 512.688C1083.28 512.58 1085.1 512.451 1086.9 512.3C1088.47 512.142 1090.03 511.959 1091.58 511.751L1093 511.546L1094.67 511.287C1107.31 509.285 1119.49 505.066 1130.67 498.824C1131.4 498.415 1132.13 498.006 1132.82 497.575C1134.98 496.293 1137.13 494.925 1139.29 493.449C1140.68 492.49 1142.06 491.488 1143.42 490.454C1146.88 487.81 1150.19 484.98 1153.35 481.977C1163.3 472.9 1171.23 461.83 1176.63 449.486C1182.02 437.143 1184.76 423.802 1184.66 410.332C1184.74 407.51 1184.64 404.903 1184.45 402.307Z" fill="white"/>
<path d="M1290.29 451.826L1289.88 372.975L1178.82 512.892H1242.04L1290.29 451.826Z" fill="white"/>
<path d="M1061.07 372.976V512.893H997.714V373.029H997.79L1045.34 372.825C1049.87 372.836 1056.44 372.932 1061.07 372.976Z" fill="white"/>
<path d="M1401.36 513H1338.87L1339.54 342.544H1401.36V513Z" fill="white"/>
<path d="M1290.06 452.117L1289.88 372.964L1401.35 513H1338.49L1290.06 452.117Z" fill="white"/>
<path d="M1178.82 512.892L1212.15 470.882L1212.23 470.946L1178.82 512.892Z" fill="white"/>
<defs>
<linearGradient id="paint0_linear_81_2" x1="816" y1="-216.5" x2="1496" y2="963.5" gradientUnits="userSpaceOnUse">
<stop stop-color="#EE312F"/>
<stop offset="1" stop-color="#FC7424"/>
</linearGradient>
</defs>
</svg>
