<svg width="33" height="33" viewBox="0 0 33 33" fill="none" xmlns="http://www.w3.org/2000/svg">
<g clip-path="url(#clip0_46_2)">
<path d="M32.7143 24.919H27.6523L23.8063 20.0888L19.9958 24.91H14.9018L14.9368 24.8641L13.5282 21.8947C13.3749 22.0654 13.2139 22.2322 13.0452 22.3953C12.7912 22.638 12.5241 22.8668 12.2452 23.0805C12.1359 23.1633 12.0236 23.2448 11.9113 23.3221C11.7419 23.4404 11.569 23.5515 11.3927 23.6553C11.3323 23.6904 11.2719 23.7236 11.2164 23.7568C10.3174 24.261 9.3362 24.602 8.31826 24.7639C8.27238 24.7711 8.22891 24.7784 8.18362 24.785L8.06951 24.8019C7.94433 24.8188 7.81874 24.8341 7.69275 24.8478C7.54725 24.8605 7.40113 24.8707 7.2526 24.8792C7.17713 24.884 7.10287 24.8876 7.0274 24.8901H6.96038C6.95053 24.8894 6.94064 24.8894 6.93079 24.8901L6.89094 24.8931C6.87931 24.8944 6.86756 24.8944 6.85592 24.8931C6.83954 24.8957 6.823 24.8973 6.80642 24.8979C6.801 24.8973 6.79553 24.8973 6.79011 24.8979C6.74785 24.9009 6.72974 24.9009 6.71162 24.9009H0.5V13.6399H0.506038L4.33638 13.6236C4.70226 13.6236 5.23177 13.6321 5.6043 13.6363V19.7948H5.72506C5.90619 19.7996 6.0843 19.799 6.26845 19.8045C6.4526 19.8099 6.63675 19.8111 6.82513 19.8002C7.00083 19.79 7.17653 19.7821 7.35283 19.7731C8.15951 19.7535 8.92657 19.4194 9.4902 18.8419C10.0538 18.2645 10.3693 17.4896 10.3693 16.6827C10.3693 15.8757 10.0538 15.1008 9.4902 14.5234C8.92657 13.9459 8.15951 13.6118 7.35283 13.5922H6.04083C6.04083 13.5922 5.8597 13.5922 5.60189 13.585C5.23117 13.5808 4.70166 13.5735 4.33396 13.5735L0.506642 13.591H0.5V8.35209H6.7086C9.02048 8.29729 11.2613 9.15316 12.948 10.7352C13.0011 10.7853 13.0549 10.833 13.108 10.8873L13.2632 11.0431C14.1453 11.919 14.8074 12.9914 15.1952 14.1725C15.2097 14.2184 15.223 14.2606 15.2369 14.3071C15.3607 14.7161 15.4496 15.1348 15.5026 15.5587C15.5195 15.6968 15.5334 15.8349 15.5442 15.9729C15.5587 16.1824 15.5666 16.3956 15.5648 16.6069C15.5648 16.7578 15.5609 16.9076 15.5533 17.0561L17.6242 21.4817L23.7344 13.7818V13.6375L23.7948 13.71L23.8522 13.6375V13.7824L27.7078 18.6265L27.7368 11.185H32.718L32.7143 24.919Z" fill="url(#paint0_linear_46_2)"/>
</g>
<defs>
<linearGradient id="paint0_linear_46_2" x1="16.609" y1="6.5377" x2="16.609" y2="24.919" gradientUnits="userSpaceOnUse">
<stop offset="0.4" stop-color="#EE2D2F"/>
<stop offset="1" stop-color="#F4792F"/>
</linearGradient>
<clipPath id="clip0_46_2">
<rect width="32" height="32" fill="white" transform="translate(0.5 0.5)"/>
</clipPath>
</defs>
</svg>
