<svg width="34" height="33" viewBox="0 0 34 33" fill="none" xmlns="http://www.w3.org/2000/svg">
<path fill-rule="evenodd" clip-rule="evenodd" d="M19.3363 0.748025C18.2296 1.22087 16.2064 4.47821 15.4456 7.03505L15.0652 8.33098L14.6846 7.3853C12.817 2.77949 10.6382 0.853101 8.89171 2.28913C7.76773 3.2173 8.30395 7.57794 9.99858 11.3431C10.3444 12.0962 10.6038 12.7266 10.6038 12.7442C10.6038 12.7617 9.87753 12.5865 9.01293 12.3589C4.01551 11.0629 -1.48344 12.7266 0.366885 14.9507C1.12774 15.8789 5.05287 17.4726 8.54587 18.2606C9.3586 18.4358 9.89465 18.5934 9.75632 18.6109C7.78502 18.716 1.11027 23.8995 1.11027 25.3005C1.11027 26.9817 4.62056 26.5441 8.82254 24.355L10.9151 23.2517L10.5865 24.1974C9.65274 26.9294 9.46235 30.1167 10.2059 30.6946C11.9005 32.043 13.9583 30.6946 15.2033 27.4197C15.8085 25.8436 15.705 25.8086 16.7944 27.9451C18.8694 32.0606 20.7541 33.3915 22.4833 31.9205C22.9848 31.4826 22.5525 27.4372 21.7743 25.4058C21.7051 25.2131 22.0512 25.3707 22.7947 25.8786C27.0659 28.8032 32.2879 27.9449 30.161 24.6876C29.452 23.6018 27.6884 22.0083 25.7344 20.6774L24.1435 19.5916L25.4921 19.4515C30.2993 18.9611 34 16.4568 34 13.6898C34 11.9211 32.1325 11.4305 28.3974 12.2536L27.913 12.3589L28.4665 11.4132C31.4235 6.33454 27.8613 4.56577 23.106 8.7688C22.5699 9.24164 22.2239 9.46913 22.2931 9.27649C24.1779 4.11027 22.5699 -0.652983 19.3363 0.748025ZM20.2528 4.25055C20.1317 6.15942 19.3536 9.45179 18.2123 12.8492L17.3648 15.3886C17.4686 11.0104 17.3821 7.87565 19.3707 3.86527C20.1834 2.21908 20.3738 2.32416 20.2528 4.25055ZM12.4366 7.17498C12.9381 8.55847 14.3214 12.9018 14.0966 13.9525C13.9583 14.583 11.4338 9.4693 10.9151 7.47286C10.2061 4.70587 11.3991 4.2854 12.4366 7.17498ZM26.5644 9.57438C25.6306 11.7109 23.9185 13.7774 22.2931 14.6705C21.6187 15.0383 21.1693 15.3008 20.8753 15.4935C20.6851 15.616 20.4603 15.4236 20.5295 15.2134C20.9272 13.9 26.6336 7.9457 26.8411 8.61118C26.8757 8.71626 26.7373 9.13656 26.5644 9.57438ZM7.5431 13.5322C8.80542 13.865 13.457 16.1941 14.2351 16.8246C14.7712 17.2449 14.581 17.7352 14.2006 17.7352C12.1774 17.7177 5.65809 16.0015 3.79054 14.9858C1.43882 13.6898 4.13656 12.6391 7.5431 13.5322ZM31.1985 13.8124C31.1985 16.7545 26.1665 18.9261 22.2066 17.7002L21.4285 17.455C22.345 16.9822 23.9185 16.2117 24.8177 15.5462C25.7342 14.8632 27.723 14.0051 29.5213 13.5322C31.1987 13.0769 31.1985 13.0944 31.1985 13.8124ZM22.7254 20.8175C25.6305 22.7614 27.7401 24.9328 27.7401 26.001C27.7401 27.5421 20.8578 22.3759 19.4399 19.784C18.558 18.1729 18.9384 18.2781 22.7254 20.8175ZM13.4049 19.7492C12.817 20.222 11.3819 21.0451 8.87459 22.3586C4.53428 24.6177 4.43035 24.6702 5.27766 23.7771C6.9377 22.0258 10.2751 19.9769 12.3501 19.4165C13.4049 19.1187 14.2177 19.1012 13.4049 19.7492ZM19.1288 23.6368C19.5438 24.3899 20.1489 27.1395 19.5263 27.3847C18.9038 27.6299 16.5523 21.5005 16.5523 21.1327C16.5523 20.6774 17.9184 21.4127 19.1288 23.6368Z" fill="black"/>
</svg>
