<svg xmlns="http://www.w3.org/2000/svg" width="136.458" height="136.457" viewBox="0 0 136.458 136.457">
    <defs>
        <style>
            .cls-1{fill:url(#linear-gradient)}.cls-2{fill:#fff}
        </style>
        <linearGradient id="linear-gradient" x2="1" y1=".5" y2=".5" gradientUnits="objectBoundingBox">
            <stop offset="0" stop-color="#ee2d2f"/>
            <stop offset="1" stop-color="#f4792f"/>
        </linearGradient>
    </defs>
    <g id="checked" transform="translate(0 -.003)">
        <path id="Path_576" d="M136.458 68.233A68.229 68.229 0 1 0 68.23 136.46a68.228 68.228 0 0 0 68.228-68.227z" class="cls-1" data-name="Path 576"/>
        <path id="Path_577" d="M185.32 156.257c-1.606-4.142-4.879-3.488-8.426-2.785-2.118.441-11.538 3.2-26.444 18.916a126.015 126.015 0 0 0-12.95 15.688c-1.641-2.015-3.521-4.171-5.5-6.146a79.535 79.535 0 0 0-13.128-10.415 6.036 6.036 0 0 0-6.3 10.295 68 68 0 0 1 10.9 8.657 93.666 93.666 0 0 1 9.81 12.12 6.036 6.036 0 0 0 10.882-1.89c.015-.056 2.408-6.671 15.052-20 10.184-10.741 16.976-14.154 19.329-15.1.023 0 .039-.006.069-.012-.011 0 .076-.038.218-.1.4-.152.62-.21.633-.213a1.612 1.612 0 0 1-.176.036v-.021a854.768 854.768 0 0 1 3.172-1.371c3.06-1.265 4.059-4.566 2.859-7.659z" class="cls-2" data-name="Path 577" transform="translate(-79.523 -110.883)"/>
    </g>
</svg>
