<svg xmlns="http://www.w3.org/2000/svg" width="24.5" height="24" viewBox="0 0 24.5 24">
  <g id="fav_icon" transform="translate(284 -1948)">
    <rect id="Rectangle_1" data-name="Rectangle 1" width="24" height="24" transform="translate(-284 1948)" fill="#fff" opacity="0"/>
    <g id="Foodx_Driver_PNG" data-name="Foodx Driver PNG" transform="translate(-320 1553)">
      <g id="Foodx_Logo_SVG" data-name="Foodx Logo SVG" transform="translate(36 400)">
        <path id="Subtraction_1" data-name="Subtraction 1" d="M100.758,13.449H87.306S87.291.024,87.288.022L100.758,0V13.449ZM94.219,9.118l1.623,2.67h3.139c-.127-.2-1.183-1.83-3.139-4.844L98.875,2.31h-3L94.343,4.9,92.773,2.31H89.617l3.068,4.749-3.016,4.729h2.945c.117-.19.372-.613.758-1.259s.668-1.116.846-1.411Z" transform="translate(-76.758 0.02)" stroke="rgba(0,0,0,0)" stroke-miterlimit="10" stroke-width="1"/>
        <path id="Path_1660" data-name="Path 1660" d="M29.051-226.193H26.026v-13.449H34.72v2.845H29.032v2.845h5v2.732H29.051Z" transform="translate(-26.026 239.642)" fill="#5fb709"/>
      </g>
    </g>
  </g>
</svg>
