<svg xmlns="http://www.w3.org/2000/svg" width="839.999" height="554.007" viewBox="0 0 839.999 554.007">
  <g id="Trust" transform="translate(-353.998 -5001)">
    <g id="Group_2193" data-name="Group 2193" transform="translate(0 4032)">
      <g id="Group_2364" data-name="Group 2364" transform="translate(-264.489 -3972.777)">
        <path id="Union_2" data-name="Union 2" d="M214.585,101.692H21.5A21.5,21.5,0,0,1,0,80.192V21.5A21.5,21.5,0,0,1,21.5,0h377A21.5,21.5,0,0,1,420,21.5V80.192a21.5,21.5,0,0,1-21.5,21.5H243.819L229.706,128Z" transform="translate(849.489 5042.063)" fill="#5fb709"/>
        <path id="Union_1" data-name="Union 1" d="M211.855,101.692H21.5A21.5,21.5,0,0,1,0,80.192V21.5A21.5,21.5,0,0,1,21.5,0h377A21.5,21.5,0,0,1,420,21.5V80.192a21.5,21.5,0,0,1-21.5,21.5H240.958L226.908,128Z" transform="translate(855.5 5036.063)" fill="none" stroke="#000" stroke-width="4"/>
        <g id="Group_2366" data-name="Group 2366" transform="translate(821.489 5014.39) rotate(-14)">
          <path id="Path_1025" data-name="Path 1025" d="M0,0H7.615V24.7H5.557Z" transform="translate(27.447 0.928) rotate(-7)"/>
          <path id="Path_1026" data-name="Path 1026" d="M0,4.116,7.2,0l7.615,25.107-2.264.823Z" transform="translate(11.181 3.547) rotate(-7)"/>
          <path id="Path_1027" data-name="Path 1027" d="M19.962,20.168,6.174,0,0,5.351,18.316,21.2Z" transform="translate(0 15.495) rotate(-7)" fill="#5fb709"/>
        </g>
        <g id="Group_2367" data-name="Group 2367" transform="translate(1268.941 5158.516) rotate(-85.99)">
          <path id="Path_1025-2" data-name="Path 1025" d="M0,24.7H7.615V0H5.557Z" transform="translate(30.457 11.095) rotate(7)"/>
          <path id="Path_1026-2" data-name="Path 1026" d="M0,21.815l7.2,4.116L14.817.823,12.554,0Z" transform="translate(14.341 7.25) rotate(7)" fill="#5fb709"/>
          <path id="Path_1027-2" data-name="Path 1027" d="M19.962,1.029,6.174,21.2,0,15.847,18.316,0Z" transform="translate(2.583 0) rotate(7)"/>
        </g>
        <g id="Group_2365" data-name="Group 2365" transform="translate(907 5065.778)">
          <text id="We_Trust_You_" data-name="We Trust You!" transform="translate(-16.511 37)" fill="#fff" font-size="45" font-family="CircularStd-Black, Circular Std Black" font-weight="800"><tspan x="0" y="0">We Trust You!</tspan></text>
        </g>
        <g id="prefix__like" transform="translate(1205.488 5060.631)">
          <g id="Group_2649" data-name="Group 2649" transform="translate(0 7.853)">
            <g id="Group_2648" data-name="Group 2648">
              <path id="Path_1092" data-name="Path 1092" d="M31.992,110.5a3.881,3.881,0,0,1,2.892-6.473h7.538a25.1,25.1,0,0,1-1.065-6.56V96.178A5.184,5.184,0,0,1,46.534,91h1.295a1.294,1.294,0,0,1,1.256.98l.705,2.82c.988,3.951,4.125,8.31,7.372,9.1a3.889,3.889,0,0,1,3.613-2.461h7.767a1.3,1.3,0,0,1,1.295,1.295v23.3a1.3,1.3,0,0,1-1.295,1.295H60.774a3.888,3.888,0,0,1-3.506-2.214L52.82,126.6a14.209,14.209,0,0,1-4.5.731H37.473a3.885,3.885,0,0,1-3.611-5.314,3.881,3.881,0,0,1-1.87-6.336,3.876,3.876,0,0,1,0-5.178ZM59.48,123.45a1.3,1.3,0,0,0,1.295,1.295h6.473V104.032H60.774a1.3,1.3,0,0,0-1.295,1.295ZM37.473,111.8H34.884a1.3,1.3,0,0,0,0,2.589h2.589a1.3,1.3,0,1,1,0,2.589H34.884a1.3,1.3,0,0,0,0,2.589h2.589a1.3,1.3,0,1,1,0,2.589,1.3,1.3,0,0,0,0,2.589H48.317a11.623,11.623,0,0,0,3.683-.6l4.89-1.63V106.5a10.431,10.431,0,0,1-5.812-3.777,18.889,18.889,0,0,1-3.8-7.292l-.46-1.841h-.284a2.592,2.592,0,0,0-2.589,2.589v1.294a20.485,20.485,0,0,0,1.239,6.56h2.644a1.295,1.295,0,1,1,0,2.589H34.884a1.3,1.3,0,0,0,0,2.589h2.589a1.3,1.3,0,1,1,0,2.589Z" transform="translate(-31 -91)"/>
            </g>
          </g>
          <g id="Group_2651" data-name="Group 2651" transform="translate(30.835 36.147)">
            <g id="Group_2650" data-name="Group 2650">
              <circle id="Ellipse_18" data-name="Ellipse 18" cx="1.5" cy="1.5" r="1.5"/>
            </g>
          </g>
          <g id="Group_2653" data-name="Group 2653" transform="translate(12.945)">
            <g id="Group_2652" data-name="Group 2652">
              <path id="Path_1093" data-name="Path 1093" d="M302.294,0a1.3,1.3,0,0,1,1.295,1.295V3.97a1.295,1.295,0,0,1-2.589,0V1.295A1.3,1.3,0,0,1,302.294,0Z" transform="translate(-301)"/>
            </g>
          </g>
          <g id="Group_2655" data-name="Group 2655" transform="translate(19.353 3.499)">
            <g id="Group_2654" data-name="Group 2654">
              <path id="Path_1094" data-name="Path 1094" d="M205.92,42.751l1.831-1.831a1.295,1.295,0,1,1,1.831,1.831l-1.831,1.831a1.295,1.295,0,1,1-1.831-1.831Z" transform="translate(-205.541 -40.542)"/>
            </g>
          </g>
          <g id="Group_2657" data-name="Group 2657" transform="translate(4.707 3.499)">
            <g id="Group_2656" data-name="Group 2656">
              <path id="Path_1095" data-name="Path 1095" d="M375.626,40.921a1.3,1.3,0,0,1,1.831,0l1.831,1.831a1.295,1.295,0,1,1-1.831,1.831l-1.831-1.831a1.294,1.294,0,0,1,0-1.831Z" transform="translate(-375.247 -40.542)"/>
            </g>
          </g>
        </g>
      </g>
      <text id="And_The_Best_Part_" data-name="And The Best Part!" transform="translate(602 1005)" font-size="45" font-family="CircularStd-Black, Circular Std Black" font-weight="800"><tspan x="0" y="0">And The Best Part!</tspan></text>
    </g>
    <g id="Group_2363" data-name="Group 2363" transform="translate(297.772 5006.409)">
      <g id="Background_Complete" data-name="Background Complete" transform="translate(56.228 252.154)">
        <g id="Group_2216" data-name="Group 2216">
          <g id="Group_2207" data-name="Group 2207" transform="translate(672.067)">
            <g id="Group_2196" data-name="Group 2196">
              <path id="Path_897" data-name="Path 897" d="M583.522,386.73c-25.794-23.555-27.269-60.9-21.661-93.507.937-5.446,1.118-11.3,4.41-15.732s9.89-6.871,14.538-3.884c3.853,2.476,5,7.448,6.769,11.673a32.579,32.579,0,0,0,11.32,14.039c3.282,2.293,7.5,4,11.239,2.578,5.137-1.946,6.591-8.385,7.3-13.833l3.968-30.441c.709-5.446,1.451-11,3.873-15.929s6.862-9.2,12.3-9.933,11.518,3.146,11.9,8.623c.157,2.279-.616,4.517-.772,6.8s.57,4.924,2.657,5.853c2.112.94,4.528-.3,6.4-1.665,6.44-4.712,11.269-11.257,15.838-17.8s9.058-13.262,15.038-18.544,13.772-9.049,21.724-8.4,15.707,6.609,16.656,14.53c.952,7.944-4.648,15.1-10.43,20.632a123.339,123.339,0,0,1-28.91,20.581c-1.9.978-3.968,2.036-4.909,3.959-1.692,3.461,1.3,7.543,4.76,9.235,3.925,1.914,8.44,2.105,12.669,3.2s8.63,3.6,9.708,7.833c1.495,5.873-4.014,11.052-9.172,14.232A106.652,106.652,0,0,1,667.112,314.3c-4.256.909-8.7,1.606-12.35,3.968s-6.3,6.981-4.846,11.083,6.354,6.032,10.707,5.838,8.466-1.947,12.72-2.9c7.96-1.781,17.67.079,21.638,7.206,2.607,4.686,2.08,10.638-.226,15.479s-6.171,8.751-10.193,12.3c-14.063,12.39-31.153,21.571-49.544,25.17s-34.9,2.99-51.5-5.712" transform="translate(-559.19 -206.548)" fill="#5fb709"/>
            </g>
            <g id="Group_2198" data-name="Group 2198" transform="translate(26.383 6.046)">
              <g id="Group_2197" data-name="Group 2197">
                <path id="Path_898" data-name="Path 898" d="M578.9,398.474c2.984-12.809,2.228-16.76,9.408-32.6,7.151-15.859,16.451-32.6,26.786-49.776l7.7-12.69c2.536-4.161,5.05-8.283,7.762-12.166a245.486,245.486,0,0,1,16.881-21.425c5.7-6.557,11.361-12.574,16.693-18.164s10.424-10.688,15.256-15.149a196.965,196.965,0,0,1,24.362-19.351c3.049-2.056,5.463-3.575,7.115-4.585.8-.486,1.427-.863,1.882-1.138.427-.253.657-.364.657-.364s-.2.159-.612.436l-1.839,1.206c-1.619,1.056-4.006,2.616-7.021,4.711a205.958,205.958,0,0,0-24.144,19.514c-4.8,4.477-9.842,9.6-15.158,15.193s-10.928,11.636-16.61,18.194a246.709,246.709,0,0,0-16.79,21.38c-2.7,3.869-5.187,7.963-7.726,12.135s-5.1,8.4-7.7,12.686c-10.327,17.168-19.627,33.861-26.8,49.664-7.2,15.784-6.484,19.667-9.536,32.42" transform="translate(-578.903 -211.066)" fill="#e0e0e0"/>
              </g>
            </g>
            <g id="Group_2200" data-name="Group 2200" transform="translate(77.956 25.212)">
              <g id="Group_2199" data-name="Group 2199">
                <path id="Path_899" data-name="Path 899" d="M617.739,286.344a13.173,13.173,0,0,1-.183-2.4c-.072-1.543-.108-3.778-.116-6.539-.023-5.523.2-13.151.464-21.561s.353-16.028.213-21.537c-.063-2.756-.141-4.985-.217-6.524a13.124,13.124,0,0,1-.02-2.4,13.434,13.434,0,0,1,.341,2.378c.177,1.535.344,3.766.48,6.526.294,5.521.3,13.161.032,21.583l-.709,21.542c-.059,2.641-.107,4.835-.146,6.531a13.245,13.245,0,0,1-.139,2.4Z" transform="translate(-617.438 -225.387)" fill="#e0e0e0"/>
              </g>
            </g>
            <g id="Group_2202" data-name="Group 2202" transform="translate(78.257 81.522)">
              <g id="Group_2201" data-name="Group 2201">
                <path id="Path_900" data-name="Path 900" d="M690.311,268.775a2.537,2.537,0,0,1-.745.019l-2.123-.108c-1.84-.1-4.5-.258-7.8-.341-6.583-.219-15.693-.191-25.736.284-10.047.494-19.115,1.332-25.656,2.137-3.274.38-5.913.76-7.74,1.016l-2.1.284a2.563,2.563,0,0,1-.745.044,2.5,2.5,0,0,1,.716-.209c.57-.119,1.257-.265,2.081-.436,1.811-.355,4.445-.826,7.716-1.281,6.535-.954,15.624-1.888,25.7-2.384,10.067-.476,19.2-.411,25.8-.04,3.3.158,5.962.4,7.8.6l2.112.264a2.537,2.537,0,0,1,.73.151Z" transform="translate(-617.663 -267.462)" fill="#e0e0e0"/>
              </g>
            </g>
            <g id="Group_2204" data-name="Group 2204" transform="translate(13.294 65.417)">
              <g id="Group_2203" data-name="Group 2203">
                <path id="Path_901" data-name="Path 901" d="M592.588,349.659a4.359,4.359,0,0,1-.349-.923c-.222-.7-.5-1.6-.85-2.7-.731-2.349-1.7-5.771-2.853-10.015-2.306-8.485-5.13-20.3-8.081-33.381s-5.683-24.908-7.841-33.421c-1.076-4.177-1.957-7.592-2.6-10.075l-.7-2.741a4.4,4.4,0,0,1-.19-.973,4.58,4.58,0,0,1,.351.926q.328,1.05.848,2.7c.731,2.347,1.7,5.771,2.851,10.015,2.307,8.485,5.133,20.3,8.083,33.385s5.683,24.9,7.84,33.417c1.077,4.174,1.957,7.591,2.6,10.074l.7,2.744a4.488,4.488,0,0,1,.191.968Z" transform="translate(-569.123 -255.428)" fill="#e0e0e0"/>
              </g>
            </g>
            <g id="Group_2206" data-name="Group 2206" transform="translate(36.759 142.624)">
              <g id="Group_2205" data-name="Group 2205">
                <path id="Path_902" data-name="Path 902" d="M684.916,313.128a4.959,4.959,0,0,1-.989.234l-2.861.509-10.531,1.811c-8.888,1.538-21.14,3.813-34.67,6.36s-25.813,4.735-34.733,6.126c-4.461.7-8.073,1.229-10.577,1.55l-2.884.357a4.623,4.623,0,0,1-1.014.067,4.737,4.737,0,0,1,.99-.233l2.86-.51c2.588-.446,6.16-1.059,10.529-1.808,8.889-1.539,21.142-3.817,34.676-6.364s25.809-4.732,34.726-6.124c4.461-.7,8.074-1.229,10.578-1.548l2.885-.359a4.742,4.742,0,0,1,1.015-.068Z" transform="translate(-586.656 -313.116)" fill="#e0e0e0"/>
              </g>
            </g>
          </g>
          <g id="Group_2215" data-name="Group 2215" transform="translate(0 13.886)">
            <path id="Path_903" data-name="Path 903" d="M58.968,218.973S66.94,209.9,85.116,229.93s26.313,32.217,26.313,32.217,4.458,4.02,6.938-.075,4.607-14.375,10.738-14.3c6.358.082,10.092,6.138,11.6,16.118s5.61,31.727,5.989,33.691c.372,1.93,2.211,4.419,4.348,1.9s12.673-23.462,22.311-17.868,9.268,34.089,9.287,37.2.926,4.2,2.5,4.545,4.454-7.03,7.694-12.864,8.021-12.03,13.311-8.337S218.111,325.348,208,362.7l-5.819,17-17.653,3.766c-38.27,5.756-56.865-3.11-59.926-8.79s3.643-9.716,9.81-12.266,13.824-4.561,13.663-6.166-1.136-2.63-4.229-3.007-31.442-3.28-35.892-13.5,17.566-18.278,20.312-20.111.486-3.947-1.388-4.537c-1.908-.6-23.04-7.176-32.781-9.819s-15.33-7.04-14.681-13.37c.625-6.1,11.081-7.03,15.434-9.024s.871-6.883.871-6.883-11.172-9.483-28.982-29.84-7.6-27.357-7.6-27.357" transform="translate(-56.228 -216.924)" fill="#5fb709"/>
            <g id="Group_2208" data-name="Group 2208" transform="translate(19.048 19.959)">
              <path id="Path_904" data-name="Path 904" d="M70.461,231.837a2.674,2.674,0,0,1,.351.348l.98,1.067,3.714,4.146,13.6,15.3,45.062,50.312c17.642,19.619,33.531,37.453,44.921,50.459l13.434,15.45,3.615,4.232.927,1.112a2.6,2.6,0,0,1,.3.395,2.521,2.521,0,0,1-.352-.348l-.978-1.067-3.714-4.146-13.6-15.3c-11.484-12.922-27.428-30.7-45.07-50.32s-33.523-37.447-44.913-50.451L75.3,237.577c-1.55-1.815-2.762-3.235-3.616-4.233l-.927-1.112a2.481,2.481,0,0,1-.3-.395Z" transform="translate(-70.461 -231.837)" fill="#e0e0e0"/>
            </g>
            <g id="Group_2209" data-name="Group 2209" transform="translate(70.213 45.353)">
              <path id="Path_905" data-name="Path 905" d="M108.959,250.811a36.929,36.929,0,0,1,.24,4.827l.364,11.646c.151,4.549.26,8.674.245,11.661-.009,1.495-.043,2.7-.091,3.539a4.66,4.66,0,0,1-.155,1.294,44.72,44.72,0,0,1-.246-4.825l-.448-11.646c-.15-4.552-.2-8.678-.161-11.665.024-1.494.058-2.7.11-3.536a4.791,4.791,0,0,1,.142-1.3Z" transform="translate(-108.691 -250.811)" fill="#e0e0e0"/>
            </g>
            <g id="Group_2210" data-name="Group 2210" transform="translate(31.552 78.347)">
              <path id="Path_906" data-name="Path 906" d="M117.826,276.179c0,.193-8.517.226-19.015.076s-19.01-.428-19.007-.62,8.516-.228,19.018-.078S117.829,275.986,117.826,276.179Z" transform="translate(-79.804 -275.464)" fill="#e0e0e0"/>
            </g>
            <g id="Group_2211" data-name="Group 2211" transform="translate(69.559 112.193)">
              <path id="Path_907" data-name="Path 907" d="M140.966,300.766a4.967,4.967,0,0,1-1.223.522c-.8.3-1.971.688-3.425,1.152-2.91.915-6.963,2.081-11.5,3.129s-8.69,1.8-11.706,2.255c-1.507.229-2.732.385-3.58.475a4.991,4.991,0,0,1-1.329.068,39.557,39.557,0,0,1,4.826-1.029c2.989-.576,7.111-1.395,11.632-2.449s8.581-2.129,11.52-2.923A39.271,39.271,0,0,1,140.966,300.766Z" transform="translate(-108.202 -300.754)" fill="#e0e0e0"/>
            </g>
            <g id="Group_2212" data-name="Group 2212" transform="translate(101.951 81.896)">
              <path id="Path_908" data-name="Path 908" d="M140.306,278.116a29.372,29.372,0,0,1-.917,4.47c-.652,2.738-1.6,6.51-2.689,10.664s-2.113,7.908-2.888,10.614a29.286,29.286,0,0,1-1.393,4.344,29.8,29.8,0,0,1,.917-4.469c.653-2.74,1.6-6.511,2.69-10.667s2.112-7.906,2.887-10.612a29.739,29.739,0,0,1,1.393-4.344Z" transform="translate(-132.405 -278.116)" fill="#e0e0e0"/>
            </g>
            <g id="Group_2213" data-name="Group 2213" transform="translate(131.992 107.483)">
              <path id="Path_909" data-name="Path 909" d="M165.339,297.235a6.82,6.82,0,0,1-.281,1.547l-1.016,4.152c-.887,3.5-2.159,8.316-3.6,13.627s-2.793,10.111-3.8,13.576l-1.23,4.093a6.835,6.835,0,0,1-.542,1.476,6.8,6.8,0,0,1,.281-1.547l1.016-4.152c.887-3.5,2.159-8.316,3.6-13.63s2.793-10.108,3.8-13.573c.486-1.617.9-2.986,1.23-4.094A6.762,6.762,0,0,1,165.339,297.235Z" transform="translate(-154.852 -297.235)" fill="#e0e0e0"/>
            </g>
            <g id="Group_2214" data-name="Group 2214" transform="translate(90.169 144.953)">
              <path id="Path_910" data-name="Path 910" d="M165.428,325.243a7.932,7.932,0,0,1-1.589.561c-1.033.321-2.539.747-4.406,1.251-3.737,1-8.928,2.277-14.714,3.448s-11.063,2.044-14.893,2.578c-1.915.27-3.469.46-4.544.573a7.928,7.928,0,0,1-1.681.1,7.742,7.742,0,0,1,1.642-.372l4.506-.791c3.8-.658,9.058-1.594,14.83-2.773s10.972-2.368,14.732-3.243l4.458-1.036a7.721,7.721,0,0,1,1.659-.3Z" transform="translate(-123.602 -325.232)" fill="#e0e0e0"/>
            </g>
          </g>
        </g>
      </g>
      <g id="Character_3" data-name="Character 3" transform="translate(579.127 218.592)">
        <g id="Group_2282" data-name="Group 2282">
          <path id="Path_933" data-name="Path 933" d="M503.526,188.293c-6.542,1.524-10.736,8.155-12.133,14.726s-.716,13.393-1.342,20.082-2.97,13.8-8.6,17.464q2.8.809,5.6,1.621a15.3,15.3,0,0,1-6.582,8.436,12.485,12.485,0,0,0,7.654,2.608c-3.3.875-4.209,5.578-2.388,8.462s5.285,4.243,8.591,5.083c3.9.99,8.058,1.51,11.911.361,5.427-1.617,9.478-6.384,11.555-11.652s2.455-11.033,2.615-16.693c.4-14.18-.424-28.5-4.042-42.214-.875-3.316-2.085-6.839-4.9-8.793s-7.647-1.162-8.493,2.163" transform="translate(-436.654 -179.69)"/>
          <path id="Path_934" data-name="Path 934" d="M662.538,366.269c-1.552-5.922-10.6-39.237-18.691-61-8.976-24.16-27.5-29.141-27.5-29.141C574.663,261.9,537.2,261.815,497.2,275.682c-1.281.4-2.524.823-3.717,1.287l-.131.046C463.678,288.664,460.616,320,460.616,320L448.15,396.059a16.8,16.8,0,0,0-.3,1.824l-.119.721h.052a17.809,17.809,0,0,0,10.2,17.174c17.423,8.019,34.051,6.116,48.338.217l-10.38,15.123H619.58l-8.267-19.988,2.75-12.02,19.152,23.046a17.828,17.828,0,0,0,8.816,5.748c22.079,2.567,25.652-30.319,21.5-49.45" transform="translate(-447.732 -153.085)" fill="#455a64"/>
          <path id="Path_935" data-name="Path 935" d="M566.624,268.144s-19.943,100.349-26.976,99.6-39.99-97.708-39.99-97.708S541.79,258.8,566.624,268.144Z" transform="translate(-430.163 -153.401)" fill="#ffbe9d"/>
          <g id="Group_2270" data-name="Group 2270" transform="translate(57.693)">
            <g id="Group_2269" data-name="Group 2269">
              <g id="Group_2268" data-name="Group 2268">
                <g id="Group_2262" data-name="Group 2262" transform="translate(2.231 11.227)">
                  <g id="Group_2247" data-name="Group 2247">
                    <path id="Path_936" data-name="Path 936" d="M512.463,300.786c-.106-11.553-.428-23.713-.428-23.713s-14.9-2.381-18.1-21.78c-3.053-18.5-.261-61.281-.261-61.281,21.367-8.867,46.778-3.205,62.157,13.846l-.688,93.842c-.08,10.894-9.51,19.5-21.175,19.327-11.781-.177-21.4-9.235-21.505-20.241Z" transform="translate(-492.507 -189.859)" fill="#ffbe9d"/>
                  </g>
                  <g id="Group_2251" data-name="Group 2251" transform="translate(2.784 32.109)">
                    <g id="Group_2248" data-name="Group 2248" transform="translate(3.321 2.151)">
                      <path id="Path_937" data-name="Path 937" d="M497.069,217.724a2.49,2.49,0,0,0,2.417,2.5,2.379,2.379,0,0,0,2.552-2.26,2.491,2.491,0,0,0-2.413-2.5,2.384,2.384,0,0,0-2.556,2.26Z" transform="translate(-497.068 -215.458)" fill="#263238"/>
                    </g>
                    <g id="Group_2250" data-name="Group 2250">
                      <g id="Group_2249" data-name="Group 2249">
                        <path id="Path_938" data-name="Path 938" d="M494.627,216.5c.31.323,2.188-1.084,4.869-1.093,2.677-.048,4.651,1.318,4.94.989.142-.147-.175-.731-1.036-1.349a6.834,6.834,0,0,0-3.957-1.194,6.565,6.565,0,0,0-3.873,1.277c-.821.635-1.1,1.224-.943,1.37Z" transform="translate(-494.587 -213.851)" fill="#263238"/>
                      </g>
                    </g>
                  </g>
                  <g id="Group_2255" data-name="Group 2255" transform="translate(30.75 32.912)">
                    <g id="Group_2252" data-name="Group 2252" transform="translate(2.455 2.649)">
                      <path id="Path_939" data-name="Path 939" d="M517.319,218.7a2.49,2.49,0,0,0,2.417,2.5,2.379,2.379,0,0,0,2.552-2.26,2.492,2.492,0,0,0-2.413-2.5,2.384,2.384,0,0,0-2.556,2.26Z" transform="translate(-517.318 -216.43)" fill="#263238"/>
                    </g>
                    <g id="Group_2254" data-name="Group 2254">
                      <g id="Group_2253" data-name="Group 2253">
                        <path id="Path_940" data-name="Path 940" d="M515.523,217.1c.312.323,2.192-1.084,4.87-1.093,2.675-.048,4.651,1.318,4.94.989.142-.146-.173-.731-1.037-1.349a6.836,6.836,0,0,0-3.956-1.194,6.568,6.568,0,0,0-3.873,1.277c-.818.635-1.095,1.224-.944,1.37Z" transform="translate(-515.484 -214.451)" fill="#263238"/>
                      </g>
                    </g>
                  </g>
                  <g id="Group_2257" data-name="Group 2257" transform="translate(14.347 33.157)">
                    <g id="Group_2256" data-name="Group 2256">
                      <path id="Path_941" data-name="Path 941" d="M510.066,236.968c.012-.151-1.656-.43-4.358-.758-.684-.067-1.333-.2-1.451-.665a3.485,3.485,0,0,1,.444-2.032l1.993-5.222c2.765-7.436,4.762-13.548,4.461-13.656s-2.785,5.828-5.55,13.266l-1.907,5.253a3.972,3.972,0,0,0-.339,2.687,1.721,1.721,0,0,0,1.132.994,4.663,4.663,0,0,0,1.163.154c2.718.13,4.4.132,4.412-.021Z" transform="translate(-503.227 -214.634)" fill="#263238"/>
                    </g>
                  </g>
                  <g id="Group_2258" data-name="Group 2258" transform="translate(19.528 80.118)">
                    <path id="Path_942" data-name="Path 942" d="M507.1,256.819a49.393,49.393,0,0,0,25.962-7.1S526.833,263.1,507.388,261.4Z" transform="translate(-507.098 -249.723)" fill="#eb996e"/>
                  </g>
                  <g id="Group_2259" data-name="Group 2259" transform="translate(22.094 60.098)">
                    <path id="Path_943" data-name="Path 943" d="M509.28,236.609a4.829,4.829,0,0,1,4.318-1.82,4.4,4.4,0,0,1,3.054,1.615,2.792,2.792,0,0,1,.233,3.192,3.243,3.243,0,0,1-3.508.91,10.146,10.146,0,0,1-3.438-2.024,2.965,2.965,0,0,1-.769-.787.9.9,0,0,1,0-1" transform="translate(-509.016 -234.764)" fill="#ff4a26"/>
                  </g>
                  <g id="Group_2261" data-name="Group 2261" transform="translate(20.586 57.298)">
                    <g id="Group_2260" data-name="Group 2260">
                      <path id="Path_944" data-name="Path 944" d="M516.386,232.672c-.436-.023-.424,2.885-2.9,4.965s-5.576,1.779-5.6,2.186c-.04.182.693.561,2,.589a7.245,7.245,0,0,0,4.672-1.661,6.31,6.31,0,0,0,2.246-4.162c.111-1.217-.218-1.936-.418-1.917Z" transform="translate(-507.889 -232.672)" fill="#263238"/>
                    </g>
                  </g>
                </g>
                <g id="Group_2263" data-name="Group 2263">
                  <path id="Path_945" data-name="Path 945" d="M545.932,195.057c-6.925,10.256-25.548,21-38.973,23.661,1.536-2.1,9.719-7.343,11.254-9.442-6.025,4.667-14.652,10.92-22.744,11.474a4.919,4.919,0,0,1-2.792-.384,3.755,3.755,0,0,1-1.47-3.025,80.988,80.988,0,0,1,.25-17.6,19.478,19.478,0,0,1,6.784-12.677c5.118-4.1,12.527-5.22,19.52-5.511,5.866-.245,11.922,0,17.322,2.018s10.063,6.127,10.937,11.146" transform="translate(-490.84 -181.471)"/>
                </g>
                <g id="Group_2264" data-name="Group 2264" transform="translate(48.662 4.645)">
                  <path id="Path_946" data-name="Path 946" d="M556.583,240.842a110.06,110.06,0,0,0,1.71-13.011c.395-10.03,3.4-46.226-31.094-42.641l1.953,9.734s-6.429,22.532,8.378,37.734c0,0-4.218,31.751,6.084,42.01,0,0,11.059-23,12.969-33.827" transform="translate(-527.2 -184.941)"/>
                </g>
                <g id="Group_2265" data-name="Group 2265" transform="translate(57.909 50.424)">
                  <path id="Path_947" data-name="Path 947" d="M534.753,219.409a11.583,11.583,0,0,1,6.253.363,8.084,8.084,0,0,1,4.6,4.123,8.446,8.446,0,0,1,.091,6.207,14.308,14.308,0,0,1-3.505,5.242,9.694,9.694,0,0,1-3.755,2.525,4.626,4.626,0,0,1-4.328-.645" transform="translate(-534.109 -219.147)" fill="#ffbe9d"/>
                </g>
                <g id="Group_2267" data-name="Group 2267" transform="translate(59.683 53.314)">
                  <g id="Group_2266" data-name="Group 2266">
                    <path id="Path_948" data-name="Path 948" d="M535.529,231.26c-.237.079.673,1.329,2.568.806A4.084,4.084,0,0,0,540.431,230a9.241,9.241,0,0,0,1.013-3.452,5.432,5.432,0,0,0-.9-3.651,3.61,3.61,0,0,0-2.738-1.594c-1.953-.032-2.549,1.325-2.327,1.362.157.158.91-.545,2.191-.245,1.226.218,2.44,1.9,2.188,4-.219,2.137-1.028,4.1-2.163,4.593-1.18.613-2.036.075-2.166.247Z" transform="translate(-535.434 -221.307)" fill="#eb996e"/>
                  </g>
                </g>
              </g>
            </g>
          </g>
          <g id="Group_2271" data-name="Group 2271" transform="translate(47.858 180.416)">
            <path id="Path_949" data-name="Path 949" d="M483.839,351.49c-.193,0-.348-7.884-.348-17.607s.155-17.607.348-17.607.348,7.882.348,17.607S484.032,351.49,483.839,351.49Z" transform="translate(-483.491 -316.276)" fill="#263238"/>
          </g>
          <g id="Group_2273" data-name="Group 2273" transform="translate(79.452 138.58)">
            <g id="Group_2272" data-name="Group 2272" transform="translate(0 40.877)">
              <path id="Path_950" data-name="Path 950" d="M526.1,315.792s-17.357.191-18.453,4.034c-1.819,6.379,1.431,41.343,1.431,41.343l15.989,5.309s7.712-1.779,4.153-16.61a108.448,108.448,0,0,0-10.572-26.7s21.249.593,20.656-4.153-13.2-3.223-13.2-3.223Z" transform="translate(-507.098 -315.56)" fill="#ffbe9d"/>
              <path id="Path_951" data-name="Path 951" d="M516.138,323.6c.957-.182,22.2-1.941,20.865,1.455s-20.865,4.247-20.865,4.247Z" transform="translate(-504.039 -313.049)" fill="#ffbe9d"/>
            </g>
            <path id="Path_952" data-name="Path 952" d="M585.9,285.017l-2.624,66.336-9.69,25.459-59.532,1.233-2.4-82.16Z" transform="translate(-505.558 -285.017)" fill="#263238"/>
          </g>
          <g id="Group_2274" data-name="Group 2274" transform="translate(7.287 203.063)">
            <path id="Path_953" data-name="Path 953" d="M524.517,333.2a3.671,3.671,0,0,1-.729.376l-2.143.956-7.93,3.4-26.261,10.956-14.492,5.954a83.921,83.921,0,0,0-11.571,5.321,22.5,22.5,0,0,0-6.474,5.507c-1.223,1.61-1.666,2.661-1.739,2.622a3.568,3.568,0,0,1,.316-.758,12.8,12.8,0,0,1,1.2-2.026,21.663,21.663,0,0,1,6.435-5.766,79.274,79.274,0,0,1,11.583-5.494l14.47-6.006,26.34-10.767,8.014-3.189c.9-.34,1.621-.617,2.192-.835a3.575,3.575,0,0,1,.789-.251Z" transform="translate(-453.177 -333.198)" fill="#263238"/>
          </g>
          <g id="Group_2275" data-name="Group 2275" transform="translate(58.585 229.057)">
            <path id="Path_954" data-name="Path 954" d="M531.229,352.622a11.684,11.684,0,0,1-1.3,1.6c-.874.994-2.175,2.4-3.848,4.079-3.326,3.374-8.145,7.808-13.685,12.445s-10.74,8.611-14.568,11.4c-1.909,1.4-3.478,2.495-4.574,3.237a11.7,11.7,0,0,1-1.745,1.092,11.77,11.77,0,0,1,1.586-1.313l4.438-3.411c3.747-2.881,8.881-6.914,14.417-11.536s10.383-8.987,13.786-12.262c1.713-1.625,3.062-2.978,4-3.913a11.59,11.59,0,0,1,1.493-1.418Z" transform="translate(-491.506 -352.621)" fill="#263238"/>
          </g>
          <g id="Group_2276" data-name="Group 2276" transform="translate(149.485 226.356)">
            <path id="Path_955" data-name="Path 955" d="M597.911,395.758c-.146.126-8.88-9.882-19.505-22.35s-19.125-22.678-18.978-22.8,8.879,9.881,19.508,22.353,19.122,22.672,18.975,22.8Z" transform="translate(-559.427 -350.602)" fill="#263238"/>
          </g>
          <g id="Group_2277" data-name="Group 2277" transform="translate(159.763 197.277)">
            <path id="Path_956" data-name="Path 956" d="M612.138,354.911a11.5,11.5,0,0,1-1.935-.688c-1.23-.48-2.99-1.227-5.145-2.2-4.311-1.931-10.173-4.825-16.419-8.432a183.052,183.052,0,0,1-15.5-10.022c-1.914-1.385-3.438-2.537-4.469-3.365a11.733,11.733,0,0,1-1.562-1.333,11.605,11.605,0,0,1,1.724,1.115l4.591,3.179c3.889,2.662,9.344,6.219,15.568,9.822s12.029,6.547,16.277,8.589l5.045,2.392a11.57,11.57,0,0,1,1.825.938Z" transform="translate(-567.106 -328.875)" fill="#263238"/>
          </g>
          <g id="Group_2278" data-name="Group 2278" transform="translate(169.98 177.042)">
            <path id="Path_957" data-name="Path 957" d="M578.745,345.472c-.191.024-1.235-7.057-2.333-15.814s-1.833-15.879-1.642-15.9,1.235,7.056,2.333,15.817S578.937,345.448,578.745,345.472Z" transform="translate(-574.74 -313.755)" fill="#263238"/>
          </g>
          <g id="Group_2279" data-name="Group 2279" transform="translate(114.547 63.138)">
            <path id="Path_958" data-name="Path 958" d="M542.4,228.648a4.089,4.089,0,0,1-.55.849l-1.694,2.279-6.164,8-.051-.43,10.051,7.9.91.72-.488.058,8.7-10.9.047.4-6.549-5.336c-.712-.6-1.3-1.1-1.795-1.519a3.331,3.331,0,0,1-.6-.582,3.081,3.081,0,0,1,.7.447l1.891,1.4,6.7,5.143.228.175-.179.229-8.6,10.972-.216.274-.274-.217-.91-.719-10-7.963-.242-.194.191-.236,6.362-7.841,1.828-2.173a4.156,4.156,0,0,1,.7-.736Z" transform="translate(-533.321 -228.647)" fill="#263238"/>
          </g>
          <g id="Group_2281" data-name="Group 2281" transform="translate(103.38 175.207)">
            <g id="Group_2280" data-name="Group 2280">
              <path id="Path_959" data-name="Path 959" d="M570.762,362.541c-9.726-.183-22.688-2.112-28.741-3.08-11.262-1.8-11.14-2.821-10.74-4.109,1.077-3.458,19.914,2.41,16.535-1.213s-23.8-4.482-22.53-8.047c1.66-4.644,21.277,1.863,22.975,2.29,1.649.416,2.31-2.029.757-2.33-2.23-.436-25.55-5.6-23.964-10.178.879-2.538,5.272-.411,5.272-.411s21.507,6.448,22.183,4.26c.688-2.222-11.823-6.435-16.134-7.558-4.26-1.108-5.517-3.6-3.509-5.088,1.369-1.017,14.647,2.1,18.885,3.312s15.815,4.732,11.4-1.673c-.07-.1-.122-.2-.189-.3-4.521-6.188-5.953-12.455-5.134-14.549.8-2.044,3.678-1.91,4.763.015a2.689,2.689,0,0,1,.436,1.024c.031.165.114.377.162.557a38.212,38.212,0,0,0,3.9,6.812,20.676,20.676,0,0,0,4.877,5.04c2.2,1.6,7.745,7.461,9.418,8.5" transform="translate(-524.977 -312.384)" fill="#ffbe9d"/>
            </g>
          </g>
        </g>
      </g>
      <g id="Character_2" data-name="Character 2" transform="translate(170.962 219.649)">
        <g id="Group_2323" data-name="Group 2323">
          <g id="Group_2308" data-name="Group 2308" transform="translate(98.482)">
            <g id="Group_2295" data-name="Group 2295" transform="translate(16.537 11.636)">
              <g id="Group_2294" data-name="Group 2294">
                <g id="Group_2289" data-name="Group 2289">
                  <g id="Group_2288" data-name="Group 2288">
                    <g id="Group_2283" data-name="Group 2283">
                      <path id="Path_960" data-name="Path 960" d="M272.991,324.725a23.488,23.488,0,0,1-23.053-22.772c-.315-10.432-.553-20.477-.553-20.477s-19.15-1.779-20.554-20.73-.8-62.7-.8-62.7a66.043,66.043,0,0,1,66.746,4.239l2.943,1.991-.814,97.166a23.486,23.486,0,0,1-23.915,23.283Z" transform="translate(-227.899 -190.956)" fill="#b78876"/>
                    </g>
                    <g id="Group_2285" data-name="Group 2285" transform="translate(14.1 35.308)">
                      <g id="Group_2284" data-name="Group 2284">
                        <path id="Path_961" data-name="Path 961" d="M245.341,240.142c.005-.206-1.63-.432-4.279-.634-.688-.032-1.234-.154-1.306-.518a3.74,3.74,0,0,1,.369-1.987l1.737-5.435c2.388-7.738,4-14.107,3.611-14.228s-2.646,6.051-5.034,13.789c-.561,1.888-1.1,3.69-1.626,5.47a4.372,4.372,0,0,0-.2,2.863,1.792,1.792,0,0,0,1.245,1.018,4.36,4.36,0,0,0,1.175.08c2.658-.067,4.3-.213,4.308-.418Z" transform="translate(-238.434 -217.338)" fill="#263238"/>
                      </g>
                    </g>
                    <g id="Group_2286" data-name="Group 2286" transform="translate(17.092 60.475)">
                      <path id="Path_962" data-name="Path 962" d="M253.249,236.142a63.9,63.9,0,0,1-12.579,4.512s3.35,4.687,8.7,2.347C254.913,240.575,253.249,236.142,253.249,236.142Z" transform="translate(-240.67 -236.142)" fill="#fff"/>
                    </g>
                    <g id="Group_2287" data-name="Group 2287" transform="translate(21.438 81.697)">
                      <path id="Path_963" data-name="Path 963" d="M243.917,260.551s12.046.236,24.292-8.552c0,0-5,14.01-24.033,13.469Z" transform="translate(-243.917 -251.999)" fill="#a36957"/>
                    </g>
                  </g>
                </g>
                <g id="Group_2293" data-name="Group 2293" transform="translate(68.675 33.876)">
                  <g id="Group_2290" data-name="Group 2290">
                    <path id="Path_964" data-name="Path 964" d="M279.3,219.143a2.864,2.864,0,0,1,2.737-2.871c3.539-.1,9.327,1.308,9.872,11.073.776,13.951-12.643,10.47-12.689,10.072C279.184,237.1,279.266,224.565,279.3,219.143Z" transform="translate(-279.212 -216.268)" fill="#b78876"/>
                  </g>
                  <g id="Group_2292" data-name="Group 2292" transform="translate(3.071 4.48)">
                    <g id="Group_2291" data-name="Group 2291">
                      <path id="Path_965" data-name="Path 965" d="M281.518,230.8c.059-.048.253.157.674.323a2.441,2.441,0,0,0,1.819-.064c1.443-.624,2.554-3.033,2.481-5.55a8.026,8.026,0,0,0-.874-3.442,2.813,2.813,0,0,0-1.931-1.764,1.239,1.239,0,0,0-1.4.745c-.166.4-.062.674-.134.7-.037.037-.313-.217-.233-.8a1.554,1.554,0,0,1,.5-.9,1.837,1.837,0,0,1,1.325-.431,3.424,3.424,0,0,1,2.659,2.022,8.279,8.279,0,0,1,1.059,3.841c.067,2.816-1.226,5.527-3.209,6.223a2.607,2.607,0,0,1-2.244-.246C281.562,231.138,281.471,230.83,281.518,230.8Z" transform="translate(-281.507 -219.615)" fill="#a36957"/>
                    </g>
                  </g>
                </g>
              </g>
            </g>
            <g id="Group_2299" data-name="Group 2299" transform="translate(18.181 45.196)">
              <g id="Group_2296" data-name="Group 2296" transform="translate(4.418 3.147)">
                <path id="Path_966" data-name="Path 966" d="M232.429,220.89a2.576,2.576,0,0,0,2.662,2.416,2.463,2.463,0,0,0,2.483-2.5,2.577,2.577,0,0,0-2.658-2.418,2.467,2.467,0,0,0-2.487,2.5Z" transform="translate(-232.428 -218.383)" fill="#263238"/>
              </g>
              <g id="Group_2298" data-name="Group 2298">
                <g id="Group_2297" data-name="Group 2297">
                  <path id="Path_967" data-name="Path 967" d="M229.177,219.1c.343.313,2.187-1.266,4.952-1.455,2.758-.229,4.889,1.049,5.165.689.136-.161-.232-.741-1.16-1.322a7.066,7.066,0,0,0-4.164-.966,6.778,6.778,0,0,0-3.911,1.577c-.8.712-1.05,1.339-.882,1.477Z" transform="translate(-229.127 -216.031)" fill="#263238"/>
                </g>
              </g>
            </g>
            <g id="Group_2303" data-name="Group 2303" transform="translate(46.243 45.196)">
              <g id="Group_2300" data-name="Group 2300" transform="translate(3.835 2.671)">
                <path id="Path_968" data-name="Path 968" d="M252.961,220.534a2.576,2.576,0,0,0,2.662,2.416,2.462,2.462,0,0,0,2.483-2.5,2.576,2.576,0,0,0-2.658-2.418,2.465,2.465,0,0,0-2.487,2.5Z" transform="translate(-252.96 -218.027)" fill="#263238"/>
              </g>
              <g id="Group_2302" data-name="Group 2302">
                <g id="Group_2301" data-name="Group 2301">
                  <path id="Path_969" data-name="Path 969" d="M250.143,219.1c.343.313,2.188-1.266,4.952-1.455,2.758-.229,4.889,1.049,5.165.689.136-.161-.228-.741-1.16-1.322a7.069,7.069,0,0,0-4.164-.966,6.787,6.787,0,0,0-3.912,1.577c-.8.712-1.047,1.339-.881,1.477Z" transform="translate(-250.094 -216.031)" fill="#263238"/>
                </g>
              </g>
            </g>
            <path id="Path_971" data-name="Path 971" d="M264.13,192.633a16.606,16.606,0,0,0,3.157,17.8c1.87,1.935,4.22,3.406,5.836,5.557,3.353,4.455,2.807,10.582,3.33,16.134.242,2.568.844,5.3,2.737,7.05s5.424,1.874,6.741-.345a6.7,6.7,0,0,0,.7-2.227l3.486-18.544c.871-4.636,1.745-9.392.942-14.041a19.826,19.826,0,0,0-24.767-15.748" transform="translate(-199.549 -180.459)" fill="#263238"/>
            <path id="Path_972" data-name="Path 972" d="M283.033,190.431c-6.435-1.233-10.048-3.288-14.6-5.34s-9.7-3.009-14.5-1.647c-3.239.917-6.306,2.861-9.645,2.829-3.311-.032-6.282-2-9.45-3a16.851,16.851,0,0,0-13.1,1.34c-3.116,1.712-5.914,4.778-6.178,8.519s3.078,7.62,6.428,6.557c-3.5,1.218-4.925,6.372-3.175,9.819a8.989,8.989,0,0,0,9.433,4.437c3.632-.576,6.852-2.939,9.447-5.759.084,4.173,4.268,7.108,8.142,6.982s7.389-2.448,10.59-4.841,6.44-5,10.244-5.851c2.65-.589,5.391-.276,8.078-.594s5.553-1.488,6.851-4.054,6.448-5.5,3.75-5.577" transform="translate(-215.542 -182.175)" fill="#263238"/>
            <g id="Group_2305" data-name="Group 2305" transform="translate(29.384 15.036)">
              <path id="Path_973" data-name="Path 973" d="M237.5,207.258a15.373,15.373,0,0,0,1.429.763,6.844,6.844,0,0,0,4.293-.013,11.485,11.485,0,0,0,2.766-1.217c.937-.563,1.884-1.278,2.9-2.016a23.939,23.939,0,0,1,3.359-2.145,9.66,9.66,0,0,1,4.2-1.055c2.98-.054,5.676.751,8.116.53a7.348,7.348,0,0,0,5.462-2.966,8.07,8.07,0,0,0,1.623-4.012c.107-1.037,0-1.623.071-1.631.024,0,.063.138.118.416a5.334,5.334,0,0,1,.083,1.235,7.884,7.884,0,0,1-1.5,4.285,7.971,7.971,0,0,1-2.313,2.19,7.8,7.8,0,0,1-3.49,1.123c-2.6.26-5.332-.535-8.149-.474-2.853,0-5.2,1.59-7.21,3.026-1.024.72-1.994,1.427-2.983,1.991a11.577,11.577,0,0,1-2.93,1.2,6.807,6.807,0,0,1-4.526-.213,4.1,4.1,0,0,1-1.04-.687c-.2-.2-.3-.312-.279-.33Z" transform="translate(-237.498 -193.496)" fill="#263238"/>
            </g>
            <g id="Group_2306" data-name="Group 2306" transform="translate(64.993 1.64)">
              <path id="Path_974" data-name="Path 974" d="M264.653,183.489c.206.04-.229,2.062.387,4.443.575,2.393,1.91,3.972,1.747,4.106-.1.147-1.791-1.344-2.422-3.937C263.7,185.515,264.493,183.406,264.653,183.489Z" transform="translate(-264.104 -183.486)" fill="#263238"/>
            </g>
            <g id="Group_2307" data-name="Group 2307" transform="translate(67.875 1.339)">
              <path id="Path_975" data-name="Path 975" d="M271.056,183.272c.146.154-1.579,1.788-2.871,4.346-1.322,2.544-1.641,4.9-1.851,4.87-.174.009-.161-2.5,1.231-5.187,1.367-2.7,3.4-4.177,3.491-4.029Z" transform="translate(-266.258 -183.262)" fill="#263238"/>
            </g>
          </g>
          <path id="Path_976" data-name="Path 976" d="M345.871,331.545,375,406.508H330.41l-20.783-53.365Z" transform="translate(-85.228 -131.752)" fill="#b78876"/>
          <path id="Path_977" data-name="Path 977" d="M244.681,311.732s-38.39,39.551-55.021,39.551c-5.431,0-9.691-65.87-9.757-84.859,1.48-3.485,2.136-4.811,3.737-6.819a31.741,31.741,0,0,1,4.825-5.331c2.293-1.824,5.434-4.123,7.534-4.862,2.6-.913,2.811-4.466.45-5.173s-9.576,1.635-16.029,7.757-4.521-7.575-3.907-12.576,1.788-20.549.4-21.915c-2.04-2-4.629-.143-5.127,4.864-.5,5.068-3.047,19.944-5.677,19.56-2.592-.376.883-25.807.883-25.807s1.623-5.339-1.4-5.882c-5.452-.981-7.152,26.273-7.25,28.868-.067,1.8-2.944,1.492-2.766-.443.182-1.994,4.057-25.3-1.482-26.353-4.252-.807-1.61,22.41-5.1,26.87s-.2-17.856-4.3-18.461c-1.523-.224-2.7-.179-2.737,12.859-.021,7.006,2.671,17.594,1.634,31.09,1.773,39.825-.183,151.679,44.137,138.419,48.738-14.583,82.034-46.506,82.034-46.506Z" transform="translate(-141.957 -172.804)" fill="#b78876"/>
          <g id="Group_2309" data-name="Group 2309" transform="translate(210.277 174.375)">
            <path id="Path_978" data-name="Path 978" d="M299.09,312.553a7.229,7.229,0,0,1,.436,1.574c.238,1.022.543,2.509.889,4.354.693,3.687,1.5,8.81,2.133,14.5s.956,10.871,1.085,14.621c.066,1.875.092,3.393.083,4.442a7.326,7.326,0,0,1-.082,1.631,7.331,7.331,0,0,1-.19-1.622c-.082-1.188-.183-2.67-.3-4.426-.254-3.735-.66-8.892-1.285-14.57s-1.36-10.8-1.927-14.5l-.671-4.386a7.454,7.454,0,0,1-.171-1.618Z" transform="translate(-299.075 -312.553)" fill="#263238"/>
          </g>
          <g id="Group_2322" data-name="Group 2322" transform="translate(53.991 111.112)">
            <g id="Group_2315" data-name="Group 2315" transform="translate(0 8.031)">
              <g id="Group_2314" data-name="Group 2314">
                <g id="Group_2313" data-name="Group 2313">
                  <g id="Group_2312" data-name="Group 2312">
                    <g id="Group_2311" data-name="Group 2311">
                      <g id="Group_2310" data-name="Group 2310">
                        <path id="Path_979" data-name="Path 979" d="M224.524,426.9l122.758.625-4.137-25.916c1.9-17.833-.182-36.957-.182-36.957l6.215,16.855,50.738-25.368s-18.445-49.184-33.883-65.84c-19.51-21.048-54.6-18.955-54.6-18.955l-23.718,16.112-21.83-15.374a106.08,106.08,0,0,0-33.729,9.81l-1.124.327.009.234c-12.875,6.731-31.238,23.12-48.738,39.03l20.2,19.662,22.37,20.835s3.778-.426,3.822-.165c.372,2.2-4.171,65.085-4.171,65.085Z" transform="translate(-182.299 -271.284)" fill="#455a64"/>
                      </g>
                    </g>
                  </g>
                </g>
              </g>
              <path id="Path_980" data-name="Path 980" d="M299.661,306.685l16.68,59.493-6.7,3.349-6.215-16.855s-6.038-35.272-3.765-45.987Z" transform="translate(-142.764 -259.306)" opacity="0.2"/>
            </g>
            <path id="Path_981" data-name="Path 981" d="M243.738,273.827V267.4s19.169-1.486,23.052,21.158c0,0,6.246-21.158,24.845-23.276l2.651,9.89s-8.812,27.552-10.09,27.788S266.79,307.9,266.79,307.9l-9.342-2.119-10.379-11.812Z" transform="translate(-161.512 -265.283)" fill="#455a64"/>
            <g id="Group_2316" data-name="Group 2316" transform="translate(109.542 9.13)">
              <path id="Path_982" data-name="Path 982" d="M287.821,272.108a6.735,6.735,0,0,1-1.059,1.12c-.7.7-1.72,1.7-2.923,2.986a68.288,68.288,0,0,0-8.31,10.932c-.588.957-1.13,1.915-1.639,2.837l-.308.557-.3-.555-5.452-10.211a4.513,4.513,0,0,0-1.225-1.4,2.734,2.734,0,0,0-1.289-.47,2.9,2.9,0,0,0-1.17.207c-.028,0,.309-.43,1.178-.452a2.846,2.846,0,0,1,1.471.418,4.685,4.685,0,0,1,1.415,1.449c1.514,2.524,3.442,6.076,5.676,10.127h-.6c.51-.937,1.055-1.907,1.649-2.875a59.073,59.073,0,0,1,8.551-10.91c1.258-1.255,2.337-2.206,3.094-2.845a6.5,6.5,0,0,1,1.241-.915Z" transform="translate(-264.148 -272.105)" fill="#263238"/>
            </g>
            <g id="Group_2317" data-name="Group 2317" transform="translate(80.983 10.273)">
              <path id="Path_983" data-name="Path 983" d="M242.813,272.96a4.938,4.938,0,0,1,.914.965c.553.65,1.334,1.6,2.289,2.792,1.908,2.374,4.506,5.685,7.341,9.367l.454.59-.581.044c1.021-1.894,1.1-4.071,1.578-5.968a7.065,7.065,0,0,1,2.649-4.465,3.908,3.908,0,0,1,3.453-.443,2.512,2.512,0,0,1,.81.521c.145.167.209.258.193.274a5.864,5.864,0,0,0-1.089-.545,3.751,3.751,0,0,0-3.1.594,6.744,6.744,0,0,0-2.3,4.206c-.431,1.827-.468,4.052-1.585,6.16l-.252.474-.331-.43-.454-.589c-2.835-3.682-5.371-7.041-7.179-9.493-.9-1.226-1.626-2.226-2.113-2.926a4.868,4.868,0,0,1-.7-1.128Z" transform="translate(-242.809 -272.959)" fill="#263238"/>
            </g>
            <g id="Group_2318" data-name="Group 2318" transform="translate(94.6 23.41)">
              <path id="Path_984" data-name="Path 984" d="M253,423.009a1.385,1.385,0,0,1-.011-.364l.042-1.065.223-4.089.952-15.034c.875-12.737,2.077-30.245,3.4-49.583l3.61-49.58,1.172-15.019.355-4.081c.044-.432.08-.782.11-1.06a1.4,1.4,0,0,1,.062-.36,1.435,1.435,0,0,1,.009.364l-.04,1.065-.224,4.09-.953,15.032c-.874,12.737-2.077,30.245-3.4,49.59L254.7,402.484l-1.174,15.02-.355,4.082c-.044.434-.08.782-.11,1.061a1.45,1.45,0,0,1-.06.362Z" transform="translate(-252.983 -282.775)" fill="#263238"/>
            </g>
            <g id="Group_2319" data-name="Group 2319" transform="translate(46.37 44.585)">
              <path id="Path_985" data-name="Path 985" d="M221.13,298.6a12.693,12.693,0,0,1-.118,2.128l-.46,5.779c-.368,4.882-.737,11.636-1.156,19.1s-.867,14.225-1.361,19.1c-.236,2.441-.483,4.411-.681,5.768a12.4,12.4,0,0,1-.388,2.1,12.681,12.681,0,0,1,.118-2.128l.46-5.779c.368-4.881.737-11.636,1.156-19.1s.867-14.221,1.361-19.1c.236-2.441.482-4.411.681-5.768a12.383,12.383,0,0,1,.388-2.1Z" transform="translate(-216.946 -298.597)" fill="#263238"/>
            </g>
            <g id="Group_2320" data-name="Group 2320" transform="translate(92.681 14.956)">
              <path id="Path_986" data-name="Path 986" d="M261.39,280.264s-6.581,8.6-5.618,9.889,5.618,7.5,5.618,7.5h4s3.75-10.518,2.785-11.854S261.39,280.264,261.39,280.264Z" transform="translate(-250.154 -275.17)" fill="#f3f9ec"/>
              <path id="Path_987" data-name="Path 987" d="M269.332,278.527l-7.264,5.686,2.785,5.332,7.474-5.509Z" transform="translate(-247.991 -275.758)" fill="#f3f9ec"/>
              <path id="Path_988" data-name="Path 988" d="M251.55,282.814l6.625,5.533,3.672-5.533-8.366-6.356Z" transform="translate(-251.55 -276.458)" fill="#f3f9ec"/>
              <path id="Path_989" data-name="Path 989" d="M262.5,293.528l-10.111,90.54,9.947,31.488,13.264-31.2-8.73-91.9Z" transform="translate(-251.265 -271.048)" fill="#f3f9ec"/>
            </g>
            <g id="Group_2321" data-name="Group 2321" transform="translate(154.712 18.762)">
              <path id="Path_990" data-name="Path 990" d="M317.8,281.141a9.177,9.177,0,0,0-1.31-.9,5.658,5.658,0,0,0-4.158-.236,12.916,12.916,0,0,0-5.182,3.656,30.577,30.577,0,0,0-4.736,6.328,32.011,32.011,0,0,0-4.012,13.725c-.222,3.7.256,5.985.106,6a7.3,7.3,0,0,1-.348-1.59,26.306,26.306,0,0,1-.25-4.434,30.524,30.524,0,0,1,3.9-14.044,29.572,29.572,0,0,1,4.889-6.439,12.974,12.974,0,0,1,5.5-3.676,5.744,5.744,0,0,1,4.426.468,3.8,3.8,0,0,1,.949.779c.171.222.244.351.226.363Z" transform="translate(-297.899 -279.302)" fill="#263238"/>
            </g>
          </g>
        </g>
      </g>
      <g id="Character_1" data-name="Character 1" transform="translate(384.979 233.844)">
        <g id="Group_2362" data-name="Group 2362">
          <path id="Path_991" data-name="Path 991" d="M391.088,196.969c-8.571,5.258-14.525,14.057-18.064,23.468s-4.872,19.49-5.918,29.492a574.163,574.163,0,0,0-2.773,79.535c32.437,4.1,65.12,8.217,97.739,6-5.655-37.249-9.239-74.451-4.707-111.852" transform="translate(-281.419 -191.48)" fill="#263238"/>
          <g id="Group_2337" data-name="Group 2337" transform="translate(0 110.104)">
            <g id="Group_2325" data-name="Group 2325" transform="translate(5.445 2.652)">
              <g id="Group_2324" data-name="Group 2324">
                <path id="Path_992" data-name="Path 992" d="M483.439,479.234l-23.611-47.76,9.015-34.927c1.059,7.4,2,13.825,2,13.825l50.658-2.679a3.217,3.217,0,0,0,3.014-3.662l-9.9-69.871s-3.165-32.411-33.849-44.454c-.046-.016-.09-.029-.135-.047-1.233-.48-2.52-.919-3.844-1.332-41.372-14.34-80.114-14.256-123.228.456,0,0-19.152,5.153-28.434,30.137s-18.762,61.716-18.762,61.716l43.012,15.189.284-7.262,9.506,36.347-20.849,52.945,72.737,1.8Z" transform="translate(-306.362 -277.657)" fill="#131212"/>
              </g>
            </g>
            <path id="Path_993" data-name="Path 993" d="M307.831,354.276,303,377.089c-4.149,19.609,10.368,39.738,30.285,41.99l105.868,10.867A42.067,42.067,0,0,0,485.8,391.815L352.312,379.087l.836-12.809Z" transform="translate(-302.294 -249.082)" fill="#131212"/>
            <path id="Path_994" data-name="Path 994" d="M405.52,377.556l8.223-1.523s19.492-21.318,23.145-21.622c3.009-.25,19.589-.088,25.364-.024a2.007,2.007,0,0,1,.048,4.013l-19.589.76-.094,1.577,19.617.261c2,.153,3.278,3.316-3.116,3.887l-16.408.584v1.021l16.637,2.325c.84.118,3.053.547,3.073,1.4,0,0,1.006,2.085-3.734,2.678-1.626.2-16.07-.277-16.07-.277l.557,1.3,14.952,3.225a2.125,2.125,0,0,1-.643,4.193l-15.977-1.482-15.677,12.523H404.867Z" transform="translate(-267.589 -249.082)" fill="#ffbe9d"/>
            <path id="Path_995" data-name="Path 995" d="M366.477,279.193s20.624,105.457,27.9,104.688,41.355-101.047,41.355-101.047S392.16,269.533,366.477,279.193Z" transform="translate(-280.578 -275.676)" fill="#fafafa"/>
            <g id="Group_2326" data-name="Group 2326" transform="translate(176.822 73.114)">
              <path id="Path_996" data-name="Path 996" d="M434.762,362.792c-.193,0-.348-7.273-.348-16.242s.155-16.243.348-16.243.349,7.271.349,16.243S434.955,362.792,434.762,362.792Z" transform="translate(-434.414 -330.306)" fill="#263238"/>
            </g>
            <g id="Group_2327" data-name="Group 2327" transform="translate(50.532 74.57)">
              <path id="Path_997" data-name="Path 997" d="M340.077,363.1a31.24,31.24,0,0,1,.432-4.675c.355-2.877.894-6.848,1.532-11.227s1.254-8.341,1.733-11.2a31.242,31.242,0,0,1,.921-4.608,31.456,31.456,0,0,1-.432,4.679c-.356,2.879-.894,6.847-1.532,11.225s-1.253,8.334-1.733,11.194a31.553,31.553,0,0,1-.921,4.612Z" transform="translate(-340.051 -331.394)" fill="#263238"/>
            </g>
            <g id="Group_2328" data-name="Group 2328" transform="translate(110.018 108.589)">
              <path id="Path_998" data-name="Path 998" d="M384.616,452.867a5.078,5.078,0,0,1-.063-.976l-.047-2.8c-.02-2.432,0-5.953.088-10.3.161-8.7.63-20.706,1.229-33.96s1.146-25.258,1.432-33.948l.309-10.29.084-2.8a5.1,5.1,0,0,1,.078-.977,5.251,5.251,0,0,1,.063.977l.047,2.8c.019,2.432,0,5.953-.088,10.3-.161,8.7-.632,20.707-1.229,33.966s-1.146,25.253-1.432,33.943l-.309,10.291-.084,2.8A5.225,5.225,0,0,1,384.616,452.867Z" transform="translate(-384.498 -356.813)" fill="#263238"/>
            </g>
            <g id="Group_2329" data-name="Group 2329" transform="translate(112.882 6.948)">
              <path id="Path_999" data-name="Path 999" d="M428.734,280.867c.035,0,.07.456.227,1.31a19.109,19.109,0,0,0,1.055,3.642,40.652,40.652,0,0,0,2.67,5.387,73.354,73.354,0,0,1,3.794,7.066,17.025,17.025,0,0,1,1.606,9.578,12.327,12.327,0,0,1-2.151,5.046,33.711,33.711,0,0,1-3.778,4.366,67.134,67.134,0,0,0-8.026,9.212,21.885,21.885,0,0,0-4.141,12.116,14.989,14.989,0,0,0,1.416,6.348,56.589,56.589,0,0,1,2.6,6,8.992,8.992,0,0,1,.423,3.249,6.744,6.744,0,0,1-1.013,3.076,16.74,16.74,0,0,1-4.453,4.18L402.2,373.8l-11.341,8.28-3.1,2.223-.818.565a1.309,1.309,0,0,1-.293.173,1.283,1.283,0,0,1,.25-.23l.776-.62,3.027-2.327L401.9,373.4l16.678-12.475a16.265,16.265,0,0,0,4.271-4.016,6.046,6.046,0,0,0,.9-2.773,8.328,8.328,0,0,0-.4-3,57.142,57.142,0,0,0-2.579-5.923,15.659,15.659,0,0,1-1.479-6.626,22.5,22.5,0,0,1,4.273-12.5,66.878,66.878,0,0,1,8.134-9.28c2.74-2.728,5.273-5.641,5.816-9.061a16.615,16.615,0,0,0-1.49-9.284,76.443,76.443,0,0,0-3.682-7.07,38.659,38.659,0,0,1-2.584-5.481,17.207,17.207,0,0,1-.94-3.715,9.042,9.042,0,0,1-.09-.993,1.25,1.25,0,0,1,0-.34Z" transform="translate(-386.639 -280.867)" fill="#263238"/>
            </g>
            <g id="Group_2330" data-name="Group 2330" transform="translate(72.687 3.553)">
              <path id="Path_1000" data-name="Path 1000" d="M397.633,381.907a1.115,1.115,0,0,1-.327-.036l-.945-.177a32.1,32.1,0,0,1-3.569-.978,35.837,35.837,0,0,1-11.769-6.752,34.742,34.742,0,0,1-10.8-16.852,36,36,0,0,1-1.4-11.862,40.463,40.463,0,0,1,.842-6.273,14.406,14.406,0,0,0,.175-6.258,5.1,5.1,0,0,0-1.623-2.527,8.54,8.54,0,0,0-2.748-1.377c-.994-.336-2.028-.61-3.025-1.024a8.739,8.739,0,0,1-2.711-1.757,10.659,10.659,0,0,1-2.754-5.531,22.641,22.641,0,0,1-.325-5.881,81.708,81.708,0,0,1,10.012-32.057c.8-1.395,1.435-2.464,1.9-3.169l.527-.8a1.21,1.21,0,0,1,.2-.26,1.252,1.252,0,0,1-.139.3l-.468.838c-.426.728-1.027,1.817-1.783,3.227a88.688,88.688,0,0,0-5.4,12.409,82.3,82.3,0,0,0-4.2,19.55,22.1,22.1,0,0,0,.336,5.707,10.013,10.013,0,0,0,2.58,5.179,8.03,8.03,0,0,0,2.5,1.607c.942.391,1.958.66,2.982,1a9.166,9.166,0,0,1,2.97,1.5,5.789,5.789,0,0,1,1.85,2.871,14.931,14.931,0,0,1-.163,6.577,40.161,40.161,0,0,0-.841,6.18,35.529,35.529,0,0,0,1.332,11.65,34.668,34.668,0,0,0,10.5,16.658,36.762,36.762,0,0,0,11.535,6.868c1.5.539,2.7.886,3.512,1.1l.928.244a1.176,1.176,0,0,1,.312.106Z" transform="translate(-356.605 -278.331)" fill="#263238"/>
            </g>
            <path id="Path_1001" data-name="Path 1001" d="M451.3,372.505l-88.684-2.865.135,29.426,58.717,12.912,41.315,6.6c25.676,0,46.216-23.567,42.238-48.934l-.108.029Z" transform="translate(-281.885 -243.884)" fill="#131212"/>
            <g id="Group_2331" data-name="Group 2331" transform="translate(80.729 125.743)">
              <path id="Path_1002" data-name="Path 1002" d="M475.712,371.945a7.148,7.148,0,0,1-1.15.08l-3.3.094-12.125.22c-10.238.15-24.386.323-40.014.174s-29.779-.719-40-1.411c-5.11-.341-9.243-.672-12.092-.958q-2.064-.213-3.28-.336a7.081,7.081,0,0,1-1.14-.165,7.154,7.154,0,0,1,1.152.024l3.29.206c2.856.2,6.99.458,12.1.736,10.221.566,24.355,1.052,39.979,1.206s29.762.054,40,.031h12.127l3.3.037a7.15,7.15,0,0,1,1.153.062Z" transform="translate(-362.614 -369.63)" fill="#263238"/>
            </g>
            <path id="Path_1003" data-name="Path 1003" d="M376.9,377.556l-8.221-1.523s-19.492-21.318-23.147-21.622c-3.007-.25-19.589-.088-25.363-.024a2.01,2.01,0,0,0-.052,4.018l19.589.76.092,1.577-19.62.258c-2,.153-3.278,3.316,3.116,3.887l16.408.584v1.021l-16.637,2.325c-.842.118-3.053.547-3.073,1.4,0,0-1.008,2.085,3.733,2.678,1.627.2,16.069-.277,16.069-.277l-.555,1.3-14.953,3.225a2.125,2.125,0,0,0,.644,4.193l15.977-1.482,15.677,12.523H377.55Z" transform="translate(-296.919 -249.082)" fill="#ffbe9d"/>
            <g id="Group_2332" data-name="Group 2332" transform="translate(82.212 155.177)">
              <path id="Path_1004" data-name="Path 1004" d="M460.833,410.669a5.411,5.411,0,0,1-1.006-.06c-.724-.076-1.678-.179-2.871-.308-2.492-.276-6.089-.733-10.529-1.349-8.88-1.227-21.115-3.172-34.54-5.8s-25.493-5.456-34.179-7.674c-4.343-1.107-7.848-2.041-10.258-2.726l-2.774-.8a5.52,5.52,0,0,1-.954-.324,5.27,5.27,0,0,1,.99.189l2.807.672L377.827,395c8.71,2.093,20.78,4.834,34.2,7.468s25.621,4.645,34.477,6l10.493,1.568,2.853.436a5.73,5.73,0,0,1,.988.2Z" transform="translate(-363.722 -391.623)" fill="#263238"/>
            </g>
            <g id="Group_2333" data-name="Group 2333" transform="translate(79.776 126.357)">
              <path id="Path_1005" data-name="Path 1005" d="M363.784,399.049a22.684,22.684,0,0,1-.768-4.192c-.357-2.607-.732-6.227-.94-10.238s-.206-7.653-.118-10.281a22.84,22.84,0,0,1,.332-4.249,29.433,29.433,0,0,1,.161,4.252c.039,2.625.116,6.246.321,10.242s.5,7.606.733,10.22a29.558,29.558,0,0,1,.279,4.246Z" transform="translate(-361.902 -370.089)" fill="#263238"/>
            </g>
            <g id="Group_2334" data-name="Group 2334" transform="translate(88.703 126.757)">
              <path id="Path_1006" data-name="Path 1006" d="M371.224,400.1a3.88,3.88,0,0,1-.389-1.118c-.21-.729-.466-1.8-.743-3.126a76.092,76.092,0,0,1-1.285-21.118c.114-1.352.238-2.444.359-3.193a3.9,3.9,0,0,1,.25-1.156,37.474,37.474,0,0,1-.116,4.379c-.1,2.7-.139,6.425.108,10.533s.741,7.8,1.17,10.467a37.857,37.857,0,0,1,.646,4.332Z" transform="translate(-368.572 -370.388)" fill="#263238"/>
            </g>
            <g id="Group_2335" data-name="Group 2335" transform="translate(82.24 130.622)">
              <path id="Path_1007" data-name="Path 1007" d="M364.666,373.722c.075.082-.438.45-.419,1.293a1.594,1.594,0,0,0,.541,1.194,1.437,1.437,0,0,0,2.195-1.266,1.586,1.586,0,0,0-.762-1.065c-.72-.439-1.294-.181-1.328-.285-.08-.046.539-.577,1.552-.154a2.008,2.008,0,0,1,1.17,1.392,1.962,1.962,0,1,1-3.861.158c.146-1.089.915-1.358.912-1.267Z" transform="translate(-363.743 -373.276)" fill="#263238"/>
            </g>
            <g id="Group_2336" data-name="Group 2336" transform="translate(13.201 160.583)">
              <path id="Path_1008" data-name="Path 1008" d="M398.244,395.9a4.63,4.63,0,0,1-.913.029c-.6-.015-1.474-.009-2.6.008a71.161,71.161,0,0,0-9.518.894,140.068,140.068,0,0,0-13.856,3.077c-5.171,1.364-10.83,3.022-16.887,4.34a72.234,72.234,0,0,1-17.364,1.883,43.423,43.423,0,0,1-14-2.678,31.3,31.3,0,0,1-8.378-4.718,22.008,22.008,0,0,1-1.946-1.752,4.354,4.354,0,0,1-.617-.67c.058-.06.925.852,2.729,2.207a33,33,0,0,0,8.385,4.471,43.989,43.989,0,0,0,13.85,2.5,73.525,73.525,0,0,0,17.2-1.922c6.024-1.312,11.681-2.947,16.872-4.281a129.6,129.6,0,0,1,13.944-2.942,62.381,62.381,0,0,1,9.591-.679c1.135.025,2.016.063,2.611.123a4.472,4.472,0,0,1,.9.11Z" transform="translate(-312.157 -395.662)" fill="#263238"/>
            </g>
          </g>
          <g id="Group_2361" data-name="Group 2361" transform="translate(76.758)">
            <g id="Group_2360" data-name="Group 2360" transform="translate(15.253)">
              <g id="Group_2359" data-name="Group 2359">
                <g id="Group_2353" data-name="Group 2353" transform="translate(2.362 12.457)">
                  <g id="Group_2338" data-name="Group 2338">
                    <path id="Path_1009" data-name="Path 1009" d="M416.732,316.481c2.109-11.76,4.544-24.1,4.544-24.1s15.6.153,22.226-19.071c6.317-18.333,10.881-62.435,10.881-62.435-20.249-12.74-47.138-11.369-65.771,3.353l-15.551,95.8c-1.8,11.12,6.32,21.53,18.242,23.373,12.04,1.855,23.42-5.715,25.429-16.92Z" transform="translate(-372.808 -202.175)" fill="#ffbe9d"/>
                  </g>
                  <g id="Group_2342" data-name="Group 2342" transform="translate(64.582 35.966)">
                    <g id="Group_2339" data-name="Group 2339" transform="translate(0.259 2.993)">
                      <path id="Path_1010" data-name="Path 1010" d="M426.388,234.055a2.575,2.575,0,0,1-2.9,2.128,2.463,2.463,0,0,1-2.212-2.748,2.577,2.577,0,0,1,2.893-2.131,2.466,2.466,0,0,1,2.219,2.751Z" transform="translate(-421.257 -231.285)" fill="#263238"/>
                    </g>
                    <g id="Group_2341" data-name="Group 2341">
                      <g id="Group_2340" data-name="Group 2340">
                        <path id="Path_1011" data-name="Path 1011" d="M431.066,232.7c-.372.276-2.044-1.484-4.774-1.958-2.721-.513-4.972.538-5.209.153-.119-.174.307-.715,1.29-1.2a7.061,7.061,0,0,1,4.241-.533,6.783,6.783,0,0,1,3.727,1.973c.727.791.9,1.441.725,1.565Z" transform="translate(-421.063 -229.049)" fill="#263238"/>
                      </g>
                    </g>
                  </g>
                  <g id="Group_2346" data-name="Group 2346" transform="translate(35.928 31.942)">
                    <g id="Group_2343" data-name="Group 2343" transform="translate(0.888 2.578)">
                      <path id="Path_1012" data-name="Path 1012" d="M405.447,230.738a2.574,2.574,0,0,1-2.9,2.128,2.463,2.463,0,0,1-2.211-2.748,2.577,2.577,0,0,1,2.893-2.131,2.465,2.465,0,0,1,2.218,2.751Z" transform="translate(-400.317 -227.968)" fill="#263238"/>
                    </g>
                    <g id="Group_2345" data-name="Group 2345">
                      <g id="Group_2344" data-name="Group 2344">
                        <path id="Path_1013" data-name="Path 1013" d="M409.657,229.689c-.373.274-2.046-1.486-4.775-1.959-2.721-.511-4.971.539-5.209.153-.119-.173.3-.713,1.292-1.2a7.066,7.066,0,0,1,4.24-.531,6.792,6.792,0,0,1,3.729,1.973c.722.794.9,1.444.723,1.564Z" transform="translate(-399.653 -226.042)" fill="#263238"/>
                      </g>
                    </g>
                  </g>
                  <g id="Group_2348" data-name="Group 2348" transform="translate(52.271 34.614)">
                    <g id="Group_2347" data-name="Group 2347">
                      <path id="Path_1014" data-name="Path 1014" d="M411.865,251c.015-.157,1.763-.151,4.574-.019.709.051,1.393.028,1.594-.426a3.608,3.608,0,0,0-.1-2.148q-.538-2.7-1.127-5.671c-1.531-8.059-2.509-14.637-2.184-14.7s1.831,6.427,3.362,14.486q.54,2.977,1.035,5.687a4.1,4.1,0,0,1-.12,2.8,1.776,1.776,0,0,1-1.326.818,4.808,4.808,0,0,1-1.213-.044c-2.793-.338-4.511-.627-4.495-.783Z" transform="translate(-411.865 -228.039)" fill="#263238"/>
                    </g>
                  </g>
                  <g id="Group_2349" data-name="Group 2349" transform="translate(23.226 78.474)">
                    <path id="Path_1015" data-name="Path 1015" d="M415.4,272.541a51.084,51.084,0,0,1-25.241-11.731s4.032,14.718,24.152,16.353Z" transform="translate(-390.163 -260.81)" fill="#eb996e"/>
                  </g>
                  <g id="Group_2350" data-name="Group 2350" transform="translate(41.474 61.335)">
                    <path id="Path_1016" data-name="Path 1016" d="M412.282,250.618a5,5,0,0,0-4.087-2.6,4.559,4.559,0,0,0-3.393,1.118,2.887,2.887,0,0,0-.79,3.215,3.35,3.35,0,0,0,3.418,1.535,10.486,10.486,0,0,0,3.856-1.467,3.061,3.061,0,0,0,.921-.671.926.926,0,0,0,.175-1.017" transform="translate(-403.797 -248.004)" fill="#bb5d34"/>
                  </g>
                  <g id="Group_2352" data-name="Group 2352" transform="translate(43.123 58.045)">
                    <g id="Group_2351" data-name="Group 2351">
                      <path id="Path_1017" data-name="Path 1017" d="M405.813,245.549c.448.052-.068,3.017,2.1,5.565s5.377,2.78,5.327,3.2c.009.193-.8.452-2.144.253a7.484,7.484,0,0,1-4.475-2.5,6.52,6.52,0,0,1-1.569-4.633c.1-1.263.562-1.934.761-1.885Z" transform="translate(-405.029 -245.546)" fill="#263238"/>
                    </g>
                  </g>
                </g>
                <g id="Group_2354" data-name="Group 2354" transform="translate(31.51)">
                  <path id="Path_1018" data-name="Path 1018" d="M394.62,203.24c5.282,11.656,22.409,25.841,35.636,30.873-1.2-2.4-8.636-9.17-9.84-11.575,5.335,5.8,13.049,13.671,21.2,15.637a5.089,5.089,0,0,0,2.912.092c1.217-.46,1.682-1.71,2.024-2.831a83.783,83.783,0,0,0,2.793-17.99,20.146,20.146,0,0,0-4.722-14.1c-4.508-5.066-11.867-7.492-18.947-9-5.938-1.265-12.153-2.069-18.011-.942s-11.321,4.5-13.08,9.469" transform="translate(-394.588 -192.867)" fill="#263238"/>
                </g>
                <g id="Group_2355" data-name="Group 2355" transform="translate(0 1.056)">
                  <path id="Path_1019" data-name="Path 1019" d="M371.049,246.876a113.54,113.54,0,0,1,.51-13.563c1.333-10.293,4.542-47.719,39.086-38.088l-3.676,9.585s2.653,24.087-15.078,37.021c0,0,.076,24.041-12.2,32.716,0,0-8.565-16.3-8.638-27.672" transform="translate(-371.044 -193.656)" fill="#263238"/>
                </g>
                <g id="Group_2356" data-name="Group 2356" transform="translate(8.429 46.715)">
                  <path id="Path_1020" data-name="Path 1020" d="M390.5,228.658a11.97,11.97,0,0,0-6.437-.713,8.354,8.354,0,0,0-5.406,3.407,8.735,8.735,0,0,0-1.167,6.312,14.769,14.769,0,0,0,2.666,5.953,10.008,10.008,0,0,0,3.39,3.224,4.786,4.786,0,0,0,4.525.094" transform="translate(-377.342 -227.772)" fill="#ffbe9d"/>
                </g>
                <g id="Group_2358" data-name="Group 2358" transform="translate(12.917 49.644)">
                  <g id="Group_2357" data-name="Group 2357">
                    <path id="Path_1021" data-name="Path 1021" d="M385.937,240.533c.229.12-.917,1.238-2.758.377a4.227,4.227,0,0,1-2.022-2.508,9.58,9.58,0,0,1-.435-3.7,5.609,5.609,0,0,1,1.551-3.565,3.734,3.734,0,0,1,3.068-1.151c2,.3,2.37,1.792,2.137,1.793-.187.132-.834-.713-2.191-.63-1.287.009-2.816,1.512-2.924,3.7-.147,2.218.339,4.356,1.409,5.058,1.1.826,2.064.428,2.165.626Z" transform="translate(-380.695 -229.961)" fill="#eb996e"/>
                  </g>
                </g>
              </g>
            </g>
            <path id="Path_1022" data-name="Path 1022" d="M393.024,242.056c-5.365,32-.993,64.714-.036,97.15.091,3.11.119,6.367-1.294,9.138-2.137,4.19-7.107,6.225-11.8,6.514s-9.355-.808-14.043-1.191q-.759-4.667-1.516-9.335l-4.686,10.756q3.1-34.142,6.776-68.226" transform="translate(-359.647 -176.225)" fill="#263238"/>
          </g>
        </g>
      </g>
    </g>
  </g>
</svg>
