<svg xmlns="http://www.w3.org/2000/svg" width="114" height="90" viewBox="0 0 114 90">
    <defs>
        <style>
            .prefix__cls-4{fill:#f15c2c;stroke:#f15c2c}
        </style>
    </defs>
    <g id="prefix__Group_3511" data-name="Group 3511" transform="translate(-239 -2431.232)">
        <g id="prefix__Group_3528" data-name="Group 3528" transform="translate(1114.929 2381.368)">
            <path id="prefix__Path_1426" stroke="#000" stroke-width="1.5px" d="M-858.719 98.134a7.985 7.985 0 0 1 2.19-5.471q17.015-16.985 
			34.02-33.981a8.88 8.88 0 0 1 3.367-2.361 8 8 0 0 1 3.295-.421c3.238.282 6.478.544 9.713.861q6.642.651 13.277 1.378c1.139.123 2.267.348 3.4.49a.785.785 0 
			0 0 .533-.251c2.1-2.072 4.191-4.158 6.29-6.234A14.255 14.255 0 0 1-781.373 51a1.355 1.355 0 0 1 1.632-.164c.57.35 1.089.783.994 1.539a1.677 1.677 0 0 1-.417
			.873q-1.788 1.923-3.632 3.795c-1.226 1.25-2.481 2.472-3.7 3.725a.821.821 0 0 0-.2.6c.165 1.286.4 2.564.55 3.852.318 2.815.6 5.634.886 8.453.258 2.587.5 5.177.736 7.7
			66.192 2.091.4 4.182.54 6.277a6.754 6.754 0 0 1-1.654 5.426c-2.784 2.9-5.536 5.828-8.369 8.677q-13.3 13.376-26.66 26.7a8.125 8.125 0 0 1-3.958 1.893 7.548 7.548 0 0 1-5.16
			8-.557 7.217 7.217 0 0 1-1.892-1.363q-5.7-5.551-11.342-11.16c-4.251-4.24-8.467-8.516-12.691-12.783-.445-.45-.842-.947-1.271-1.414a7.235 7.235 0 0 1-1.73-5.001zm69.065-34.06
			l-.147-.051c-.974.979-1.906 2.007-2.938 2.92a1.558 1.558 0 0 0-.5 1.988 5.809 5.809 0 0 1-3.526 7.323 5.907 5.907 0 0 1-7.85-6.686 6.065 6.065 0 0 1 4.554-4.618 6.274 6.274 0 0 
			1 3.671.372.535.535 0 0 0 .665-.12c1.027-1.071 2.079-2.119 3.118-3.178.122-.124.22-.271.382-.472-1.287-.138-2.478-.274-3.67-.391q-4.9-.481-9.8-.947c-3.385-.32-6.771-.618-10.15
			5-.944a4.769 4.769 0 0 0-4.022 1.476q-15.418 15.394-30.839 30.785c-1.33 1.331-2.558 2.764-3.814 4.168a3.478 3.478 0 0 0-.811 1.949 6.846 6.846 0 0 0 .5 2.876 1.541 1.541 0 0 0
			.373.624q10.746 10.761 21.51 21.5c1.275 1.27 2.609 2.482 3.939 3.7 1.145 1.045 4.119 1.273 5.468-.109.8-.823 1.695-1.557 2.509-2.369q14.578-14.537 29.137-29.095c1.318-1.32 
			2.542-2.734 3.793-4.119a3.113 3.113 0 0 0 .723-2.562c-.111-1.01-.169-2.026-.26-3.038q-.428-4.78-.865-9.56-.361-3.908-.745-7.814c-.116-1.203-.264-2.405-.4-3.608zm-9.135 9.1a2.3 2
			.3 0 0 0 2.439-2.44 2.423 2.423 0 0 0-2.473-2.513 2.553 2.553 0 0 0-2.517 2.518 2.435 2.435 0 0 0 2.551 2.435z" data-name="Path 1426"/>
            <g id="prefix__Group_3529" data-name="Group 3529">
                <path id="prefix__Path_1427" d="M-525.788 391.493a1.348 1.348 0 0 1-1.378-1.079c-.832-2.565-1.677-5.127-2.468-7.7-1.294-4.217-2.553-8.445-3.817-12.671-.258-.864-.126-1.23.53-1.686a1.2 1.2 0 0 1 1.9.51c.472 1.172.9 2.366 1.274 3.573q2.638 8.542 5.23 17.1a1.434 1.434 0 0 1-1.271 1.953z" class="prefix__cls-4" data-name="Path 1427" transform="translate(-292.601 -285.671)"/>
                <path id="prefix__Path_1428" d="M-449.953 430.4a4.656 4.656 0 0 1 3.133 1.384 11.374 11.374 0 0 1 1.525 1.711 4.072 4.072 0 0 1-.091 4.977 5.357 5.357 0 0 1-3.439 2.387 3.938 3.938 0 0 1-1.86-.13 6.582 6.582 0 0 1-4.148-4.238 3.343 3.343 0 0 1 .245-2.807 6.128 6.128 0 0 1 3.844-3.192 5.971 5.971 0 0 1 .791-.092zm-2.142 4.789a3.478 3.478 0 0 0 2.645 2.878 2.073 2.073 0 0 0 2.02-2.266 3.149 3.149 0 0 0-2.143-2.312 1.936 1.936 0 0 0-2.522 1.705z" class="prefix__cls-4" data-name="Path 1428" transform="translate(-363.284 -341.761)"/>
                <path id="prefix__Path_1429" d="M-614.527 438.3a3.705 3.705 0 0 1-.983 2.7 12.322 12.322 0 0 1-1.013 1.033 4.11 4.11 0 0 1-5.709.171 11.935 11.935 0 0 1-1.829-1.831 4.06 4.06 0 0 1 .074-5.278 6.624 6.624 0 0 1 2.552-2.034 3.707 3.707 0 0 1 3.01.01 6.941 6.941 0 0 1 3.433 3.216 10.519 10.519 0 0 1 .589 1.981zm-4.872 2.12c1.176-.04 2.3-1.224 2.008-2.232a3.513 3.513 0 0 0-2.247-2.44 1.781 1.781 0 0 0-1.992.693 1.594 1.594 0 0 0-.3 1.9 3.931 3.931 0 0 0 1.78 1.831 4.957 4.957 0 0 0 .75.243z" class="prefix__cls-4" data-name="Path 1429" transform="translate(-210.327 -343.864)"/>
                <path id="prefix__Path_1430" d="M-316.541 439.733c.1.369-.117.661-.424.964-1.617 1.591-3.213 3.2-4.818 4.805a1.782 1.782 0 0 1-2.3.029 1.616 1.616 0 0 1-.229-2.246c.753-.868 1.562-1.689 2.368-2.509.737-.749 1.469-1.509 2.27-2.184a3.332 3.332 0 0 1 1.475-.75c1.005-.177 1.649.593 1.658 1.891z" class="prefix__cls-4" data-name="Path 1430" transform="translate(-480.601 -348.431)"/>
                <path id="prefix__Path_1431" d="M-515.848 638.268a1.664 1.664 0 0 1-1.682-1 1.328 1.328 0 0 1 .171-1.66c1.678-1.687 3.344-3.385 5.034-5.058a1.634 1.634 0 0 1 2.75.949 1.426 1.426 0 0 1-.382 1.241c-.844.941-1.7 1.871-2.585 2.774-.733.749-1.487 1.48-2.278 2.166a5.069 5.069 0 0 1-1.028.588z" class="prefix__cls-4" data-name="Path 1431" transform="translate(-306.851 -521.439)"/>
                <path id="prefix__Path_1432" d="M-414.464 533.657a1.778 1.778 0 0 1 1.819 1.665 1.264 1.264 0 0 1-.255.82q-2.51 2.646-5.079 5.235a1.576 1.576 0 0 1-1.859.285 1.441 1.441 0 0 1-.913-1.476 1.812 1.812 0 0 1 .4-1.033c1.213-1.327 2.468-2.616 3.721-3.906a11.468 11.468 0 0 1 1.216-1.113 5.366 5.366 0 0 1 .95-.477z" class="prefix__cls-4" data-name="Path 1432" transform="translate(-394.129 -434.679)"/>
                <path id="prefix__Path_1433" d="M-536.9 252.733a1.621 1.621 0 0 1-1.618-1.088 1.446 1.446 0 0 1 .348-1.74c1.634-1.638 3.257-3.288 4.917-4.9a1.517 1.517 0 0 1 2.2-.029 1.636 1.636 0 0 1 .076 2.295q-2.537 2.654-5.148 5.235c-.175.168-.516.156-.775.227z" class="prefix__cls-4" data-name="Path 1433" transform="translate(-288.01 -174.482)"/>
                <path id="prefix__Path_1434" d="M-718.971 544.021a2.5 2.5 0 0 1 .847.413q2.646 2.646 5.225 5.359a1.385 1.385 0 0 1-.208 1.816 1.314 1.314 0 0 1-1.727.424 22.722 22.722 0 0 1-2.147-1.855c-1.14-1.1-2.241-2.233-3.36-3.35a1.385 1.385 0 0 1-.327-1.8 1.857 1.857 0 0 1 1.697-1.007z" class="prefix__cls-4" data-name="Path 1434" transform="translate(-124.058 -444.006)"/>
                <path id="prefix__Path_1435" d="M-327.4 336.778a1.374 1.374 0 0 1-.829 1.461 1.5 1.5 0 0 1-1.837-.249q-2.471-2.48-4.952-4.95a1.5 1.5 0 0 1-.332-1.751 1.8 1.8 0 0 1 1.486-1.047 1.054 1.054 0 0 1 .719.273c.7.568 1.39 1.146 2.033 1.773 1.062 1.036 2.091 2.107 3.118 3.178a1.536 1.536 0 0 1 .594 1.312z" class="prefix__cls-4" data-name="Path 1435" transform="translate(-470.858 -251.619)"/>
                <path id="prefix__Path_1436" d="M-729.666 445.869a1.9 1.9 0 0 1-1.8-1.024 1.409 1.409 0 0 1 .344-1.73q2.453-2.459 4.909-4.916a1.665 1.665 0 0 1 2.66.578 1.248 1.248 0 0 1-.218 1.437c-.8.9-1.607 1.781-2.444 2.638s-1.679 1.669-2.553 2.466a4.769 4.769 0 0 1-.898.551z" class="prefix__cls-4" data-name="Path 1436" transform="translate(-114.37 -348.37)"/>
                <path id="prefix__Path_1437" d="M-430.311 233.945a3.141 3.141 0 0 1 .861.433c1.736 1.722 3.466 3.452 5.155 5.221a1.448 1.448 0 0 1-.12 2.033 1.54 1.54 0 0 1-2.125.147c-1.2-1.1-2.355-2.257-3.517-3.4-.533-.526-1.031-1.087-1.556-1.621a1.457 1.457 0 0 1-.349-1.775 1.807 1.807 0 0 1 1.651-1.038z" class="prefix__cls-4" data-name="Path 1437" transform="translate(-383.896 -164.965)"/>
                <path id="prefix__Path_1438" d="M-622.1 639.969a2.65 2.65 0 0 1 .835.37c1.75 1.729 3.5 3.459 5.195 5.244a1.562 1.562 0 0 1-1.017 2.543 1.36 1.36 0 0 1-1.2-.339c-.953-.905-1.907-1.81-2.841-2.734-.757-.749-1.479-1.533-2.228-2.29a1.555 1.555 0 0 1-.253-1.924 1.586 1.586 0 0 1 1.509-.87z" class="prefix__cls-4" data-name="Path 1438" transform="translate(-211.384 -530.35)"/>
                <path id="prefix__Path_1439" d="M-626.867 342.978a2.281 2.281 0 0 1-.334.584c-1.761 1.772-3.521 3.547-5.318 5.282a1.368 1.368 0 0 1-2.043-.1 1.52 1.52 0 0 1-.109-2.163c.794-.877 1.618-1.728 2.453-2.566s1.692-1.608 2.513-2.437a1.528 1.528 0 0 1 1.829-.338c.693.291.904.923 1.009 1.738z" class="prefix__cls-4" data-name="Path 1439" transform="translate(-201.262 -261.371)"/>
            </g>
        </g>
    </g>
</svg>
