<svg xmlns="http://www.w3.org/2000/svg" width="80" height="90" viewBox="0 0 80 90">
    <defs>
        <clipPath id="prefix__clip-path">
            <path id="prefix__Rectangle_140" fill="#737373" d="M0 0H80V80H0z" data-name="Rectangle 140" transform="translate(256 2432)"/>
        </clipPath>
        <style>
            .prefix__cls-3{clip-path:url(#prefix__clip-path)}
        </style>
    </defs>
    <g id="prefix__Group_3519" data-name="Group 3519" transform="translate(-256 -2432)">
        <g id="prefix__Mask_Group_17" class="prefix__cls-3" data-name="Mask Group 17">
            <path id="prefix__rating" fill="#f15c2c" d="M52.462 55.411L47.8 58.772a1.956 1.956 0 0 0-.718 2.2l1.879 5.428a1.972 1.972 0 0 1 .1.7 2.06 2.06 0 0 1-3.24 1.5l-4.659-3.362a1.989 1.989 0 0 0-2.325 0L34.179 68.6a2.059 2.059 0 0 1-3.24-1.491 2 2 0 0 1 .1-.7l1.874-5.438a1.956 1.956 0 0 0-.718-2.2l-4.659-3.361a2.108 2.108 0 0 1 1.163-3.77h5.758a1.8 1.8 0 0 0 1.883-1.14l1.779-5.473a1.982 1.982 0 0 1 3.762 0L43.66 50.5a1.8 1.8 0 0 0 1.881 1.139H51.3a2.108 2.108 0 0 1 1.162 3.772zm26.719 10.937l-4.659 3.361a1.956 1.956 0 0 0-.718 2.2l1.876 5.438a1.972 1.972 0 0 1 .1.7 2.06 2.06 0 0 1-3.239 1.491l-4.659-3.362a1.989 1.989 0 0 0-2.325 0L60.9 79.538a2.059 2.059 0 0 1-3.24-1.491 2 2 0 0 1 .1-.7l1.874-5.447a1.956 1.956 0 0 0-.718-2.2l-4.659-3.361a2.108 2.108 0 0 1 1.163-3.77h5.758a1.8 1.8 0 0 0 1.881-1.139l1.779-5.473a1.982 1.982 0 0 1 3.762 0l1.779 5.473a1.8 1.8 0 0 0 1.881 1.139h5.758a2.108 2.108 0 0 1 1.163 3.779zm-53.437 0l-4.659 3.361a1.956 1.956 0 0 0-.718 2.2l1.876 5.438a1.972 1.972 0 0 1 .1.7 2.06 2.06 0 0 1-3.243 1.491l-4.659-3.362a1.989 1.989 0 0 0-2.325 0L7.46 79.538a2.059 2.059 0 0 1-3.24-1.491 2 2 0 0 1 .1-.7L6.2 71.9a1.956 1.956 0 0 0-.718-2.2L.819 66.348a2.108 2.108 0 0 1 1.162-3.77H7.74a1.8 1.8 0 0 0 1.881-1.139l1.779-5.473a1.982 1.982 0 0 1 3.762 0l1.779 5.473a1.8 1.8 0 0 0 1.881 1.139h5.758a2.108 2.108 0 0 1 1.163 3.77z" transform="translate(256 2432)"/>
        </g>
        <g id="prefix__Mask_Group_18" class="prefix__cls-3" data-name="Mask Group 18">
            <path id="prefix__rating-2" d="M12.95 48.613a3.124 3.124 0 0 0 4.335-.859 27.18 27.18 0 0 1 45.122-.054 3.125 3.125 0 0 0 5.186-3.489 33.352 33.352 0 0 0-16.44-12.8 17.656 17.656 0 1 0-22.39-.07A33.344 33.344 0 0 0 12.09 44.278a3.125 3.125 0 0 0 .86 4.335zM40 6.328a11.406 11.406 0 1 1-11.406 11.406A11.419 11.419 0 0 1 40 6.328z" data-name="rating" transform="translate(256 2432)"/>
        </g>
    </g>
</svg>
