<svg id="Layer_1" height="512" viewBox="0 0 512 512" width="512" xmlns="http://www.w3.org/2000/svg" data-name="Layer 1"><path d="m451.367 299.578-2.971 1.6c-10.236-12.735-28.249-17.728-41.93-10.8l-.133.07-6.424 3.46a45.788 45.788 0 0 0 -52.717-4.977l-32.977 17.939h-43.855a63.652 63.652 0 0 1 -27.567-6.317l-6.013-2.907a102.621 102.621 0 0 0 -106.807 10.43q-.2.149-.382.313l-14.518 12.925a50.909 50.909 0 0 1 -19.711 10.88l-8.411-27.589a6 6 0 0 0 -5.739-4.25h-70.212a6 6 0 0 0 -5.956 6.727l23.4 191.912a6 6 0 0 0 5.956 5.274h105.322a6 6 0 0 0 5.739-7.75l-13.961-45.792 43.45-27.469a26.478 26.478 0 0 1 19.322-2.506c.124.031.249.058.375.082l87.651 16.14a112.892 112.892 0 0 0 69.757-9.849 5.925 5.925 0 0 0 .734-.431l151.611-104.093a6 6 0 0 0 1.744-8.041 41.075 41.075 0 0 0 -54.777-14.981zm-39.414 1.48c7.963-3.994 18.735-1.177 25.611 5.966l-58.193 31.395-3.933 2.073a49.3 49.3 0 0 0 -8.383-15.243zm-58.96-1.615.143-.08a33.785 33.785 0 0 1 35.155.812l-30.341 16.349a49.129 49.129 0 0 0 -20.186-8.8zm-221.373 192.825h-91.9l-21.944-179.913h58.993zm214.734-75.712a100.807 100.807 0 0 1 -61.9 8.612l-87.454-16.104a38.446 38.446 0 0 0 -28.042 3.794c-.094.053-.186.108-.277.166l-40.811 25.8-29.007-95.148a62.932 62.932 0 0 0 24.189-13.4l14.331-12.758a90.673 90.673 0 0 1 94.173-9.07l6.013 2.907a75.735 75.735 0 0 0 32.792 7.514h58.31a37.416 37.416 0 0 1 36.822 31.052l-42.935-1.942a252.286 252.286 0 0 0 -45.9 2.12 6 6 0 1 0 1.645 11.886 240.71 240.71 0 0 1 43.709-2.019l49.737 2.251c.091 0 .181.006.272.006a6 6 0 0 0 6-6c0-1.164-.055-2.315-.134-3.459l7.128-3.758 72.048-38.869a29.089 29.089 0 0 1 35.433 6.073z"/><path d="m61.5 464.689a20.043 20.043 0 1 0 20.042-20.043 20.065 20.065 0 0 0 -20.042 20.043zm20.042-8.043a8.043 8.043 0 1 1 -8.042 8.043 8.052 8.052 0 0 1 8.045-8.043z"/><path d="m266.354 134.2a6 6 0 0 0 -6-6h-22.506v-113.311a6 6 0 0 0 -12 0v113.311h-22.507a6 6 0 0 0 0 12h3.342l-7.308 25.134-.239 67.727a25.109 25.109 0 0 0 25.08 25.08h15.263a25.109 25.109 0 0 0 25.08-25.08v-5.377a6 6 0 1 0 -12 0v5.377a13.1 13.1 0 0 1 -13.08 13.08h-15.263a13.1 13.1 0 0 1 -13.08-13.08v-65.2l8.044-27.661h25.335l8.044 27.664v27.026a6 6 0 1 0 12 0l-.238-29.556-7.309-25.134h3.342a6 6 0 0 0 6-6z"/><path d="m258.559 205.182a6 6 0 0 0 -6 6v.47a6 6 0 1 0 12 0v-.47a6 6 0 0 0 -6-6z"/><path d="m300.432 116.091v117.269a24.781 24.781 0 1 0 49.561 0v-46.822a6 6 0 1 0 -12 0v46.822a12.781 12.781 0 1 1 -25.561 0v-121.272a6 6 0 0 0 -3.9-5.62 47.874 47.874 0 0 1 -30.977-44.657 47.374 47.374 0 0 1 17.77-37.154l-.066 18.843a6 6 0 0 0 2.561 4.937l24.1 16.859a6 6 0 0 0 6.765.078l23.785-15.836a6 6 0 0 0 2.674-4.995v-19.849a47.39 47.39 0 0 1 17.727 37.117 47.874 47.874 0 0 1 -30.977 44.657 6 6 0 0 0 -3.9 5.62v38.33a6 6 0 0 0 12 0v-34.327a59.68 59.68 0 0 0 1.831-107.691 6 6 0 0 0 -8.681 5.368v27.563l-17.7 11.788-18.174-12.712.091-26.649a6.007 6.007 0 0 0 -8.677-5.4 59.359 59.359 0 0 0 -33.13 53.451 59.96 59.96 0 0 0 34.878 54.282z"/><path d="m343.993 163.239a6 6 0 0 0 -6 6v.187a6 6 0 0 0 12 0v-.187a6 6 0 0 0 -6-6z"/><path d="m225.848 182.683v39.553a6 6 0 0 0 12 0v-39.553a6 6 0 0 0 -12 0z"/></svg>