<?xml version="1.0"?>
<svg xmlns="http://www.w3.org/2000/svg" id="outline" viewBox="0 0 512 512" width="512" height="512"><path d="M472,80H424V96h48a8.00917,8.00917,0,0,1,8,8V352a8.00917,8.00917,0,0,1-8,8H40a8.00917,8.00917,0,0,1-8-8V104a8.00917,8.00917,0,0,1,8-8H88V80H40a24.0275,24.0275,0,0,0-24,24V352a24.0275,24.0275,0,0,0,24,24H208v72H192a8.00008,8.00008,0,0,0-8,8v32a8.00008,8.00008,0,0,0,8,8H320a8.00008,8.00008,0,0,0,8-8V456a8.00008,8.00008,0,0,0-8-8H304V376H472a24.0275,24.0275,0,0,0,24-24V104A24.0275,24.0275,0,0,0,472,80ZM312,480H200V464H312Zm-24-32H224V376h24v32a8,8,0,0,0,16,0V376h24Z"/><path d="M64,272v16H448V272H408V88a7.99583,7.99583,0,0,0-.84473-3.57764l-32-64A7.99979,7.99979,0,0,0,368,16H144a7.99979,7.99979,0,0,0-7.15527,4.42236l-32,64A7.99583,7.99583,0,0,0,104,88V272Zm240,0V176h48v96Zm40-160a16,16,0,0,1-32,0V96h32Zm-48,0a16,16,0,0,1-32,0V96h32Zm-48,0a16,16,0,0,1-32,0V96h32Zm-48,0a16,16,0,0,1-32,0V96h32ZM120,96h32v16a16,16,0,0,1-32,0ZM299.05591,80H268.94409l24-48h30.11182Zm-48,0H220.94409l24-48h30.11182Zm-48,0H172.94409l24-48h30.11182ZM360,96h32v16a16,16,0,0,1-32,0Zm4.94409-16L376,57.88843,387.05566,80Zm2.11157-39.99976L347.05591,80H316.94409l24-48h22.11157ZM148.94434,32h30.11157l-24,48H124.94434ZM120,139.69482a31.91543,31.91543,0,0,0,40-6.56274,31.934,31.934,0,0,0,48,0,31.934,31.934,0,0,0,48,0,31.934,31.934,0,0,0,48,0,31.934,31.934,0,0,0,48,0,31.91543,31.91543,0,0,0,40,6.56274V272H368V168a8.00008,8.00008,0,0,0-8-8H296a8.00008,8.00008,0,0,0-8,8V272H120Z"/><path d="M256,160H152a8.00008,8.00008,0,0,0-8,8v72a8.00008,8.00008,0,0,0,8,8H256a8.00008,8.00008,0,0,0,8-8V168A8.00008,8.00008,0,0,0,256,160Zm-8,72H160V176h88Z"/><rect x="176" y="312" width="16" height="16"/><rect x="224" y="312" width="16" height="16"/><rect x="272" y="312" width="16" height="16"/><rect x="320" y="312" width="16" height="16"/><circle cx="320" cy="224" r="8"/></svg>
