<svg width="60" height="57" viewBox="0 0 60 57" fill="none" xmlns="http://www.w3.org/2000/svg">
<g clip-path="url(#clip0_179_604)">
<path d="M59.9844 0H0V57H59.9844V0Z" fill="url(#paint0_linear_179_604)"/>
<path d="M39.6907 27.5486H37.8359L38.7627 25.9403L39.6895 24.332L40.6163 25.9403L41.5419 27.5486H39.6907Z" fill="white" stroke="#ECEDEE" stroke-width="0.33819" stroke-miterlimit="10"/>
<path d="M14.2595 23.5929V39.8869H7.21875V23.5978H7.22713L12.5113 23.5762C13.0154 23.5762 13.7458 23.5857 14.2595 23.5929Z" fill="white"/>
<path d="M31.0543 35.23L27.3424 39.899L23.5586 31.9127L27.6393 27.9238L31.0543 35.23Z" fill="white"/>
<path d="M27.9734 27.5877C27.959 27.397 27.9398 27.2075 27.9159 27.018C27.8432 26.4334 27.721 25.8561 27.5507 25.2922C27.5315 25.2286 27.5136 25.1723 27.4932 25.1075C26.9571 23.4801 26.0432 22.0033 24.8266 20.7984L24.6123 20.5837C24.5392 20.5105 24.465 20.4434 24.3919 20.375C22.0626 18.1944 18.9725 17.0154 15.785 17.0913H7.21995V24.3088H7.22834L12.5113 24.286C13.0154 24.286 13.7458 24.2956 14.2571 24.3016L14.863 24.3111H16.622H16.6723C17.7997 24.3111 18.8809 24.7597 19.678 25.5582C20.4752 26.3566 20.9231 27.4396 20.9231 28.5687C20.9231 29.6979 20.4752 30.7808 19.678 31.5793C18.8809 32.3777 17.7997 32.8263 16.6723 32.8263C16.4328 32.8395 16.1873 32.8491 15.9443 32.8635C15.7012 32.8779 15.4342 32.8767 15.1767 32.8635C14.9193 32.8503 14.6738 32.8563 14.4236 32.8503H14.2571H14.2499L12.6993 32.8851H7.21875V39.8975H15.7826C15.8078 39.8975 15.8329 39.8975 15.8916 39.8975H15.9143C15.9368 39.8967 15.9592 39.8947 15.9814 39.8915C15.9973 39.8935 16.0134 39.8935 16.0293 39.8915H16.0844H16.1251H16.2137C16.3178 39.8915 16.4208 39.8831 16.525 39.8771C16.7293 39.8651 16.9317 39.8507 17.1321 39.8339C17.3061 39.8164 17.4793 39.796 17.6518 39.7728L17.8098 39.75L17.9954 39.7212C19.4001 39.4983 20.7544 39.0285 21.9959 38.3336C22.0774 38.288 22.1588 38.2424 22.2354 38.1945C22.4749 38.0518 22.7144 37.8994 22.9539 37.7351C23.1083 37.6284 23.2628 37.5168 23.4137 37.4017C23.7981 37.1073 24.1662 36.7922 24.5165 36.4579C25.6228 35.4472 26.5044 34.2147 27.1039 32.8404C27.7034 31.4662 28.0074 29.9809 27.9961 28.4812C28.0057 28.167 27.9949 27.8767 27.9734 27.5877Z" fill="white"/>
<path d="M39.736 33.1013L39.6906 24.3223L27.3477 39.9003H34.3741L39.736 33.1013Z" fill="white"/>
<path d="M14.2595 24.3215V39.8994H7.21875V24.3275H7.22713L12.5113 24.3047C13.0154 24.3059 13.7458 24.3167 14.2595 24.3215Z" fill="white"/>
<path d="M52.0778 39.9116H45.1328L45.2071 20.9336H52.0778V39.9116Z" fill="white"/>
<path d="M39.7079 33.1329L39.6875 24.3203L52.0759 39.9115H45.0902L39.7079 33.1329Z" fill="white"/>
<path d="M27.3477 39.9L31.0525 35.2227L31.0609 35.2299L27.3477 39.9Z" fill="white"/>
</g>
<defs>
<linearGradient id="paint0_linear_179_604" x1="29.9922" y1="0" x2="29.9922" y2="57" gradientUnits="userSpaceOnUse">
<stop stop-color="#EE2D2F"/>
<stop offset="1" stop-color="#F4792F"/>
</linearGradient>
<clipPath id="clip0_179_604">
<rect width="60" height="57" fill="white"/>
</clipPath>
</defs>
</svg>
