<svg width="196" height="30" viewBox="0 0 196 30" fill="none" xmlns="http://www.w3.org/2000/svg">
<path d="M0.917762 1.52635L11.1661 26.7648L13.0016 22.176L4.69078 1.52635H0.917762ZM31.1019 1.52635L25.8503 14.7829L27.6858 19.3207L34.9259 1.52635H31.1019ZM12.3898 14.6809L14.2253 19.1168L17.8964 9.78621L24.6776 26.7648L26.4621 22.3799L17.8964 1.01648L12.3898 14.6809ZM37.2765 1.52635V5.09542H51.3489V1.52635H37.2765ZM49.5643 15.6497V12.1826H37.2765V15.6497H49.5643ZM40.7946 22.6859H37.2765V26.2039H51.3489V22.6859H40.7946ZM67.9781 12.9474C69.5587 12.3355 70.8844 10.449 70.8844 8.00167C70.8844 3.76977 67.7232 1.52635 62.4205 1.52635H55.0785V5.09542H62.9814C65.7857 5.09542 67.3663 6.06417 67.3663 8.15463C67.3663 10.2961 65.7857 11.2138 62.9814 11.2138H55.0785V14.7319H63.5423C66.6015 14.7319 68.539 16.0066 68.539 18.7089C68.539 21.4112 66.6015 22.6859 63.5423 22.6859H55.0785V26.2039H64.1541C69.0998 26.2039 72.057 23.0428 72.057 18.8109C72.057 16.3125 70.8334 13.6612 67.9781 12.9474Z" fill="#EE352F"/>
<path d="M86.9826 0.965496L75.2557 26.2039H79.0287L81.4251 20.9013L86.9826 8.71549L92.4892 20.9013L94.8856 26.2039H98.7096L86.9826 0.965496ZM109.933 1.52635H102.336V5.09542H110.85C113.4 5.09542 115.796 6.42108 115.796 9.63325C115.796 12.8454 113.655 14.1711 111.054 14.1711H102.336V26.2039H105.854V17.6892H111.054C116.255 17.6892 119.314 14.0691 119.314 9.4293C119.314 4.7895 116.357 1.52635 109.933 1.52635ZM131.393 1.52635H123.796V5.09542H132.311C134.86 5.09542 137.256 6.42108 137.256 9.63325C137.256 12.8454 135.115 14.1711 132.515 14.1711H123.796V26.2039H127.314V17.6892H132.515C137.715 17.6892 140.774 14.0691 140.774 9.4293C140.774 4.7895 137.817 1.52635 131.393 1.52635Z" fill="#F36C2F"/>
<path d="M143.774 24.6343C143.774 25.4537 144.429 26.1093 145.249 26.1093C146.068 26.1093 146.742 25.4537 146.742 24.6343C146.742 23.8149 146.068 23.1411 145.249 23.1411C144.429 23.1411 143.774 23.8149 143.774 24.6343ZM151.985 14.4187H150.073V15.748C150.073 16.531 149.654 17.1319 148.707 17.1319H148.252V19.0075H149.89V23.4689C149.89 25.1259 150.91 26.1093 152.549 26.1093C153.314 26.1093 153.714 25.9636 153.842 25.909V24.1608C153.751 24.179 153.405 24.2337 153.114 24.2337C152.331 24.2337 151.985 23.9059 151.985 23.1229V19.0075H153.824V17.1319H151.985V14.4187ZM159.802 24.3793C158.509 24.3793 157.325 23.396 157.325 21.5569C157.325 19.7177 158.509 18.7708 159.802 18.7708C161.113 18.7708 162.278 19.7177 162.278 21.5569C162.278 23.4142 161.113 24.3793 159.802 24.3793ZM159.802 16.8588C157.162 16.8588 155.213 18.8436 155.213 21.5569C155.213 24.2883 157.162 26.2731 159.802 26.2731C162.461 26.2731 164.409 24.2883 164.409 21.5569C164.409 18.8436 162.461 16.8588 159.802 16.8588ZM167.871 21.5387C167.871 19.8452 168.89 18.7708 170.274 18.7708C171.658 18.7708 172.605 19.827 172.605 21.5204C172.605 23.2139 171.64 24.3611 170.256 24.3611C168.818 24.3611 167.871 23.2321 167.871 21.5387ZM174.645 12.8163H172.587V18.1699C172.314 17.6054 171.531 16.8952 169.983 16.8952C167.488 16.8952 165.758 18.9893 165.758 21.5387C165.758 24.2155 167.47 26.2185 170.019 26.2185C171.276 26.2185 172.205 25.5994 172.623 24.8528C172.623 25.217 172.678 25.7997 172.714 26H174.736C174.717 25.8543 174.645 25.1806 174.645 24.3793V12.8163ZM176.823 23.5963C176.823 24.9985 177.97 26.2731 179.827 26.2731C181.266 26.2731 182.14 25.5448 182.559 24.871C182.559 25.5812 182.632 25.9454 182.65 26H184.616C184.598 25.909 184.507 25.3809 184.507 24.5797V20.1729C184.507 18.4066 183.469 16.8588 180.738 16.8588C178.553 16.8588 177.169 18.2245 177.005 19.7541L178.935 20.1911C179.026 19.2989 179.645 18.5887 180.756 18.5887C181.921 18.5887 182.431 19.1896 182.431 19.9362C182.431 20.2458 182.286 20.5007 181.776 20.5736L179.499 20.9195C177.988 21.138 176.823 22.0121 176.823 23.5963ZM180.228 24.6161C179.39 24.6161 178.935 24.0698 178.935 23.4689C178.935 22.7405 179.463 22.3763 180.119 22.267L182.431 21.9211V22.3217C182.431 24.0516 181.411 24.6161 180.228 24.6161ZM189.542 29.5873L195.187 17.1319H192.947L190.562 22.7405L188.013 17.1319H185.627L189.415 24.9438L187.284 29.5873H189.542Z" fill="black"/>
</svg>
